  0
SECTION
  2
HEADER
  9
$ACADVER
  1
AC1015
  9
$ACADMAINTVER
 70
6
  9
$DWGCODEPAGE
  3
ANSI_1252
  9
$INSBASE
 10
0.0
 20
0.0
 30
0.0
  9
$EXTMIN
 10
1e+20
 20
1e+20
 30
1e+20
  9
$EXTMAX
 10
-1e+20
 20
-1e+20
 30
-1e+20
  9
$LIMMIN
 10
0.0
 20
0.0
  9
$LIMMAX
 10
420.0
 20
297.0
  9
$ORTHOMODE
 70
0
  9
$REGENMODE
 70
1
  9
$FILLMODE
 70
1
  9
$QTEXTMODE
 70
0
  9
$MIRRTEXT
 70
1
  9
$LTSCALE
 40
1.0
  9
$ATTMODE
 70
1
  9
$TEXTSIZE
 40
2.5
  9
$TRACEWID
 40
1.0
  9
$TEXTSTYLE
  7
Standard
  9
$CLAYER
  8
0
  9
$CELTYPE
  6
ByLayer
  9
$CECOLOR
 62
256
  9
$CELTSCALE
 40
1.0
  9
$DISPSILH
 70
0
  9
$DIMSCALE
 40
1.0
  9
$DIMASZ
 40
2.5
  9
$DIMEXO
 40
0.625
  9
$DIMDLI
 40
3.75
  9
$DIMRND
 40
0.0
  9
$DIMDLE
 40
0.0
  9
$DIMEXE
 40
1.25
  9
$DIMTP
 40
0.0
  9
$DIMTM
 40
0.0
  9
$DIMTXT
 40
2.5
  9
$DIMCEN
 40
2.5
  9
$DIMTSZ
 40
0.0
  9
$DIMTOL
 70
0
  9
$DIMLIM
 70
0
  9
$DIMTIH
 70
0
  9
$DIMTOH
 70
0
  9
$DIMSE1
 70
0
  9
$DIMSE2
 70
0
  9
$DIMTAD
 70
1
  9
$DIMZIN
 70
8
  9
$DIMBLK
  1

  9
$DIMASO
 70
1
  9
$DIMSHO
 70
1
  9
$DIMPOST
  1

  9
$DIMAPOST
  1

  9
$DIMALT
 70
0
  9
$DIMALTD
 70
3
  9
$DIMALTF
 40
0.03937007874
  9
$DIMLFAC
 40
1.0
  9
$DIMTOFL
 70
1
  9
$DIMTVP
 40
0.0
  9
$DIMTIX
 70
0
  9
$DIMSOXD
 70
0
  9
$DIMSAH
 70
0
  9
$DIMBLK1
  1

  9
$DIMBLK2
  1

  9
$DIMSTYLE
  2
ISO-25
  9
$DIMCLRD
 70
0
  9
$DIMCLRE
 70
0
  9
$DIMCLRT
 70
0
  9
$DIMTFAC
 40
1.0
  9
$DIMGAP
 40
0.625
  9
$DIMJUST
 70
0
  9
$DIMSD1
 70
0
  9
$DIMSD2
 70
0
  9
$DIMTOLJ
 70
0
  9
$DIMTZIN
 70
8
  9
$DIMALTZ
 70
0
  9
$DIMALTTZ
 70
0
  9
$DIMUPT
 70
0
  9
$DIMDEC
 70
2
  9
$DIMTDEC
 70
2
  9
$DIMALTU
 70
2
  9
$DIMALTTD
 70
3
  9
$DIMTXSTY
  7
Standard
  9
$DIMAUNIT
 70
0
  9
$DIMADEC
 70
0
  9
$DIMALTRND
 40
0.0
  9
$DIMAZIN
 70
0
  9
$DIMDSEP
 70
44
  9
$DIMATFIT
 70
3
  9
$DIMFRAC
 70
0
  9
$DIMLDRBLK
  1

  9
$DIMLUNIT
 70
2
  9
$DIMLWD
 70
-2
  9
$DIMLWE
 70
-2
  9
$DIMTMOVE
 70
0
  9
$LUNITS
 70
2
  9
$LUPREC
 70
4
  9
$SKETCHINC
 40
1.0
  9
$FILLETRAD
 40
10.0
  9
$AUNITS
 70
0
  9
$AUPREC
 70
2
  9
$MENU
  1
.
  9
$ELEVATION
 40
0.0
  9
$PELEVATION
 40
0.0
  9
$THICKNESS
 40
0.0
  9
$LIMCHECK
 70
0
  9
$CHAMFERA
 40
0.0
  9
$CHAMFERB
 40
0.0
  9
$CHAMFERC
 40
0.0
  9
$CHAMFERD
 40
0.0
  9
$SKPOLY
 70
0
  9
$TDCREATE
 40
2460102.6165162036
  9
$TDUCREATE
 40
2458532.153996898
  9
$TDUPDATE
 40
2460102.6165162036
  9
$TDUUPDATE
 40
2458532.1544311
  9
$TDINDWG
 40
0.0
  9
$TDUSRTIMER
 40
0.0
  9
$USRTIMER
 70
1
  9
$ANGBASE
 50
0.0
  9
$ANGDIR
 70
0
  9
$PDMODE
 70
0
  9
$PDSIZE
 40
0.0
  9
$PLINEWID
 40
0.0
  9
$SPLFRAME
 70
0
  9
$SPLINETYPE
 70
6
  9
$SPLINESEGS
 70
8
  9
$HANDSEED
  5
4A
  9
$SURFTAB1
 70
6
  9
$SURFTAB2
 70
6
  9
$SURFTYPE
 70
6
  9
$SURFU
 70
6
  9
$SURFV
 70
6
  9
$UCSBASE
  2

  9
$UCSNAME
  2

  9
$UCSORG
 10
0.0
 20
0.0
 30
0.0
  9
$UCSXDIR
 10
1.0
 20
0.0
 30
0.0
  9
$UCSYDIR
 10
0.0
 20
1.0
 30
0.0
  9
$UCSORTHOREF
  2

  9
$UCSORTHOVIEW
 70
0
  9
$UCSORGTOP
 10
0.0
 20
0.0
 30
0.0
  9
$UCSORGBOTTOM
 10
0.0
 20
0.0
 30
0.0
  9
$UCSORGLEFT
 10
0.0
 20
0.0
 30
0.0
  9
$UCSORGRIGHT
 10
0.0
 20
0.0
 30
0.0
  9
$UCSORGFRONT
 10
0.0
 20
0.0
 30
0.0
  9
$UCSORGBACK
 10
0.0
 20
0.0
 30
0.0
  9
$PUCSBASE
  2

  9
$PUCSNAME
  2

  9
$PUCSORG
 10
0.0
 20
0.0
 30
0.0
  9
$PUCSXDIR
 10
1.0
 20
0.0
 30
0.0
  9
$PUCSYDIR
 10
0.0
 20
1.0
 30
0.0
  9
$PUCSORTHOREF
  2

  9
$PUCSORTHOVIEW
 70
0
  9
$PUCSORGTOP
 10
0.0
 20
0.0
 30
0.0
  9
$PUCSORGBOTTOM
 10
0.0
 20
0.0
 30
0.0
  9
$PUCSORGLEFT
 10
0.0
 20
0.0
 30
0.0
  9
$PUCSORGRIGHT
 10
0.0
 20
0.0
 30
0.0
  9
$PUCSORGFRONT
 10
0.0
 20
0.0
 30
0.0
  9
$PUCSORGBACK
 10
0.0
 20
0.0
 30
0.0
  9
$USERI1
 70
0
  9
$USERI2
 70
0
  9
$USERI3
 70
0
  9
$USERI4
 70
0
  9
$USERI5
 70
0
  9
$USERR1
 40
0.0
  9
$USERR2
 40
0.0
  9
$USERR3
 40
0.0
  9
$USERR4
 40
0.0
  9
$USERR5
 40
0.0
  9
$WORLDVIEW
 70
1
  9
$SHADEDGE
 70
3
  9
$SHADEDIF
 70
70
  9
$TILEMODE
 70
1
  9
$MAXACTVP
 70
64
  9
$PINSBASE
 10
0.0
 20
0.0
 30
0.0
  9
$PLIMCHECK
 70
0
  9
$PEXTMIN
 10
1e+20
 20
1e+20
 30
1e+20
  9
$PEXTMAX
 10
-1e+20
 20
-1e+20
 30
-1e+20
  9
$PLIMMIN
 10
0.0
 20
0.0
  9
$PLIMMAX
 10
420.0
 20
297.0
  9
$UNITMODE
 70
0
  9
$VISRETAIN
 70
1
  9
$PLINEGEN
 70
0
  9
$PSLTSCALE
 70
1
  9
$TREEDEPTH
 70
3020
  9
$CMLSTYLE
  2
Standard
  9
$CMLJUST
 70
0
  9
$CMLSCALE
 40
20.0
  9
$PROXYGRAPHICS
 70
1
  9
$MEASUREMENT
 70
1
  9
$CELWEIGHT
370
-1
  9
$ENDCAPS
280
0
  9
$JOINSTYLE
280
0
  9
$LWDISPLAY
290
0
  9
$INSUNITS
 70
6
  9
$HYPERLINKBASE
  1

  9
$STYLESHEET
  1

  9
$XEDIT
290
1
  9
$CEPSNTYPE
380
0
  9
$PSTYLEMODE
290
1
  9
$FINGERPRINTGUID
  2
{627803EF-A9F1-4978-9D64-4D1019AAA757}
  9
$VERSIONGUID
  2
{E91EF9D7-06A2-4B94-8DD9-1D9E437C65F5}
  9
$EXTNAMES
290
1
  9
$PSVPSCALE
 40
0.0
  9
$OLESTARTUP
290
0
  0
ENDSEC
  0
SECTION
  2
CLASSES
  0
CLASS
  1
ACDBDICTIONARYWDFLT
  2
AcDbDictionaryWithDefault
  3
ObjectDBX Classes
 90
0
280
0
281
0
  0
CLASS
  1
SUN
  2
AcDbSun
  3
SCENEOE
 90
1153
280
0
281
0
  0
CLASS
  1
VISUALSTYLE
  2
AcDbVisualStyle
  3
ObjectDBX Classes
 90
4095
280
0
281
0
  0
CLASS
  1
MATERIAL
  2
AcDbMaterial
  3
ObjectDBX Classes
 90
1153
280
0
281
0
  0
CLASS
  1
SCALE
  2
AcDbScale
  3
ObjectDBX Classes
 90
1153
280
0
281
0
  0
CLASS
  1
TABLESTYLE
  2
AcDbTableStyle
  3
ObjectDBX Classes
 90
4095
280
0
281
0
  0
CLASS
  1
MLEADERSTYLE
  2
AcDbMLeaderStyle
  3
ACDB_MLEADERSTYLE_CLASS
 90
4095
280
0
281
0
  0
CLASS
  1
DICTIONARYVAR
  2
AcDbDictionaryVar
  3
ObjectDBX Classes
 90
0
280
0
281
0
  0
CLASS
  1
CELLSTYLEMAP
  2
AcDbCellStyleMap
  3
ObjectDBX Classes
 90
1152
280
0
281
0
  0
CLASS
  1
MENTALRAYRENDERSETTINGS
  2
AcDbMentalRayRenderSettings
  3
SCENEOE
 90
1024
280
0
281
0
  0
CLASS
  1
ACDBDETAILVIEWSTYLE
  2
AcDbDetailViewStyle
  3
ObjectDBX Classes
 90
1025
280
0
281
0
  0
CLASS
  1
ACDBSECTIONVIEWSTYLE
  2
AcDbSectionViewStyle
  3
ObjectDBX Classes
 90
1025
280
0
281
0
  0
CLASS
  1
RASTERVARIABLES
  2
AcDbRasterVariables
  3
ISM
 90
0
280
0
281
0
  0
CLASS
  1
ACDBPLACEHOLDER
  2
AcDbPlaceHolder
  3
ObjectDBX Classes
 90
0
280
0
281
0
  0
CLASS
  1
LAYOUT
  2
AcDbLayout
  3
ObjectDBX Classes
 90
0
280
0
281
0
  0
ENDSEC
  0
SECTION
  2
TABLES
  0
TABLE
  2
VPORT
  5
8
330
0
100
AcDbSymbolTable
 70
1
  0
VPORT
  5
23
330
8
100
AcDbSymbolTableRecord
100
AcDbViewportTableRecord
  2
*Active
 70
0
 10
0.0
 20
0.0
 11
1.0
 21
1.0
 12
0.0
 22
0.0
 13
0.0
 23
0.0
 14
0.5
 24
0.5
 15
0.5
 25
0.5
 16
0.0
 26
0.0
 36
1.0
 17
0.0
 27
0.0
 37
0.0
 40
1000.0
 41
1.34
 42
50.0
 43
0.0
 44
0.0
 50
0.0
 51
0.0
 71
0
 72
1000
 73
1
 74
3
 75
0
 76
0
 77
0
 78
0
281
0
 65
0
146
0.0
  0
ENDTAB
  0
TABLE
  2
LTYPE
  5
2
330
0
100
AcDbSymbolTable
 70
3
  0
LTYPE
  5
24
330
2
100
AcDbSymbolTableRecord
100
AcDbLinetypeTableRecord
  2
ByBlock
 70
0
  3

 72
65
 73
0
 40
0.0
  0
LTYPE
  5
25
330
2
100
AcDbSymbolTableRecord
100
AcDbLinetypeTableRecord
  2
ByLayer
 70
0
  3

 72
65
 73
0
 40
0.0
  0
LTYPE
  5
26
330
2
100
AcDbSymbolTableRecord
100
AcDbLinetypeTableRecord
  2
Continuous
 70
0
  3

 72
65
 73
0
 40
0.0
  0
ENDTAB
  0
TABLE
  2
LAYER
  5
1
330
0
100
AcDbSymbolTable
 70
2
  0
LAYER
  5
27
330
1
100
AcDbSymbolTableRecord
100
AcDbLayerTableRecord
  2
0
 70
0
 62
7
  6
Continuous
370
-3
390
13
  0
LAYER
  5
28
330
1
100
AcDbSymbolTableRecord
100
AcDbLayerTableRecord
  2
Defpoints
 70
0
 62
7
  6
Continuous
290
0
370
-3
390
13
  0
ENDTAB
  0
TABLE
  2
STYLE
  5
5
330
0
100
AcDbSymbolTable
 70
1
  0
STYLE
  5
29
330
5
100
AcDbSymbolTableRecord
100
AcDbTextStyleTableRecord
  2
Standard
 70
0
 40
0.0
 41
1.0
 50
0.0
 71
0
 42
2.5
  3
txt
  4

  0
ENDTAB
  0
TABLE
  2
VIEW
  5
7
330
0
100
AcDbSymbolTable
 70
0
  0
ENDTAB
  0
TABLE
  2
UCS
  5
6
330
0
100
AcDbSymbolTable
 70
0
  0
ENDTAB
  0
TABLE
  2
APPID
  5
3
330
0
100
AcDbSymbolTable
 70
3
  0
APPID
  5
2A
330
3
100
AcDbSymbolTableRecord
100
AcDbRegAppTableRecord
  2
ACAD
 70
0
  0
APPID
  5
47
330
3
100
AcDbSymbolTableRecord
100
AcDbRegAppTableRecord
  2
HATCHBACKGROUNDCOLOR
 70
0
  0
APPID
  5
48
330
3
100
AcDbSymbolTableRecord
100
AcDbRegAppTableRecord
  2
EZDXF
 70
0
  0
ENDTAB
  0
TABLE
  2
DIMSTYLE
  5
4
330
0
100
AcDbSymbolTable
 70
1
100
AcDbDimStyleTable
  0
DIMSTYLE
105
2B
330
4
100
AcDbSymbolTableRecord
100
AcDbDimStyleTableRecord
  2
Standard
 70
0
  3

  4

 40
1.0
 41
2.5
 42
0.625
 43
3.75
 44
1.25
 45
0.0
 46
0.0
 47
0.0
 48
0.0
140
2.5
141
2.5
142
0.0
143
0.03937007874
144
1.0
145
0.0
146
1.0
147
0.625
148
0.0
 71
0
 72
0
 73
0
 74
0
 75
0
 76
0
 77
1
 78
8
 79
3
170
0
171
3
172
1
173
0
174
0
175
0
176
0
177
0
178
0
179
2
271
2
272
2
273
2
274
3
275
0
276
0
277
2
278
44
279
0
280
0
281
0
282
0
283
0
284
8
285
0
286
0
288
0
289
3
371
-2
372
-2
  0
ENDTAB
  0
TABLE
  2
BLOCK_RECORD
  5
9
330
0
100
AcDbSymbolTable
 70
2
  0
BLOCK_RECORD
  5
17
330
9
100
AcDbSymbolTableRecord
100
AcDbBlockTableRecord
  2
*Model_Space
340
1A
  0
BLOCK_RECORD
  5
1B
330
9
100
AcDbSymbolTableRecord
100
AcDbBlockTableRecord
  2
*Paper_Space
340
1E
  0
ENDTAB
  0
ENDSEC
  0
SECTION
  2
BLOCKS
  0
BLOCK
  5
18
330
17
100
AcDbEntity
  8
0
100
AcDbBlockBegin
  2
*Model_Space
 70
0
 10
0.0
 20
0.0
 30
0.0
  3
*Model_Space
  1

  0
ENDBLK
  5
19
330
17
100
AcDbEntity
  8
0
100
AcDbBlockEnd
  0
BLOCK
  5
1C
330
1B
100
AcDbEntity
  8
0
100
AcDbBlockBegin
  2
*Paper_Space
 70
0
 10
0.0
 20
0.0
 30
0.0
  3
*Paper_Space
  1

  0
ENDBLK
  5
1D
330
1B
100
AcDbEntity
  8
0
100
AcDbBlockEnd
  0
ENDSEC
  0
SECTION
  2
ENTITIES
  0
LWPOLYLINE
  5
2F
330
17
100
AcDbEntity
  8
0
100
AcDbPolyline
 90
5
 70
0
 10
0.0
 20
0.0
 10
0.0
 20
255.0
 10
255.0
 20
255.0
 10
255.0
 20
0.0
 10
0.0
 20
0.0
  0
LWPOLYLINE
  5
30
330
17
100
AcDbEntity
  8
0
100
AcDbPolyline
 90
39
 70
0
 10
25.635990467674524
 20
0.0
 10
26.0
 20
0.5047457384461138
 10
26.417238470292425
 20
1.0
 10
27.0
 20
1.5505837284807962
 10
27.59956918152888
 20
2.0
 10
28.0
 20
2.2680294298881343
 10
29.0
 20
2.7455424716417998
 10
29.664010189655706
 20
3.0
 10
30.0
 20
3.127894832688406
 10
31.0
 20
3.380430506975228
 10
32.0
 20
3.5387836964947916
 10
33.0
 20
3.63648450258335
 10
34.0
 20
3.6882603309416213
 10
35.0
 20
3.7034470767657393
 10
36.0
 20
3.690536881814475
 10
37.0
 20
3.657611411816373
 10
38.0
 20
3.611591961369611
 10
39.0
 20
3.5576430036805804
 10
40.0
 20
3.4990173383603524
 10
41.0
 20
3.437189160860735
 10
42.0
 20
3.3720560861472175
 10
43.0
 20
3.302066023553931
 10
44.0
 20
3.2242012801157713
 10
45.0
 20
3.1337753402295605
 10
46.0
 20
3.023955216048537
 10
46.18025416097126
 20
3.0
 10
47.0
 20
2.8947701474939356
 10
48.0
 20
2.7559798252002032
 10
49.0
 20
2.6025900392165204
 10
50.0
 20
2.423720423501755
 10
51.0
 20
2.197309089033084
 10
51.65096694008312
 20
2.0
 10
52.0
 20
1.8910850103321133
 10
53.0
 20
1.5601109333826864
 10
54.0
 20
1.1706314229110002
 10
54.33780699702537
 20
1.0
 10
55.0
 20
0.6630091501770669
 10
56.0
 20
0.08873524959396029
 10
56.12530540164862
 20
0.0
  0
LWPOLYLINE
  5
31
330
17
100
AcDbEntity
  8
0
100
AcDbPolyline
 90
138
 70
0
 10
79.40578875358267
 20
0.0
 10
80.0
 20
0.4346831384880996
 10
80.90377198933756
 20
1.0
 10
81.0
 20
1.0606414151321943
 10
82.0
 20
1.5727083140919458
 10
82.96565168821517
 20
2.0
 10
83.0
 20
2.0160411887502865
 10
84.0
 20
2.3860704389139844
 10
85.0
 20
2.6637873868592394
 10
86.0
 20
2.902288733839867
 10
86.47313618078971
 20
3.0
 10
87.0
 20
3.1089121593973004
 10
88.0
 20
3.2495239642196228
 10
89.0
 20
3.336295258234171
 10
90.0
 20
3.380025370545795
 10
91.0
 20
3.386531385002118
 10
92.0
 20
3.3592957304676863
 10
93.0
 20
3.30029223716909
 10
94.0
 20
3.2096842704662616
 10
95.0
 20
3.085079296052946
 10
95.53407933967965
 20
3.0
 10
96.0
 20
2.926013018841812
 10
97.0
 20
2.760030380527613
 10
98.0
 20
2.5922783149502
 10
99.0
 20
2.41747688157879
 10
100.0
 20
2.225632658223138
 10
101.0
 20
2.004378749292943
 10
101.01837295296063
 20
2.0
 10
102.0
 20
1.783095908510999
 10
103.0
 20
1.5890055360298572
 10
104.0
 20
1.41005777280435
 10
105.0
 20
1.2360252927361686
 10
106.0
 20
1.0609730293897064
 10
106.35933906614454
 20
1.0
 10
107.0
 20
0.8933583620571014
 10
108.0
 20
0.7603791160764511
 10
109.0
 20
0.6573618542896597
 10
110.0
 20
0.5795257350471268
 10
111.0
 20
0.5241332698840133
 10
112.0
 20
0.4898030149863253
 10
113.0
 20
0.47584468258871104
 10
114.0
 20
0.48178574880082436
 10
115.0
 20
0.5071805154134541
 10
116.0
 20
0.551712111194272
 10
117.0
 20
0.61553570691285
 10
118.0
 20
0.6997703681409695
 10
119.0
 20
0.8070291695147397
 10
120.0
 20
0.9418974348308601
 10
120.35733204781553
 20
1.0
 10
121.0
 20
1.1027205875682076
 10
122.0
 20
1.2644028634611222
 10
123.0
 20
1.4272146659274014
 10
124.0
 20
1.5988456507013953
 10
125.0
 20
1.79221479199865
 10
125.89846427779338
 20
2.0
 10
126.0
 20
2.0248178976612463
 10
127.0
 20
2.2636962540736687
 10
128.0
 20
2.4913969361161437
 10
129.0
 20
2.7329273830715013
 10
129.92948763021278
 20
3.0
 10
130.0
 20
3.0217202143425923
 10
131.0
 20
3.319240318585046
 10
132.0
 20
3.6058159367926645
 10
133.0
 20
3.9322579650641005
 10
133.17801191578442
 20
4.0
 10
134.0
 20
4.297660649109362
 10
135.0
 20
4.645262422685603
 10
135.87810794950747
 20
5.0
 10
136.0
 20
5.052975515331909
 10
137.0
 20
5.468107080419854
 10
138.0
 20
5.902494806299012
 10
138.19361121258788
 20
6.0
 10
139.0
 20
6.389605593992172
 10
140.0
 20
6.8731599429254
 10
140.2286313309054
 20
7.0
 10
141.0
 20
7.414085019523226
 10
142.00000000000003
 20
7.957109156557726
 10
142.07059731393355
 20
8.0
 10
143.0
 20
8.534469242092582
 10
143.77723460010492
 20
9.0
 10
144.0
 20
9.140070797683418
 10
145.0
 20
9.731352234127076
 10
145.42068922329315
 20
10.0
 10
146.0
 20
10.366789714295152
 10
147.0
 20
10.979808903035304
 10
147.03078462424
 20
11.0
 10
148.0
 20
11.593345559058111
 10
148.65974857083225
 20
12.0
 10
149.0
 20
12.213056858512715
 10
150.0
 20
12.776771126020323
 10
150.37979485076062
 20
13.0
 10
151.0
 20
13.353039991797317
 10
152.0
 20
13.860299422510844
 10
152.26591654215304
 20
14.0
 10
153.0
 20
14.364918283785608
 10
154.0
 20
14.788819583498633
 10
154.49461836987695
 20
15.0
 10
155.0
 20
15.212615878917285
 10
156.0
 20
15.546317129382501
 10
157.0
 20
15.835540867443935
 10
157.60887422473067
 20
16.0
 10
158.0
 20
16.10711884737904
 10
159.0
 20
16.3052824909324
 10
160.0
 20
16.43644861407964
 10
161.0
 20
16.51221648748662
 10
162.0
 20
16.534855197743685
 10
163.0
 20
16.502990253990763
 10
164.0
 20
16.413303859383483
 10
165.0
 20
16.256588969313828
 10
166.0
 20
16.007476101195913
 10
166.02188613492456
 20
16.0
 10
167.0
 20
15.68694089346371
 10
168.0
 20
15.316520681463546
 10
168.63985382728856
 20
15.0
 10
169.0
 20
14.810337251704915
 10
170.0
 20
14.239766481431662
 10
170.34060799176956
 20
14.0
 10
171.0
 20
13.513271801171427
 10
171.61188671625126
 20
13.0
 10
172.0
 20
12.643590301095827
 10
172.63430898829984
 20
12.0
 10
173.0
 20
11.59002347503533
 10
173.48387184551348
 20
11.0
 10
174.0
 20
10.287196122182282
 10
174.20108654411123
 20
10.0
 10
174.7783235731235
 20
9.0
 10
175.0
 20
8.592962069253591
 10
175.30730965998566
 20
8.0
 10
175.71734280445958
 20
7.0
 10
176.0
 20
6.269772011465605
 10
176.10693040963974
 20
6.0
 10
176.41733955563245
 20
5.0
 10
176.66666647621042
 20
4.0
 10
176.8974586513759
 20
3.0
 10
177.0
 20
2.5424746231620503
 10
177.12082236084785
 20
2.0
 10
177.30146349911632
 20
1.0
 10
177.4552921685943
 20
0.0
  0
LWPOLYLINE
  5
32
330
17
100
AcDbEntity
  8
0
100
AcDbPolyline
 90
33
 70
0
 10
191.9480549488816
 20
0.0
 10
191.89137481130254
 20
1.0
 10
191.90091452398912
 20
2.0
 10
192.0
 20
2.988493861423716
 10
192.00117680153193
 20
3.0
 10
192.20217041864078
 20
4.0
 10
192.5069464293873
 20
5.0
 10
193.00000000000003
 20
5.999256343599693
 10
193.00043910522837
 20
6.0
 10
193.75532988308424
 20
7.0
 10
194.0
 20
7.245628843546474
 10
194.99999999999997
 20
7.994381830303728
 10
195.01013206179684
 20
8.0
 10
196.0
 20
8.458657548904903
 10
197.0
 20
8.692210237856397
 10
198.0
 20
8.761246230953306
 10
199.0
 20
8.673706264893296
 10
200.0
 20
8.43274187086849
 10
200.97328114915726
 20
8.0
 10
201.0
 20
7.986213643397185
 10
202.0
 20
7.3363705114356526
 10
202.39363568906992
 20
7.0
 10
203.0
 20
6.402715834751216
 10
203.3536864200408
 20
6.0
 10
204.0
 20
5.113230647003196
 10
204.07935077826212
 20
5.0
 10
204.64733955201893
 20
4.0
 10
205.0
 20
3.312256748634273
 10
205.16040184546983
 20
3.0
 10
205.58180967772802
 20
2.0
 10
205.9950892509273
 20
1.0
 10
206.0
 20
0.9889117138695768
 10
206.40389053794257
 20
0.0
  0
LWPOLYLINE
  5
33
330
17
100
AcDbEntity
  8
0
100
AcDbPolyline
 90
637
 70
0
 10
255.0
 20
7.538703230959475
 10
254.0
 20
7.299728905066715
 10
253.0
 20
7.049633311870604
 10
252.80859477792302
 20
7.000000000000001
 10
252.0
 20
6.79946713209467
 10
251.0
 20
6.592633247217618
 10
250.0
 20
6.410497996932369
 10
249.0
 20
6.238853023670272
 10
248.0
 20
6.070391450766898
 10
247.56141964521004
 20
6.0
 10
247.0
 20
5.910069972194295
 10
246.0
 20
5.784110109746451
 10
245.0
 20
5.689929969495788
 10
244.0
 20
5.623695924640707
 10
243.0
 20
5.583852045337533
 10
242.0
 20
5.570323344133913
 10
241.0
 20
5.583884499263155
 10
240.0
 20
5.6259484055801705
 10
239.0
 20
5.698983738216867
 10
238.0
 20
5.807645754939095
 10
237.0
 20
5.960569690839078
 10
236.80126919007537
 20
6.0
 10
236.0
 20
6.152703986817766
 10
235.0
 20
6.354936746737211
 10
234.0
 20
6.575164769339135
 10
233.0
 20
6.837444416597833
 10
232.50052709597588
 20
7.0
 10
232.0
 20
7.163527849690533
 10
231.0
 20
7.482057055981768
 10
230.0
 20
7.827975236274894
 10
229.5849768613954
 20
8.0
 10
229.0
 20
8.240689373979727
 10
228.0
 20
8.634700257903283
 10
227.19183771350328
 20
9.0
 10
227.0
 20
9.092283412385619
 10
226.0
 20
9.547733173529434
 10
225.08531333314994
 20
10.000000000000002
 10
225.0
 20
10.04563831140004
 10
224.0
 20
10.552577264125773
 10
223.17402634519414
 20
11.0
 10
223.0
 20
11.100319703065313
 10
222.0
 20
11.644553010267458
 10
221.40043295755285
 20
12.0
 10
221.0
 20
12.243565670117285
 10
220.0
 20
12.826338985529315
 10
219.73126233563733
 20
13.0
 10
219.0
 20
13.462430812134986
 10
218.1656853301671
 20
14.0
 10
218.00000000000003
 20
14.112799024360825
 10
217.0
 20
14.761995680137623
 10
216.66091338716768
 20
15.0
 10
216.0
 20
15.459708391106407
 10
215.23366096072374
 20
16.0
 10
215.0
 20
16.171513901421108
 10
214.0
 20
16.87874312502194
 10
213.84001875730058
 20
17.0
 10
213.0
 20
17.619767238850912
 10
212.4996186157415
 20
18.0
 10
212.0
 20
18.381954319079377
 10
211.18475564163862
 20
19.0
 10
211.0
 20
19.144788563589966
 10
210.0
 20
19.895043892583118
 10
209.86653891227348
 20
20.0
 10
209.0
 20
20.65725566310864
 10
208.5543210543521
 20
21.0
 10
208.0
 20
21.421581856585888
 10
207.21955508527688
 20
22.0
 10
207.0
 20
22.16591973425158
 10
206.0
 20
22.867765749786205
 10
205.81768527172125
 20
23.0
 10
205.0
 20
23.562831038273778
 10
204.3487097375504
 20
24.0
 10
204.0
 20
24.23468088021622
 10
203.0
 20
24.83807007054188
 10
202.73926148215446
 20
25.0
 10
202.0
 20
25.43462941166484
 10
201.0
 20
25.97156231612805
 10
200.94837279131983
 20
26.0
 10
200.0
 20
26.47682600538826
 10
199.0
 20
26.928886847697555
 10
198.84621890257364
 20
27.0
 10
198.0
 20
27.36328286778913
 10
197.0
 20
27.721555422837287
 10
196.22496902428003
 20
28.0
 10
196.0
 20
28.083905989430352
 10
195.0
 20
28.38957917186645
 10
194.0
 20
28.642856024494975
 10
193.0
 20
28.882975572816793
 10
192.5079378598685
 20
29.0
 10
192.0
 20
29.12047585499343
 10
190.99999999999997
 20
29.311777003619568
 10
190.0
 20
29.469150243995905
 10
189.0
 20
29.608748783663927
 10
188.0
 20
29.742429309679892
 10
187.0
 20
29.87987666132329
 10
186.1939824100439
 20
30.0
 10
185.99999999999997
 20
30.029759120948547
 10
185.0
 20
30.178433787184286
 10
184.0
 20
30.323945934851587
 10
183.0
 20
30.47712542966878
 10
182.0
 20
30.653372933237968
 10
181.0
 20
30.877340404057286
 10
180.57981311673427
 20
31.0
 10
180.0
 20
31.168101436026074
 10
179.0
 20
31.4751357396337
 10
178.0
 20
31.84623639351412
 10
177.6826325218927
 20
32.0
 10
177.0
 20
32.331818281757094
 10
176.0
 20
32.88110409810052
 10
175.82682167984117
 20
33.0
 10
175.0
 20
33.586754482342315
 10
174.50715202839967
 20
34.0
 10
174.0
 20
34.47320602594496
 10
173.50292542741826
 20
35.0
 10
173.0
 20
35.61996866490407
 10
172.71675429141533
 20
36.0
 10
172.13116487684076
 20
37.0
 10
171.99999999999997
 20
37.253955791725005
 10
171.6483286817268
 20
38.0
 10
171.32002974502208
 20
39.0
 10
171.0665724857382
 20
40.0
 10
171.0
 20
40.357099160608556
 10
170.88164613523162
 20
41.0
 10
170.78835796589647
 20
42.0
 10
170.76730985187186
 20
43.0
 10
170.80691648764878
 20
44.0
 10
170.90180487620376
 20
45.0
 10
171.0
 20
45.670445011562904
 10
171.04878725088463
 20
46.0
 10
171.21649341166025
 20
47.0
 10
171.38523389501472
 20
48.0
 10
171.54970695913858
 20
49.0
 10
171.70742346417325
 20
50.0
 10
171.85195393268808
 20
51.0
 10
171.96837514212294
 20
52.0
 10
172.0
 20
52.48563421974434
 10
172.0341797519008
 20
53.0
 10
172.02705883268194
 20
54.0
 10
172.0
 20
54.28465177892478
 10
171.93410848559938
 20
55.0
 10
171.75695714179687
 20
56.0
 10
171.491302682332
 20
57.0
 10
171.08064117677299
 20
58.0
 10
171.0
 20
58.137914234106404
 10
170.47763938446155
 20
59.0
 10
170.0
 20
59.597407846106535
 10
169.61864719530166
 20
60.0
 10
169.0
 20
60.54015206432341
 10
168.3181145465175
 20
61.0
 10
168.0
 20
61.197001715462896
 10
167.0
 20
61.61202696057885
 10
166.0
 20
61.87732122933746
 10
165.15242656968826
 20
62.0
 10
165.0
 20
62.0231455228714
 10
164.0
 20
62.03224773568848
 10
163.7504829392464
 20
62.0
 10
163.0
 20
61.90715259659922
 10
162.0
 20
61.67437003405615
 10
161.0
 20
61.33407113969483
 10
160.34139084088878
 20
61.0
 10
160.0
 20
60.81134027917928
 10
159.0
 20
60.166800807736514
 10
158.79328932948692
 20
60.0
 10
158.0
 20
59.30628454938314
 10
157.69480011144987
 20
59.0
 10
157.0
 20
58.20708533388161
 10
156.83096077524064
 20
58.00000000000001
 10
156.14714086139892
 20
57.0
 10
156.0
 20
56.76893519266106
 10
155.5518723898623
 20
56.0
 10
155.0681617336415
 20
55.0
 10
155.0
 20
54.853879748057295
 10
154.6338249947924
 20
54.0
 10
154.29633575354026
 20
53.0
 10
154.0
 20
52.07893576329951
 10
153.97300402368796
 20
52.0
 10
153.69644659342612
 20
51.0
 10
153.48074552272487
 20
50.0
 10
153.29212885730377
 20
49.0
 10
153.11093126077768
 20
48.0
 10
153.0
 20
47.38535154253008
 10
152.92943907389412
 20
47.0
 10
152.77306931385357
 20
46.0
 10
152.63742003538738
 20
45.0
 10
152.5106987949302
 20
44.0
 10
152.38203204985507
 20
43.0
 10
152.23997329384832
 20
42.0
 10
152.07086883997195
 20
41.0
 10
152.0
 20
40.65077847205059
 10
151.87058028471844
 20
39.99999999999999
 10
151.6689252793245
 20
39.0
 10
151.45409693702464
 20
38.0
 10
151.19755956560522
 20
37.0
 10
151.0
 20
36.40269932486419
 10
150.8635205339697
 20
36.0
 10
150.51639757433594
 20
35.0
 10
150.11059176498284
 20
34.0
 10
150.0
 20
33.78232901956346
 10
149.60985360644526
 20
33.0
 10
149.05388198270904
 20
32.0
 10
149.0
 20
31.919602490472602
 10
148.38474825353046
 20
31.0
 10
148.0
 20
30.50389590592748
 10
147.58014177967692
 20
30.0
 10
147.0
 20
29.374444778742856
 10
146.61699461792503
 20
29.0
 10
146.0
 20
28.452543532846093
 10
145.42388478958858
 20
28.0
 10
145.0
 20
27.688392566302795
 10
144.0
 20
27.08594766927293
 10
143.84595611844168
 20
27.0
 10
143.0
 20
26.573825549219187
 10
142.0
 20
26.192020411143844
 10
141.42546463665684
 20
26.0
 10
141.0
 20
25.8581198882416
 10
140.0
 20
25.634062542570685
 10
139.0
 20
25.498925731424038
 10
138.0
 20
25.435644589970202
 10
137.0
 20
25.440844213056813
 10
136.0
 20
25.51508121343977
 10
135.0
 20
25.6638121720506
 10
134.0
 20
25.909269416155606
 10
133.74560064758552
 20
26.0
 10
133.0
 20
26.259896292356657
 10
132.0
 20
26.665242716279582
 10
131.38304951246639
 20
27.0
 10
131.0
 20
27.223103442272105
 10
130.0
 20
27.873585491779306
 10
129.84013724018268
 20
28.0
 10
129.0
 20
28.704494714244777
 10
128.69161800288418
 20
29.0
 10
128.0
 20
29.73933262040689
 10
127.77545278581317
 20
30.0
 10
127.04205684668962
 20
31.000000000000004
 10
127.0
 20
31.061599145657553
 10
126.43008955954969
 20
32.0
 10
126.0
 20
32.82791662254108
 10
125.90916157538443
 20
33.0
 10
125.49742473030467
 20
34.0
 10
125.16854489560878
 20
35.0
 10
125.0
 20
35.566794505354956
 10
124.87068496824868
 20
36.0
 10
124.66006120057469
 20
37.0
 10
124.52014127055565
 20
38.0
 10
124.4344376640353
 20
39.0
 10
124.39791005391385
 20
40.0
 10
124.40942226376578
 20
41.0
 10
124.46837063438875
 20
42.0
 10
124.57554717906568
 20
43.0
 10
124.73772254061197
 20
44.0
 10
124.97507251349853
 20
45.0
 10
125.0
 20
45.07979800425493
 10
125.27046917163091
 20
46.00000000000001
 10
125.58846303600026
 20
47.0
 10
125.99252310621226
 20
48.0
 10
126.0
 20
48.01514709259424
 10
126.45828179251268
 20
49.0
 10
126.9841917556151
 20
50.0
 10
127.0
 20
50.02540003739567
 10
127.58580141093533
 20
51.0
 10
128.0
 20
51.60824078603821
 10
128.28152348221738
 20
51.99999999999999
 10
129.0
 20
52.94623968351756
 10
129.04441835919636
 20
53.0
 10
129.9006772421175
 20
54.0
 10
130.0
 20
54.10659872942614
 10
130.87055873526074
 20
55.0
 10
131.0
 20
55.12581349048744
 10
131.96127257439622
 20
56.0
 10
132.0
 20
56.03432753219873
 10
133.0
 20
56.84851193171592
 10
133.19066589754124
 20
57.0
 10
134.0
 20
57.6037112928353
 10
134.5565932116426
 20
58.0
 10
135.0
 20
58.309257395872734
 10
136.0
 20
58.936369982132234
 10
136.09926221878567
 20
59.0
 10
137.0
 20
59.534464687801396
 10
137.82668845908213
 20
60.0
 10
138.0
 20
60.1011037896722
 10
139.0
 20
60.609496252696005
 10
139.77318680679394
 20
61.0
 10
140.0
 20
61.11863591418341
 10
141.0
 20
61.5725196926158
 10
141.94728148699394
 20
62.0
 10
142.0
 20
62.025493562561905
 10
143.0
 20
62.45257744166226
 10
144.0
 20
62.84826705695912
 10
144.35413967706836
 20
63.0
 10
145.0
 20
63.268801972210184
 10
146.0
 20
63.633741135542564
 10
146.94488929790688
 20
64.0
 10
147.0
 20
64.02301816891372
 10
148.0
 20
64.39987836609887
 10
149.0
 20
64.75019703842526
 10
149.63794214944568
 20
65.0
 10
150.0
 20
65.14530626899159
 10
151.0
 20
65.50790935861288
 10
152.0
 20
65.88087111467112
 10
152.27982600360102
 20
66.0
 10
153.0
 20
66.29638116557592
 10
154.0
 20
66.68452647324355
 10
154.70687858973275
 20
67.0
 10
155.0
 20
67.13668088976935
 10
156.0
 20
67.57872406789376
 10
156.85060313818192
 20
68.0
 10
157.0
 20
68.07947180865979
 10
158.0
 20
68.59364695117328
 10
158.70637342817872
 20
69.0
 10
159.0
 20
69.17773079883037
 10
160.0
 20
69.77484374739858
 10
160.3311138005651
 20
70.0
 10
161.0
 20
70.45648816601039
 10
161.75238475940063
 20
71.0
 10
162.0
 20
71.18898427990257
 10
163.0
 20
71.96488803446195
 10
163.04152840155987
 20
72.0
 10
164.0
 20
72.81222208401795
 10
164.20764670681564
 20
73.0
 10
165.0
 20
73.73236342635744
 10
165.27671436867683
 20
74.0
 10
166.0
 20
74.72188881240264
 10
166.26977470159017
 20
75.0
 10
167.0
 20
75.7819965757355
 10
167.19962650232696
 20
76.0
 10
168.0
 20
76.91662554449843
 10
168.07263979631992
 20
77.0
 10
168.89211704427447
 20
78.0
 10
169.0
 20
78.13088281380945
 10
169.68228129708166
 20
79.0
 10
170.0
 20
79.4079950807807
 10
170.44953715173142
 20
80.0
 10
171.0
 20
80.75164734826336
 10
171.18424617184348
 20
81.00000000000001
 10
171.86890815739633
 20
82.0
 10
172.0
 20
82.18443172929165
 10
172.55130734224474
 20
83.0
 10
173.0
 20
83.67465414200639
 10
173.21908936367578
 20
84.0
 10
173.83427542734754
 20
85.0
 10
174.0
 20
85.25627724359501
 10
174.46021014194787
 20
86.0
 10
175.0
 20
86.90722645783174
 10
175.05805631867258
 20
87.0
 10
175.62193855954976
 20
88.0
 10
176.0
 20
88.66303573124708
 10
176.19540869053552
 20
89.0
 10
176.7103540055981
 20
90.0
 10
177.0
 20
90.53899058768985
 10
177.24716338298333
 20
91.0
 10
177.71878638509338
 20
92.0
 10
178.0
 20
92.56969426183133
 10
178.21310355411063
 20
93.0
 10
178.6407301443163
 20
94.0
 10
179.0
 20
94.82329865865364
 10
179.08089649371772
 20
95.0
 10
179.47411213700997
 20
96.0
 10
179.83289664906275
 20
97.0
 10
180.0
 20
97.44466846607195
 10
180.2053783216672
 20
98.0
 10
180.51067116814016
 20
99.0
 10
180.7892127504437
 20
100.0
 10
181.0
 20
100.74124705016688
 10
181.0761724124445
 20
101.0
 10
181.31797679258915
 20
102.0
 10
181.51291853182113
 20
103.0
 10
181.68190618122466
 20
104.0
 10
181.83541681848618
 20
105.0
 10
181.9758340449645
 20
106.0
 10
182.0
 20
106.20132154145745
 10
182.094002700235
 20
107.0
 10
182.17796190645103
 20
108.0
 10
182.23319227445677
 20
109.0
 10
182.2636270941146
 20
110.0
 10
182.2718838689839
 20
111.0
 10
182.25979048756608
 20
112.0
 10
182.22866160562813
 20
113.0
 10
182.17941762355738
 20
114.00000000000001
 10
182.11265750828636
 20
114.99999999999999
 10
182.02878801537298
 20
116.0
 10
182.0
 20
116.29408089726093
 10
181.9318629965608
 20
117.0
 10
181.83443619190535
 20
118.0
 10
181.74028758266377
 20
119.0
 10
181.65151838843659
 20
120.0
 10
181.56958229635683
 20
121.0
 10
181.49587154227538
 20
122.0
 10
181.43226691052158
 20
123.0
 10
181.38149470724503
 20
124.0
 10
181.34718206711102
 20
125.0
 10
181.33358243910877
 20
126.0
 10
181.34508053459768
 20
127.0
 10
181.3858003823965
 20
128.0
 10
181.4599174085044
 20
129.0
 10
181.5735451357533
 20
130.0
 10
181.73924339782604
 20
131.0
 10
181.98442851276423
 20
132.0
 10
182.0
 20
132.0473317937683
 10
182.29455088471101
 20
133.0
 10
182.64816737432207
 20
134.0
 10
183.0
 20
134.73810814739736
 10
183.13532313209214
 20
135.0
 10
183.70230387356116
 20
136.0
 10
184.0
 20
136.41686867390905
 10
184.4495744487287
 20
137.0
 10
185.0
 20
137.61292063302145
 10
185.39520756113888
 20
138.0
 10
186.0
 20
138.52223233166808
 10
186.65930642002547
 20
139.0
 10
187.0
 20
139.23072497271068
 10
188.0
 20
139.74103723651035
 10
188.61090569861847
 20
140.0
 10
189.0
 20
140.16219478522095
 10
190.0
 20
140.4368481793395
 10
191.0
 20
140.5991820359411
 10
192.0
 20
140.67199782789385
 10
193.0
 20
140.65804430627227
 10
194.0
 20
140.55853768035217
 10
195.0
 20
140.3700499382584
 10
196.0
 20
140.06206788422483
 10
196.14203168984554
 20
140.0
 10
197.0
 20
139.63575768051606
 10
198.0
 20
139.11849095144493
 10
198.1778697158127
 20
139.0
 10
199.0
 20
138.43597438361152
 10
199.53529493833454
 20
138.0
 10
200.0
 20
137.58274580741838
 10
200.5765873961151
 20
137.0
 10
201.0
 20
136.51899029466057
 10
201.41817016425307
 20
136.0
 10
202.0
 20
135.15643474493257
 10
202.10595310248496
 20
135.0
 10
202.65275934121854
 20
134.0
 10
203.0
 20
133.28165833796413
 10
203.1369292545839
 20
133.0
 10
203.50703144049868
 20
132.0
 10
203.80020970165725
 20
131.0
 10
204.0
 20
130.23239680012864
 10
204.06278342117116
 20
130.0
 10
204.25517356560678
 20
129.0
 10
204.37920660008535
 20
128.0
 10
204.45203172578505
 20
127.0
 10
204.48153590315266
 20
126.0
 10
204.4717639625646
 20
125.0
 10
204.42523293765726
 20
124.0
 10
204.34294074938867
 20
123.0
 10
204.22301731241254
 20
122.0
 10
204.0589488533276
 20
121.0
 10
204.0
 20
120.71632603668904
 10
203.85558382935014
 20
120.0
 10
203.6497585686956
 20
119.0
 10
203.43567532224367
 20
118.0
 10
203.19380677552783
 20
117.0
 10
202.99999999999997
 20
116.33017886024695
 10
202.901769862777
 20
116.0
 10
202.62143234141948
 20
115.0
 10
202.34864952949886
 20
114.0
 10
202.04201847238684
 20
113.0
 10
202.0
 20
112.87722145043355
 10
201.71788257218356
 20
112.0
 10
201.42735595633403
 20
111.0
 10
201.12289690478514
 20
110.0
 10
201.0
 20
109.63739952011545
 10
200.78898183852894
 20
109.0
 10
200.49724014960708
 20
108.0
 10
200.20958634564852
 20
107.0
 10
199.99999999999997
 20
106.34049347759907
 10
199.88902529834175
 20
106.0
 10
199.602255237164
 20
105.0
 10
199.33867004478412
 20
104.0
 10
199.05822196542945
 20
103.0
 10
199.0
 20
102.80705454515811
 10
198.76816660554698
 20
102.0
 10
198.51873827124916
 20
101.0
 10
198.27759512198298
 20
100.0
 10
198.01307556453082
 20
99.0
 10
198.0
 20
98.95382224244165
 10
197.7479047233764
 20
98.0
 10
197.51436648590857
 20
97.0
 10
197.282546990468
 20
96.0
 10
197.0221313639896
 20
95.0
 10
197.0
 20
94.92287687139445
 10
196.75163443005118
 20
94.0
 10
196.5059680250375
 20
93.0
 10
196.25177750066385
 20
92.0
 10
196.0
 20
91.15458031269449
 10
195.9512793527394
 20
91.0
 10
195.6516931112016
 20
90.0
 10
195.36004251279715
 20
89.0
 10
195.0207280154307
 20
88.0
 10
195.0
 20
87.94708411135773
 10
194.6543060058733
 20
87.0
 10
194.2963143230673
 20
86.0
 10
194.0
 20
85.30064664446616
 10
193.86692961295822
 20
85.0
 10
193.44359971727815
 20
84.0
 10
193.00000000000003
 20
83.0635724010571
 10
192.96718612725957
 20
83.0
 10
192.4688972518178
 20
82.0
 10
192.0
 20
81.13225174216261
 10
191.9231216575212
 20
81.0
 10
191.36401546432754
 20
80.0
 10
191.0
 20
79.40798054651208
 10
190.7420694876103
 20
79.0
 10
190.1253157981203
 20
78.0
 10
190.0
 20
77.81632965875683
 10
189.4601935585874
 20
77.0
 10
189.0
 20
76.32354626473891
 10
188.77382925086076
 20
76.0
 10
188.11009617089996
 20
75.0
 10
188.0
 20
74.84391284434236
 10
187.4334764148437
 20
74.0
 10
187.0
 20
73.34624127527113
 10
186.76888456303905
 20
73.0
 10
186.1738898587689
 20
72.0
 10
186.0
 20
71.71205583136555
 10
185.59384078170262
 20
71.0
 10
185.10470821056276
 20
70.0
 10
185.0
 20
69.78030502485954
 10
184.6540900901469
 20
69.0
 10
184.32156059431182
 20
68.0
 10
184.04709119031077
 20
67.0
 10
184.0
 20
66.77221075089423
 10
183.8442562029133
 20
66.0
 10
183.7522031547313
 20
65.0
 10
183.76266599549334
 20
64.0
 10
183.88651986496862
 20
63.0
 10
184.0
 20
62.56457925701585
 10
184.1469264105334
 20
62.0
 10
184.51055359317226
 20
61.0
 10
185.0
 20
60.09952318100396
 10
185.06293597682185
 20
60.0
 10
185.82889126210375
 20
59.0
 10
186.00000000000003
 20
58.82185972673476
 10
186.95384189253716
 20
58.00000000000001
 10
187.0
 20
57.96405526709095
 10
188.0
 20
57.36104213303173
 10
188.7780193905191
 20
57.0
 10
189.0
 20
56.897551947428944
 10
190.0
 20
56.584234544036306
 10
191.0
 20
56.3903458463127
 10
192.0
 20
56.275689469801705
 10
193.0
 20
56.22803899024938
 10
194.0
 20
56.23897980402788
 10
195.0
 20
56.296242114328386
 10
196.0
 20
56.38534686615907
 10
197.0
 20
56.493320980437275
 10
198.0
 20
56.610068597564435
 10
199.0
 20
56.72662662299132
 10
200.0
 20
56.83197494728682
 10
201.0
 20
56.91102145761701
 10
202.0
 20
56.945983044845455
 10
203.00000000000003
 20
56.921413942429325
 10
204.00000000000003
 20
56.829655177651034
 10
205.0
 20
56.67004394209272
 10
206.0
 20
56.43499195912452
 10
207.0
 20
56.07950648059041
 10
207.15962847608282
 20
56.0
 10
208.0
 20
55.58318147046103
 10
208.92681446930345
 20
54.99999999999999
 10
209.0
 20
54.946791449587565
 10
210.0
 20
54.11293222552767
 10
210.114550793473
 20
54.0
 10
210.98470080847233
 20
52.99999999999999
 10
211.0
 20
52.980111645825744
 10
211.6540790105143
 20
52.0
 10
212.0
 20
51.387438677963345
 10
212.21120895684453
 20
51.0
 10
212.62153998875863
 20
50.0
 10
212.97229254955548
 20
49.0
 10
212.99999999999997
 20
48.91355234911586
 10
213.2715690756151
 20
48.0
 10
213.48942115743128
 20
47.0
 10
213.6687893364083
 20
46.0
 10
213.8346627380379
 20
45.0
 10
214.0
 20
44.021610847576056
 10
214.0038551156091
 20
44.0
 10
214.16849986859557
 20
43.0
 10
214.32259622498424
 20
42.0
 10
214.4815273485493
 20
41.0
 10
214.66370799473606
 20
40.0
 10
214.89636869811105
 20
39.0
 10
215.0
 20
38.65612344234058
 10
215.19434095857832
 20
38.0
 10
215.50682141067637
 20
37.0
 10
215.88793556904386
 20
36.0
 10
216.0
 20
35.7701766966092
 10
216.36977601329852
 20
35.0
 10
216.90772495772407
 20
34.0
 10
216.99999999999997
 20
33.8601939528389
 10
217.57166995417174
 20
33.0
 10
218.0
 20
32.443234484188345
 10
218.36829201302305
 20
32.0
 10
219.0
 20
31.314012360409052
 10
219.3176274491727
 20
31.0
 10
220.0
 20
30.38539040146832
 10
220.47354532728758
 20
30.0
 10
221.0
 20
29.60079841984838
 10
221.91667613383459
 20
29.0
 10
222.00000000000003
 20
28.94514367924733
 10
223.0
 20
28.40057181004149
 10
223.82548033801305
 20
28.0
 10
224.00000000000003
 20
27.91308511648046
 10
225.0
 20
27.516945845783084
 10
226.0
 20
27.190780830983975
 10
226.61480817671477
 20
27.0
 10
227.0
 20
26.879204144997626
 10
228.0
 20
26.640943457862978
 10
229.0
 20
26.460480190525654
 10
230.0
 20
26.31542508606902
 10
231.0
 20
26.196563582663217
 10
232.0
 20
26.1018300913915
 10
233.0
 20
26.032002283230675
 10
233.72917738723163
 20
26.000000000000004
 10
234.0
 20
25.987938736555865
 10
235.0
 20
25.969601544070866
 10
236.00000000000003
 20
25.97376467288504
 10
237.0
 20
25.997202285193804
 10
237.07075292744537
 20
26.0
 10
238.0
 20
26.036156260380235
 10
239.0
 20
26.08566171292201
 10
240.0
 20
26.141451097191343
 10
241.0
 20
26.199872930934106
 10
242.0
 20
26.25802481274829
 10
243.0
 20
26.313718493477907
 10
244.0
 20
26.365344954473013
 10
245.0
 20
26.41170689357905
 10
246.0
 20
26.451874636881506
 10
247.0
 20
26.48509883484629
 10
248.0
 20
26.510788585065388
 10
249.0
 20
26.528543691521435
 10
250.0
 20
26.538218046262152
 10
251.0
 20
26.53998857137764
 10
252.0
 20
26.534410011619798
 10
253.0
 20
26.52244753657534
 10
254.0
 20
26.50549216924935
 10
255.0
 20
26.485373020664014
  0
LWPOLYLINE
  5
34
330
17
100
AcDbEntity
  8
0
100
AcDbPolyline
 90
633
 70
0
 10
0.0
 20
26.464380350924323
 10
1.0
 20
26.44530268750489
 10
2.0
 20
26.431463016370024
 10
3.0
 20
26.426724474317474
 10
4.0
 20
26.435445531145554
 10
5.0
 20
26.46242762695445
 10
6.0
 20
26.513044468186713
 10
7.0
 20
26.593981037724983
 10
8.0
 20
26.71530743022289
 10
9.0
 20
26.894932394432473
 10
9.412270785149651
 20
27.0
 10
10.0
 20
27.14841473727764
 10
11.0
 20
27.434738978354545
 10
12.0
 20
27.790034040032374
 10
12.436401643369507
 20
28.0
 10
13.0
 20
28.279175393687403
 10
14.0
 20
28.840631118257335
 10
14.224800255270157
 20
29.0
 10
14.999999999999998
 20
29.578538051453314
 10
15.479487501889125
 20
30.0
 10
16.0
 20
30.514160873521227
 10
16.43609922225933
 20
31.0
 10
17.0
 20
31.73983831887815
 10
17.186584481467598
 20
32.0
 10
17.74863208281529
 20
33.0
 10
18.0
 20
33.51222365175437
 10
18.229965849924262
 20
34.0
 10
18.567496201566435
 20
35.0
 10
18.82703829596381
 20
36.0
 10
19.0
 20
36.809936475650254
 10
19.04227326706965
 20
37.0
 10
19.18912054697776
 20
38.0
 10
19.27330776609858
 20
39.0
 10
19.312863296642945
 20
40.0
 10
19.319747320230235
 20
41.0
 10
19.303589489715385
 20
42.0
 10
19.273278107946275
 20
43.0
 10
19.23767348024923
 20
44.0
 10
19.205960042191272
 20
44.99999999999999
 10
19.187601518749382
 20
46.0
 10
19.191709615654265
 20
46.99999999999999
 10
19.225937868421703
 20
48.0
 10
19.29565358868367
 20
49.0
 10
19.404799559450804
 20
50.0
 10
19.560055819105244
 20
51.0
 10
19.779443494757963
 20
52.0
 10
20.0
 20
52.70072019195704
 10
20.098565584777536
 20
53.0
 10
20.46100978653368
 20
54.0
 10
20.90268723486002
 20
55.0
 10
21.0
 20
55.17336955145119
 10
21.459183208518738
 20
56.0
 10
22.0
 20
56.841617177724615
 10
22.112245824919388
 20
57.0
 10
22.863535725141244
 20
58.0
 10
23.0
 20
58.158704315625116
 10
23.758544602962388
 20
59.0
 10
24.0
 20
59.24589419810146
 10
24.793601632704615
 20
60.0
 10
25.0
 20
60.18678282513902
 10
25.979139342909075
 20
61.0
 10
26.0
 20
61.0171843437094
 10
27.0
 20
61.76695342169494
 10
27.315716425563906
 20
62.0
 10
28.0
 20
62.483115289279255
 10
28.767668349084246
 20
63.0
 10
29.0
 20
63.159324200474444
 10
30.0
 20
63.78124779550162
 10
30.336356677765384
 20
64.0
 10
31.0
 20
64.41917669481899
 10
31.950652274843375
 20
65.0
 10
32.0
 20
65.03202167294131
 10
33.0
 20
65.63359923189603
 10
33.585501196214956
 20
66.0
 10
34.0
 20
66.26307878516549
 10
35.0
 20
66.86301202060314
 10
35.20954175940409
 20
67.0
 10
36.0
 20
67.4985183831371
 10
36.7849137573782
 20
68.0
 10
37.0
 20
68.14353285514277
 10
38.0
 20
68.77228393371136
 10
38.3359871284184
 20
69.0
 10
39.0
 20
69.44260275493197
 10
39.8365212342346
 20
70.0
 10
40.0
 20
70.1141117474225
 10
41.0
 20
70.77245489299759
 10
41.324336329267695
 20
71.0
 10
42.0
 20
71.46490297892899
 10
42.7796248686728
 20
72.0
 10
43.0
 20
72.1566120634168
 10
44.0
 20
72.82495208827984
 10
44.24663583709005
 20
73.0
 10
45.0
 20
73.51779106769982
 10
45.70191411578042
 20
74.0
 10
46.0
 20
74.20942303719575
 10
47.0
 20
74.86766991953682
 10
47.189501101921024
 20
75.0
 10
48.0
 20
75.54218854627182
 10
48.68497332264653
 20
76.0
 10
49.0
 20
76.21474700896758
 10
49.99999999999999
 20
76.84809601537968
 10
50.225773858730456
 20
77.0
 10
51.0
 20
77.49996077944195
 10
51.782921388922546
 20
78.0
 10
52.0
 20
78.14354358743279
 10
53.0
 20
78.75188188269689
 10
53.38534227783432
 20
79.0
 10
54.0
 20
79.38837154889978
 10
55.0
 20
79.99888917471745
 10
55.001702952241544
 20
80.0
 10
56.0
 20
80.60726457857643
 10
56.627982955028884
 20
81.0
 10
57.0
 20
81.2371639650308
 10
58.0
 20
81.83509188721857
 10
58.253821973375885
 20
82.0
 10
59.0
 20
82.47032639032535
 10
59.8342186920854
 20
83.0
 10
60.0
 20
83.11083062214924
 10
60.99999999999999
 20
83.74370123719481
 10
61.37413912514957
 20
84.0
 10
62.0
 20
84.42670873048488
 10
62.82766701412267
 20
85.0
 10
63.0
 20
85.12583923670925
 10
64.0
 20
85.83791133471985
 10
64.20913794920226
 20
86.0
 10
65.0
 20
86.6096964458759
 10
65.47989434633044
 20
87.0
 10
66.0
 20
87.4340751772258
 10
66.6526590102668
 20
88.0
 10
67.0
 20
88.31380813508407
 10
67.73180828992288
 20
89.0
 10
68.0
 20
89.2629251905851
 10
68.71958826362422
 20
90.0
 10
69.0
 20
90.29996974347145
 10
69.62292799162215
 20
91.0
 10
70.0
 20
91.44437376560646
 10
70.45183353463726
 20
92.0
 10
71.0
 20
92.72225658933814
 10
71.20830472948609
 20
93.0
 10
71.87426982410878
 20
94.0
 10
72.0
 20
94.18842155198713
 10
72.50477280759274
 20
95.0
 10
73.0
 20
95.8610496000885
 10
73.08255476711959
 20
96.0
 10
73.5931553033037
 20
97.0
 10
74.0
 20
97.82622198237539
 10
74.08900510295211
 20
98.0
 10
74.52655329336875
 20
99.0
 10
74.9405538381566
 20
100.0
 10
75.0
 20
100.1365099907881
 10
75.35056098873802
 20
101.0
 10
75.70650095554019
 20
102.0
 10
76.0
 20
102.76556907697835
 10
76.09377973514887
 20
103.0
 10
76.45046308553813
 20
104.0
 10
76.79881711172878
 20
105.0
 10
77.0
 20
105.50296205003072
 10
77.19951423615282
 20
106.0
 10
77.57541234482142
 20
107.0
 10
78.0
 20
107.99325807824681
 10
78.00316906458697
 20
108.0
 10
78.46625461129402
 20
109.0
 10
78.97559180403131
 20
110.0
 10
79.0
 20
110.04049315284006
 10
79.55951486672807
 20
111.0
 10
80.0
 20
111.6560652332967
 10
80.24851209984449
 20
112.0
 10
81.00000000000001
 20
112.9484458071789
 10
81.04571107252806
 20
113.0
 10
82.0
 20
113.96893391207124
 10
82.03433744242886
 20
114.0
 10
83.0
 20
114.76654544023873
 10
83.33906900724111
 20
115.0
 10
84.0
 20
115.41228074916549
 10
85.0
 20
115.88021922821308
 10
85.30576622769081
 20
116.00000000000001
 10
86.0
 20
116.25549577411148
 10
87.0
 20
116.47654164155887
 10
88.0
 20
116.58601525100725
 10
89.0
 20
116.59439413736919
 10
90.0
 20
116.5000599674521
 10
91.0
 20
116.2906431208892
 10
91.78998204124423
 20
116.0
 10
92.0
 20
115.91586086815066
 10
93.0
 20
115.41838492835839
 10
93.61384066083873
 20
115.0
 10
94.0
 20
114.70172857191154
 10
94.75248194635876
 20
114.0
 10
95.0
 20
113.7271357379986
 10
95.56815133579869
 20
113.0
 10
96.0
 20
112.31337715729474
 10
96.18695496854849
 20
112.0
 10
96.61636449257233
 20
111.0
 10
96.94263634081797
 20
110.0
 10
97.0
 20
109.77462163812136
 10
97.18865182727221
 20
109.0
 10
97.3233948644753
 20
108.0
 10
97.37637743736579
 20
107.0
 10
97.36100566824277
 20
106.0
 10
97.28216863311096
 20
105.0
 10
97.137514310437
 20
104.0
 10
97.0
 20
103.36569778717731
 10
96.91949954396377
 20
102.99999999999999
 10
96.67391173093256
 20
102.0
 10
96.40849330475268
 20
101.0
 10
96.09120294134125
 20
100.0
 10
96.0
 20
99.75893917864252
 10
95.72405444475376
 20
99.0
 10
95.38137384956897
 20
98.0
 10
95.00083296765439
 20
97.0
 10
95.0
 20
96.99799414935342
 10
94.62013661529777
 20
96.0
 10
94.27764563427199
 20
95.0
 10
94.0
 20
94.23714642397121
 10
93.91005266368431
 20
94.0
 10
93.5901306795511
 20
93.0
 10
93.3184371797552
 20
92.0
 10
93.05860346735656
 20
91.0
 10
93.0
 20
90.7591278919601
 10
92.82179429303008
 20
90.0
 10
92.6528829813769
 20
89.0
 10
92.53762520067136
 20
88.0
 10
92.4696047176354
 20
87.0
 10
92.44844716156774
 20
86.0
 10
92.47587244964302
 20
85.0
 10
92.55440775830411
 20
84.0
 10
92.69015495853793
 20
83.0
 10
92.90001551779396
 20
82.0
 10
93.0
 20
81.6628109003917
 10
93.19290963299204
 20
81.0
 10
93.51488786089466
 20
80.0
 10
93.91738516515399
 20
79.0
 10
94.0
 20
78.83772553859018
 10
94.41496467764567
 20
78.0
 10
94.97233464037483
 20
77.0
 10
95.0
 20
76.95818912347681
 10
95.62117690083613
 20
76.0
 10
96.0
 20
75.48420021301334
 10
96.37245878699947
 20
75.0
 10
97.0
 20
74.23473379711879
 10
97.20496793676995
 20
74.0
 10
98.0
 20
73.12793213062716
 10
98.12293557099373
 20
73.0
 10
99.0
 20
72.12180833011195
 10
99.12580216815991
 20
72.0
 10
100.0
 20
71.18343508690478
 10
100.19952102098512
 20
71.0
 10
101.0
 20
70.28486656748532
 10
101.32006080627593
 20
70.0
 10
102.0
 20
69.40425837916705
 10
102.45992312393292
 20
69.0
 10
103.0
 20
68.52503845539793
 10
103.59217615366127
 20
68.0
 10
104.0
 20
67.63256333299347
 10
104.69173834422298
 20
67.0
 10
105.0
 20
66.71024214488814
 10
105.73665404551537
 20
66.0
 10
106.0
 20
65.73727192768654
 10
106.71112889045287
 20
65.0
 10
107.0
 20
64.6885439043571
 10
107.60848566879642
 20
64.0
 10
108.0
 20
63.53378978429698
 10
108.42889823932722
 20
63.0
 10
109.0
 20
62.22660732818058
 10
109.16564584866265
 20
62.0
 10
109.79654833734037
 20
61.0
 10
110.0
 20
60.66805865657618
 10
110.38566423808797
 20
60.0
 10
110.86816411506527
 20
59.0
 10
111.0
 20
58.71894743402689
 10
111.31717203451109
 20
58.0
 10
111.65597565467522
 20
57.0
 10
111.95471126250489
 20
55.99999999999999
 10
112.0
 20
55.82766060858671
 10
112.20701219192813
 20
55.0
 10
112.37157606019073
 20
54.0
 10
112.469751830987
 20
53.0
 10
112.50921855653789
 20
52.0
 10
112.49064989226305
 20
51.0
 10
112.41151249939132
 20
50.0
 10
112.26337632273368
 20
49.0
 10
112.02195164418808
 20
48.0
 10
112.0
 20
47.9350726065541
 10
111.70165444002353
 20
47.0
 10
111.32888836452672
 20
46.0
 10
111.0
 20
45.345921228752836
 10
110.81354657459177
 20
45.0
 10
110.22053775372808
 20
44.0
 10
110.0
 20
43.70033933846083
 10
109.45338931929251
 20
43.0
 10
109.0
 20
42.495794688353335
 10
108.50364619356631
 20
42.0
 10
108.0
 20
41.54826136442557
 10
107.29372319435531
 20
41.0
 10
107.0
 20
40.78509297985129
 10
106.0
 20
40.20013866725532
 10
105.61851223884221
 20
40.0
 10
105.0
 20
39.69572532279726
 10
104.0
 20
39.34061564984877
 10
103.0
 20
39.056309146292485
 10
102.74462882154474
 20
39.0
 10
102.0
 20
38.8403347319135
 10
101.0
 20
38.72671671648282
 10
100.0
 20
38.69777776360847
 10
99.0
 20
38.74970463018629
 10
98.0
 20
38.892061831505835
 10
97.56473331243438
 20
39.0
 10
97.0
 20
39.138982516504626
 10
96.0
 20
39.448097531445875
 10
95.0
 20
39.85808779886371
 10
94.74370928529952
 20
40.0
 10
94.0
 20
40.41820832838641
 10
93.1396988422237
 20
41.0
 10
93.0
 20
41.106750058859895
 10
92.0
 20
41.96284956179857
 10
91.96209331896661
 20
42.0
 10
91.05695053384025
 20
42.99999999999999
 10
91.0
 20
43.06976508770693
 10
90.32705722846717
 20
44.0
 10
90.0
 20
44.51260841482497
 10
89.70497234606653
 20
45.0
 10
89.2264813503817
 20
46.0
 10
89.0
 20
46.50783341844512
 10
88.78571742493165
 20
47.0
 10
88.45525651722852
 20
48.0
 10
88.17710764646165
 20
49.0
 10
88.0
 20
49.67454143101091
 10
87.91257591167468
 20
50.0
 10
87.70439882477308
 20
51.0
 10
87.54286922373856
 20
52.0
 10
87.40599482345274
 20
53.0
 10
87.27888666030415
 20
53.99999999999999
 10
87.14974615661156
 20
55.0
 10
87.00709317647367
 20
55.99999999999999
 10
87.00000000000001
 20
56.04455097724582
 10
86.854895806497
 20
57.0
 10
86.70193846378447
 20
58.0
 10
86.53720925934769
 20
59.0
 10
86.34343718518227
 20
60.0
 10
86.09023872328709
 20
61.0
 10
86.0
 20
61.2730287814813
 10
85.76596163678602
 20
62.0
 10
85.42006999215252
 20
63.0
 10
85.0
 20
63.93923925376906
 10
84.9697280079429
 20
64.0
 10
84.43721870660862
 20
65.0
 10
84.0
 20
65.67128781802585
 10
83.76529025370189
 20
66.0
 10
83.0
 20
66.9480222593507
 10
82.95224233693435
 20
67.0
 10
82.0
 20
67.91420408752163
 10
81.89849730906788
 20
68.0
 10
81.0
 20
68.66519483747035
 10
80.4661481105731
 20
69.0
 10
80.0
 20
69.27479777211254
 10
79.0
 20
69.70893386042646
 10
78.18918510531958
 20
70.0
 10
78.0
 20
70.06993025951475
 10
77.0
 20
70.32002091988807
 10
76.0
 20
70.46437337694144
 10
75.0
 20
70.5292845613698
 10
74.0
 20
70.52334509630217
 10
73.0
 20
70.44983923008482
 10
72.0
 20
70.3071273778763
 10
71.0
 20
70.08032788114406
 10
70.7465414847018
 20
70.0
 10
70.0
 20
69.77095786731547
 10
69.0
 20
69.43624160912991
 10
68.0
 20
69.01678822169153
 10
67.9670125384596
 20
69.0
 10
67.0
 20
68.53527431906856
 10
66.0
 20
68.00352037821824
 10
65.99426950954316
 20
68.0
 10
65.0
 20
67.41958163190378
 10
64.34300198105123
 20
67.0
 10
64.0
 20
66.77149327334041
 10
62.99999999999999
 20
66.11455169124308
 10
62.841888956231315
 20
66.0
 10
62.0
 20
65.40525322269744
 10
61.44948877326766
 20
65.0
 10
61.0
 20
64.66403725674895
 10
60.10263403955159
 20
64.0
 10
60.0
 20
63.92056787419525
 10
59.0
 20
63.181452609870966
 10
58.765699260701766
 20
63.0
 10
58.0
 20
62.42255418339175
 10
57.44360786549716
 20
62.0
 10
57.0
 20
61.6622082468138
 10
56.10287272421361
 20
61.0
 10
56.0
 20
60.92131803840188
 10
55.0
 20
60.20307081263856
 10
54.727817724078506
 20
60.0
 10
54.0
 20
59.47287495532662
 10
53.34400329640775
 20
59.0
 10
53.0
 20
58.74864123437905
 10
52.0
 20
58.05426588722942
 10
51.92610618438584
 20
58.0
 10
51.0
 20
57.35223939787292
 10
50.5101799265525
 20
57.0
 10
50.0
 20
56.632787189311735
 10
49.10893453726332
 20
56.0
 10
49.0
 20
55.91880513847596
 10
48.0
 20
55.203463572697046
 10
47.734095992985324
 20
55.0
 10
47.0
 20
54.4435551758312
 10
46.43659427245714
 20
54.0
 10
46.0
 20
53.64738564797338
 10
45.21763001923103
 20
53.0
 10
45.0
 20
52.81135406918019
 10
44.088762310686775
 20
52.0
 10
44.0
 20
51.916648620883926
 10
43.064545167143365
 20
51.0
 10
43.0
 20
50.93346587647698
 10
42.14995933338999
 20
50.0
 10
42.0
 20
49.82694783970909
 10
41.334847005303686
 20
49.0
 10
41.0
 20
48.55395342068762
 10
40.606055873520326
 20
48.0
 10
39.99999999999999
 20
47.0212483540935
 10
39.98649686025544
 20
47.0
 10
39.45811322055042
 20
46.0
 10
39.00790508704473
 20
45.0
 10
39.0
 20
44.98114486823508
 10
38.6293116789047
 20
44.0
 10
38.35766131748428
 20
43.0
 10
38.14454961780668
 20
42.0
 10
38.00000000000001
 20
41.090286777101994
 10
37.9848682135232
 20
41.0
 10
37.89996571269337
 20
40.0
 10
37.89528939027764
 20
39.0
 10
37.97071628155582
 20
38.0
 10
38.0
 20
37.816866662828524
 10
38.1250726919255
 20
37.0
 10
38.336722448597584
 20
36.0
 10
38.609819118824845
 20
35.0
 10
38.99487255938469
 20
34.0
 10
39.0
 20
33.989652494325206
 10
39.46711504018404
 20
33.0
 10
40.0
 20
32.064265056880195
 10
40.0410964558473
 20
32.0
 10
40.724815897471956
 20
31.0
 10
41.0
 20
30.66023751322071
 10
41.57310324716074
 20
30.0
 10
42.0
 20
29.56146323094269
 10
42.60788505525434
 20
29.0
 10
43.0
 20
28.667292026972795
 10
43.92143283804309
 20
28.0
 10
44.0
 20
27.94436374089726
 10
45.0
 20
27.372326684805394
 10
45.775787753060314
 20
27.0
 10
46.0
 20
26.891632218567217
 10
47.0
 20
26.54343938731452
 10
48.0
 20
26.310415358185345
 10
49.0
 20
26.162922192701096
 10
50.0
 20
26.109245650192715
 10
51.0
 20
26.160309439378203
 10
52.0
 20
26.313891567420534
 10
53.0
 20
26.57141990815392
 10
54.0
 20
26.98786936247297
 10
54.02107315676054
 20
26.999999999999996
 10
55.0
 20
27.565135006767978
 10
55.57762018351622
 20
28.0
 10
56.0
 20
28.36106719097698
 10
56.63416703059115
 20
29.0
 10
57.0
 20
29.42922641147988
 10
57.43485777020129
 20
30.0
 10
58.0
 20
30.896488872495315
 10
58.064775019064335
 20
31.0
 10
58.568372092561795
 20
32.0
 10
59.0
 20
32.970752784136735
 10
59.01376509514063
 20
33.0
 10
59.410134610204395
 20
34.0
 10
59.75809831810213
 20
35.0
 10
60.0
 20
35.62799556101478
 10
60.146857204667945
 20
36.0
 10
60.51544990784412
 20
37.0
 10
60.928795605625815
 20
38.0
 10
61.0
 20
38.14111254107416
 10
61.42061246799261
 20
39.0
 10
61.98018999901011
 20
40.0
 10
62.0
 20
40.029090954305
 10
62.6692116209179
 20
41.0
 10
63.0
 20
41.40082941346772
 10
63.54800768196425
 20
42.0
 10
64.0
 20
42.431910469277824
 10
64.70067407089725
 20
43.0
 10
65.0
 20
43.223258716524285
 10
66.0
 20
43.796272295498675
 10
66.42157253688244
 20
44.0
 10
67.0
 20
44.262549132346734
 10
68.0
 20
44.56039856777338
 10
69.0
 20
44.75200588117961
 10
70.0
 20
44.85413748907334
 10
71.0
 20
44.862107174619716
 10
72.0
 20
44.777489622843454
 10
73.0
 20
44.610237066689805
 10
74.0
 20
44.35809795645701
 10
74.93703649181353
 20
43.99999999999999
 10
75.0
 20
43.9732812228126
 10
76.0
 20
43.49367460272876
 10
76.81814901457697
 20
43.0
 10
77.0
 20
42.87732407495998
 10
78.0
 20
42.130688027575935
 10
78.14777758231371
 20
42.0
 10
79.0
 20
41.17267925038371
 10
79.15993549772969
 20
41.0
 10
79.95078877538683
 20
40.0
 10
80.00000000000001
 20
39.93138154101335
 10
80.58860270151784
 20
39.0
 10
81.0
 20
38.214502778098804
 10
81.11248590766431
 20
38.0
 10
81.49942754122313
 20
37.0
 10
81.77809354006183
 20
36.0
 10
81.98859308906219
 20
35.0
 10
82.0
 20
34.9098366804166
 10
82.11341629160604
 20
34.0
 10
82.13678917761577
 20
33.0
 10
82.0614379218302
 20
32.0
 10
82.0
 20
31.663950393152476
 10
81.88199160674215
 20
31.0
 10
81.62492640160805
 20
30.0
 10
81.27248539850497
 20
29.0
 10
81.0
 20
28.463734683352747
 10
80.74940521424574
 20
28.0
 10
80.11406869387935
 20
27.0
 10
80.0
 20
26.856428690666913
 10
79.26611350298049
 20
26.0
 10
79.0
 20
25.73237753253147
 10
78.165190095606
 20
25.0
 10
78.0
 20
24.865613424895336
 10
77.0
 20
24.190849710166777
 10
76.6911579104884
 20
23.999999999999996
 10
76.0
 20
23.605276145177317
 10
75.0
 20
23.14234833036061
 10
74.68358716710759
 20
23.0
 10
74.0
 20
22.70793536972287
 10
73.0
 20
22.365245396926827
 10
72.0
 20
22.028285781488798
 10
71.91963928603256
 20
22.0
 10
71.0
 20
21.698308490434634
 10
70.0
 20
21.407395877346595
 10
69.0
 20
21.08968259582592
 10
68.75964409656983
 20
21.0
 10
68.0
 20
20.72626939873728
 10
67.0
 20
20.370644128558254
 10
66.14214067625167
 20
20.0
 10
66.0
 20
19.9333367741663
 10
65.0
 20
19.460581728588636
 10
64.16225732389083
 20
19.0
 10
64.0
 20
18.902736347117084
 10
63.0
 20
18.293127257508093
 10
62.584067521689704
 20
18.0
 10
62.0
 20
17.576208118423345
 10
61.25353088233627
 20
17.0
 10
61.0
 20
16.79322620063686
 10
60.04337112383184
 20
16.0
 10
60.0
 20
15.962258973329796
 10
59.0
 20
15.105910384969503
 10
58.879271429888036
 20
14.999999999999998
 10
58.0
 20
14.256131777843674
 10
57.69246440006451
 20
14.0
 10
57.0
 20
13.450732929591947
 10
56.39108239373063
 20
13.0
 10
56.0
 20
12.719751832314973
 10
55.0
 20
12.114258468186868
 10
54.80055078530596
 20
12.0
 10
54.0
 20
11.58186237736707
 10
53.0
 20
11.180479351312368
 10
52.48739780080904
 20
11.0
 10
52.0
 20
10.831382264312044
 10
51.0
 20
10.601563724213367
 10
50.0
 20
10.46223758452017
 10
49.0
 20
10.394351731808566
 10
48.0
 20
10.391327731906863
 10
47.0
 20
10.44788931347334
 10
46.0
 20
10.558784597588742
 10
45.0
 20
10.723805610425167
 10
44.0
 20
10.953974957423451
 10
43.84108889281694
 20
11.0
 10
43.0
 20
11.231617597280291
 10
42.0
 20
11.504225766635528
 10
41.0
 20
11.798802330333551
 10
40.41293468384826
 20
12.0
 10
40.0
 20
12.143913343987153
 10
39.0
 20
12.457171300495196
 10
38.0
 20
12.75668746264071
 10
37.247368933611824
 20
13.0
 10
37.0
 20
13.08324401041731
 10
36.0
 20
13.370435001972083
 10
35.0
 20
13.614731557098429
 10
34.0
 20
13.845746694585305
 10
33.31989435250807
 20
14.0
 10
33.0
 20
14.074392985323355
 10
32.0
 20
14.257272032396894
 10
31.0
 20
14.393490497379924
 10
30.0
 20
14.49349808244181
 10
29.0
 20
14.562014621256507
 10
28.0
 20
14.60049677014541
 10
27.0
 20
14.609227677832383
 10
26.0
 20
14.588614669801014
 10
25.0
 20
14.539473470850716
 10
24.0
 20
14.462336624498231
 10
23.0
 20
14.356046193866538
 10
22.0
 20
14.21602281368147
 10
21.0
 20
14.032591140552533
 10
20.854691238278303
 20
14.0
 10
20.0
 20
13.817157383059566
 10
19.0
 20
13.603357854212627
 10
18.0
 20
13.378734712755335
 10
17.0
 20
13.118708858631596
 10
16.613441611469
 20
13.0
 10
16.0
 20
12.814664902731634
 10
15.0
 20
12.532154670402356
 10
14.0
 20
12.24226253520495
 10
13.277946286744587
 20
12.0
 10
13.0
 20
11.903066692454317
 10
12.0
 20
11.583038026383667
 10
11.0
 20
11.273788585323931
 10
10.2144794892385
 20
11.0
 10
10.0
 20
10.921514941291791
 10
9.0
 20
10.59066925128597
 10
8.0
 20
10.278955900949041
 10
7.192336209813969
 20
10.0
 10
7.0
 20
9.930070001715396
 10
6.0
 20
9.60491131156532
 10
5.0
 20
9.305317012569535
 10
4.065052900507398
 20
9.0
 10
4.0
 20
8.97718993451916
 10
3.0
 20
8.662755632158476
 10
2.0
 20
8.38484448683194
 10
1.0
 20
8.097812964565803
 10
0.6834281418092167
 20
8.0
 10
0.0
 20
7.7951543934771435
  0
LWPOLYLINE
  5
35
330
17
100
AcDbEntity
  8
0
100
AcDbPolyline
 90
97
 70
0
 10
255.0
 20
51.400064055590136
 10
254.33441486594307
 20
51.0
 10
254.0
 20
50.79586306487472
 10
253.0
 20
50.24709163083887
 10
252.57468574771406
 20
50.0
 10
252.0
 20
49.671698543001774
 10
251.0
 20
49.14589796864469
 10
250.74265244279377
 20
49.0
 10
250.0
 20
48.59691065365345
 10
249.0
 20
48.08847097326807
 10
248.83800414566366
 20
48.0
 10
248.0
 20
47.569897426512355
 10
247.0
 20
47.09353708345979
 10
246.8151555905274
 20
47.0
 10
246.0
 20
46.61269792963858
 10
245.0
 20
46.19403837589361
 10
244.5538830425661
 20
46.0
 10
244.0
 20
45.76383834151627
 10
243.0
 20
45.41569682187551
 10
242.0
 20
45.09512608845636
 10
241.69291257230486
 20
45.0
 10
241.0
 20
44.793017045970345
 10
240.0
 20
44.57378442830679
 10
239.0
 20
44.414551780024446
 10
238.0
 20
44.306085101371444
 10
237.0
 20
44.25142940386042
 10
236.00000000000003
 20
44.256861495094626
 10
235.0
 20
44.325698240400904
 10
234.0
 20
44.45917475920678
 10
233.0
 20
44.667119267798846
 10
232.0
 20
44.98901063754755
 10
231.97486353778004
 20
45.0
 10
231.0
 20
45.40579222178849
 10
230.0
 20
45.91883364029006
 10
229.8767507741655
 20
46.0
 10
229.0
 20
46.59176189789507
 10
228.49857068186577
 20
47.0
 10
228.0
 20
47.45206238393084
 10
227.47107418063695
 20
48.0
 10
227.0
 20
48.565205450122505
 10
226.6695476206475
 20
49.0
 10
226.0656255340221
 20
50.0
 10
226.0
 20
50.12233826372887
 10
225.5798363003978
 20
51.0
 10
225.24322198702828
 20
52.0
 10
225.0
 20
52.920292645175884
 10
224.97768976475356
 20
53.0
 10
224.80838247960102
 20
54.0
 10
224.74275840134905
 20
55.0
 10
224.7664330689949
 20
56.0
 10
224.88200756546698
 20
57.0
 10
225.0
 20
57.537194484806975
 10
225.1017128220682
 20
58.0
 10
225.38532628475244
 20
59.0
 10
225.74741051378783
 20
60.0
 10
226.0
 20
60.508548051487
 10
226.25440292480783
 20
61.0
 10
226.82966217661163
 20
62.0
 10
227.0
 20
62.23989221059917
 10
227.55801812273816
 20
63.0
 10
228.0
 20
63.528401642398144
 10
228.42605757702657
 20
64.0
 10
229.0
 20
64.57992215803773
 10
229.45203204874312
 20
65.0
 10
230.0
 20
65.47394961998187
 10
230.66777836228022
 20
66.0
 10
231.0
 20
66.25247051245111
 10
232.0
 20
66.91537092651132
 10
232.12930294808297
 20
67.0
 10
233.0
 20
67.52342678018174
 10
233.86769435278768
 20
68.0
 10
234.0
 20
68.07522185564339
 10
235.0
 20
68.55814691888021
 10
235.9706447864221
 20
69.0
 10
236.0
 20
69.01427360985433
 10
237.0
 20
69.4319012524641
 10
238.0
 20
69.79678313420244
 10
238.5337008457737
 20
70.0
 10
239.0
 20
70.17740962403734
 10
240.0
 20
70.49446351715397
 10
241.0
 20
70.78602430735513
 10
241.70067984085364
 20
71.0
 10
242.0
 20
71.09416892037744
 10
243.0
 20
71.35876104553589
 10
244.0
 20
71.5835415444065
 10
244.99999999999997
 20
71.79584568122759
 10
245.95224186152475
 20
72.0
 10
246.0
 20
72.01088672608975
 10
247.0
 20
72.20073406856852
 10
248.0
 20
72.34666349747826
 10
249.0
 20
72.45821158418231
 10
250.0
 20
72.53911332068617
 10
251.0
 20
72.5887011598351
 10
251.99999999999997
 20
72.60367140801247
 10
253.0
 20
72.57973788170827
 10
254.0
 20
72.51214533381707
 10
255.0
 20
72.39353458190809
  0
LWPOLYLINE
  5
36
330
17
100
AcDbEntity
  8
0
100
AcDbPolyline
 90
36
 70
0
 10
0.0
 20
72.20735909956966
 10
0.7310194078252996
 20
72.0
 10
1.0
 20
71.92011521101067
 10
2.0
 20
71.57499719644082
 10
3.0
 20
71.13798740752952
 10
3.2361269660127716
 20
71.0
 10
4.0
 20
70.54138404184809
 10
4.73535785043367
 20
70.0
 10
5.0
 20
69.77764350382017
 10
5.790983075145375
 20
69.0
 10
6.0
 20
68.75797009297447
 10
6.566913695847411
 20
68.0
 10
7.0
 20
67.26465762837725
 10
7.149951614033549
 20
67.0
 10
7.541686221316514
 20
66.0
 10
7.7972178126281095
 20
65.0
 10
7.950383141920913
 20
64.0
 10
7.989476152544922
 20
63.0
 10
7.909807345618643
 20
62.0
 10
7.7277166590277035
 20
61.0
 10
7.454289662445283
 20
60.0
 10
7.046395147863994
 20
59.0
 10
7.0
 20
58.915463394739895
 10
6.505635059620719
 20
58.0
 10
6.0
 20
57.2380524923445
 10
5.824964161426406
 20
57.0
 10
5.010824912330341
 20
56.0
 10
5.0
 20
55.988286538371916
 10
4.020099415042968
 20
55.0
 10
4.0
 20
54.98114502717207
 10
3.0
 20
54.12722231046382
 10
2.843862382057464
 20
54.0
 10
2.0
 20
53.36120956991384
 10
1.499199853626152
 20
53.0
 10
1.0
 20
52.6500991312696
 10
0.0
 20
52.008756273405226
  0
LWPOLYLINE
  5
37
330
17
100
AcDbEntity
  8
0
100
AcDbPolyline
 90
150
 70
0
 10
255.0
 20
86.07276644896436
 10
254.0
 20
86.41585746775893
 10
253.0
 20
86.71205205180614
 10
252.03162489418375
 20
87.0
 10
252.0
 20
87.01009014667918
 10
251.0
 20
87.27420586043675
 10
250.0
 20
87.47660748327675
 10
249.0
 20
87.63997417466477
 10
248.0
 20
87.77296766125416
 10
247.0
 20
87.87416224151323
 10
246.0
 20
87.93691270852662
 10
245.0
 20
87.95438060530732
 10
244.0
 20
87.92340592421364
 10
243.0
 20
87.84595654467932
 10
242.0
 20
87.72733929866506
 10
241.0
 20
87.57111106842652
 10
240.0
 20
87.37152587934517
 10
239.0
 20
87.10471312913228
 10
238.69890880796908
 20
87.0
 10
238.0
 20
86.76250250035383
 10
237.0
 20
86.40976874237262
 10
236.05272358874674
 20
86.0
 10
236.0
 20
85.97489691324725
 10
235.0
 20
85.49758848778117
 10
234.0641612800275
 20
85.0
 10
234.0
 20
84.9626226163081
 10
233.0
 20
84.39081011128356
 10
232.37975385096053
 20
84.0
 10
232.0
 20
83.75208984691646
 10
231.0
 20
83.11183879781511
 10
230.841079075441
 20
83.0
 10
229.99999999999997
 20
82.42780748763194
 10
229.38608897488942
 20
82.0
 10
229.0
 20
81.72712374074563
 10
227.99999999999997
 20
81.06030708156815
 10
227.91348867321375
 20
81.0
 10
227.0
 20
80.40481509350671
 10
226.35979110049593
 20
80.0
 10
226.0
 20
79.77264620218413
 10
225.00000000000003
 20
79.229733817827
 10
224.57070981428492
 20
79.0
 10
224.0
 20
78.70574792354604
 10
223.0
 20
78.2956066158246
 10
222.21123374991984
 20
78.0
 10
222.0
 20
77.9180985909094
 10
221.0
 20
77.63464696008742
 10
220.0
 20
77.44897163010461
 10
219.0
 20
77.34052196791541
 10
218.0
 20
77.31054922256891
 10
217.0
 20
77.36465973432837
 10
216.0
 20
77.50761614088478
 10
215.0
 20
77.7585262053343
 10
214.3997704875838
 20
78.0
 10
214.0
 20
78.1701832615717
 10
213.0
 20
78.68638700463967
 10
212.55118559413387
 20
79.0
 10
212.0
 20
79.42662727026234
 10
211.38614917460507
 20
80.0
 10
211.0
 20
80.42429464031062
 10
210.54306623408056
 20
81.0
 10
210.0
 20
81.86463972919903
 10
209.91740500811684
 20
82.0
 10
209.4696378372041
 20
83.0
 10
209.15378780680442
 20
84.0
 10
209.0
 20
84.65012711338076
 10
208.91569036467908
 20
85.0
 10
208.7892588547214
 20
86.0
 10
208.7610798320862
 20
87.0
 10
208.82125056045405
 20
88.0
 10
208.97655751944905
 20
89.0
 10
209.0
 20
89.09313789878985
 10
209.21545410318248
 20
90.0
 10
209.50498423530493
 20
91.0
 10
209.88403710788944
 20
92.0
 10
210.0
 20
92.23393826382878
 10
210.37436471277005
 20
93.0
 10
210.9214737644541
 20
94.0
 10
211.0
 20
94.11896980440338
 10
211.57686159302108
 20
95.0
 10
212.0
 20
95.57339640884246
 10
212.33253840958545
 20
96.0
 10
213.0
 20
96.80508435530699
 10
213.17279064020295
 20
97.0
 10
214.00000000000003
 20
97.89208068306368
 10
214.10568249461141
 20
97.99999999999999
 10
215.0
 20
98.87370811104049
 10
215.13399750812113
 20
99.0
 10
216.0
 20
99.78077008815846
 10
216.24857899414008
 20
100.0
 10
217.0
 20
100.63824171225902
 10
217.43385486809996
 20
101.0
 10
218.0
 20
101.46220376196405
 10
218.6766066184276
 20
102.0
 10
219.0
 20
102.25818365421797
 10
219.97208357870784
 20
103.0
 10
220.0
 20
103.02208114153954
 10
221.0
 20
103.76971839804466
 10
221.29907882283726
 20
104.0
 10
222.0
 20
104.52769216258699
 10
222.62808824323332
 20
105.0
 10
223.0
 20
105.28289828736918
 10
223.9770961780409
 20
106.0
 10
224.0
 20
106.01759879983072
 10
225.0
 20
106.74384611596457
 10
225.34234818922295
 20
107.0
 10
226.0
 20
107.48159029254224
 10
226.72006962197526
 20
108.0
 10
227.0
 20
108.20503023248949
 10
228.0
 20
108.88451999251552
 10
228.16361159863152
 20
109.0
 10
229.0
 20
109.55829659106652
 10
229.68204743906588
 20
110.0
 10
230.0
 20
110.20754985690522
 10
231.0
 20
110.7820407770959
 10
231.37490976667482
 20
111.0
 10
232.0
 20
111.34883102747364
 10
233.0
 20
111.82493387465402
 10
233.36888821463307
 20
112.0
 10
234.0
 20
112.28716407680875
 10
235.0
 20
112.64566400512645
 10
235.99999999999997
 20
112.96914368911204
 10
236.1058515879464
 20
112.99999999999999
 10
237.0
 20
113.24426348640506
 10
238.0
 20
113.42787781766029
 10
239.0
 20
113.54407089867306
 10
240.0
 20
113.59952555059613
 10
241.0
 20
113.59349161865984
 10
242.0
 20
113.5241504404262
 10
243.0
 20
113.38741293042173
 10
244.0
 20
113.16703466002913
 10
244.51058601754352
 20
113.0
 10
245.0
 20
112.83747807497888
 10
246.0
 20
112.46343244206345
 10
246.9605969371978
 20
112.0
 10
247.00000000000003
 20
111.97869493424373
 10
248.0
 20
111.40580092557965
 10
248.59760564626492
 20
111.0
 10
249.0
 20
110.70856061548167
 10
249.90373775959452
 20
110.0
 10
250.0
 20
109.91764569973371
 10
251.0
 20
109.01552571464306
 10
251.0159791212122
 20
109.0
 10
251.99695430853683
 20
108.0
 10
252.0
 20
107.99677276419614
 10
252.89426944866193
 20
107.0
 10
253.0
 20
106.8805478037771
 10
253.7489535185333
 20
106.0
 10
254.0
 20
105.7053972054128
 10
254.5897065062809
 20
105.0
 10
255.0
 20
104.51366849976276
  0
LWPOLYLINE
  5
38
330
17
100
AcDbEntity
  8
0
100
AcDbPolyline
 90
77
 70
0
 10
0.0
 20
103.34531036985146
 10
0.30605383914236883
 20
103.0
 10
1.0
 20
102.23685529160615
 10
1.2248255652377475
 20
102.0
 10
2.0
 20
101.21802228667698
 10
2.227417773620433
 20
101.0
 10
3.0
 20
100.30399686357148
 10
3.3594404951050825
 20
100.0
 10
4.0
 20
99.49293243634605
 10
4.690303339087397
 20
99.0
 10
5.0
 20
98.78500765349489
 10
6.0
 20
98.2125865651587
 10
6.398021393598282
 20
98.0
 10
7.0
 20
97.6957583461859
 10
8.0
 20
97.31576544177804
 10
8.974452502758723
 20
97.0
 10
9.0
 20
96.99117179966503
 10
10.0
 20
96.74746312067093
 10
11.0
 20
96.60834382366846
 10
12.0
 20
96.55264507651162
 10
13.0
 20
96.57684624154784
 10
14.0
 20
96.68715190253525
 10
15.0
 20
96.90628823509843
 10
15.269604628445201
 20
97.0
 10
16.0
 20
97.24998234237061
 10
17.0
 20
97.67786303387385
 10
17.536714063992004
 20
98.0
 10
18.0
 20
98.30458709796689
 10
18.869260542032606
 20
99.0
 10
19.0
 20
99.12301432323444
 10
19.788190717082117
 20
100.0
 10
20.0
 20
100.2841732781817
 10
20.467088016261187
 20
101.0
 10
20.941674125792435
 20
102.0
 10
21.0
 20
102.15418670013959
 10
21.29295853207183
 20
103.0
 10
21.48411652428487
 20
104.0
 10
21.561568566337442
 20
105.0
 10
21.53669812412417
 20
106.0
 10
21.409521543911584
 20
107.0
 10
21.162395752853953
 20
108.0
 10
21.0
 20
108.413286245473
 10
20.765791470043435
 20
109.0
 10
20.282355516977567
 20
110.0
 10
20.0
 20
110.43576972821154
 10
19.608569553750826
 20
111.0
 10
19.0
 20
111.74751977236375
 10
18.76931718500222
 20
112.0
 10
18.0
 20
112.74915806925021
 10
17.71302935488225
 20
113.0
 10
17.0
 20
113.56590641634119
 10
16.38606995075436
 20
114.0
 10
16.0
 20
114.26228515791928
 10
15.0
 20
114.83038858675651
 10
14.695434300935574
 20
115.0
 10
14.0
 20
115.36515632077159
 10
13.0
 20
115.80870116006169
 10
12.579018974070877
 20
116.0
 10
12.0
 20
116.25652858317528
 10
11.0
 20
116.63112125590703
 10
10.047279191268363
 20
117.0
 10
10.0
 20
117.01971919340994
 10
9.0
 20
117.39447168525709
 10
8.0
 20
117.74485755176245
 10
7.362985289740637
 20
118.0
 10
7.0
 20
118.14961758987988
 10
6.0
 20
118.5354001097916
 10
5.0
 20
118.9628125857638
 10
4.925770830893445
 20
119.0
 10
4.0
 20
119.43957564315896
 10
3.0
 20
119.952973022833
 10
2.9226658617039982
 20
120.0
 10
2.0
 20
120.54617279551513
 10
1.3264980038071963
 20
121.0
 10
1.0
 20
121.23667516461958
 10
0.02795814780790183
 20
122.0
 10
0.0
 20
122.0244444200321
  0
LWPOLYLINE
  5
39
330
17
100
AcDbEntity
  8
0
100
AcDbPolyline
 90
25
 70
0
 10
255.0
 20
122.97919087653399
 10
254.98016635210928
 20
123.0
 10
254.14163002051296
 20
124.0
 10
254.0
 20
124.18724713907608
 10
253.449288506686
 20
125.0
 10
253.0
 20
125.7930074673935
 10
252.883409413653
 20
126.0
 10
252.45984330189054
 20
127.0
 10
252.139121884821
 20
128.0
 10
252.0
 20
128.53742954884865
 10
251.879994602035
 20
129.0
 10
251.7289065673429
 20
130.0
 10
251.66999962993225
 20
131.0
 10
251.6932068363319
 20
132.0
 10
251.80158802779385
 20
133.0
 10
252.0
 20
133.93557148974892
 10
252.01440558810953
 20
134.0
 10
252.30657996590298
 20
135.0
 10
252.66553607736822
 20
136.0
 10
253.0
 20
136.67462004176937
 10
253.17380713762697
 20
137.0
 10
253.7654561516949
 20
138.0
 10
254.0
 20
138.31841816159968
 10
254.53372300696657
 20
139.0
 10
255.0
 20
139.51825709614022
  0
LWPOLYLINE
  5
3A
330
17
100
AcDbEntity
  8
0
100
AcDbPolyline
 90
191
 70
0
 10
0.0
 20
140.46722415844732
 10
0.677295841982104
 20
141.0
 10
1.0
 20
141.23916872235202
 10
2.0
 20
141.83991953534968
 10
2.2910853393877173
 20
142.0
 10
3.0
 20
142.36046914939948
 10
4.0
 20
142.7402314495195
 10
4.790977316664975
 20
143.0
 10
5.0
 20
143.07109248873036
 10
6.0
 20
143.3074708089428
 10
7.0
 20
143.45090260914776
 10
8.0
 20
143.52287183974062
 10
9.0
 20
143.52954373712004
 10
10.0
 20
143.47199162904826
 10
11.0
 20
143.34742470049395
 10
12.0
 20
143.14190781145822
 10
12.467121427120873
 20
143.0
 10
13.0
 20
142.83775650503287
 10
14.0
 20
142.49546099323555
 10
15.0
 20
142.0637831052505
 10
15.117031596714815
 20
142.0
 10
16.0
 20
141.53151182728658
 10
16.866546994391353
 20
141.0
 10
17.0
 20
140.90980986517752
 10
18.0
 20
140.20400888050543
 10
18.251100460589182
 20
140.0
 10
19.0
 20
139.36766047503073
 10
19.398649806988495
 20
139.0
 10
20.0
 20
138.41182250041538
 10
20.395871580427333
 20
138.0
 10
21.0
 20
137.3290720419314
 10
21.285173923751465
 20
137.0
 10
22.0
 20
136.10848248769958
 10
22.086754134121087
 20
136.0
 10
22.81285262477497
 20
135.0
 10
23.0
 20
134.74329375725375
 10
23.516594209478086
 20
134.0
 10
24.0
 20
133.28116198911056
 10
24.192151296672463
 20
133.0
 10
24.819332573647408
 20
132.0
 10
25.0
 20
131.72860484160344
 10
25.469990293224853
 20
131.0
 10
26.0
 20
130.1780139147598
 10
26.120479468694292
 20
130.0
 10
26.764635952234062
 20
129.0
 10
27.0
 20
128.66545381620648
 10
27.467559789283484
 20
128.0
 10
28.0
 20
127.27342036562541
 10
28.210901777902443
 20
127.0
 10
29.0
 20
126.00109865543045
 10
29.000936589649964
 20
126.0
 10
29.881265486696247
 20
125.0
 10
30.0
 20
124.87530680619074
 10
30.88457124650351
 20
124.0
 10
31.000000000000004
 20
123.89204762324994
 10
32.0
 20
123.04542962498304
 10
32.056460106625515
 20
123.0
 10
33.0
 20
122.31152970271386
 10
33.46357661937923
 20
122.0
 10
34.0
 20
121.65747074923725
 10
35.0
 20
121.12733951538358
 10
35.24920408185851
 20
121.0
 10
36.0
 20
120.64309359814372
 10
37.0
 20
120.27009116021608
 10
37.77478778865132
 20
120.0
 10
38.0
 20
119.91885146141765
 10
39.0
 20
119.64205473281123
 10
40.0
 20
119.43421750159382
 10
41.0
 20
119.26381019234057
 10
42.0
 20
119.11708000704255
 10
42.91827858766532
 20
119.0
 10
43.0
 20
118.98915128296953
 10
44.0
 20
118.88723277630453
 10
45.0
 20
118.8095212801328
 10
46.0
 20
118.74519873541142
 10
47.0
 20
118.68483891323116
 10
48.0
 20
118.6195014548127
 10
49.0
 20
118.53999228693408
 10
50.0
 20
118.435573506989
 10
51.0
 20
118.2909756059783
 10
52.0
 20
118.07985073985904
 10
52.268702851599286
 20
118.0
 10
53.00000000000001
 20
117.78811854028744
 10
54.0
 20
117.45184271081516
 10
54.973438464145126
 20
117.0
 10
55.0
 20
116.9859338019409
 10
56.0
 20
116.38225265259086
 10
56.49297293845409
 20
116.0
 10
57.0
 20
115.5503024573815
 10
57.519587948214514
 20
115.0
 10
58.0
 20
114.36619159648725
 10
58.25012563249523
 20
114.0
 10
58.7238311625667
 20
113.0
 10
59.0
 20
112.1790863088174
 10
59.06172980644061
 20
112.0
 10
59.2439008879098
 20
111.0
 10
59.27910581916232
 20
110.0
 10
59.18035762556542
 20
109.0
 10
59.0
 20
108.2816826914395
 10
58.926783325486824
 20
108.0
 10
58.55805090186848
 20
107.0
 10
58.03178505842419
 20
106.0
 10
58.0
 20
105.95423085211877
 10
57.31047484224655
 20
105.0
 10
57.0
 20
104.64987810023283
 10
56.351571079037015
 20
104.0
 10
56.0
 20
103.68611569639438
 10
55.10228887962745
 20
103.0
 10
55.0
 20
102.92450681772004
 10
54.0
 20
102.30996806483132
 10
53.45314258391016
 20
102.0
 10
53.0
 20
101.74983419311798
 10
52.0
 20
101.29678622019001
 10
51.34142461461059
 20
101.0
 10
51.0
 20
100.84380265396959
 10
50.0
 20
100.45625325209338
 10
49.0
 20
100.07365208228983
 10
48.824535734539324
 20
100.00000000000001
 10
48.0
 20
99.67227030032292
 10
47.0
 20
99.30319151821627
 10
46.285273125803954
 20
99.0
 10
46.0
 20
98.87332091947913
 10
45.0
 20
98.45133845886397
 10
44.048016908095285
 20
98.0
 10
44.0
 20
97.97502838557584
 10
43.0
 20
97.46405756716318
 10
42.18464126564115
 20
97.0
 10
42.0
 20
96.88676802806435
 10
41.0
 20
96.2753840905501
 10
40.605897095295646
 20
96.0
 10
40.0
 20
95.56702403310248
 10
39.2552383999533
 20
95.0
 10
39.0
 20
94.79353536530735
 10
38.05194569264081
 20
94.0
 10
38.0
 20
93.9536300307382
 10
37.0
 20
93.03649414817721
 10
36.96222294903396
 20
93.0
 10
35.99999999999999
 20
92.04410120115637
 10
35.956811094722624
 20
92.0
 10
35.00675351548916
 20
91.0
 10
35.0
 20
90.99283893934167
 10
34.08589645616205
 20
90.0
 10
34.0
 20
89.90743900539343
 10
33.16795247006215
 20
89.0
 10
33.0
 20
88.82022206723497
 10
32.2305654917224
 20
88.0
 10
32.0
 20
87.76058199690661
 10
31.251004356189167
 20
87.0
 10
31.0
 20
86.75285940978745
 10
30.201552278064014
 20
86.0
 10
30.0
 20
85.81543030843982
 10
29.04233271835152
 20
85.0
 10
29.0
 20
84.96441219775295
 10
28.0
 20
84.2079258111774
 10
27.713789579332573
 20
84.0
 10
27.0
 20
83.51549731000621
 10
26.149478821316208
 20
83.0
 10
26.0
 20
82.90805879929121
 10
25.0
 20
82.40085269429213
 10
24.12090978828958
 20
82.0
 10
24.0
 20
81.94262418500308
 10
23.0
 20
81.56725485054453
 10
22.0
 20
81.27625362996935
 10
21.0
 20
81.01915462596054
 10
20.911314057790495
 20
81.0
 10
20.0
 20
80.81281103609022
 10
19.0
 20
80.68258291160129
 10
18.0
 20
80.61080175766614
 10
17.0
 20
80.58961481826543
 10
16.0
 20
80.61598114115178
 10
15.0
 20
80.68971187580885
 10
14.0
 20
80.81460140689428
 10
13.008362366512168
 20
81.0
 10
13.0
 20
81.00165176454205
 10
12.0
 20
81.22881973753437
 10
11.0
 20
81.4699538168284
 10
10.0
 20
81.74565564338575
 10
9.261552139763761
 20
82.0
 10
9.0
 20
82.09437838450104
 10
8.0
 20
82.44494240702494
 10
7.0
 20
82.80962015687275
 10
6.554027969002984
 20
83.0
 10
6.000000000000001
 20
83.23536214317458
 10
5.0
 20
83.62910969197479
 10
4.142154908707234
 20
84.0
 10
4.0
 20
84.06545595841446
 10
3.0
 20
84.48311708574082
 10
2.0
 20
84.89022103606861
 10
1.7519972684605025
 20
85.0
 10
1.0
 20
85.31703089056035
 10
0.0
 20
85.68524512204277
  0
LWPOLYLINE
  5
3B
330
17
100
AcDbEntity
  8
0
100
AcDbPolyline
 90
288
 70
0
 10
255.0
 20
212.30952693131678
 10
254.83393557475995
 20
212.0
 10
254.37164518384466
 20
211.0
 10
254.0
 20
210.20374033524638
 10
253.90080584606469
 20
210.0
 10
253.47924198610912
 20
209.0
 10
253.07371695558763
 20
208.0
 10
253.0
 20
207.8294873108523
 10
252.66304091682986
 20
207.0
 10
252.30759572061208
 20
206.0
 10
252.0
 20
205.18635524899858
 10
251.92586734253
 20
205.0
 10
251.57791878562358
 20
204.0
 10
251.25949083029508
 20
203.0
 10
251.0
 20
202.24741838222923
 10
250.91113370913664
 20
202.0
 10
250.59703505705372
 20
201.0
 10
250.3110934167351
 20
200.0
 10
250.0035015991481
 20
199.0
 10
250.0
 20
198.98922276281172
 10
249.70328627640572
 20
198.0
 10
249.44354765884574
 20
197.0
 10
249.1847595182562
 20
196.0
 10
249.0
 20
195.34438235608656
 10
248.90062116506292
 20
195.0
 10
248.64821245222652
 20
194.0
 10
248.42240384190922
 20
193.0
 10
248.19544047685696
 20
192.0
 10
248.0
 20
191.20923885254433
 10
247.9460553879068
 20
191.00000000000003
 10
247.71649659308054
 20
190.0
 10
247.5145091485271
 20
189.0
 10
247.31931321486962
 20
188.0
 10
247.11233763229492
 20
187.0
 10
247.0
 20
186.50148781931614
 10
246.8869711682562
 20
186.0
 10
246.68537150530915
 20
185.0
 10
246.5004710340187
 20
184.0
 10
246.3152980252824
 20
183.0
 10
246.11263669340363
 20
182.0
 10
246.0
 20
181.50526631559848
 10
245.885008870182
 20
181.0
 10
245.67480153497235
 20
180.0
 10
245.47433113235368
 20
179.0
 10
245.26293414993333
 20
178.0
 10
245.01609833574898
 20
177.0
 10
245.0
 20
176.94223135666442
 10
244.7539740554094
 20
176.0
 10
244.5093439561649
 20
175.0
 10
244.25116681439098
 20
174.0
 10
244.00000000000003
 20
173.18035430723017
 10
243.94163560341414
 20
173.0
 10
243.63335258357745
 20
172.0
 10
243.330981643727
 20
171.0
 10
243.0
 20
170.06186615465276
 10
242.97638697834657
 20
170.0
 10
242.61311597470655
 20
169.0
 10
242.25782784558965
 20
168.0
 10
242.0
 20
167.37426273295915
 10
241.8416535898373
 20
167.0
 10
241.4501857002519
 20
166.0
 10
241.0308342237485
 20
165.0
 10
241.0
 20
164.93423124338364
 10
240.59254159731285
 20
164.0
 10
240.17429546315566
 20
163.0
 10
240.0
 20
162.62801150799854
 10
239.71220878358304
 20
162.0
 10
239.295917060103
 20
161.0
 10
239.0
 20
160.34679695440184
 10
238.83906586974678
 20
160.0
 10
238.42911557801835
 20
159.0
 10
238.01121574960172
 20
158.0
 10
238.0
 20
157.97472810879594
 10
237.60373887257435
 20
157.0
 10
237.2423423502401
 20
156.0
 10
237.0
 20
155.36800929557484
 10
236.85648835351466
 20
154.99999999999997
 10
236.52681821651024
 20
154.0
 10
236.22659078621393
 20
153.0
 10
236.0
 20
152.27615046103037
 10
235.9107381899572
 20
152.0
 10
235.64009804438453
 20
151.0
 10
235.41150371238572
 20
150.0
 10
235.19494749538094
 20
149.0
 10
235.00000000000003
 20
148.11984921099423
 10
234.97208784731615
 20
148.0
 10
234.77346459583654
 20
147.0
 10
234.60953683682462
 20
146.0
 10
234.4646752989974
 20
145.0
 10
234.32650913203815
 20
144.0
 10
234.1845162509901
 20
143.0
 10
234.0286266822368
 20
142.0
 10
234.0
 20
141.83241397405308
 10
233.86311999228047
 20
141.0
 10
233.7048667676043
 20
140.0
 10
233.54355695119708
 20
139.0
 10
233.36396448765623
 20
138.0
 10
233.142531333483
 20
137.0
 10
233.0
 20
136.49906684365186
 10
232.85746159951617
 20
136.0
 10
232.56066196036994
 20
135.0
 10
232.21685611024043
 20
134.0
 10
232.0
 20
133.51626877047033
 10
231.763092000178
 20
133.0
 10
231.27090996397808
 20
132.0
 10
231.0
 20
131.56380877974647
 10
230.63245993697336
 20
131.0
 10
230.0
 20
130.15277652679256
 10
229.8717867037231
 20
130.0
 10
229.0
 20
129.07683037663833
 10
228.91770349197637
 20
129.0
 10
228.0
 20
128.24936765437405
 10
227.64742864055765
 20
128.0
 10
227.0
 20
127.58538294911531
 10
226.0
 20
127.09657513423367
 10
225.77062797691588
 20
127.0
 10
225.0
 20
126.70046924266387
 10
224.0
 20
126.45285125135624
 10
223.0
 20
126.30215403669578
 10
222.00000000000003
 20
126.2379283320719
 10
221.0
 20
126.2618917560166
 10
220.0
 20
126.37153803365027
 10
219.0
 20
126.56598661311531
 10
218.0
 20
126.87071897843539
 10
217.70504549769598
 20
127.0
 10
217.0
 20
127.3085775164289
 10
216.0
 20
127.82407167118552
 10
215.73533840597955
 20
128.0
 10
215.0
 20
128.5082757570931
 10
214.39249575509422
 20
129.0
 10
214.0
 20
129.35059275884748
 10
213.35034995689475
 20
130.0
 10
213.0
 20
130.39063748445506
 10
212.5014871485232
 20
131.0
 10
212.0
 20
131.70118423761667
 10
211.7939582255653
 20
132.0
 10
211.23469209954544
 20
133.0
 10
211.0
 20
133.45308791884742
 10
210.72814081624003
 20
134.0
 10
210.34892798913572
 20
135.0
 10
210.0149444252199
 20
136.0
 10
210.0
 20
136.049950370847
 10
209.73617886411455
 20
137.0
 10
209.5454084975603
 20
138.0
 10
209.41241030002337
 20
139.0
 10
209.32608727366272
 20
140.0
 10
209.2841955228744
 20
141.0
 10
209.28645477422296
 20
142.0
 10
209.33127351054608
 20
143.0
 10
209.41590171226557
 20
144.0
 10
209.53930863044735
 20
145.0
 10
209.7067337678111
 20
146.0
 10
209.9349382600361
 20
147.0
 10
210.0
 20
147.22227415718942
 10
210.21860449089345
 20
148.0
 10
210.50768948972336
 20
149.0
 10
210.84207295968042
 20
150.0
 10
211.0
 20
150.38198283286167
 10
211.25303340654017
 20
151.0
 10
211.65853169671644
 20
152.0
 10
212.0
 20
152.7118443566199
 10
212.14543393458416
 20
153.0
 10
212.63437055335814
 20
154.0
 10
213.0
 20
154.65890289518688
 10
213.19728552933947
 20
155.0
 10
213.7583786437429
 20
156.0
 10
214.0
 20
156.38150959062608
 10
214.39122776628193
 20
157.0
 10
215.0
 20
157.94492219559908
 10
215.0381474637058
 20
158.0
 10
215.70659752113949
 20
159.0
 10
216.0
 20
159.40866844033852
 10
216.42525917747355
 20
160.0
 10
217.0
 20
160.78995141691405
 10
217.15920197819284
 20
161.0
 10
217.8926222980953
 20
162.0
 10
218.0
 20
162.13740776805233
 10
218.65549247656952
 20
163.0
 10
219.0
 20
163.4402533663772
 10
219.4372475876886
 20
164.0
 10
220.0
 20
164.72278771315166
 10
220.22046826123363
 20
165.0
 10
220.9894498426597
 20
166.0
 10
221.0
 20
166.0131563914725
 10
221.75652269382124
 20
167.0
 10
222.0
 20
167.30960640029397
 10
222.5309645912078
 20
168.0
 10
223.0
 20
168.6133925874159
 10
223.2970441706358
 20
169.0
 10
224.0
 20
169.95436349488585
 10
224.0349070171996
 20
170.0
 10
224.74928426552088
 20
171.0
 10
225.0
 20
171.3429560725829
 10
225.46705022530713
 20
172.0
 10
226.0
 20
172.77217404456474
 10
226.16075265220775
 20
173.0
 10
226.8055577970506
 20
174.0
 10
227.0
 20
174.29044956029514
 10
227.45598883690582
 20
175.0
 10
228.0
 20
175.8873057114716
 10
228.07207212394752
 20
176.0
 10
228.64305250301953
 20
177.0
 10
229.0
 20
177.62331158041246
 10
229.21702830137028
 20
178.0
 10
229.72021454636734
 20
179.0
 10
230.0
 20
179.54119842156945
 10
230.23573160440336
 20
180.0
 10
230.6743306675572
 20
181.0
 10
231.0
 20
181.73481058911779
 10
231.12102544688514
 20
182.0
 10
231.5029129496985
 20
183.0
 10
231.84789453786806
 20
184.0
 10
232.0
 20
184.43306704947923
 10
232.19543130607286
 20
185.0
 10
232.4701615696556
 20
186.0
 10
232.70404600679404
 20
187.0
 10
232.92342892398867
 20
188.0
 10
233.0
 20
188.3763453532051
 10
233.12514976154742
 20
189.0
 10
233.27408587127792
 20
190.0
 10
233.38052642830203
 20
191.0
 10
233.4529397824677
 20
192.0
 10
233.49578104637322
 20
193.0
 10
233.51162412349197
 20
194.0
 10
233.50249299553622
 20
195.0
 10
233.47040563211579
 20
196.0
 10
233.41732066107616
 20
197.0
 10
233.34480388614216
 20
198.0
 10
233.25376371902883
 20
199.0
 10
233.14454153178235
 20
200.0
 10
233.01749323789602
 20
201.0
 10
232.99999999999997
 20
201.12769794023592
 10
232.8844594148747
 20
202.0
 10
232.76458589193945
 20
203.0
 10
232.65963076980097
 20
204.0
 10
232.570620593175
 20
205.0
 10
232.49909666629208
 20
206.0
 10
232.44766044319368
 20
207.0
 10
232.41989214698782
 20
208.0
 10
232.41979370299453
 20
209.0
 10
232.45121352766074
 20
210.0
 10
232.5179734848524
 20
211.0
 10
232.62552033303356
 20
212.0
 10
232.78477994021654
 20
213.0
 10
233.0
 20
213.92613915186038
 10
233.01824811356337
 20
214.0
 10
233.29784388105435
 20
215.0
 10
233.6074000644993
 20
216.0
 10
234.0
 20
216.97586688693593
 10
234.01077218922703
 20
217.0
 10
234.476350784661
 20
218.0
 10
235.0
 20
218.9715382614118
 10
235.01711727174643
 20
219.0
 10
235.6349852224679
 20
220.0
 10
236.0
 20
220.51363260916986
 10
236.36296251557013
 20
221.0
 10
237.00000000000003
 20
221.79441807449018
 10
237.17743692679073
 20
222.0
 10
238.0
 20
222.90389484505968
 10
238.09338060494335
 20
223.00000000000003
 10
239.0
 20
223.88352120947457
 10
239.12527910405615
 20
224.0
 10
240.0
 20
224.76824584801136
 10
240.2730195421437
 20
225.0
 10
241.0
 20
225.5883950835186
 10
241.5277412597823
 20
226.0
 10
242.0
 20
226.3610030350012
 10
242.88808115231961
 20
227.0
 10
243.0
 20
227.08265729779527
 10
243.99999999999997
 20
227.75912747139938
 10
244.34658794811583
 20
228.0
 10
245.0
 20
228.44198814009178
 10
245.84976306251932
 20
229.0
 10
246.0
 20
229.1027724322812
 10
247.0
 20
229.73534181359173
 10
247.3972736719818
 20
230.0
 10
248.0
 20
230.39613839050548
 10
248.9399168051218
 20
231.0
 10
249.0
 20
231.0409432469023
 10
250.0
 20
231.67970060630802
 10
250.47825430769186
 20
232.0
 10
251.0
 20
232.3493129245055
 10
251.99914817788425
 20
233.0
 10
252.0
 20
233.00059176637438
 10
253.0
 20
233.65445414432537
 10
253.51171457080073
 20
234.0
 10
254.0
 20
234.3298800993834
 10
255.00000000000003
 20
234.97591446322835
  0
LWPOLYLINE
  5
3C
330
17
100
AcDbEntity
  8
0
100
AcDbPolyline
 90
607
 70
0
 10
0.0
 20
235.61797881501042
 10
0.5922234409422786
 20
236.0
 10
1.0
 20
236.26407469732573
 10
2.0
 20
236.854116997168
 10
2.2361120226967577
 20
237.0
 10
3.0
 20
237.44741994478574
 10
4.0
 20
237.99230343444626
 10
4.013714114593211
 20
237.99999999999997
 10
5.0
 20
238.50330120864976
 10
6.0
 20
238.96955719017703
 10
6.0644660467802165
 20
239.0
 10
7.0
 20
239.4035698893294
 10
8.0
 20
239.76112689531118
 10
8.683234714540337
 20
240.0
 10
9.0
 20
240.11313824186243
 10
10.0
 20
240.39000238413405
 10
11.0
 20
240.60062740881867
 10
12.0
 20
240.76833996534103
 10
13.0
 20
240.89601556394047
 10
14.0
 20
240.97561939179414
 10
15.0
 20
240.99774799643657
 10
16.0
 20
240.95876126841048
 10
17.0
 20
240.86310627448267
 10
18.0
 20
240.71976624890885
 10
19.0
 20
240.53366067106538
 10
20.0
 20
240.2944509036985
 10
20.903658152791607
 20
240.0
 10
21.0
 20
239.96611672075593
 10
22.0
 20
239.5980918570556
 10
23.0
 20
239.19797367029543
 10
23.403830986039026
 20
239.0
 10
24.0
 20
238.70788431957385
 10
25.0
 20
238.21827984052132
 10
25.38378413612464
 20
238.0
 10
26.0
 20
237.6514693715045
 10
27.0
 20
237.0902828089225
 10
27.144238879142833
 20
237.0
 10
28.0
 20
236.48843757949152
 10
28.801501427838403
 20
235.99999999999997
 10
29.0
 20
235.87337416075115
 10
30.0
 20
235.28278671316238
 10
30.45226835604501
 20
235.0
 10
31.0
 20
234.66109640081606
 10
32.0
 20
234.08069431160533
 10
32.130270240806055
 20
234.0
 10
33.0
 20
233.493513351695
 10
33.86776888421326
 20
233.0
 10
34.0
 20
232.92100608375037
 10
35.0
 20
232.38527695411284
 10
35.70820366279582
 20
232.0
 10
36.0
 20
231.8369745397016
 10
37.0
 20
231.3417035053164
 10
37.66466029434263
 20
231.0
 10
38.0
 20
230.82385089920592
 10
39.0
 20
230.36040225482725
 10
39.74842752505702
 20
230.0
 10
40.0
 20
229.8742277705789
 10
41.0
 20
229.43337792502462
 10
41.96914714503834
 20
229.0
 10
42.0
 20
228.9851131121111
 10
43.0
 20
228.5525306669327
 10
44.0
 20
228.14788080767232
 10
44.33565124305196
 20
228.0
 10
45.0
 20
227.7165038132631
 10
46.0
 20
227.34071917486213
 10
46.8534858891513
 20
227.0
 10
47.0
 20
226.93801084579124
 10
48.0
 20
226.5644005829244
 10
49.0
 20
226.21882127673376
 10
49.584059538143045
 20
226.0
 10
50.0
 20
225.84239922987106
 10
51.0
 20
225.51570970663937
 10
52.0
 20
225.20693809892015
 10
52.623643701294256
 20
225.0
 10
53.0
 20
224.8729014400413
 10
54.0
 20
224.58442741283537
 10
55.0
 20
224.32608021924412
 10
56.0
 20
224.06112534388086
 10
56.22346373239573
 20
224.0
 10
57.0
 20
223.7965612778277
 10
58.0
 20
223.57998531779623
 10
59.0
 20
223.38941956873973
 10
60.0
 20
223.20777077528135
 10
61.0
 20
223.02536896082455
 10
61.14426129468033
 20
223.0
 10
62.0
 20
222.85512080381255
 10
63.0
 20
222.71883023828266
 10
64.0
 20
222.60797339319367
 10
65.0
 20
222.51633324300417
 10
66.0
 20
222.43988962395366
 10
67.0
 20
222.37618182656922
 10
68.0
 20
222.3237371742593
 10
69.0
 20
222.28160226861968
 10
70.0
 20
222.24899609324515
 10
71.0
 20
222.2250838583314
 10
72.0
 20
222.20885665282907
 10
73.0
 20
222.19909396386097
 10
74.0
 20
222.19438289753617
 10
75.0
 20
222.1931689059088
 10
76.0
 20
222.1938170757117
 10
77.0
 20
222.1946691465019
 10
78.0
 20
222.1940877952921
 10
79.0
 20
222.190484978288
 10
80.0
 20
222.1823344330933
 10
81.0
 20
222.1681696935006
 10
82.0
 20
222.1465686825852
 10
83.0
 20
222.11612503472622
 10
84.0
 20
222.07540555798434
 10
85.0
 20
222.02289280393907
 10
85.35265005848174
 20
222.0
 10
86.0
 20
221.9584102860931
 10
87.0
 20
221.88639707055967
 10
88.0
 20
221.80837888938305
 10
89.00000000000001
 20
221.72528084920523
 10
90.0
 20
221.63740579198145
 10
91.0
 20
221.5441748801254
 10
92.0
 20
221.44396751213407
 10
93.0
 20
221.3340884491819
 10
94.0
 20
221.210884267431
 10
95.0
 20
221.07001062251516
 10
95.44357374761546
 20
221.0
 10
96.0
 20
220.91278827049152
 10
97.0
 20
220.76411330954613
 10
98.0
 20
220.62446741224198
 10
99.0
 20
220.4891226412817
 10
100.0
 20
220.35237413338308
 10
101.0
 20
220.20836454985417
 10
102.0
 20
220.0519279166725
 10
102.3141419885221
 20
220.0
 10
103.0
 20
219.88881405864262
 10
104.0
 20
219.7443603406158
 10
105.0
 20
219.61556580406926
 10
106.0
 20
219.4975484385567
 10
107.0
 20
219.3861545471349
 10
108.0
 20
219.2784279206244
 10
109.0
 20
219.17291913299914
 10
110.0
 20
219.06980119849896
 10
110.71194824682269
 20
219.0
 10
110.99999999999999
 20
218.97126212942825
 10
112.0
 20
218.88815381397293
 10
113.0
 20
218.82264438832868
 10
114.0
 20
218.77338570513842
 10
115.0
 20
218.73949279447496
 10
116.0
 20
218.72045796492577
 10
117.0
 20
218.71606368268567
 10
117.99999999999999
 20
218.7263155893407
 10
119.0
 20
218.7514138055398
 10
120.0
 20
218.79176671780925
 10
121.0
 20
218.84803319988197
 10
122.0
 20
218.92116385502476
 10
122.8679080965503
 20
219.0
 10
123.0
 20
219.01225852316264
 10
124.0
 20
219.11282866182046
 10
125.0
 20
219.21540970415944
 10
126.0
 20
219.31830078210805
 10
127.0
 20
219.42111370053186
 10
128.0
 20
219.52455694178838
 10
129.0
 20
219.62997579644826
 10
130.0
 20
219.73874422090415
 10
131.0
 20
219.85161662881256
 10
132.0
 20
219.96817254356208
 10
132.27748895283324
 20
220.0
 10
133.0
 20
220.0817193977279
 10
134.0
 20
220.17796558291246
 10
135.0
 20
220.25751013420384
 10
136.0
 20
220.32166986761123
 10
137.0
 20
220.37149913930986
 10
138.0
 20
220.4077977996629
 10
139.0
 20
220.43118878088012
 10
140.0
 20
220.44220911600672
 10
141.0
 20
220.44136856244916
 10
142.0
 20
220.42915346298733
 10
143.0
 20
220.40597593623534
 10
144.0
 20
220.37208286407815
 10
145.0
 20
220.32744423551304
 10
146.0
 20
220.27163828892617
 10
147.0
 20
220.20374407514876
 10
148.0
 20
220.12224101418863
 10
149.0
 20
220.02489695087897
 10
149.22160230634785
 20
220.0
 10
150.0
 20
219.91460830269642
 10
151.0
 20
219.80263663791877
 10
152.0
 20
219.688848857567
 10
153.0
 20
219.57095334439964
 10
154.0
 20
219.44445375647285
 10
155.0
 20
219.30217775360208
 10
156.0
 20
219.13368598193634
 10
156.65598485816153
 20
219.0
 10
157.0
 20
218.9285672458298
 10
158.0
 20
218.72128985640376
 10
159.0
 20
218.51398603165742
 10
160.0
 20
218.28615375204447
 10
161.0
 20
218.005663269148
 10
161.017180334646
 20
218.0
 10
162.0
 20
217.6991636193562
 10
163.0
 20
217.39621045319856
 10
164.0
 20
217.03680308205145
 10
164.08611046247378
 20
217.0
 10
165.0
 20
216.63228879078065
 10
166.0
 20
216.219459996564
 10
166.43895455200206
 20
216.0
 10
167.0
 20
215.7170245223379
 10
168.0
 20
215.20535995001066
 10
168.3374546918557
 20
215.0
 10
169.0
 20
214.59414176870064
 10
169.8975895916371
 20
214.0
 10
170.0
 20
213.92587919422814
 10
171.0
 20
213.17994853056229
 10
171.2131656914584
 20
213.0
 10
172.0
 20
212.30495236038615
 10
172.31527692507655
 20
212.0
 10
173.0
 20
211.28097397274902
 10
173.24997431022192
 20
211.0
 10
174.0
 20
210.0414121515254
 10
174.03167087822644
 20
210.0
 10
174.6757742267559
 20
209.0
 10
175.0
 20
208.43184569367543
 10
175.23787404505188
 20
208.0
 10
175.652795774134
 20
207.0
 10
175.99903702722423
 20
206.0
 10
176.0
 20
205.99659996274275
 10
176.26055975768844
 20
205.0
 10
176.40880263312278
 20
204.0
 10
176.4679651446709
 20
203.0
 10
176.44186433604517
 20
202.0
 10
176.32381305773558
 20
201.0
 10
176.0885352065885
 20
200.0
 10
176.0
 20
199.76196035220065
 10
175.7207369854039
 20
199.0
 10
175.25519902277307
 20
198.0
 10
175.0
 20
197.60520187583117
 10
174.57469722480948
 20
197.0
 10
174.0
 20
196.33384368988652
 10
173.66251621628828
 20
196.0
 10
173.0
 20
195.43852491855444
 10
172.35990912120067
 20
195.0
 10
172.0
 20
194.77105696803085
 10
171.0
 20
194.31580360110814
 10
170.09835524917997
 20
194.0
 10
170.0
 20
193.96410920081925
 10
169.0
 20
193.73001576391306
 10
168.0
 20
193.61492580979035
 10
167.0
 20
193.59039861913658
 10
166.0
 20
193.64693037364734
 10
165.0
 20
193.78534788959485
 10
164.0860689234154
 20
194.00000000000003
 10
164.0
 20
194.02137258281613
 10
163.0
 20
194.31672112084425
 10
162.0
 20
194.6491413773018
 10
161.17464053964395
 20
195.0
 10
161.00000000000003
 20
195.07985589635817
 10
160.0
 20
195.5354153441508
 10
159.0891333781825
 20
196.0
 10
159.0
 20
196.04930562522082
 10
158.0
 20
196.57770572778048
 10
157.25025339024415
 20
197.0
 10
157.0
 20
197.14721857138224
 10
156.0
 20
197.68868003088895
 10
155.45704624711885
 20
198.0
 10
155.0
 20
198.26229014371722
 10
154.0
 20
198.7768293049556
 10
153.58665029514177
 20
199.0
 10
153.0
 20
199.30829367492385
 10
152.0
 20
199.76403036930586
 10
151.49571049188182
 20
200.0
 10
151.0
 20
200.2289135768376
 10
150.0
 20
200.60944868999508
 10
149.0
 20
200.97220586146133
 10
148.92236822201147
 20
201.0
 10
148.0
 20
201.30498456255836
 10
147.0
 20
201.56208255463918
 10
146.0
 20
201.78518789958406
 10
145.0
 20
201.99249705259692
 10
144.95838367194995
 20
202.0
 10
144.0
 20
202.1647127653273
 10
143.0
 20
202.28423235830655
 10
142.0
 20
202.36330809029283
 10
141.0
 20
202.4087685367236
 10
140.0
 20
202.424506776529
 10
139.0
 20
202.41303711608288
 10
138.0
 20
202.37613971787556
 10
137.0
 20
202.3148383976599
 10
136.0
 20
202.22904113134706
 10
135.0
 20
202.11716849622482
 10
134.16298053379086
 20
202.0
 10
134.0
 20
201.9765143298089
 10
133.0
 20
201.82619453725215
 10
132.0
 20
201.67868892101745
 10
131.0
 20
201.53237257610675
 10
130.0
 20
201.38245376629118
 10
129.0
 20
201.22234489869095
 10
128.0
 20
201.0452934990997
 10
127.75979822642307
 20
201.0
 10
127.0
 20
200.86101527536877
 10
126.0
 20
200.699777477473
 10
125.0
 20
200.5561589572348
 10
124.0
 20
200.42366797788355
 10
123.0
 20
200.29732023287184
 10
122.0
 20
200.17435469393985
 10
121.0
 20
200.05451459993554
 10
120.51444994898185
 20
200.0
 10
120.0
 20
199.9421248189841
 10
119.0
 20
199.8513841716834
 10
118.0
 20
199.78173967573687
 10
117.0
 20
199.73101830526863
 10
116.0
 20
199.697763650511
 10
115.0
 20
199.6810496580959
 10
114.0
 20
199.68032445624743
 10
113.0
 20
199.695318030326
 10
112.0
 20
199.72602987494577
 10
111.0
 20
199.7727892885142
 10
110.0
 20
199.83636133979633
 10
109.0
 20
199.91806284209648
 10
108.18931010023245
 20
200.0
 10
108.0
 20
200.0194992992593
 10
107.0
 20
200.13028495152133
 10
106.0
 20
200.2432722716826
 10
105.0
 20
200.35792471159408
 10
104.0
 20
200.475656433543
 10
103.0
 20
200.59975111750725
 10
102.0
 20
200.7350513444125
 10
101.0
 20
200.88747540571265
 10
100.34639038009739
 20
201.0
 10
100.0
 20
201.06062694467758
 10
99.0
 20
201.22631753778958
 10
98.0
 20
201.37993514398477
 10
97.0
 20
201.52838883342451
 10
96.0
 20
201.67972458095696
 10
95.0
 20
201.84226319656818
 10
94.12436266906826
 20
202.0
 10
94.0
 20
202.0234004795189
 10
93.0
 20
202.19864723818094
 10
92.0
 20
202.355654875575
 10
91.0
 20
202.50262730123967
 10
90.0
 20
202.6479659314336
 10
89.0
 20
202.7996608956447
 10
88.0
 20
202.96476915036595
 10
87.79813692895651
 20
203.0
 10
87.0
 20
203.13477203003507
 10
86.0
 20
203.28604513525414
 10
85.0
 20
203.4247357173239
 10
84.0
 20
203.55806957744102
 10
83.0
 20
203.69315835763592
 10
82.0
 20
203.83670260113416
 10
81.0
 20
203.99476778758043
 10
80.96861846910097
 20
204.0
 10
80.0
 20
204.15363554212064
 10
79.0
 20
204.29734088271448
 10
78.0
 20
204.43190038261278
 10
77.0
 20
204.5638814868929
 10
76.0
 20
204.7001591598222
 10
75.0
 20
204.84761363607026
 10
74.07381496052179
 20
205.0
 10
74.00000000000001
 20
205.01271028714925
 10
73.0
 20
205.17645926130206
 10
72.0
 20
205.32583684656527
 10
71.0
 20
205.46726165825447
 10
70.0
 20
205.60792831798375
 10
69.0
 20
205.7553312406324
 10
68.0
 20
205.9166992413723
 10
67.52558112903269
 20
206.0
 10
67.0
 20
206.091999553506
 10
66.0
 20
206.25197933989477
 10
65.0
 20
206.39782018092728
 10
64.0
 20
206.53646987058215
 10
63.0
 20
206.67479596606205
 10
62.0
 20
206.8188989009381
 10
61.0
 20
206.97346729237228
 10
60.83353707204692
 20
207.0
 10
60.0
 20
207.12850640976083
 10
58.99999999999999
 20
207.26359599876304
 10
58.0
 20
207.38293167964105
 10
57.0
 20
207.4906717351805
 10
56.0
 20
207.58999423911519
 10
55.0
 20
207.68278532052682
 10
54.0
 20
207.76946111118562
 10
53.0
 20
207.84894764334277
 10
52.0
 20
207.91883775321014
 10
51.0
 20
207.9757307718049
 10
50.389958477149406
 20
208.0
 10
50.0
 20
208.01566200242902
 10
49.0
 20
208.03442753903303
 10
48.0
 20
208.0301905417451
 10
47.0
 20
208.00064706447043
 10
46.988701616818254
 20
208.0
 10
46.0
 20
207.94491909701077
 10
45.0
 20
207.86468508621044
 10
44.0
 20
207.76179951841465
 10
43.0
 20
207.63699753062443
 10
42.0
 20
207.48712503097337
 10
41.0
 20
207.30136644881085
 10
40.0
 20
207.0563520986045
 10
39.81842809284662
 20
207.00000000000003
 10
39.0
 20
206.75715345561022
 10
38.0
 20
206.44929715707087
 10
36.99999999999999
 20
206.07613868321823
 10
36.83515849407807
 20
206.0
 10
36.0
 20
205.62855973843503
 10
35.0
 20
205.15164628108212
 10
34.73898863160351
 20
205.0
 10
34.0
 20
204.5727332682217
 10
33.09999290695216
 20
204.0
 10
33.0
 20
203.9301887267153
 10
32.0
 20
203.21278923200333
 10
31.738587177512372
 20
203.0
 10
31.0
 20
202.3773987278467
 10
30.588179502454985
 20
202.0
 10
30.0
 20
201.42916194101812
 10
29.58498353717791
 20
201.0
 10
29.0
 20
200.3523183871405
 10
28.695713714662748
 20
200.00000000000003
 10
28.000000000000004
 20
199.12004913222194
 10
27.90595825899516
 20
199.0
 10
27.210922504125556
 20
198.0
 10
27.0
 20
197.69087160464915
 10
26.55436000775942
 20
197.0
 10
26.0
 20
196.05466963595006
 10
25.96658841371306
 20
196.00000000000003
 10
25.437616741334914
 20
195.0
 10
25.0
 20
194.1216329505168
 10
24.936560493910566
 20
194.0
 10
24.493115699902162
 20
193.0
 10
24.08874614840434
 20
192.0
 10
24.0
 20
191.786570852198
 10
23.69197149106909
 20
191.0
 10
23.369163747381492
 20
190.0
 10
23.054160110328766
 20
189.0
 10
23.0
 20
188.82946445801088
 10
22.751335424422834
 20
188.0
 10
22.511253027579897
 20
187.0
 10
22.300232557060085
 20
186.0
 10
22.09726822738198
 20
185.0
 10
22.0
 20
184.5058609481384
 10
21.90042086394599
 20
184.0
 10
21.743488435571642
 20
183.0
 10
21.61982437725752
 20
182.0
 10
21.519977294516075
 20
181.0
 10
21.437815781002694
 20
180.0
 10
21.36925151849247
 20
179.0
 10
21.311242784800502
 20
178.0
 10
21.26107070952932
 20
177.0
 10
21.215857643841552
 20
176.0
 10
21.17226580467275
 20
175.0
 10
21.12629429265042
 20
174.0
 10
21.073078364215377
 20
173.0
 10
21.006574036637197
 20
172.0
 10
21.0
 20
171.9224442516794
 10
20.924206260736945
 20
171.0
 10
20.82666491752108
 20
170.0
 10
20.710908863593637
 20
169.0
 10
20.572069107036988
 20
168.0
 10
20.399602610250007
 20
167.0
 10
20.170695141972768
 20
166.0
 10
20.0
 20
165.4536968179092
 10
19.856064787407615
 20
165.0
 10
19.5133546367059
 20
164.0
 10
19.089872544394805
 20
163.0
 10
19.0
 20
162.83445050731873
 10
18.552761863061107
 20
162.0
 10
18.0
 20
161.1293179791841
 10
17.908057437716014
 20
161.0
 10
17.125834043440314
 20
160.0
 10
17.0
 20
159.86292747193124
 10
16.115747417103705
 20
159.0
 10
16.0
 20
158.89776665315767
 10
15.000000000000002
 20
158.1633636140985
 10
14.745685396626001
 20
158.0
 10
14.0
 20
157.5699162454182
 10
13.0
 20
157.14741521766223
 10
12.572893796214839
 20
157.0
 10
12.0
 20
156.80846092246546
 10
11.0
 20
156.61276688211424
 10
10.0
 20
156.5287147894379
 10
9.0
 20
156.54448764093118
 10
8.0
 20
156.66399646166877
 10
7.0
 20
156.91262099703704
 10
6.77917776778072
 20
157.0
 10
6.0
 20
157.30409834910282
 10
5.0
 20
157.8069183035907
 10
4.718162938960407
 20
158.0
 10
4.0
 20
158.52968993051695
 10
3.477182247648502
 20
159.0
 10
3.0
 20
159.4965240683798
 10
2.5761610330020446
 20
160.0
 10
2.0
 20
160.83706347078953
 10
1.8923541822152423
 20
161.0
 10
1.3868976150218804
 20
162.0
 10
1.0
 20
162.94742422330776
 10
0.9775641812132707
 20
163.0
 10
0.6660853578214536
 20
164.0
 10
0.4632328439860214
 20
165.0
 10
0.3291196940499838
 20
166.0
 10
0.2516466522840482
 20
167.0
 10
0.22771641794949857
 20
168.0
 10
0.2537556113545315
 20
169.0
 10
0.32344386473024944
 20
170.0
 10
0.43006957365535303
 20
171.0
 10
0.5707178292379733
 20
172.0
 10
0.750163488402136
 20
173.0
 10
0.9834297453723553
 20
174.0
 10
1.0
 20
174.05920614248646
 10
1.2465708344317474
 20
175.0
 10
1.502604439972358
 20
176.0
 10
1.780850776526687
 20
177.0
 10
2.0
 20
177.66083607636588
 10
2.115871872950024
 20
178.0
 10
2.4356907865448223
 20
179.0
 10
2.7570831416119828
 20
180.0
 10
3.0
 20
180.65226432383287
 10
3.1333309781088228
 20
181.0
 10
3.4857972830696293
 20
182.0
 10
3.8461895992561943
 20
183.0
 10
4.0
 20
183.3724163725256
 10
4.254269056224986
 20
184.0
 10
4.62797577757643
 20
185.0
 10
5.0
 20
185.89315279561802
 10
5.047850360651256
 20
186.0
 10
5.4654616273805345
 20
187.0
 10
5.889453702052634
 20
188.0
 10
6.0
 20
188.22773111024165
 10
6.360329094891649
 20
189.0
 10
6.81444668576301
 20
190.0
 10
7.0
 20
190.35513438052863
 10
7.332337973599586
 20
191.0
 10
7.837254623138693
 20
192.0
 10
8.0
 20
192.2812049025679
 10
8.40787171042916
 20
193.0
 10
8.990601658663632
 20
194.0
 10
9.0
 20
194.0143875259577
 10
9.613962924023282
 20
195.0
 10
10.0
 20
195.5724078105045
 10
10.297442210105705
 20
196.0
 10
10.999999999999998
 20
196.996055029605
 10
11.003003599634665
 20
197.0
 10
11.75722330628265
 20
198.0
 10
12.0
 20
198.29921533716194
 10
12.57346974808004
 20
199.0
 10
13.0
 20
199.4996949230233
 10
13.4368869133943
 20
200.0
 10
14.0
 20
200.62927315284233
 10
14.339924765466996
 20
201.0
 10
15.0
 20
201.71018186445718
 10
15.274404259496315
 20
202.0
 10
16.0
 20
202.76296077737516
 10
16.227570955367558
 20
203.0
 10
17.0
 20
203.80984392853762
 10
17.18142972709267
 20
204.0
 10
18.0
 20
204.8771858162599
 10
18.113967676028945
 20
205.0
 10
18.999995746106933
 20
206.0
 10
19.0
 20
206.00000485442547
 10
19.82115127493766
 20
207.0
 10
20.0
 20
207.224317450976
 10
20.578510867405733
 20
208.0
 10
21.0
 20
208.6118387100388
 10
21.260120135883852
 20
209.0
 10
21.815502534580066
 20
210.0
 10
22.0
 20
210.35271887433606
 10
22.318821804694867
 20
211.0
 10
22.68476191327589
 20
212.0
 10
22.986948730697705
 20
213.0
 10
23.0
 20
213.05642828189994
 10
23.20657464417078
 20
214.0
 10
23.312937934543406
 20
215.0
 10
23.321883829315567
 20
216.0
 10
23.22968221727926
 20
216.99999999999997
 10
23.010348904373704
 20
218.0
 10
23.000000000000004
 20
218.02920626052673
 10
22.67359282996502
 20
219.0
 10
22.221558404834933
 20
220.0
 10
22.0
 20
220.34641980363836
 10
21.548117872111106
 20
221.0
 10
21.0
 20
221.6356815339347
 10
20.63085278187608
 20
222.0
 10
20.0
 20
222.5313772164847
 10
19.306221762443748
 20
223.0
 10
19.0
 20
223.19331826516938
 10
18.0
 20
223.6457042314106
 10
17.0
 20
223.98671466843206
 10
16.947707690865208
 20
224.0
 10
16.0
 20
224.2250865777031
 10
15.0
 20
224.34137080994213
 10
14.0
 20
224.36460562652854
 10
12.999999999999998
 20
224.30297931703154
 10
12.0
 20
224.1510506592325
 10
11.412417451094386
 20
224.0
 10
11.0
 20
223.8923449225359
 10
10.0
 20
223.57819418606687
 10
9.0
 20
223.1869130772771
 10
8.638759545535773
 20
223.0
 10
8.0
 20
222.6647580056034
 10
6.999999999999999
 20
222.0798694846995
 10
6.88656006184177
 20
222.0
 10
6.0
 20
221.3710527546138
 10
5.539257658943642
 20
221.0
 10
5.0
 20
220.539718139105
 10
4.4173260285191
 20
220.0
 10
4.0
 20
219.58618304076333
 10
3.4464363629827837
 20
219.0
 10
3.0
 20
218.49412941178338
 10
2.585061150864985
 20
218.0
 10
2.0
 20
217.24494378688797
 10
1.812884431018891
 20
217.0
 10
1.1348954931637572
 20
216.0
 10
1.0
 20
215.8012732059684
 10
0.4910551867460615
 20
215.0
 10
0.0
 20
214.1726671891758
  0
LWPOLYLINE
  5
3D
330
17
100
AcDbEntity
  8
0
100
AcDbPolyline
 90
70
 70
0
 10
57.41779380317803
 20
255.00000000000003
 10
58.0
 20
254.439088576166
 10
58.40207500508436
 20
254.0
 10
59.0
 20
253.2203615395433
 10
59.158255420630965
 20
253.0
 10
59.7017937273108
 20
252.0
 10
60.0
 20
251.3074628843127
 10
60.13147916689734
 20
251.0
 10
60.40095918090303
 20
250.0
 10
60.53470987318114
 20
249.0
 10
60.554321140924316
 20
248.0
 10
60.4591319797781
 20
247.0
 10
60.23143640015236
 20
246.0
 10
59.99999999999999
 20
245.4239031021972
 10
59.81938766341854
 20
245.0
 10
59.27035555581652
 20
244.0
 10
59.0
 20
243.64255927543877
 10
58.449814804970856
 20
243.0
 10
58.0
 20
242.56710023886433
 10
57.27684732343609
 20
242.0
 10
57.0
 20
241.80259013862204
 10
56.0
 20
241.27417495023556
 10
55.35682908298999
 20
241.0
 10
55.0
 20
240.85044705739472
 10
54.0
 20
240.57313402217156
 10
53.0
 20
240.40285019574526
 10
52.0
 20
240.3088058907278
 10
50.99999999999999
 20
240.28185008085558
 10
49.99999999999999
 20
240.3155394462147
 10
49.0
 20
240.4011733596198
 10
48.0
 20
240.53124343440538
 10
47.0
 20
240.7053612286228
 10
46.0
 20
240.93452138423143
 10
45.767194586938466
 20
241.0
 10
45.0
 20
241.2072508991036
 10
44.0
 20
241.46802126774958
 10
43.0
 20
241.73976383024782
 10
42.17262307419799
 20
242.0
 10
42.0
 20
242.05732958061895
 10
41.0
 20
242.36127258635827
 10
40.0
 20
242.6408817155393
 10
39.0
 20
242.94047274931572
 10
38.81716246070657
 20
243.0
 10
38.0
 20
243.25210608535053
 10
37.0
 20
243.52242837154776
 10
36.0
 20
243.79393159008953
 10
35.32914692028267
 20
244.0
 10
35.0
 20
244.1038594429027
 10
34.0
 20
244.39405289689114
 10
33.0
 20
244.68254867686778
 10
32.08700281860407
 20
245.0
 10
32.0
 20
245.03266553017875
 10
31.0
 20
245.4086075112155
 10
30.0
 20
245.82228253106692
 10
29.663199474275395
 20
246.0
 10
29.0
 20
246.35531961475806
 10
28.0
 20
246.9760392377675
 10
27.968545169381777
 20
247.0
 10
27.0
 20
247.78877508294454
 10
26.783628224719774
 20
248.0
 10
26.0
 20
248.92760695614544
 10
25.944312032096988
 20
249.0
 10
25.373476205892153
 20
250.00000000000003
 10
25.0
 20
250.9627077398882
 10
24.984995149642256
 20
251.0
 10
24.763150774035182
 20
252.0
 10
24.718861218114387
 20
253.0
 10
24.839716605381575
 20
254.0
 10
25.0
 20
254.5135164013359
 10
25.156161495278905
 20
255.0
  0
LWPOLYLINE
  5
3E
330
17
100
AcDbEntity
  8
0
100
AcDbPolyline
 90
39
 70
0
 10
177.60147707872102
 20
255.0
 10
177.75793898822062
 20
254.0
 10
177.9452111870204
 20
253.0
 10
178.00000000000003
 20
252.76039865400006
 10
178.1678244295362
 20
252.0
 10
178.3987733901726
 20
251.0
 10
178.66669851174265
 20
250.0
 10
179.0
 20
249.08514258967068
 10
179.03397196569392
 20
249.0
 10
179.47045583469776
 20
248.0
 10
180.0
 20
247.03648936982452
 10
180.02297644159455
 20
247.0
 10
180.73337574703783
 20
246.0
 10
181.0
 20
245.69744806863318
 10
181.71507462032716
 20
245.0
 10
182.0
 20
244.75849800584086
 10
183.0
 20
244.1192345336264
 10
183.23770561750922
 20
244.0
 10
184.0
 20
243.65744433968547
 10
185.0
 20
243.4098262641247
 10
186.0
 20
243.31444253872507
 10
187.0
 20
243.3667576935718
 10
188.0
 20
243.57633810266495
 10
188.98965779225747
 20
244.0
 10
189.0
 20
244.00521297796328
 10
190.0
 20
244.6864180320663
 10
190.33520886429585
 20
245.0
 10
191.0
 20
245.7905802792629
 10
191.1532297398138
 20
246.0
 10
191.66660912622186
 20
247.0
 10
192.0
 20
247.92121865834582
 10
192.0293517855204
 20
248.0
 10
192.2582246358927
 20
249.0
 10
192.36509317360589
 20
250.0
 10
192.38991246895586
 20
251.0
 10
192.35459681647478
 20
252.00000000000003
 10
192.27585227022792
 20
253.0
 10
192.1691022092399
 20
254.0
 10
192.05167638800967
 20
255.0
  0
LWPOLYLINE
  5
3F
330
17
100
AcDbEntity
  8
0
100
AcDbPolyline
 90
514
 70
0
 10
206.80162386378402
 20
255.0
 10
207.0
 20
254.58142298241393
 10
207.27713004585502
 20
254.0
 10
207.7669824183955
 20
253.0
 10
208.0
 20
252.61407139006124
 10
208.3833440881969
 20
252.0
 10
209.0
 20
251.13198266656917
 10
209.1054600696177
 20
251.0
 10
210.0
 20
250.00172351300918
 10
210.0017639036123
 20
250.0
 10
211.0
 20
249.15105757875196
 10
211.20481653906853
 20
249.0
 10
212.0
 20
248.48216027627274
 10
212.9446911159344
 20
248.0
 10
213.0
 20
247.97124028015094
 10
214.0
 20
247.59094327740587
 10
215.0
 20
247.34366771124544
 10
216.0
 20
247.17979327682218
 10
217.0
 20
247.09358391948453
 10
218.0
 20
247.08772291393961
 10
219.0
 20
247.15594390452083
 10
220.0
 20
247.28295277093991
 10
221.0
 20
247.45472418505778
 10
222.0
 20
247.66967875838674
 10
223.0
 20
247.9442810730853
 10
223.16990755896873
 20
248.0
 10
224.0
 20
248.25827672873547
 10
225.0
 20
248.54744542691688
 10
226.0
 20
248.84372742280965
 10
226.4926230891317
 20
249.0
 10
227.0
 20
249.16040939189313
 10
228.0
 20
249.41620759343724
 10
229.0
 20
249.62036646740447
 10
230.0
 20
249.78224959243946
 10
231.0
 20
249.89254652199193
 10
232.0
 20
249.93176701579458
 10
233.0
 20
249.8840065924817
 10
233.99999999999997
 20
249.74543939467992
 10
235.0
 20
249.51317455249523
 10
236.0
 20
249.1443330686043
 10
236.26296930831268
 20
249.0
 10
237.0
 20
248.57525684737817
 10
237.75260114662962
 20
248.0
 10
238.0
 20
247.7724946417423
 10
238.68313959545463
 20
247.0
 10
239.0
 20
246.5347389166221
 10
239.32242817077673
 20
246.0
 10
239.70470958632967
 20
245.0
 10
239.93870555629127
 20
244.0
 10
240.0
 20
243.33078845303538
 10
240.03148683958008
 20
243.0
 10
240.0
 20
242.52136531230468
 10
239.96694519174937
 20
242.00000000000003
 10
239.76451065179458
 20
241.0
 10
239.43909405915542
 20
240.0
 10
239.0
 20
239.1398733842864
 10
238.91836126437119
 20
239.0
 10
238.2200334233063
 20
238.0
 10
238.0
 20
237.75064065514334
 10
237.24421523880795
 20
237.0
 10
237.0
 20
236.7863216226771
 10
236.0
 20
236.0711687197932
 10
235.8888204178247
 20
236.0
 10
235.0
 20
235.4964518568031
 10
234.0
 20
235.0463832064447
 10
233.88706286764005
 20
235.0
 10
233.0
 20
234.66677704831523
 10
232.00000000000003
 20
234.3957651460129
 10
231.0
 20
234.17270305228828
 10
230.12380411292074
 20
234.0
 10
230.0
 20
233.97437207781618
 10
229.0
 20
233.8201656891565
 10
228.0
 20
233.7106546026008
 10
227.0
 20
233.6299811395658
 10
226.0
 20
233.56714550044188
 10
225.0
 20
233.51344862876118
 10
224.0
 20
233.46116494201027
 10
223.0
 20
233.40279174160872
 10
222.0
 20
233.33040573295995
 10
221.0
 20
233.23470647356328
 10
220.0
 20
233.10326890290395
 10
219.42657442941788
 20
233.0
 10
219.0
 20
232.92278534727762
 10
218.0
 20
232.71706557752174
 10
217.0
 20
232.4827690962739
 10
216.0
 20
232.18612453616836
 10
215.5323502625383
 20
232.0
 10
215.0
 20
231.78490908403947
 10
214.0
 20
231.3495185423063
 10
213.37192706527446
 20
231.0
 10
213.0
 20
230.77852225594734
 10
212.0
 20
230.12565781618508
 10
211.84042451772217
 20
230.0
 10
211.0
 20
229.30022418404576
 10
210.68484913899636
 20
229.0
 10
209.99999999999997
 20
228.2698093919111
 10
209.76830065691922
 20
228.0
 10
209.0475634562321
 20
227.0
 10
209.0
 20
226.9278879335733
 10
208.45922103795704
 20
226.0
 10
208.00000000000003
 20
225.03065371731424
 10
207.9848882421851
 20
225.0
 10
207.60942315673918
 20
224.0
 10
207.34876627328217
 20
223.0
 10
207.15309523492527
 20
222.0
 10
207.01593349890064
 20
221.0
 10
207.0
 20
220.7649965355762
 10
206.94781186528454
 20
220.0
 10
206.9540470104351
 20
219.0
 10
207.0
 20
218.40689357629134
 10
207.03112242772642
 20
218.0
 10
207.1659830705634
 20
217.0
 10
207.34425591797978
 20
216.0
 10
207.56429761595888
 20
215.0
 10
207.84802175794178
 20
214.0
 10
208.0
 20
213.58712855608914
 10
208.21516479354025
 20
213.0
 10
208.58652212187417
 20
212.0
 10
209.0
 20
211.06469612599267
 10
209.03128971948172
 20
211.0
 10
209.50469133693917
 20
210.0
 10
210.0
 20
209.03484672184382
 10
210.01954547903824
 20
209.0
 10
210.55666195342732
 20
208.0
 10
211.0
 20
207.22183307801004
 10
211.13294497141595
 20
207.0
 10
211.69207176539254
 20
206.0
 10
212.0
 20
205.48651872551488
 10
212.2921930678492
 20
205.0
 10
212.84913790231224
 20
204.0
 10
213.0
 20
203.74687499053158
 10
213.42474857606496
 20
203.0
 10
213.95621219647904
 20
202.0
 10
214.0
 20
201.9213209454386
 10
214.47210982550817
 20
201.0
 10
214.9407047626276
 20
200.0
 10
215.0
 20
199.8770052040637
 10
215.39029351783927
 20
199.0
 10
215.76542781300515
 20
198.0
 10
216.0
 20
197.374600235145
 10
216.14193708950916
 20
197.0
 10
216.44199877599385
 20
196.0
 10
216.68652487499497
 20
195.0
 10
216.90601945909214
 20
194.0
 10
217.0
 20
193.51612564685183
 10
217.10025442296154
 20
193.0
 10
217.23492827780245
 20
192.0
 10
217.31785249574102
 20
191.0
 10
217.3565140172807
 20
190.0
 10
217.35391988617246
 20
189.0
 10
217.3104204359665
 20
188.0
 10
217.2236904447647
 20
187.0
 10
217.08701403434247
 20
186.0
 10
217.0
 20
185.5473990822796
 10
216.89562512459696
 20
185.0
 10
216.6837475172189
 20
184.0
 10
216.45051361383958
 20
183.0
 10
216.16950117908945
 20
182.0
 10
216.0
 20
181.52160923830667
 10
215.81426010025464
 20
181.0
 10
215.4621922487172
 20
180.0
 10
215.05935043818158
 20
179.0
 10
215.0
 20
178.8755619150702
 10
214.6032764986087
 20
178.0
 10
214.13895177176235
 20
177.0
 10
214.0
 20
176.74445388323778
 10
213.605122625077
 20
176.0
 10
213.06266596942405
 20
175.0
 10
213.0
 20
174.89851125395066
 10
212.46805879506996
 20
174.0
 10
212.0
 20
173.25678084517304
 10
211.82971010688127
 20
173.0
 10
211.1827723281646
 20
172.0
 10
211.0
 20
171.74527695391924
 10
210.469692360174
 20
171.0
 10
209.99999999999997
 20
170.37086538315373
 10
209.7131951991841
 20
170.0
 10
209.0
 20
169.09197518866995
 10
208.92349656961534
 20
169.0
 10
208.08834881873165
 20
168.0
 10
208.0
 20
167.900942463619
 10
207.18509783298524
 20
167.0
 10
207.0
 20
166.80534767819663
 10
206.2089788397131
 20
166.0
 10
206.0
 20
165.79537407544743
 10
205.14617238735187
 20
165.0
 10
205.0
 20
164.86739140028925
 10
204.0
 20
164.0257736644185
 10
203.96877378969626
 20
164.0
 10
203.0
 20
163.25980105932308
 10
202.64682250774035
 20
163.0
 10
202.0
 20
162.5485749483621
 10
201.13252489673448
 20
162.0
 10
201.0
 20
161.91456591208086
 10
200.0
 20
161.36869973090376
 10
199.27651115538828
 20
161.0
 10
199.0
 20
160.8572711335242
 10
198.0
 20
160.4433060672773
 10
197.0
 20
160.0835641608805
 10
196.75272785660925
 20
160.0
 10
196.0
 20
159.75819025859784
 10
195.0
 20
159.5290659075383
 10
194.0
 20
159.36404583215
 10
192.99999999999997
 20
159.252436173722
 10
192.0
 20
159.1975709498555
 10
191.0
 20
159.20549546895134
 10
190.0
 20
159.27812912448684
 10
189.0
 20
159.41435271351418
 10
188.0
 20
159.62087016246687
 10
187.0
 20
159.93285532851178
 10
186.844464241038
 20
160.0
 10
186.0
 20
160.35451930106763
 10
185.0
 20
160.85875477190118
 10
184.7843107358603
 20
161.0
 10
184.0
 20
161.53318275797102
 10
183.4279184406078
 20
162.0
 10
183.0
 20
162.3917839000686
 10
182.42020557914287
 20
163.0
 10
182.0
 20
163.51255908957265
 10
181.63776272049716
 20
164.0
 10
181.0520264169675
 20
165.0
 10
181.0
 20
165.10079713417878
 10
180.58677575708745
 20
166.0
 10
180.27132172048135
 20
167.0
 10
180.0354286904843
 20
168.0
 10
180.0
 20
168.23614810040962
 10
179.88653563881059
 20
169.0
 10
179.84472759343802
 20
170.0
 10
179.90213864546365
 20
171.0
 10
180.0
 20
171.59655428341927
 10
180.06595746299104
 20
172.0
 10
180.3098390187053
 20
173.0
 10
180.6329758084326
 20
174.0
 10
181.0
 20
174.79075575304182
 10
181.10660851298607
 20
175.0
 10
181.67484468064
 20
176.0
 10
182.0
 20
176.45555172681475
 10
182.41768498574658
 20
177.0
 10
183.0
 20
177.66602192098654
 10
183.32263802983044
 20
178.0
 10
184.0
 20
178.6347725896769
 10
184.42907960811215
 20
179.0
 10
185.0
 20
179.45169078345958
 10
185.77382131100978
 20
180.0
 10
186.0
 20
180.15822994371922
 10
187.0
 20
180.75930803739624
 10
187.40282594266677
 20
181.0
 10
188.0
 20
181.3443165533651
 10
189.0
 20
181.85851387761178
 10
189.2579298072098
 20
182.0
 10
190.0
 20
182.3896756321359
 10
191.0
 20
182.88879321205044
 10
191.1988773827266
 20
183.0
 10
192.0
 20
183.43129562850137
 10
193.0
 20
183.98805426655954
 10
193.01879995395262
 20
184.0
 10
194.0
 20
184.6001131605296
 10
194.5814233364381
 20
185.0
 10
195.0
 20
185.3044149667351
 10
195.88463063275145
 20
186.0
 10
196.0
 20
186.0999727282031
 10
196.95204678755022
 20
187.0
 10
197.0
 20
187.05018610741553
 10
197.81075520043487
 20
188.0
 10
198.0
 20
188.24745538920195
 10
198.51799529897664
 20
189.0
 10
199.0
 20
189.84396298439253
 10
199.08902134004603
 20
190.0
 10
199.52075060457094
 20
191.0
 10
199.8441950270719
 20
192.0
 10
200.0
 20
192.59246765476456
 10
200.10798311114908
 20
192.99999999999997
 10
200.26682057101505
 20
194.0
 10
200.33617251834798
 20
195.0
 10
200.32934244968578
 20
196.0
 10
200.24830320407182
 20
197.0
 10
200.0843028129976
 20
198.0
 10
200.0
 20
198.33124487405854
 10
199.83356879676165
 20
199.0
 10
199.54411766368753
 20
200.0
 10
199.18743516407034
 20
201.0
 10
199.0
 20
201.40300725399766
 10
198.7200231566097
 20
202.0
 10
198.22630800200446
 20
203.0
 10
198.0
 20
203.3779472624556
 10
197.62246577110466
 20
204.0
 10
197.0
 20
204.96095426537863
 10
196.97229212429508
 20
205.0
 10
196.2618820883198
 20
206.0
 10
196.0
 20
206.3353466461636
 10
195.47354980395477
 20
207.0
 10
195.0
 20
207.5709751464987
 10
194.63342985022643
 20
208.0
 10
194.0
 20
208.72579952651859
 10
193.75322063482042
 20
209.0
 10
193.0
 20
209.8298554184989
 10
192.84160540470032
 20
210.0
 10
192.0
 20
210.90304741732092
 10
191.9079701656246
 20
211.0
 10
191.0
 20
211.96091815500074
 10
190.96261111740108
 20
212.0
 10
190.0158250322057
 20
213.0
 10
190.00000000000003
 20
213.01658546682663
 10
189.07549867068414
 20
214.0
 10
189.0
 20
214.07999129158577
 10
188.14807776797275
 20
215.00000000000003
 10
188.0
 20
215.15973993230307
 10
187.23817794988702
 20
216.0
 10
187.0
 20
216.26330292174754
 10
186.34854774151307
 20
217.0
 10
186.0
 20
217.39728567929097
 10
185.48111198683398
 20
218.0
 10
185.0
 20
218.56887290672046
 10
184.63862514319493
 20
219.0
 10
184.0
 20
219.78825347019017
 10
183.82692672612058
 20
220.0
 10
183.05649552753758
 20
221.0
 10
183.0
 20
221.07151495863081
 10
182.3043458819866
 20
222.00000000000003
 10
182.0
 20
222.40458779473397
 10
181.56196673709871
 20
223.0
 10
181.0
 20
223.79012639497142
 10
180.84743016534935
 20
224.0
 10
180.1770439838583
 20
225.0
 10
179.99999999999997
 20
225.2534215763582
 10
179.4987064784325
 20
226.0
 10
179.0
 20
226.75678174138153
 10
178.8354233027265
 20
227.0
 10
178.21315974137968
 20
228.0
 10
178.0
 20
228.32402101849442
 10
177.56757960958458
 20
229.0
 10
177.0
 20
229.90760415378355
 10
176.93902311535734
 20
230.0
 10
176.32593574135564
 20
231.0
 10
176.0
 20
231.50499959997006
 10
175.6794687672159
 20
232.0
 10
175.05297931672638
 20
233.0
 10
175.0
 20
233.0777349319441
 10
174.40014224262643
 20
234.0
 10
174.0
 20
234.58727672716768
 10
173.71252668743176
 20
235.0
 10
173.02222218694973
 20
236.00000000000003
 10
173.0
 20
236.02957005849842
 10
172.29298634416608
 20
237.0
 10
172.0
 20
237.3756724868161
 10
171.5078329574684
 20
238.0
 10
171.0
 20
238.61823519857802
 10
170.6751992161963
 20
239.0
 10
170.0
 20
239.7694241494438
 10
169.78858834285506
 20
240.0
 10
169.0
 20
240.83167240157263
 10
168.83354557105156
 20
241.0
 10
168.0
 20
241.80780675627565
 10
167.79427181243133
 20
242.0
 10
167.0
 20
242.70576528595802
 10
166.65646978919068
 20
243.0
 10
166.0
 20
243.5363778787646
 10
165.40173135251212
 20
243.99999999999997
 10
165.0
 20
244.30407935411205
 10
164.0
 20
244.9905046078183
 10
163.98621034811833
 20
245.0
 10
163.0
 20
245.6188739838317
 10
162.36021910297427
 20
246.0
 10
162.0
 20
246.21372339186047
 10
161.0
 20
246.71439135441216
 10
160.42020624503687
 20
247.0
 10
160.0
 20
247.2056971481931
 10
159.0
 20
247.60181394038858
 10
158.0
 20
247.9661834245377
 10
157.90308198362433
 20
248.0
 10
157.0
 20
248.29193123483856
 10
156.0
 20
248.52950799878505
 10
155.0
 20
248.71331890673682
 10
154.0
 20
248.8510369893968
 10
153.0
 20
248.9336791003453
 10
152.0
 20
248.94801375771416
 10
151.0
 20
248.8871955804514
 10
150.0
 20
248.7539706719316
 10
149.0
 20
248.55129404259776
 10
148.0
 20
248.25871929975284
 10
147.40151040864527
 20
248.0
 10
147.0
 20
247.8161762451105
 10
146.0
 20
247.28865794106562
 10
145.58052057752894
 20
247.0
 10
145.0
 20
246.56871666489076
 10
144.34673417737866
 20
246.0
 10
144.0
 20
245.65999849766487
 10
143.40213607614757
 20
245.0
 10
143.0
 20
244.49793180587739
 10
142.6300410378303
 20
244.0
 10
142.0
 20
243.01288549932428
 10
141.99161104766625
 20
243.0
 10
141.43038349841606
 20
242.0
 10
141.0
 20
241.19848180595764
 10
140.88928444060616
 20
241.0
 10
140.38085748296157
 20
240.0
 10
140.0
 20
239.322654799524
 10
139.8085770641986
 20
238.99999999999997
 10
139.19561600543872
 20
238.0
 10
139.0
 20
237.73681602027816
 10
138.41166965885432
 20
237.0
 10
138.0
 20
236.56372564266704
 10
137.36549367328647
 20
236.0
 10
137.0
 20
235.71426420115762
 10
136.0
 20
235.15321679913663
 10
135.6292484189034
 20
235.0
 10
135.0
 20
234.75775983791868
 10
134.0
 20
234.57052564586513
 10
133.0
 20
234.5403650693661
 10
132.0
 20
234.6565460637934
 10
131.0
 20
234.94445253775908
 10
130.88033001879867
 20
235.0
 10
130.0
 20
235.40263069933224
 10
129.03203705966013
 20
236.0
 10
129.0
 20
236.02292871100897
 10
128.0
 20
236.82850242962047
 10
127.81605081452237
 20
237.0
 10
127.0
 20
237.8134795112621
 10
126.82303869615396
 20
238.0
 10
126.0
 20
238.9074927762928
 10
125.91575950437125
 20
239.0
 10
125.00908475756569
 20
240.0
 10
125.00000000000001
 20
240.0095769344939
 10
124.01447759684676
 20
241.0
 10
124.0
 20
241.0137383535172
 10
123.0
 20
241.8632664006346
 10
122.82328238512115
 20
242.0
 10
122.0
 20
242.57024142139855
 10
121.2560569252247
 20
243.0
 10
121.0
 20
243.14506962086995
 10
120.0
 20
243.55972761879207
 10
119.0
 20
243.86385290760575
 10
118.40568928573344
 20
244.0
 10
118.00000000000001
 20
244.09402333425453
 10
117.0
 20
244.21395540273676
 10
116.0
 20
244.23846578213724
 10
115.0
 20
244.17739007919783
 10
114.00000000000001
 20
244.02613246793973
 10
113.89121846589444
 20
244.0
 10
113.0
 20
243.797561186221
 10
112.0
 20
243.52844127231282
 10
111.0
 20
243.19548805211497
 10
110.54631056380522
 20
243.0
 10
110.0
 20
242.76265518759055
 10
109.0
 20
242.32314230217654
 10
108.37934700136306
 20
242.0
 10
108.0
 20
241.79518167664176
 10
107.0
 20
241.27248479948847
 10
106.53750645777382
 20
241.0
 10
106.0
 20
240.68219624465814
 10
105.0
 20
240.11111011285684
 10
104.82273007338979
 20
240.0
 10
104.0
 20
239.5079480423264
 10
103.14557135801871
 20
239.0
 10
103.0
 20
238.9091329650983
 10
102.0
 20
238.34331199264543
 10
101.40836902824834
 20
238.0
 10
101.0
 20
237.76197831065414
 10
100.0
 20
237.24646649232687
 10
99.53915552146682
 20
237.0
 10
99.0
 20
236.71734719422432
 10
97.99999999999999
 20
236.2670626894858
 10
97.4177353667471
 20
236.0
 10
97.0
 20
235.80821632610736
 10
96.0
 20
235.4310411709866
 10
95.0
 20
235.0832243073413
 10
94.75723693800498
 20
234.99999999999997
 10
94.0
 20
234.753260912993
 10
93.0
 20
234.5056449612842
 10
92.0
 20
234.30658408800662
 10
91.00000000000001
 20
234.14192515083977
 10
90.0
 20
234.0151397795565
 10
89.79850736627814
 20
234.00000000000003
 10
89.0
 20
233.94003637790098
 10
88.0
 20
233.926569440853
 10
87.0
 20
233.97604988355909
 10
86.79550214520148
 20
234.0
 10
86.0
 20
234.0898923400692
 10
85.0
 20
234.25532651709787
 10
84.0
 20
234.46913677243947
 10
83.0
 20
234.75204023779338
 10
82.37316846323708
 20
235.0
 10
82.0
 20
235.15458305023242
 10
81.0
 20
235.60500374814174
 10
80.31050171120356
 20
236.0
 10
80.0
 20
236.1930919444957
 10
79.0
 20
236.87476871228094
 10
78.8465607365226
 20
237.0
 10
78.0
 20
237.7376935939373
 10
77.7346432692719
 20
238.0
 10
77.0
 20
238.8220567039573
 10
76.85229686603957
 20
239.0
 10
76.16564648797768
 20
240.0
 10
76.0
 20
240.26869870628008
 10
75.58945856015245
 20
241.0
 10
75.16616890413738
 20
242.0
 10
75.0
 20
242.45486823238826
 10
74.80623469859272
 20
243.0
 10
74.57561240782434
 20
244.0
 10
74.44083186721386
 20
245.0
 10
74.3860998481933
 20
246.0
 10
74.40919996694109
 20
247.0
 10
74.51034502192701
 20
248.0
 10
74.69677723124256
 20
249.0
 10
75.0
 20
249.99482673813222
 10
75.00173012411695
 20
250.00000000000003
 10
75.39604089449
 20
251.0
 10
75.87851653529347
 20
252.0
 10
76.0
 20
252.19480703402053
 10
76.51002260229744
 20
253.0
 10
77.0
 20
253.65386112629488
 10
77.28509420820285
 20
254.0
 10
78.0
 20
254.77563941243986
 10
78.22969074620498
 20
255.0
  0
LWPOLYLINE
  5
40
330
17
100
AcDbEntity
  8
0
100
AcDbPolyline
 90
99
 70
0
 10
101.00000000000001
 20
7.8505123434064865
 10
100.46587701316201
 20
8.0
 10
100.0
 20
8.130876382006072
 10
99.0
 20
8.442738051605438
 10
98.0
 20
8.82455191452349
 10
97.65328741182759
 20
9.0
 10
97.0
 20
9.333546161684298
 10
96.0
 20
9.91922363664649
 10
95.88869377405528
 20
10.0
 10
95.0
 20
10.670817909357933
 10
94.63195552371567
 20
11.0
 10
94.0
 20
11.638632368671905
 10
93.68288669133523
 20
12.0
 10
93.0
 20
12.956460649936876
 10
92.97001170690707
 20
13.0
 10
92.44388664846967
 20
14.0
 10
92.06512156078904
 20
15.0
 10
92.0
 20
15.2288959716618
 10
91.79113122720062
 20
16.0
 10
91.66138645940305
 20
17.0
 10
91.64679631280455
 20
18.0
 10
91.74420158216893
 20
19.0
 10
91.97634124742915
 20
20.0
 10
92.0
 20
20.06359657492755
 10
92.33250922051502
 20
21.0
 10
92.80057710374521
 20
22.0
 10
93.0
 20
22.309258467145888
 10
93.47322924830587
 20
23.0
 10
94.0
 20
23.63157441741243
 10
94.3495293601072
 20
24.0
 10
95.0
 20
24.598020921441204
 10
95.50655988706727
 20
25.0
 10
96.0
 20
25.358537115419495
 10
97.0
 20
25.945809223851104
 10
97.0999683872629
 20
26.0
 10
98.0
 20
26.43799502422931
 10
99.0
 20
26.81316454260504
 10
99.544737837115
 20
27.0
 10
100.0
 20
27.155381957566895
 10
101.0
 20
27.40294592957083
 10
102.0
 20
27.582943254009564
 10
103.00000000000001
 20
27.718606289060812
 10
104.0
 20
27.816422081311877
 10
105.0
 20
27.875486877419128
 10
105.99999999999999
 20
27.893504145391788
 10
106.99999999999999
 20
27.869977119109855
 10
108.0
 20
27.80700100717108
 10
109.0
 20
27.707980139544212
 10
110.0
 20
27.574394922041932
 10
111.0
 20
27.400569586444405
 10
112.0
 20
27.166127769747348
 10
112.51890985222177
 20
27.0
 10
113.0
 20
26.844189390062372
 10
114.0
 20
26.495499444281407
 10
115.0
 20
26.06096603531192
 10
115.11046505905338
 20
26.0
 10
116.0
 20
25.517851729266887
 10
116.79742934089035
 20
25.0
 10
117.0
 20
24.853208549602694
 10
118.0
 20
24.039166233488135
 10
118.04126753999138
 20
24.0
 10
118.9627878604899
 20
23.0
 10
119.0
 20
22.953539614327607
 10
119.65710306172772
 20
22.0
 10
120.0
 20
21.380020900502494
 10
120.2009756900714
 20
21.0
 10
120.55796414585238
 20
20.0
 10
120.78646548823369
 20
19.0
 10
120.90806808757387
 20
18.0
 10
120.91094723650616
 20
17.0
 10
120.79441009689293
 20
16.0
 10
120.57003119706233
 20
15.000000000000002
 10
120.2181915478739
 20
14.0
 10
120.0
 20
13.585546339285141
 10
119.67551114521189
 20
13.0
 10
119.0
 20
12.023235603393076
 10
118.98122458051274
 20
12.0
 10
118.04644330408598
 20
11.0
 10
118.0
 20
10.956614084313756
 10
117.0
 20
10.163265750449721
 10
116.76717946687768
 20
10.0
 10
116.0
 20
9.517480887716392
 10
114.99999999999999
 20
9.00554982827826
 10
114.98826846868796
 20
9.0
 10
114.0
 20
8.58331057184263
 10
113.0
 20
8.26547602412842
 10
112.07241167152635
 20
8.0
 10
112.0
 20
7.97798178476655
 10
111.0
 20
7.748152097564174
 10
110.0
 20
7.588245974999527
 10
109.0
 20
7.475129747475357
 10
108.0
 20
7.398650195970334
 10
107.0
 20
7.355331281984725
 10
106.0
 20
7.344622537188681
 10
105.0
 20
7.366958035728823
 10
104.0
 20
7.423305965050879
 10
103.0
 20
7.5162311257153265
 10
102.0
 20
7.652858481126568
 10
101.0
 20
7.850512343406486
  0
LWPOLYLINE
  5
41
330
17
100
AcDbEntity
  8
0
100
AcDbPolyline
 90
615
 70
0
 10
123.0
 20
71.87534219015204
 10
122.60698535159138
 20
72.0
 10
122.0
 20
72.19175434631087
 10
121.0
 20
72.55912931862478
 10
120.10577882255636
 20
73.0
 10
120.0
 20
73.05838839002756
 10
119.0
 20
73.66405788220433
 10
118.55068219362815
 20
74.0
 10
118.0
 20
74.44673003454477
 10
117.40415145465553
 20
75.0
 10
117.0
 20
75.42113453076016
 10
116.50104900038002
 20
76.0
 10
116.0
 20
76.67132188120254
 10
115.7680000751391
 20
77.0
 10
115.20255807572957
 20
78.0
 10
115.0
 20
78.39185981954635
 10
114.70347957572059
 20
79.0
 10
114.3390553811175
 20
80.0
 10
114.0240036552578
 20
81.0
 10
114.0
 20
81.08696705113476
 10
113.7643891282224
 20
82.0
 10
113.59028412340251
 20
83.0
 10
113.47267938211778
 20
84.0
 10
113.39834280261374
 20
85.0
 10
113.36112852347036
 20
86.0
 10
113.35679825648164
 20
87.0
 10
113.3808914225024
 20
88.0
 10
113.42854260914794
 20
89.0
 10
113.49515792758656
 20
90.0
 10
113.57710976537885
 20
91.0
 10
113.6719697161445
 20
92.0
 10
113.77813266731056
 20
93.0
 10
113.89393931238766
 20
94.0
 10
113.99999999999999
 20
94.86955730257782
 10
114.01645985954765
 20
95.0
 10
114.12876043972955
 20
96.00000000000001
 10
114.22075520027781
 20
97.0
 10
114.29190818780432
 20
98.0
 10
114.34144501946977
 20
99.0
 10
114.3680929126924
 20
100.0
 10
114.37008220622394
 20
101.0
 10
114.34516330637706
 20
101.99999999999999
 10
114.29032413806854
 20
103.0
 10
114.20092771303305
 20
104.0
 10
114.06909564342467
 20
105.00000000000001
 10
114.0
 20
105.38499602869686
 10
113.89152300065521
 20
106.0
 10
113.69656065535604
 20
107.0
 10
113.48217264557465
 20
108.0
 10
113.22743981396543
 20
108.99999999999999
 10
113.0
 20
109.69892076367077
 10
112.89808000510953
 20
110.0
 10
112.5600762107079
 20
111.0
 10
112.19469454645852
 20
112.0
 10
112.0
 20
112.43813215000293
 10
111.74989906901013
 20
113.0
 10
111.31392921762927
 20
114.0
 10
111.0
 20
114.61671502616673
 10
110.79808652208689
 20
115.0
 10
110.28927413846841
 20
116.0
 10
110.0
 20
116.49995462984387
 10
109.70638870832666
 20
117.0
 10
109.1303249096151
 20
118.0
 10
109.0
 20
118.20165364757754
 10
108.49860977805855
 20
119.0
 10
108.0
 20
119.76709365418691
 10
107.84127532644168
 20
120.0
 10
107.18786294682435
 20
120.99999999999999
 10
107.0
 20
121.26454945911635
 10
106.48723254596376
 20
122.0
 10
106.0
 20
122.68366455170045
 10
105.7677549551527
 20
123.0
 10
105.0543652985804
 20
124.00000000000001
 10
104.99999999999999
 20
124.07118698366504
 10
104.31484795610987
 20
125.0
 10
104.0
 20
125.40950695110143
 10
103.54590598247077
 20
126.0
 10
103.0
 20
126.70250427062544
 10
102.76218233847936
 20
127.0
 10
102.0
 20
127.96336556818547
 10
101.96958187426112
 20
128.0
 10
101.15352548323658
 20
129.0
 10
101.00000000000001
 20
129.1786393157073
 10
100.29470830248206
 20
130.0
 10
100.0
 20
130.33002278332953
 10
99.3923209099349
 20
131.0
 10
99.0
 20
131.41817171039483
 10
98.43933816634541
 20
132.0
 10
98.0
 20
132.4411857676229
 10
97.4235911170519
 20
133.0
 10
97.0
 20
133.39770520561976
 10
96.32856396519902
 20
134.0
 10
96.0
 20
134.28744938776856
 10
95.13102910707154
 20
135.0
 10
95.0
 20
135.10700657800422
 10
94.0
 20
135.84998544215506
 10
93.7974085436352
 20
136.0
 10
93.0
 20
136.5553901681126
 10
92.3294281162866
 20
137.0
 10
92.0
 20
137.21828157272628
 10
91.0
 20
137.80339529417947
 10
90.6728443893377
 20
138.0
 10
90.0
 20
138.3874519537403
 10
89.0
 20
138.9116343276336
 10
88.840568524779
 20
139.0
 10
88.0
 20
139.43693900451916
 10
87.0
 20
139.92635843265336
 10
86.86127551711121
 20
140.0
 10
86.0
 20
140.4299557998042
 10
85.0
 20
140.91395741319326
 10
84.84093402493237
 20
141.0
 10
84.0
 20
141.43312634414565
 10
83.0
 20
141.95661299263557
 10
82.92714656560645
 20
142.0
 10
82.0
 20
142.52751357437035
 10
81.23833540314442
 20
143.0
 10
81.0
 20
143.157944115906
 10
80.0
 20
143.83259844216715
 10
79.78426564741258
 20
144.0
 10
79.0
 20
144.62761839094173
 10
78.58170638818521
 20
145.0
 10
78.0
 20
145.55919183939733
 10
77.58133233001342
 20
146.0
 10
77.0
 20
146.68621300847838
 10
76.75097169778716
 20
147.0
 10
76.09193919797714
 20
148.0
 10
76.0
 20
148.15164036215873
 10
75.5389145324683
 20
149.0
 10
75.12097702122023
 20
150.0
 10
75.0
 20
150.3318960346381
 10
74.76822172307955
 20
151.0
 10
74.5446334436056
 20
152.0
 10
74.41282078353075
 20
153.0
 10
74.36043144470177
 20
154.0
 10
74.38699283290156
 20
155.0
 10
74.49322321899348
 20
156.0
 10
74.6868007309241
 20
157.0
 10
75.0
 20
157.9894453148921
 10
75.00368684526408
 20
158.0
 10
75.41535141728829
 20
159.0
 10
75.92708092444947
 20
160.0
 10
76.0
 20
160.11177640796694
 10
76.58758292343863
 20
161.0
 10
77.0
 20
161.52416918464712
 10
77.40842028197073
 20
162.0
 10
78.0
 20
162.61591984550856
 10
78.40762918299859
 20
163.0
 10
79.0
 20
163.5114466141685
 10
79.63080917753304
 20
164.0
 10
80.0
 20
164.2732740368055
 10
81.0
 20
164.9065179016597
 10
81.15074298779251
 20
165.00000000000003
 10
82.0
 20
165.48409769562966
 10
83.0
 20
165.9927355710627
 10
83.01413384141753
 20
166.00000000000003
 10
84.0
 20
166.46005475472148
 10
85.00000000000001
 20
166.87646569465778
 10
85.2813920627361
 20
167.0
 10
86.0
 20
167.3018544215335
 10
87.0
 20
167.6668539520054
 10
87.85499046392093
 20
168.0
 10
88.0
 20
168.05999008819154
 10
89.0
 20
168.43173563742062
 10
90.0
 20
168.7884905834531
 10
90.52228219043232
 20
169.0
 10
91.0
 20
169.1947916271016
 10
92.0
 20
169.56846316857025
 10
93.0
 20
169.97485959650984
 10
93.05477888910606
 20
170.0
 10
94.0
 20
170.4042454416565
 10
95.0
 20
170.82469964249063
 10
95.36202098611136
 20
171.0
 10
96.0
 20
171.3038304479357
 10
97.0
 20
171.7581270823208
 10
97.46804915619677
 20
172.0
 10
98.0
 20
172.2753924471048
 10
99.0
 20
172.7659310055985
 10
99.42518811818931
 20
173.0
 10
100.0
 20
173.31442072724116
 10
101.0
 20
173.8355944024778
 10
101.28404594689343
 20
174.0
 10
102.0
 20
174.40175672254207
 10
103.0
 20
174.94821087638766
 10
103.08686678751656
 20
175.0
 10
104.0
 20
175.5107518915109
 10
104.87380746239705
 20
176.0
 10
105.0
 20
176.07471215766807
 10
106.0
 20
176.61361052858467
 10
106.69616366903314
 20
177.0
 10
107.0
 20
177.1731224620891
 10
108.0
 20
177.68352607601582
 10
108.59189523076321
 20
178.0
 10
109.0
 20
178.21995872248917
 10
110.0
 20
178.6968523253415
 10
110.6067124195095
 20
179.0
 10
111.0
 20
179.19849099900557
 10
112.0
 20
179.63797300044467
 10
112.80235899431348
 20
180.0
 10
113.0
 20
180.0932056172908
 10
114.0
 20
180.50170023092224
 10
115.0
 20
180.88733735118404
 10
115.2755053352912
 20
181.0
 10
116.0
 20
181.2830378340814
 10
117.0
 20
181.61478578915666
 10
118.0
 20
181.9484147699931
 10
118.14815076593723
 20
182.0
 10
119.0
 20
182.27847233043127
 10
120.0
 20
182.55249775267797
 10
121.0
 20
182.81541711734982
 10
121.6664340485234
 20
183.0
 10
122.0
 20
183.09453187487728
 10
123.0
 20
183.33533665835606
 10
124.0
 20
183.542392514095
 10
125.0
 20
183.73916450881853
 10
126.0
 20
183.94236679961728
 10
126.27703756056657
 20
184.0
 10
127.0
 20
184.14610093568731
 10
128.0
 20
184.31758349275725
 10
129.0
 20
184.46774783144718
 10
130.0
 20
184.60732305840423
 10
131.0
 20
184.74461427782234
 10
132.0
 20
184.88568578756792
 10
132.77674985014934
 20
185.0
 10
133.0
 20
185.0337262905597
 10
134.0
 20
185.16993295706052
 10
135.0
 20
185.28955534169575
 10
136.0
 20
185.3973784656473
 10
137.0
 20
185.497564218248
 10
138.0
 20
185.59360534889316
 10
139.0
 20
185.68822997820172
 10
140.0
 20
185.78328319643052
 10
141.0
 20
185.87959928871985
 10
142.0
 20
185.97689244904603
 10
142.24511489870528
 20
186.0
 10
143.0
 20
186.0700104058934
 10
144.0
 20
186.149413846552
 10
145.0
 20
186.2151760862576
 10
146.0
 20
186.26734541035674
 10
147.0
 20
186.30543542004202
 10
148.0
 20
186.3283491194735
 10
149.0
 20
186.33431690670295
 10
150.0
 20
186.32080034764726
 10
151.0
 20
186.28424930870355
 10
152.0
 20
186.21951352322566
 10
153.0
 20
186.11859383231928
 10
153.79835918066178
 20
186.0
 10
154.00000000000003
 20
185.96930965014548
 10
155.0
 20
185.78597851941737
 10
156.0
 20
185.57564845689535
 10
157.0
 20
185.31784921068117
 10
157.8959997812961
 20
185.0
 10
158.0
 20
184.95979465167713
 10
159.0
 20
184.54128236633352
 10
160.0
 20
184.03124618193056
 10
160.0490572523794
 20
184.0
 10
161.0
 20
183.3933001508871
 10
161.51036188519447
 20
183.0
 10
162.0
 20
182.58432894266303
 10
162.60021771234832
 20
182.0
 10
163.0
 20
181.5538294345945
 10
163.44363001226804
 20
181.0
 10
164.0
 20
180.15062557759674
 10
164.0959747992335
 20
180.0
 10
164.5766540374658
 20
179.0
 10
164.9404726960776
 20
178.0
 10
165.00000000000003
 20
177.7939049586421
 10
165.2174056326639
 20
177.0
 10
165.36784472675953
 20
176.0
 10
165.4225478891955
 20
175.0
 10
165.3914708793495
 20
174.0
 10
165.27283322208888
 20
173.0
 10
165.0485572774018
 20
172.0
 10
165.0
 20
171.85494864428824
 10
164.7263632872299
 20
171.0
 10
164.34766722394102
 20
170.0
 10
164.0
 20
169.31417708671063
 10
163.82901175839393
 20
169.0
 10
163.24651778585823
 20
168.0
 10
163.0
 20
167.64941654510943
 10
162.52815363386406
 20
167.0
 10
162.0
 20
166.33740401353663
 10
161.71408466109324
 20
166.0
 10
161.0
 20
165.1974992338981
 10
160.81508565949642
 20
165.00000000000003
 10
160.0
 20
164.15396245890423
 10
159.84757678527407
 20
164.0
 10
159.0
 20
163.1540330493193
 10
158.84514801701874
 20
163.0
 10
158.0
 20
162.1518657885663
 10
157.85089040492883
 20
162.0
 10
156.99999999999997
 20
161.1009160527432
 10
156.90663975134996
 20
161.0
 10
156.04936464946195
 20
160.0
 10
156.0
 20
159.94035496371177
 10
155.28727838277533
 20
159.0
 10
155.0
 20
158.59191621285305
 10
154.60815336632032
 20
158.0
 10
154.0545589990399
 20
157.0
 10
154.0
 20
156.89548309070915
 10
153.57825150591805
 20
156.0
 10
153.220160033505
 20
155.0
 10
153.0
 20
154.30117611869912
 10
152.9033160756143
 20
154.0
 10
152.68036125513828
 20
153.0
 10
152.5395141400116
 20
152.0
 10
152.458654393806
 20
151.0
 10
152.42760783279863
 20
150.0
 10
152.43926276996504
 20
149.0
 10
152.48623209541228
 20
148.0
 10
152.56089919767373
 20
147.0
 10
152.65632386747853
 20
146.0
 10
152.7662030993169
 20
145.0
 10
152.88337116849686
 20
144.0
 10
152.99754207603482
 20
143.0
 10
153.0
 20
142.9736445138962
 10
153.08896790295822
 20
142.0
 10
153.14024017877907
 20
141.0
 10
153.14424405840646
 20
140.0
 10
153.09043330442617
 20
139.0
 10
153.0
 20
138.29116608743772
 10
152.96266692070037
 20
138.0
 10
152.76905860745387
 20
137.0
 10
152.51206174215469
 20
136.0
 10
152.1492833931212
 20
135.0
 10
152.0
 20
134.7080127323556
 10
151.63052369844553
 20
134.0
 10
151.0
 20
133.03002456774317
 10
150.97726915501644
 20
132.99999999999997
 10
150.1008640620425
 20
132.0
 10
150.0
 20
131.902293663099
 10
149.0
 20
131.09546132744694
 10
148.8621687310572
 20
131.0
 10
148.0
 20
130.48068472578592
 10
147.0
 20
130.02848583836206
 10
146.92402312219406
 20
130.0
 10
146.0
 20
129.68620889625095
 10
145.0
 20
129.48298073258155
 10
144.0
 20
129.37321513061718
 10
143.0
 20
129.34515248141514
 10
142.0
 20
129.39506819101672
 10
141.0
 20
129.51991679571495
 10
140.0
 20
129.72612582725606
 10
139.1369006223191
 20
130.0
 10
139.0
 20
130.0467807536688
 10
138.0
 20
130.4319930761137
 10
137.0
 20
130.89456536323942
 10
136.81958036069778
 20
131.0
 10
136.0
 20
131.4758332196401
 10
135.21268465015757
 20
132.0
 10
135.0
 20
132.15471815667237
 10
134.0
 20
132.92499882488548
 10
133.91382934455075
 20
133.0
 10
133.0
 20
133.8299757610331
 10
132.82734777858084
 20
134.0
 10
132.0
 20
134.87294402594028
 10
131.88489165703643
 20
135.0
 10
131.05898146354687
 20
136.0
 10
131.0
 20
136.07338718383753
 10
130.31101180675506
 20
137.0
 10
130.0
 20
137.43512194089396
 10
129.611015350183
 20
138.0
 10
129.0
 20
138.97052901912525
 10
128.98065861431854
 20
139.0
 10
128.39788026345357
 20
140.0
 10
128.0
 20
140.69757699348213
 10
127.82442436311463
 20
141.0
 10
127.31290564766303
 20
142.0
 10
127.0
 20
142.58688884170456
 10
126.7779364824492
 20
143.0
 10
126.295711854272
 20
144.0
 10
126.0
 20
144.5680061774774
 10
125.77244798199946
 20
145.0
 10
125.28673319317956
 20
146.0
 10
125.0
 20
146.53076779241024
 10
124.74310223174741
 20
147.0
 10
124.216759679355
 20
148.0
 10
124.0
 20
148.3599675018158
 10
123.61475385856306
 20
149.0
 10
123.0
 20
149.97417890477072
 10
122.98211581917718
 20
150.0
 10
122.2805403532954
 20
151.0
 10
122.00000000000001
 20
151.35359963394347
 10
121.46198048307332
 20
152.0
 10
121.0
 20
152.50410965372228
 10
120.50522557334303
 20
153.0
 10
120.0
 20
153.46319227719405
 10
119.33927215178511
 20
154.0
 10
119.00000000000001
 20
154.25890881167265
 10
118.0
 20
154.88347499594082
 10
117.79559807856286
 20
155.0
 10
117.0
 20
155.410921698925
 10
116.0
 20
155.79172400064616
 10
115.34334771539258
 20
156.0
 10
114.99999999999999
 20
156.11024685174922
 10
114.0
 20
156.31136950544487
 10
113.0
 20
156.40711912730774
 10
112.0
 20
156.41113641274546
 10
111.0
 20
156.32087786505858
 10
110.0
 20
156.11632806151187
 10
109.65983440403079
 20
156.0
 10
109.0
 20
155.7752563586106
 10
108.0
 20
155.3414114090807
 10
107.4438469494843
 20
155.0
 10
107.0
 20
154.69892311586688
 10
106.15687776290582
 20
154.0
 10
106.0
 20
153.84680117564736
 10
105.26616320687052
 20
153.0
 10
105.0
 20
152.6283828525452
 10
104.59935216444296
 20
152.0
 10
104.13848282955138
 20
151.0
 10
104.0
 20
150.63006106280415
 10
103.77592708845594
 20
150.0
 10
103.56404305863794
 20
149.0
 10
103.45816839911598
 20
148.0
 10
103.44055725316738
 20
147.0
 10
103.50575662075113
 20
146.0
 10
103.65427246681523
 20
145.0
 10
103.90371485340634
 20
143.99999999999997
 10
104.00000000000001
 20
143.7331313122398
 10
104.25833546949866
 20
143.0
 10
104.65731150021456
 20
142.0
 10
105.0
 20
141.33864901187485
 10
105.18686770422815
 20
141.0
 10
105.76633999374266
 20
140.0
 10
106.0
 20
139.66178728060837
 10
106.46772745586682
 20
139.0
 10
107.0
 20
138.30714731608657
 10
107.2504872259484
 20
138.0
 10
108.0
 20
137.11825400359908
 10
108.10665717689267
 20
137.0
 10
109.0
 20
136.03752958015164
 10
109.0363741915659
 20
136.0
 10
110.0
 20
135.03175960778418
 10
110.03239443293977
 20
135.0
 10
111.0
 20
134.07542785138162
 10
111.07967212036758
 20
134.0
 10
112.0
 20
133.14833985258767
 10
112.1601750349256
 20
133.0
 10
113.0
 20
132.23558882008527
 10
113.25731090304154
 20
132.0
 10
114.0
 20
131.3269579986836
 10
114.35811091324774
 20
131.0
 10
115.0
 20
130.41574215601597
 10
115.45354766454912
 20
130.0
 10
116.0
 20
129.49756227670161
 10
116.53799165292891
 20
129.0
 10
117.0
 20
128.56957085648287
 10
117.60855233236316
 20
128.0
 10
118.0
 20
127.63013743541218
 10
118.66459924074047
 20
127.0
 10
119.0
 20
126.67888954077796
 10
119.70746481650724
 20
126.0
 10
120.0
 20
125.71690565139899
 10
120.74024719628062
 20
125.0
 10
121.0
 20
124.7468838685962
 10
121.7676741049456
 20
124.0
 10
122.0
 20
123.77318997193493
 10
122.7960646280426
 20
123.0
 10
123.0
 20
122.80177463952126
 10
123.83349135960326
 20
122.0
 10
123.99999999999999
 20
121.84002192435527
 10
124.8903201554891
 20
121.0
 10
125.0
 20
120.89667143664958
 10
125.98047303196287
 20
120.0
 10
126.00000000000001
 20
119.98211334947749
 10
127.0
 20
119.10545459799172
 10
127.12076422278449
 20
119.0
 10
128.0
 20
118.26658184271541
 10
128.32521571984253
 20
118.0
 10
129.0
 20
117.46886197533985
 10
129.62466357177124
 20
117.00000000000001
 10
130.0
 20
116.72248793855047
 10
131.0
 20
116.05957405155186
 10
131.08977545122193
 20
116.0
 10
132.0
 20
115.44625203659481
 10
132.80193433295892
 20
115.0
 10
133.0
 20
114.88746381080173
 10
134.0
 20
114.42114458946509
 10
135.0
 20
114.0036894138971
 10
135.00935272173146
 20
114.0
 10
136.0
 20
113.64572823018395
 10
137.0
 20
113.3837810991582
 10
138.0
 20
113.17448048680362
 10
139.0
 20
113.01067337134332
 10
139.1035072942949
 20
113.0
 10
140.0
 20
112.90867558500236
 10
141.0
 20
112.879139947149
 10
142.0
 20
112.91751212254843
 10
142.75529326217685
 20
113.0
 10
143.0
 20
113.02683854311526
 10
144.0
 20
113.19200587739093
 10
145.0
 20
113.39728930929769
 10
146.0
 20
113.64821474033826
 10
147.0
 20
113.97970368319267
 10
147.04977409023212
 20
113.99999999999999
 10
148.0
 20
114.36258619558149
 10
149.0
 20
114.75660407723515
 10
149.51709768243137
 20
115.0
 10
150.0
 20
115.23034803418825
 10
151.0
 20
115.68224181075752
 10
151.63364073216064
 20
116.0
 10
152.0
 20
116.18833453321713
 10
153.0
 20
116.65009102379031
 10
153.73091623530243
 20
117.0
 10
154.0
 20
117.13297785031246
 10
155.0
 20
117.55154115842682
 10
156.0
 20
117.9356674272187
 10
156.17262033639537
 20
118.0
 10
157.0
 20
118.28855106881613
 10
158.0
 20
118.54136532870474
 10
159.0
 20
118.72719020029336
 10
160.0
 20
118.8482469295549
 10
161.0
 20
118.8896105058862
 10
162.0
 20
118.83855741988319
 10
163.0
 20
118.69398169784495
 10
164.0
 20
118.4523415006754
 10
165.0
 20
118.06463766577725
 10
165.1169588800417
 20
118.0
 10
166.0
 20
117.5053776480477
 10
166.6863861875491
 20
117.0
 10
167.0
 20
116.73236953407185
 10
167.71314822917103
 20
116.0
 10
168.0
 20
115.64447304632762
 10
168.45306837560543
 20
115.0
 10
168.97889907119185
 20
114.0
 10
168.99999999999997
 20
113.95163040612756
 10
169.36793520301921
 20
113.0
 10
169.6039060075429
 20
112.0
 10
169.74279290004142
 20
111.0
 10
169.79460139105805
 20
110.0
 10
169.7613721983138
 20
109.0
 10
169.65109939768158
 20
108.0
 10
169.4710625581834
 20
107.0
 10
169.20963803537788
 20
106.0
 10
169.0
 20
105.43299828922002
 10
168.83518191292524
 20
105.0
 10
168.42835091916334
 20
104.0
 10
168.0
 20
103.1458322215436
 10
167.92004637392216
 20
103.0
 10
167.36353816442406
 20
102.0
 10
167.0
 20
101.4348619198829
 10
166.70819699492293
 20
101.0
 10
166.01238789604815
 20
100.0
 10
166.0
 20
99.9839972530636
 10
165.2494289202431
 20
99.0
 10
165.0
 20
98.69736893697228
 10
164.4172399603851
 20
98.0
 10
164.0
 20
97.5219159349987
 10
163.53351729481707
 20
97.0
 10
163.0
 20
96.4186510420372
 10
162.60643760465732
 20
96.0
 10
162.0
 20
95.36679474780321
 10
161.64155780578727
 20
95.0
 10
161.0
 20
94.35337367460495
 10
160.6439499298748
 20
94.0
 10
160.0
 20
93.36941670024015
 10
159.61837413830702
 20
93.0
 10
159.0
 20
92.40852790552684
 10
158.5688916530049
 20
92.0
 10
158.0
 20
91.46626337480853
 10
157.49850259981392
 20
91.0
 10
157.0
 20
90.53977329206282
 10
156.40896156367603
 20
90.0
 10
156.0
 20
89.62755594100804
 10
155.30074021417266
 20
89.0
 10
155.0
 20
88.72929446017147
 10
154.17306027168823
 20
88.0
 10
154.0
 20
87.84577167616467
 10
153.02393175949481
 20
87.0
 10
153.0
 20
86.97885137606649
 10
152.0
 20
86.12494376785544
 10
151.85635853119277
 20
86.0
 10
151.0
 20
85.27345106862782
 10
150.68099220705045
 20
85.0
 10
150.0
 20
84.42500249919718
 10
149.49670711549246
 20
84.0
 10
149.0
 20
83.58187797957281
 10
148.30007761364914
 20
83.0
 10
148.0
 20
82.74790082604434
 10
147.08501630286122
 20
82.0
 10
147.0
 20
81.92871399165975
 10
146.0
 20
81.12567248736771
 10
145.8480785852348
 20
80.99999999999999
 10
145.0
 20
80.32093120450256
 10
144.60316428667397
 20
80.0
 10
144.0
 20
79.52009100162084
 10
143.33664099300273
 20
79.0
 10
143.0
 20
78.73481632646495
 10
142.02196650708632
 20
78.0
 10
142.0
 20
77.9829444342304
 10
141.0
 20
77.25963983499997
 10
140.64504128043262
 20
77.0
 10
140.0
 20
76.5436931499907
 10
139.19572160174394
 20
76.0
 10
139.0
 20
75.86506664608687
 10
138.0
 20
75.24916079390573
 10
137.60047654758768
 20
75.0
 10
137.0
 20
74.63876323796288
 10
136.0
 20
74.10486639602166
 10
135.8078810454057
 20
74.0
 10
135.0
 20
73.58959816491763
 10
134.0
 20
73.15342137774651
 10
133.64914323566722
 20
73.0
 10
133.0
 20
72.72806486319465
 10
132.0
 20
72.39865805542455
 10
131.0
 20
72.10708065454413
 10
130.59980092149323
 20
72.0
 10
130.0
 20
71.8423852579252
 10
129.0
 20
71.65932489017057
 10
128.0
 20
71.54242477727354
 10
127.0
 20
71.48310123323989
 10
126.0
 20
71.48103464813596
 10
125.0
 20
71.53915265378302
 10
124.0
 20
71.66425495028773
 10
123.0
 20
71.87534219015204
  0
LWPOLYLINE
  5
42
330
17
100
AcDbEntity
  8
0
100
AcDbPolyline
 90
65
 70
0
 10
134.0
 20
85.9928305714191
 10
135.0
 20
85.84745663100547
 10
136.0
 20
85.83902438814052
 10
137.0
 20
85.96434606495477
 10
137.13344001532357
 20
86.00000000000001
 10
138.0
 20
86.22090363244735
 10
139.0
 20
86.58417549162948
 10
139.75879476725322
 20
87.0
 10
140.0
 20
87.15013665690631
 10
141.0
 20
87.9091097019644
 10
141.09635386931024
 20
88.0
 10
141.98197209253456
 20
89.0
 10
142.0
 20
89.02438993283668
 10
142.60779189757346
 20
90.0
 10
143.0
 20
90.85425841223966
 10
143.06744448123897
 20
91.0
 10
143.36737697247574
 20
92.0
 10
143.51887906018857
 20
93.0
 10
143.55462717196173
 20
94.0
 10
143.47845106419112
 20
95.0
 10
143.27855402377702
 20
96.0
 10
143.0
 20
96.76046931953768
 10
142.9047444568221
 20
97.0
 10
142.3982653514288
 20
98.0
 10
142.0
 20
98.56410157353918
 10
141.64711341526132
 20
99.0
 10
141.0
 20
99.65247750229064
 10
140.57867504373527
 20
100.0
 10
140.0
 20
100.4150988344488
 10
139.0
 20
100.93447430968098
 10
138.84090107051594
 20
101.0
 10
138.0
 20
101.31421460353847
 10
137.0
 20
101.52090525927181
 10
136.0
 20
101.60676000129881
 10
135.0
 20
101.58226453219632
 10
134.0
 20
101.44598428826016
 10
133.0
 20
101.17548598567194
 10
132.6006386858741
 20
101.0
 10
132.0
 20
100.72738216648413
 10
131.0
 20
100.14234831916977
 10
130.81745260497962
 20
100.0
 10
130.0
 20
99.28652045905685
 10
129.7277586623596
 20
99.0
 10
129.0
 20
98.03942959144709
 10
128.9720590867886
 20
98.0
 10
128.44240196620802
 20
97.0
 10
128.07888657172796
 20
96.0
 10
128.0
 20
95.69234871043915
 10
127.82797427358327
 20
95.0
 10
127.72514198025223
 20
94.0
 10
127.74666844030935
 20
93.0
 10
127.89850419070126
 20
92.0
 10
128.0
 20
91.66274921233463
 10
128.19723996338735
 20
91.0
 10
128.6049582997474
 20
90.0
 10
129.0
 20
89.34317217999379
 10
129.2335728672806
 20
89.0
 10
130.0
 20
88.09446272308699
 10
130.0962617911136
 20
88.0
 10
131.0
 20
87.26256572360398
 10
131.40354569839678
 20
87.0
 10
132.0
 20
86.6526298625118
 10
133.0
 20
86.26486701173894
 10
133.97514063983817
 20
85.99999999999999
 10
134.0
 20
85.9928305714191
  0
LWPOLYLINE
  5
43
330
17
100
AcDbEntity
  8
0
100
AcDbPolyline
 90
173
 70
0
 10
61.0
 20
126.9326526068046
 10
60.81365002931577
 20
127.0
 10
60.0
 20
127.28250937052346
 10
59.0
 20
127.67332657758828
 10
58.350337283496124
 20
128.0
 10
58.0
 20
128.18584466863047
 10
57.0
 20
128.7312460525999
 10
56.582196776320856
 20
129.0
 10
56.0
 20
129.38101114788412
 10
55.098321068306234
 20
130.0
 10
55.0
 20
130.07251924360332
 10
54.0
 20
130.799759138195
 10
53.74533908079358
 20
131.0
 10
53.0
 20
131.5815068565028
 10
52.47952028307063
 20
132.0
 10
52.0
 20
132.38938333066613
 10
51.24593508355761
 20
133.0
 10
51.0
 20
133.20355237991967
 10
50.00889959429626
 20
134.0
 10
50.0
 20
134.007400384962
 10
49.0
 20
134.8021636064497
 10
48.7563260665916
 20
135.0
 10
48.0
 20
135.59629743786613
 10
47.48611634305724
 20
136.0
 10
47.0
 20
136.37887071663596
 10
46.17563468242497
 20
137.0
 10
46.0
 20
137.13530394452553
 10
45.0
 20
137.85422641972826
 10
44.8044634131177
 20
138.0
 10
44.0
 20
138.57499029627945
 10
43.40277006366496
 20
139.0
 10
43.0
 20
139.28783538407467
 10
42.0
 20
139.9638516197339
 10
41.94926573354736
 20
140.0
 10
41.0
 20
140.63818875262126
 10
40.47310393352071
 20
141.0
 10
40.0
 20
141.32553542940778
 10
39.0
 20
141.9895869365628
 10
38.98531826226747
 20
142.0
 10
38.0
 20
142.66168437254663
 10
37.51816125656009
 20
143.0
 10
37.0
 20
143.36585931197573
 10
36.10066655630908
 20
144.0
 10
36.0
 20
144.07510897917098
 10
35.0
 20
144.80119810455804
 10
34.7468323743544
 20
145.0
 10
34.0
 20
145.58735762610777
 10
33.50280974220642
 20
146.0
 10
33.0
 20
146.43127113433707
 10
32.36774408062895
 20
147.0
 10
32.0
 20
147.3478858767865
 10
31.347453933921525
 20
148.0
 10
31.0
 20
148.369182712277
 10
30.442995959179633
 20
149.0
 10
30.0
 20
149.54492364178327
 10
29.649084969755073
 20
150.0
 10
29.0
 20
150.97237114354948
 10
28.9813706895032
 20
151.0
 10
28.425291164602122
 20
152.0
 10
28.0
 20
152.90955171934652
 10
27.956127256100032
 20
153.0
 10
27.59153771025966
 20
154.0
 10
27.34369935257279
 20
155.0
 10
27.175414864999823
 20
156.0
 10
27.091200237277047
 20
157.0
 10
27.104656921874923
 20
158.0
 10
27.217598804778355
 20
159.0
 10
27.42399360315877
 20
160.0
 10
27.743277338839732
 20
161.0
 10
28.0
 20
161.52773909336213
 10
28.24498944975764
 20
162.0
 10
28.88181416039813
 20
163.0
 10
29.0
 20
163.1444049522974
 10
29.785408603768655
 20
164.0
 10
30.0
 20
164.19872331216627
 10
30.999999999999996
 20
164.94098842513125
 10
31.094027654490297
 20
165.0
 10
32.0
 20
165.4920771015361
 10
33.0
 20
165.8674513670355
 10
33.47200450752008
 20
166.0
 10
34.0
 20
166.14624750879344
 10
35.0
 20
166.28621995569227
 10
36.0
 20
166.3130754334753
 10
37.0
 20
166.23613613594077
 10
38.0
 20
166.04298101286298
 10
38.13694441969408
 20
166.0
 10
39.0
 20
165.74173818766502
 10
40.0
 20
165.37112249313708
 10
40.72977860959556
 20
165.0
 10
41.0
 20
164.85083549178015
 10
42.0
 20
164.25243012726327
 10
42.34815887349335
 20
164.0
 10
43.0
 20
163.5090943763003
 10
43.613383704277474
 20
163.0
 10
44.0
 20
162.65937711125423
 10
44.707475497754345
 20
162.0
 10
45.0
 20
161.71402946920043
 10
45.70317843471735
 20
161.0
 10
46.0
 20
160.6901924864622
 10
46.64548780033671
 20
160.0
 10
47.0
 20
159.617149952668
 10
47.566173422323736
 20
159.0
 10
48.0
 20
158.5285007253652
 10
48.489046480043
 20
158.0
 10
49.0
 20
157.45496798382624
 10
49.43440361209788
 20
157.0
 10
50.0
 20
156.4206828737964
 10
50.42213285155563
 20
156.0
 10
51.0
 20
155.44134114310907
 10
51.472697359209675
 20
155.0
 10
52.0
 20
154.52397961292326
 10
52.6076504893185
 20
154.0
 10
53.00000000000001
 20
153.67029343006604
 10
53.854008667091186
 20
153.0
 10
54.0
 20
152.88531096075857
 10
55.0
 20
152.17625235599542
 10
55.24827138770755
 20
152.0
 10
56.0
 20
151.49533685627046
 10
56.780727862211634
 20
151.0
 10
57.0
 20
150.85819946144053
 10
58.0
 20
150.28751028149287
 10
58.49283422161376
 20
150.0
 10
59.0
 20
149.70804191233626
 10
60.0
 20
149.19079448693563
 10
60.34432167477827
 20
149.0
 10
61.0
 20
148.6473467618689
 10
62.0
 20
148.14512609312192
 10
62.261408240509695
 20
148.0
 10
63.0
 20
147.60396708210797
 10
64.0
 20
147.0751268252152
 10
64.12591345375958
 20
147.0
 10
65.0
 20
146.4998660352171
 10
65.81916072706841
 20
146.0
 10
66.0
 20
145.88174285114337
 10
67.0
 20
145.22872052081522
 10
67.30671569396358
 20
145.0
 10
68.0
 20
144.46850569323956
 10
68.55571516942915
 20
144.0
 10
69.0
 20
143.59776806688365
 10
69.60421709627406
 20
143.0
 10
70.0
 20
142.56941594092538
 10
70.47966944002926
 20
142.0
 10
71.0
 20
141.29181615348895
 10
71.20480189964648
 20
141.0
 10
71.7624621297946
 20
140.0
 10
72.0
 20
139.51799813644357
 10
72.24416152928686
 20
139.0
 10
72.57385342059725
 20
138.0
 10
72.80784607846599
 20
137.0
 10
72.96072831556971
 20
136.0
 10
73.0
 20
135.26241919774515
 10
73.0145302749224
 20
135.0
 10
73.0
 20
134.76607757369877
 10
72.95422960111111
 20
134.0
 10
72.78764806986362
 20
133.0
 10
72.52281055701411
 20
132.0
 10
72.11636528691761
 20
131.0
 10
72.0
 20
130.80001829352625
 10
71.51591621559766
 20
130.0
 10
71.0
 20
129.33979955500962
 10
70.68988385495172
 20
129.0
 10
70.0
 20
128.36692496205228
 10
69.50942580390952
 20
128.0
 10
69.0
 20
127.6592148401091
 10
68.0
 20
127.17954267441995
 10
67.53093089952978
 20
127.0
 10
67.0
 20
126.80420951955774
 10
66.0
 20
126.58388669421237
 10
65.0
 20
126.47556910416814
 10
64.0
 20
126.45845768580523
 10
63.0
 20
126.52582834169392
 10
62.0
 20
126.67791503857936
 10
61.0
 20
126.9326526068046
  0
LWPOLYLINE
  5
44
330
17
100
AcDbEntity
  8
0
100
AcDbPolyline
 90
61
 70
0
 10
169.0
 20
140.66399554608935
 10
168.33078756144434
 20
141.0
 10
168.0
 20
141.1857037558771
 10
167.0
 20
141.9137668192734
 10
166.90793591354029
 20
142.0
 10
166.0371623500956
 20
143.0
 10
166.0
 20
143.05305096215343
 10
165.44552142273392
 20
144.0
 10
165.0509231222731
 20
144.99999999999997
 10
165.00000000000003
 20
145.184575685338
 10
164.78764717794672
 20
146.0
 10
164.68143563472674
 20
147.0
 10
164.70082823980493
 20
148.0
 10
164.848495261929
 20
149.0
 10
165.0
 20
149.50689498569346
 10
165.14982488866286
 20
150.0
 10
165.5601176273135
 20
151.0
 10
166.0
 20
151.7341124640286
 10
166.18275806157106
 20
152.0
 10
167.0
 20
152.9613557604045
 10
167.03988080006184
 20
153.0
 10
168.0
 20
153.76972103679836
 10
168.3653403011553
 20
154.0
 10
169.0
 20
154.35692957280907
 10
170.0
 20
154.71625821560536
 10
171.0
 20
154.9433479371099
 10
171.61080436358475
 20
155.0
 10
172.0
 20
155.0375390267361
 10
172.62118488088842
 20
155.0
 10
173.0
 20
154.9778233504174
 10
174.0
 20
154.77804705180887
 10
175.0
 20
154.44792285159966
 10
175.84189941970527
 20
154.0
 10
176.0
 20
153.9023968683273
 10
177.0
 20
153.1272861907545
 10
177.12980154824393
 20
153.0
 10
177.94931871723583
 20
152.0
 10
178.00000000000003
 20
151.92366332571578
 10
178.5196256458205
 20
151.0
 10
178.89235716445253
 20
150.0
 10
179.0
 20
149.58027946610457
 10
179.14657010103113
 20
149.0
 10
179.2474167869128
 20
148.0
 10
179.21657271026453
 20
147.0
 10
179.0456994709442
 20
146.0
 10
179.0
 20
145.8582312936339
 10
178.73399732301635
 20
145.0
 10
178.30063421898984
 20
144.0
 10
178.0
 20
143.52742453327707
 10
177.62700432931322
 20
143.0
 10
177.0
 20
142.29613338605827
 10
176.6816369005282
 20
142.0
 10
176.0
 20
141.46457398882768
 10
175.21951659888822
 20
141.0
 10
175.0
 20
140.87491624126244
 10
174.0
 20
140.49344484427365
 10
173.0
 20
140.2708014183478
 10
172.0
 20
140.17249590367845
 10
171.0
 20
140.2038047833891
 10
170.0
 20
140.36425306190125
 10
169.0
 20
140.66399554608935
  0
LWPOLYLINE
  5
45
330
17
100
AcDbEntity
  8
0
100
AcDbPolyline
 90
75
 70
0
 10
129.0
 20
155.82559794242036
 10
130.0
 20
155.5200434434781
 10
131.0
 20
155.32391051452134
 10
132.0
 20
155.21227498606305
 10
133.0
 20
155.18734307106405
 10
134.0
 20
155.2515207370734
 10
135.0
 20
155.4010233011534
 10
136.0
 20
155.64219880909496
 10
136.93729178629974
 20
156.0
 10
137.0
 20
156.02671918054682
 10
138.0
 20
156.52562861906145
 10
138.72718404326753
 20
157.0
 10
139.0
 20
157.20124908674114
 10
139.919042888653
 20
158.0
 10
140.0
 20
158.08232491666496
 10
140.77171868065528
 20
159.0
 10
141.0
 20
159.32418624687915
 10
141.42407713706183
 20
160.0
 10
141.88078603813415
 20
161.0
 10
142.0
 20
161.32125546827723
 10
142.2379466502926
 20
162.0
 10
142.44188577614318
 20
163.0
 10
142.53529699133537
 20
164.0
 10
142.5317081523488
 20
165.0
 10
142.4314246357904
 20
166.0
 10
142.22078993897156
 20
167.0
 10
142.0
 20
167.62245224145497
 10
141.85969971690668
 20
168.0
 10
141.4059788049156
 20
169.0
 10
141.0
 20
169.65297325654376
 10
140.7594835407196
 20
170.0
 10
140.0
 20
170.9202175301903
 10
139.9231510380763
 20
171.0
 10
139.0
 20
171.82034909580855
 10
138.76239476042952
 20
172.0
 10
138.0
 20
172.50644809434797
 10
137.03864207058032
 20
173.0
 10
137.0
 20
173.020219162295
 10
136.0
 20
173.40017323139458
 10
135.0
 20
173.63957611743155
 10
134.0
 20
173.7859724582833
 10
133.0
 20
173.84183772110077
 10
132.0
 20
173.80284553430553
 10
131.0
 20
173.6734420399838
 10
130.0
 20
173.45612599100252
 10
129.0
 20
173.11877634348318
 10
128.7543756679729
 20
173.0
 10
128.0
 20
172.63349481170553
 10
127.00000000000001
 20
172.02914861896403
 10
126.96159527179117
 20
172.0
 10
126.0
 20
171.22343008370984
 10
125.7680724340648
 20
171.0
 10
125.0
 20
170.13703538285813
 10
124.88880009556094
 20
170.0
 10
124.2461520910253
 20
169.0
 10
124.0
 20
168.54060024345773
 10
123.72842240358057
 20
168.0
 10
123.39117157345729
 20
167.0
 10
123.16348856481478
 20
166.0
 10
123.03194824662665
 20
165.0
 10
123.01291027464106
 20
164.0
 10
123.11088055229123
 20
163.0
 10
123.31189666396764
 20
162.0
 10
123.61669522658866
 20
161.0
 10
124.0
 20
160.1858046525696
 10
124.09781528225307
 20
160.0
 10
124.71972699078867
 20
159.0
 10
125.0
 20
158.65171500999563
 10
125.5892433937085
 20
158.0
 10
126.0
 20
157.6126017153685
 10
126.78078059110385
 20
157.0
 10
126.99999999999999
 20
156.84068239015514
 10
128.0
 20
156.28331750733787
 10
128.61320188123426
 20
156.0
 10
129.0
 20
155.82559794242036
  0
LWPOLYLINE
  5
46
330
17
100
AcDbEntity
  8
0
100
AcDbPolyline
 90
121
 70
0
 10
52.0
 20
169.8449526139093
 10
51.26215967280215
 20
170.0
 10
51.0
 20
170.05671669412897
 10
50.0
 20
170.29262385566474
 10
49.0
 20
170.55139440475688
 10
48.0
 20
170.87781680901065
 10
47.71324379485881
 20
171.0
 10
47.0
 20
171.30007464435178
 10
46.0
 20
171.76434047673018
 10
45.60567668522785
 20
172.0
 10
45.0
 20
172.37790022976804
 10
44.144770996506416
 20
173.00000000000003
 10
44.0
 20
173.119508110086
 10
43.06489814737086
 20
174.0
 10
43.0
 20
174.07038938635893
 10
42.25932544104166
 20
175.0
 10
42.0
 20
175.38704080195888
 10
41.62797719502837
 20
176.0
 10
41.19176450443866
 20
177.0
 10
41.0
 20
177.55024736660005
 10
40.84565700340023
 20
178.0
 10
40.64404027761406
 20
179.0
 10
40.55825872253429
 20
180.0
 10
40.571943346450155
 20
181.0
 10
40.68588869475599
 20
182.0
 10
40.920868341841754
 20
183.0
 10
41.0
 20
183.21432774564198
 10
41.28314844792145
 20
184.0
 10
41.73084654492591
 20
185.0
 10
42.0
 20
185.440420163231
 10
42.36426985695886
 20
186.0
 10
43.0
 20
186.82552696782943
 10
43.152158330437885
 20
187.00000000000003
 10
44.0
 20
187.8593401016432
 10
44.15584682994885
 20
188.0
 10
45.0
 20
188.67950472263334
 10
45.44736034662367
 20
189.0
 10
46.0
 20
189.3693928045667
 10
47.0
 20
189.9221241990281
 10
47.14693079578039
 20
190.0
 10
48.0
 20
190.4127916282151
 10
49.0
 20
190.8029467210633
 10
49.52091514290343
 20
191.0
 10
50.0
 20
191.17952107703115
 10
51.0
 20
191.47078115948702
 10
52.0
 20
191.71452029231796
 10
53.0
 20
191.94610726742206
 10
53.24467316961842
 20
192.0
 10
54.0
 20
192.16113088191364
 10
55.0
 20
192.32643959390919
 10
56.0
 20
192.4575542211774
 10
57.0
 20
192.56497117961857
 10
58.0
 20
192.6539621790207
 10
59.0
 20
192.72619215565186
 10
60.0
 20
192.78091831706328
 10
61.0
 20
192.8159547783314
 10
62.0
 20
192.82850699966306
 10
63.0
 20
192.81589692650405
 10
64.0
 20
192.7760784846447
 10
65.0
 20
192.70766753847067
 10
66.0
 20
192.6089991027133
 10
67.0
 20
192.4755452997774
 10
68.0
 20
192.29492045706914
 10
69.0
 20
192.03843512918806
 10
69.11295891729411
 20
192.0
 10
70.0
 20
191.71325765714354
 10
71.0
 20
191.3517048495911
 10
71.73149360730984
 20
190.99999999999997
 10
72.0
 20
190.86022792298826
 10
73.0
 20
190.29353848640514
 10
73.41296857515786
 20
190.0
 10
74.0
 20
189.5504937628096
 10
74.61826719575157
 20
189.0
 10
75.0
 20
188.61369204871357
 10
75.5339081383697
 20
188.0
 10
76.0
 20
187.3610071149372
 10
76.24495004870585
 20
187.0
 10
76.75207544375809
 20
186.0
 10
77.0
 20
185.40575628293806
 10
77.16596976327843
 20
185.0
 10
77.42860547790201
 20
184.0
 10
77.57508877617428
 20
183.0
 10
77.6272095510963
 20
182.0
 10
77.58859629817222
 20
181.0
 10
77.45945083761238
 20
180.0
 10
77.22699408509916
 20
179.0
 10
77.0
 20
178.38390457691546
 10
76.85193893649807
 20
178.0
 10
76.40141816310917
 20
177.0
 10
76.0
 20
176.32679838625572
 10
75.78634654219704
 20
176.0
 10
75.04533755841432
 20
175.0
 10
75.0
 20
174.94817553435144
 10
74.10040076741787
 20
174.0
 10
74.0
 20
173.90488760064318
 10
73.0
 20
173.07753964323535
 10
72.89809665765272
 20
173.0
 10
72.0
 20
172.3881027268559
 10
71.35381339695107
 20
172.0
 10
71.0
 20
171.79222313012932
 10
70.0
 20
171.32612635399502
 10
69.23778132495164
 20
171.0
 10
69.0
 20
170.89579356604042
 10
68.0
 20
170.55408669890073
 10
67.0
 20
170.2814441567202
 10
66.0
 20
170.0305732412785
 10
65.8658174117383
 20
170.0
 10
65.0
 20
169.8118455724762
 10
64.0
 20
169.6538478431299
 10
63.0
 20
169.53729958769202
 10
61.99999999999999
 20
169.45148048157296
 10
61.0
 20
169.39112196575024
 10
60.0
 20
169.35377148218333
 10
59.0
 20
169.33820995156756
 10
58.0
 20
169.3436428648095
 10
57.0
 20
169.36944645889844
 10
56.0
 20
169.41532088407092
 10
55.0
 20
169.4817912638254
 10
54.0
 20
169.57109430761915
 10
53.0
 20
169.688588479665
 10
52.0
 20
169.8449526139093
  0
ENDSEC
  0
SECTION
  2
OBJECTS
  0
DICTIONARY
  5
A
330
0
100
AcDbDictionary
280
0
281
1
  3
ACAD_COLOR
350
B
  3
ACAD_GROUP
350
C
  3
ACAD_LAYOUT
350
D
  3
ACAD_MATERIAL
350
E
  3
ACAD_MLEADERSTYLE
350
F
  3
ACAD_MLINESTYLE
350
10
  3
ACAD_PLOTSETTINGS
350
11
  3
ACAD_PLOTSTYLENAME
350
12
  3
ACAD_SCALELIST
350
14
  3
ACAD_TABLESTYLE
350
15
  3
ACAD_VISUALSTYLE
350
16
  3
EZDXF_META
350
2D
  0
DICTIONARY
  5
B
330
A
100
AcDbDictionary
280
0
281
1
  0
DICTIONARY
  5
C
330
A
100
AcDbDictionary
280
0
281
1
  0
DICTIONARY
  5
D
330
A
100
AcDbDictionary
280
0
281
1
  3
Model
350
1A
  3
Layout1
350
1E
  0
DICTIONARY
  5
E
330
A
100
AcDbDictionary
280
0
281
1
  3
ByBlock
350
1F
  3
ByLayer
350
20
  3
Global
350
21
  0
DICTIONARY
  5
F
330
A
100
AcDbDictionary
280
0
281
1
  3
Standard
350
2C
  0
DICTIONARY
  5
10
330
A
100
AcDbDictionary
280
0
281
1
  3
Standard
350
22
  0
DICTIONARY
  5
11
330
A
100
AcDbDictionary
280
0
281
1
  0
ACDBDICTIONARYWDFLT
  5
12
330
A
100
AcDbDictionary
280
0
281
1
  3
Normal
350
13
100
AcDbDictionaryWithDefault
340
13
  0
ACDBPLACEHOLDER
  5
13
330
12
  0
DICTIONARY
  5
14
330
A
100
AcDbDictionary
280
0
281
1
  0
DICTIONARY
  5
15
330
A
100
AcDbDictionary
280
0
281
1
  0
DICTIONARY
  5
16
330
A
100
AcDbDictionary
280
0
281
1
  0
LAYOUT
  5
1A
330
D
100
AcDbPlotSettings
  1

  2
Adobe PDF
  4
A3
  6

 40
7.5
 41
20.0
 42
7.5
 43
20.0
 44
420.0
 45
297.0
 46
0.0
 47
0.0
 48
0.0
 49
0.0
140
0.0
141
0.0
142
1.0
143
1.0
 70
1024
 72
1
 73
0
 74
5
  7

 75
16
 76
0
 77
2
 78
300
147
1.0
148
0.0
149
0.0
100
AcDbLayout
  1
Model
 70
1
 71
0
 10
0.0
 20
0.0
 11
420.0
 21
297.0
 12
0.0
 22
0.0
 32
0.0
 14
1e+20
 24
1e+20
 34
1e+20
 15
-1e+20
 25
-1e+20
 35
-1e+20
146
0.0
 13
0.0
 23
0.0
 33
0.0
 16
1.0
 26
0.0
 36
0.0
 17
0.0
 27
1.0
 37
0.0
 76
1
330
17
  0
LAYOUT
  5
1E
330
D
100
AcDbPlotSettings
  1

  2
Adobe PDF
  4
A3
  6

 40
7.5
 41
20.0
 42
7.5
 43
20.0
 44
420.0
 45
297.0
 46
0.0
 47
0.0
 48
0.0
 49
0.0
140
0.0
141
0.0
142
1.0
143
1.0
 70
0
 72
1
 73
0
 74
5
  7

 75
16
 76
0
 77
2
 78
300
147
1.0
148
0.0
149
0.0
100
AcDbLayout
  1
Layout1
 70
1
 71
1
 10
0.0
 20
0.0
 11
420.0
 21
297.0
 12
0.0
 22
0.0
 32
0.0
 14
1e+20
 24
1e+20
 34
1e+20
 15
-1e+20
 25
-1e+20
 35
-1e+20
146
0.0
 13
0.0
 23
0.0
 33
0.0
 16
1.0
 26
0.0
 36
0.0
 17
0.0
 27
1.0
 37
0.0
 76
1
330
1B
  0
MATERIAL
  5
1F
102
{ACAD_REACTORS
330
E
102
}
330
E
100
AcDbMaterial
  1
ByBlock
  2

 70
0
 40
1.0
 71
1
 41
1.0
 91
-1023410177
 42
1.0
 72
1
  3

 73
1
 74
1
 75
1
 44
0.5
 73
0
 45
1.0
 46
1.0
 77
1
  4

 78
1
 79
1
170
1
 48
1.0
171
1
  6

172
1
173
1
174
1
140
1.0
141
1.0
175
1
  7

176
1
177
1
178
1
143
1.0
179
1
  8

270
1
271
1
272
1
145
1.0
146
1.0
273
1
  9

274
1
275
1
276
1
 42
1.0
 72
1
  3

 73
1
 74
1
 75
1
 94
63
  0
MATERIAL
  5
20
102
{ACAD_REACTORS
330
E
102
}
330
E
100
AcDbMaterial
  1
ByLayer
  2

 70
0
 40
1.0
 71
1
 41
1.0
 91
-1023410177
 42
1.0
 72
1
  3

 73
1
 74
1
 75
1
 44
0.5
 73
0
 45
1.0
 46
1.0
 77
1
  4

 78
1
 79
1
170
1
 48
1.0
171
1
  6

172
1
173
1
174
1
140
1.0
141
1.0
175
1
  7

176
1
177
1
178
1
143
1.0
179
1
  8

270
1
271
1
272
1
145
1.0
146
1.0
273
1
  9

274
1
275
1
276
1
 42
1.0
 72
1
  3

 73
1
 74
1
 75
1
 94
63
  0
MATERIAL
  5
21
102
{ACAD_REACTORS
330
E
102
}
330
E
100
AcDbMaterial
  1
Global
  2

 70
0
 40
1.0
 71
1
 41
1.0
 91
-1023410177
 42
1.0
 72
1
  3

 73
1
 74
1
 75
1
 44
0.5
 73
0
 45
1.0
 46
1.0
 77
1
  4

 78
1
 79
1
170
1
 48
1.0
171
1
  6

172
1
173
1
174
1
140
1.0
141
1.0
175
1
  7

176
1
177
1
178
1
143
1.0
179
1
  8

270
1
271
1
272
1
145
1.0
146
1.0
273
1
  9

274
1
275
1
276
1
 42
1.0
 72
1
  3

 73
1
 74
1
 75
1
 94
63
  0
MLINESTYLE
  5
22
102
{ACAD_REACTORS
330
10
102
}
330
10
100
AcDbMlineStyle
  2
Standard
 70
0
  3

 62
256
 51
90.0
 52
90.0
 71
2
 49
0.5
 62
256
  6
BYLAYER
 49
-0.5
 62
256
  6
BYLAYER
  0
MLEADERSTYLE
  5
2C
102
{ACAD_REACTORS
330
F
102
}
330
F
100
AcDbMLeaderStyle
179
2
170
2
171
1
172
0
 90
2
 40
0.0
 41
0.0
173
1
 91
-1056964608
 92
-2
290
1
 42
2.0
291
1
 43
8.0
  3
Standard
 44
4.0
300

342
29
174
1
175
1
176
0
178
1
 93
-1056964608
 45
4.0
292
0
297
0
 46
4.0
 94
-1056964608
 47
1.0
 49
1.0
140
1.0
294
1
141
0.0
177
0
142
1.0
295
0
296
0
143
3.75
271
0
272
9
273
9
  0
DICTIONARY
  5
2D
330
A
100
AcDbDictionary
281
1
  3
CREATED_BY_EZDXF
350
2E
  3
WRITTEN_BY_EZDXF
350
49
  0
DICTIONARYVAR
  5
2E
330
2D
100
DictionaryVariables
280
0
  1
1.0.2 @ 2023-06-06T12:47:47.051890+00:00
  0
DICTIONARYVAR
  5
49
330
2D
100
DictionaryVariables
280
0
  1
1.0.2 @ 2023-06-06T12:47:47.061891+00:00
  0
ENDSEC
  0
EOF
