  0
SECTION
  2
HEADER
  9
$ACADVER
  1
AC1015
  9
$ACADMAINTVER
 70
6
  9
$DWGCODEPAGE
  3
ANSI_1252
  9
$INSBASE
 10
0.0
 20
0.0
 30
0.0
  9
$EXTMIN
 10
1e+20
 20
1e+20
 30
1e+20
  9
$EXTMAX
 10
-1e+20
 20
-1e+20
 30
-1e+20
  9
$LIMMIN
 10
0.0
 20
0.0
  9
$LIMMAX
 10
420.0
 20
297.0
  9
$ORTHOMODE
 70
0
  9
$REGENMODE
 70
1
  9
$FILLMODE
 70
1
  9
$QTEXTMODE
 70
0
  9
$MIRRTEXT
 70
1
  9
$LTSCALE
 40
1.0
  9
$ATTMODE
 70
1
  9
$TEXTSIZE
 40
2.5
  9
$TRACEWID
 40
1.0
  9
$TEXTSTYLE
  7
Standard
  9
$CLAYER
  8
0
  9
$CELTYPE
  6
ByLayer
  9
$CECOLOR
 62
256
  9
$CELTSCALE
 40
1.0
  9
$DISPSILH
 70
0
  9
$DIMSCALE
 40
1.0
  9
$DIMASZ
 40
2.5
  9
$DIMEXO
 40
0.625
  9
$DIMDLI
 40
3.75
  9
$DIMRND
 40
0.0
  9
$DIMDLE
 40
0.0
  9
$DIMEXE
 40
1.25
  9
$DIMTP
 40
0.0
  9
$DIMTM
 40
0.0
  9
$DIMTXT
 40
2.5
  9
$DIMCEN
 40
2.5
  9
$DIMTSZ
 40
0.0
  9
$DIMTOL
 70
0
  9
$DIMLIM
 70
0
  9
$DIMTIH
 70
0
  9
$DIMTOH
 70
0
  9
$DIMSE1
 70
0
  9
$DIMSE2
 70
0
  9
$DIMTAD
 70
1
  9
$DIMZIN
 70
8
  9
$DIMBLK
  1

  9
$DIMASO
 70
1
  9
$DIMSHO
 70
1
  9
$DIMPOST
  1

  9
$DIMAPOST
  1

  9
$DIMALT
 70
0
  9
$DIMALTD
 70
3
  9
$DIMALTF
 40
0.03937007874
  9
$DIMLFAC
 40
1.0
  9
$DIMTOFL
 70
1
  9
$DIMTVP
 40
0.0
  9
$DIMTIX
 70
0
  9
$DIMSOXD
 70
0
  9
$DIMSAH
 70
0
  9
$DIMBLK1
  1

  9
$DIMBLK2
  1

  9
$DIMSTYLE
  2
ISO-25
  9
$DIMCLRD
 70
0
  9
$DIMCLRE
 70
0
  9
$DIMCLRT
 70
0
  9
$DIMTFAC
 40
1.0
  9
$DIMGAP
 40
0.625
  9
$DIMJUST
 70
0
  9
$DIMSD1
 70
0
  9
$DIMSD2
 70
0
  9
$DIMTOLJ
 70
0
  9
$DIMTZIN
 70
8
  9
$DIMALTZ
 70
0
  9
$DIMALTTZ
 70
0
  9
$DIMUPT
 70
0
  9
$DIMDEC
 70
2
  9
$DIMTDEC
 70
2
  9
$DIMALTU
 70
2
  9
$DIMALTTD
 70
3
  9
$DIMTXSTY
  7
Standard
  9
$DIMAUNIT
 70
0
  9
$DIMADEC
 70
0
  9
$DIMALTRND
 40
0.0
  9
$DIMAZIN
 70
0
  9
$DIMDSEP
 70
44
  9
$DIMATFIT
 70
3
  9
$DIMFRAC
 70
0
  9
$DIMLDRBLK
  1

  9
$DIMLUNIT
 70
2
  9
$DIMLWD
 70
-2
  9
$DIMLWE
 70
-2
  9
$DIMTMOVE
 70
0
  9
$LUNITS
 70
2
  9
$LUPREC
 70
4
  9
$SKETCHINC
 40
1.0
  9
$FILLETRAD
 40
10.0
  9
$AUNITS
 70
0
  9
$AUPREC
 70
2
  9
$MENU
  1
.
  9
$ELEVATION
 40
0.0
  9
$PELEVATION
 40
0.0
  9
$THICKNESS
 40
0.0
  9
$LIMCHECK
 70
0
  9
$CHAMFERA
 40
0.0
  9
$CHAMFERB
 40
0.0
  9
$CHAMFERC
 40
0.0
  9
$CHAMFERD
 40
0.0
  9
$SKPOLY
 70
0
  9
$TDCREATE
 40
2460102.6174305556
  9
$TDUCREATE
 40
2458532.153996898
  9
$TDUPDATE
 40
2460102.6174305556
  9
$TDUUPDATE
 40
2458532.1544311
  9
$TDINDWG
 40
0.0
  9
$TDUSRTIMER
 40
0.0
  9
$USRTIMER
 70
1
  9
$ANGBASE
 50
0.0
  9
$ANGDIR
 70
0
  9
$PDMODE
 70
0
  9
$PDSIZE
 40
0.0
  9
$PLINEWID
 40
0.0
  9
$SPLFRAME
 70
0
  9
$SPLINETYPE
 70
6
  9
$SPLINESEGS
 70
8
  9
$HANDSEED
  5
4F
  9
$SURFTAB1
 70
6
  9
$SURFTAB2
 70
6
  9
$SURFTYPE
 70
6
  9
$SURFU
 70
6
  9
$SURFV
 70
6
  9
$UCSBASE
  2

  9
$UCSNAME
  2

  9
$UCSORG
 10
0.0
 20
0.0
 30
0.0
  9
$UCSXDIR
 10
1.0
 20
0.0
 30
0.0
  9
$UCSYDIR
 10
0.0
 20
1.0
 30
0.0
  9
$UCSORTHOREF
  2

  9
$UCSORTHOVIEW
 70
0
  9
$UCSORGTOP
 10
0.0
 20
0.0
 30
0.0
  9
$UCSORGBOTTOM
 10
0.0
 20
0.0
 30
0.0
  9
$UCSORGLEFT
 10
0.0
 20
0.0
 30
0.0
  9
$UCSORGRIGHT
 10
0.0
 20
0.0
 30
0.0
  9
$UCSORGFRONT
 10
0.0
 20
0.0
 30
0.0
  9
$UCSORGBACK
 10
0.0
 20
0.0
 30
0.0
  9
$PUCSBASE
  2

  9
$PUCSNAME
  2

  9
$PUCSORG
 10
0.0
 20
0.0
 30
0.0
  9
$PUCSXDIR
 10
1.0
 20
0.0
 30
0.0
  9
$PUCSYDIR
 10
0.0
 20
1.0
 30
0.0
  9
$PUCSORTHOREF
  2

  9
$PUCSORTHOVIEW
 70
0
  9
$PUCSORGTOP
 10
0.0
 20
0.0
 30
0.0
  9
$PUCSORGBOTTOM
 10
0.0
 20
0.0
 30
0.0
  9
$PUCSORGLEFT
 10
0.0
 20
0.0
 30
0.0
  9
$PUCSORGRIGHT
 10
0.0
 20
0.0
 30
0.0
  9
$PUCSORGFRONT
 10
0.0
 20
0.0
 30
0.0
  9
$PUCSORGBACK
 10
0.0
 20
0.0
 30
0.0
  9
$USERI1
 70
0
  9
$USERI2
 70
0
  9
$USERI3
 70
0
  9
$USERI4
 70
0
  9
$USERI5
 70
0
  9
$USERR1
 40
0.0
  9
$USERR2
 40
0.0
  9
$USERR3
 40
0.0
  9
$USERR4
 40
0.0
  9
$USERR5
 40
0.0
  9
$WORLDVIEW
 70
1
  9
$SHADEDGE
 70
3
  9
$SHADEDIF
 70
70
  9
$TILEMODE
 70
1
  9
$MAXACTVP
 70
64
  9
$PINSBASE
 10
0.0
 20
0.0
 30
0.0
  9
$PLIMCHECK
 70
0
  9
$PEXTMIN
 10
1e+20
 20
1e+20
 30
1e+20
  9
$PEXTMAX
 10
-1e+20
 20
-1e+20
 30
-1e+20
  9
$PLIMMIN
 10
0.0
 20
0.0
  9
$PLIMMAX
 10
420.0
 20
297.0
  9
$UNITMODE
 70
0
  9
$VISRETAIN
 70
1
  9
$PLINEGEN
 70
0
  9
$PSLTSCALE
 70
1
  9
$TREEDEPTH
 70
3020
  9
$CMLSTYLE
  2
Standard
  9
$CMLJUST
 70
0
  9
$CMLSCALE
 40
20.0
  9
$PROXYGRAPHICS
 70
1
  9
$MEASUREMENT
 70
1
  9
$CELWEIGHT
370
-1
  9
$ENDCAPS
280
0
  9
$JOINSTYLE
280
0
  9
$LWDISPLAY
290
0
  9
$INSUNITS
 70
6
  9
$HYPERLINKBASE
  1

  9
$STYLESHEET
  1

  9
$XEDIT
290
1
  9
$CEPSNTYPE
380
0
  9
$PSTYLEMODE
290
1
  9
$FINGERPRINTGUID
  2
{478F6646-3229-4D58-B5C5-9BE46B25E084}
  9
$VERSIONGUID
  2
{BB9ED42D-84D8-474D-A8AD-DFAA1087B88C}
  9
$EXTNAMES
290
1
  9
$PSVPSCALE
 40
0.0
  9
$OLESTARTUP
290
0
  0
ENDSEC
  0
SECTION
  2
CLASSES
  0
CLASS
  1
ACDBDICTIONARYWDFLT
  2
AcDbDictionaryWithDefault
  3
ObjectDBX Classes
 90
0
280
0
281
0
  0
CLASS
  1
SUN
  2
AcDbSun
  3
SCENEOE
 90
1153
280
0
281
0
  0
CLASS
  1
VISUALSTYLE
  2
AcDbVisualStyle
  3
ObjectDBX Classes
 90
4095
280
0
281
0
  0
CLASS
  1
MATERIAL
  2
AcDbMaterial
  3
ObjectDBX Classes
 90
1153
280
0
281
0
  0
CLASS
  1
SCALE
  2
AcDbScale
  3
ObjectDBX Classes
 90
1153
280
0
281
0
  0
CLASS
  1
TABLESTYLE
  2
AcDbTableStyle
  3
ObjectDBX Classes
 90
4095
280
0
281
0
  0
CLASS
  1
MLEADERSTYLE
  2
AcDbMLeaderStyle
  3
ACDB_MLEADERSTYLE_CLASS
 90
4095
280
0
281
0
  0
CLASS
  1
DICTIONARYVAR
  2
AcDbDictionaryVar
  3
ObjectDBX Classes
 90
0
280
0
281
0
  0
CLASS
  1
CELLSTYLEMAP
  2
AcDbCellStyleMap
  3
ObjectDBX Classes
 90
1152
280
0
281
0
  0
CLASS
  1
MENTALRAYRENDERSETTINGS
  2
AcDbMentalRayRenderSettings
  3
SCENEOE
 90
1024
280
0
281
0
  0
CLASS
  1
ACDBDETAILVIEWSTYLE
  2
AcDbDetailViewStyle
  3
ObjectDBX Classes
 90
1025
280
0
281
0
  0
CLASS
  1
ACDBSECTIONVIEWSTYLE
  2
AcDbSectionViewStyle
  3
ObjectDBX Classes
 90
1025
280
0
281
0
  0
CLASS
  1
RASTERVARIABLES
  2
AcDbRasterVariables
  3
ISM
 90
0
280
0
281
0
  0
CLASS
  1
ACDBPLACEHOLDER
  2
AcDbPlaceHolder
  3
ObjectDBX Classes
 90
0
280
0
281
0
  0
CLASS
  1
LAYOUT
  2
AcDbLayout
  3
ObjectDBX Classes
 90
0
280
0
281
0
  0
ENDSEC
  0
SECTION
  2
TABLES
  0
TABLE
  2
VPORT
  5
8
330
0
100
AcDbSymbolTable
 70
1
  0
VPORT
  5
23
330
8
100
AcDbSymbolTableRecord
100
AcDbViewportTableRecord
  2
*Active
 70
0
 10
0.0
 20
0.0
 11
1.0
 21
1.0
 12
0.0
 22
0.0
 13
0.0
 23
0.0
 14
0.5
 24
0.5
 15
0.5
 25
0.5
 16
0.0
 26
0.0
 36
1.0
 17
0.0
 27
0.0
 37
0.0
 40
1000.0
 41
1.34
 42
50.0
 43
0.0
 44
0.0
 50
0.0
 51
0.0
 71
0
 72
1000
 73
1
 74
3
 75
0
 76
0
 77
0
 78
0
281
0
 65
0
146
0.0
  0
ENDTAB
  0
TABLE
  2
LTYPE
  5
2
330
0
100
AcDbSymbolTable
 70
3
  0
LTYPE
  5
24
330
2
100
AcDbSymbolTableRecord
100
AcDbLinetypeTableRecord
  2
ByBlock
 70
0
  3

 72
65
 73
0
 40
0.0
  0
LTYPE
  5
25
330
2
100
AcDbSymbolTableRecord
100
AcDbLinetypeTableRecord
  2
ByLayer
 70
0
  3

 72
65
 73
0
 40
0.0
  0
LTYPE
  5
26
330
2
100
AcDbSymbolTableRecord
100
AcDbLinetypeTableRecord
  2
Continuous
 70
0
  3

 72
65
 73
0
 40
0.0
  0
ENDTAB
  0
TABLE
  2
LAYER
  5
1
330
0
100
AcDbSymbolTable
 70
2
  0
LAYER
  5
27
330
1
100
AcDbSymbolTableRecord
100
AcDbLayerTableRecord
  2
0
 70
0
 62
7
  6
Continuous
370
-3
390
13
  0
LAYER
  5
28
330
1
100
AcDbSymbolTableRecord
100
AcDbLayerTableRecord
  2
Defpoints
 70
0
 62
7
  6
Continuous
290
0
370
-3
390
13
  0
ENDTAB
  0
TABLE
  2
STYLE
  5
5
330
0
100
AcDbSymbolTable
 70
1
  0
STYLE
  5
29
330
5
100
AcDbSymbolTableRecord
100
AcDbTextStyleTableRecord
  2
Standard
 70
0
 40
0.0
 41
1.0
 50
0.0
 71
0
 42
2.5
  3
txt
  4

  0
ENDTAB
  0
TABLE
  2
VIEW
  5
7
330
0
100
AcDbSymbolTable
 70
0
  0
ENDTAB
  0
TABLE
  2
UCS
  5
6
330
0
100
AcDbSymbolTable
 70
0
  0
ENDTAB
  0
TABLE
  2
APPID
  5
3
330
0
100
AcDbSymbolTable
 70
3
  0
APPID
  5
2A
330
3
100
AcDbSymbolTableRecord
100
AcDbRegAppTableRecord
  2
ACAD
 70
0
  0
APPID
  5
4C
330
3
100
AcDbSymbolTableRecord
100
AcDbRegAppTableRecord
  2
HATCHBACKGROUNDCOLOR
 70
0
  0
APPID
  5
4D
330
3
100
AcDbSymbolTableRecord
100
AcDbRegAppTableRecord
  2
EZDXF
 70
0
  0
ENDTAB
  0
TABLE
  2
DIMSTYLE
  5
4
330
0
100
AcDbSymbolTable
 70
1
100
AcDbDimStyleTable
  0
DIMSTYLE
105
2B
330
4
100
AcDbSymbolTableRecord
100
AcDbDimStyleTableRecord
  2
Standard
 70
0
  3

  4

 40
1.0
 41
2.5
 42
0.625
 43
3.75
 44
1.25
 45
0.0
 46
0.0
 47
0.0
 48
0.0
140
2.5
141
2.5
142
0.0
143
0.03937007874
144
1.0
145
0.0
146
1.0
147
0.625
148
0.0
 71
0
 72
0
 73
0
 74
0
 75
0
 76
0
 77
1
 78
8
 79
3
170
0
171
3
172
1
173
0
174
0
175
0
176
0
177
0
178
0
179
2
271
2
272
2
273
2
274
3
275
0
276
0
277
2
278
44
279
0
280
0
281
0
282
0
283
0
284
8
285
0
286
0
288
0
289
3
371
-2
372
-2
  0
ENDTAB
  0
TABLE
  2
BLOCK_RECORD
  5
9
330
0
100
AcDbSymbolTable
 70
2
  0
BLOCK_RECORD
  5
17
330
9
100
AcDbSymbolTableRecord
100
AcDbBlockTableRecord
  2
*Model_Space
340
1A
  0
BLOCK_RECORD
  5
1B
330
9
100
AcDbSymbolTableRecord
100
AcDbBlockTableRecord
  2
*Paper_Space
340
1E
  0
ENDTAB
  0
ENDSEC
  0
SECTION
  2
BLOCKS
  0
BLOCK
  5
18
330
17
100
AcDbEntity
  8
0
100
AcDbBlockBegin
  2
*Model_Space
 70
0
 10
0.0
 20
0.0
 30
0.0
  3
*Model_Space
  1

  0
ENDBLK
  5
19
330
17
100
AcDbEntity
  8
0
100
AcDbBlockEnd
  0
BLOCK
  5
1C
330
1B
100
AcDbEntity
  8
0
100
AcDbBlockBegin
  2
*Paper_Space
 70
0
 10
0.0
 20
0.0
 30
0.0
  3
*Paper_Space
  1

  0
ENDBLK
  5
1D
330
1B
100
AcDbEntity
  8
0
100
AcDbBlockEnd
  0
ENDSEC
  0
SECTION
  2
ENTITIES
  0
LWPOLYLINE
  5
2F
330
17
100
AcDbEntity
  8
0
100
AcDbPolyline
 90
5
 70
0
 10
0.0
 20
0.0
 10
0.0
 20
255.0
 10
255.0
 20
255.0
 10
255.0
 20
0.0
 10
0.0
 20
0.0
  0
LWPOLYLINE
  5
30
330
17
100
AcDbEntity
  8
0
100
AcDbPolyline
 90
13
 70
0
 10
18.609078862104806
 20
0.0
 10
19.0
 20
0.08920152633217837
 10
20.0
 20
0.2704285975134314
 10
21.0
 20
0.40940037597498335
 10
22.0
 20
0.5153905441166204
 10
23.0
 20
0.5910161723787954
 10
24.0
 20
0.6342753099520009
 10
25.0
 20
0.6407462954768439
 10
26.0
 20
0.6054364082338658
 10
27.0
 20
0.5230293352609647
 10
28.0
 20
0.38456324052613455
 10
29.0
 20
0.16807664226353836
 10
29.516840117512913
 20
0.0
  0
LWPOLYLINE
  5
31
330
17
100
AcDbEntity
  8
0
100
AcDbPolyline
 90
82
 70
0
 10
60.24733093990227
 20
0.0
 10
60.0
 20
0.1124254962747067
 10
59.0
 20
0.5558910502515978
 10
58.10492143652119
 20
1.0
 10
58.0
 20
1.0565030600364012
 10
57.0
 20
1.5720701702745892
 10
56.22979209718239
 20
2.0
 10
56.0
 20
2.1348439886143677
 10
55.0
 20
2.6862712981977768
 10
54.475318254691715
 20
3.0
 10
54.0
 20
3.2871424464514813
 10
53.0
 20
3.857063570619328
 10
52.76942161523024
 20
4.0
 10
52.0
 20
4.458826409891478
 10
51.07385996879473
 20
5.0
 10
51.0
 20
5.045913566212985
 10
50.0
 20
5.613630887672597
 10
49.33164727130378
 20
6.0
 10
49.0
 20
6.196043200232237
 10
48.0
 20
6.7266913941474735
 10
47.510323791438445
 20
7.0
 10
47.0
 20
7.282930302636455
 10
46.0
 20
7.779455682386997
 10
45.582113811726785
 20
8.0
 10
45.0
 20
8.301501203765914
 10
44.0
 20
8.76176363332832
 10
43.51315796511197
 20
9.0
 10
43.0
 20
9.249469527289007
 10
42.0
 20
9.6741209008261
 10
41.26621873948238
 20
10.0
 10
41.0
 20
10.122721941475415
 10
40.0
 20
10.523281625033446
 10
39.0
 20
10.91093176370921
 10
38.78528900610366
 20
11.0
 10
38.0
 20
11.309423375619808
 10
37.0
 20
11.649964485995682
 10
36.013455149243164
 20
12.0
 10
36.0
 20
12.005179980048748
 10
35.0
 20
12.34490646273893
 10
34.0
 20
12.63703554982186
 10
33.0
 20
12.934363782058659
 10
32.78912977858858
 20
13.0
 10
32.0
 20
13.23477017216267
 10
31.0
 20
13.482650420748062
 10
30.0
 20
13.70926591885788
 10
29.0
 20
13.938917737860997
 10
28.735881199276168
 20
14.0
 10
28.0
 20
14.165499448926104
 10
27.0
 20
14.348236106267478
 10
26.0
 20
14.500115155957857
 10
25.0
 20
14.631501575883048
 10
24.0
 20
14.74749454356746
 10
23.0
 20
14.848870512785606
 10
22.0
 20
14.93333772540817
 10
21.0
 20
14.99699331434963
 10
20.921513088474285
 20
15.0
 10
20.0
 20
15.035350842919373
 10
19.0
 20
15.04577487328676
 10
18.0
 20
15.028406282208266
 10
17.38328196676472
 20
15.0
 10
17.0
 20
14.982511853357671
 10
16.0
 20
14.911317948305776
 10
15.0
 20
14.818841457114372
 10
14.0
 20
14.708434549409368
 10
13.0
 20
14.581169804372482
 10
12.0
 20
14.43393143162034
 10
11.0
 20
14.257631520871442
 10
10.000000000000002
 20
14.035623272482361
 10
9.86606183425985
 20
14.0
 10
9.0
 20
13.782375557892669
 10
8.0
 20
13.535770784536474
 10
7.0
 20
13.268832533105705
 10
6.172106040620707
 20
13.0
 10
6.0
 20
12.940945790044811
 10
5.0
 20
12.609622075810186
 10
4.0
 20
12.275502747165769
 10
3.304888430487628
 20
12.0
 10
3.0
 20
11.8745669079463
 10
2.0
 20
11.485666945951031
 10
1.0
 20
11.065861036224955
 10
0.8638949217113339
 20
11.0
 10
0.0
 20
10.604953330735846
  0
LWPOLYLINE
  5
32
330
17
100
AcDbEntity
  8
0
100
AcDbPolyline
 90
23
 70
0
 10
94.47788895781387
 20
0.0
 10
93.99999999999999
 20
0.2889294417592991
 10
93.0
 20
0.7809810187025565
 10
92.52378461740943
 20
1.0
 10
92.0
 20
1.2340099545176595
 10
91.0
 20
1.5601552471764277
 10
90.0
 20
1.8092958468562879
 10
89.0153752185242
 20
2.0
 10
88.99999999999999
 20
2.003187428647992
 10
88.0
 20
2.1223719569639714
 10
87.0
 20
2.158049342237412
 10
85.99999999999999
 20
2.1197609480030115
 10
85.0
 20
2.006814585262797
 10
84.96297658888318
 20
2.0
 10
84.0
 20
1.833828555154947
 10
83.0
 20
1.6268261792216387
 10
82.0
 20
1.385713958780014
 10
81.0
 20
1.0867304847580177
 10
80.75907983332763
 20
1.0
 10
80.0
 20
0.7385767336631717
 10
79.0
 20
0.4141166357725007
 10
78.0
 20
0.06379182619952549
 10
77.83326979228731
 20
0.0
  0
LWPOLYLINE
  5
33
330
17
100
AcDbEntity
  8
0
100
AcDbPolyline
 90
708
 70
0
 10
142.06067773411087
 20
0.0
 10
142.0
 20
0.07319829058107413
 10
141.32092132517056
 20
1.0
 10
141.0
 20
1.4984518076749405
 10
140.69604444690574
 20
2.0
 10
140.2229188187856
 20
3.0
 10
140.0
 20
3.5163188264367435
 10
139.79684998461076
 20
4.0
 10
139.48997889376182
 20
5.0
 10
139.25305686168844
 20
5.999999999999999
 10
139.05579233010906
 20
7.0
 10
139.0
 20
7.360872529866227
 10
138.90236647762904
 20
8.0
 10
138.8105441316172
 20
9.0
 10
138.76776265126148
 20
10.0
 10
138.76543051480874
 20
11.0
 10
138.79852689865268
 20
12.0
 10
138.86424851509236
 20
13.0
 10
138.9615922582963
 20
14.0
 10
139.0
 20
14.306758140495091
 10
139.08554771963296
 20
15.0
 10
139.2159510892495
 20
16.0
 10
139.34680698664616
 20
17.0
 10
139.47689114134383
 20
18.0
 10
139.60749238123512
 20
19.0
 10
139.74072521872827
 20
20.0
 10
139.87779075377156
 20
21.0
 10
140.0
 20
21.879124713486323
 10
140.01756583171732
 20
22.0
 10
140.14183890568287
 20
23.0
 10
140.24037011557436
 20
24.0
 10
140.31543730772736
 20
25.0
 10
140.3684678938071
 20
26.0
 10
140.4001749402642
 20
27.0
 10
140.41085871266654
 20
28.0
 10
140.4006848519065
 20
29.0
 10
140.3697872153811
 20
29.999999999999996
 10
140.31814237627037
 20
31.0
 10
140.24527390963058
 20
32.0
 10
140.14992328776987
 20
33.0
 10
140.02983333091092
 20
34.0
 10
140.0
 20
34.210602029280636
 10
139.89208771537145
 20
35.0
 10
139.7554543380421
 20
36.0
 10
139.62068474483942
 20
37.0
 10
139.48529591693057
 20
38.0
 10
139.34462152650278
 20
39.0
 10
139.1928288441226
 20
40.0
 10
139.0239722528313
 20
41.0
 10
139.0
 20
41.13343127856822
 10
138.85134015556815
 20
42.0
 10
138.69760563335538
 20
43.0
 10
138.55631603136516
 20
44.0
 10
138.42022248561682
 20
45.0
 10
138.28212843651716
 20
46.0
 10
138.13526794849926
 20
47.0
 10
138.0
 20
47.84315487393274
 10
137.97402561407876
 20
48.0
 10
137.81863648477162
 20
49.0
 10
137.67618692430736
 20
50.0
 10
137.5390566431528
 20
51.0
 10
137.39827556595995
 20
52.0
 10
137.24295130581427
 20
53.0
 10
137.05932427444264
 20
54.0
 10
137.0
 20
54.274936423177564
 10
136.84873136321494
 20
55.0
 10
136.64262124428555
 20
56.0
 10
136.42538888866898
 20
57.0
 10
136.16681397179497
 20
58.0
 10
136.0
 20
58.50902387227379
 10
135.83814934768853
 20
59.0
 10
135.50308164227195
 20
60.0
 10
135.10883368424547
 20
61.00000000000001
 10
135.0
 20
61.22032569735115
 10
134.62310943910222
 20
62.0
 10
134.08591070361328
 20
63.0
 10
134.0
 20
63.13117424987661
 10
133.42957765065822
 20
64.0
 10
133.0
 20
64.56345257807851
 10
132.63987380098527
 20
65.0
 10
132.0
 20
65.69568285665397
 10
131.6900402113412
 20
66.0
 10
131.0
 20
66.61221599583659
 10
130.50784610073313
 20
67.0
 10
130.0
 20
67.37169269715166
 10
129.0
 20
67.97930852473341
 10
128.96357004676878
 20
68.0
 10
128.0
 20
68.48735166947984
 10
127.0
 20
68.88857897398152
 10
126.69741666725574
 20
69.0
 10
126.0
 20
69.24504152902765
 10
125.0
 20
69.49395571269824
 10
124.0
 20
69.67846123833851
 10
123.0
 20
69.81799117285684
 10
122.0
 20
69.91529940781788
 10
121.0
 20
69.96808857667669
 10
120.0
 20
69.97593821799639
 10
119.0
 20
69.94283054052428
 10
118.0
 20
69.8764403042102
 10
117.0
 20
69.78580419693026
 10
116.0
 20
69.67880298958572
 10
115.0
 20
69.56042323222634
 10
114.0
 20
69.43224360776576
 10
113.0
 20
69.29313410546158
 10
112.0
 20
69.1408569933308
 10
111.14819930805271
 20
69.0
 10
111.0
 20
68.97463875849408
 10
110.0
 20
68.8208906807204
 10
109.0
 20
68.69154670832556
 10
108.0
 20
68.58358656420066
 10
107.0
 20
68.4950846368226
 10
106.0
 20
68.42563891728994
 10
105.0
 20
68.37614892045768
 10
104.0
 20
68.34815906750362
 10
103.0
 20
68.34308804547307
 10
102.0
 20
68.36166873993986
 10
101.0
 20
68.40384670783402
 10
100.0
 20
68.46924879818806
 10
99.0
 20
68.55817374055545
 10
98.0
 20
68.6729168198704
 10
97.0
 20
68.81916343074018
 10
96.0361611769318
 20
69.0
 10
96.0
 20
69.00719525296297
 10
95.0
 20
69.21562801673379
 10
94.0
 20
69.42168469538004
 10
93.0
 20
69.6389850270131
 10
92.0
 20
69.89136210733409
 10
91.63566279336686
 20
70.0
 10
91.0
 20
70.18665715329583
 10
90.0
 20
70.4633246463327
 10
89.0
 20
70.75063143937021
 10
88.2655860930029
 20
71.0
 10
87.99999999999999
 20
71.09454026920466
 10
87.0
 20
71.43066414569057
 10
86.0
 20
71.77282828853424
 10
85.43994879811993
 20
72.0
 10
85.0
 20
72.18252797335225
 10
84.0
 20
72.57903415235194
 10
83.07296387233109
 20
73.0
 10
83.00000000000001
 20
73.03627879233179
 10
82.0
 20
73.5246959103097
 10
81.13093947623835
 20
74.0
 10
81.0
 20
74.07801675699287
 10
80.0
 20
74.67574121103317
 10
79.52896349400604
 20
75.0
 10
79.0
 20
75.37806115574244
 10
78.19126303560373
 20
76.0
 10
78.0
 20
76.15868876166866
 10
77.0415019024599
 20
77.0
 10
77.0
 20
77.0393070334738
 10
76.04990847701315
 20
78.00000000000001
 10
76.0
 20
78.0535844000503
 10
75.18434145595255
 20
79.0
 10
75.0
 20
79.22476915042078
 10
74.40842521818969
 20
80.0
 10
74.0
 20
80.57203033695129
 10
73.70364151907111
 20
81.0
 10
73.09669987101593
 20
82.00000000000001
 10
73.0
 20
82.15850332008439
 10
72.52617549630841
 20
83.0
 10
72.0172009430336
 20
84.0
 10
72.0
 20
84.03328990476959
 10
71.54713500791176
 20
85.0
 10
71.13457499192036
 20
86.0
 10
71.0
 20
86.31629337607788
 10
70.72214329984139
 20
87.0
 10
70.38604018234685
 20
88.0
 10
70.05790565017944
 20
89.0
 10
70.0
 20
89.1732276067994
 10
69.74023667278179
 20
90.0
 10
69.48525128197487
 20
91.0
 10
69.25463890007987
 20
92.0
 10
69.02439239985597
 20
93.0
 10
69.0
 20
93.10985802518482
 10
68.81276720776431
 20
94.0
 10
68.6487323156537
 20
95.0
 10
68.51844584133028
 20
96.0
 10
68.41442786694245
 20
97.0
 10
68.334378403637
 20
98.00000000000001
 10
68.2794476476848
 20
99.0
 10
68.25245698943267
 20
100.0
 10
68.25630766465778
 20
101.0
 10
68.2929443103017
 20
102.0
 10
68.36334819234868
 20
103.0
 10
68.46909406231731
 20
104.0
 10
68.6159692216006
 20
105.0
 10
68.82009568698615
 20
106.0
 10
69.0
 20
106.63126641422816
 10
69.1082885673122
 20
107.0
 10
69.42826817085755
 20
108.0
 10
69.80738644782625
 20
109.0
 10
70.0
 20
109.38802392342836
 10
70.30957196823954
 20
110.0
 10
70.87222677325853
 20
111.0
 10
71.0
 20
111.1834494849832
 10
71.5881018483239
 20
112.0
 10
72.0
 20
112.48974985199996
 10
72.47461089003723
 20
113.0
 10
73.0
 20
113.5005231577698
 10
73.6043027961418
 20
114.0
 10
74.0
 20
114.30007416337904
 10
74.99999999999999
 20
114.90136422250244
 10
75.18607923275367
 20
115.0
 10
76.0
 20
115.38762660627923
 10
77.0
 20
115.71392571918435
 10
78.0
 20
115.95327084985817
 10
78.32114803766308
 20
116.0
 10
79.0
 20
116.09831578743976
 10
80.0
 20
116.12657177255754
 10
81.0
 20
116.0409048831706
 10
81.19765393320098
 20
116.0
 10
82.0
 20
115.84021488053807
 10
83.0
 20
115.55151691796087
 10
84.0
 20
115.13659659078144
 10
84.23531511569063
 20
115.0
 10
85.0
 20
114.54069909056366
 10
85.7226307113894
 20
114.0
 10
86.0
 20
113.76313308079466
 10
86.76835888476124
 20
113.0
 10
87.0
 20
112.73423159854224
 10
87.5637015054443
 20
112.0
 10
88.0
 20
111.32170150465878
 10
88.19786813154316
 20
111.0
 10
88.66605435296286
 20
110.0
 10
89.0
 20
109.16914118888266
 10
89.06985394420009
 20
109.0
 10
89.37558445609852
 20
108.0
 10
89.59280252934262
 20
107.0
 10
89.76098557044615
 20
106.0
 10
89.89439331215537
 20
105.0
 10
89.997195050508
 20
103.99999999999999
 10
90.0
 20
103.96152770298731
 10
90.06864642135982
 20
103.0
 10
90.11350198956835
 20
102.0
 10
90.142852275657
 20
101.0
 10
90.16621697358437
 20
100.0
 10
90.19221253400956
 20
99.0
 10
90.22865516177794
 20
98.0
 10
90.28241868535851
 20
97.0
 10
90.35953661326994
 20
96.0
 10
90.46631795612984
 20
95.0
 10
90.61248201860238
 20
94.0
 10
90.81740230938169
 20
93.0
 10
91.0
 20
92.37094705924991
 10
91.11037206167403
 20
92.0
 10
91.43936030407045
 20
91.0
 10
91.84010787678397
 20
90.0
 10
92.0
 20
89.6958297836388
 10
92.36844057214557
 20
89.0
 10
92.98203754667627
 20
88.0
 10
93.0
 20
87.97576317588191
 10
93.74243458032896
 20
87.0
 10
94.0
 20
86.71067221769385
 10
94.69541335697429
 20
86.0
 10
95.0
 20
85.71932543195318
 10
95.90367650586379
 20
85.0
 10
96.0
 20
84.92652417681296
 10
97.0
 20
84.29906988810005
 10
97.5405543626639
 20
84.0
 10
98.0
 20
83.75514885869708
 10
99.0
 20
83.35485321808012
 10
100.0
 20
83.01496907091654
 10
100.05081250811534
 20
83.0
 10
101.0
 20
82.73999000840251
 10
102.0
 20
82.56136208553951
 10
103.0
 20
82.44838402545263
 10
104.0
 20
82.38974045801216
 10
105.0
 20
82.38174946385425
 10
106.0
 20
82.4220762511109
 10
107.0
 20
82.5086719144146
 10
108.0
 20
82.64276566829099
 10
109.0
 20
82.83424704760937
 10
109.629442595462
 20
83.0
 10
110.0
 20
83.09933738361222
 10
111.0
 20
83.38355602881046
 10
112.0
 20
83.69593226535235
 10
112.7739165224904
 20
84.0
 10
113.0
 20
84.09403546315116
 10
114.0
 20
84.50497469969969
 10
115.0
 20
84.96436314285077
 10
115.06665437383418
 20
85.0
 10
116.0
 20
85.4705453706951
 10
116.98737516438945
 20
86.0
 10
117.0
 20
86.00740214477024
 10
118.0
 20
86.57213489605849
 10
118.70821084213182
 20
87.0
 10
119.0
 20
87.1835037047458
 10
120.0
 20
87.78257645174354
 10
120.33150709828692
 20
88.0
 10
121.0
 20
88.43001088531096
 10
121.8900042128231
 20
89.0
 10
122.0
 20
89.07419472956286
 10
123.0
 20
89.70127442784145
 10
123.4558948496884
 20
90.0
 10
124.0
 20
90.35184475530349
 10
125.0
 20
90.96211592276204
 10
125.05897758101084
 20
91.0
 10
126.0
 20
91.56002912587186
 10
126.75563969594509
 20
92.0
 10
127.0
 20
92.14568526825809
 10
128.0
 20
92.66727675123363
 10
128.63382918599046
 20
93.0
 10
129.0
 20
93.1930829356084
 10
130.0
 20
93.63980230926586
 10
130.81834977615966
 20
94.0
 10
131.0
 20
94.0830679488997
 10
132.0
 20
94.46221373147148
 10
133.0
 20
94.7879402962425
 10
133.65976063423486
 20
95.0
 10
134.0
 20
95.11102643243206
 10
135.0
 20
95.36569070836875
 10
136.0
 20
95.56168108659807
 10
137.0
 20
95.72017592601861
 10
138.0
 20
95.8467197902418
 10
139.0
 20
95.9377366735052
 10
140.0
 20
95.98683652597036
 10
141.0
 20
95.98981352691779
 10
142.00000000000003
 20
95.94729855663319
 10
143.0
 20
95.86468566507426
 10
144.0
 20
95.74965173161758
 10
145.0
 20
95.60814089812541
 10
146.0
 20
95.44002930115198
 10
147.0
 20
95.23561772784083
 10
147.9063924136816
 20
95.0
 10
148.0
 20
94.9739648086494
 10
149.0
 20
94.69461607436912
 10
150.0
 20
94.42143690461401
 10
151.0
 20
94.116475543543
 10
151.32901624656938
 20
94.0
 10
152.0
 20
93.7676964312749
 10
153.0
 20
93.45073599638735
 10
154.0
 20
93.11915142093427
 10
154.32120390940216
 20
93.0
 10
155.0
 20
92.754828309096
 10
156.0
 20
92.43585603519745
 10
157.0
 20
92.11226825608715
 10
157.31992440018615
 20
92.0
 10
158.0
 20
91.76799948152627
 10
159.0
 20
91.47645414734455
 10
160.0
 20
91.19758464531148
 10
160.6682192005453
 20
91.0
 10
161.0
 20
90.89897172978971
 10
162.0
 20
90.64117805305415
 10
163.0
 20
90.42085780515642
 10
164.0
 20
90.21241213857179
 10
164.999868824175
 20
90.0
 10
164.99999999999997
 20
89.99997006249248
 10
166.0
 20
89.80499381105973
 10
167.0
 20
89.64912975221003
 10
168.0
 20
89.51996881378932
 10
169.0
 20
89.40937286399581
 10
170.0
 20
89.31252837154284
 10
171.0
 20
89.22701962927975
 10
172.0
 20
89.15194755296213
 10
173.0
 20
89.08716022475468
 10
174.0
 20
89.03264585684423
 10
174.73626259574888
 20
88.99999999999999
 10
175.0
 20
88.98810111013437
 10
176.0
 20
88.95394951833481
 10
177.0
 20
88.9285680410522
 10
178.0
 20
88.90933310247433
 10
179.0
 20
88.89369091698008
 10
180.0
 20
88.8791156470341
 10
181.0
 20
88.86311688172563
 10
182.0
 20
88.84329045149455
 10
183.0
 20
88.81740107469977
 10
184.0
 20
88.78347335778922
 10
185.00000000000003
 20
88.739851089464
 10
186.0
 20
88.68516849215527
 10
187.0
 20
88.61816901269057
 10
188.0
 20
88.53731641897866
 10
189.0
 20
88.44017651346616
 10
190.0
 20
88.32260716989582
 10
191.0
 20
88.17786661651951
 10
191.9781670561174
 20
88.0
 10
192.0
 20
87.99579077999796
 10
193.0
 20
87.79569780156949
 10
194.0
 20
87.5998346384745
 10
195.0
 20
87.39752714422741
 10
196.0
 20
87.1709566060479
 10
196.64452097011517
 20
87.0
 10
197.0
 20
86.90328093644453
 10
198.0
 20
86.65009329698367
 10
199.0
 20
86.4112925472058
 10
200.0
 20
86.15922062214675
 10
200.56545187240778
 20
86.0
 10
201.0
 20
85.87598532700277
 10
202.0
 20
85.62293570785181
 10
203.0
 20
85.39155872226209
 10
204.0
 20
85.15478366409272
 10
204.60438324729768
 20
85.0
 10
205.0
 20
84.89671760928665
 10
206.0
 20
84.66944864563085
 10
207.0
 20
84.46935727634536
 10
208.0
 20
84.2763532937046
 10
209.0
 20
84.07421518083855
 10
209.3498376245775
 20
84.0
 10
210.0
 20
83.86400001763867
 10
211.0
 20
83.68272362696833
 10
212.0
 20
83.52093286067968
 10
213.0
 20
83.36592338617122
 10
214.0
 20
83.20632985472865
 10
215.0
 20
83.03192650896786
 10
215.17081611018307
 20
83.0
 10
216.0
 20
82.85008049684198
 10
217.0
 20
82.68543640637012
 10
218.0
 20
82.52885963334595
 10
219.0
 20
82.36883507379468
 10
220.0
 20
82.19185657995006
 10
220.9183786132493
 20
82.0
 10
221.0
 20
81.98191394048148
 10
222.0
 20
81.76356227721472
 10
223.0
 20
81.55391059082854
 10
224.0
 20
81.33238037214961
 10
225.0
 20
81.06885472443074
 10
225.21902771374536
 20
81.0
 10
226.0
 20
80.76358411469477
 10
227.0
 20
80.46867709246709
 10
228.0
 20
80.1348534550053
 10
228.3313054604996
 20
80.0
 10
229.0
 20
79.73191591126543
 10
230.0
 20
79.33256675379788
 10
230.69122094124026
 20
79.0
 10
231.0
 20
78.84295822230182
 10
232.0
 20
78.3349463031792
 10
232.55857022800078
 20
78.0
 10
233.0
 20
77.72306948691194
 10
234.0
 20
77.06241523956137
 10
234.0816244693939
 20
77.0
 10
235.0
 20
76.28543638043786
 10
235.32655844986874
 20
76.0
 10
236.0
 20
75.37021894988874
 10
236.36187257698003
 20
75.0
 10
237.0
 20
74.27581760927356
 10
237.22804492936083
 20
74.0
 10
237.92917340797476
 20
73.0
 10
238.0
 20
72.89132797381701
 10
238.517554046778
 20
72.0
 10
238.9897800857407
 20
71.0
 10
239.0
 20
70.97575771409221
 10
239.36778399497877
 20
70.0
 10
239.62018226849437
 20
69.0
 10
239.7922866443996
 20
68.0
 10
239.8853229536424
 20
67.0
 10
239.88836979243771
 20
66.0
 10
239.7991956615531
 20
65.0
 10
239.62507091825103
 20
64.0
 10
239.36064141252945
 20
63.0
 10
239.0
 20
62.11291941127965
 10
238.94882862273013
 20
61.99999999999999
 10
238.42599229411778
 20
61.0
 10
238.0
 20
60.36933028146065
 10
237.72233715041983
 20
60.0
 10
237.0
 20
59.17534055157223
 10
236.82382020768333
 20
59.00000000000001
 10
236.0
 20
58.284552741778946
 10
235.62046526522417
 20
58.0
 10
235.0
 20
57.5797615196024
 10
234.0
 20
57.04536125245487
 10
233.9048006800223
 20
57.0
 10
233.0
 20
56.61418625687422
 10
232.0
 20
56.318109685398205
 10
231.0
 20
56.091742664860554
 10
230.4260285875058
 20
56.0
 10
230.0
 20
55.93093958989354
 10
229.0
 20
55.85853237398012
 10
228.0
 20
55.86619184491471
 10
227.0
 20
55.95213426823277
 10
226.71339331159254
 20
56.0
 10
226.0
 20
56.11585492714492
 10
225.0
 20
56.32938920920596
 10
224.0
 20
56.59236502986967
 10
223.0
 20
56.943536661710326
 10
222.8740222000175
 20
57.0
 10
222.0
 20
57.376101614881435
 10
221.0
 20
57.846187423593534
 10
220.73259410885836
 20
58.0
 10
220.0
 20
58.41947193504552
 10
219.06573494885586
 20
59.0
 10
219.0
 20
59.044813761268976
 10
218.0
 20
59.728920550405334
 10
217.64348802365214
 20
60.0
 10
217.0
 20
60.49810912579983
 10
216.38325007388613
 20
61.0
 10
216.0
 20
61.32349482601279
 10
215.21640915111607
 20
62.0
 10
215.0
 20
62.193814536278225
 10
214.1075633332804
 20
63.0
 10
214.0
 20
63.09998020344568
 10
213.03131499472366
 20
64.0
 10
212.99999999999997
 20
64.02964540605956
 10
212.0
 20
64.96765661594459
 10
211.9658898798668
 20
65.0
 10
211.0
 20
65.8995727027967
 10
210.89242056514172
 20
66.0
 10
210.0
 20
66.81186898280386
 10
209.79218967488896
 20
67.0
 10
209.0
 20
67.69494155154732
 10
208.64718002464758
 20
68.0
 10
208.0
 20
68.54263767501327
 10
207.4369673391497
 20
69.0
 10
207.00000000000003
 20
69.34867526894105
 10
206.130312138148
 20
70.0
 10
206.0
 20
70.09893497155142
 10
205.0
 20
70.78377789846346
 10
204.68467770295126
 20
71.0
 10
204.0
 20
71.44809445941833
 10
203.0861683986503
 20
72.0
 10
203.0
 20
72.05415095986073
 10
202.0
 20
72.60145554938822
 10
201.24027979082305
 20
73.0
 10
201.0
 20
73.1295102240697
 10
200.0
 20
73.58417527551251
 10
199.0399082761616
 20
74.0
 10
199.0
 20
74.01850922202394
 10
198.0
 20
74.41088981238737
 10
197.0
 20
74.73901693051673
 10
196.20106669491196
 20
75.0
 10
196.0
 20
75.06884670086168
 10
195.0
 20
75.34607667451755
 10
194.0
 20
75.56457747392534
 10
193.0
 20
75.75186771091516
 10
192.0
 20
75.91803438395505
 10
191.4126026164999
 20
76.0
 10
190.99999999999997
 20
76.0587922824605
 10
190.0
 20
76.15236825482428
 10
189.0
 20
76.19931505612774
 10
188.0
 20
76.20166994881473
 10
187.0
 20
76.15715444370869
 10
186.0
 20
76.05841872552149
 10
185.63754467000015
 20
76.0
 10
185.0
 20
75.89998474204286
 10
184.0
 20
75.70294208909303
 10
183.0
 20
75.46313292806391
 10
182.0
 20
75.14454495429152
 10
181.663819952634
 20
75.0
 10
181.0
 20
74.71596431421325
 10
180.0
 20
74.23756512276267
 10
179.61449947422756
 20
74.0
 10
179.0
 20
73.6051562110397
 10
178.1899560744414
 20
73.0
 10
178.0
 20
72.84062506052445
 10
177.1137473314073
 20
72.0
 10
177.0
 20
71.87744298058121
 10
176.28470010873173
 20
71.0
 10
176.0
 20
70.59384923374449
 10
175.61930857539508
 20
70.0
 10
175.13394201199637
 20
69.0
 10
175.0
 20
68.6789645344672
 10
174.73322717838363
 20
68.0
 10
174.48152963819598
 20
67.0
 10
174.3297444429722
 20
66.0
 10
174.26488259859872
 20
65.0
 10
174.28824093628887
 20
64.0
 10
174.39896478452107
 20
63.0
 10
174.60022501750538
 20
62.0
 10
174.92652203304465
 20
61.0
 10
175.0
 20
60.8420929484966
 10
175.38451578438014
 20
60.0
 10
175.95918463141783
 20
59.0
 10
176.0
 20
58.94393101581988
 10
176.71933943046025
 20
58.0
 10
177.0
 20
57.69339177217508
 10
177.7212736880405
 20
57.0
 10
178.0
 20
56.759766856937176
 10
179.0
 20
56.054281506394915
 10
179.08598923976228
 20
56.0
 10
180.0
 20
55.4909165082218
 10
181.0
 20
55.06160690490155
 10
181.16420711875844
 20
55.0
 10
182.0
 20
54.70901126175801
 10
183.0
 20
54.479991616608814
 10
184.0
 20
54.3271941922424
 10
185.0
 20
54.23533166346873
 10
186.0
 20
54.20153511559357
 10
187.0
 20
54.222668743885166
 10
188.0
 20
54.291494589448206
 10
189.0
 20
54.39902963048698
 10
190.0
 20
54.53929311650437
 10
191.0
 20
54.713113654402726
 10
192.0
 20
54.92912014504919
 10
192.27993650916548
 20
55.0
 10
193.0
 20
55.17560728352722
 10
194.0
 20
55.39994301675935
 10
195.0
 20
55.61181475922271
 10
196.0
 20
55.824473841389214
 10
196.80969934501044
 20
56.0
 10
197.0
 20
56.042831088034745
 10
198.0
 20
56.22343662006027
 10
199.0
 20
56.352879557317294
 10
200.0
 20
56.435365431577
 10
201.0
 20
56.46923762138035
 10
202.0
 20
56.44902720672975
 10
203.0
 20
56.36608924613864
 10
204.0
 20
56.20382240280408
 10
204.74718760815705
 20
55.99999999999999
 10
205.0
 20
55.927273088215976
 10
206.0
 20
55.572187473469086
 10
207.0
 20
55.09986051790417
 10
207.15678676670723
 20
55.0
 10
208.0
 20
54.43736985550764
 10
208.5222328240534
 20
54.0
 10
209.0
 20
53.53325075763654
 10
209.46438766674225
 20
53.0
 10
210.0
 20
52.217239690333614
 10
210.13919624797282
 20
52.0
 10
210.5861250302633
 20
51.0
 10
210.88034611546465
 20
50.0
 10
211.0
 20
49.31863183054483
 10
211.0575066415119
 20
49.0
 10
211.0916944205789
 20
48.0
 10
211.00000000000003
 20
47.15781296378256
 10
210.9827453180192
 20
46.99999999999999
 10
210.74878445188105
 20
46.0
 10
210.4038872492932
 20
45.0
 10
210.0
 20
44.22552682765364
 10
209.86760911663154
 20
44.0
 10
209.17444834636547
 20
43.0
 10
209.0
 20
42.798466368387686
 10
208.22659889884255
 20
42.0
 10
208.0
 20
41.79364487850896
 10
207.00000000000003
 20
41.0261374619375
 10
206.96269079024987
 20
41.0
 10
206.0
 20
40.405794123846874
 10
205.2395848797375
 20
40.0
 10
205.0
 20
39.871889311810456
 10
204.0
 20
39.448351143308145
 10
203.0
 20
39.076509542931134
 10
202.79147288554861
 20
39.0
 10
202.0
 20
38.726704726428075
 10
201.0
 20
38.44959006114494
 10
200.0
 20
38.189063508363034
 10
199.31940273156056
 20
38.0
 10
199.0
 20
37.90910991794211
 10
198.0
 20
37.65730748295351
 10
197.0
 20
37.422869353941216
 10
196.0
 20
37.16814506735075
 10
195.44428386566545
 20
37.0
 10
195.0
 20
36.86434163114832
 10
194.0
 20
36.5703882341434
 10
193.0
 20
36.25803416456748
 10
192.32975728360475
 20
36.0
 10
192.0
 20
35.8682140478655
 10
191.0
 20
35.47432014586434
 10
190.0
 20
35.0208574194169
 10
189.96108853071124
 20
34.99999999999999
 10
189.0
 20
34.512622371177876
 10
188.08832770819734
 20
34.0
 10
188.0
 20
33.945763984823586
 10
187.0
 20
33.33179932382045
 10
186.52344564882395
 20
33.0
 10
186.0
 20
32.62427218899569
 10
185.17753640096885
 20
32.0
 10
185.0
 20
31.85604628833447
 10
184.0
 20
31.021130743617103
 10
183.97657831727918
 20
30.999999999999996
 10
183.00000000000003
 20
30.098965473489358
 10
182.8985023270194
 20
30.0
 10
181.99999999999997
 20
29.08858438051328
 10
181.91545807315913
 20
29.0
 10
181.01067854334266
 20
28.0
 10
181.0
 20
27.98799763175822
 10
180.16735375011436
 20
27.0
 10
180.0
 20
26.79901680817332
 10
179.36415676903792
 20
26.0
 10
179.0
 20
25.53225541049851
 10
178.59420118539754
 20
25.0
 10
178.0
 20
24.180470108320137
 10
177.86649120632947
 20
24.0
 10
177.19017762800996
 20
23.0
 10
177.0
 20
22.72668615280159
 10
176.5137749632454
 20
22.0
 10
176.0
 20
21.204279706731704
 10
175.86393994531787
 20
21.0
 10
175.26121759307364
 20
20.0
 10
175.0
 20
19.582529075512696
 10
174.6419848603306
 20
19.0
 10
174.06984464381628
 20
18.0
 10
174.0
 20
17.885380894076683
 10
173.49272071975997
 20
17.0
 10
173.0
 20
16.122674271925227
 10
172.9271553653906
 20
16.0
 10
172.38841430798686
 20
15.0
 10
172.0
 20
14.30026476701767
 10
171.82792369255387
 20
14.0
 10
171.3067276590625
 20
13.0
 10
171.0
 20
12.450600363033669
 10
170.74568375949065
 20
12.0
 10
170.2227666219037
 20
11.0
 10
170.0
 20
10.61252485382272
 10
169.65188034491405
 20
10.0
 10
169.1044006553861
 20
9.0
 10
169.0
 20
8.828477342733908
 10
168.51495925916177
 20
8.0
 10
168.0
 20
7.144062094353792
 10
167.90756556678397
 20
7.0
 10
167.29241551232818
 20
6.0
 10
167.0
 20
5.5672161788784695
 10
166.61218134928197
 20
5.0
 10
166.0
 20
4.129660942089295
 10
165.90251498495374
 20
4.0
 10
165.15151150823965
 20
3.0
 10
165.0
 20
2.816332424411825
 10
164.31580171695006
 20
2.0
 10
164.0
 20
1.6487226770001158
 10
163.39087528394433
 20
1.0
 10
163.0
 20
0.6080558679655119
 10
162.35387716674862
 20
0.0
  0
LWPOLYLINE
  5
34
330
17
100
AcDbEntity
  8
0
100
AcDbPolyline
 90
6
 70
0
 10
187.47529647164077
 20
0.0
 10
188.0
 20
0.11139470671088036
 10
189.0
 20
0.2037766236201326
 10
190.0
 20
0.19043313926770444
 10
191.0
 20
0.0705360858177233
 10
191.30049659768693
 20
0.0
  0
LWPOLYLINE
  5
35
330
17
100
AcDbEntity
  8
0
100
AcDbPolyline
 90
128
 70
0
 10
211.22613744296086
 20
0.0
 10
211.00000000000003
 20
0.19449468982169887
 10
210.0
 20
0.9928249091473251
 10
209.99103599811937
 20
1.0
 10
209.0
 20
1.7435263514846053
 10
208.65847447821352
 20
2.0
 10
208.0
 20
2.480629203361297
 10
207.27290562572102
 20
3.0
 10
207.0
 20
3.1993538080449904
 10
206.0
 20
3.8919472704455074
 10
205.85425061648084
 20
4.0
 10
205.0
 20
4.616507195324942
 10
204.49226201502546
 20
5.0
 10
204.0
 20
5.380177598220759
 10
203.22127959431037
 20
6.0
 10
203.0
 20
6.186117205124042
 10
202.06582466676562
 20
7.0
 10
202.0
 20
7.061377179125453
 10
201.05036446368698
 20
8.0
 10
201.0
 20
8.05324548837135
 10
200.17800432568788
 20
9.0
 10
200.0
 20
9.220536534743939
 10
199.42559152274663
 20
10.0
 10
199.0
 20
10.652318544604558
 10
198.780684522515
 20
11.0
 10
198.28362133007022
 20
12.0
 10
198.0
 20
12.64287969059201
 10
197.84384540668856
 20
13.0
 10
197.5322751564387
 20
14.0
 10
197.31851385402388
 20
15.0
 10
197.17968501686835
 20
16.0
 10
197.12199451933478
 20
17.0
 10
197.154315803823
 20
18.0
 10
197.27509793572986
 20
19.0
 10
197.48044689256358
 20
20.0
 10
197.7940128268798
 20
21.0
 10
198.0
 20
21.441874276242544
 10
198.27140805454997
 20
22.0
 10
198.85873084112197
 20
23.0
 10
199.0
 20
23.185864604393775
 10
199.67460898819277
 20
24.0
 10
200.0
 20
24.32913434593513
 10
200.7883143304416
 20
25.0
 10
201.0
 20
25.163630339091924
 10
202.0
 20
25.755528460086754
 10
202.50635349295447
 20
26.0
 10
203.0
 20
26.22588195409947
 10
204.0
 20
26.519253207285054
 10
205.0
 20
26.691865718881985
 10
206.0
 20
26.762000748517025
 10
207.0
 20
26.728329632143655
 10
208.0
 20
26.593935154268443
 10
209.0
 20
26.35576786952894
 10
209.92234059704518
 20
26.0
 10
210.0
 20
25.96652544416995
 10
211.0
 20
25.463006547871714
 10
211.71704334124547
 20
25.0
 10
212.0
 20
24.79690474101627
 10
212.98174289411426
 20
24.0
 10
213.00000000000003
 20
23.9832817330862
 10
213.97256654631906
 20
23.0
 10
214.0
 20
22.969807083989963
 10
214.8021888707035
 20
22.0
 10
215.0
 20
21.747700876127475
 10
215.54860853552663
 20
21.0
 10
216.0
 20
20.351178602100617
 10
216.24319795639445
 20
20.0
 10
216.87819637697638
 20
19.0
 10
217.0
 20
18.81969703143925
 10
217.53183486689025
 20
18.0
 10
218.0
 20
17.30129489348645
 10
218.2102447202348
 20
17.0
 10
218.9074161630578
 20
16.0
 10
219.0
 20
15.881463441895908
 10
219.69654598484937
 20
15.0
 10
220.0
 20
14.652695402939568
 10
220.607804396458
 20
14.0
 10
221.0
 20
13.614529129234622
 10
221.69592386541257
 20
13.0
 10
222.0
 20
12.749174142367792
 10
223.0
 20
12.05888699475556
 10
223.09307492119572
 20
12.0
 10
224.0
 20
11.490228000096593
 10
225.0
 20
11.050935423763047
 10
225.13322972920847
 20
11.0
 10
226.0
 20
10.694768197187464
 10
227.0
 20
10.469198277452401
 10
228.0
 20
10.329617645021857
 10
229.0
 20
10.265279082998276
 10
230.0
 20
10.27540653779343
 10
231.0
 20
10.356437112750086
 10
232.0
 20
10.50352821958203
 10
233.0
 20
10.722636821701506
 10
233.86846077653095
 20
11.0
 10
234.0
 20
11.044962517402139
 10
235.0
 20
11.415250507746734
 10
236.0
 20
11.835104270611176
 10
236.31686667574638
 20
12.0
 10
237.0
 20
12.351645324443094
 10
238.0
 20
12.888291859002111
 10
238.17925743079329
 20
13.0
 10
239.0
 20
13.496568958228128
 10
239.78758990496243
 20
14.0
 10
240.0
 20
14.14305584951015
 10
241.0
 20
14.789941366164493
 10
241.2995231342533
 20
15.0
 10
242.0
 20
15.480913977412015
 10
242.75308070431146
 20
16.0
 10
243.0
 20
16.17516857772212
 10
244.00000000000003
 20
16.839065341710544
 10
244.22984798282812
 20
17.0
 10
245.0
 20
17.51665613768266
 10
245.7312237056073
 20
18.0
 10
246.0
 20
18.181119973776966
 10
247.0
 20
18.795549638841813
 10
247.3177395882512
 20
19.0
 10
248.0
 20
19.42239918670695
 10
248.9793298435036
 20
20.0
 10
249.0
 20
20.012916058919203
 10
250.0
 20
20.579268282779424
 10
250.74295336776692
 20
21.0
 10
251.0
 20
21.14966514755945
 10
252.0
 20
21.670790271853466
 10
252.60324992548016
 20
22.0
 10
253.0
 20
22.2184046182797
 10
254.0
 20
22.713152395064
 10
254.5418984389231
 20
23.0
 10
255.0
 20
23.242652310597336
  0
LWPOLYLINE
  5
36
330
17
100
AcDbEntity
  8
0
100
AcDbPolyline
 90
23
 70
0
 10
255.0
 20
10.147668928007263
 10
254.7207770031304
 20
10.0
 10
254.0
 20
9.629361932136197
 10
252.99999999999997
 20
9.11466017334048
 10
252.80559204295648
 20
9.0
 10
252.0
 20
8.540621101003275
 10
251.0985214707985
 20
8.0
 10
251.0
 20
7.936294212085025
 10
250.0
 20
7.303408080457469
 10
249.5696982003504
 20
7.0
 10
249.0
 20
6.590100145420124
 10
248.22303879463956
 20
6.0
 10
248.0
 20
5.819611436523146
 10
247.02648810507654
 20
5.0
 10
247.0
 20
4.975962249536364
 10
246.0
 20
4.019133662385219
 10
245.98126984741364
 20
4.0
 10
245.07991807565276
 20
3.0
 10
245.0
 20
2.9058391444525378
 10
244.29701874170536
 20
2.0
 10
244.0
 20
1.5852811086219378
 10
243.6048967379798
 20
1.0
 10
243.03170821489684
 20
0.0
  0
LWPOLYLINE
  5
37
330
17
100
AcDbEntity
  8
0
100
AcDbPolyline
 90
258
 70
0
 10
0.0
 20
23.72072530770597
 10
0.541502395755963
 20
24.0
 10
1.0
 20
24.236888368238134
 10
2.0
 20
24.702291571521222
 10
2.59441726004645
 20
25.0
 10
3.0
 20
25.20537201289936
 10
4.0
 20
25.657190403773754
 10
4.71686279424094
 20
26.0
 10
5.0
 20
26.13969419126972
 10
6.0
 20
26.574108286034022
 10
6.967524098106475
 20
27.0
 10
7.0
 20
27.015374371104972
 10
8.0
 20
27.43268056748255
 10
9.0
 20
27.807803212581604
 10
9.487344519208241
 20
28.0
 10
10.0
 20
28.199871967406608
 10
11.0
 20
28.522354533001547
 10
12.0
 20
28.817132423859633
 10
12.614382203017389
 20
29.0
 10
13.0
 20
29.116063135831595
 10
14.0
 20
29.356293197773375
 10
15.0
 20
29.547633846894268
 10
16.0
 20
29.709703549365877
 10
17.0
 20
29.85023344354923
 10
18.0
 20
29.9689336239364
 10
18.342681700862045
 20
30.0
 10
19.0
 20
30.059149237748876
 10
20.0
 20
30.113455911878514
 10
21.0
 20
30.136476540697913
 10
22.0
 20
30.131642744253362
 10
23.0
 20
30.100997195137747
 10
24.0
 20
30.045502365932304
 10
24.573423246628465
 20
30.0
 10
25.0
 20
29.966013848627735
 10
26.0
 20
29.871964357286444
 10
27.0
 20
29.76980812455048
 10
28.0
 20
29.662573541274483
 10
29.0
 20
29.551050142993873
 10
30.0
 20
29.433863779366845
 10
31.0
 20
29.307871399163133
 10
32.0
 20
29.168765278893567
 10
33.0
 20
29.011757461513703
 10
33.069696702433504
 20
29.0
 10
34.0
 20
28.849411901961318
 10
35.0
 20
28.70177935636186
 10
36.0
 20
28.56390388293075
 10
37.0
 20
28.429613844076002
 10
38.0
 20
28.29227410727634
 10
39.0
 20
28.145316016633835
 10
39.898174188591014
 20
28.000000000000004
 10
40.0
 20
27.982725302743436
 10
41.00000000000001
 20
27.822959433548473
 10
42.0
 20
27.6779413964061
 10
43.0
 20
27.541062976275715
 10
44.0
 20
27.40500787671494
 10
45.0
 20
27.261919425746044
 10
46.0
 20
27.1035797357402
 10
46.584611436297834
 20
27.0
 10
47.0
 20
26.925392227899376
 10
48.0
 20
26.75591665069592
 10
49.0
 20
26.59683063151153
 10
50.0
 20
26.439208522112374
 10
51.0
 20
26.27237030893395
 10
52.0
 20
26.084253800076738
 10
52.397733041058224
 20
26.0
 10
53.0
 20
25.87360983360077
 10
54.0
 20
25.678973711494123
 10
55.0
 20
25.49412086324204
 10
56.0
 20
25.3044841011014
 10
57.0
 20
25.093723912328848
 10
57.39738567081155
 20
25.0
 10
58.0
 20
24.85933478136687
 10
59.0
 20
24.64718976031025
 10
60.0
 20
24.44758624049967
 10
61.0
 20
24.242096611329085
 10
62.0
 20
24.012054792859402
 10
62.0487394631637
 20
24.0
 10
63.0
 20
23.778285578595195
 10
64.0
 20
23.572226922319196
 10
65.0
 20
23.375650253471782
 10
66.0
 20
23.170560623492324
 10
66.7561906190485
 20
23.0
 10
67.0
 20
22.94281207515516
 10
68.0
 20
22.731475032323313
 10
69.0
 20
22.544530377935963
 10
70.0
 20
22.36658309003779
 10
71.0
 20
22.18382415483874
 10
71.9285940210333
 20
22.0
 10
72.0
 20
21.985014216196056
 10
73.0
 20
21.794612490995227
 10
74.0
 20
21.629560149294903
 10
75.0
 20
21.47917691755234
 10
76.0
 20
21.334133953387255
 10
77.0
 20
21.186919556526192
 10
78.0
 20
21.032210521564426
 10
78.20455866136746
 20
21.0
 10
79.0
 20
20.877736247144384
 10
80.0
 20
20.74438106090262
 10
81.0
 20
20.627616233871386
 10
82.0
 20
20.522755851713022
 10
83.0
 20
20.426091377606586
 10
84.0
 20
20.335001925790003
 10
85.0
 20
20.248013191463148
 10
86.0
 20
20.16480128693383
 10
87.0
 20
20.086137402641924
 10
88.0
 20
20.013765310582244
 10
88.22044445324784
 20
20.0
 10
89.0
 20
19.95146201042623
 10
90.0
 20
19.90456832602882
 10
90.99999999999999
 20
19.873381757641706
 10
92.0
 20
19.858509277916298
 10
93.0
 20
19.8612354092351
 10
94.0
 20
19.883691411018237
 10
95.0
 20
19.929183156453078
 10
95.96297654810294
 20
20.0
 10
96.0
 20
20.002751410840933
 10
97.0
 20
20.102356868774354
 10
98.0
 20
20.223939182624758
 10
99.0
 20
20.36837470098815
 10
100.0
 20
20.5427453544092
 10
101.0
 20
20.76661488497104
 10
101.76150016730932
 20
21.0
 10
102.0
 20
21.076592119054734
 10
103.0
 20
21.421971986820225
 10
104.0
 20
21.82953697101774
 10
104.32115068878457
 20
22.0
 10
105.0
 20
22.36423737627926
 10
106.0
 20
22.987450493256777
 10
106.01663263516384
 20
23.0
 10
107.0
 20
23.771917352342427
 10
107.24636331811583
 20
24.0
 10
108.0
 20
24.78995999046601
 10
108.18069866295265
 20
25.0
 10
108.87920680299347
 20
26.0
 10
109.0
 20
26.19823127560322
 10
109.43591548377644
 20
27.0
 10
109.8238072143755
 20
28.0
 10
110.0
 20
28.568774417002324
 10
110.13342093716935
 20
29.0
 10
110.31511211310237
 20
29.999999999999996
 10
110.39232682069331
 20
31.0
 10
110.38253126430426
 20
32.0
 10
110.2896817346963
 20
33.0
 10
110.10580049115447
 20
34.0
 10
110.0
 20
34.37523317797493
 10
109.82719707444093
 20
35.0
 10
109.51473226639615
 20
36.0
 10
109.13789862562777
 20
37.0
 10
109.0
 20
37.29495368185898
 10
108.67844454643695
 20
38.0
 10
108.22652966404719
 20
39.0
 10
108.0
 20
39.44026851917525
 10
107.71502584330821
 20
40.0
 10
107.25472886076638
 20
41.0
 10
107.0
 20
41.52906735887506
 10
106.7754140194867
 20
42.0
 10
106.3868828217598
 20
43.0
 10
106.03703033821667
 20
44.0
 10
105.99999999999999
 20
44.11890440178511
 10
105.74429608746118
 20
45.0
 10
105.56205116454842
 20
46.0
 10
105.46919838736505
 20
47.0
 10
105.46556930255997
 20
48.0
 10
105.55970589288486
 20
49.0
 10
105.77314995635588
 20
50.0
 10
106.0
 20
50.603087115495796
 10
106.15886229409139
 20
51.0
 10
106.674353379812
 20
52.0
 10
107.0
 20
52.449699069593265
 10
107.45638887464725
 20
53.0
 10
108.0
 20
53.530909285832536
 10
108.59887473355616
 20
54.0
 10
109.0
 20
54.27842594896583
 10
109.99999999999999
 20
54.76665129570776
 10
110.63175912653014
 20
55.0
 10
111.0
 20
55.13376430388732
 10
112.0
 20
55.34237180663168
 10
113.0
 20
55.425956774793825
 10
114.0
 20
55.40706501065245
 10
115.0
 20
55.28856633374628
 10
116.0
 20
55.05289421438673
 10
116.147731779369
 20
55.0
 10
117.0
 20
54.705896868351665
 10
118.0
 20
54.28993038779365
 10
118.51823905884802
 20
54.0
 10
119.0
 20
53.71432755520677
 10
120.0
 20
53.045178211917765
 10
120.05671875443764
 20
53.0
 10
121.0
 20
52.21680907184856
 10
121.2307206088022
 20
52.0
 10
122.0
 20
51.21230020076812
 10
122.19250653221852
 20
51.0
 10
122.99557491981142
 20
50.00000000000001
 10
123.0
 20
49.994194597891756
 10
123.67952855326541
 20
49.0
 10
124.0
 20
48.49226201605719
 10
124.2984212945545
 20
48.0
 10
124.79979197629663
 20
47.0
 10
125.0
 20
46.5909655670457
 10
125.2773588777041
 20
46.0
 10
125.65041704421574
 20
45.0
 10
126.0
 20
44.00517699809303
 10
126.0019485399861
 20
44.0
 10
126.30732402511526
 20
43.0
 10
126.53956722692388
 20
42.0
 10
126.73550744659715
 20
41.0
 10
126.9109139931836
 20
40.0
 10
127.0
 20
39.419616480657595
 10
127.06490511975883
 20
39.0
 10
127.1759334443856
 20
38.0
 10
127.24901640143209
 20
37.0
 10
127.2909055928933
 20
36.0
 10
127.30557284433151
 20
35.0
 10
127.29534434284146
 20
34.0
 10
127.261413943507
 20
33.0
 10
127.20391694229356
 20
32.0
 10
127.121739084582
 20
31.0
 10
127.0122031987525
 20
30.0
 10
127.0
 20
29.909354120321414
 10
126.88159499828862
 20
29.0
 10
126.7453930029545
 20
28.0
 10
126.60416298870706
 20
27.0
 10
126.45416419526778
 20
26.0
 10
126.28718871557138
 20
25.0
 10
126.09061033525329
 20
24.0
 10
126.0
 20
23.606401394992375
 10
125.86164143540334
 20
23.0
 10
125.64436035050659
 20
22.0
 10
125.42960741396521
 20
21.0
 10
125.1946196709005
 20
20.0
 10
124.99999999999999
 20
19.29592860936254
 10
124.91506031169737
 20
19.0
 10
124.64495945198607
 20
18.0
 10
124.38463590903115
 20
17.0
 10
124.09550258246645
 20
16.0
 10
124.0
 20
15.71211223492059
 10
123.77051291277874
 20
15.0
 10
123.47462992673672
 20
14.0
 10
123.1644605859053
 20
13.0
 10
123.0
 20
12.539612998859731
 10
122.80741639990572
 20
12.0
 10
122.48134005848645
 20
11.0
 10
122.14209742541607
 20
10.0
 10
122.0
 20
9.634473575636978
 10
121.75761062791626
 20
9.0
 10
121.40666899503768
 20
8.0
 10
121.0210448064926
 20
7.0
 10
121.0
 20
6.951566333419809
 10
120.61468504654295
 20
6.0
 10
120.22227049984109
 20
5.0
 10
120.0
 20
4.511919821398431
 10
119.76490432931118
 20
4.0
 10
119.32789924349666
 20
3.0
 10
119.0
 20
2.3486117797826997
 10
118.81689728232837
 20
2.0
 10
118.30507027074364
 20
1.0
 10
118.0
 20
0.4866746491575735
 10
117.70136655806016
 20
0.0
  0
LWPOLYLINE
  5
38
330
17
100
AcDbEntity
  8
0
100
AcDbPolyline
 90
85
 70
0
 10
255.0
 20
32.22210696752544
 10
254.4097117875147
 20
32.0
 10
254.0
 20
31.843546767644078
 10
253.0
 20
31.49619003945132
 10
252.0
 20
31.137954046025545
 10
251.66253640034557
 20
31.0
 10
251.0
 20
30.736829786281593
 10
250.0
 20
30.373228276450874
 10
249.0650831641342
 20
30.0
 10
249.0
 20
29.972032498453906
 10
248.0
 20
29.580602083519537
 10
247.0
 20
29.21444109558357
 10
246.46303168138093
 20
29.0
 10
246.0
 20
28.81516752755509
 10
245.0
 20
28.474589539154096
 10
244.0
 20
28.154104841496938
 10
243.530160685826
 20
28.0
 10
243.0
 20
27.828525867914557
 10
242.0
 20
27.57461206570645
 10
241.0
 20
27.37367962060011
 10
240.0
 20
27.21197753618272
 10
239.0
 20
27.094112343575187
 10
238.0
 20
27.034878631304952
 10
236.99999999999997
 20
27.048302117733865
 10
236.0
 20
27.13895288992207
 10
235.0
 20
27.302679432838403
 10
234.0
 20
27.542592427094128
 10
233.0
 20
27.90242825346501
 10
232.8082394719598
 20
28.0
 10
232.0
 20
28.415711515544814
 10
231.1112169143422
 20
29.0
 10
231.0
 20
29.085430179274987
 10
230.0
 20
29.998307105854106
 10
229.99841222473816
 20
30.0
 10
229.23243529272435
 20
31.000000000000004
 10
229.0
 20
31.378364214334876
 10
228.65644989929507
 20
32.0
 10
228.29309385964714
 20
33.0
 10
228.04747446329466
 20
34.00000000000001
 10
228.0
 20
34.36921671504081
 10
227.91849836460565
 20
35.0
 10
227.9237555917228
 20
36.0
 10
228.0
 20
36.557976850659564
 10
228.0597656921078
 20
37.0
 10
228.30083095532663
 20
38.0
 10
228.6411127450491
 20
39.0
 10
229.0
 20
39.71732873663987
 10
229.155447940534
 20
40.0
 10
229.7848609971624
 20
41.0
 10
230.0
 20
41.273731908476776
 10
230.61465204915956
 20
42.0
 10
231.0
 20
42.39874933285967
 10
231.64684631709946
 20
43.0
 10
232.0
 20
43.3028179465676
 10
232.93043729190055
 20
44.0
 10
233.0
 20
44.05131371429639
 10
234.00000000000003
 20
44.680411033018096
 10
234.5421314858275
 20
45.0
 10
235.0
 20
45.26280604000554
 10
235.99999999999997
 20
45.740954839181235
 10
236.54320649187866
 20
46.0
 10
237.0
 20
46.215550326496434
 10
238.0
 20
46.607368887273566
 10
239.0
 20
46.9939421807537
 10
239.01519889712506
 20
47.0
 10
240.0
 20
47.35857053729864
 10
241.0
 20
47.67237893649376
 10
241.99092764089917
 20
48.0
 10
242.0
 20
48.00323786329694
 10
243.0
 20
48.320989385653554
 10
244.0
 20
48.59844382699862
 10
245.00000000000003
 20
48.88427646357328
 10
245.37078099132574
 20
49.0
 10
246.0
 20
49.19162115290548
 10
247.0
 20
49.45691264170273
 10
248.0
 20
49.709485369973166
 10
249.0
 20
49.982867987190154
 10
249.0596218010637
 20
50.0
 10
250.0
 20
50.2516135976637
 10
251.0
 20
50.47838343369652
 10
252.0
 20
50.68740113368268
 10
253.0
 20
50.89459553371454
 10
253.51870581333463
 20
51.0
 10
254.0
 20
51.09787402361392
 10
255.0
 20
51.255817432294684
  0
LWPOLYLINE
  5
39
330
17
100
AcDbEntity
  8
0
100
AcDbPolyline
 90
45
 70
0
 10
0.0
 20
51.369233313494895
 10
1.0
 20
51.44126100104418
 10
2.0
 20
51.4699750119929
 10
3.0
 20
51.45013693810973
 10
4.0
 20
51.37359422794517
 10
5.0
 20
51.22538093524318
 10
5.897877480548652
 20
51.0
 10
6.0
 20
50.97254966362717
 10
7.0
 20
50.6374946337626
 10
8.0
 20
50.209018375275356
 10
8.35066134049107
 20
50.0
 10
9.0
 20
49.58770244663251
 10
9.743689943217221
 20
49.0
 10
10.0
 20
48.76198057925255
 10
10.687113416509028
 20
48.0
 10
11.0
 20
47.569432667004655
 10
11.36566404231322
 20
47.0
 10
11.803536800295731
 20
46.0
 10
12.0
 20
45.37740748454129
 10
12.118421344458557
 20
45.0
 10
12.270984189165835
 20
44.0
 10
12.284440610379479
 20
43.0
 10
12.16477300637637
 20
42.0
 10
12.0
 20
41.39583927686776
 10
11.888847899879877
 20
41.00000000000001
 10
11.50196197209939
 20
40.0
 10
11.0
 20
39.09678171014474
 10
10.937897944693594
 20
39.0
 10
10.193157759564478
 20
38.0
 10
10.0
 20
37.7875003486472
 10
9.19420632498659
 20
37.0
 10
9.0
 20
36.82900240066246
 10
8.0
 20
36.08335254148295
 10
7.879553947276714
 20
36.0
 10
7.0
 20
35.45318566412148
 10
6.171640903393203
 20
35.0
 10
6.0
 20
34.90442119289437
 10
5.0
 20
34.44539588293582
 10
4.0
 20
34.02006889221009
 10
3.953880089616226
 20
34.00000000000001
 10
3.0
 20
33.620227892687176
 10
2.0
 20
33.27326161924611
 10
1.2681421667424968
 20
33.0
 10
1.0
 20
32.896278579305736
 10
0.0
 20
32.55363052624929
  0
LWPOLYLINE
  5
3A
330
17
100
AcDbEntity
  8
0
100
AcDbPolyline
 90
26
 70
0
 10
255.0
 20
71.80252552657382
 10
254.8515960868729
 20
72.0
 10
254.20410529312866
 20
73.0
 10
254.0
 20
73.32729700489686
 10
253.60704775773684
 20
74.0
 10
253.119687447323
 20
75.0
 10
253.0
 20
75.25430592445127
 10
252.67282503618077
 20
76.0
 10
252.33868450192563
 20
77.0
 10
252.04800282179093
 20
78.0
 10
252.0
 20
78.19301945091304
 10
251.8085990916705
 20
79.0
 10
251.6598270935792
 20
80.0
 10
251.5830125635403
 20
81.0
 10
251.57269778320543
 20
82.0
 10
251.63127155906312
 20
83.0
 10
251.76908765407808
 20
84.0
 10
251.99999999999997
 20
84.94434408830034
 10
252.01462360723008
 20
85.0
 10
252.3458993952655
 20
86.0
 10
252.7617244818755
 20
87.0
 10
253.0
 20
87.41465850681806
 10
253.35667837051602
 20
88.0
 10
253.99999999999997
 20
88.87205379659902
 10
254.10928103263137
 20
88.99999999999999
 10
255.0
 20
89.89340635518155
  0
LWPOLYLINE
  5
3B
330
17
100
AcDbEntity
  8
0
100
AcDbPolyline
 90
282
 70
0
 10
0.0
 20
90.64448262139607
 10
0.5959026133721556
 20
91.0
 10
1.0
 20
91.22680205697341
 10
2.0
 20
91.61731447502001
 10
3.0
 20
91.89712032155731
 10
3.5394322051154936
 20
92.0
 10
4.0
 20
92.08834565785246
 10
5.0
 20
92.1632650646953
 10
6.0
 20
92.13455628874155
 10
7.0
 20
92.00108270559738
 10
7.004578624733294
 20
92.0
 10
8.0
 20
91.77931983792867
 10
9.0
 20
91.4980899442019
 10
10.0
 20
91.12745489101229
 10
10.263153174783698
 20
91.0
 10
11.0
 20
90.64744641287399
 10
12.0
 20
90.13442657797414
 10
12.221052246808961
 20
90.0
 10
13.0
 20
89.53575059267719
 10
13.865723534457185
 20
89.0
 10
14.0
 20
88.91156125852774
 10
15.0
 20
88.29981099898164
 10
15.477280511248935
 20
88.0
 10
16.0
 20
87.67723295063709
 10
17.0
 20
87.14001788770102
 10
17.26457850576942
 20
87.0
 10
18.0
 20
86.63556442073005
 10
19.0
 20
86.25570142239629
 10
19.788787889406922
 20
86.0
 10
20.0
 20
85.92870393714183
 10
21.0
 20
85.711592032707
 10
22.0
 20
85.61210299203594
 10
23.0
 20
85.61958575720851
 10
23.999999999999996
 20
85.74409487816149
 10
24.916925791556842
 20
86.0
 10
25.0
 20
86.02505094232036
 10
26.0
 20
86.4428248555709
 10
26.92016797991455
 20
87.0
 10
27.0
 20
87.05722913581378
 10
28.0
 20
87.93700753722547
 10
28.059401863585713
 20
87.99999999999999
 10
28.8222472572402
 20
89.0
 10
29.0
 20
89.28268983853218
 10
29.40167637186515
 20
90.0
 10
29.796821371076962
 20
91.0
 10
29.999999999999996
 20
91.62578918352244
 10
30.121996593043917
 20
92.0
 10
30.337063170692993
 20
93.0
 10
30.470051486218797
 20
94.0
 10
30.549382589068717
 20
95.0
 10
30.590583049784016
 20
96.0
 10
30.60519692299716
 20
97.0
 10
30.603832496536214
 20
98.0
 10
30.596716738057196
 20
99.0
 10
30.593624103473566
 20
100.0
 10
30.603896186849312
 20
101.0
 10
30.63674361718275
 20
102.0
 10
30.702108330700092
 20
103.0
 10
30.81281779220698
 20
104.0
 10
30.98933221053368
 20
105.0
 10
31.0
 20
105.04264006532365
 10
31.22642959999981
 20
106.0
 10
31.504331517621296
 20
107.0
 10
31.871623803566962
 20
108.0
 10
32.0
 20
108.25880836667977
 10
32.370077188354756
 20
109.0
 10
32.96596774475353
 20
110.0
 10
33.0
 20
110.04603229011668
 10
33.74011988176604
 20
111.0
 10
34.0
 20
111.2814878011814
 10
34.755639041956066
 20
112.0
 10
35.0
 20
112.20862644499506
 10
36.0
 20
112.90148331591722
 10
36.16113269975504
 20
113.0
 10
37.0
 20
113.45441951251324
 10
38.0
 20
113.85323811448785
 10
38.44010376043292
 20
114.0
 10
39.0
 20
114.18093954529301
 10
40.0
 20
114.38210947621036
 10
41.0
 20
114.48956714626961
 10
42.0
 20
114.51960307018825
 10
43.0
 20
114.47655507486354
 10
44.0
 20
114.35911718689005
 10
45.0
 20
114.15379374504812
 10
45.49051770760349
 20
114.0
 10
46.0
 20
113.83804481832267
 10
47.0
 20
113.47252838616107
 10
47.98571565429398
 20
113.00000000000001
 10
47.99999999999999
 20
112.99223549754488
 10
49.0
 20
112.40387345088025
 10
49.567278835975856
 20
112.0
 10
50.0
 20
111.66507219517858
 10
50.76239018871373
 20
111.0
 10
51.0
 20
110.76873532086955
 10
51.70754324484059
 20
110.0
 10
52.0
 20
109.64348640775992
 10
52.47991198287587
 20
109.0
 10
53.0
 20
108.17720346646522
 10
53.11045311317905
 20
108.0
 10
53.59831595643547
 20
107.0
 10
54.0
 20
106.015902310379
 10
54.006840536760784
 20
106.0
 10
54.32919725476219
 20
105.0
 10
54.542517159850554
 20
104.0
 10
54.68401154065169
 20
103.0
 10
54.761212384959194
 20
102.0
 10
54.77208637517271
 20
101.0
 10
54.71680260163586
 20
100.0
 10
54.59947129089905
 20
99.0
 10
54.420239997890235
 20
98.0
 10
54.160696629922114
 20
97.0
 10
54.0
 20
96.55758903640796
 10
53.795399926295744
 20
96.0
 10
53.397712944275796
 20
95.0
 10
53.0
 20
94.20832309523868
 10
52.88606899518026
 20
94.0
 10
52.320106344448874
 20
93.0
 10
52.0
 20
92.5219709926686
 10
51.63556467119407
 20
92.0
 10
51.0
 20
91.15112919794126
 10
50.87770003725691
 20
91.0
 10
50.04289919702031
 20
90.0
 10
50.0
 20
89.95252322651244
 10
49.12248964747314
 20
89.0
 10
49.0
 20
88.87307834009324
 10
48.13930580485406
 20
88.0
 10
48.0
 20
87.86153236934975
 10
47.122515455817066
 20
87.0
 10
47.0
 20
86.87972537472734
 10
46.10743116081113
 20
86.0
 10
46.0
 20
85.89242834427047
 10
45.13166290182489
 20
85.0
 10
45.0
 20
84.86073975420828
 10
44.22583563781298
 20
84.0
 10
44.0
 20
83.73735691457357
 10
43.40513208352989
 20
83.0
 10
43.0
 20
82.4548080633165
 10
42.676372681004295
 20
82.0
 10
42.07901367978818
 20
81.0
 10
42.0
 20
80.859841894644
 10
41.560279029006466
 20
80.0
 10
41.16831461350676
 20
79.0
 10
41.0
 20
78.50767547281066
 10
40.82862833093144
 20
78.0
 10
40.60848759801051
 20
77.0
 10
40.48283008629379
 20
76.0
 10
40.43664749633438
 20
75.0
 10
40.467335395011915
 20
74.0
 10
40.57614717424546
 20
73.0
 10
40.77392429580807
 20
72.0
 10
41.0
 20
71.28020532775827
 10
41.092015689747214
 20
71.0
 10
41.471464994579776
 20
70.0
 10
41.952150401908995
 20
69.0
 10
42.0
 20
68.9208753847954
 10
42.54695655954292
 20
68.0
 10
43.0
 20
67.35010307790783
 10
43.26233961395023
 20
67.0
 10
44.0
 20
66.09011395255686
 10
44.079581415380446
 20
66.0
 10
45.0
 20
65.01562062524177
 10
45.01556097722636
 20
65.0
 10
46.0
 20
64.06399988148567
 10
46.0696384711433
 20
64.0
 10
47.0
 20
63.185514939104074
 10
47.21437652372716
 20
63.0
 10
48.0
 20
62.3416985874936
 10
48.40754473612644
 20
62.0
 10
49.0
 20
61.50667334239547
 10
49.60412021333718
 20
61.0
 10
50.0
 20
60.66121268789824
 10
50.76000989068444
 20
60.0
 10
51.0
 20
59.782453424595595
 10
51.83396616661894
 20
59.0
 10
52.0
 20
58.83578858848057
 10
52.79628912931104
 20
58.0
 10
53.0
 20
57.77260036791044
 10
53.63984895742083
 20
57.0
 10
54.0
 20
56.52467988377332
 10
54.37310692467679
 20
56.0
 10
54.96839368400588
 20
55.0
 10
55.0
 20
54.942932921435876
 10
55.46312747532788
 20
54.0
 10
55.83150204326999
 20
53.0
 10
56.0
 20
52.45110029974178
 10
56.13750890404786
 20
52.0
 10
56.32034798754469
 20
51.0
 10
56.39676581596119
 20
50.0
 10
56.374762568971306
 20
49.0
 10
56.24449020939377
 20
48.0
 10
56.0
 20
47.10603988681906
 10
55.968603550170876
 20
47.0
 10
55.56723684653217
 20
46.0
 10
55.0
 20
45.01194112108074
 10
54.9918167307442
 20
45.0
 10
54.15917168572568
 20
44.0
 10
54.0
 20
43.845229874615846
 10
53.0
 20
43.07371667434145
 10
52.88280210174956
 20
43.00000000000001
 10
52.0
 20
42.52461839784357
 10
51.0
 20
42.17041135771862
 10
50.3103042546667
 20
42.0
 10
50.0
 20
41.92213377197326
 10
49.0
 20
41.80802850602871
 10
48.0
 20
41.81205280702152
 10
47.0
 20
41.92750411268479
 10
46.68601423360128
 20
42.0
 10
46.0
 20
42.1546142460696
 10
45.0
 20
42.44891014490754
 10
44.0
 20
42.83518718581152
 10
43.6802341279029
 20
43.0
 10
43.0
 20
43.353745232558765
 10
42.0
 20
43.93380693166672
 10
41.904288336388845
 20
44.0
 10
41.0
 20
44.6217838013299
 10
40.505938537014025
 20
45.0
 10
40.0
 20
45.403355886193
 10
39.28662090546483
 20
46.0
 10
39.0
 20
46.25114791687808
 10
38.16290748854507
 20
47.0
 10
38.0
 20
47.15100678777604
 10
37.089419886257
 20
48.0
 10
37.0
 20
48.08513798979806
 10
36.03282023728544
 20
48.99999999999999
 10
36.0
 20
49.03133761681819
 10
35.0
 20
49.966947948555514
 10
34.96465956603318
 20
50.0
 10
34.0
 20
50.87524582707841
 10
33.86139888903461
 20
51.0
 10
33.0
 20
51.74581603878317
 10
32.701200080692914
 20
52.0
 10
32.0
 20
52.574060479731244
 10
31.46016927322831
 20
53.0
 10
31.000000000000004
 20
53.35545085809761
 10
30.100810256046554
 20
54.0
 10
29.999999999999996
 20
54.07374022868902
 10
29.0
 20
54.726698324178905
 10
28.57777541095456
 20
55.0
 10
28.0
 20
55.36261153493143
 10
27.0
 20
55.924202112092736
 10
26.86897693514164
 20
56.0
 10
26.0
 20
56.46749663643749
 10
25.0
 20
56.9603083500844
 10
24.922566816585704
 20
57.0
 10
24.0
 20
57.43680622441771
 10
23.0
 20
57.8633493061366
 10
22.698508494610195
 20
58.0
 10
22.0
 20
58.304800483800875
 10
21.0
 20
58.68494230158424
 10
20.219676384196767
 20
58.99999999999999
 10
20.0
 20
59.093101188985386
 10
19.0
 20
59.46784000561872
 10
18.0
 20
59.82886265502573
 10
17.575441909443438
 20
60.0
 10
17.0
 20
60.229763025956636
 10
16.0
 20
60.59015777116922
 10
15.0
 20
60.98028586003353
 10
14.954867988561299
 20
61.0
 10
14.0
 20
61.388325297355145
 10
13.0
 20
61.78121809142041
 10
12.51816615372494
 20
62.0
 10
12.0
 20
62.23673523816865
 10
11.0
 20
62.66828935243058
 10
10.325009372502787
 20
63.0
 10
10.0
 20
63.16662732760928
 10
9.0
 20
63.65518549390848
 10
8.37478229924639
 20
64.0
 10
8.0
 20
64.21451782141034
 10
7.0
 20
64.7716431296645
 10
6.640394462743246
 20
65.0
 10
6.0
 20
65.40789571909424
 10
5.108127247821779
 20
66.0
 10
5.0
 20
66.07740710235538
 10
4.0
 20
66.79050927471401
 10
3.7346901295397603
 20
67.0
 10
3.0
 20
67.58991467051823
 10
2.522795740568414
 20
68.0
 10
2.0
 20
68.4692212531978
 10
1.441439706191678
 20
69.0
 10
1.0
 20
69.44317176728057
 10
0.4758090292330935
 20
70.0
 10
0.0
 20
70.53949173985258
  0
LWPOLYLINE
  5
3C
330
17
100
AcDbEntity
  8
0
100
AcDbPolyline
 90
555
 70
0
 10
255.0
 20
111.82298377397194
 10
254.00000000000003
 20
111.09186646381605
 10
253.88884701474376
 20
111.0
 10
253.0
 20
110.24890442801821
 10
252.72885792149452
 20
110.0
 10
252.0
 20
109.30077720432595
 10
251.70263539337765
 20
109.0
 10
251.0
 20
108.25237570792906
 10
250.76964033622534
 20
108.00000000000001
 10
250.0
 20
107.10946532632391
 10
249.90560958998452
 20
106.99999999999999
 10
249.09342579921133
 20
106.0
 10
249.0
 20
105.8868660152998
 10
248.29398103270213
 20
105.0
 10
248.0
 20
104.636485466393
 10
247.48922747655612
 20
104.0
 10
247.0
 20
103.39745910369325
 10
246.67033583481148
 20
103.0
 10
246.0
 20
102.2010367791855
 10
245.82403343189023
 20
102.0
 10
245.0
 20
101.07817077965352
 10
244.92644636067277
 20
101.0
 10
244.0
 20
100.05454716793129
 10
243.94379372657468
 20
100.0
 10
243.0
 20
99.14032824287958
 10
242.83821102971757
 20
99.00000000000001
 10
242.0
 20
98.32593181428032
 10
241.56720396674922
 20
98.0
 10
241.0
 20
97.59611314863724
 10
240.04863987061574
 20
97.0
 10
240.0
 20
96.96888782900518
 10
239.00000000000003
 20
96.43314643965468
 10
238.08915859954703
 20
96.0
 10
238.0
 20
95.95589449382439
 10
237.0
 20
95.55879284785485
 10
235.99999999999997
 20
95.24276512112493
 10
235.17075620886882
 20
95.0
 10
235.0
 20
94.94795630913885
 10
234.0
 20
94.71827787594344
 10
233.0
 20
94.55703705139987
 10
232.0
 20
94.4430206363885
 10
231.0
 20
94.36705960062764
 10
230.00000000000003
 20
94.32540749471065
 10
229.0
 20
94.31561487435755
 10
228.0
 20
94.33460512816913
 10
227.0
 20
94.37842510094399
 10
226.0
 20
94.44294523695004
 10
225.0
 20
94.52480430542684
 10
224.0
 20
94.62207688240505
 10
223.0
 20
94.73437937422857
 10
222.0
 20
94.86235267983771
 10
221.0440922107928
 20
95.0
 10
221.0
 20
95.00667161178232
 10
220.0
 20
95.14994510229404
 10
219.0
 20
95.27619233977705
 10
218.0
 20
95.38671809967657
 10
217.0
 20
95.48304764621378
 10
216.0
 20
95.56612805015838
 10
215.0
 20
95.63598728879818
 10
214.0
 20
95.69185166823421
 10
213.0
 20
95.7325967597958
 10
212.0
 20
95.75734342569835
 10
211.0
 20
95.76599939754318
 10
210.0
 20
95.75959189576606
 10
209.0
 20
95.74032974332675
 10
208.0
 20
95.71144208460443
 10
207.0
 20
95.67692113413214
 10
206.0
 20
95.64131401585146
 10
205.0
 20
95.60965696186975
 10
204.0
 20
95.58755314455244
 10
203.0
 20
95.58132688922288
 10
202.0
 20
95.59823263813797
 10
201.0
 20
95.64695762842652
 10
200.0
 20
95.73919941010936
 10
199.0
 20
95.89391298236285
 10
198.55530187435596
 20
96.0
 10
198.0
 20
96.13246434917538
 10
197.0
 20
96.42225451681506
 10
196.0
 20
96.80312738374063
 10
195.63217975011474
 20
97.0
 10
195.0
 20
97.35498236499616
 10
194.0770082386674
 20
98.0
 10
194.0
 20
98.06354910897723
 10
193.0527171379149
 20
99.0
 10
193.0
 20
99.06322896930607
 10
192.34776501739316
 20
100.0
 10
192.0
 20
100.66793959316875
 10
191.83492535781633
 20
101.0
 10
191.5267369771267
 20
102.0
 10
191.37186463403765
 20
103.0
 10
191.34347164983865
 20
104.0
 10
191.43866928784408
 20
105.0
 10
191.66449289752
 20
106.0
 10
191.99999999999997
 20
106.83120860391301
 10
192.0762502736328
 20
107.0
 10
192.64208899125646
 20
108.0
 10
193.0
 20
108.46718165174127
 10
193.47158779457203
 20
109.0
 10
194.0
 20
109.49720027905113
 10
194.66191155303062
 20
110.0
 10
195.0
 20
110.23352953871469
 10
196.0
 20
110.73731953846328
 10
196.64469131584465
 20
111.0
 10
197.0
 20
111.14257546953515
 10
198.0
 20
111.40940843168514
 10
199.0
 20
111.57629867098586
 10
200.0
 20
111.67495607587217
 10
201.0
 20
111.71670666662367
 10
202.0
 20
111.70877782706216
 10
203.0
 20
111.65956807042838
 10
204.0
 20
111.57794398830704
 10
205.0
 20
111.47070105032215
 10
206.0
 20
111.34071064605362
 10
207.0
 20
111.18667376959674
 10
208.0
 20
111.00437016711082
 10
208.02192677178098
 20
111.0
 10
209.0
 20
110.81542692289777
 10
210.00000000000003
 20
110.64598268338023
 10
211.0
 20
110.4902208548945
 10
212.0
 20
110.34162716871182
 10
213.0
 20
110.19533562754549
 10
214.0
 20
110.04971983782738
 10
214.35979311222096
 20
110.0
 10
215.0
 20
109.91193363103605
 10
216.0
 20
109.80290113505079
 10
217.00000000000003
 20
109.7211142151074
 10
218.0
 20
109.66434601156159
 10
219.0
 20
109.63186197902466
 10
220.0
 20
109.6241160404343
 10
221.0
 20
109.64255454474707
 10
222.0
 20
109.68976811070186
 10
222.99999999999997
 20
109.77024762520422
 10
224.0
 20
109.89201294182348
 10
224.6249211911303
 20
110.0
 10
225.0
 20
110.06505376881186
 10
226.0
 20
110.26420973664708
 10
227.0
 20
110.48804754006002
 10
228.00000000000003
 20
110.76308020438123
 10
228.6442733747386
 20
111.0
 10
229.0
 20
111.135653750575
 10
230.0
 20
111.53684183887844
 10
230.92974696512576
 20
112.0
 10
231.0
 20
112.03890817562994
 10
232.0
 20
112.62483873371895
 10
232.52929609777993
 20
113.0
 10
233.0
 20
113.35990789411954
 10
233.73685664222415
 20
114.0
 10
234.0
 20
114.25693425806135
 10
234.67375295809137
 20
115.0
 10
235.0
 20
115.41578229089825
 10
235.4153176748705
 20
116.0
 10
235.97088367741324
 20
117.0
 10
236.0
 20
117.06052605025772
 10
236.40214310951728
 20
118.0
 10
236.6781222795406
 20
119.0
 10
236.85555454265022
 20
120.0
 10
236.93231863031627
 20
121.0
 10
236.89715721056191
 20
122.0
 10
236.75476227874893
 20
123.0
 10
236.51367004909022
 20
124.0
 10
236.14098810995284
 20
125.0
 10
236.0
 20
125.26243457500804
 10
235.59478625581846
 20
126.0
 10
235.0
 20
126.85771974161707
 10
234.8864681387723
 20
127.0
 10
234.0
 20
127.95433334711691
 10
233.95096723085504
 20
128.0
 10
233.0
 20
128.76714694243242
 10
232.6657400267615
 20
129.0
 10
232.0
 20
129.42100086165092
 10
231.0
 20
129.91474480020113
 10
230.80913883596503
 20
130.0
 10
230.0
 20
130.33313066920587
 10
229.0
 20
130.62565877332176
 10
228.0
 20
130.8598281880258
 10
227.27944537858775
 20
131.0
 10
227.0
 20
131.05630153945233
 10
226.0
 20
131.1905660400885
 10
225.0
 20
131.26963912881186
 10
224.0
 20
131.30814666142544
 10
223.0
 20
131.31567748566883
 10
222.0
 20
131.29970861960902
 10
221.0
 20
131.2669450716635
 10
220.0
 20
131.22400770826087
 10
219.0
 20
131.17793373781205
 10
218.0
 20
131.1365395719088
 10
217.0
 20
131.10843085894368
 10
216.0
 20
131.10240952993595
 10
215.0
 20
131.12626695884148
 10
214.0
 20
131.18546352047304
 10
213.0
 20
131.28286554645229
 10
212.0
 20
131.42121271714572
 10
211.0
 20
131.6098939973672
 10
210.0
 20
131.87710312305313
 10
209.66740123179915
 20
132.0
 10
209.0
 20
132.2454153552292
 10
208.0
 20
132.65484354617004
 10
207.3549210348565
 20
133.0
 10
207.0
 20
133.20435659736881
 10
206.0
 20
133.83320716702963
 10
205.7814861723063
 20
134.0
 10
205.0
 20
134.6266339993355
 10
204.58961067216788
 20
135.0
 10
204.0
 20
135.58467899365968
 10
203.61583385465767
 20
136.0
 10
203.0
 20
136.73714975851456
 10
202.79007288549724
 20
137.0
 10
202.09087482729495
 20
138.0
 10
202.0
 20
138.13210349838775
 10
201.45064273559655
 20
139.0
 10
201.0
 20
139.75522634915833
 10
200.85160778784376
 20
140.0
 10
200.31751247598766
 20
141.0
 10
200.0
 20
141.57007680332237
 10
199.75938928370232
 20
142.0
 10
199.2429188547515
 20
143.0
 10
199.0
 20
143.42249985993584
 10
198.66932275806403
 20
144.0
 10
198.09831431795604
 20
144.99999999999997
 10
198.0
 20
145.15030409768863
 10
197.45575144180197
 20
146.0
 10
197.0
 20
146.6459763094794
 10
196.73517595098352
 20
147.0
 10
196.0
 20
147.9197885131284
 10
195.92974374571133
 20
148.0
 10
195.0
 20
148.98209096493773
 10
194.9814002533542
 20
149.0
 10
194.0
 20
149.85121054487985
 10
193.81121456825286
 20
150.0
 10
193.0
 20
150.57572795422442
 10
192.30163093827915
 20
151.0
 10
192.0
 20
151.17903221045776
 10
191.0
 20
151.63041500028496
 10
190.00647738792082
 20
152.0
 10
189.99999999999997
 20
152.00256765661914
 10
189.00000000000003
 20
152.28773898318985
 10
188.0
 20
152.45833080051202
 10
187.0
 20
152.5448760987179
 10
186.0
 20
152.5551300427208
 10
185.0
 20
152.48956346006224
 10
184.0
 20
152.34320649646173
 10
183.0
 20
152.09335458906233
 10
182.74658924043538
 20
152.0
 10
182.0
 20
151.7316363433368
 10
181.0
 20
151.30690732556326
 10
180.46320050876238
 20
151.0
 10
180.0
 20
150.7179715024353
 10
179.0
 20
150.0142175835034
 10
178.98305811927182
 20
150.0
 10
178.0
 20
149.11263739292198
 10
177.89032766746163
 20
149.0
 10
177.05025973544224
 20
148.0
 10
177.0
 20
147.93324400518765
 10
176.38320970723538
 20
147.0
 10
176.0
 20
146.3020013866845
 10
175.83709717446325
 20
146.0
 10
175.44454200941865
 20
145.0
 10
175.15553453353323
 20
144.0
 10
175.0
 20
143.28745119338623
 10
174.93493423865124
 20
143.0
 10
174.817915326141
 20
142.0
 10
174.8014023558697
 20
141.0
 10
174.88299133168232
 20
140.0
 10
175.0
 20
139.3920023745615
 10
175.0754738599051
 20
139.0
 10
175.34797009864724
 20
138.0
 10
175.71107095044104
 20
137.0
 10
176.0
 20
136.4422276473095
 10
176.24389760080066
 20
136.0
 10
176.88534159625485
 20
135.0
 10
177.0
 20
134.85589560443782
 10
177.72940829852968
 20
134.0
 10
177.99999999999997
 20
133.7247444770928
 10
178.8064292273295
 20
133.0
 10
179.0
 20
132.8386445878879
 10
180.0
 20
132.13600117362122
 10
180.20727386969884
 20
132.0
 10
181.0
 20
131.5243393787655
 10
182.0
 20
131.00954608587602
 10
182.018789840704
 20
131.0
 10
183.0
 20
130.54853107483427
 10
184.0
 20
130.14764480842766
 10
184.3471966454805
 20
130.0
 10
185.0
 20
129.73000966580327
 10
186.0
 20
129.360920081292
 10
186.86834195133278
 20
129.0
 10
187.0
 20
128.94094914815122
 10
188.0
 20
128.50277007892544
 10
188.99819018930899
 20
128.0
 10
189.0
 20
127.99897312016189
 10
190.0
 20
127.39951600750685
 10
190.55024622310032
 20
127.0
 10
191.0
 20
126.63815393207041
 10
191.6793623661336
 20
126.0
 10
192.0
 20
125.6452454851028
 10
192.5048380384361
 20
125.0
 10
193.0
 20
124.17347386415392
 10
193.10014738136584
 20
124.0
 10
193.4884434833049
 20
123.0
 10
193.70841046903973
 20
122.0
 10
193.7958232028453
 20
121.0
 10
193.74811531519552
 20
120.0
 10
193.56793327237068
 20
119.0
 10
193.23825257599975
 20
118.0
 10
193.0
 20
117.54814857840674
 10
192.68687855167298
 20
117.0
 10
192.0
 20
116.07872351134803
 10
191.92922198893103
 20
116.0
 10
191.0
 20
115.14571004143603
 10
190.80756736693345
 20
114.99999999999999
 10
190.0
 20
114.47288355381075
 10
189.04860327649908
 20
114.0
 10
189.0
 20
113.97549731621581
 10
188.0
 20
113.60477405526825
 10
187.0
 20
113.35236707364183
 10
186.0
 20
113.15855421603243
 10
185.0
 20
113.00478857404737
 10
184.95769718057574
 20
113.0
 10
184.0
 20
112.89487318877568
 10
183.0
 20
112.82709161372448
 10
182.0
 20
112.78669055093613
 10
181.0
 20
112.76336316227791
 10
180.0
 20
112.7493561405216
 10
179.0
 20
112.73862499839834
 10
178.0
 20
112.72649185228302
 10
177.0
 20
112.70951163315212
 10
176.0
 20
112.68539403000128
 10
175.0
 20
112.65289332016701
 10
174.0
 20
112.61162520096428
 10
173.0
 20
112.56181872052142
 10
172.0
 20
112.50405622902119
 10
171.0
 20
112.43908052939572
 10
170.0
 20
112.36774701390104
 10
169.0
 20
112.29116915492767
 10
168.0
 20
112.21105242068043
 10
167.0
 20
112.13014123357192
 10
165.99999999999997
 20
112.05263161763457
 10
165.2250080274643
 20
112.0
 10
165.0
 20
111.9845298592121
 10
164.0
 20
111.93564025299203
 10
163.0
 20
111.91106874739148
 10
162.0
 20
111.91476472013201
 10
161.0
 20
111.95229456758564
 10
160.3944574628456
 20
112.0
 10
160.0
 20
112.03111311568675
 10
159.00000000000003
 20
112.14866693406137
 10
158.0
 20
112.30143497895777
 10
157.0
 20
112.49325355962254
 10
156.0
 20
112.74518576036249
 10
155.2800169113096
 20
113.0
 10
155.0
 20
113.10519097885475
 10
154.0
 20
113.5156594849611
 10
153.06777797543538
 20
113.99999999999999
 10
153.0
 20
114.03976755100535
 10
152.0
 20
114.67818530919578
 10
151.58719132137816
 20
115.0
 10
151.0
 20
115.50113630909635
 10
150.49122276243375
 20
116.0
 10
150.0
 20
116.55242472861164
 10
149.64131345552477
 20
117.0
 10
149.0
 20
117.986926831915
 10
148.99159501310507
 20
118.0
 10
148.49263527030124
 20
119.0
 10
148.12629881034238
 20
120.0
 10
148.0
 20
120.42404084885248
 10
147.83319659177232
 20
121.0
 10
147.66290083057513
 20
122.0
 10
147.58690048308912
 20
123.0
 10
147.59094516482878
 20
124.0
 10
147.67193230948777
 20
125.0
 10
147.83664381458095
 20
126.0
 10
148.0
 20
126.61977581890746
 10
148.10283255354886
 20
127.0
 10
148.41614515828144
 20
128.0
 10
148.78976643023333
 20
129.0
 10
149.0
 20
129.4351522589463
 10
149.27766572773425
 20
130.0
 10
149.78909475636064
 20
131.0
 10
150.0
 20
131.34567563703166
 10
150.40162033949886
 20
132.0
 10
150.99999999999997
 20
132.92882775657577
 10
151.04969876171566
 20
133.0
 10
151.73138008292722
 20
134.0
 10
152.0
 20
134.36567182793613
 10
152.46498117473368
 20
135.0
 10
153.0
 20
135.72498135093
 10
153.20871344224332
 20
136.0
 10
153.93048097085278
 20
137.0
 10
154.0
 20
137.09223104045356
 10
154.64966913022744
 20
138.0
 10
155.0
 20
138.4912916302806
 10
155.35770361900524
 20
139.0
 10
156.0
 20
139.98155306638023
 10
156.012637304524
 20
140.00000000000003
 10
156.62661780926976
 20
141.0
 10
157.0
 20
141.62533616572455
 10
157.22438383127465
 20
142.0
 10
157.74227086197436
 20
143.0
 10
158.0
 20
143.48972379354416
 10
158.26480221047336
 20
144.0
 10
158.70680871694537
 20
145.0
 10
159.0
 20
145.6494509130402
 10
159.16130715784567
 20
146.0
 10
159.5516014991847
 20
147.0
 10
159.93050173423367
 20
148.0
 10
160.0
 20
148.17204780636533
 10
160.31615611106585
 20
149.0
 10
160.65169952643197
 20
150.0
 10
161.0
 20
150.95936072043233
 10
161.0160163898849
 20
151.0
 10
161.37973984932944
 20
152.0
 10
161.7260860064079
 20
153.0
 10
162.0
 20
153.68049601114848
 10
162.13413279056732
 20
153.99999999999997
 10
162.533137617644
 20
155.0
 10
162.97834731429273
 20
156.0
 10
163.0
 20
156.04154047092504
 10
163.4737849398716
 20
157.0
 10
164.0
 20
157.97046847082163
 10
164.0177502938923
 20
158.0
 10
164.62421640876022
 20
159.0
 10
165.0
 20
159.54382377000255
 10
165.33210284314944
 20
160.0
 10
166.0
 20
160.85324762636247
 10
166.12520398164145
 20
161.0
 10
167.0
 20
161.96041706964698
 10
167.0391487283891
 20
162.0
 10
168.0
 20
162.89632808545207
 10
168.1189332347214
 20
163.0
 10
169.0
 20
163.70272444614463
 10
169.40062825168422
 20
164.0
 10
170.0
 20
164.41804243800507
 10
170.94706824761624
 20
165.0
 10
171.0
 20
165.0333110616371
 10
172.0
 20
165.56460234957837
 10
172.90080919561905
 20
166.0
 10
173.0
 20
166.04997541687283
 10
174.0
 20
166.46677237604217
 10
175.0
 20
166.8239040926844
 10
175.4920645848932
 20
167.0
 10
176.0
 20
167.1792022075418
 10
177.0
 20
167.46020191850977
 10
178.0
 20
167.70091077302402
 10
178.99999999999997
 20
167.93325958942583
 10
179.29712754721012
 20
168.0
 10
180.0
 20
168.15303871454898
 10
181.0
 20
168.3236066997314
 10
182.0
 20
168.45916697619583
 10
183.0
 20
168.56982892714126
 10
184.0
 20
168.6604263824462
 10
185.0
 20
168.73223888201724
 10
186.0
 20
168.78447302753034
 10
187.0
 20
168.81551311004273
 10
188.0
 20
168.82389473871424
 10
189.0
 20
168.80893623591928
 10
190.0
 20
168.7709624222865
 10
191.0
 20
168.71106787026034
 10
192.0
 20
168.6303942682074
 10
193.0
 20
168.52894346307005
 10
194.0
 20
168.4040042470434
 10
195.0
 20
168.2483089322895
 10
196.0
 20
168.04799623203684
 10
196.19479017431235
 20
168.0
 10
197.0
 20
167.8089932459393
 10
198.0
 20
167.57086530226456
 10
199.0
 20
167.31281380409195
 10
199.98241259703755
 20
167.0
 10
199.99999999999997
 20
166.99387951963777
 10
201.0
 20
166.64754195670713
 10
202.0
 20
166.3005408705206
 10
202.72287741094172
 20
166.0
 10
202.99999999999997
 20
165.87859084377146
 10
204.0
 20
165.4569787561714
 10
204.9725411817262
 20
165.0
 10
205.0
 20
164.9858077698191
 10
206.0
 20
164.48492350127233
 10
206.90100711956177
 20
164.0
 10
207.0
 20
163.9422158620621
 10
208.0
 20
163.37911100253348
 10
208.61405265132004
 20
163.0
 10
209.0
 20
162.75306201249896
 10
210.0
 20
162.12416338459985
 10
210.17717277395906
 20
162.0
 10
211.0
 20
161.43459852184782
 10
211.60101976419247
 20
161.0
 10
212.0
 20
160.70242932987395
 10
212.9366364628446
 20
160.0
 10
213.00000000000003
 20
159.94955418165
 10
214.0
 20
159.16604522925263
 10
214.19914920201177
 20
159.0
 10
215.0
 20
158.33420908144114
 10
215.3872786162633
 20
158.0
 10
216.0
 20
157.465507076905
 10
216.52163951495854
 20
157.0
 10
217.0
 20
156.56592879080523
 10
217.61463750398292
 20
156.0
 10
218.0
 20
155.63893871043857
 10
218.67496895865537
 20
155.0
 10
218.99999999999997
 20
154.6876358474634
 10
219.70993229122917
 20
154.0
 10
220.0
 20
153.71585341936355
 10
220.7264428029302
 20
153.0
 10
221.0
 20
152.72853692942596
 10
221.73139516735807
 20
152.0
 10
222.0
 20
151.73167758662424
 10
222.73177038999074
 20
151.0
 10
223.0
 20
150.7320178237789
 10
223.73471083145313
 20
150.0
 10
224.0
 20
149.7366814592449
 10
224.74767143092578
 20
149.0
 10
225.0
 20
148.75283070518714
 10
225.77870475513163
 20
148.0
 10
226.0
 20
147.7874426535856
 10
226.8369710841666
 20
147.0
 10
227.0
 20
146.8473482238958
 10
227.93370707837315
 20
146.0
 10
228.0
 20
145.93978666304434
 10
229.0
 20
145.0717586558426
 10
229.08250667835424
 20
145.0
 10
230.0
 20
144.2369294444652
 10
230.2872308452811
 20
144.0
 10
231.0
 20
143.4331827381976
 10
231.56114862425812
 20
143.0
 10
232.0
 20
142.66578632015998
 10
232.93728367512915
 20
142.0
 10
233.0
 20
141.9541145248902
 10
234.0
 20
141.29385666965356
 10
234.4481294287387
 20
141.0
 10
235.0
 20
140.64692471291926
 10
236.0
 20
140.0708030683835
 10
236.1192433925024
 20
140.0
 10
237.0
 20
139.51422970790546
 10
238.0
 20
139.00532867562967
 10
238.0101893145607
 20
139.0
 10
239.0
 20
138.52802562063383
 10
240.0
 20
138.10014739639104
 10
240.22560657431245
 20
138.0
 10
241.0
 20
137.67432144421616
 10
242.0
 20
137.3212914736803
 10
242.89887592339895
 20
137.0
 10
243.0
 20
136.96140703135447
 10
244.00000000000003
 20
136.63698965547417
 10
245.0
 20
136.364457607539
 10
246.0
 20
136.09751240227638
 10
246.35722387016813
 20
136.0
 10
247.0
 20
135.82765816601673
 10
248.0
 20
135.60836612136856
 10
249.0
 20
135.42041535490762
 10
250.0
 20
135.2454312601318
 10
251.0
 20
135.0726855714496
 10
251.43033123234886
 20
135.0
 10
252.0
 20
134.9037432153234
 10
253.0
 20
134.76515883731435
 10
254.0
 20
134.65272316241635
 10
255.0
 20
134.56008858885582
  0
LWPOLYLINE
  5
3D
330
17
100
AcDbEntity
  8
0
100
AcDbPolyline
 90
78
 70
0
 10
0.0
 20
134.48300669527174
 10
1.0
 20
134.4187446746443
 10
2.0
 20
134.365566833836
 10
3.0
 20
134.32228916194333
 10
4.0
 20
134.2879223471339
 10
5.0
 20
134.26140844660566
 10
6.0
 20
134.2414456635329
 10
7.0
 20
134.22638686712327
 10
8.0
 20
134.2141906875907
 10
9.0
 20
134.2023995543805
 10
10.0
 20
134.18811657089884
 10
11.0
 20
134.1679502804949
 10
12.0
 20
134.1378880150864
 10
13.0
 20
134.09303636211834
 10
14.0
 20
134.02711941323312
 10
14.29152175313817
 20
134.0
 10
15.0
 20
133.93503386492526
 10
16.0
 20
133.8210858757228
 10
17.0
 20
133.6841498396628
 10
18.0
 20
133.51840732067188
 10
19.0
 20
133.3072472498146
 10
20.0
 20
133.01227440033853
 10
20.03195717058096
 20
133.0
 10
21.0
 20
132.64862960694046
 10
22.0
 20
132.23192271071812
 10
22.420136327689853
 20
132.0
 10
23.0
 20
131.6654093183467
 10
23.982782600624706
 20
131.0
 10
24.0
 20
130.98651693582372
 10
25.0
 20
130.09612391015864
 10
25.092832390141954
 20
130.0
 10
25.894064807357136
 20
129.0
 10
26.0
 20
128.84371947698838
 10
26.496233608955663
 20
128.0
 10
26.90949910432677
 20
127.0
 10
27.000000000000004
 20
126.70432024613095
 10
27.205024515353248
 20
126.0
 10
27.33931880138254
 20
125.0
 10
27.342867990374152
 20
124.0
 10
27.214618618154162
 20
123.0
 10
27.000000000000004
 20
122.2600276826433
 10
26.919989877457418
 20
121.99999999999999
 10
26.494646202564404
 20
121.0
 10
26.0
 20
120.19776912772046
 10
25.858144372095857
 20
120.0
 10
25.0
 20
119.02236149806043
 10
24.97656602121019
 20
119.0
 10
24.0
 20
118.21586145145804
 10
23.679578193735995
 20
118.0
 10
23.0
 20
117.59051852980545
 10
22.0
 20
117.13794193501319
 10
21.65441494649614
 20
117.0
 10
21.0
 20
116.75327853356116
 10
20.0
 20
116.49049445434954
 10
19.0
 20
116.29279486739422
 10
18.0
 20
116.13204433401353
 10
17.011636794898134
 20
116.0
 10
17.0
 20
115.99837343382328
 10
16.0
 20
115.89595970937776
 10
15.0
 20
115.82209416506633
 10
14.0
 20
115.76444985739647
 10
13.0
 20
115.7135222317641
 10
12.0
 20
115.66143451163083
 10
11.0
 20
115.60130054856506
 10
10.0
 20
115.52664696033972
 10
9.0
 20
115.43044839251166
 10
8.0
 20
115.30331985741947
 10
7.0
 20
115.13040339543373
 10
6.442259106769972
 20
115.0
 10
6.0
 20
114.8960894837085
 10
5.0
 20
114.64142838038578
 10
4.0
 20
114.35435262137023
 10
3.05536473022069
 20
114.0
 10
3.0
 20
113.97727734256482
 10
2.0
 20
113.55085327615649
 10
1.0
 20
113.06412655323577
 10
0.891418282774891
 20
113.0
 10
0.0
 20
112.48738010726379
  0
LWPOLYLINE
  5
3E
330
17
100
AcDbEntity
  8
0
100
AcDbPolyline
 90
78
 70
0
 10
255.0
 20
150.73247995834907
 10
254.0
 20
150.90124385863837
 10
253.45593486184399
 20
151.0
 10
253.0
 20
151.0836359436659
 10
252.0
 20
151.25010831191216
 10
251.0
 20
151.40177088529893
 10
250.0
 20
151.54839484177006
 10
249.0
 20
151.7004342896988
 10
248.0
 20
151.86932277583537
 10
247.32685643324157
 20
152.0
 10
247.0
 20
152.0650815115491
 10
246.0
 20
152.25721900551204
 10
245.00000000000003
 20
152.44290924543415
 10
244.0
 20
152.63829035512566
 10
243.0
 20
152.86649146190388
 10
242.51960626961545
 20
153.0
 10
242.0
 20
153.14487128236303
 10
241.0
 20
153.41916646908663
 10
240.0
 20
153.71388155055828
 10
239.22512207416793
 20
154.0
 10
238.99999999999997
 20
154.0884534698497
 10
238.0
 20
154.48362926558784
 10
237.0
 20
154.93658710187796
 10
236.88557197475686
 20
155.0
 10
236.0
 20
155.47855042237944
 10
235.15932603810086
 20
156.0
 10
235.0
 20
156.10931935948364
 10
234.0
 20
156.8437958091101
 10
233.81881168908632
 20
157.0
 10
233.0
 20
157.76811945766036
 10
232.77973040729844
 20
158.0
 10
232.0
 20
158.9630975033042
 10
231.9716868156902
 20
159.0
 10
231.35808758744975
 20
160.0
 10
231.0
 20
160.72985110096204
 10
230.86925521334652
 20
161.0
 10
230.54448374262267
 20
162.0
 10
230.355106422854
 20
163.0
 10
230.27648691160582
 20
164.0
 10
230.3117158295591
 20
165.0
 10
230.46377818914897
 20
166.0
 10
230.75191556435973
 20
167.0
 10
231.0
 20
167.5237982700976
 10
231.2429600803769
 20
168.0
 10
231.89929641343033
 20
169.0
 10
232.0
 20
169.11794306183995
 10
232.87055572447417
 20
170.0
 10
233.0
 20
170.1125339250642
 10
234.0
 20
170.79439719909263
 10
234.36760707220304
 20
171.0
 10
235.0
 20
171.32164870611103
 10
236.0
 20
171.66247279713934
 10
237.00000000000003
 20
171.90787811784415
 10
237.56006925466158
 20
172.0
 10
238.0
 20
172.07314739933528
 10
239.0
 20
172.13952703530313
 10
240.0
 20
172.12045163975344
 10
241.0
 20
172.0203637314554
 10
241.11423015240882
 20
172.0
 10
242.00000000000003
 20
171.8493660191877
 10
243.0
 20
171.63672949310944
 10
244.0
 20
171.38195618234704
 10
245.0
 20
171.05233393702875
 10
245.12835833362942
 20
171.0
 10
246.0
 20
170.66186051954801
 10
247.0
 20
170.26651922525167
 10
247.56454900381144
 20
170.0
 10
248.0
 20
169.7890052471573
 10
249.0
 20
169.3260528196131
 10
249.62586146258337
 20
169.0
 10
250.0
 20
168.79890436343175
 10
251.0
 20
168.29807268942704
 10
251.54471829187887
 20
168.0
 10
252.0
 20
167.74809470782344
 10
253.0
 20
167.2412335132758
 10
253.4418661121015
 20
167.0
 10
254.0
 20
166.69888755211798
 10
255.0
 20
166.2132202426707
  0
LWPOLYLINE
  5
3F
330
17
100
AcDbEntity
  8
0
100
AcDbPolyline
 90
1291
 70
0
 10
0.0
 20
165.70351401932345
 10
1.0
 20
165.26229118275955
 10
1.5716197274607286
 20
165.0
 10
2.0
 20
164.80248050258604
 10
3.0
 20
164.41430183874144
 10
4.0
 20
164.03879437008757
 10
4.101268704222785
 20
164.0
 10
5.0
 20
163.67994476612907
 10
6.0
 20
163.38931939660557
 10
7.0
 20
163.11396813338035
 10
7.413709773785005
 20
163.0
 10
8.0
 20
162.84052746137402
 10
9.0
 20
162.62387024584376
 10
10.0
 20
162.4455157428659
 10
11.0
 20
162.28737899737635
 10
12.0
 20
162.13936570503122
 10
12.978237780894329
 20
162.0
 10
13.0
 20
161.99673588938128
 10
14.0
 20
161.87016265141915
 10
15.0
 20
161.7666472220024
 10
16.0
 20
161.67869581778652
 10
17.0
 20
161.60026298326753
 10
18.0
 20
161.5261434188713
 10
19.0
 20
161.45153960103536
 10
20.0
 20
161.37169632052724
 10
21.0
 20
161.28151836406724
 10
22.0
 20
161.17510000840775
 10
23.0
 20
161.04509289991975
 10
23.288734607399498
 20
161.0
 10
24.0
 20
160.89112271849683
 10
25.0
 20
160.73309195636259
 10
26.0
 20
160.56826502530305
 10
27.0
 20
160.38677476160757
 10
28.0
 20
160.17092189951398
 10
28.63725237127099
 20
160.0
 10
28.999999999999996
 20
159.90010564540748
 10
30.0
 20
159.627307876836
 10
31.0
 20
159.3460724829038
 10
32.0
 20
159.0073327513989
 10
32.0185409780205
 20
159.0
 10
33.0
 20
158.63879936083367
 10
34.0
 20
158.2738413791941
 10
34.63459058497796
 20
158.0
 10
35.0
 20
157.83665411144526
 10
36.0
 20
157.41349119001256
 10
36.88050118077163
 20
157.0
 10
37.0
 20
156.93945894434844
 10
38.0
 20
156.4624688430289
 10
38.91823817737087
 20
156.00000000000003
 10
39.0
 20
155.95550714152074
 10
40.0
 20
155.4487415037421
 10
40.85537382090958
 20
155.0
 10
41.0
 20
154.91928427525735
 10
42.0
 20
154.40991161320616
 10
42.782171909480894
 20
154.0
 10
43.0
 20
153.8805467228764
 10
44.0
 20
153.39208661447938
 10
44.79113628231244
 20
153.0
 10
45.0
 20
152.8918515502322
 10
46.0
 20
152.44239794424692
 10
47.0
 20
152.007798938836
 10
47.017491592127115
 20
152.0
 10
48.0
 20
151.6000996823118
 10
49.0
 20
151.25852319819916
 10
49.76129712952168
 20
151.0
 10
50.0
 20
150.9156198775366
 10
51.0
 20
150.63390890051318
 10
52.0
 20
150.4161483963008
 10
53.0
 20
150.23693273433796
 10
54.0
 20
150.09077027622916
 10
54.86155344552157
 20
150.0
 10
55.0
 20
149.98476745964012
 10
56.0
 20
149.93294213881538
 10
57.0
 20
149.93920402432815
 10
57.915397393998425
 20
150.0
 10
58.0
 20
150.0056124920526
 10
59.0
 20
150.1267564845185
 10
60.0
 20
150.2916966969653
 10
61.0
 20
150.49876952119774
 10
62.0
 20
150.76721249029544
 10
62.63747623560638
 20
151.0
 10
63.0
 20
151.13715926206385
 10
64.0
 20
151.53451439499986
 10
64.96034896439674
 20
152.0
 10
65.0
 20
152.02131915532428
 10
66.0
 20
152.57306978648984
 10
66.66835191127893
 20
153.0
 10
67.0
 20
153.2253850166944
 10
68.0
 20
153.93705881440442
 10
68.07804637789613
 20
154.0
 10
69.0
 20
154.753733260707
 10
69.27560675309809
 20
155.0
 10
70.0
 20
155.6742030658233
 10
70.3301085497509
 20
156.0
 10
71.0
 20
156.69550796505035
 10
71.2823448781275
 20
157.0
 10
72.0
 20
157.82018799813358
 10
72.15509579899624
 20
158.0
 10
72.95747787632824
 20
159.0
 10
73.0
 20
159.05273325534307
 10
73.72086798379384
 20
160.0
 10
74.0
 20
160.36774082050937
 10
74.46775444349825
 20
161.0
 10
75.0
 20
161.7399055161422
 10
75.19094126060983
 20
162.0
 10
75.87839326844855
 20
163.0
 10
76.0
 20
163.16742960169177
 10
76.58300094715568
 20
164.0
 10
77.0
 20
164.5850770380777
 10
77.30037901658493
 20
165.0
 10
78.00000000000001
 20
165.98729155579514
 10
78.00957599799389
 20
166.0
 10
78.73753251927857
 20
167.0
 10
79.0
 20
167.34046453310415
 10
79.50886092872688
 20
168.0
 10
80.0
 20
168.6182285017345
 10
80.31236200285448
 20
169.0
 10
81.0
 20
169.82863187088955
 10
81.1486473999076
 20
169.99999999999997
 10
82.0
 20
170.97027926422345
 10
82.02732176970515
 20
171.0
 10
82.96312353702989
 20
172.0
 10
83.0
 20
172.03781005823535
 10
83.96607389653914
 20
173.0
 10
84.0
 20
173.03286181055933
 10
85.0
 20
173.9605041228907
 10
85.04332105522525
 20
174.0
 10
86.0
 20
174.8306636952022
 10
86.19754775016244
 20
175.0
 10
87.0
 20
175.65720925358323
 10
87.42643148450338
 20
176.0
 10
88.0
 20
176.44827934216812
 10
88.73403538977267
 20
177.0
 10
89.0
 20
177.20102603595427
 10
90.0
 20
177.90133949339298
 10
90.13581521764924
 20
177.99999999999997
 10
91.0
 20
178.59444201916466
 10
91.58911932092775
 20
179.0
 10
92.0
 20
179.28367552645472
 10
93.0
 20
179.93691862656425
 10
93.09052740370123
 20
179.99999999999997
 10
94.0
 20
180.60170608944603
 10
94.58297722702216
 20
181.0
 10
95.0
 20
181.28921984343623
 10
96.0
 20
181.97051147354645
 10
96.03981102040208
 20
182.0
 10
97.0
 20
182.68823520613952
 10
97.40465061800407
 20
183.0
 10
98.0
 20
183.46677342631094
 10
98.64572135015874
 20
184.0
 10
99.0
 20
184.3073069551766
 10
99.75744989550526
 20
185.0
 10
100.0
 20
185.2363937944246
 10
100.73223255558959
 20
186.0
 10
101.0
 20
186.3004659138328
 10
101.57703228143058
 20
187.0
 10
102.0
 20
187.56906693315761
 10
102.30468688679983
 20
188.0
 10
102.88529167967313
 20
189.0
 10
103.0
 20
189.21258393824147
 10
103.38953350635705
 20
190.0
 10
103.75560132693417
 20
191.0
 10
104.0
 20
191.79521224458745
 10
104.06553615410085
 20
192.0
 10
104.27447574485097
 20
193.0
 10
104.38024588684466
 20
194.0
 10
104.39896066479393
 20
195.0
 10
104.3311371306786
 20
196.0
 10
104.16395911125875
 20
196.99999999999997
 10
104.0
 20
197.56453938265756
 10
103.87140459359404
 20
198.0
 10
103.50410584261122
 20
199.0
 10
103.0
 20
199.99595440993983
 10
102.99765255922398
 20
200.0
 10
102.34537856356759
 20
201.0
 10
102.0
 20
201.42900647097184
 10
101.49322078265413
 20
202.0
 10
101.0
 20
202.4866697768433
 10
100.40777784292762
 20
203.0
 10
100.0
 20
203.32499386016303
 10
99.0
 20
203.992551636422
 10
98.98810505420123
 20
204.0
 10
98.0
 20
204.54963948603222
 10
97.05467787441756
 20
205.0
 10
97.0
 20
205.02734152767874
 10
96.0
 20
205.43386545902504
 10
95.0
 20
205.76539225959465
 10
94.28454276491334
 20
206.0
 10
94.0
 20
206.09645681425013
 10
93.0
 20
206.3740954833843
 10
92.0
 20
206.6097913319905
 10
91.0
 20
206.84273728714547
 10
90.37543395179542
 20
207.0
 10
90.0
 20
207.0967823534105
 10
89.0
 20
207.3277124269406
 10
88.0
 20
207.54253927749795
 10
87.0
 20
207.7692322591869
 10
86.13440839957164
 20
208.0
 10
86.00000000000001
 20
208.03812556307173
 10
85.0
 20
208.3110463095004
 10
84.0
 20
208.57381290947473
 10
83.0
 20
208.8667162004354
 10
82.61492172333655
 20
209.0
 10
82.0
 20
209.2104607697221
 10
81.0
 20
209.5318457259519
 10
80.0
 20
209.87778609961663
 10
79.6951598475655
 20
210.0
 10
79.0
 20
210.2714098775001
 10
78.0
 20
210.63341493812112
 10
77.08707175912915
 20
211.0
 10
77.0
 20
211.03776409913556
 10
76.0
 20
211.43609428687407
 10
75.0
 20
211.81646492946908
 10
74.56373758394832
 20
212.0
 10
74.0
 20
212.2347842494607
 10
73.0
 20
212.5990120254182
 10
72.0
 20
212.97134660923362
 10
71.92695110116578
 20
213.0
 10
71.0
 20
213.3373221969822
 10
70.0
 20
213.645572649205
 10
69.0
 20
213.95283435084627
 10
68.84792391986868
 20
214.0
 10
68.0
 20
214.24884220869993
 10
67.0
 20
214.48099651821173
 10
66.0
 20
214.67773468571662
 10
65.0
 20
214.85384486034732
 10
64.06508867701862
 20
215.0
 10
64.0
 20
215.0107601676077
 10
63.0
 20
215.1292421905638
 10
62.0
 20
215.19955704844966
 10
61.0
 20
215.2261014702117
 10
60.0
 20
215.20913723260747
 10
59.0
 20
215.1450911056369
 10
58.0
 20
215.02505234931382
 10
57.861719543108464
 20
215.0
 10
57.0
 20
214.85174653343975
 10
56.0
 20
214.64509817816744
 10
55.0
 20
214.39386004109105
 10
54.0
 20
214.05330798202155
 10
53.87964439385076
 20
214.0
 10
53.0
 20
213.62672219073477
 10
52.0
 20
213.13822371620367
 10
51.77761707959734
 20
213.0
 10
51.0
 20
212.50865146889845
 10
50.31916007902872
 20
212.0
 10
50.0
 20
211.7352745343557
 10
49.221694760321675
 20
211.0
 10
49.0
 20
210.7609296667974
 10
48.37963746423928
 20
210.0
 10
48.0
 20
209.44307948431072
 10
47.71913247098405
 20
209.0
 10
47.25967307566677
 20
208.0
 10
46.99999999999999
 20
207.28243676246592
 10
46.8963352684956
 20
207.0
 10
46.67524271830796
 20
206.0
 10
46.583349967028965
 20
205.0
 10
46.60352562236332
 20
204.0
 10
46.74223965002967
 20
203.0
 10
47.0
 20
202.1166589198453
 10
47.03667460330743
 20
202.0
 10
47.4573921246714
 20
201.0
 10
48.0
 20
200.08956407849726
 10
48.06241236876036
 20
200.0
 10
48.89614049854285
 20
199.0
 10
49.0
 20
198.89697372611386
 10
50.0
 20
198.07275500463174
 10
50.102942528832955
 20
198.0
 10
51.0
 20
197.44990266266
 10
51.94114737646237
 20
197.0
 10
51.99999999999999
 20
196.97105581656365
 10
53.0
 20
196.605413777097
 10
54.0
 20
196.35244154924965
 10
55.0
 20
196.15467408697907
 10
55.95987358780403
 20
196.0
 10
56.0
 20
195.99314715537508
 10
56.99999999999999
 20
195.87373546044225
 10
58.0
 20
195.7938320084929
 10
59.0
 20
195.7363250087426
 10
60.0
 20
195.68792120205148
 10
61.0
 20
195.63720872067495
 10
62.00000000000001
 20
195.5737677932031
 10
63.0
 20
195.48728216942715
 10
64.0
 20
195.36547412766433
 10
65.0
 20
195.18933693497132
 10
65.73277930501594
 20
195.0
 10
66.0
 20
194.92774108997597
 10
67.0
 20
194.61753312636364
 10
68.0
 20
194.24185231402117
 10
68.47346328335776
 20
194.0
 10
69.0
 20
193.7180037462947
 10
70.0
 20
193.10267681144867
 10
70.13412319820077
 20
193.0
 10
71.0
 20
192.29249366178848
 10
71.30540658826848
 20
192.0
 10
72.0
 20
191.23688196116814
 10
72.19579535795705
 20
191.0
 10
72.86300889855201
 20
190.0
 10
73.0
 20
189.76751315496094
 10
73.40654429773201
 20
189.0
 10
73.79165267935312
 20
188.0
 10
74.0
 20
187.3487184851311
 10
74.11210140241522
 20
187.0
 10
74.31710852838414
 20
186.0
 10
74.42522898118716
 20
185.0
 10
74.45515094942985
 20
184.0
 10
74.41198297328535
 20
183.0
 10
74.2932920012326
 20
182.0
 10
74.08321825682573
 20
181.0
 10
74.0
 20
180.73351973395947
 10
73.7762478269643
 20
180.00000000000003
 10
73.42402926016814
 20
179.0
 10
73.0
 20
178.09373931284946
 10
72.95107351578272
 20
178.0
 10
72.39145313102794
 20
177.0
 10
72.0
 20
176.42358491452353
 10
71.6899529793901
 20
176.0
 10
71.0
 20
175.15369588318592
 10
70.86089514620294
 20
175.0
 10
70.0
 20
174.13703304699115
 10
69.84943826252656
 20
174.0
 10
69.0
 20
173.30281142328795
 10
68.5913983539186
 20
173.0
 10
68.0
 20
172.59351191980662
 10
67.0
 20
172.0165099701222
 10
66.96970687645468
 20
172.0
 10
66.0
 20
171.53047578921831
 10
65.0
 20
171.14626822917108
 10
64.58546901048368
 20
171.0
 10
64.0
 20
170.80017935914123
 10
63.0
 20
170.55952006248765
 10
62.0
 20
170.39017831039024
 10
61.0
 20
170.27496068410989
 10
60.0
 20
170.21233693193705
 10
59.0
 20
170.20452813014947
 10
58.00000000000001
 20
170.25082345844157
 10
57.0
 20
170.3468436402609
 10
56.0
 20
170.4891084318677
 10
55.0
 20
170.68303833685158
 10
54.0
 20
170.9524171896745
 10
53.86312342136421
 20
171.0
 10
53.0
 20
171.28636358116643
 10
52.0
 20
171.6355947537541
 10
51.16185344955357
 20
172.00000000000003
 10
51.0
 20
172.07631647859102
 10
50.0
 20
172.548464554016
 10
49.16324584457735
 20
173.0
 10
49.0
 20
173.0955374603981
 10
48.0
 20
173.6754650441318
 10
47.506899952336305
 20
174.0
 10
47.0
 20
174.34356026151164
 10
46.065791294318394
 20
175.0
 10
46.0
 20
175.04999872923835
 10
45.0
 20
175.80977832967923
 10
44.77002762045349
 20
176.0
 10
44.0
 20
176.64531014896465
 10
43.59885794743859
 20
177.0
 10
43.0
 20
177.54493203623153
 10
42.519327017576245
 20
178.0
 10
42.0
 20
178.5086542501455
 10
41.51519207839797
 20
179.0
 10
41.0
 20
179.5413503468804
 10
40.57645126545272
 20
180.0
 10
40.0
 20
180.65085389841715
 10
39.69718802196633
 20
181.0
 10
39.0
 20
181.8512378762605
 10
38.87825026801743
 20
182.0
 10
38.12732971909008
 20
183.0
 10
38.0
 20
183.16883047941025
 10
37.41051070448021
 20
184.0
 10
37.0
 20
184.60072012421122
 10
36.73017153249444
 20
185.0
 10
36.12800399210856
 20
186.0
 10
36.0
 20
186.2077350811093
 10
35.54292327078435
 20
187.0
 10
35.01447255644178
 20
188.0
 10
35.0
 20
188.0267889590526
 10
34.522667947005274
 20
189.0
 10
34.08135045989015
 20
190.00000000000003
 10
34.0
 20
190.1796175012866
 10
33.65385596529019
 20
191.0
 10
33.30174305638904
 20
192.0
 10
33.0
 20
192.8547866844442
 10
32.946190196211745
 20
193.0
 10
32.63952678160109
 20
194.0
 10
32.389134053365524
 20
195.0
 10
32.15778457212832
 20
196.0
 10
32.0
 20
196.70135195840288
 10
31.931277946626007
 20
197.0
 10
31.749850881408722
 20
198.0
 10
31.612987146580924
 20
199.0
 10
31.50928025148214
 20
200.0
 10
31.433178768304227
 20
201.0
 10
31.382700253960195
 20
202.0
 10
31.35756642822911
 20
203.0
 10
31.357875889317295
 20
204.0
 10
31.383422623251484
 20
205.0
 10
31.433701616350433
 20
206.0
 10
31.50856767930535
 20
207.0
 10
31.609442330092573
 20
208.0
 10
31.74090540023714
 20
209.0
 10
31.912498508699606
 20
210.0
 10
32.0
 20
210.40379716327402
 10
32.12812946895087
 20
211.0
 10
32.3477762526643
 20
212.0
 10
32.578130211258184
 20
213.0
 10
32.84658555039238
 20
214.0
 10
33.0
 20
214.46741837235203
 10
33.17543471724388
 20
215.0
 10
33.493535817748906
 20
216.0
 10
33.838717066902085
 20
217.0
 10
34.0
 20
217.39063594184216
 10
34.249791604031714
 20
217.99999999999997
 10
34.64362803376386
 20
219.0
 10
35.0
 20
219.7832273850329
 10
35.1050463660503
 20
220.0
 10
35.56794097200742
 20
221.0
 10
36.0
 20
221.8441507968509
 10
36.085836936329514
 20
222.0
 10
36.61517166828264
 20
223.0
 10
37.0
 20
223.65615233163734
 10
37.21079874505011
 20
224.0
 10
37.811751736332745
 20
225.0
 10
38.0
 20
225.27693333084346
 10
38.490337735459725
 20
226.0
 10
39.0
 20
226.71043125689215
 10
39.21922911910419
 20
227.0
 10
39.99251570825322
 20
228.0
 10
40.0
 20
228.00885746445093
 10
40.846396863791384
 20
229.0
 10
41.0
 20
229.16694244889925
 10
41.79829988493669
 20
230.0
 10
42.0
 20
230.1990397495175
 10
42.86658549606344
 20
231.0
 10
43.0
 20
231.11887003957628
 10
44.0
 20
231.92667640388404
 10
44.09371198860874
 20
232.0
 10
45.0
 20
232.6501756258885
 10
45.52099583411095
 20
233.0
 10
46.0
 20
233.31000635587242
 10
47.0
 20
233.86020419650364
 10
47.257596914606516
 20
234.0
 10
48.0
 20
234.3756414178801
 10
49.0
 20
234.79159808347586
 10
49.51277419132131
 20
235.0
 10
50.0
 20
235.1946990450856
 10
51.0
 20
235.50482887381145
 10
52.0
 20
235.76448412180886
 10
52.97178073975647
 20
236.0
 10
53.0
 20
236.0072725963413
 10
54.0
 20
236.20621437381797
 10
55.0
 20
236.3455853059663
 10
56.0
 20
236.44119958588138
 10
57.0
 20
236.50068282965782
 10
58.0
 20
236.52742104385814
 10
59.0
 20
236.52306515468612
 10
60.0
 20
236.48868229250382
 10
61.0
 20
236.42470260757898
 10
62.0
 20
236.3299337161107
 10
63.0
 20
236.1999911256584
 10
64.0
 20
236.02546859824875
 10
64.11728020373779
 20
236.0
 10
65.0
 20
235.81695009688758
 10
66.0
 20
235.60543237598662
 10
67.0
 20
235.37873060735845
 10
68.0
 20
235.11009733773835
 10
68.34026329385856
 20
235.0
 10
69.0
 20
234.7904753880447
 10
70.0
 20
234.48676390413394
 10
71.0
 20
234.15803519304055
 10
71.40735047609948
 20
234.0
 10
72.0
 20
233.77181253446517
 10
73.0
 20
233.41135723551832
 10
74.0
 20
233.01130110364713
 10
74.02510977304794
 20
233.0
 10
75.0
 20
232.5928007504731
 10
76.0
 20
232.18917774112413
 10
76.41305209164635
 20
232.0
 10
77.0
 20
231.73367721873635
 10
78.0
 20
231.3180657922662
 10
78.69701585518737
 20
231.0
 10
79.0
 20
230.85637989204588
 10
80.0
 20
230.43023544513267
 10
80.97382531987054
 20
230.0
 10
81.0
 20
229.98743892960448
 10
82.0
 20
229.5535399981381
 10
83.0
 20
229.14821458676695
 10
83.33768285393693
 20
229.0
 10
84.0
 20
228.71782728847393
 10
85.0
 20
228.34948483213714
 10
85.92007913271782
 20
228.00000000000003
 10
86.0
 20
227.96741805403929
 10
87.0
 20
227.61567372291663
 10
88.0
 20
227.31622000495062
 10
89.0
 20
227.01663748491126
 10
89.05637213744353
 20
227.0
 10
90.0
 20
226.73955368731097
 10
91.0
 20
226.52603410956445
 10
92.0
 20
226.3512438654563
 10
93.0
 20
226.20480434941558
 10
94.0
 20
226.08782925682843
 10
95.0
 20
226.008199934524
 10
95.24955480230238
 20
226.0
 10
96.0
 20
225.97495244226033
 10
97.0
 20
225.993924336926
 10
97.08298860904722
 20
226.0
 10
98.0
 20
226.0644915327158
 10
99.0
 20
226.18044553671461
 10
100.0
 20
226.33527801531753
 10
101.0
 20
226.52973013025127
 10
102.0
 20
226.7816528769445
 10
102.64454995988883
 20
227.0
 10
103.0
 20
227.1241725525196
 10
104.0
 20
227.48630235688208
 10
105.00000000000001
 20
227.90698202246122
 10
105.18132320198406
 20
228.0
 10
106.0
 20
228.40536288985015
 10
107.0
 20
228.93420952604774
 10
107.10687091994419
 20
229.0
 10
108.0
 20
229.52916919866348
 10
108.73641491941268
 20
230.0
 10
109.0
 20
230.17718373674472
 10
110.0
 20
230.83385670938648
 10
110.23057138992785
 20
231.0
 10
111.0
 20
231.542091790093
 10
111.63423400987696
 20
232.0
 10
112.0
 20
232.2685431862594
 10
113.0
 20
232.97369693461997
 10
113.03560822434096
 20
233.00000000000003
 10
114.0
 20
233.66860361853523
 10
114.47625748919424
 20
234.0
 10
115.0
 20
234.35708267578275
 10
116.0
 20
234.98764911298412
 10
116.01916015780228
 20
235.0
 10
117.0
 20
235.5762164235301
 10
117.76161033933256
 20
236.0
 10
118.0
 20
236.13498556097355
 10
119.0
 20
236.61086374757707
 10
119.86039958445411
 20
237.0
 10
120.0
 20
237.0657652837226
 10
121.0
 20
237.45223268756732
 10
122.0
 20
237.77573311982346
 10
122.71378045695333
 20
238.0
 10
123.0
 20
238.09203046950614
 10
124.0
 20
238.3423277977492
 10
125.0
 20
238.53319145883145
 10
126.0
 20
238.6878105774552
 10
127.00000000000001
 20
238.81532775445197
 10
128.0
 20
238.91680136170785
 10
129.0
 20
238.99002764157345
 10
129.23507725907638
 20
239.0
 10
130.0
 20
239.03228466339863
 10
131.0
 20
239.04410721233344
 10
132.0
 20
239.02928763513233
 10
132.75525431269693
 20
238.99999999999997
 10
133.0
 20
238.99045117237267
 10
134.0
 20
238.9324749333681
 10
135.0
 20
238.86130146748968
 10
136.0
 20
238.78153332353418
 10
137.0
 20
238.6964776396845
 10
138.0
 20
238.60790082024226
 10
139.0
 20
238.51603246539196
 10
140.0
 20
238.41972299424762
 10
141.0
 20
238.3166497063873
 10
142.0
 20
238.20348040869692
 10
143.0
 20
238.07590737895686
 10
143.52816199501945
 20
238.0
 10
144.0
 20
237.9318219076043
 10
145.0
 20
237.79018713544966
 10
146.0
 20
237.65111399521817
 10
147.0
 20
237.5074320040667
 10
148.0
 20
237.34811773802446
 10
149.0
 20
237.15634351136646
 10
149.64567079646307
 20
237.0
 10
150.0
 20
236.91201812802743
 10
151.0
 20
236.65587929422108
 10
152.0
 20
236.37952792734205
 10
153.0
 20
236.02703361617972
 10
153.06135606117346
 20
236.0
 10
154.0
 20
235.60658344073363
 10
155.0
 20
235.13441606559434
 10
155.22546342306134
 20
235.0
 10
156.0
 20
234.53251454484592
 10
156.7536201953763
 20
234.0
 10
157.0
 20
233.8060418136331
 10
157.90718859573462
 20
233.0
 10
158.0
 20
232.90609662316092
 10
158.7831229232444
 20
231.99999999999997
 10
159.0
 20
231.71004154937327
 10
159.4729349579441
 20
231.0
 10
159.9922356878546
 20
230.0
 10
160.0
 20
229.98257968648716
 10
160.38655783514258
 20
229.0
 10
160.63773714460052
 20
228.0
 10
160.79761939782483
 20
227.0
 10
160.870688656467
 20
226.0
 10
160.85345784831412
 20
225.0
 10
160.75290255744366
 20
224.0
 10
160.58248409270306
 20
223.0
 10
160.34370311003124
 20
222.0
 10
160.00534605661036
 20
221.0
 10
160.0
 20
220.9874914445747
 10
159.60473013740852
 20
220.0
 10
159.17537989141343
 20
219.0
 10
159.0
 20
218.65927881564153
 10
158.66453893809012
 20
218.0
 10
158.16850834487485
 20
217.0
 10
158.0
 20
216.69545520836851
 10
157.62671925768842
 20
216.0
 10
157.13181966823583
 20
215.0
 10
157.0
 20
214.74710963408378
 10
156.63071704303186
 20
214.0
 10
156.2123680639068
 20
213.0
 10
156.0
 20
212.48319202959226
 10
155.8032583237486
 20
212.0
 10
155.49659665853412
 20
211.0
 10
155.26264083595146
 20
210.0
 10
155.0843973046804
 20
209.0
 10
155.0
 20
208.2232815563707
 10
154.9746373995491
 20
207.99999999999997
 10
154.95548346249217
 20
207.0
 10
155.0
 20
206.44478446684374
 10
155.0348108670006
 20
206.0
 10
155.20323893506372
 20
205.0
 10
155.45189658635263
 20
204.0
 10
155.81168066982042
 20
203.0
 10
156.0
 20
202.6358264763908
 10
156.33970324646447
 20
202.0
 10
156.99894007183693
 20
201.0
 10
157.00000000000003
 20
200.99869394364973
 10
157.87688637161168
 20
200.0
 10
158.0
 20
199.87987508595046
 10
159.0
 20
199.0534490558931
 10
159.07333229985719
 20
199.0
 10
160.0
 20
198.41089106815588
 10
160.7962121064353
 20
198.0
 10
160.99999999999997
 20
197.89469291828703
 10
162.0
 20
197.51479556411329
 10
163.0
 20
197.23997735411004
 10
164.0
 20
197.0211725738788
 10
164.13386538175868
 20
197.0
 10
165.0
 20
196.86629568385652
 10
166.0
 20
196.78864545025363
 10
167.0
 20
196.770943499263
 10
168.0
 20
196.80367843653084
 10
169.00000000000003
 20
196.88170194095858
 10
169.97880503447368
 20
197.0
 10
170.0
 20
197.0026350552897
 10
171.0
 20
197.14682829556216
 10
172.0
 20
197.2923634969502
 10
173.0
 20
197.43211673736528
 10
174.0
 20
197.5621664080892
 10
175.0
 20
197.67790205723503
 10
176.00000000000003
 20
197.77089445678243
 10
176.99999999999997
 20
197.82830844108122
 10
178.0
 20
197.83568084015405
 10
179.0
 20
197.78168111023805
 10
180.0
 20
197.66015466053926
 10
181.0
 20
197.46217712800978
 10
182.0
 20
197.1510510774544
 10
182.32478624836227
 20
197.0
 10
183.0
 20
196.67679999337167
 10
184.0
 20
196.064135969853
 10
184.08041483641082
 20
196.0
 10
185.0
 20
195.17151826793028
 10
185.15825615018636
 20
195.0
 10
185.8720572976749
 20
194.0
 10
186.0
 20
193.77319901403087
 10
186.38253803856674
 20
193.0
 10
186.67624181073995
 20
192.0
 10
186.83144370801813
 20
191.0
 10
186.8510017250048
 20
190.0
 10
186.73515804190714
 20
189.00000000000003
 10
186.4929370455065
 20
188.0
 10
186.08853850555346
 20
187.0
 10
186.0
 20
186.84828233734083
 10
185.49045356503385
 20
186.0
 10
185.0
 20
185.36342300215483
 10
184.68060554800647
 20
185.0
 10
184.0
 20
184.33528726708832
 10
183.6048989805833
 20
184.0
 10
183.0
 20
183.53836569867943
 10
182.1668307951121
 20
183.0
 10
182.0
 20
182.89368649371818
 10
181.0
 20
182.37867298737183
 10
180.18989402487784
 20
182.0
 10
180.0
 20
181.90887914176864
 10
179.0
 20
181.51987706788017
 10
178.0
 20
181.18163122020138
 10
177.47558020620588
 20
181.0
 10
177.0
 20
180.83599099025534
 10
176.0
 20
180.55061916891648
 10
175.0
 20
180.2925903875516
 10
174.0
 20
180.0211354304797
 10
173.92517204909126
 20
180.0
 10
173.0
 20
179.75584262528312
 10
172.0
 20
179.53168366338357
 10
171.0
 20
179.3224324747813
 10
170.0
 20
179.10875263301787
 10
169.5056076448676
 20
179.0
 10
169.0
 20
178.88917659096666
 10
168.0
 20
178.7081378162356
 10
167.0
 20
178.56220660516937
 10
166.0
 20
178.44471403996937
 10
165.0
 20
178.3546285243596
 10
164.0
 20
178.2954383639185
 10
163.0
 20
178.2729180929262
 10
162.0
 20
178.2924888329272
 10
161.0
 20
178.35760948871496
 10
160.0
 20
178.47105836504068
 10
159.0
 20
178.64071042261148
 10
158.0
 20
178.8906606902152
 10
157.6867011067052
 20
179.0
 10
157.0
 20
179.23690955331014
 10
156.0
 20
179.6213662457085
 10
155.24611689311146
 20
180.0
 10
155.0
 20
180.13470355570874
 10
154.0
 20
180.72046674433187
 10
153.60846311819438
 20
181.0
 10
153.0
 20
181.4589587055587
 10
152.361585157992
 20
182.0
 10
152.0
 20
182.3345942199904
 10
151.34378038156942
 20
183.0
 10
151.0
 20
183.3806875206564
 10
150.48260926743342
 20
184.0
 10
150.0
 20
184.63657820237393
 10
149.73486913192
 20
185.0
 10
149.10547913494574
 20
185.99999999999997
 10
149.0
 20
186.16966172773834
 10
148.52435254663288
 20
187.0
 10
148.00925626191432
 20
188.0
 10
148.00000000000003
 20
188.01773295259954
 10
147.53571422779459
 20
189.0
 10
147.1110135153996
 20
190.0
 10
147.0
 20
190.24890649070176
 10
146.68288567665627
 20
191.0
 10
146.31685332171656
 20
192.0
 10
146.0
 20
192.8147203007562
 10
145.92446132439434
 20
193.0
 10
145.56394304519918
 20
194.0
 10
145.22217698362192
 20
195.0
 10
145.0
 20
195.5812824968316
 10
144.83834411047798
 20
196.0
 10
144.49106027165345
 20
197.0
 10
144.13482103328437
 20
198.0
 10
144.0
 20
198.33262735340853
 10
143.73778686748446
 20
199.0
 10
143.37533201093777
 20
200.0
 10
143.0
 20
200.92620850193106
 10
142.9678386683995
 20
201.0
 10
142.56032986630328
 20
202.0
 10
142.15297090340584
 20
203.0
 10
142.0
 20
203.32698128461504
 10
141.69411718741713
 20
204.0
 10
141.26214233066054
 20
205.0
 10
141.0
 20
205.53118606687374
 10
140.7666892856453
 20
206.0
 10
140.29651432684835
 20
206.99999999999997
 10
140.0
 20
207.5570948787366
 10
139.76058400872586
 20
208.0
 10
139.2426045913202
 20
209.0
 10
139.0
 20
209.4123322105437
 10
138.65517137363906
 20
210.0
 10
138.0648197259385
 20
211.0
 10
138.0
 20
211.0973351195738
 10
137.4196462678937
 20
212.0
 10
137.0
 20
212.60298700385385
 10
136.71308517328828
 20
213.0
 10
136.0
 20
213.95461588117342
 10
135.9634176641383
 20
214.0
 10
135.13845205357057
 20
215.00000000000003
 10
135.0
 20
215.15331262669818
 10
134.20137704229396
 20
216.0
 10
134.0
 20
216.19925264741696
 10
133.1233223123399
 20
217.0
 10
133.0
 20
217.10765729948713
 10
132.0
 20
217.87729113477243
 10
131.83106080443847
 20
218.0
 10
131.0
 20
218.5493867554777
 10
130.21432845952557
 20
219.0
 10
130.0
 20
219.12337125046616
 10
129.0
 20
219.57243786365177
 10
128.0
 20
219.93976352663148
 10
127.81123643809818
 20
220.0
 10
127.0
 20
220.24454626033884
 10
126.0
 20
220.43446765447527
 10
125.0
 20
220.53985389039207
 10
124.0
 20
220.5690201640574
 10
123.0
 20
220.52115043032762
 10
122.0
 20
220.39087706170108
 10
121.0
 20
220.15750070337668
 10
120.56728607336424
 20
220.0
 10
120.0
 20
219.79140622589793
 10
119.0
 20
219.3499604589744
 10
118.41972075065445
 20
219.0
 10
118.0
 20
218.7237922412964
 10
117.0725910432156
 20
218.0
 10
117.0
 20
217.9343911551666
 10
116.10666193018878
 20
217.0
 10
116.0
 20
216.8707714751701
 10
115.37400127626557
 20
216.0
 10
115.0
 20
215.36652732240992
 10
114.79243751186705
 20
215.0
 10
114.38431890078596
 20
214.0
 10
114.07288786978668
 20
213.0
 10
114.0
 20
212.69782929196646
 10
113.83545418547232
 20
212.0
 10
113.70849838815155
 20
211.0
 10
113.66876194785274
 20
210.0
 10
113.70703239534951
 20
209.0
 10
113.82587222353713
 20
208.0
 10
114.0
 20
207.1853784376164
 10
114.04089187604576
 20
207.0
 10
114.31638507592734
 20
206.0
 10
114.64448266679642
 20
205.0
 10
115.0
 20
204.1941122389585
 10
115.09247792699789
 20
204.0
 10
115.59286500884119
 20
203.0
 10
116.0
 20
202.32460978877987
 10
116.2085748267997
 20
202.0
 10
116.88178038556883
 20
201.0
 10
117.0
 20
200.84757635505625
 10
117.66553027816971
 20
200.0
 10
118.0
 20
199.61077244727153
 10
118.54577182080543
 20
199.0
 10
119.0
 20
198.52023071120578
 10
119.51430217106977
 20
198.0
 10
120.0
 20
197.52867398456772
 10
120.56729551491063
 20
197.0
 10
121.0
 20
196.6078413679204
 10
121.69835264908164
 20
196.0
 10
122.0
 20
195.7400724779893
 10
122.90058170912971
 20
195.0
 10
123.0
 20
194.9171422864012
 10
124.0
 20
194.13073297012252
 10
124.16225959268586
 20
194.0
 10
125.0
 20
193.3479791218284
 10
125.44329041400499
 20
193.0
 10
126.0
 20
192.56576168377381
 10
126.73328091268185
 20
192.0
 10
126.99999999999999
 20
191.78922571895714
 10
128.0
 20
191.02355001186518
 10
128.02920244150025
 20
191.0
 10
129.0
 20
190.24080535566085
 10
129.29542434913378
 20
190.0
 10
130.0
 20
189.42798101683002
 10
130.5138591296583
 20
189.0
 10
131.0
 20
188.58823128490428
 10
131.68294960286286
 20
188.0
 10
132.0
 20
187.71863538578282
 10
132.7968263200707
 20
187.0
 10
133.0
 20
186.81020865007696
 10
133.8477786308974
 20
186.0
 10
134.0
 20
185.8494319131553
 10
134.83007520649025
 20
185.0
 10
135.0
 20
184.82057057938954
 10
135.74302947940055
 20
184.0
 10
136.0
 20
183.7069715921591
 10
136.5907967199278
 20
183.0
 10
137.0
 20
182.48754830293743
 10
137.37629348876246
 20
182.0
 10
138.0
 20
181.12088687693108
 10
138.08661999475905
 20
181.0
 10
138.71289009325056
 20
180.0
 10
139.0
 20
179.52854535070298
 10
139.3108836194936
 20
179.0
 10
139.8085464537565
 20
178.0
 10
140.0
 20
177.6130415551744
 10
140.2903523189712
 20
177.0
 10
140.6716218445782
 20
176.0
 10
141.0
 20
175.09460553115065
 10
141.036184092081
 20
175.0
 10
141.34160754116917
 20
174.0
 10
141.57380203403036
 20
173.0
 10
141.76712419555574
 20
172.0
 10
141.93294508884162
 20
171.0
 10
142.0
 20
170.4941659497366
 10
142.06569032718528
 20
170.0
 10
142.1481442319245
 20
169.0
 10
142.18607953072757
 20
168.0
 10
142.18440225413588
 20
167.0
 10
142.14494450582146
 20
166.0
 10
142.06694257755572
 20
165.0
 10
142.0
 20
164.43232681275674
 10
141.94881703828295
 20
163.99999999999997
 10
141.80747547768522
 20
163.0
 10
141.6520920169212
 20
162.0
 10
141.48208779345538
 20
161.0
 10
141.28871800612762
 20
160.0
 10
141.05489734999787
 20
159.0
 10
141.0
 20
158.7992837722188
 10
140.78989643228667
 20
158.0
 10
140.54271639652166
 20
157.0
 10
140.28994301627856
 20
156.0
 10
140.0
 20
155.0065200743412
 10
139.99793051660018
 20
155.0
 10
139.69947113643732
 20
154.0
 10
139.42894440283771
 20
153.0
 10
139.14652315042963
 20
152.0
 10
139.0
 20
151.53503631664458
 10
138.83170321526117
 20
151.0
 10
138.55469568919042
 20
150.0
 10
138.2921865463361
 20
149.0
 10
138.00687040543886
 20
148.0
 10
138.0
 20
147.97722052741176
 10
137.7255239392645
 20
147.0
 10
137.48421792528347
 20
146.0
 10
137.25166518321902
 20
145.0
 10
137.0020820307299
 20
144.0
 10
137.0
 20
143.99192339692613
 10
136.76069728605208
 20
143.0
 10
136.55660495530796
 20
142.0
 10
136.36892300998667
 20
141.0
 10
136.18085450693843
 20
140.0
 10
136.0
 20
139.09449988134355
 10
135.98002685988573
 20
139.0
 10
135.7913898754392
 20
138.0
 10
135.629262451277
 20
137.0
 10
135.48173168054444
 20
136.0
 10
135.33831995673825
 20
135.0
 10
135.18976747655313
 20
134.0
 10
135.0277570802838
 20
133.0
 10
135.0
 20
132.83958792245113
 10
134.85933355341166
 20
132.0
 10
134.7056604383103
 20
131.0
 10
134.55924967880395
 20
130.0
 10
134.4106420675058
 20
129.0
 10
134.2486053375159
 20
128.0
 10
134.05956499772535
 20
127.0
 10
134.0
 20
126.72727459793501
 10
133.8451899534578
 20
126.0
 10
133.6408022241816
 20
125.0
 10
133.43402293707
 20
124.0
 10
133.2021220666632
 20
123.0
 10
133.0
 20
122.28070185561387
 10
132.91791787354765
 20
122.0
 10
132.63418051390576
 20
121.0
 10
132.34866530749179
 20
120.0
 10
132.00940074867756
 20
119.0
 10
132.0
 20
118.97615400291544
 10
131.64175215238842
 20
118.0
 10
131.27811791295076
 20
117.0
 10
131.0
 20
116.35675259636207
 10
130.83981795178042
 20
116.0
 10
130.40916242796476
 20
115.0
 10
130.0
 20
114.16188196106444
 10
129.91497359627795
 20
114.0
 10
129.4075535063821
 20
113.0
 10
129.0
 20
112.27966889880345
 10
128.83278781898804
 20
112.0
 10
128.24723535213172
 20
111.0
 10
128.0
 20
110.628378811989
 10
127.57774289636293
 20
110.0
 10
126.99999999999999
 20
109.1820032147656
 10
126.86257980077269
 20
109.0
 10
126.09816757054982
 20
108.0
 10
126.0
 20
107.88346887204978
 10
125.24246991445192
 20
107.0
 10
125.0
 20
106.73707692050533
 10
124.28919289236208
 20
106.0
 10
124.0
 20
105.71683025814333
 10
123.2172778777672
 20
105.0
 10
123.0
 20
104.80903454671454
 10
122.0
 20
104.01500227394772
 10
121.98048399601164
 20
104.0
 10
121.0
 20
103.3182284905906
 10
120.50869351986768
 20
103.0
 10
120.0
 20
102.68476041281957
 10
119.0
 20
102.17259243349926
 10
118.64888225422739
 20
102.0
 10
118.0
 20
101.69884104448175
 10
117.0
 20
101.34550891823483
 10
116.00000000000001
 20
101.03973562379849
 10
115.84757489856051
 20
101.0
 10
115.0
 20
100.79132545210115
 10
114.0
 20
100.63911872973497
 10
113.0
 20
100.56238898541628
 10
112.0
 20
100.55564468774585
 10
111.0
 20
100.62142119272687
 10
110.0
 20
100.77072921407824
 10
109.12267246225632
 20
101.0
 10
109.0
 20
101.03433793151993
 10
108.0
 20
101.38234726977794
 10
107.0
 20
101.82545720428027
 10
106.70981246893149
 20
102.0
 10
106.0
 20
102.4462821676362
 10
105.27661594194578
 20
103.0
 10
105.0
 20
103.2417856016636
 10
104.25318868815494
 20
104.0
 10
104.0
 20
104.30006728745943
 10
103.48104647159934
 20
105.0
 10
103.0
 20
105.8098455436275
 10
102.8897497055397
 20
106.0
 10
102.469216183286
 20
107.0
 10
102.17252400620399
 20
108.0
 10
102.0
 20
108.79555721593925
 10
101.95401252365977
 20
109.0
 10
101.84199729540926
 20
110.0
 10
101.83174107038343
 20
111.0
 10
101.91712575029437
 20
112.0
 10
102.0
 20
112.44537949657862
 10
102.10207534413787
 20
113.0
 10
102.35135839851966
 20
114.0
 10
102.66636360672163
 20
115.0
 10
103.0
 20
115.77185497975191
 10
103.1065692944893
 20
116.0
 10
103.59918347943
 20
117.0
 10
104.0
 20
117.67723737244498
 10
104.20390157454398
 20
118.0
 10
104.85443428011304
 20
119.0
 10
105.0
 20
119.19557159453433
 10
105.60014483646948
 20
120.0
 10
106.0
 20
120.50054049968901
 10
106.41026385646313
 20
121.0
 10
107.0
 20
121.69931058922909
 10
107.26158079299431
 20
122.0
 10
108.0
 20
122.84737649655096
 10
108.13650017587017
 20
123.0
 10
109.0
 20
123.98199918256606
 10
109.01616791204953
 20
124.0
 10
109.88534624513565
 20
125.0
 10
110.0
 20
125.13071449952707
 10
110.73606798765412
 20
126.0
 10
111.0
 20
126.31389195572369
 10
111.5584631531526
 20
127.0
 10
112.0
 20
127.55881835060399
 10
112.34303178037345
 20
128.0
 10
113.0
 20
128.90381319512298
 10
113.0714041631948
 20
129.0
 10
113.73962574038796
 20
130.0
 10
114.0
 20
130.39071572688079
 10
114.392051959739
 20
131.0
 10
114.97894844656898
 20
132.0
 10
115.0
 20
132.03491049459683
 10
115.53357112394514
 20
133.0
 10
116.0
 20
133.892186728652
 10
116.05931483731031
 20
134.0
 10
116.53806248507918
 20
135.0
 10
116.99785919574498
 20
136.0
 10
117.0
 20
136.00445995817685
 10
117.43658003161858
 20
137.0
 10
117.83331819284842
 20
138.0
 10
118.0
 20
138.39126958561064
 10
118.25384111698997
 20
139.0
 10
118.61581424838153
 20
140.0
 10
118.99354349574101
 20
141.0
 10
119.0
 20
141.0159490010012
 10
119.36698013428331
 20
142.0
 10
119.7029665134345
 20
143.0
 10
120.0
 20
143.8071276921103
 10
120.07496216807452
 20
144.0
 10
120.42345335736343
 20
145.0
 10
120.75227577663877
 20
146.0
 10
121.0
 20
146.67716806572662
 10
121.12206222415588
 20
147.0
 10
121.4590546534699
 20
148.0
 10
121.78371149401973
 20
149.0
 10
122.0
 20
149.60052283776537
 10
122.14669818132569
 20
150.0
 10
122.46967831437516
 20
151.0
 10
122.77776129119516
 20
152.0
 10
123.0
 20
152.66251387560783
 10
123.11651534041727
 20
153.0
 10
123.41450437694044
 20
154.0
 10
123.68108110550133
 20
155.0
 10
123.95347936755104
 20
156.0
 10
124.0
 20
156.16851135387927
 10
124.21894092408357
 20
157.0
 10
124.42890612642523
 20
158.0
 10
124.60311556940049
 20
159.0
 10
124.75207132117163
 20
160.0
 10
124.87594247301182
 20
161.0
 10
124.96723324675773
 20
162.0
 10
125.0
 20
162.6875334031124
 10
125.01529633577863
 20
163.0
 10
125.01059357948134
 20
164.0
 10
125.0
 20
164.16876485191955
 10
124.9496381131018
 20
165.0
 10
124.83572593484627
 20
166.0
 10
124.67365397285519
 20
167.0
 10
124.45962508201276
 20
168.0
 10
124.16401110960777
 20
169.0
 10
124.0
 20
169.39946036877043
 10
123.75202565689695
 20
170.0
 10
123.28860637798871
 20
171.0
 10
123.00000000000001
 20
171.47779444032187
 10
122.66622330872256
 20
172.0
 10
122.0
 20
172.90073906387627
 10
121.91671623186247
 20
173.0
 10
121.0
 20
173.967669002579
 10
120.96518087572083
 20
174.0
 10
120.0
 20
174.78380898647254
 10
119.69374925418721
 20
175.0
 10
119.0
 20
175.44262556374474
 10
118.0
 20
175.9364188366144
 10
117.85277944004434
 20
176.0
 10
117.0
 20
176.3365154854738
 10
116.0
 20
176.5948613553544
 10
115.0
 20
176.76602725653254
 10
114.0
 20
176.8587188978641
 10
113.0
 20
176.8676630507134
 10
112.0
 20
176.7938325646521
 10
111.0
 20
176.64638876758357
 10
110.0
 20
176.42818733040622
 10
109.0
 20
176.11226735377207
 10
108.73959022128238
 20
176.0
 10
108.0
 20
175.68761493040643
 10
107.0
 20
175.21530978402308
 10
106.63863978744368
 20
175.0
 10
106.0
 20
174.6127011935033
 10
105.0890596303498
 20
174.0
 10
105.0
 20
173.93418482181866
 10
104.0
 20
173.16956419289633
 10
103.80165464870619
 20
173.0
 10
103.0
 20
172.2941414900997
 10
102.68789357587255
 20
172.0
 10
102.0
 20
171.32409673463002
 10
101.68403621033244
 20
171.0
 10
101.0
 20
170.26627617910827
 10
100.75747599653553
 20
170.0
 10
100.0
 20
169.12646260585666
 10
99.8904700757653
 20
169.0
 10
99.07394080353183
 20
168.0
 10
99.0
 20
167.910638608406
 10
98.27857837920757
 20
167.0
 10
98.0
 20
166.65030315418332
 10
97.49217233152936
 20
166.0
 10
97.0
 20
165.36231853637705
 10
96.71750593695846
 20
165.0
 10
96.00000000000001
 20
164.04670266460803
 10
95.96332698381859
 20
164.0
 10
95.21597212998057
 20
163.0
 10
95.0
 20
162.72211859552482
 10
94.44833036056899
 20
162.0
 10
94.0
 20
161.41916412249947
 10
93.67221683078239
 20
161.0
 10
93.0
 20
160.1268437919583
 10
92.89844268615917
 20
160.0
 10
92.12702565071288
 20
159.0
 10
92.0
 20
158.84313486031732
 10
91.33175456787822
 20
158.0
 10
91.0
 20
157.59146775218701
 10
90.52032582753517
 20
157.0
 10
90.0
 20
156.360081962294
 10
89.70273013827833
 20
156.0
 10
89.0
 20
155.13381700436037
 10
88.88823961582578
 20
155.0
 10
88.08381283364903
 20
154.0
 10
88.0
 20
153.89928948054927
 10
87.2755444074837
 20
153.0
 10
87.0
 20
152.66252380575523
 10
86.46955739688869
 20
152.0
 10
86.0
 20
151.40656915205489
 10
85.6788891234428
 20
151.0
 10
85.0
 20
150.10116103399568
 10
84.92166617691551
 20
150.0
 10
84.20557299496991
 20
149.0
 10
84.0
 20
148.7178807805742
 10
83.4982055544832
 20
148.0
 10
83.0
 20
147.25828955487282
 10
82.82395996680354
 20
147.0
 10
82.21322515519257
 20
146.0
 10
82.0
 20
145.66030641536256
 10
81.60103889819413
 20
145.0
 10
81.04548322382193
 20
144.0
 10
81.0
 20
143.9217083191743
 10
80.50427459943192
 20
143.0
 10
80.0
 20
142.0147411148775
 10
79.99190740234651
 20
142.0
 10
79.50055748523445
 20
141.0
 10
79.02729636826216
 20
140.0
 10
79.0
 20
139.94632339413113
 10
78.55406279496663
 20
139.0
 10
78.10393960862999
 20
138.0
 10
78.0
 20
137.79163039283327
 10
77.6227264453076
 20
137.0
 10
77.16702525237287
 20
136.0
 10
77.0
 20
135.6774816983137
 10
76.65587511779887
 20
135.0
 10
76.15791556250753
 20
134.0
 10
76.0
 20
133.725235851827
 10
75.58957699512924
 20
133.0
 10
75.00000000000001
 20
132.0070128696548
 10
74.99541205480175
 20
131.99999999999997
 10
74.33974674219805
 20
131.0
 10
74.0
 20
130.5384300965069
 10
73.5862298036654
 20
130.0
 10
73.0
 20
129.2949059523002
 10
72.73552485094284
 20
129.0
 10
72.0
 20
128.2415516264939
 10
71.74523525523271
 20
128.0
 10
71.0
 20
127.35303072299516
 10
70.55129131916127
 20
127.0
 10
70.0
 20
126.5965777572537
 10
69.0401954243046
 20
126.0
 10
69.0
 20
125.97473142678616
 10
68.0
 20
125.46666412794312
 10
67.0
 20
125.05188237322781
 10
66.86146780568987
 20
125.0
 10
66.0
 20
124.70304369711309
 10
65.0
 20
124.46790507933308
 10
64.0
 20
124.30358262495727
 10
62.99999999999999
 20
124.19938637253091
 10
62.0
 20
124.15805717476124
 10
61.0
 20
124.18173959841708
 10
60.0
 20
124.26638226171471
 10
59.0
 20
124.40499433553097
 10
58.0
 20
124.5974047561557
 10
57.0
 20
124.86288154304827
 10
56.61522979411813
 20
125.0
 10
56.0
 20
125.21834951495879
 10
55.0
 20
125.59035916573905
 10
54.10230326718816
 20
126.0
 10
54.0
 20
126.05118492288216
 10
53.0
 20
126.55294068720934
 10
52.21166923453624
 20
126.99999999999999
 10
52.0
 20
127.12881868466117
 10
51.0
 20
127.72846886373736
 10
50.5975163678993
 20
128.0
 10
50.0
 20
128.4073288948702
 10
49.15431967818305
 20
129.0
 10
49.0
 20
129.11464639985473
 10
48.0
 20
129.8382510485172
 10
47.79180831989761
 20
130.0
 10
47.0
 20
130.60502956384659
 10
46.496330342166274
 20
131.0
 10
46.0
 20
131.39165680430585
 10
45.221200768977845
 20
132.0
 10
45.0
 20
132.1771910444811
 10
44.0
 20
132.94332333498792
 10
43.92875136179878
 20
133.0
 10
43.0
 20
133.70634189583302
 10
42.61776402615571
 20
134.0
 10
42.0
 20
134.4648214885308
 10
41.26783444598225
 20
135.0
 10
41.0
 20
135.19856641273066
 10
40.0
 20
135.88301709687494
 10
39.83494396840879
 20
136.0
 10
39.0
 20
136.56093465467356
 10
38.331176738722036
 20
137.0
 10
38.0
 20
137.2197496776364
 10
37.0
 20
137.81814013671809
 10
36.70841489217956
 20
138.0
 10
36.0
 20
138.42393074971065
 10
35.0
 20
138.984148345124
 10
34.97303608125822
 20
139.0
 10
34.0
 20
139.5269715895372
 10
33.09707841428522
 20
140.0
 10
33.0
 20
140.0538963081224
 10
32.0
 20
140.54698469931938
 10
31.067807697744882
 20
140.99999999999997
 10
31.0
 20
141.03524164252755
 10
30.0
 20
141.49789440042588
 10
29.0
 20
141.94204395966887
 10
28.87847968553097
 20
142.0
 10
28.0
 20
142.39154771956547
 10
27.0
 20
142.79584099969705
 10
26.53466965336009
 20
143.0
 10
26.000000000000004
 20
143.23284626193742
 10
25.0
 20
143.61406466178144
 10
24.030812087082833
 20
144.0
 10
24.0
 20
144.01329540447605
 10
23.0
 20
144.40026505469484
 10
22.0
 20
144.75162085240305
 10
21.350818691426266
 20
145.0
 10
21.0
 20
145.137818375292
 10
20.0
 20
145.48122670808198
 10
19.0
 20
145.80991285475548
 10
18.471222389202005
 20
146.0
 10
18.0
 20
146.17047049776724
 10
17.0
 20
146.48452231966456
 10
16.0
 20
146.78498480140001
 10
15.343906672425586
 20
147.0
 10
15.0
 20
147.11593734004495
 10
14.0
 20
147.40963507664213
 10
13.0
 20
147.67782235645157
 10
12.0
 20
147.96227898267028
 10
11.875040922532538
 20
148.0
 10
11.0
 20
148.24985557789515
 10
10.0
 20
148.4943783334071
 10
9.0
 20
148.72764969971126
 10
8.0
 20
148.97714625356105
 10
7.912465679815601
 20
149.0
 10
7.000000000000001
 20
149.22540093495292
 10
6.0
 20
149.43618584748884
 10
5.0
 20
149.63122709493922
 10
4.0
 20
149.82914399468035
 10
3.195696063427371
 20
150.0
 10
3.0
 20
150.0435063533593
 10
2.0
 20
150.24159575247063
 10
1.0
 20
150.41372178338025
 10
0.0
 20
150.57338327501083
  0
LWPOLYLINE
  5
40
330
17
100
AcDbEntity
  8
0
100
AcDbPolyline
 90
171
 70
0
 10
255.0
 20
195.7449013987104
 10
254.0
 20
195.37463931070752
 10
253.03815144282876
 20
195.0
 10
253.0
 20
194.98400574849023
 10
252.0
 20
194.606099539956
 10
251.0
 20
194.2559067786903
 10
250.34681053947187
 20
194.0
 10
250.0
 20
193.8608148526864
 10
249.0
 20
193.49756398701592
 10
248.0
 20
193.1247782270676
 10
247.70650996090865
 20
193.0
 10
247.0
 20
192.71009178754568
 10
246.0
 20
192.32637622897005
 10
245.2511964483126
 20
192.0
 10
245.0
 20
191.8853807848359
 10
244.00000000000003
 20
191.46027646111753
 10
243.00000000000003
 20
191.00154683367037
 10
242.99699143197722
 20
191.0
 10
242.0
 20
190.5260581234656
 10
241.0
 20
190.03817451647458
 10
240.9302427748423
 20
190.0
 10
240.0
 20
189.52319514484705
 10
239.0039264950569
 20
189.0
 10
239.0
 20
188.9977588561071
 10
238.0
 20
188.4616438774758
 10
237.1659405766923
 20
188.0
 10
237.0
 20
187.90308506408206
 10
236.0
 20
187.36535730273064
 10
235.35476580171525
 20
187.0
 10
235.0
 20
186.79517280184228
 10
234.0
 20
186.27174157880205
 10
233.5105539193978
 20
186.0
 10
233.0
 20
185.7195352901783
 10
232.0
 20
185.2299716855545
 10
231.55273010102638
 20
185.0
 10
231.0
 20
184.72202283740052
 10
230.0
 20
184.29016650396312
 10
229.33958063045574
 20
184.0
 10
229.0
 20
183.84876377263902
 10
228.0
 20
183.48255156637742
 10
227.0
 20
183.15655932754427
 10
226.5121629162376
 20
183.0
 10
226.0
 20
182.83758700344632
 10
225.0
 20
182.59537552835909
 10
224.0
 20
182.4093207141993
 10
223.0
 20
182.2625303507581
 10
222.0
 20
182.15292361464816
 10
221.0
 20
182.08592364516753
 10
220.0
 20
182.0676473003085
 10
219.0
 20
182.10017940127358
 10
218.0
 20
182.1802125481243
 10
217.0
 20
182.3014597985736
 10
216.0
 20
182.46027881891024
 10
215.0
 20
182.66319536417564
 10
214.0
 20
182.9350566594635
 10
213.8130275120905
 20
183.0
 10
213.0
 20
183.27144666812055
 10
212.0
 20
183.61724059991963
 10
211.09913758645504
 20
184.0
 10
210.99999999999997
 20
184.04605878329056
 10
210.0
 20
184.50990001588374
 10
209.05684279698104
 20
185.0
 10
209.0
 20
185.0325081749642
 10
208.0
 20
185.59742181474002
 10
207.3589836351345
 20
186.0
 10
207.0
 20
186.23623460131458
 10
206.0
 20
186.8955624136407
 10
205.85843595299963
 20
187.0
 10
205.0
 20
187.62603231931308
 10
204.51957009697054
 20
188.0
 10
204.0
 20
188.4148315719691
 10
203.2896262962127
 20
189.0
 10
203.0
 20
189.24856717207126
 10
202.13930537667784
 20
190.0
 10
202.0
 20
190.1269301542227
 10
201.05636071808993
 20
191.00000000000003
 10
201.00000000000003
 20
191.0540944836821
 10
200.03407612984225
 20
192.0
 10
200.0
 20
192.03430067169398
 10
199.06652137361309
 20
193.0
 10
199.00000000000003
 20
193.0701137948671
 10
198.14708382220888
 20
194.0
 10
198.0
 20
194.16246429626878
 10
197.2687975740439
 20
195.0
 10
197.0
 20
195.31208223661326
 10
196.42597152749818
 20
196.0
 10
196.0
 20
196.52240829826957
 10
195.61699997529615
 20
197.0
 10
195.0
 20
197.80437257404796
 10
194.84822732354715
 20
198.0
 10
194.13082568424886
 20
199.0
 10
194.0
 20
199.17739486003342
 10
193.42340950704164
 20
200.0
 10
193.0
 20
200.61176066305688
 10
192.7310198404353
 20
201.0
 10
192.08729186765828
 20
202.0
 10
192.0
 20
202.12871467193023
 10
191.44248234067436
 20
203.0
 10
191.0
 20
203.6922496771092
 10
190.79954957005089
 20
204.0
 10
190.1986614413992
 20
205.0
 10
190.0
 20
205.30945754257465
 10
189.5707765652935
 20
206.0
 10
189.0
 20
206.9380604474833
 10
188.9600977880609
 20
207.0
 10
188.36360308680906
 20
208.00000000000003
 10
188.0
 20
208.58658586218388
 10
187.74158247324127
 20
209.0
 10
187.15879344323972
 20
210.0
 10
187.0
 20
210.25258846146403
 10
186.54921718904401
 20
211.0
 10
186.0
 20
211.92903860821616
 10
185.9556131262691
 20
212.0
 10
185.38323726338854
 20
213.0
 10
185.0
 20
213.6536451782593
 10
184.79384251357715
 20
214.0
 10
184.25685296738988
 20
215.0
 10
184.0
 20
215.45256017497945
 10
183.6949473667387
 20
216.0
 10
183.19306828699902
 20
217.0
 10
183.0
 20
217.36221153280627
 10
182.67180828836848
 20
218.0
 10
182.2151902226637
 20
219.0
 10
182.0
 20
219.44636420398615
 10
181.73883532404705
 20
220.0
 10
181.3340925328005
 20
221.0
 10
181.0
 20
221.80512451854207
 10
180.91569160637212
 20
222.0
 10
180.54791047264203
 20
223.0
 10
180.21925465952916
 20
224.0
 10
180.0
 20
224.6420624384821
 10
179.87590214398497
 20
225.0
 10
179.58888924260316
 20
226.0
 10
179.34179829020349
 20
227.0
 10
179.10060065271227
 20
227.99999999999997
 10
179.0
 20
228.41682951072238
 10
178.86147409136638
 20
229.0
 10
178.67016270978556
 20
230.0
 10
178.5137363122725
 20
231.0
 10
178.37931207845213
 20
232.0
 10
178.26000156041425
 20
233.00000000000003
 10
178.15347658481932
 20
234.0
 10
178.06061383270242
 20
235.0
 10
178.0
 20
235.79790995887907
 10
177.98437466566145
 20
236.0
 10
177.9314560830353
 20
237.0
 10
177.9028273643214
 20
238.0
 10
177.8980706477578
 20
239.0
 10
177.91830622296254
 20
240.0
 10
177.9664163174144
 20
241.0
 10
178.0
 20
241.4210117044109
 10
178.04580746246717
 20
242.0
 10
178.15139187712344
 20
243.0
 10
178.28075993428283
 20
244.0
 10
178.43571579833758
 20
245.0
 10
178.62655868836907
 20
246.0
 10
178.87951313528484
 20
247.0
 10
179.0
 20
247.35830332079786
 10
179.21383592390475
 20
248.0
 10
179.57084218677943
 20
249.0
 10
180.0
 20
249.93936693096785
 10
180.03093315755171
 20
250.0
 10
180.57449952285543
 20
251.0
 10
181.0
 20
251.6432212589832
 10
181.2581503080162
 20
252.0
 10
182.0
 20
252.90609463627177
 10
182.08738709873637
 20
253.0
 10
183.0
 20
253.8625598417383
 10
183.16626036613224
 20
254.0
 10
184.0
 20
254.60405635378953
 10
184.66393116782118
 20
255.0
  0
LWPOLYLINE
  5
41
330
17
100
AcDbEntity
  8
0
100
AcDbPolyline
 90
49
 70
0
 10
0.0
 20
221.4117593578695
 10
0.3635235823334971
 20
222.0
 10
0.8635422695080226
 20
223.0
 10
1.0
 20
223.29004413020124
 10
1.3137024824310926
 20
224.0
 10
1.64265017168032
 20
225.0
 10
1.9220481168818648
 20
226.0
 10
2.0
 20
226.32033296807407
 10
2.1616769495713783
 20
227.0
 10
2.3221139397023705
 20
228.0
 10
2.425285253953832
 20
229.0
 10
2.4856823197156674
 20
230.0
 10
2.5120519982216765
 20
231.0
 10
2.51135981319997
 20
232.0
 10
2.4903560565924874
 20
233.0
 10
2.4558942767358376
 20
234.0
 10
2.4149040473237102
 20
235.0
 10
2.3744545008165856
 20
236.0
 10
2.3418959733017504
 20
237.0
 10
2.324825236512722
 20
238.0
 10
2.3306756369749184
 20
239.0
 10
2.366094372788691
 20
240.0
 10
2.4368368968562306
 20
241.0
 10
2.5494340311062205
 20
242.0
 10
2.716052894607456
 20
243.0
 10
2.9638092262593076
 20
244.0
 10
3.0
 20
244.107592660865
 10
3.2863747155077156
 20
245.00000000000003
 10
3.6485732020851103
 20
246.0
 10
4.0
 20
246.7320934359419
 10
4.139339669147208
 20
247.0
 10
4.697107289709816
 20
248.0
 10
5.0
 20
248.44085786466184
 10
5.407563680436809
 20
249.0
 10
6.0
 20
249.72142307548228
 10
6.251906161339223
 20
250.0
 10
7.0
 20
250.75069179383325
 10
7.272831997706032
 20
251.00000000000003
 10
8.0
 20
251.60662295046225
 10
8.520436474897387
 20
252.0
 10
9.0
 20
252.34253038025662
 10
10.000000000000002
 20
252.95445391953518
 10
10.076344267064798
 20
253.0
 10
11.0
 20
253.4973929136658
 10
12.0
 20
253.96827373021878
 10
12.067956311067336
 20
254.0
 10
13.0
 20
254.39544555027823
 10
14.0
 20
254.74563822772416
 10
14.727028719374436
 20
255.0
  0
LWPOLYLINE
  5
42
330
17
100
AcDbEntity
  8
0
100
AcDbPolyline
 90
99
 70
0
 10
31.84968362920388
 20
255.0
 10
32.0
 20
254.9097568000848
 10
33.0
 20
254.22041624949827
 10
33.25482764426275
 20
254.0
 10
34.0
 20
253.25804492958795
 10
34.22468800441579
 20
253.0
 10
34.901312456952326
 20
251.99999999999997
 10
35.0
 20
251.82312489906002
 10
35.40373270461728
 20
251.0
 10
35.71219971389663
 20
250.0
 10
35.90297115661121
 20
249.0
 10
35.974174185184324
 20
248.0
 10
35.91722295359295
 20
247.00000000000003
 10
35.7465491032495
 20
246.00000000000003
 10
35.477976673920864
 20
245.0
 10
35.07601545085506
 20
244.0
 10
35.0
 20
243.86140492541986
 10
34.529747412495865
 20
243.0
 10
34.0
 20
242.2001178235075
 10
33.85273908335187
 20
242.00000000000003
 10
33.053308408658204
 20
241.0
 10
33.0
 20
240.94102453142162
 10
32.106381202833425
 20
240.0
 10
32.0
 20
239.89520167907168
 10
31.037435697435072
 20
239.0
 10
31.0
 20
238.96593073175822
 10
30.0
 20
238.1028352572913
 10
29.88151854889685
 20
238.00000000000003
 10
29.0
 20
237.25712088421307
 10
28.70088668199133
 20
236.99999999999997
 10
28.0
 20
236.39980151213618
 10
27.545852935504
 20
236.0
 10
27.0
 20
235.50975091034263
 10
26.45188144042261
 20
235.0
 10
26.0
 20
234.56380562594657
 10
25.44065648975483
 20
234.0
 10
25.0
 20
233.53323225185466
 10
24.519949458835768
 20
233.0
 10
24.0
 20
232.3827655792607
 10
23.688876091309023
 20
232.0
 10
22.999999999999996
 20
231.0601847835763
 10
22.955558705627602
 20
231.0
 10
22.3116859803152
 20
230.0
 10
22.0
 20
229.49070979020746
 10
21.70780117642397
 20
229.0
 10
21.207316819972014
 20
228.0
 10
21.0
 20
227.5838896544752
 10
20.718098604658355
 20
227.0
 10
20.322254928430723
 20
226.0
 10
20.0
 20
225.173701060295
 10
19.928850260133753
 20
225.0
 10
19.587773831940165
 20
224.0
 10
19.295522027966598
 20
223.0
 10
19.0
 20
222.01713610907228
 10
18.994426802761705
 20
221.99999999999997
 10
18.709774261447464
 20
221.0
 10
18.466971243282117
 20
220.0
 10
18.227135634199662
 20
219.0
 10
18.0
 20
218.1532180691785
 10
17.956468212970055
 20
218.0
 10
17.692796819475255
 20
217.00000000000003
 10
17.445505945328733
 20
216.0
 10
17.176108432516056
 20
215.0
 10
17.0
 20
214.45302253913775
 10
16.851781018658237
 20
214.0
 10
16.53781635947817
 20
213.0
 10
16.20118638055707
 20
212.0
 10
16.0
 20
211.50955118948906
 10
15.788160415870461
 20
211.0
 10
15.379948549439069
 20
210.0
 10
15.0
 20
209.2110700820045
 10
14.89083517754593
 20
209.0
 10
14.379328972505853
 20
208.0
 10
14.0
 20
207.35676298013954
 10
13.77815675663478
 20
207.0
 10
13.145406091007482
 20
206.0
 10
13.0
 20
205.80031194564424
 10
12.412443638246774
 20
205.0
 10
12.0
 20
204.4856650701098
 10
11.59110613815548
 20
204.0
 10
11.0
 20
203.34011967716935
 10
10.676694908896133
 20
203.0
 10
10.0
 20
202.32794824522324
 10
9.65034478034226
 20
201.99999999999997
 10
9.0
 20
201.42359109255716
 10
8.492710013084444
 20
201.0
 10
8.0
 20
200.6056679315941
 10
7.177746979352486
 20
200.0
 10
7.0
 20
199.86924359786667
 10
6.0
 20
199.22148717537598
 10
5.656046080942078
 20
199.0
 10
5.0
 20
198.59771573377012
 10
4.0
 20
198.0462990571941
 10
3.918135101251287
 20
198.0
 10
3.0
 20
197.52346134829696
 10
2.0
 20
197.04665982601963
 10
1.9060387380688988
 20
197.0
 10
1.0
 20
196.58537535849965
 10
0.0
 20
196.17567720411876
  0
LWPOLYLINE
  5
43
330
17
100
AcDbEntity
  8
0
100
AcDbPolyline
 90
14
 70
0
 10
74.69061872627232
 20
255.0
 10
74.0
 20
254.80059854955522
 10
73.0
 20
254.58004814682454
 10
72.0
 20
254.41047737192343
 10
71.0
 20
254.28163924074238
 10
70.0
 20
254.1948680618254
 10
69.0
 20
254.15622622799555
 10
68.0
 20
254.17002924363317
 10
67.0
 20
254.2354161554675
 10
66.0
 20
254.3476237055018
 10
65.0
 20
254.5037660347242
 10
64.0
 20
254.71128902956053
 10
63.0
 20
254.99698566535986
 10
62.99155489494797
 20
255.0
  0
LWPOLYLINE
  5
44
330
17
100
AcDbEntity
  8
0
100
AcDbPolyline
 90
33
 70
0
 10
117.0618104745993
 20
255.0
 10
117.0
 20
254.91648106525344
 10
116.31486272695146
 20
254.0
 10
116.0
 20
253.62720327889173
 10
115.43214692802962
 20
253.0
 10
115.0
 20
252.56837932557488
 10
114.36387042903065
 20
252.0
 10
114.0
 20
251.70025200189872
 10
113.0
 20
251.01442596211385
 10
112.9767805504424
 20
250.99999999999997
 10
112.0
 20
250.47104885286274
 10
111.0
 20
250.0577692908763
 10
110.83153727178671
 20
250.00000000000003
 10
110.0
 20
249.7361352318878
 10
109.0
 20
249.55079690803532
 10
108.0
 20
249.46435349544115
 10
107.0
 20
249.46637581039138
 10
106.0
 20
249.55505097028725
 10
105.0
 20
249.73656148915026
 10
104.12520036371514
 20
250.0
 10
104.0
 20
250.04072796396068
 10
103.0
 20
250.42102362305525
 10
102.0
 20
250.87954534251577
 10
101.79211205683244
 20
251.0
 10
101.0
 20
251.4557164885389
 10
100.14804176782454
 20
252.0
 10
100.0
 20
252.10270944934322
 10
99.0
 20
252.79386331394036
 10
98.72746000571007
 20
253.0
 10
98.0
 20
253.54432552272885
 10
97.39739701234048
 20
254.0
 10
97.0
 20
254.3023210803301
 10
96.02337564815977
 20
255.0
  0
LWPOLYLINE
  5
45
330
17
100
AcDbEntity
  8
0
100
AcDbPolyline
 90
27
 70
0
 10
161.16015622118658
 20
255.0
 10
161.0
 20
254.87293174727267
 10
160.0
 20
254.18536906633267
 10
159.7171579354557
 20
254.0
 10
159.0
 20
253.56488158587922
 10
158.0
 20
253.0550207964491
 10
157.88659520079472
 20
253.0
 10
157.0
 20
252.61013499399627
 10
156.0
 20
252.27787444312338
 10
155.03923862386404
 20
252.0
 10
155.0
 20
251.98794400585896
 10
154.0
 20
251.77086722300933
 10
153.0
 20
251.6444122544129
 10
152.0
 20
251.59059943338164
 10
151.0
 20
251.6048940364601
 10
150.0
 20
251.69006108640764
 10
149.0
 20
251.85878018593573
 10
148.4796831240107
 20
252.0
 10
148.0
 20
252.13194912102006
 10
147.0
 20
252.46016177069038
 10
146.0
 20
252.883977789945
 10
145.7928970985266
 20
253.0
 10
145.0
 20
253.4478532303444
 10
144.18152585481025
 20
254.0
 10
144.0
 20
254.137470189283
 10
143.0
 20
254.98357548838158
 10
142.9830187248366
 20
255.0
  0
LWPOLYLINE
  5
46
330
17
100
AcDbEntity
  8
0
100
AcDbPolyline
 90
135
 70
0
 10
194.24500570802613
 20
255.0
 10
195.0
 20
254.58650637863224
 10
195.9144306929923
 20
254.00000000000003
 10
196.0
 20
253.93853215385226
 10
197.0
 20
253.17453479015546
 10
197.20027571301756
 20
253.0
 10
198.0
 20
252.26794433704111
 10
198.27102790939898
 20
252.0
 10
199.0
 20
251.23363240988496
 10
199.21298362089564
 20
251.0
 10
200.0
 20
250.07464351827605
 10
200.0629409742476
 20
250.0
 10
200.8407066103789
 20
249.0
 10
201.0
 20
248.79552944444322
 10
201.5888894242663
 20
248.0
 10
202.0
 20
247.43288424857417
 10
202.31078929073848
 20
247.0
 10
202.98113317371244
 20
246.00000000000003
 10
203.0
 20
245.97284136400464
 10
203.62639736532543
 20
245.0
 10
204.0
 20
244.41552797483158
 10
204.26452572957317
 20
244.0
 10
204.83407806843843
 20
243.00000000000003
 10
205.0
 20
242.71863649776407
 10
205.40154659010477
 20
242.0
 10
205.89813872275897
 20
241.0
 10
206.0
 20
240.79878316580013
 10
206.37614614516167
 20
240.0
 10
206.76559995471447
 20
239.0
 10
207.0
 20
238.37960353127386
 10
207.144032489612
 20
238.0
 10
207.43113001821342
 20
237.0
 10
207.6456680011022
 20
236.0
 10
207.80861430125617
 20
235.00000000000003
 10
207.91710960957846
 20
234.0
 10
207.95975089026794
 20
233.0
 10
207.93007970945726
 20
232.0
 10
207.8327391929509
 20
231.0
 10
207.67935109878923
 20
230.0
 10
207.47631010204753
 20
229.0
 10
207.21041813078605
 20
228.0
 10
207.0
 20
227.40441037369226
 10
206.8527780483748
 20
227.0
 10
206.4873584119588
 20
226.0
 10
206.0823164554053
 20
225.0
 10
206.0
 20
224.82404459356604
 10
205.63327169428533
 20
224.0
 10
205.2178429836128
 20
223.0
 10
205.0
 20
222.51509465736405
 10
204.77005366386126
 20
222.00000000000003
 10
204.39684564414395
 20
221.0
 10
204.04806185626938
 20
220.0
 10
204.0
 20
219.85430422221089
 10
203.73513161253916
 20
219.0
 10
203.5196546022359
 20
218.0
 10
203.37682453439697
 20
217.0
 10
203.30379582070992
 20
216.0
 10
203.30738752309233
 20
215.0
 10
203.39292242752745
 20
214.0
 10
203.56636160441997
 20
213.0
 10
203.85581868032617
 20
212.0
 10
204.0
 20
211.6683742939739
 10
204.29304946136114
 20
211.0
 10
204.82973121845157
 20
210.0
 10
205.0
 20
209.75867597839726
 10
205.56958279568767
 20
209.0
 10
206.0
 20
208.52072902699314
 10
206.530408828488
 20
208.0
 10
207.0
 20
207.59055058583047
 10
207.80204355407648
 20
207.0
 10
208.0
 20
206.86060605523247
 10
209.0
 20
206.30149590207364
 10
209.6135393441508
 20
206.0
 10
210.0
 20
205.8130562405241
 10
211.0
 20
205.45262905686013
 10
212.0
 20
205.16377470288327
 10
212.64066273615623
 20
205.0
 10
213.0
 20
204.90610905196067
 10
214.0
 20
204.72199269378262
 10
214.99999999999997
 20
204.60127169244373
 10
216.0
 20
204.52758894971484
 10
217.0
 20
204.493284558923
 10
218.0
 20
204.49444955884354
 10
219.0
 20
204.5286838495661
 10
220.0
 20
204.59478270351963
 10
221.0
 20
204.69365395418978
 10
222.0
 20
204.82985316482137
 10
222.93178601077835
 20
205.0
 10
223.0
 20
205.01300603979794
 10
224.0
 20
205.21875969064172
 10
225.0
 20
205.4284985564003
 10
226.0
 20
205.65663635901484
 10
227.0
 20
205.93099977823888
 10
227.21219781615358
 20
206.0
 10
228.0
 20
206.244258174433
 10
229.0
 20
206.5404437625724
 10
230.00000000000003
 20
206.86574120483786
 10
230.35254950825964
 20
207.0
 10
231.0
 20
207.24048331419377
 10
232.0
 20
207.5867435266767
 10
232.99999999999997
 20
207.96914913807925
 10
233.0718149166452
 20
207.99999999999997
 10
234.0
 20
208.3701638064549
 10
235.0
 20
208.74805344442188
 10
235.5892442573367
 20
209.0
 10
236.0
 20
209.1781677730516
 10
237.0
 20
209.57133293288905
 10
238.0
 20
209.98999620664375
 10
238.02176532873114
 20
210.0
 10
239.0
 20
210.4131959295725
 10
240.0
 20
210.81544291942708
 10
240.40887230692547
 20
211.0
 10
241.0
 20
211.2620589096141
 10
242.0
 20
211.66688856894348
 10
242.74380571047183
 20
212.0
 10
243.0
 20
212.1196031590433
 10
244.0
 20
212.54765814785355
 10
244.98870684914735
 20
213.0
 10
245.0
 20
213.00562487437412
 10
246.0
 20
213.47583093591493
 10
247.0
 20
213.96316714506386
 10
247.06648492564526
 20
214.0
 10
248.0
 20
214.48751669227022
 10
248.92015931139528
 20
215.0
 10
249.0
 20
215.04822174129023
 10
250.0
 20
215.64074124273338
 10
250.53916950659294
 20
216.0
 10
251.0
 20
216.31835960983116
 10
251.93532173853342
 20
217.0
 10
252.0
 20
217.05136480494363
 10
253.0
 20
217.87701054478393
 10
253.13430814154376
 20
218.0
 10
254.0
 20
218.84209537536353
 10
254.15073208746844
 20
219.0
 10
255.0
 20
219.98928176043486
  0
LWPOLYLINE
  5
47
330
17
100
AcDbEntity
  8
0
100
AcDbPolyline
 90
84
 70
0
 10
242.53220241848672
 20
255.0
 10
242.1295621466333
 20
254.0
 10
242.0
 20
253.65934227579118
 10
241.75910103662784
 20
253.0
 10
241.49056866020678
 20
252.0
 10
241.2790556597613
 20
251.0
 10
241.10074416839672
 20
250.0
 10
241.0
 20
249.31818503702962
 10
240.95165427601623
 20
249.0
 10
240.84794479762942
 20
248.0
 10
240.78318249122148
 20
247.0
 10
240.74616050956513
 20
245.99999999999997
 10
240.72794528781347
 20
245.0
 10
240.72040245018866
 20
244.0
 10
240.71550103047025
 20
243.0
 10
240.7050921619881
 20
242.0
 10
240.68101623787868
 20
241.0
 10
240.63535065589326
 20
240.0
 10
240.56027724222173
 20
239.0
 10
240.44645832153975
 20
238.0
 10
240.27816102964528
 20
237.0
 10
240.02270643685054
 20
236.0
 10
240.0
 20
235.9355538245048
 10
239.68633752208405
 20
235.0
 10
239.28793070357534
 20
234.0
 10
239.0
 20
233.47361597143356
 10
238.72196372942997
 20
233.0
 10
238.0244670053243
 20
232.0
 10
238.0
 20
231.97137755387618
 10
237.06700293554698
 20
231.0
 10
237.0
 20
230.93942203038384
 10
236.0
 20
230.21001911015034
 10
235.64771449440053
 20
230.0
 10
235.0
 20
229.65237200229512
 10
234.0
 20
229.29953298677054
 10
233.0
 20
229.0620562854302
 10
232.49187588051373
 20
229.0
 10
232.0
 20
228.93897131183718
 10
231.0
 20
228.94952957116402
 10
230.64762473572006
 20
229.0
 10
230.0
 20
229.0903311244645
 10
229.0
 20
229.33520493082048
 10
228.0
 20
229.68695722599355
 10
227.39644037499994
 20
230.0
 10
227.0
 20
230.22311241238367
 10
226.0
 20
230.88366808968738
 10
225.8579429738809
 20
231.0
 10
225.0
 20
231.76121069884374
 10
224.76453818355964
 20
232.0
 10
224.0
 20
232.88313921186437
 10
223.90482962161892
 20
233.0
 10
223.2159382463184
 20
234.0
 10
223.0
 20
234.33706333098132
 10
222.60415745239098
 20
235.0
 10
222.10224506411268
 20
236.0
 10
222.0
 20
236.20543251321095
 10
221.63243059062376
 20
237.0
 10
221.245683412076
 20
238.0
 10
221.0
 20
238.61893672090628
 10
220.84725173684643
 20
239.0
 10
220.50818056967603
 20
240.0
 10
220.18433803169427
 20
240.99999999999997
 10
220.0
 20
241.5137387600549
 10
219.82564283659465
 20
242.0
 10
219.5025445270242
 20
243.0
 10
219.16709243408079
 20
244.0
 10
219.0
 20
244.42408039831074
 10
218.77526525977373
 20
245.0
 10
218.40187423401366
 20
246.0
 10
218.0
 20
246.92438627797125
 10
217.96426003217147
 20
247.0
 10
217.50006155816828
 20
248.0
 10
217.0
 20
248.9656666136044
 10
216.98043638273776
 20
249.0
 10
216.41194033581024
 20
249.99999999999997
 10
216.0
 20
250.64045331461406
 10
215.75642338982814
 20
251.0
 10
215.05275070550863
 20
252.0
 10
214.99999999999997
 20
252.06639228867726
 10
214.2525150236781
 20
253.0
 10
214.0
 20
253.2876773900299
 10
213.34954853516112
 20
254.0
 10
213.0
 20
254.35922551005996
 10
212.34311020076734
 20
255.0
  0
LWPOLYLINE
  5
48
330
17
100
AcDbEntity
  8
0
100
AcDbPolyline
 90
159
 70
0
 10
155.0
 20
24.90986627595587
 10
156.0
 20
24.588761898272708
 10
157.0
 20
24.42184948179824
 10
158.0
 20
24.374837049700275
 10
159.0
 20
24.442910857393144
 10
160.0
 20
24.63088236653114
 10
161.0
 20
24.97909520514298
 10
161.04121609570734
 20
25.0
 10
162.0
 20
25.476728842853255
 10
162.7868272323521
 20
26.0
 10
163.0
 20
26.1625314044292
 10
163.92891574622172
 20
27.0
 10
164.0
 20
27.074518307462345
 10
164.76312487307558
 20
28.0
 10
165.0
 20
28.33288356881294
 10
165.43043639951745
 20
29.0
 10
165.94157582195209
 20
30.0
 10
166.0
 20
30.124674344963633
 10
166.3736673444361
 20
31.0
 10
166.68757087712314
 20
32.0
 10
166.95932912584814
 20
33.0
 10
167.0
 20
33.17134414109161
 10
167.18905141202012
 20
34.0
 10
167.3460266467455
 20
35.0
 10
167.45356420669327
 20
36.0
 10
167.52454356936212
 20
37.0
 10
167.5657892945602
 20
38.0
 10
167.5815469356553
 20
39.0
 10
167.57512088884005
 20
40.0
 10
167.54940239665453
 20
41.0
 10
167.50682503537217
 20
42.0
 10
167.44910547764724
 20
43.0
 10
167.3769739845741
 20
44.0
 10
167.28999117809698
 20
45.0
 10
167.18647998594946
 20
46.0
 10
167.0635495167545
 20
47.0
 10
167.0
 20
47.447648363268996
 10
166.92259546915304
 20
48.0
 10
166.78385648129668
 20
49.0
 10
166.647993930391
 20
50.0
 10
166.5107295716156
 20
51.0
 10
166.36526567691158
 20
52.0
 10
166.20242079912214
 20
53.00000000000001
 10
166.01070335650118
 20
54.0
 10
166.0
 20
54.04973486012626
 10
165.8081418931903
 20
55.0
 10
165.61729307677837
 20
56.0
 10
165.42479998860227
 20
57.0
 10
165.21221616794386
 20
58.0
 10
165.0
 20
58.83944017942122
 10
164.95758144034087
 20
59.0
 10
164.70283013548817
 20
60.0
 10
164.4577160527225
 20
61.0
 10
164.18935241116586
 20
62.0
 10
164.0
 20
62.592890214983
 10
163.86844170880866
 20
63.0
 10
163.56253341936207
 20
64.0
 10
163.24585794872
 20
65.0
 10
163.0
 20
65.64993719848182
 10
162.8640527755705
 20
66.0
 10
162.49356321628983
 20
67.0
 10
162.08747464057012
 20
68.0
 10
162.0
 20
68.18235608379105
 10
161.6253623175167
 20
69.0
 10
161.1540880302336
 20
70.0
 10
161.0
 20
70.27467644632407
 10
160.5996658768972
 20
71.0
 10
160.00521462362332
 20
72.00000000000001
 10
160.0
 20
72.00758766454334
 10
159.33282565024115
 20
73.0
 10
159.0
 20
73.4335359216499
 10
158.54217511629292
 20
74.0
 10
158.0
 20
74.6075165788289
 10
157.61782651200366
 20
75.0
 10
157.0
 20
75.57632801355463
 10
156.4894136404643
 20
76.0
 10
156.0
 20
76.3746286558685
 10
155.00469238336626
 20
77.00000000000001
 10
155.0
 20
77.00296990988421
 10
154.0
 20
77.4980601040503
 10
153.0
 20
77.85522052950085
 10
152.4807666867237
 20
78.0
 10
152.0
 20
78.13412814390868
 10
151.0
 20
78.28230824360888
 10
150.0
 20
78.31535443776562
 10
149.0
 20
78.23618748935073
 10
148.0
 20
78.02057234664295
 10
147.9431137385808
 20
78.0
 10
147.0
 20
77.67472503791019
 10
146.0
 20
77.19813127997301
 10
145.7064646766106
 20
77.0
 10
145.0
 20
76.47860385769765
 10
144.4832407462668
 20
76.0
 10
144.0
 20
75.46164242660541
 10
143.63996938292559
 20
75.0
 10
143.05697268705106
 20
74.0
 10
143.0
 20
73.88171832761292
 10
142.6217914456001
 20
73.0
 10
142.3559089596916
 20
72.0
 10
142.19159608975556
 20
71.0
 10
142.11852414899255
 20
70.0
 10
142.1367758668698
 20
69.0
 10
142.23661625919732
 20
68.0
 10
142.40272724575178
 20
67.0
 10
142.6313462890243
 20
66.0
 10
142.9476761602637
 20
65.0
 10
143.0
 20
64.86987406852715
 10
143.33037356738862
 20
64.0
 10
143.72450660356247
 20
63.0
 10
144.0
 20
62.41790211275918
 10
144.2019874293377
 20
62.0
 10
144.66056692012057
 20
61.0
 10
145.0
 20
60.33286630365683
 10
145.1740254178602
 20
60.0
 10
145.64813259214478
 20
58.99999999999999
 10
146.0
 20
58.29568878415715
 10
146.15149143837414
 20
58.0
 10
146.5978382216254
 20
57.0
 10
147.0
 20
56.097200782741
 10
147.0457660701261
 20
56.0
 10
147.4469297590902
 20
55.0
 10
147.79602796369673
 20
54.0
 10
148.0
 20
53.42089331784007
 10
148.1483186563878
 20
53.0
 10
148.42752910036248
 20
52.0
 10
148.655910796423
 20
51.0
 10
148.86075737121595
 20
50.0
 10
149.0
 20
49.25464136926572
 10
149.04881407055842
 20
49.0
 10
149.19119125941882
 20
48.0
 10
149.2889735036089
 20
47.0
 10
149.35224578672495
 20
46.0
 10
149.38750390410755
 20
45.0
 10
149.3995964493226
 20
44.0
 10
149.39283346249374
 20
43.0
 10
149.37151847757494
 20
42.0
 10
149.3401959498223
 20
41.0
 10
149.30384374461244
 20
40.0
 10
149.2680977866168
 20
39.0
 10
149.23943296185524
 20
38.0
 10
149.22511169590808
 20
37.0
 10
149.23273228988515
 20
36.0
 10
149.26945987268385
 20
35.0
 10
149.34157700203343
 20
34.0
 10
149.455785945785
 20
33.0
 10
149.62443985849112
 20
32.0
 10
149.87742560057333
 20
31.0
 10
150.0
 20
30.66366165974438
 10
150.23968714208365
 20
30.0
 10
150.66386424505475
 20
29.0
 10
151.0
 20
28.421511249277692
 10
151.26669033105526
 20
28.0
 10
152.0
 20
27.03576509225965
 10
152.03202169470276
 20
27.0
 10
153.0
 20
26.08757591454124
 10
153.11158096426135
 20
26.0
 10
154.0
 20
25.406269960954198
 10
154.81743333071125
 20
25.0
 10
155.0
 20
24.90986627595587
  0
LWPOLYLINE
  5
49
330
17
100
AcDbEntity
  8
0
100
AcDbPolyline
 90
121
 70
0
 10
79.0
 20
36.97964964089925
 10
78.89299160919454
 20
37.0
 10
78.0
 20
37.16163759996571
 10
77.0
 20
37.41279774663934
 10
76.0
 20
37.74870909532312
 10
75.46456265282112
 20
38.0
 10
75.0
 20
38.22836270475026
 10
74.0
 20
38.77053921681593
 10
73.66027542636434
 20
39.0
 10
73.0
 20
39.46413524984122
 10
72.32301230040406
 20
40.0
 10
72.0
 20
40.27771664718597
 10
71.2252360130569
 20
41.0
 10
71.0
 20
41.22718194805843
 10
70.28855155254352
 20
42.0
 10
70.0
 20
42.33506512951422
 10
69.4626705811836
 20
43.0
 10
69.0
 20
43.6169311420811
 10
68.72039889217355
 20
44.0
 10
68.07543172484007
 20
45.0
 10
68.0
 20
45.116651732024096
 10
67.47385134753006
 20
46.0
 10
67.0
 20
46.85889528777736
 10
66.9193823229545
 20
47.0
 10
66.43264053405865
 20
48.0
 10
66.0
 20
48.939494131310354
 10
65.9704471241064
 20
49.0
 10
65.55692748310182
 20
50.0
 10
65.20162933066385
 20
51.0
 10
65.0
 20
51.563620658510345
 10
64.84373770469008
 20
52.0
 10
64.55983697592903
 20
53.0
 10
64.32679751106647
 20
54.0
 10
64.1187886459274
 20
55.0
 10
64.0
 20
55.64992119794833
 10
63.93476928056595
 20
56.0
 10
63.808023872382165
 20
57.0
 10
63.73878199595273
 20
58.0
 10
63.72390213967918
 20
59.0
 10
63.76673599678533
 20
60.0
 10
63.87806491103752
 20
61.0
 10
64.0
 20
61.61638421613705
 10
64.07698789257005
 20
62.0
 10
64.3372495893581
 20
63.0
 10
64.6701141341789
 20
64.0
 10
65.0
 20
64.69171793923576
 10
65.16047588142496
 20
65.0
 10
65.76131759477668
 20
66.0
 10
66.0
 20
66.30819902958254
 10
66.59596282458153
 20
67.0
 10
67.0
 20
67.39555751519396
 10
67.74638295975589
 20
68.0
 10
68.0
 20
68.18682802734115
 10
69.0
 20
68.73440264911555
 10
69.61501391632943
 20
69.0
 10
70.0
 20
69.16162838468283
 10
71.0
 20
69.42224733303388
 10
72.0
 20
69.55669711376031
 10
73.0
 20
69.58965912585118
 10
74.0
 20
69.52732907634581
 10
75.0
 20
69.36947177460084
 10
76.0
 20
69.09464836375147
 10
76.23404486757033
 20
69.0
 10
77.0
 20
68.69512166988088
 10
78.0
 20
68.22506041116128
 10
78.36693176061921
 20
68.0
 10
79.0
 20
67.59764979688768
 10
79.82564082494146
 20
67.0
 10
80.0
 20
66.86112352125876
 10
81.0
 20
66.00639757473446
 10
81.00678905648003
 20
66.0
 10
82.0
 20
65.01326742224265
 10
82.0126393345661
 20
65.0
 10
82.90114426259721
 20
64.0
 10
83.0
 20
63.885135659548574
 10
83.71510179241673
 20
63.0
 10
84.0
 20
62.63733350581444
 10
84.4803178112577
 20
62.0
 10
85.0
 20
61.2738450304891
 10
85.19658531688492
 20
61.0
 10
85.84264634744451
 20
60.0
 10
86.0
 20
59.76228850733507
 10
86.4770805319313
 20
59.0
 10
87.0
 20
58.11112265132432
 10
87.06800169677315
 20
58.0
 10
87.60166233982498
 20
57.0
 10
88.0
 20
56.22909225393934
 10
88.12156916783185
 20
56.0
 10
88.56687441691517
 20
55.0
 10
88.98132106722899
 20
54.0
 10
89.0
 20
53.954189683631206
 10
89.35429785662322
 20
53.0
 10
89.64124907428108
 20
52.0
 10
89.89013291355162
 20
51.0
 10
90.0
 20
50.483625567570726
 10
90.10316885403181
 20
50.0
 10
90.23739714562709
 20
49.0
 10
90.29886385412128
 20
48.0
 10
90.29111453530304
 20
47.0
 10
90.20856500431677
 20
46.0
 10
90.03307990002267
 20
45.0
 10
90.0
 20
44.88130005259083
 10
89.76556033844702
 20
44.0
 10
89.43380401705667
 20
43.0
 10
88.99999999999999
 20
42.075399918909206
 10
88.95992076939966
 20
42.00000000000001
 10
88.35828752396202
 20
41.0
 10
88.0
 20
40.52950244563191
 10
87.55104238480642
 20
40.0
 10
87.0
 20
39.444709164348026
 10
86.483691993872
 20
39.0
 10
86.0
 20
38.62828242778091
 10
85.0
 20
38.02609684817826
 10
84.94995690490211
 20
38.0
 10
84.0
 20
37.56638912156127
 10
83.0
 20
37.259841293618415
 10
82.0
 20
37.0393396020695
 10
81.69118318194688
 20
37.0
 10
81.0
 20
36.91232646881877
 10
80.0
 20
36.8942127643801
 10
79.0
 20
36.97964964089925
  0
LWPOLYLINE
  5
4A
330
17
100
AcDbEntity
  8
0
100
AcDbPolyline
 90
71
 70
0
 10
97.0
 20
132.78211356258083
 10
96.00392440575077
 20
133.0
 10
95.99999999999999
 20
133.0009202427868
 10
95.0
 20
133.35000596578405
 10
94.0
 20
133.83935127745542
 10
93.76643947410786
 20
134.0
 10
93.0
 20
134.5760967144608
 10
92.55070070741635
 20
135.0
 10
92.0
 20
135.62701749348128
 10
91.71321339545479
 20
136.0
 10
91.14222582756676
 20
137.0
 10
91.0
 20
137.30512049728338
 10
90.70388357929792
 20
138.0
 10
90.44160779969334
 20
139.0
 10
90.29032990065511
 20
140.0
 10
90.23514831989536
 20
141.0
 10
90.27487884347205
 20
142.0
 10
90.40433419991652
 20
143.0
 10
90.62496585130695
 20
144.0
 10
90.97653797344637
 20
145.0
 10
91.0
 20
145.04836267040326
 10
91.44853119704709
 20
146.0
 10
92.0
 20
146.91848168106867
 10
92.0562861592061
 20
147.0
 10
92.83948855043243
 20
148.0
 10
93.0
 20
148.1707513050344
 10
93.90034480555079
 20
149.0
 10
94.0
 20
149.08307512153883
 10
95.00000000000001
 20
149.74957581157403
 10
95.4528676730487
 20
150.0
 10
96.0
 20
150.28104983340899
 10
97.0
 20
150.6238743500798
 10
98.0
 20
150.85236545530003
 10
99.0
 20
150.9755855878887
 10
100.0
 20
150.97442281477038
 10
101.0
 20
150.84679510858481
 10
102.0
 20
150.60701453215938
 10
103.0
 20
150.2344549741043
 10
103.41664247061509
 20
150.0
 10
104.0
 20
149.64576757236148
 10
104.83193437205588
 20
149.0
 10
105.0
 20
148.8447952279731
 10
105.76067666022253
 20
148.0
 10
106.0
 20
147.67506857563905
 10
106.43473704273913
 20
147.0
 10
106.89623472648883
 20
146.0
 10
107.0
 20
145.71767716331306
 10
107.24601101659971
 20
145.0
 10
107.43996246995951
 20
144.0
 10
107.52419167275072
 20
143.0
 10
107.51341797931862
 20
142.0
 10
107.40957363406935
 20
141.0
 10
107.20056059744353
 20
140.0
 10
107.0
 20
139.41489632667688
 10
106.8520707573261
 20
139.0
 10
106.42572329464019
 20
138.0
 10
106.0
 20
137.26115951882318
 10
105.83207683339641
 20
137.0
 10
105.09448774024703
 20
136.0
 10
105.0
 20
135.89405384893476
 10
104.102047058453
 20
135.0
 10
104.0
 20
134.90947573032807
 10
103.0
 20
134.18328180950206
 10
102.70452995561044
 20
134.0
 10
102.0
 20
133.6068473265354
 10
101.0
 20
133.2155838224471
 10
100.28046218631599
 20
133.0
 10
100.0
 20
132.91431255212038
 10
99.0
 20
132.74731221725034
 10
98.0
 20
132.70553714392486
 10
97.0
 20
132.78211356258083
  0
LWPOLYLINE
  5
4B
330
17
100
AcDbEntity
  8
0
100
AcDbPolyline
 90
77
 70
0
 10
12.0
 20
170.75393604371067
 10
11.180735667240674
 20
171.0
 10
11.0
 20
171.0581265765774
 10
10.0
 20
171.43693707901787
 10
9.0
 20
171.91730289595648
 10
8.867516854139986
 20
172.0
 10
8.0
 20
172.55163858073817
 10
7.419774948379754
 20
173.0
 10
6.999999999999999
 20
173.36331551797772
 10
6.3626484934604495
 20
174.0
 10
6.0
 20
174.42168438186036
 10
5.55810119882409
 20
175.0
 10
5.0
 20
175.92524852230773
 10
4.9554154655429805
 20
176.0
 10
4.519847391246671
 20
177.0
 10
4.234893451385206
 20
178.0
 10
4.052017009123005
 20
179.0
 10
4.0
 20
179.77883625923528
 10
3.9846449673421658
 20
180.0
 10
4.0
 20
180.23525847825084
 10
4.04809708250373
 20
181.0
 10
4.23003668864722
 20
182.0
 10
4.519243884425187
 20
183.0
 10
4.97041399759229
 20
184.0
 10
5.0
 20
184.04772614987212
 10
5.60565220289692
 20
185.0
 10
6.0
 20
185.48220791897228
 10
6.486573896055053
 20
186.0
 10
7.0
 20
186.46580638788598
 10
7.7178672878028305
 20
187.0
 10
8.0
 20
187.19434900989967
 10
9.0
 20
187.70729190022615
 10
9.704544082272072
 20
188.0
 10
10.0
 20
188.1222567099662
 10
11.0
 20
188.3960663624854
 10
12.0
 20
188.5555819096048
 10
13.0
 20
188.62761990321167
 10
14.0
 20
188.61745502561809
 10
15.0
 20
188.52643961586878
 10
16.0
 20
188.35019894647394
 10
17.0
 20
188.05971031192433
 10
17.14381092234859
 20
188.0
 10
18.0
 20
187.6544915419823
 10
19.0
 20
187.16403748727342
 10
19.253877500805007
 20
187.0
 10
20.0
 20
186.49605396966848
 10
20.611299368125053
 20
186.0
 10
21.0
 20
185.643835313973
 10
21.6108319878563
 20
185.0
 10
22.0
 20
184.52019671057855
 10
22.37972774098204
 20
184.0
 10
22.945084332624045
 20
183.0
 10
23.0
 20
182.88683269073297
 10
23.38300875662468
 20
182.0
 10
23.658935724851553
 20
181.0
 10
23.831394672139723
 20
180.0
 10
23.8986865291512
 20
179.0
 10
23.850140519227548
 20
178.0
 10
23.689877101734474
 20
177.0
 10
23.418116141644433
 20
176.0
 10
23.0
 20
175.05390721870685
 10
22.972644171111394
 20
175.0
 10
22.359627267150046
 20
174.0
 10
22.0
 20
173.55351512202463
 10
21.48734088961963
 20
173.0
 10
21.0
 20
172.55582045710312
 10
20.248376015260554
 20
172.0
 10
20.0
 20
171.83014104657968
 10
19.0
 20
171.325600072888
 10
18.179642241018662
 20
171.0
 10
18.0
 20
170.92759767017253
 10
17.0
 20
170.6605929462897
 10
16.0
 20
170.51208485496457
 10
15.000000000000002
 20
170.45184524208435
 10
14.0
 20
170.47143743037526
 10
13.0
 20
170.569345102635
 10
12.0
 20
170.75393604371067
  0
ENDSEC
  0
SECTION
  2
OBJECTS
  0
DICTIONARY
  5
A
330
0
100
AcDbDictionary
280
0
281
1
  3
ACAD_COLOR
350
B
  3
ACAD_GROUP
350
C
  3
ACAD_LAYOUT
350
D
  3
ACAD_MATERIAL
350
E
  3
ACAD_MLEADERSTYLE
350
F
  3
ACAD_MLINESTYLE
350
10
  3
ACAD_PLOTSETTINGS
350
11
  3
ACAD_PLOTSTYLENAME
350
12
  3
ACAD_SCALELIST
350
14
  3
ACAD_TABLESTYLE
350
15
  3
ACAD_VISUALSTYLE
350
16
  3
EZDXF_META
350
2D
  0
DICTIONARY
  5
B
330
A
100
AcDbDictionary
280
0
281
1
  0
DICTIONARY
  5
C
330
A
100
AcDbDictionary
280
0
281
1
  0
DICTIONARY
  5
D
330
A
100
AcDbDictionary
280
0
281
1
  3
Model
350
1A
  3
Layout1
350
1E
  0
DICTIONARY
  5
E
330
A
100
AcDbDictionary
280
0
281
1
  3
ByBlock
350
1F
  3
ByLayer
350
20
  3
Global
350
21
  0
DICTIONARY
  5
F
330
A
100
AcDbDictionary
280
0
281
1
  3
Standard
350
2C
  0
DICTIONARY
  5
10
330
A
100
AcDbDictionary
280
0
281
1
  3
Standard
350
22
  0
DICTIONARY
  5
11
330
A
100
AcDbDictionary
280
0
281
1
  0
ACDBDICTIONARYWDFLT
  5
12
330
A
100
AcDbDictionary
280
0
281
1
  3
Normal
350
13
100
AcDbDictionaryWithDefault
340
13
  0
ACDBPLACEHOLDER
  5
13
330
12
  0
DICTIONARY
  5
14
330
A
100
AcDbDictionary
280
0
281
1
  0
DICTIONARY
  5
15
330
A
100
AcDbDictionary
280
0
281
1
  0
DICTIONARY
  5
16
330
A
100
AcDbDictionary
280
0
281
1
  0
LAYOUT
  5
1A
330
D
100
AcDbPlotSettings
  1

  2
Adobe PDF
  4
A3
  6

 40
7.5
 41
20.0
 42
7.5
 43
20.0
 44
420.0
 45
297.0
 46
0.0
 47
0.0
 48
0.0
 49
0.0
140
0.0
141
0.0
142
1.0
143
1.0
 70
1024
 72
1
 73
0
 74
5
  7

 75
16
 76
0
 77
2
 78
300
147
1.0
148
0.0
149
0.0
100
AcDbLayout
  1
Model
 70
1
 71
0
 10
0.0
 20
0.0
 11
420.0
 21
297.0
 12
0.0
 22
0.0
 32
0.0
 14
1e+20
 24
1e+20
 34
1e+20
 15
-1e+20
 25
-1e+20
 35
-1e+20
146
0.0
 13
0.0
 23
0.0
 33
0.0
 16
1.0
 26
0.0
 36
0.0
 17
0.0
 27
1.0
 37
0.0
 76
1
330
17
  0
LAYOUT
  5
1E
330
D
100
AcDbPlotSettings
  1

  2
Adobe PDF
  4
A3
  6

 40
7.5
 41
20.0
 42
7.5
 43
20.0
 44
420.0
 45
297.0
 46
0.0
 47
0.0
 48
0.0
 49
0.0
140
0.0
141
0.0
142
1.0
143
1.0
 70
0
 72
1
 73
0
 74
5
  7

 75
16
 76
0
 77
2
 78
300
147
1.0
148
0.0
149
0.0
100
AcDbLayout
  1
Layout1
 70
1
 71
1
 10
0.0
 20
0.0
 11
420.0
 21
297.0
 12
0.0
 22
0.0
 32
0.0
 14
1e+20
 24
1e+20
 34
1e+20
 15
-1e+20
 25
-1e+20
 35
-1e+20
146
0.0
 13
0.0
 23
0.0
 33
0.0
 16
1.0
 26
0.0
 36
0.0
 17
0.0
 27
1.0
 37
0.0
 76
1
330
1B
  0
MATERIAL
  5
1F
102
{ACAD_REACTORS
330
E
102
}
330
E
100
AcDbMaterial
  1
ByBlock
  2

 70
0
 40
1.0
 71
1
 41
1.0
 91
-1023410177
 42
1.0
 72
1
  3

 73
1
 74
1
 75
1
 44
0.5
 73
0
 45
1.0
 46
1.0
 77
1
  4

 78
1
 79
1
170
1
 48
1.0
171
1
  6

172
1
173
1
174
1
140
1.0
141
1.0
175
1
  7

176
1
177
1
178
1
143
1.0
179
1
  8

270
1
271
1
272
1
145
1.0
146
1.0
273
1
  9

274
1
275
1
276
1
 42
1.0
 72
1
  3

 73
1
 74
1
 75
1
 94
63
  0
MATERIAL
  5
20
102
{ACAD_REACTORS
330
E
102
}
330
E
100
AcDbMaterial
  1
ByLayer
  2

 70
0
 40
1.0
 71
1
 41
1.0
 91
-1023410177
 42
1.0
 72
1
  3

 73
1
 74
1
 75
1
 44
0.5
 73
0
 45
1.0
 46
1.0
 77
1
  4

 78
1
 79
1
170
1
 48
1.0
171
1
  6

172
1
173
1
174
1
140
1.0
141
1.0
175
1
  7

176
1
177
1
178
1
143
1.0
179
1
  8

270
1
271
1
272
1
145
1.0
146
1.0
273
1
  9

274
1
275
1
276
1
 42
1.0
 72
1
  3

 73
1
 74
1
 75
1
 94
63
  0
MATERIAL
  5
21
102
{ACAD_REACTORS
330
E
102
}
330
E
100
AcDbMaterial
  1
Global
  2

 70
0
 40
1.0
 71
1
 41
1.0
 91
-1023410177
 42
1.0
 72
1
  3

 73
1
 74
1
 75
1
 44
0.5
 73
0
 45
1.0
 46
1.0
 77
1
  4

 78
1
 79
1
170
1
 48
1.0
171
1
  6

172
1
173
1
174
1
140
1.0
141
1.0
175
1
  7

176
1
177
1
178
1
143
1.0
179
1
  8

270
1
271
1
272
1
145
1.0
146
1.0
273
1
  9

274
1
275
1
276
1
 42
1.0
 72
1
  3

 73
1
 74
1
 75
1
 94
63
  0
MLINESTYLE
  5
22
102
{ACAD_REACTORS
330
10
102
}
330
10
100
AcDbMlineStyle
  2
Standard
 70
0
  3

 62
256
 51
90.0
 52
90.0
 71
2
 49
0.5
 62
256
  6
BYLAYER
 49
-0.5
 62
256
  6
BYLAYER
  0
MLEADERSTYLE
  5
2C
102
{ACAD_REACTORS
330
F
102
}
330
F
100
AcDbMLeaderStyle
179
2
170
2
171
1
172
0
 90
2
 40
0.0
 41
0.0
173
1
 91
-1056964608
 92
-2
290
1
 42
2.0
291
1
 43
8.0
  3
Standard
 44
4.0
300

342
29
174
1
175
1
176
0
178
1
 93
-1056964608
 45
4.0
292
0
297
0
 46
4.0
 94
-1056964608
 47
1.0
 49
1.0
140
1.0
294
1
141
0.0
177
0
142
1.0
295
0
296
0
143
3.75
271
0
272
9
273
9
  0
DICTIONARY
  5
2D
330
A
100
AcDbDictionary
281
1
  3
CREATED_BY_EZDXF
350
2E
  3
WRITTEN_BY_EZDXF
350
4E
  0
DICTIONARYVAR
  5
2E
330
2D
100
DictionaryVariables
280
0
  1
1.0.2 @ 2023-06-06T12:49:06.423142+00:00
  0
DICTIONARYVAR
  5
4E
330
2D
100
DictionaryVariables
280
0
  1
1.0.2 @ 2023-06-06T12:49:06.433143+00:00
  0
ENDSEC
  0
EOF
