  0
SECTION
  2
HEADER
  9
$ACADVER
  1
AC1015
  9
$ACADMAINTVER
 70
6
  9
$DWGCODEPAGE
  3
ANSI_1252
  9
$INSBASE
 10
0.0
 20
0.0
 30
0.0
  9
$EXTMIN
 10
1e+20
 20
1e+20
 30
1e+20
  9
$EXTMAX
 10
-1e+20
 20
-1e+20
 30
-1e+20
  9
$LIMMIN
 10
0.0
 20
0.0
  9
$LIMMAX
 10
420.0
 20
297.0
  9
$ORTHOMODE
 70
0
  9
$REGENMODE
 70
1
  9
$FILLMODE
 70
1
  9
$QTEXTMODE
 70
0
  9
$MIRRTEXT
 70
1
  9
$LTSCALE
 40
1.0
  9
$ATTMODE
 70
1
  9
$TEXTSIZE
 40
2.5
  9
$TRACEWID
 40
1.0
  9
$TEXTSTYLE
  7
Standard
  9
$CLAYER
  8
0
  9
$CELTYPE
  6
ByLayer
  9
$CECOLOR
 62
256
  9
$CELTSCALE
 40
1.0
  9
$DISPSILH
 70
0
  9
$DIMSCALE
 40
1.0
  9
$DIMASZ
 40
2.5
  9
$DIMEXO
 40
0.625
  9
$DIMDLI
 40
3.75
  9
$DIMRND
 40
0.0
  9
$DIMDLE
 40
0.0
  9
$DIMEXE
 40
1.25
  9
$DIMTP
 40
0.0
  9
$DIMTM
 40
0.0
  9
$DIMTXT
 40
2.5
  9
$DIMCEN
 40
2.5
  9
$DIMTSZ
 40
0.0
  9
$DIMTOL
 70
0
  9
$DIMLIM
 70
0
  9
$DIMTIH
 70
0
  9
$DIMTOH
 70
0
  9
$DIMSE1
 70
0
  9
$DIMSE2
 70
0
  9
$DIMTAD
 70
1
  9
$DIMZIN
 70
8
  9
$DIMBLK
  1

  9
$DIMASO
 70
1
  9
$DIMSHO
 70
1
  9
$DIMPOST
  1

  9
$DIMAPOST
  1

  9
$DIMALT
 70
0
  9
$DIMALTD
 70
3
  9
$DIMALTF
 40
0.03937007874
  9
$DIMLFAC
 40
1.0
  9
$DIMTOFL
 70
1
  9
$DIMTVP
 40
0.0
  9
$DIMTIX
 70
0
  9
$DIMSOXD
 70
0
  9
$DIMSAH
 70
0
  9
$DIMBLK1
  1

  9
$DIMBLK2
  1

  9
$DIMSTYLE
  2
ISO-25
  9
$DIMCLRD
 70
0
  9
$DIMCLRE
 70
0
  9
$DIMCLRT
 70
0
  9
$DIMTFAC
 40
1.0
  9
$DIMGAP
 40
0.625
  9
$DIMJUST
 70
0
  9
$DIMSD1
 70
0
  9
$DIMSD2
 70
0
  9
$DIMTOLJ
 70
0
  9
$DIMTZIN
 70
8
  9
$DIMALTZ
 70
0
  9
$DIMALTTZ
 70
0
  9
$DIMUPT
 70
0
  9
$DIMDEC
 70
2
  9
$DIMTDEC
 70
2
  9
$DIMALTU
 70
2
  9
$DIMALTTD
 70
3
  9
$DIMTXSTY
  7
Standard
  9
$DIMAUNIT
 70
0
  9
$DIMADEC
 70
0
  9
$DIMALTRND
 40
0.0
  9
$DIMAZIN
 70
0
  9
$DIMDSEP
 70
44
  9
$DIMATFIT
 70
3
  9
$DIMFRAC
 70
0
  9
$DIMLDRBLK
  1

  9
$DIMLUNIT
 70
2
  9
$DIMLWD
 70
-2
  9
$DIMLWE
 70
-2
  9
$DIMTMOVE
 70
0
  9
$LUNITS
 70
2
  9
$LUPREC
 70
4
  9
$SKETCHINC
 40
1.0
  9
$FILLETRAD
 40
10.0
  9
$AUNITS
 70
0
  9
$AUPREC
 70
2
  9
$MENU
  1
.
  9
$ELEVATION
 40
0.0
  9
$PELEVATION
 40
0.0
  9
$THICKNESS
 40
0.0
  9
$LIMCHECK
 70
0
  9
$CHAMFERA
 40
0.0
  9
$CHAMFERB
 40
0.0
  9
$CHAMFERC
 40
0.0
  9
$CHAMFERD
 40
0.0
  9
$SKPOLY
 70
0
  9
$TDCREATE
 40
2460102.618321759
  9
$TDUCREATE
 40
2458532.153996898
  9
$TDUPDATE
 40
2460102.618321759
  9
$TDUUPDATE
 40
2458532.1544311
  9
$TDINDWG
 40
0.0
  9
$TDUSRTIMER
 40
0.0
  9
$USRTIMER
 70
1
  9
$ANGBASE
 50
0.0
  9
$ANGDIR
 70
0
  9
$PDMODE
 70
0
  9
$PDSIZE
 40
0.0
  9
$PLINEWID
 40
0.0
  9
$SPLFRAME
 70
0
  9
$SPLINETYPE
 70
6
  9
$SPLINESEGS
 70
8
  9
$HANDSEED
  5
45
  9
$SURFTAB1
 70
6
  9
$SURFTAB2
 70
6
  9
$SURFTYPE
 70
6
  9
$SURFU
 70
6
  9
$SURFV
 70
6
  9
$UCSBASE
  2

  9
$UCSNAME
  2

  9
$UCSORG
 10
0.0
 20
0.0
 30
0.0
  9
$UCSXDIR
 10
1.0
 20
0.0
 30
0.0
  9
$UCSYDIR
 10
0.0
 20
1.0
 30
0.0
  9
$UCSORTHOREF
  2

  9
$UCSORTHOVIEW
 70
0
  9
$UCSORGTOP
 10
0.0
 20
0.0
 30
0.0
  9
$UCSORGBOTTOM
 10
0.0
 20
0.0
 30
0.0
  9
$UCSORGLEFT
 10
0.0
 20
0.0
 30
0.0
  9
$UCSORGRIGHT
 10
0.0
 20
0.0
 30
0.0
  9
$UCSORGFRONT
 10
0.0
 20
0.0
 30
0.0
  9
$UCSORGBACK
 10
0.0
 20
0.0
 30
0.0
  9
$PUCSBASE
  2

  9
$PUCSNAME
  2

  9
$PUCSORG
 10
0.0
 20
0.0
 30
0.0
  9
$PUCSXDIR
 10
1.0
 20
0.0
 30
0.0
  9
$PUCSYDIR
 10
0.0
 20
1.0
 30
0.0
  9
$PUCSORTHOREF
  2

  9
$PUCSORTHOVIEW
 70
0
  9
$PUCSORGTOP
 10
0.0
 20
0.0
 30
0.0
  9
$PUCSORGBOTTOM
 10
0.0
 20
0.0
 30
0.0
  9
$PUCSORGLEFT
 10
0.0
 20
0.0
 30
0.0
  9
$PUCSORGRIGHT
 10
0.0
 20
0.0
 30
0.0
  9
$PUCSORGFRONT
 10
0.0
 20
0.0
 30
0.0
  9
$PUCSORGBACK
 10
0.0
 20
0.0
 30
0.0
  9
$USERI1
 70
0
  9
$USERI2
 70
0
  9
$USERI3
 70
0
  9
$USERI4
 70
0
  9
$USERI5
 70
0
  9
$USERR1
 40
0.0
  9
$USERR2
 40
0.0
  9
$USERR3
 40
0.0
  9
$USERR4
 40
0.0
  9
$USERR5
 40
0.0
  9
$WORLDVIEW
 70
1
  9
$SHADEDGE
 70
3
  9
$SHADEDIF
 70
70
  9
$TILEMODE
 70
1
  9
$MAXACTVP
 70
64
  9
$PINSBASE
 10
0.0
 20
0.0
 30
0.0
  9
$PLIMCHECK
 70
0
  9
$PEXTMIN
 10
1e+20
 20
1e+20
 30
1e+20
  9
$PEXTMAX
 10
-1e+20
 20
-1e+20
 30
-1e+20
  9
$PLIMMIN
 10
0.0
 20
0.0
  9
$PLIMMAX
 10
420.0
 20
297.0
  9
$UNITMODE
 70
0
  9
$VISRETAIN
 70
1
  9
$PLINEGEN
 70
0
  9
$PSLTSCALE
 70
1
  9
$TREEDEPTH
 70
3020
  9
$CMLSTYLE
  2
Standard
  9
$CMLJUST
 70
0
  9
$CMLSCALE
 40
20.0
  9
$PROXYGRAPHICS
 70
1
  9
$MEASUREMENT
 70
1
  9
$CELWEIGHT
370
-1
  9
$ENDCAPS
280
0
  9
$JOINSTYLE
280
0
  9
$LWDISPLAY
290
0
  9
$INSUNITS
 70
6
  9
$HYPERLINKBASE
  1

  9
$STYLESHEET
  1

  9
$XEDIT
290
1
  9
$CEPSNTYPE
380
0
  9
$PSTYLEMODE
290
1
  9
$FINGERPRINTGUID
  2
{8C365926-ED8C-47E6-8F4D-A33E280211B5}
  9
$VERSIONGUID
  2
{0C90A993-A014-49E9-9D0F-0D34F3CA8317}
  9
$EXTNAMES
290
1
  9
$PSVPSCALE
 40
0.0
  9
$OLESTARTUP
290
0
  0
ENDSEC
  0
SECTION
  2
CLASSES
  0
CLASS
  1
ACDBDICTIONARYWDFLT
  2
AcDbDictionaryWithDefault
  3
ObjectDBX Classes
 90
0
280
0
281
0
  0
CLASS
  1
SUN
  2
AcDbSun
  3
SCENEOE
 90
1153
280
0
281
0
  0
CLASS
  1
VISUALSTYLE
  2
AcDbVisualStyle
  3
ObjectDBX Classes
 90
4095
280
0
281
0
  0
CLASS
  1
MATERIAL
  2
AcDbMaterial
  3
ObjectDBX Classes
 90
1153
280
0
281
0
  0
CLASS
  1
SCALE
  2
AcDbScale
  3
ObjectDBX Classes
 90
1153
280
0
281
0
  0
CLASS
  1
TABLESTYLE
  2
AcDbTableStyle
  3
ObjectDBX Classes
 90
4095
280
0
281
0
  0
CLASS
  1
MLEADERSTYLE
  2
AcDbMLeaderStyle
  3
ACDB_MLEADERSTYLE_CLASS
 90
4095
280
0
281
0
  0
CLASS
  1
DICTIONARYVAR
  2
AcDbDictionaryVar
  3
ObjectDBX Classes
 90
0
280
0
281
0
  0
CLASS
  1
CELLSTYLEMAP
  2
AcDbCellStyleMap
  3
ObjectDBX Classes
 90
1152
280
0
281
0
  0
CLASS
  1
MENTALRAYRENDERSETTINGS
  2
AcDbMentalRayRenderSettings
  3
SCENEOE
 90
1024
280
0
281
0
  0
CLASS
  1
ACDBDETAILVIEWSTYLE
  2
AcDbDetailViewStyle
  3
ObjectDBX Classes
 90
1025
280
0
281
0
  0
CLASS
  1
ACDBSECTIONVIEWSTYLE
  2
AcDbSectionViewStyle
  3
ObjectDBX Classes
 90
1025
280
0
281
0
  0
CLASS
  1
RASTERVARIABLES
  2
AcDbRasterVariables
  3
ISM
 90
0
280
0
281
0
  0
CLASS
  1
ACDBPLACEHOLDER
  2
AcDbPlaceHolder
  3
ObjectDBX Classes
 90
0
280
0
281
0
  0
CLASS
  1
LAYOUT
  2
AcDbLayout
  3
ObjectDBX Classes
 90
0
280
0
281
0
  0
ENDSEC
  0
SECTION
  2
TABLES
  0
TABLE
  2
VPORT
  5
8
330
0
100
AcDbSymbolTable
 70
1
  0
VPORT
  5
23
330
8
100
AcDbSymbolTableRecord
100
AcDbViewportTableRecord
  2
*Active
 70
0
 10
0.0
 20
0.0
 11
1.0
 21
1.0
 12
0.0
 22
0.0
 13
0.0
 23
0.0
 14
0.5
 24
0.5
 15
0.5
 25
0.5
 16
0.0
 26
0.0
 36
1.0
 17
0.0
 27
0.0
 37
0.0
 40
1000.0
 41
1.34
 42
50.0
 43
0.0
 44
0.0
 50
0.0
 51
0.0
 71
0
 72
1000
 73
1
 74
3
 75
0
 76
0
 77
0
 78
0
281
0
 65
0
146
0.0
  0
ENDTAB
  0
TABLE
  2
LTYPE
  5
2
330
0
100
AcDbSymbolTable
 70
3
  0
LTYPE
  5
24
330
2
100
AcDbSymbolTableRecord
100
AcDbLinetypeTableRecord
  2
ByBlock
 70
0
  3

 72
65
 73
0
 40
0.0
  0
LTYPE
  5
25
330
2
100
AcDbSymbolTableRecord
100
AcDbLinetypeTableRecord
  2
ByLayer
 70
0
  3

 72
65
 73
0
 40
0.0
  0
LTYPE
  5
26
330
2
100
AcDbSymbolTableRecord
100
AcDbLinetypeTableRecord
  2
Continuous
 70
0
  3

 72
65
 73
0
 40
0.0
  0
ENDTAB
  0
TABLE
  2
LAYER
  5
1
330
0
100
AcDbSymbolTable
 70
2
  0
LAYER
  5
27
330
1
100
AcDbSymbolTableRecord
100
AcDbLayerTableRecord
  2
0
 70
0
 62
7
  6
Continuous
370
-3
390
13
  0
LAYER
  5
28
330
1
100
AcDbSymbolTableRecord
100
AcDbLayerTableRecord
  2
Defpoints
 70
0
 62
7
  6
Continuous
290
0
370
-3
390
13
  0
ENDTAB
  0
TABLE
  2
STYLE
  5
5
330
0
100
AcDbSymbolTable
 70
1
  0
STYLE
  5
29
330
5
100
AcDbSymbolTableRecord
100
AcDbTextStyleTableRecord
  2
Standard
 70
0
 40
0.0
 41
1.0
 50
0.0
 71
0
 42
2.5
  3
txt
  4

  0
ENDTAB
  0
TABLE
  2
VIEW
  5
7
330
0
100
AcDbSymbolTable
 70
0
  0
ENDTAB
  0
TABLE
  2
UCS
  5
6
330
0
100
AcDbSymbolTable
 70
0
  0
ENDTAB
  0
TABLE
  2
APPID
  5
3
330
0
100
AcDbSymbolTable
 70
3
  0
APPID
  5
2A
330
3
100
AcDbSymbolTableRecord
100
AcDbRegAppTableRecord
  2
ACAD
 70
0
  0
APPID
  5
42
330
3
100
AcDbSymbolTableRecord
100
AcDbRegAppTableRecord
  2
HATCHBACKGROUNDCOLOR
 70
0
  0
APPID
  5
43
330
3
100
AcDbSymbolTableRecord
100
AcDbRegAppTableRecord
  2
EZDXF
 70
0
  0
ENDTAB
  0
TABLE
  2
DIMSTYLE
  5
4
330
0
100
AcDbSymbolTable
 70
1
100
AcDbDimStyleTable
  0
DIMSTYLE
105
2B
330
4
100
AcDbSymbolTableRecord
100
AcDbDimStyleTableRecord
  2
Standard
 70
0
  3

  4

 40
1.0
 41
2.5
 42
0.625
 43
3.75
 44
1.25
 45
0.0
 46
0.0
 47
0.0
 48
0.0
140
2.5
141
2.5
142
0.0
143
0.03937007874
144
1.0
145
0.0
146
1.0
147
0.625
148
0.0
 71
0
 72
0
 73
0
 74
0
 75
0
 76
0
 77
1
 78
8
 79
3
170
0
171
3
172
1
173
0
174
0
175
0
176
0
177
0
178
0
179
2
271
2
272
2
273
2
274
3
275
0
276
0
277
2
278
44
279
0
280
0
281
0
282
0
283
0
284
8
285
0
286
0
288
0
289
3
371
-2
372
-2
  0
ENDTAB
  0
TABLE
  2
BLOCK_RECORD
  5
9
330
0
100
AcDbSymbolTable
 70
2
  0
BLOCK_RECORD
  5
17
330
9
100
AcDbSymbolTableRecord
100
AcDbBlockTableRecord
  2
*Model_Space
340
1A
  0
BLOCK_RECORD
  5
1B
330
9
100
AcDbSymbolTableRecord
100
AcDbBlockTableRecord
  2
*Paper_Space
340
1E
  0
ENDTAB
  0
ENDSEC
  0
SECTION
  2
BLOCKS
  0
BLOCK
  5
18
330
17
100
AcDbEntity
  8
0
100
AcDbBlockBegin
  2
*Model_Space
 70
0
 10
0.0
 20
0.0
 30
0.0
  3
*Model_Space
  1

  0
ENDBLK
  5
19
330
17
100
AcDbEntity
  8
0
100
AcDbBlockEnd
  0
BLOCK
  5
1C
330
1B
100
AcDbEntity
  8
0
100
AcDbBlockBegin
  2
*Paper_Space
 70
0
 10
0.0
 20
0.0
 30
0.0
  3
*Paper_Space
  1

  0
ENDBLK
  5
1D
330
1B
100
AcDbEntity
  8
0
100
AcDbBlockEnd
  0
ENDSEC
  0
SECTION
  2
ENTITIES
  0
LWPOLYLINE
  5
2F
330
17
100
AcDbEntity
  8
0
100
AcDbPolyline
 90
5
 70
0
 10
0.0
 20
0.0
 10
0.0
 20
255.0
 10
255.0
 20
255.0
 10
255.0
 20
0.0
 10
0.0
 20
0.0
  0
LWPOLYLINE
  5
30
330
17
100
AcDbEntity
  8
0
100
AcDbPolyline
 90
95
 70
0
 10
19.396008809703908
 20
0.0
 10
19.0
 20
0.8662945467206823
 10
18.928001916198173
 20
1.0
 10
18.14172236472225
 20
2.0
 10
18.0
 20
2.134294739723172
 10
17.0
 20
2.8482896030380367
 10
16.72657653595813
 20
3.0
 10
16.0
 20
3.3559229117448344
 10
15.0
 20
3.6827917672398445
 10
14.0
 20
3.9502375882072416
 10
13.799041515123116
 20
4.0
 10
13.0
 20
4.189808008351944
 10
12.0
 20
4.3927597435368995
 10
11.0
 20
4.6075723733208775
 10
10.0
 20
4.892382775924215
 10
9.728701034034303
 20
5.0
 10
9.0
 20
5.289013340588658
 10
8.0
 20
5.771375514982102
 10
7.655947291053057
 20
6.0
 10
7.0
 20
6.480212501095313
 10
6.432819980266166
 20
7.0
 10
6.0
 20
7.483433004597496
 10
5.60458800659287
 20
8.0
 10
5.0532366039468295
 20
9.0
 10
5.0
 20
9.124402860746443
 10
4.66620066408267
 20
10.0
 10
4.461398235124614
 20
11.0
 10
4.381466422739486
 20
12.0
 10
4.413037678037452
 20
13.0
 10
4.553015536284212
 20
14.0
 10
4.817251907674493
 20
15.0
 10
5.0
 20
15.436983587669225
 10
5.242394399034644
 20
16.0
 10
5.766359017818659
 20
17.0
 10
6.0
 20
17.335307586241427
 10
6.499647485086217
 20
18.0
 10
7.0
 20
18.55766531691888
 10
7.454688046486028
 20
19.0
 10
8.0
 20
19.466481538972907
 10
8.752484475654267
 20
20.0
 10
9.0
 20
20.166014773940592
 10
10.0
 20
20.67098255662308
 10
10.810570056905956
 20
21.0
 10
11.0
 20
21.078248629153634
 10
12.0
 20
21.35387239781336
 10
13.0
 20
21.506139189552293
 10
14.0
 20
21.561786973101384
 10
15.0
 20
21.52560999887183
 10
16.0
 20
21.395478720268766
 10
17.0
 20
21.153569715393036
 10
17.40726331398776
 20
21.0
 10
18.0
 20
20.77358868195746
 10
19.0
 20
20.32294350140971
 10
19.541659305842572
 20
20.0
 10
20.0
 20
19.708263252054188
 10
20.992585739465056
 20
19.0
 10
21.0
 20
18.994070691066877
 10
22.0
 20
18.15151144157979
 10
22.16407434511359
 20
18.0
 10
23.0
 20
17.20092695517185
 10
23.202300280090135
 20
17.0
 10
24.0
 20
16.192738160559912
 10
24.19006865693561
 20
16.0
 10
25.0
 20
15.185601442055907
 10
25.189066989166925
 20
15.0
 10
26.0
 20
14.233677559914748
 10
26.258226904894762
 20
14.0
 10
27.0
 20
13.366967699512518
 10
27.459439753925032
 20
13.0
 10
28.0
 20
12.589738094082467
 10
28.869616791840524
 20
12.0
 10
29.0
 20
11.911032059219416
 10
30.0
 20
11.328569361566768
 10
30.586025609780087
 20
11.0
 10
31.0
 20
10.769649083326977
 10
32.0
 20
10.29053225151889
 10
32.57603925341509
 20
10.0
 10
33.0
 20
9.783595658955509
 10
34.0
 20
9.311087167510376
 10
34.574269403766415
 20
9.0
 10
35.0
 20
8.760598256787999
 10
36.0
 20
8.180326485725885
 10
36.2566823105308
 20
8.0
 10
37.0
 20
7.453745158464545
 10
37.52879870044384
 20
7.0
 10
38.0
 20
6.542272876924639
 10
38.486409361872475
 20
6.0
 10
39.0
 20
5.302605656281567
 10
39.20573642487352
 20
5.0
 10
39.697090692458644
 20
4.0
 10
40.0
 20
3.1846250721030316
 10
40.069670759504305
 20
3.0
 10
40.29747577876218
 20
2.0
 10
40.39341135307306
 20
1.0
 10
40.383804196010864
 20
0.0
  0
LWPOLYLINE
  5
31
330
17
100
AcDbEntity
  8
0
100
AcDbPolyline
 90
84
 70
0
 10
48.63729251474044
 20
0.0
 10
48.64110556909467
 20
1.0
 10
48.66883786713114
 20
2.0
 10
48.72478306876676
 20
3.0
 10
48.81450601706299
 20
4.0
 10
48.94649504025173
 20
5.0
 10
49.0
 20
5.299370694142463
 10
49.12202677019716
 20
6.0
 10
49.31451751375694
 20
7.0
 10
49.52750638817084
 20
8.0
 10
49.782244587451935
 20
9.0
 10
50.00000000000001
 20
9.6674203445248
 10
50.11242457487791
 20
9.999999999999998
 10
50.45139780873346
 20
11.0
 10
50.82343138892144
 20
12.0
 10
51.0
 20
12.387244037225953
 10
51.2784306662703
 20
13.0
 10
51.73403066199988
 20
14.0
 10
52.0
 20
14.489766228363678
 10
52.28304799432261
 20
15.0
 10
52.84556847754516
 20
16.0
 10
53.0
 20
16.2355977159054
 10
53.498733781641064
 20
17.0
 10
54.00000000000001
 20
17.7087437724239
 10
54.21907517058998
 20
18.0
 10
55.0
 20
18.996923207634257
 10
55.002622765783904
 20
19.0
 10
55.89094300676059
 20
20.0
 10
56.0
 20
20.113136078853262
 10
56.913581148237256
 20
21.0
 10
57.0
 20
21.079450080648215
 10
58.0
 20
21.904936808014583
 10
58.121932621310364
 20
22.0
 10
59.0
 20
22.62114257887963
 10
59.59796615954578
 20
23.0
 10
60.0
 20
23.246240330982097
 10
61.0
 20
23.728989322533952
 10
61.62684493071291
 20
24.0
 10
62.0
 20
24.160334973723558
 10
63.0
 20
24.466498170413843
 10
64.0
 20
24.67643670618341
 10
65.0
 20
24.811736498750452
 10
66.0
 20
24.86650496695715
 10
67.0
 20
24.832608873080655
 10
68.0
 20
24.71182805894804
 10
69.0
 20
24.507529802076327
 10
70.0
 20
24.1959099058005
 10
70.42618535042698
 20
24.0
 10
71.0
 20
23.72711362087143
 10
72.0
 20
23.15827774907391
 10
72.215161345391
 20
23.0
 10
73.0
 20
22.37937779398905
 10
73.40313969555514
 20
22.0
 10
74.0
 20
21.351972014843987
 10
74.29017603168441
 20
21.0
 10
74.95133335592111
 20
20.0
 10
74.99999999999999
 20
19.916669188199847
 10
75.47041626777312
 20
19.0
 10
75.8434947316496
 20
18.0
 10
76.0
 20
17.4900349198477
 10
76.14836773666211
 20
17.0
 10
76.33418042704072
 20
16.0
 10
76.42736424324875
 20
15.0
 10
76.44490489933257
 20
14.0
 10
76.39245236151685
 20
13.0
 10
76.26894259926438
 20
12.0
 10
76.06146787699994
 20
11.0
 10
76.0
 20
10.791576162482567
 10
75.7754114629763
 20
10.0
 10
75.46114945476822
 20
9.0
 10
75.07011392517194
 20
8.0
 10
75.0
 20
7.8555428126347575
 10
74.60069389555214
 20
7.0
 10
74.1004787266084
 20
6.0
 10
74.0
 20
5.830247445130125
 10
73.5218235173345
 20
5.0
 10
73.0
 20
4.153469600619146
 10
72.89845237053574
 20
4.0
 10
72.25337193484171
 20
3.0
 10
72.0
 20
2.6424916056305565
 10
71.54499332190362
 20
2.0
 10
71.0
 20
1.2462406886043664
 10
70.81482824991848
 20
1.0
 10
70.08663858547519
 20
0.0
  0
LWPOLYLINE
  5
32
330
17
100
AcDbEntity
  8
0
100
AcDbPolyline
 90
244
 70
0
 10
135.54398132690923
 20
0.0
 10
135.0
 20
0.07937317748876833
 10
134.0
 20
0.2191013186376655
 10
133.0
 20
0.35050562691568893
 10
132.0
 20
0.47664438442617935
 10
131.0
 20
0.6014969648346746
 10
130.0
 20
0.7291719665120824
 10
129.0
 20
0.8631218142244479
 10
128.03688905600424
 20
1.0
 10
128.0
 20
1.0055008020242426
 10
127.0
 20
1.1415323145214387
 10
125.99999999999999
 20
1.2591064698150833
 10
125.0
 20
1.3616957548737783
 10
124.0
 20
1.4524202015943968
 10
123.0
 20
1.533873512845401
 10
122.0
 20
1.6080756183818148
 10
121.0
 20
1.6765462994502132
 10
120.0
 20
1.7404611644129366
 10
119.0
 20
1.800850371394255
 10
118.0
 20
1.8588102883127542
 10
117.0
 20
1.9157094214824888
 10
116.0
 20
1.9733822987651188
 10
115.55759266855128
 20
2.0
 10
115.0
 20
2.0335450290630477
 10
114.0
 20
2.0948702155262295
 10
113.0
 20
2.159509905397425
 10
112.0
 20
2.230298047395688
 10
111.0
 20
2.3103067361050513
 10
110.0
 20
2.403310695873781
 10
109.0
 20
2.5147900548599633
 10
108.0
 20
2.6538406743789853
 10
107.0
 20
2.836519304440755
 10
106.33731431643194
 20
3.0
 10
106.0
 20
3.0856237222689398
 10
105.0
 20
3.360492435657698
 10
104.0
 20
3.6726352032063367
 10
103.21130045120316
 20
4.0
 10
103.0
 20
4.094872341133012
 10
102.0
 20
4.573286555651269
 10
101.2837131809219
 20
5.0
 10
101.0
 20
5.185521882552594
 10
100.0
 20
5.912252887139852
 10
99.8987495111182
 20
6.0
 10
99.0
 20
6.858121095507761
 10
98.86837410789646
 20
7.0
 10
98.09411984197878
 20
8.0
 10
98.0
 20
8.138950070455486
 10
97.48872312349516
 20
9.0
 10
97.04310784862747
 20
10.0
 10
97.0
 20
10.11832596339988
 10
96.70621399960244
 20
11.0
 10
96.5164204938471
 20
12.0
 10
96.4331492474874
 20
13.0
 10
96.44799702920821
 20
14.0
 10
96.5625902507501
 20
15.0
 10
96.79339009138718
 20
16.0
 10
97.0
 20
16.542084528137565
 10
97.18211381925256
 20
17.0
 10
97.66949618423803
 20
18.0
 10
98.0
 20
18.497827496336836
 10
98.36709136090394
 20
19.0
 10
98.99999999999999
 20
19.723302947962342
 10
99.27990743474342
 20
20.0
 10
100.0
 20
20.618322488560192
 10
100.52634377618516
 20
21.0
 10
101.0
 20
21.315897895022776
 10
102.0
 20
21.82591527412963
 10
102.38740374704318
 20
22.0
 10
103.0
 20
22.260206867195166
 10
104.0
 20
22.55605137699514
 10
105.0
 20
22.77557986830311
 10
106.0
 20
22.94324827601974
 10
106.50346753165812
 20
23.0
 10
107.0
 20
23.056540623650466
 10
108.0
 20
23.10604074360466
 10
109.0
 20
23.100920089330074
 10
110.0
 20
23.04658668969725
 10
110.46083012584985
 20
23.0
 10
111.0
 20
22.946079276362205
 10
112.0
 20
22.81592234573468
 10
113.0
 20
22.666682728422593
 10
114.0
 20
22.500795002273456
 10
115.0
 20
22.311965437859122
 10
116.0
 20
22.085224545621788
 10
116.31911035577798
 20
22.0
 10
117.00000000000001
 20
21.822544328512002
 10
117.99999999999999
 20
21.577784226831568
 10
119.0
 20
21.33290147220508
 10
120.0
 20
21.057442002679316
 10
120.18677142576279
 20
21.0
 10
121.0
 20
20.76152412845212
 10
122.0
 20
20.499205394753712
 10
123.0
 20
20.237977371326608
 10
123.82061397998339
 20
20.0
 10
124.0
 20
19.945181274618335
 10
125.0
 20
19.67227779272924
 10
126.0
 20
19.43113914789615
 10
127.0
 20
19.1916168983387
 10
127.74716690832757
 20
19.0
 10
128.0
 20
18.932631833350598
 10
129.0
 20
18.702449982149993
 10
130.0
 20
18.507511118407045
 10
131.0
 20
18.329928368336862
 10
132.0
 20
18.158194869452867
 10
132.93065999741384
 20
18.0
 10
133.0
 20
17.987571962320825
 10
134.0
 20
17.838851825949416
 10
135.0
 20
17.724207655576123
 10
136.0
 20
17.637582657573986
 10
137.0
 20
17.575605826948184
 10
138.0
 20
17.53686939485039
 10
139.0
 20
17.52122417765316
 10
140.0
 20
17.529234304962642
 10
141.0
 20
17.561959355540754
 10
142.0
 20
17.621211887790302
 10
143.0
 20
17.71039715233752
 10
144.0
 20
17.83599312672293
 10
144.9472535175795
 20
18.0
 10
145.0
 20
18.009540838797356
 10
146.0
 20
18.21208986152162
 10
147.0
 20
18.42669091587107
 10
148.0
 20
18.67072983469056
 10
149.0
 20
18.982605941250107
 10
149.04585619834177
 20
18.999999999999996
 10
150.0
 20
19.337735869214256
 10
151.0
 20
19.705045044866093
 10
151.6497715918363
 20
20.0
 10
152.0
 20
20.16585996301451
 10
153.0
 20
20.6384328567296
 10
153.64798458989247
 20
21.0
 10
154.0
 20
21.20632336153705
 10
155.0
 20
21.7997958015088
 10
155.29011396900793
 20
22.0
 10
156.0
 20
22.494365042816394
 10
156.66994104169495
 20
23.0
 10
157.0
 20
23.263675104367813
 10
157.87918240732554
 20
24.0
 10
158.0
 20
24.108198803423893
 10
158.95376219969333
 20
25.0
 10
159.0
 20
25.045721343250705
 10
159.91797833574694
 20
26.0
 10
160.0
 20
26.08859379093193
 10
160.7995518993567
 20
27.0
 10
161.0
 20
27.234349608982768
 10
161.6259034163868
 20
28.0
 10
162.0
 20
28.46871678605599
 10
162.41555059022022
 20
29.0
 10
163.0
 20
29.77390054273719
 10
163.17396273212705
 20
30.0
 10
163.9033929357026
 20
31.0
 10
164.0
 20
31.125236919366067
 10
164.6570064713205
 20
32.0
 10
165.0
 20
32.43619279631751
 10
165.4511955478148
 20
33.0
 10
166.0
 20
33.65746125373855
 10
166.30093791134084
 20
34.0
 10
167.0
 20
34.75266832030903
 10
167.24690006399953
 20
35.0
 10
168.0
 20
35.69656928161055
 10
168.3611477152486
 20
36.0
 10
169.0
 20
36.49181408512011
 10
169.78008141282814
 20
37.0
 10
170.0
 20
37.139799152014604
 10
171.0
 20
37.61869849134961
 10
172.0
 20
37.98682345139076
 10
172.0476185393324
 20
38.0
 10
173.0
 20
38.245060259243026
 10
174.0
 20
38.363565930940716
 10
175.0
 20
38.36782618695502
 10
176.0
 20
38.25590645567982
 10
176.98524950026587
 20
38.0
 10
177.00000000000003
 20
37.995831811860285
 10
178.0
 20
37.60001866521758
 10
179.0
 20
37.03718393170595
 10
179.04936997092767
 20
37.0
 10
180.0
 20
36.20698136415072
 10
180.2006887346871
 20
36.0
 10
180.9657028364344
 20
35.0
 10
181.0
 20
34.945286114344455
 10
181.5037584130295
 20
34.0
 10
181.85894899955068
 20
33.0
 10
182.0
 20
32.44751285347414
 10
182.11379292072127
 20
32.0
 10
182.23892007422745
 20
31.0
 10
182.26205608287424
 20
30.0
 10
182.201330069322
 20
29.0
 10
182.06224020815637
 20
28.0
 10
182.0
 20
27.702749682445585
 10
181.85710323522687
 20
26.999999999999996
 10
181.63661920281123
 20
26.0
 10
181.40980386164898
 20
25.0
 10
181.17040253289696
 20
24.0
 10
181.0
 20
23.318750177763388
 10
180.9178802537114
 20
23.0
 10
180.71597913845488
 20
22.0
 10
180.57806568215995
 20
21.0
 10
180.50268128106373
 20
20.0
 10
180.49597226570603
 20
19.0
 10
180.56807019901984
 20
18.0
 10
180.73651495150654
 20
17.0
 10
181.0
 20
16.135211546005827
 10
181.04451042424262
 20
16.0
 10
181.4611444616047
 20
15.0
 10
182.0
 20
14.061992872462369
 10
182.04139673498224
 20
14.0
 10
182.82251013974155
 20
13.0
 10
183.00000000000003
 20
12.813972652695842
 10
183.90804196128616
 20
12.0
 10
184.0
 20
11.925062262293435
 10
185.0
 20
11.267130684972829
 10
185.47229823748842
 20
11.0
 10
186.0
 20
10.718536106148438
 10
187.0
 20
10.321288111318324
 10
187.91931907190937
 20
10.0
 10
188.0
 20
9.970216523256553
 10
188.99999999999997
 20
9.683673678638439
 10
190.0
 20
9.467189511698532
 10
191.0
 20
9.277631870554774
 10
192.0
 20
9.087184548709782
 10
192.42584949073017
 20
9.0
 10
193.0
 20
8.883103065010125
 10
194.0
 20
8.69123041676887
 10
195.0
 20
8.496099696833927
 10
196.0
 20
8.270381565255585
 10
196.91357096740978
 20
8.0
 10
197.00000000000003
 20
7.972388274213952
 10
198.0
 20
7.634509820661232
 10
199.0
 20
7.2610297412290095
 10
199.54117843485824
 20
7.0
 10
200.0
 20
6.769750643779311
 10
201.0
 20
6.23723500610395
 10
201.36286324894928
 20
6.0
 10
202.0
 20
5.569368098661762
 10
202.75457134274703
 20
5.0
 10
203.0
 20
4.798371831165755
 10
203.902053745023
 20
4.0
 10
204.0
 20
3.9058779538140143
 10
204.87708536113894
 20
3.0
 10
204.99999999999997
 20
2.8653059970105246
 10
205.73583546864472
 20
2.0
 10
206.0
 20
1.6761658575415912
 10
206.52438709056588
 20
1.0
 10
207.0
 20
0.35946045798939574
 10
207.26522366756095
 20
0.0
  0
LWPOLYLINE
  5
33
330
17
100
AcDbEntity
  8
0
100
AcDbPolyline
 90
25
 70
0
 10
179.39046201470654
 20
0.0
 10
179.0
 20
0.13392293478859604
 10
178.0
 20
0.40006068530807964
 10
177.0
 20
0.608651060961947
 10
176.0
 20
0.7850627103607787
 10
175.0
 20
0.9376075582071801
 10
174.49782612241603
 20
1.0
 10
174.0
 20
1.0625625668773258
 10
173.0
 20
1.1452130977957986
 10
172.0
 20
1.190817871644362
 10
171.0
 20
1.2050434689031482
 10
170.0
 20
1.1914218467115982
 10
169.0
 20
1.1521083505100047
 10
168.0
 20
1.0881811756929687
 10
167.0028635645885
 20
1.0
 10
167.0
 20
0.999741163998138
 10
166.0
 20
0.8956334646029317
 10
165.0
 20
0.7862180417802449
 10
164.0
 20
0.6745922637810474
 10
163.0
 20
0.5615401963772957
 10
162.0
 20
0.4459239989849422
 10
161.0
 20
0.3253924858844487
 10
160.0
 20
0.1972560704362702
 10
159.0
 20
0.05938303702776173
 10
158.58700951184417
 20
0.0
  0
LWPOLYLINE
  5
34
330
17
100
AcDbEntity
  8
0
100
AcDbPolyline
 90
163
 70
0
 10
231.84674207687215
 20
0.0
 10
232.0
 20
0.6297193950947519
 10
232.09201932658414
 20
1.0
 10
232.25678437861876
 20
2.0
 10
232.34838554529225
 20
3.0
 10
232.37795274048935
 20
4.0
 10
232.34762358886996
 20
5.0
 10
232.2531798483584
 20
6.0
 10
232.08049077013342
 20
7.000000000000001
 10
232.0
 20
7.306394149448176
 10
231.8228190716693
 20
8.0
 10
231.52218866107512
 20
9.0
 10
231.1333019595951
 20
10.0
 10
231.0
 20
10.257939071233242
 10
230.6164314869129
 20
11.0
 10
230.0077495740209
 20
12.0
 10
230.0
 20
12.010508441714045
 10
229.2512755944804
 20
13.0
 10
229.0
 20
13.282788632272457
 10
228.29859345557287
 20
14.0
 10
228.00000000000003
 20
14.275069525068208
 10
227.08723535764457
 20
15.0
 10
226.99999999999997
 20
15.066446970492615
 10
226.0
 20
15.692888926788871
 10
225.4428103352845
 20
16.0
 10
225.0
 20
16.23574749262975
 10
224.0
 20
16.636791894201743
 10
223.0
 20
16.978856942042718
 10
222.92997834056837
 20
17.0
 10
222.0
 20
17.261118196454856
 10
221.0
 20
17.451392146266233
 10
220.0
 20
17.583852172651067
 10
219.0
 20
17.673600507570296
 10
218.0
 20
17.727518801874538
 10
217.0
 20
17.750666040147696
 10
216.0
 20
17.748971320790076
 10
215.0
 20
17.729611359679897
 10
214.0
 20
17.70042210754591
 10
213.0
 20
17.669279467396805
 10
212.0
 20
17.643840675254793
 10
211.0
 20
17.631632109504928
 10
210.0
 20
17.640337846768894
 10
209.0
 20
17.678320212836482
 10
208.0
 20
17.755846511407697
 10
207.0
 20
17.88809117908052
 10
206.45445402785498
 20
18.0
 10
206.0
 20
18.093865217299257
 10
205.0
 20
18.3449016784284
 10
204.0
 20
18.655127908017153
 10
203.21036370862134
 20
19.0
 10
203.0
 20
19.100558834092517
 10
202.0
 20
19.634456052410656
 10
201.4671242419738
 20
20.0
 10
201.0
 20
20.352502491623326
 10
200.2706561469098
 20
21.0
 10
200.0
 20
21.277902174906934
 10
199.39134151288656
 20
22.0
 10
199.0
 20
22.563744688103718
 10
198.72162754289565
 20
23.0
 10
198.26653816846567
 20
24.0
 10
198.0
 20
24.764638931040516
 10
197.9165540768723
 20
25.0
 10
197.71045032159435
 20
26.0
 10
197.63780883479785
 20
27.0
 10
197.6834850845619
 20
28.0
 10
197.86034987146726
 20
29.0
 10
198.0
 20
29.418348045170468
 10
198.1969913565257
 20
29.999999999999996
 10
198.6491322151895
 20
31.0
 10
199.0
 20
31.54004697426553
 10
199.3351747008546
 20
32.0
 10
200.0
 20
32.74131191323603
 10
200.27462453018035
 20
33.0
 10
201.0
 20
33.58460044082047
 10
201.63429665886366
 20
34.0
 10
202.0
 20
34.22404172372822
 10
203.0
 20
34.6701972303623
 10
203.91598784743974
 20
35.0
 10
204.0
 20
35.031543877732354
 10
205.0
 20
35.29297475229897
 10
206.0
 20
35.450906472439115
 10
207.0
 20
35.53756353806611
 10
208.0
 20
35.56545111401901
 10
209.0
 20
35.54093614827061
 10
210.0
 20
35.468775064393
 10
211.0
 20
35.350929096398175
 10
212.0
 20
35.182838155962415
 10
212.79732078584334
 20
35.0
 10
213.0
 20
34.95145770089085
 10
214.0
 20
34.69859112105767
 10
215.0
 20
34.439015055592364
 10
216.0
 20
34.140592951678805
 10
216.3926730407968
 20
34.0
 10
216.99999999999997
 20
33.78498883589715
 10
218.0
 20
33.451039731394935
 10
219.0
 20
33.088122710102695
 10
219.21201518190531
 20
33.0
 10
220.0
 20
32.68672934372732
 10
221.0
 20
32.31679436286548
 10
221.7653347622236
 20
32.0
 10
222.0
 20
31.897827384788002
 10
223.0
 20
31.50249065237599
 10
224.0
 20
31.106205044224943
 10
224.2410328676117
 20
31.0
 10
225.0
 20
30.679616553599807
 10
226.0
 20
30.29634899214549
 10
226.70480389222908
 20
30.0
 10
227.0
 20
29.87112518306047
 10
228.0
 20
29.481177413037265
 10
229.0
 20
29.089029779116196
 10
229.20522566207356
 20
29.0
 10
230.0
 20
28.671684012111
 10
231.0
 20
28.294953078885648
 10
231.70607282879408
 20
28.0
 10
232.0
 20
27.872281786217698
 10
233.0
 20
27.47814820363702
 10
234.0
 20
27.07048383740319
 10
234.1532415937722
 20
27.0
 10
235.0
 20
26.63069953504258
 10
236.0
 20
26.211280780036383
 10
236.43747053693247
 20
26.0
 10
237.0
 20
25.728374329451533
 10
238.0
 20
25.265895139337573
 10
238.49873838183035
 20
25.0
 10
239.0
 20
24.728360078630214
 10
240.0
 20
24.195145968662068
 10
240.3164032199274
 20
24.0
 10
241.0
 20
23.578997262949116
 10
241.8881107015299
 20
23.0
 10
242.0
 20
22.92084861262056
 10
243.0
 20
22.206918567411776
 10
243.25820188440497
 20
22.0
 10
244.0
 20
21.387828675449867
 10
244.43286980590682
 20
21.0
 10
245.0
 20
20.460938131231394
 10
245.4520762048901
 20
20.0
 10
246.0
 20
19.395718888504675
 10
246.3385893260253
 20
19.0
 10
247.0
 20
18.13477517890038
 10
247.10110913545265
 20
18.0
 10
247.73736273323146
 20
17.0
 10
248.0
 20
16.55761974774212
 10
248.31488168585895
 20
16.0
 10
248.76438399517158
 20
15.0
 10
249.0
 20
14.437303812423352
 10
249.18083912001177
 20
14.0
 10
249.4870556960039
 20
13.0
 10
249.7202524242487
 20
12.0
 10
249.90721444555643
 20
11.0
 10
250.0
 20
10.324366237222348
 10
250.04564330860705
 20
10.0
 10
250.11696829212275
 20
9.0
 10
250.12543772961286
 20
8.0
 10
250.07499348158134
 20
7.0
 10
250.0
 20
6.321621169659083
 10
249.9643147238827
 20
6.000000000000001
 10
249.8100848899265
 20
5.0
 10
249.62667038520394
 20
4.0
 10
249.4127526848884
 20
3.0
 10
249.14875615731228
 20
2.0
 10
249.0
 20
1.5500241341980954
 10
248.81839225236885
 20
1.0
 10
248.49608115397544
 20
0.0
  0
LWPOLYLINE
  5
35
330
17
100
AcDbEntity
  8
0
100
AcDbPolyline
 90
517
 70
0
 10
255.0
 20
38.819600676663654
 10
254.0
 20
38.77725673117028
 10
253.0
 20
38.74229118424252
 10
252.0
 20
38.71515137447686
 10
251.0
 20
38.69628435154619
 10
250.0
 20
38.68617231749397
 10
249.0
 20
38.685357686621515
 10
248.0
 20
38.69446799439429
 10
247.0
 20
38.71425196644041
 10
246.0
 20
38.74563728876273
 10
245.0
 20
38.789818455285044
 10
244.0
 20
38.84838052435373
 10
243.0
 20
38.923464470810416
 10
242.18501748514214
 20
39.0
 10
242.0
 20
39.017763970621566
 10
241.0
 20
39.12380382994819
 10
240.0
 20
39.23554694807693
 10
239.0
 20
39.353107330811106
 10
238.0
 20
39.47889607515921
 10
237.0
 20
39.618337315494635
 10
236.0
 20
39.78057722189553
 10
235.0
 20
39.979289021763684
 10
234.91107294233018
 20
40.0
 10
233.99999999999997
 20
40.20156319936072
 10
233.0
 20
40.41750403200098
 10
232.0
 20
40.64552844309783
 10
231.0
 20
40.916161823840596
 10
230.74161880845205
 20
41.0
 10
230.0
 20
41.23317954684246
 10
229.0
 20
41.53847756710945
 10
228.0
 20
41.882866800651755
 10
227.71739858003667
 20
42.0
 10
227.0
 20
42.29016058590255
 10
226.0
 20
42.68942723005153
 10
225.3460944793511
 20
43.0
 10
225.0
 20
43.171936348588304
 10
224.0
 20
43.657534637507645
 10
223.39020467088267
 20
44.0
 10
222.99999999999997
 20
44.22846351837096
 10
222.0
 20
44.812037213041975
 10
221.71979540350392
 20
45.0
 10
221.0
 20
45.48321616605047
 10
220.2774537368069
 20
46.0
 10
220.0
 20
46.20991413060751
 10
219.0
 20
46.98086092574966
 10
218.9772232221709
 20
47.0
 10
218.0
 20
47.82209970277414
 10
217.80165390334707
 20
48.0
 10
217.0
 20
48.73234076342211
 10
216.7189119311379
 20
49.0
 10
216.0
 20
49.700420403736246
 10
215.70046695215655
 20
50.0
 10
215.0
 20
50.71521889079378
 10
214.724825538204
 20
51.0
 10
214.0
 20
51.761592993247525
 10
213.77341540576447
 20
52.0
 10
213.0
 20
52.81972774879472
 10
212.82825947949186
 20
53.0
 10
212.0
 20
53.86634382246992
 10
211.86985657346327
 20
54.0
 10
211.0
 20
54.87743924630524
 10
210.87555258808715
 20
55.0
 10
210.0
 20
55.83270476361326
 10
209.81899040496032
 20
56.0
 10
209.0
 20
56.72021376057861
 10
208.66916273371953
 20
57.0
 10
208.0
 20
57.53694670274768
 10
207.38162468777142
 20
58.0
 10
207.0
 20
58.27816885792129
 10
206.0
 20
58.91149400802316
 10
205.8573837199239
 20
59.0
 10
205.0
 20
59.486655900140306
 10
204.0
 20
59.97309304897509
 10
203.94239472687653
 20
60.0
 10
203.0
 20
60.39868289861026
 10
202.0
 20
60.72197786389452
 10
201.03163032031574
 20
61.0
 10
201.0
 20
61.009727495121844
 10
200.0
 20
61.23427805557681
 10
199.0
 20
61.37449086176413
 10
198.0
 20
61.449959578330024
 10
197.0
 20
61.4675570078378
 10
196.0
 20
61.42873033156093
 10
195.00000000000003
 20
61.33137269116583
 10
194.0
 20
61.16616684993758
 10
193.33338110895903
 20
61.0
 10
193.0
 20
60.91496237272246
 10
192.0
 20
60.62555673738502
 10
191.0
 20
60.29026580654252
 10
190.33833342569892
 20
60.0
 10
190.0
 20
59.84410614181486
 10
189.0
 20
59.36948611622825
 10
188.35353073264918
 20
59.0
 10
188.0
 20
58.78660825569453
 10
187.0
 20
58.165389094489825
 10
186.77065728914093
 20
58.0
 10
186.0
 20
57.44018116829993
 10
185.44306225629794
 20
57.0
 10
185.0
 20
56.63382386158861
 10
184.26986914685966
 20
56.0
 10
184.0
 20
55.75353417350467
 10
183.20533276871691
 20
55.0
 10
183.0
 20
54.7971191546866
 10
182.22040461326787
 20
54.0
 10
182.0
 20
53.7685021375365
 10
181.28974998132486
 20
53.0
 10
181.0
 20
52.682061220765746
 10
180.39051023968614
 20
52.0
 10
180.0
 20
51.56118664995334
 10
179.50255556557087
 20
51.0
 10
179.0
 20
50.43585054120558
 10
178.60607945826058
 20
50.0
 10
178.0
 20
49.34095820214107
 10
177.67625634531453
 20
49.0
 10
177.0
 20
48.31287078808103
 10
176.6768396902773
 20
48.0
 10
176.0
 20
47.38083034173363
 10
175.5523265902679
 20
47.0
 10
175.0
 20
46.55899970480249
 10
174.20078382541087
 20
46.0
 10
174.0
 20
45.862366345920066
 10
173.0
 20
45.31822632542599
 10
172.30922614493966
 20
45.0
 10
172.0
 20
44.85800837922946
 10
171.0
 20
44.54463246260745
 10
170.0
 20
44.35451715430904
 10
169.0
 20
44.26546318484203
 10
168.0
 20
44.28036981205424
 10
167.0
 20
44.40129788416159
 10
166.0
 20
44.63639871055713
 10
165.09523867000627
 20
45.0
 10
165.0
 20
45.04316475288845
 10
164.0
 20
45.60177893211612
 10
163.47110078955274
 20
46.0
 10
163.0
 20
46.40779325127521
 10
162.43219225374492
 20
47.0
 10
162.0
 20
47.54881765728429
 10
161.68269844389874
 20
48.0
 10
161.1629761157886
 20
49.0
 10
161.0
 20
49.3746933922251
 10
160.74522343442598
 20
50.0
 10
160.47953025433895
 20
51.0
 10
160.30352312064755
 20
52.0
 10
160.191800073912
 20
53.0
 10
160.1369609107388
 20
54.0
 10
160.1324616496645
 20
55.0
 10
160.16778929862318
 20
56.0
 10
160.23011896855735
 20
57.0
 10
160.30740398468123
 20
58.0
 10
160.3902507030519
 20
59.0
 10
160.4721393106122
 20
60.0
 10
160.54866009677528
 20
61.0
 10
160.61660808065037
 20
62.0
 10
160.6734762190627
 20
63.0
 10
160.7174774263705
 20
64.0
 10
160.74791399324383
 20
65.0
 10
160.76558597683464
 20
66.0
 10
160.7729907122308
 20
67.0
 10
160.77423920499749
 20
68.0
 10
160.7747849621627
 20
69.0
 10
160.78114304308238
 20
70.0
 10
160.80077698689465
 20
71.0
 10
160.84233392075674
 20
72.0
 10
160.916517586283
 20
73.0
 10
161.0
 20
73.69678720780107
 10
161.03675513488577
 20
74.0
 10
161.1966204607715
 20
75.0
 10
161.39323328991577
 20
76.0
 10
161.6430969441409
 20
77.0
 10
161.99717119256331
 20
78.0
 10
162.0
 20
78.00613756591595
 10
162.43630596657607
 20
79.0
 10
162.97046925171614
 20
80.0
 10
163.0
 20
80.04430581755229
 10
163.6442895395202
 20
81.0
 10
164.0
 20
81.44040192208108
 10
164.4953345803434
 20
82.0
 10
165.0
 20
82.50366828968616
 10
165.5619748446125
 20
83.0
 10
166.0
 20
83.3542274232476
 10
166.94532820645293
 20
84.0
 10
167.0
 20
84.03697936041367
 10
168.0
 20
84.58878081069409
 10
168.86470332882192
 20
85.0
 10
169.0
 20
85.06613086432257
 10
170.0
 20
85.4493399049694
 10
171.0
 20
85.75216754986499
 10
171.88021227462892
 20
86.0
 10
172.0
 20
86.03546632474925
 10
173.0
 20
86.26530014903122
 10
174.0
 20
86.43484182301835
 10
175.0
 20
86.56745268450283
 10
176.0
 20
86.67526994525835
 10
177.0
 20
86.76414520415754
 10
178.0
 20
86.8366748754133
 10
179.0
 20
86.89399609161823
 10
180.0
 20
86.93676529596985
 10
181.0
 20
86.9656230361956
 10
182.0
 20
86.98136386859663
 10
183.0
 20
86.98495749967957
 10
184.0
 20
86.97750802677137
 10
185.0
 20
86.96019527946329
 10
186.0
 20
86.93421536436614
 10
187.0
 20
86.9007233450437
 10
188.0
 20
86.86077543520192
 10
189.0
 20
86.81526742530559
 10
190.0
 20
86.76486735474049
 10
191.0
 20
86.70994149529767
 10
192.0
 20
86.6504720999792
 10
193.0
 20
86.58596254971022
 10
194.0
 20
86.51532094899525
 10
195.0
 20
86.43670821540897
 10
196.0
 20
86.34733275320943
 10
197.0
 20
86.24316989600513
 10
198.0
 20
86.11857022066233
 10
198.7849500737724
 20
86.0
 10
199.0
 20
85.96654932664433
 10
200.00000000000003
 20
85.80504181395146
 10
201.0
 20
85.64178856112744
 10
202.0
 20
85.46861586570554
 10
203.0
 20
85.27032074691829
 10
204.0
 20
85.02210624313184
 10
204.07410075262257
 20
85.0
 10
205.0
 20
84.7399635223361
 10
206.0
 20
84.45859310056977
 10
207.0
 20
84.1307695251701
 10
207.32231690003692
 20
84.0
 10
208.00000000000003
 20
83.72946864853297
 10
209.0
 20
83.32569639897632
 10
209.66255616832748
 20
83.0
 10
210.0
 20
82.82521819718237
 10
211.0
 20
82.30304376782519
 10
211.48938927040192
 20
82.0
 10
212.0
 20
81.67225031655582
 10
212.9797393683609
 20
81.0
 10
213.00000000000003
 20
80.9846359105012
 10
214.0
 20
80.19885533170132
 10
214.22658756448277
 20
80.0
 10
215.0
 20
79.28639632817564
 10
215.28734198646282
 20
79.0
 10
216.0
 20
78.23415602801495
 10
216.20701036635592
 20
78.0
 10
217.0
 20
77.00345406586199
 10
217.00272370404738
 20
77.0
 10
217.6991763924758
 20
76.0
 10
218.0
 20
75.54410504967883
 10
218.34419005579178
 20
75.0
 10
218.89222477322247
 20
74.0
 10
219.0
 20
73.80532574075139
 10
219.41436598898724
 20
73.0
 10
219.86449413154298
 20
72.0
 10
220.0
 20
71.70981836079703
 10
220.31526185360133
 20
71.0
 10
220.69645903891012
 20
70.0
 10
221.0
 20
69.24450612571314
 10
221.10193309278654
 20
69.0
 10
221.4680697100399
 20
68.0
 10
221.82382403450686
 20
67.0
 10
222.0
 20
66.56237764935923
 10
222.2238058053416
 20
66.0
 10
222.59134793534764
 20
65.0
 10
223.0
 20
64.0139187721607
 10
223.0063049801056
 20
64.0
 10
223.44513233169616
 20
63.0
 10
223.90949350553916
 20
62.0
 10
224.00000000000003
 20
61.835660242167464
 10
224.4451217215576
 20
61.0
 10
225.0
 20
60.0494364205173
 10
225.0318022732798
 20
60.0
 10
225.68847662024615
 20
59.0
 10
226.0
 20
58.58828361151674
 10
226.46713096747484
 20
58.0
 10
227.0
 20
57.39265316990905
 10
227.37445628886707
 20
57.0
 10
228.0
 20
56.40250868997522
 10
228.46819063188653
 20
56.0
 10
229.0
 20
55.578975515209976
 10
229.8605644662923
 20
55.0
 10
229.99999999999997
 20
54.90764045094029
 10
231.0
 20
54.385806902201516
 10
231.90025102701696
 20
54.0
 10
232.0
 20
53.95559074089214
 10
233.0
 20
53.63735655473634
 10
234.0
 20
53.442934499713225
 10
235.0
 20
53.34150963310648
 10
236.0
 20
53.331507508132844
 10
237.0
 20
53.416788582295965
 10
238.0
 20
53.6054156241393
 10
239.0
 20
53.93771581439122
 10
239.12687946306704
 20
53.99999999999999
 10
240.0
 20
54.427111179812115
 10
240.87392452468936
 20
55.0
 10
241.0
 20
55.097052616897905
 10
241.97033357758536
 20
56.0
 10
242.0
 20
56.033239441209915
 10
242.72314930975813
 20
57.0
 10
243.0
 20
57.46609306121448
 10
243.29178922993336
 20
58.0
 10
243.65636506435453
 20
59.0
 10
243.90916747987276
 20
60.0
 10
244.0
 20
60.574009228996104
 10
244.06901332511552
 20
61.00000000000001
 10
244.11733790903853
 20
62.0
 10
244.06507740207113
 20
63.0
 10
244.0
 20
63.43626452845029
 10
243.91813116529062
 20
64.0
 10
243.70858539017132
 20
65.0
 10
243.448430526656
 20
66.0
 10
243.11075887742493
 20
67.0
 10
243.0
 20
67.25818964086041
 10
242.69184755427426
 20
68.0
 10
242.26907682525558
 20
69.0
 10
242.0
 20
69.53781550928402
 10
241.7653303325041
 20
70.0
 10
241.2831151554421
 20
71.0
 10
241.0
 20
71.52743250873337
 10
240.74514176908633
 20
72.0
 10
240.25032011149884
 20
73.0
 10
240.0
 20
73.46916333018964
 10
239.7203428065761
 20
74.0
 10
239.2511467764328
 20
75.0
 10
239.0
 20
75.50707765343638
 10
238.75834499952538
 20
76.0
 10
238.33629150744827
 20
77.0
 10
238.0
 20
77.7779036248605
 10
237.90036040730553
 20
78.0
 10
237.5181969062158
 20
79.0
 10
237.1665730210465
 20
80.0
 10
237.0
 20
80.44751410322698
 10
236.79782526400936
 20
81.0
 10
236.48807835118788
 20
82.0
 10
236.1898668006086
 20
83.0
 10
236.0
 20
83.58073069605103
 10
235.86164957859862
 20
84.0
 10
235.568478309341
 20
85.0
 10
235.28157766059766
 20
86.0
 10
235.0
 20
86.84265002902012
 10
234.94427414534576
 20
87.0
 10
234.60510895841668
 20
88.0
 10
234.25639244670913
 20
89.0
 10
234.0
 20
89.59874398699046
 10
233.8227894594544
 20
90.0
 10
233.37972783457346
 20
91.0
 10
233.0
 20
91.70889854254328
 10
232.83340413667213
 20
92.0
 10
232.23773507594836
 20
93.0
 10
232.0
 20
93.33225850582002
 10
231.50143145119875
 20
94.0
 10
231.0
 20
94.5943224709311
 10
230.62527785536423
 20
95.0
 10
230.0
 20
95.61024203539306
 10
229.5539191732721
 20
96.0
 10
229.0
 20
96.44312949799733
 10
228.1875649987105
 20
97.00000000000001
 10
228.00000000000003
 20
97.12568509459255
 10
227.0
 20
97.6615636988445
 10
226.28306733658633
 20
98.0
 10
226.0
 20
98.13431653389607
 10
225.0
 20
98.49331771776295
 10
224.0
 20
98.77539548438077
 10
223.11318089178772
 20
99.0
 10
223.0
 20
99.03026856348639
 10
222.0
 20
99.23106996521263
 10
221.0
 20
99.3735045500683
 10
220.0
 20
99.48020014822859
 10
219.0
 20
99.56584469508167
 10
218.0
 20
99.64181517055775
 10
217.0
 20
99.71870048755895
 10
216.0
 20
99.80786670218936
 10
215.0
 20
99.92305786737309
 10
214.50316994269227
 20
100.0
 10
214.0
 20
100.07783345330547
 10
213.0
 20
100.2583450156992
 10
212.0
 20
100.47049967514808
 10
211.0
 20
100.7432404079775
 10
210.33121527618619
 20
101.0
 10
210.0
 20
101.13465446976089
 10
209.0
 20
101.58642243890382
 10
208.2984431329939
 20
102.0
 10
208.0
 20
102.19485020111574
 10
207.0
 20
102.94737654350315
 10
206.94187509555167
 20
103.0
 10
206.0
 20
103.97326141584591
 10
205.97689107750733
 20
104.0
 10
205.27619648017804
 20
105.0
 10
205.0
 20
105.48413846548112
 10
204.7267109076248
 20
106.0
 10
204.37099210299573
 20
107.0
 10
204.12901875485133
 20
108.0
 10
204.0
 20
108.90441760993687
 10
203.98566296803816
 20
109.0
 10
203.9593784587426
 20
110.0
 10
204.0
 20
110.42734807632604
 10
204.05303492099392
 20
111.00000000000001
 10
204.24694346528773
 20
112.0
 10
204.5283330862902
 20
113.0
 10
204.94167580226025
 20
114.0
 10
205.0
 20
114.10446003203795
 10
205.4977845625047
 20
115.0
 10
206.0
 20
115.73121545364862
 10
206.20610325722885
 20
116.0
 10
207.0
 20
116.91491090519254
 10
207.0832641840339
 20
117.0
 10
208.0
 20
117.83595193711817
 10
208.19953814515222
 20
118.0
 10
209.0
 20
118.59348826381428
 10
209.6217418629901
 20
119.0
 10
210.0
 20
119.23862470424017
 10
210.99999999999997
 20
119.74515360721593
 10
211.5385909842383
 20
120.0
 10
212.0
 20
120.21377122922297
 10
213.0
 20
120.56866946677725
 10
214.0
 20
120.8699313725712
 10
214.47020867428847
 20
121.0
 10
215.0
 20
121.1452646920188
 10
216.0
 20
121.34175625251008
 10
217.0
 20
121.47779679948735
 10
218.0
 20
121.56763437374113
 10
219.0
 20
121.61626223391814
 10
220.0
 20
121.62525407727367
 10
221.0
 20
121.59597595195733
 10
222.0
 20
121.53023449997656
 10
223.0
 20
121.42880206126583
 10
224.0
 20
121.2886119147138
 10
225.0
 20
121.09947620613588
 10
225.4077651044296
 20
121.0
 10
226.0
 20
120.85730538187164
 10
227.0
 20
120.61047953672039
 10
228.0
 20
120.34636065767373
 10
229.0
 20
120.02444603282687
 10
229.0642874454048
 20
120.0
 10
230.0
 20
119.6670935357902
 10
231.0
 20
119.31521986294838
 10
231.75507190110915
 20
119.0
 10
232.0
 20
118.89200241262209
 10
233.0
 20
118.46997138780844
 10
234.0
 20
118.005395997824
 10
234.01016114961934
 20
118.0
 10
235.0
 20
117.50836510651621
 10
235.96316411933043
 20
117.0
 10
236.0
 20
116.97874125319909
 10
237.0
 20
116.42034845581614
 10
237.69258663713117
 20
116.0
 10
238.0
 20
115.8043542826156
 10
239.0
 20
115.18069429265336
 10
239.2582412238733
 20
115.0
 10
240.0
 20
114.48412882490224
 10
240.65965192603082
 20
114.0
 10
241.0
 20
113.73926481782755
 10
241.9472650155732
 20
113.0
 10
242.0
 20
112.9560887178509
 10
243.0
 20
112.11615145370772
 10
243.1292030433844
 20
112.0
 10
244.0
 20
111.20175709561025
 10
244.20952450706403
 20
111.0
 10
245.0
 20
110.21180710724926
 10
245.20486704815403
 20
110.0
 10
246.0
 20
109.13708334776857
 10
246.12362047212295
 20
109.0
 10
246.96614101884046
 20
108.0
 10
247.0
 20
107.95939622899816
 10
247.7477333799243
 20
107.0
 10
248.0
 20
106.66973359102845
 10
248.48839676227172
 20
106.0
 10
249.0
 20
105.25665278173284
 10
249.17745243688256
 20
105.0
 10
249.78857737831282
 20
104.0
 10
250.0
 20
103.65865459942182
 10
250.38970149373569
 20
103.0
 10
250.91979034270784
 20
102.0
 10
251.0
 20
101.85319552121679
 10
251.43182480588408
 20
101.0
 10
251.8812815137906
 20
100.0
 10
252.00000000000003
 20
99.7444831529127
 10
252.32672340148292
 20
99.0
 10
252.6948105566669
 20
98.0
 10
253.0
 20
97.17817343394525
 10
253.06918937702736
 20
97.0
 10
253.39181132783898
 20
96.0
 10
253.66160428134262
 20
95.0
 10
253.92158485485962
 20
94.0
 10
254.0
 20
93.69186704198431
 10
254.17060542694963
 20
93.0
 10
254.36234485319554
 20
92.0
 10
254.51422009056353
 20
91.0
 10
254.63818323661914
 20
90.0
 10
254.73888363837673
 20
89.0
 10
254.81637863503022
 20
88.0
 10
254.86864572050789
 20
87.0
 10
254.89364753447003
 20
86.0
 10
254.89070756108023
 20
85.0
 10
254.861077818735
 20
84.00000000000001
 10
254.80773522443644
 20
83.00000000000001
 10
254.7345794188107
 20
82.0
 10
254.64531029408334
 20
81.0
 10
254.54232657971613
 20
80.0
 10
254.4259830946265
 20
79.0
 10
254.29447294733293
 20
78.0
 10
254.14449220896392
 20
77.0
 10
254.0
 20
76.1514728857229
 10
253.97309089142817
 20
76.0
 10
253.8069477231336
 20
75.0
 10
253.66183845227056
 20
74.0
 10
253.5356792898739
 20
73.0
 10
253.42776665177445
 20
72.0
 10
253.34035073280882
 20
71.0
 10
253.279073652921
 20
70.0
 10
253.25196213680607
 20
69.0
 10
253.2672860547534
 20
68.0
 10
253.33165720961182
 20
67.0
 10
253.4510437463009
 20
66.0
 10
253.63820414086678
 20
65.0
 10
253.9301667514431
 20
64.0
 10
254.0
 20
63.83182973939332
 10
254.33651399798032
 20
63.0
 10
254.83633736996399
 20
62.0
 10
255.0
 20
61.75490706319672
  0
LWPOLYLINE
  5
36
330
17
100
AcDbEntity
  8
0
100
AcDbPolyline
 90
1796
 70
0
 10
0.0
 20
60.466589012830546
 10
0.47244869693412306
 20
60.0
 10
1.0
 20
59.55077573481164
 10
1.8164720544737407
 20
59.0
 10
2.0
 20
58.8824203687891
 10
3.0
 20
58.42338634866102
 10
4.0
 20
58.11006772917163
 10
4.530911481060194
 20
58.0
 10
5.000000000000001
 20
57.90149447641761
 10
6.0
 20
57.830304344315955
 10
7.0
 20
57.887749900921975
 10
7.574969633020663
 20
58.0
 10
8.0
 20
58.08273024062219
 10
9.0
 20
58.38439604100774
 10
10.0
 20
58.81901290316757
 10
10.292527634615109
 20
59.0
 10
11.0
 20
59.464327938824276
 10
11.65200559704706
 20
60.0
 10
12.0
 20
60.330441541546364
 10
12.604793063038978
 20
61.0
 10
13.0
 20
61.52020486219533
 10
13.33259234331889
 20
62.0
 10
13.86800229420945
 20
63.0
 10
14.0
 20
63.27539654875179
 10
14.322381926026457
 20
64.0
 10
14.644203362072737
 20
65.0
 10
14.915679570000117
 20
66.0
 10
15.0
 20
66.34538545178759
 10
15.156643009060236
 20
67.0
 10
15.333863157222684
 20
68.0
 10
15.474142866041785
 20
69.0
 10
15.599805437490682
 20
70.0
 10
15.729095433152974
 20
71.0
 10
15.880818492218122
 20
72.0
 10
16.0
 20
72.61948466672162
 10
16.074553578155324
 20
72.99999999999999
 10
16.2886024303999
 20
74.0
 10
16.530296759145543
 20
75.0
 10
16.842096692970998
 20
76.0
 10
17.0
 20
76.37345316495606
 10
17.26773781888842
 20
77.0
 10
17.74839489158
 20
78.0
 10
18.0
 20
78.40176738220222
 10
18.397274356049852
 20
79.0
 10
19.0
 20
79.771099243187
 10
19.203194423881193
 20
80.0
 10
20.0
 20
80.78295135556976
 10
20.254134583948378
 20
81.0
 10
21.0
 20
81.56174572415284
 10
21.701687900645673
 20
82.0
 10
22.0
 20
82.17888603958444
 10
23.0
 20
82.62579284499273
 10
24.0
 20
82.98797576120295
 10
24.039557742316383
 20
83.0
 10
25.0
 20
83.26799143657036
 10
26.0
 20
83.44306115226792
 10
27.0
 20
83.54899861067264
 10
28.0
 20
83.60070410225345
 10
29.0
 20
83.60619960723717
 10
30.0
 20
83.57271241682875
 10
31.0
 20
83.50764890620457
 10
32.0
 20
83.41743235778324
 10
33.0
 20
83.30648152864379
 10
34.0
 20
83.17744349026049
 10
35.0
 20
83.03274249737034
 10
35.21933843665317
 20
83.0
 10
36.0
 20
82.88604307975926
 10
37.0
 20
82.76320745843489
 10
38.0
 20
82.6659656153632
 10
39.0
 20
82.59529683964999
 10
40.0
 20
82.55324752677987
 10
41.0
 20
82.5429098646544
 10
42.0
 20
82.56810061101177
 10
43.0
 20
82.63366110919341
 10
44.0
 20
82.74739715601675
 10
45.0
 20
82.92453081692152
 10
45.301019356269684
 20
83.0
 10
46.0
 20
83.17015906804416
 10
47.0
 20
83.44418593570566
 10
48.0
 20
83.77856844555387
 10
48.49860118813385
 20
84.0
 10
49.0
 20
84.22814287051595
 10
50.0
 20
84.71442202523515
 10
50.47063315316317
 20
85.0
 10
51.0
 20
85.33480874815329
 10
51.949089622861976
 20
86.0
 10
52.0
 20
86.03969648599066
 10
53.0
 20
86.86815347914424
 10
53.14185349257199
 20
87.0
 10
54.0
 20
87.85491231942159
 10
54.13588411654655
 20
88.0
 10
54.98266047156406
 20
89.0
 10
55.0
 20
89.0213906857698
 10
55.72424924675262
 20
90.0
 10
56.0
 20
90.391735839675
 10
56.40828126354184
 20
91.0
 10
57.0
 20
91.9764268680962
 10
57.01492244476503
 20
92.0
 10
57.57262269073464
 20
93.0
 10
58.0
 20
93.79590103132017
 10
58.113594204490724
 20
94.0
 10
58.6012597052609
 20
95.0
 10
59.0
 20
95.80887159047948
 10
59.098769507508955
 20
96.0
 10
59.55774769901909
 20
97.0
 10
60.00000000000001
 20
97.9485704563098
 10
60.02584685742529
 20
98.0
 10
60.482082398122
 20
99.0
 10
60.9288049438542
 20
100.0
 10
61.0
 20
100.1447792351881
 10
61.39644417120772
 20
101.0
 10
61.83290107537407
 20
102.0
 10
62.0
 20
102.34471846474725
 10
62.309861591763195
 20
103.0
 10
62.742997292376494
 20
104.0
 10
62.99999999999999
 20
104.53903330489945
 10
63.22160004944105
 20
105.0
 10
63.65397845356669
 20
106.0
 10
64.0
 20
106.74622896500681
 10
64.12283709465338
 20
107.0
 10
64.5552783565931
 20
108.0
 10
64.99726029583968
 20
109.0
 10
65.0
 20
109.0057676533702
 10
65.4333405816561
 20
110.0
 10
65.8379868364946
 20
111.0
 10
66.0
 20
111.36800467307876
 10
66.27135470101148
 20
112.00000000000001
 10
66.64664179415503
 20
113.0
 10
67.0
 20
113.89763633832393
 10
67.04307923496677
 20
114.00000000000001
 10
67.4132693018903
 20
115.0
 10
67.7466700224187
 20
116.0
 10
68.0
 20
116.7101934761967
 10
68.10701632307638
 20
117.0
 10
68.42485078237976
 20
118.0
 10
68.71215479027117
 20
119.0
 10
69.0
 20
119.94485486701
 10
69.01805366246013
 20
120.0
 10
69.30565932595466
 20
121.0
 10
69.55079808399421
 20
122.0
 10
69.78835163565203
 20
123.0
 10
70.0
 20
123.83583755787954
 10
70.0437495308858
 20
124.0
 10
70.27673326762884
 20
125.0
 10
70.47561051556028
 20
125.99999999999999
 10
70.66060452856182
 20
127.0
 10
70.84705876266766
 20
128.0
 10
71.0
 20
128.78286340923734
 10
71.04407236660859
 20
129.0
 10
71.22122724894399
 20
130.0
 10
71.37068830146188
 20
131.0
 10
71.50142966867841
 20
132.0
 10
71.61969596254924
 20
133.0
 10
71.72888389488533
 20
134.0
 10
71.82955112494093
 20
135.0
 10
71.91965451586172
 20
136.0
 10
71.99507551810801
 20
137.0
 10
72.0
 20
137.09050971703866
 10
72.04921267513262
 20
138.0
 10
72.07662215004355
 20
139.0
 10
72.07605362106548
 20
140.0
 10
72.04467292265747
 20
141.0
 10
72.0
 20
141.6698459220623
 10
71.97809735447825
 20
142.0
 10
71.87933016100935
 20
143.0
 10
71.75204114932527
 20
144.0
 10
71.59633735831558
 20
145.0
 10
71.40391080456727
 20
146.0
 10
71.1499969104909
 20
147.0
 10
71.0
 20
147.4412614803859
 10
70.81027714870689
 20
148.0
 10
70.44870264761987
 20
149.0
 10
70.0
 20
149.98125745943705
 10
69.9904247498036
 20
150.0
 10
69.45072975662835
 20
151.0
 10
69.0
 20
151.6964915239489
 10
68.78591787221096
 20
152.0
 10
68.0025862627233
 20
153.00000000000003
 10
68.0
 20
153.00286561654417
 10
67.01438157627459
 20
154.00000000000003
 10
67.0
 20
154.01318982985563
 10
66.0
 20
154.80086458011093
 10
65.71241907841483
 20
155.0
 10
65.0
 20
155.44620052677897
 10
64.0
 20
155.93171572284206
 10
63.838936316923004
 20
156.0
 10
63.0
 20
156.32580363786406
 10
62.0
 20
156.57746076368372
 10
61.0
 20
156.73835208372407
 10
60.0
 20
156.81674464671076
 10
59.0
 20
156.80858845239723
 10
58.0
 20
156.71605935570813
 10
57.0
 20
156.54582040593763
 10
56.0
 20
156.28961007750382
 10
55.24009430872853
 20
156.0
 10
55.0
 20
155.90216142922245
 10
54.0
 20
155.451359996456
 10
53.20032457727669
 20
155.0
 10
53.0
 20
154.876189573045
 10
52.0
 20
154.22427024379706
 10
51.70670854085694
 20
154.0
 10
51.0
 20
153.44289555968027
 10
50.48405058573456
 20
153.0
 10
50.0
 20
152.56468617570056
 10
49.40170090504007
 20
152.0
 10
49.0
 20
151.60701021490337
 10
48.39569276129501
 20
151.0
 10
48.0
 20
150.5960073095684
 10
47.420108118668274
 20
150.0
 10
47.0
 20
149.5702068201314
 10
46.434349631255664
 20
149.0
 10
46.0
 20
148.57262950753022
 10
45.39440201096593
 20
148.0
 10
45.0
 20
147.6410117659314
 10
44.24009068493377
 20
147.0
 10
44.0
 20
146.8040605834483
 10
42.99999999999999
 20
146.09605481913866
 10
42.85649938744521
 20
146.0
 10
42.0
 20
145.48378557500672
 10
41.02636542930977
 20
145.0
 10
41.0
 20
144.98640638632978
 10
40.0
 20
144.59632921950697
 10
39.0
 20
144.33680946226542
 10
38.0
 20
144.16602694653412
 10
37.0
 20
144.09036823606095
 10
36.0
 20
144.12443597211055
 10
35.0
 20
144.26840814025257
 10
34.0
 20
144.52069750118673
 10
33.0
 20
144.93110846762332
 10
32.88311798483215
 20
145.0
 10
32.0
 20
145.5397698051838
 10
31.43016166543217
 20
146.0
 10
31.0
 20
146.41100337831023
 10
30.487378313577167
 20
147.0
 10
30.0
 20
147.7206913731411
 10
29.8253379091566
 20
148.0
 10
29.397350045215667
 20
149.0
 10
29.113756527528384
 20
150.0
 10
29.0
 20
150.6605511684318
 10
28.94016162416925
 20
151.0
 10
28.898257821979627
 20
152.0
 10
28.98230978547638
 20
153.0
 10
29.0
 20
153.08494326433055
 10
29.18031483572747
 20
154.0
 10
29.4625795469439
 20
155.0
 10
29.858995808081968
 20
156.0
 10
30.0
 20
156.25935930686055
 10
30.408329854500003
 20
157.0
 10
31.0
 20
157.90126106102656
 10
31.0731152687501
 20
158.0
 10
31.876995720263352
 20
159.0
 10
32.0
 20
159.13383599717486
 10
32.8591320413511
 20
160.0
 10
33.0
 20
160.13173584446577
 10
34.0
 20
160.97178397818115
 10
34.03522531145289
 20
161.0
 10
35.0
 20
161.70452400500938
 10
35.42778722215376
 20
162.0
 10
36.0
 20
162.37812687576394
 10
37.0
 20
162.96431024837776
 10
37.06018326281896
 20
163.0
 10
38.0
 20
163.51000597690756
 10
38.97136459700846
 20
164.0
 10
39.0
 20
164.01537457782698
 10
40.0
 20
164.4847105035111
 10
41.0
 20
164.9221756418718
 10
41.16684057662758
 20
165.0
 10
42.0
 20
165.36486299081437
 10
43.0
 20
165.75992724813307
 10
43.55333384661837
 20
166.0
 10
44.0
 20
166.19526401162892
 10
45.0
 20
166.5886971852422
 10
45.96587981799314
 20
167.0
 10
46.0
 20
167.01577004259758
 10
47.0
 20
167.44981536277393
 10
48.0
 20
167.89093070719358
 10
48.21379857260544
 20
168.0
 10
49.0
 20
168.38622522135165
 10
49.99999999999999
 20
168.88482470674214
 10
50.19873074634283
 20
169.0
 10
51.0
 20
169.4513143724102
 10
51.91222841723952
 20
170.0
 10
52.0
 20
170.05733267010186
 10
53.0
 20
170.7073149866415
 10
53.40033072633951
 20
171.0
 10
54.0
 20
171.44947238175536
 10
54.68706163233062
 20
172.0
 10
55.0
 20
172.2655534809898
 10
55.82173635588126
 20
173.0
 10
56.0
 20
173.16956368879622
 10
56.82516146290784
 20
174.0
 10
57.0
 20
174.18589433833637
 10
57.71859098128624
 20
175.0
 10
58.0
 20
175.33588373512902
 10
58.52579529518211
 20
176.0
 10
59.0
 20
176.64331728839096
 10
59.25766021546952
 20
177.0
 10
59.892529321237326
 20
178.0
 10
60.0
 20
178.16902997941585
 10
60.49051741979123
 20
179.0
 10
61.0
 20
179.94931138622098
 10
61.0286343382036
 20
180.0
 10
61.51277824424962
 20
181.0
 10
61.95255722733966
 20
182.0
 10
62.0
 20
182.10569518080976
 10
62.371398388162504
 20
183.0
 10
62.720082108072
 20
184.0
 10
63.0
 20
184.79001758536376
 10
63.07784977048862
 20
185.0
 10
63.38774535431192
 20
186.0
 10
63.65102257377028
 20
187.0
 10
63.91053335653976
 20
188.0
 10
64.0
 20
188.3373473299686
 10
64.17198601879477
 20
189.0
 10
64.3857992583798
 20
190.0
 10
64.57150551945386
 20
191.0
 10
64.74789083644313
 20
192.0
 10
64.92781246940342
 20
193.0
 10
65.0
 20
193.39261533778702
 10
65.11086464710526
 20
194.0
 10
65.26813719607247
 20
195.0
 10
65.40592830324297
 20
196.0
 10
65.53325943786642
 20
197.0
 10
65.65783735358903
 20
198.0
 10
65.78634252572027
 20
199.0
 10
65.92463791884259
 20
200.0
 10
66.0
 20
200.50519474656795
 10
66.07416536166998
 20
201.0
 10
66.21408306348728
 20
202.0
 10
66.34445246647013
 20
203.0
 10
66.47061748935783
 20
204.0
 10
66.59861365602566
 20
205.0
 10
66.73514776693091
 20
206.0
 10
66.88747862851585
 20
207.0
 10
67.0
 20
207.65412966013682
 10
67.06075151384914
 20
208.0
 10
67.22814669419083
 20
209.0
 10
67.38511930381955
 20
210.0
 10
67.53940217629074
 20
211.0
 10
67.70043947091628
 20
212.0
 10
67.87881893825481
 20
213.0
 10
68.0
 20
213.60317520087614
 10
68.08111348074792
 20
214.0
 10
68.27139554112946
 20
215.0
 10
68.44774513467846
 20
216.0
 10
68.62217361913773
 20
217.0
 10
68.80788132819458
 20
218.0
 10
69.0
 20
218.91825222241158
 10
69.01815289753787
 20
219.0
 10
69.22608253083672
 20
220.0
 10
69.41320849091827
 20
221.0
 10
69.59353420653503
 20
222.0
 10
69.7819277334324
 20
223.0
 10
69.99334276980511
 20
224.0
 10
70.0
 20
224.0292420041393
 10
70.20884887123543
 20
225.0
 10
70.4023476534266
 20
226.0
 10
70.58969682224674
 20
227.0
 10
70.78865688905593
 20
228.0
 10
71.0
 20
228.92330441448962
 10
71.01871780315683
 20
228.99999999999997
 10
71.25216590675107
 20
230.0
 10
71.47025984376275
 20
231.0
 10
71.69716809308149
 20
232.0
 10
71.96428041038993
 20
233.0
 10
72.0
 20
233.1150152791307
 10
72.26047215623312
 20
234.0
 10
72.5440628270068
 20
235.0
 10
72.86333060171117
 20
236.0
 10
73.0
 20
236.35306543307922
 10
73.24724402637929
 20
237.0
 10
73.62338039202112
 20
238.0
 10
74.0
 20
238.84066488371647
 10
74.07718963262789
 20
239.0
 10
74.55751181390943
 20
240.0
 10
75.0
 20
240.80378101807258
 10
75.11682214753645
 20
241.0
 10
75.71809137549457
 20
242.0
 10
76.0
 20
242.4033482168201
 10
76.43187636938022
 20
243.00000000000003
 10
77.0
 20
243.72023667465595
 10
77.23817583345297
 20
244.0
 10
78.0
 20
244.8320026279049
 10
78.16699538000405
 20
245.0
 10
79.0
 20
245.77102092243678
 10
79.26816292321047
 20
246.00000000000003
 10
80.0
 20
246.57388557784122
 10
80.6050025422634
 20
247.0
 10
81.0
 20
247.2667365101627
 10
82.0
 20
247.82059555635058
 10
82.34332706804875
 20
248.0
 10
83.0
 20
248.3221815150594
 10
84.0
 20
248.69786953172388
 10
84.90013551208222
 20
249.0
 10
85.0
 20
249.0352343302851
 10
86.0
 20
249.2974890833189
 10
87.0
 20
249.4736862713263
 10
88.0
 20
249.5900907877993
 10
89.0
 20
249.65553357046042
 10
90.0
 20
249.67243919741696
 10
91.0
 20
249.64308520213484
 10
92.0
 20
249.57119692460347
 10
93.0
 20
249.4599001123051
 10
94.0
 20
249.30786457352514
 10
95.0
 20
249.10552023443
 10
95.41064082472116
 20
249.0
 10
96.0
 20
248.84996461490118
 10
97.0
 20
248.59671260100285
 10
98.0
 20
248.33474660910173
 10
99.0
 20
248.03008970247322
 10
99.0875880337659
 20
248.0
 10
100.0
 20
247.7061992587097
 10
101.0
 20
247.4139961515707
 10
102.0
 20
247.10880081329833
 10
102.32668289954724
 20
247.0
 10
103.0
 20
246.78191161253534
 10
104.0
 20
246.50501759363482
 10
105.0
 20
246.24595304642267
 10
105.90938622506276
 20
245.99999999999997
 10
106.0
 20
245.97388404600068
 10
107.0
 20
245.72823078188515
 10
108.0
 20
245.52948548456283
 10
109.0
 20
245.35682267124116
 10
110.0
 20
245.19769510776894
 10
111.0
 20
245.04643465459046
 10
111.33276319396693
 20
245.0
 10
111.99999999999999
 20
244.90776661939617
 10
113.0
 20
244.79821378441548
 10
114.0
 20
244.71098833960173
 10
115.0
 20
244.63889361615267
 10
115.99999999999999
 20
244.5755404240732
 10
117.0
 20
244.51470090979774
 10
118.0
 20
244.44978240945832
 10
119.0
 20
244.37323455391575
 10
120.0
 20
244.27557155065844
 10
121.0
 20
244.14347037280214
 10
121.77796882217264
 20
244.0
 10
122.0
 20
243.95768044814687
 10
123.0
 20
243.7367260328457
 10
124.0
 20
243.4820132858537
 10
125.0
 20
243.14758155212996
 10
125.3227723684119
 20
243.0
 10
126.0
 20
242.68709587837787
 10
127.0
 20
242.14418701525778
 10
127.20487845842422
 20
242.0
 10
128.0
 20
241.40106281907438
 10
128.43836200677856
 20
241.0
 10
129.0
 20
240.3945869351073
 10
129.3199597462086
 20
240.0
 10
129.9308709321271
 20
239.0
 10
130.0
 20
238.85992163290518
 10
130.37488334734456
 20
238.0
 10
130.6266332061132
 20
237.0
 10
130.74748956626814
 20
236.00000000000003
 10
130.74208468404396
 20
234.99999999999997
 10
130.6110948052424
 20
234.0
 10
130.34886861556163
 20
233.0
 10
130.0
 20
232.21758868713687
 10
129.8915405978667
 20
232.00000000000003
 10
129.2764414061217
 20
231.0
 10
129.0
 20
230.65978278375573
 10
128.39009440946379
 20
230.0
 10
128.0
 20
229.64071744137243
 10
127.15550120105199
 20
229.0
 10
127.0
 20
228.8891902575835
 10
126.0
 20
228.33443779658532
 10
125.28722134863145
 20
228.0
 10
125.0
 20
227.86588600198536
 10
124.0
 20
227.52032323558126
 10
123.0
 20
227.25326830726988
 10
122.0
 20
227.01239431341546
 10
121.94302450054496
 20
227.0
 10
121.0
 20
226.80662432297328
 10
120.0
 20
226.64948608363278
 10
119.0
 20
226.5159470150477
 10
118.0
 20
226.38724272274203
 10
117.0
 20
226.2462160543651
 10
115.99999999999999
 20
226.073342831699
 10
115.66302454401568
 20
226.0
 10
115.0
 20
225.85907906125715
 10
114.0
 20
225.63173592931378
 10
112.99999999999999
 20
225.36939835937068
 10
112.0
 20
225.01640562843025
 10
111.9636925775416
 20
225.0
 10
111.0
 20
224.58628774199474
 10
110.0
 20
224.0762216668499
 10
109.88173825001415
 20
224.00000000000003
 10
109.0
 20
223.42285796098082
 10
108.46371730950243
 20
223.0
 10
108.0
 20
222.59346708905957
 10
107.41071060059002
 20
222.0
 10
107.0
 20
221.52037024735253
 10
106.59970637969042
 20
221.0
 10
106.0
 20
220.01846346387921
 10
105.98871908264783
 20
220.0
 10
105.52471662791123
 20
219.0
 10
105.20375048282115
 20
218.0
 10
105.0
 20
217.15934535214646
 10
104.9594466392377
 20
216.99999999999997
 10
104.81905021522377
 20
216.0
 10
104.78208429626407
 20
215.0
 10
104.8375606327572
 20
214.0
 10
104.99272395781325
 20
213.0
 10
105.0
 20
212.9714507500492
 10
105.23071991169299
 20
212.0
 10
105.52576707992097
 20
211.0
 10
105.92216369245826
 20
210.0
 10
106.0
 20
209.84889652686047
 10
106.42577743456522
 20
209.0
 10
107.0
 20
208.01324555001636
 10
107.00862839849292
 20
208.0
 10
107.68524290577938
 20
206.99999999999997
 10
108.0
 20
206.59319333767417
 10
108.47749768753083
 20
206.0
 10
109.0
 20
205.3972601880418
 10
109.36289842831805
 20
205.0
 10
110.0
 20
204.33697669668769
 10
110.3385849931626
 20
204.0
 10
111.0
 20
203.36760750495765
 10
111.39735790053359
 20
203.0
 10
112.0
 20
202.45894145338715
 10
112.52458751108252
 20
202.0
 10
113.0
 20
201.59032295927568
 10
113.70318049887825
 20
201.0
 10
114.0
 20
200.7496792788196
 10
114.91816158519217
 20
200.0
 10
115.0
 20
199.93139281317818
 10
116.0
 20
199.125222177787
 10
116.14983154988039
 20
199.0
 10
117.0
 20
198.30465307300562
 10
117.36373778249768
 20
198.0
 10
118.0
 20
197.46873495568903
 10
118.5546116313997
 20
197.0
 10
119.0
 20
196.61916705844615
 10
119.72262791427718
 20
196.0
 10
120.0
 20
195.75720991719874
 10
120.8701639084905
 20
195.0
 10
121.0
 20
194.8840161691535
 10
122.0
 20
194.00181909242772
 10
122.00200506868379
 20
194.0
 10
123.0
 20
193.10985805043802
 10
123.1207152961086
 20
193.0
 10
124.0
 20
192.21256487421977
 10
124.2350485312388
 20
192.0
 10
125.0
 20
191.3200817116592
 10
125.36068020650498
 20
191.0
 10
126.0
 20
190.44292977415972
 10
126.51685930652737
 20
190.0
 10
127.0
 20
189.59225243054976
 10
127.73037608472382
 20
189.0
 10
128.0
 20
188.7819102129539
 10
129.0
 20
188.0346365320067
 10
129.0460553841725
 20
188.0
 10
130.0
 20
187.33559690027693
 10
130.5006461772979
 20
187.0
 10
131.0
 20
186.67419246013026
 10
132.0
 20
186.1062645061566
 10
132.1872626055139
 20
186.0
 10
133.0
 20
185.57216406446503
 10
134.0
 20
185.12840076958327
 10
134.29547741957816
 20
185.0
 10
135.0
 20
184.7091763705341
 10
136.0
 20
184.39358008055797
 10
137.0
 20
184.1234661962618
 10
137.51636727611668
 20
184.0
 10
138.0
 20
183.8836413857386
 10
139.0
 20
183.72079416023738
 10
140.0
 20
183.62485439641205
 10
141.0
 20
183.5862194790654
 10
142.0
 20
183.60268870405076
 10
143.0
 20
183.67653783938172
 10
144.0
 20
183.81645579514225
 10
144.8172846292877
 20
184.0
 10
145.0
 20
184.04260761780162
 10
146.0
 20
184.32111771224513
 10
147.0
 20
184.64865609999129
 10
147.7930801094799
 20
185.0
 10
148.0
 20
185.09921798490967
 10
149.0
 20
185.6135240158203
 10
149.60521819028776
 20
186.0
 10
150.0
 20
186.27141352449306
 10
150.94307377317426
 20
187.0
 10
151.0
 20
187.04955763761407
 10
151.9784169180034
 20
188.0
 10
152.0
 20
188.0235418111314
 10
152.78766522639918
 20
189.0
 10
153.0
 20
189.29969638390486
 10
153.44887059562618
 20
190.0
 10
153.94835401581625
 20
191.0
 10
154.0
 20
191.1188112659732
 10
154.3475419700508
 20
192.0
 10
154.59913814754972
 20
193.0
 10
154.75276384255108
 20
194.0
 10
154.81094388987714
 20
195.0
 10
154.76631512174131
 20
196.0
 10
154.618956199655
 20
197.0
 10
154.36065459446584
 20
198.0
 10
154.0
 20
198.8492629024733
 10
153.92853059774865
 20
199.0
 10
153.35537870198826
 20
200.0
 10
153.0
 20
200.46611615542514
 10
152.5395132156964
 20
201.0
 10
152.0
 20
201.5254600576342
 10
151.4190807100184
 20
202.0
 10
151.0
 20
202.3087309860242
 10
150.0
 20
202.8777901929117
 10
149.75711369124002
 20
203.0
 10
149.0
 20
203.34882825155694
 10
148.0
 20
203.67988314368006
 10
147.0
 20
203.96122159462485
 10
146.84407557998014
 20
204.0
 10
146.0
 20
204.19993313190835
 10
145.0
 20
204.37230099661792
 10
144.0
 20
204.51112276366973
 10
143.0
 20
204.64038198339813
 10
142.0
 20
204.78147099240516
 10
141.0
 20
204.95917839986143
 10
140.8223604011502
 20
205.0
 10
140.0
 20
205.18206455899974
 10
139.0
 20
205.430436917568
 10
138.0
 20
205.74427315458243
 10
137.42445589666073
 20
206.0
 10
137.0
 20
206.20017754009467
 10
136.0
 20
206.74744140313788
 10
135.65084357259863
 20
207.0
 10
135.0
 20
207.52252372577644
 10
134.50996368799667
 20
208.0
 10
134.0
 20
208.60441852729352
 10
133.70584750291957
 20
209.0
 10
133.17149013031843
 20
210.0
 10
133.0
 20
210.41785289528661
 10
132.77515820909593
 20
211.0
 10
132.56273500097825
 20
212.0
 10
132.4835787151389
 20
213.0
 10
132.5201623331305
 20
214.0
 10
132.6733510042074
 20
215.0
 10
132.97229962443387
 20
216.0
 10
133.0
 20
216.06229742396238
 10
133.40367473677475
 20
217.0
 10
133.9627431615995
 20
218.0
 10
134.0
 20
218.05232745749086
 10
134.69819568459218
 20
219.0
 10
135.0
 20
219.3442618584694
 10
135.63177382280233
 20
220.0
 10
136.0
 20
220.3454199764663
 10
136.78188131676532
 20
221.0
 10
137.0
 20
221.17449661671313
 10
138.0
 20
221.86882056424733
 10
138.1933282168643
 20
222.00000000000003
 10
139.0
 20
222.50831598391852
 10
139.84071411771666
 20
223.0
 10
140.0
 20
223.0960741626141
 10
141.0
 20
223.6254530085563
 10
141.69754297105823
 20
224.0
 10
142.0
 20
224.16652032688685
 10
143.0
 20
224.66128190175408
 10
143.63947583499782
 20
225.0
 10
144.0
 20
225.19558811839127
 10
145.0
 20
225.69741274518083
 10
145.54592066416205
 20
226.0
 10
146.0
 20
226.25521047799424
 10
147.0
 20
226.79102596310025
 10
147.34722478559524
 20
227.0
 10
148.0
 20
227.38773883987116
 10
149.0
 20
227.98587489230368
 10
149.02138440635696
 20
228.0
 10
150.0
 20
228.61244972255156
 10
150.58379366974572
 20
229.0
 10
151.0
 20
229.28209809103893
 10
152.0
 20
229.94473063931645
 10
152.07697088719524
 20
230.0
 10
153.0
 20
230.6337794221482
 10
153.51455053589274
 20
231.0
 10
154.0
 20
231.34641684614604
 10
154.9408421667823
 20
232.0
 10
155.0
 20
232.04306132978218
 10
156.0
 20
232.72121283118543
 10
156.40028525233066
 20
233.0
 10
157.0
 20
233.40744123697658
 10
157.91864931428236
 20
234.0
 10
158.0
 20
234.0545788049547
 10
159.0
 20
234.6544460453967
 10
159.58176002263565
 20
235.0
 10
160.0
 20
235.24639761743867
 10
161.0
 20
235.75356805328505
 10
161.4821446555181
 20
236.0
 10
162.0
 20
236.2583580248525
 10
163.0
 20
236.66904959042824
 10
163.8333526927355
 20
237.0
 10
164.0
 20
237.06895469393768
 10
165.0
 20
237.40111849737252
 10
166.0
 20
237.66360906140233
 10
167.0
 20
237.89575623416795
 10
167.5100840305543
 20
238.0
 10
168.0
 20
238.10012737805272
 10
169.0
 20
238.23969014294045
 10
170.0
 20
238.32287740550123
 10
171.0
 20
238.35768718969015
 10
172.0
 20
238.34693840323717
 10
173.0
 20
238.29025307876765
 10
174.0
 20
238.18353237855464
 10
175.0
 20
238.0161143699692
 10
175.07072909158464
 20
238.0
 10
176.0
 20
237.79957188298735
 10
177.0
 20
237.56301002234017
 10
178.0
 20
237.28735329951428
 10
178.80594270590979
 20
237.0
 10
179.0
 20
236.92607364727093
 10
180.0
 20
236.5413421634261
 10
181.0
 20
236.1165578032546
 10
181.22725678148865
 20
236.0
 10
182.0
 20
235.61346393666412
 10
183.0
 20
235.0911369332602
 10
183.14934212450115
 20
235.0
 10
184.0
 20
234.49485480407634
 10
184.77187720764462
 20
234.0
 10
184.99999999999997
 20
233.84403190978807
 10
186.0
 20
233.1613801240116
 10
186.21116863530042
 20
233.0
 10
187.0
 20
232.39387521417916
 10
187.47755159776344
 20
232.0
 10
188.0
 20
231.55255823651498
 10
188.61145524940093
 20
231.0
 10
189.0
 20
230.6304172988548
 10
189.62742842696784
 20
230.0
 10
190.0
 20
229.60310499169992
 10
190.53335509759853
 20
229.0
 10
191.0
 20
228.4301570251679
 10
191.335700591219
 20
228.0
 10
192.0
 20
227.02734656805094
 10
192.0188360459331
 20
227.0
 10
192.59266021082573
 20
226.0
 10
193.0
 20
225.17281831711367
 10
193.08668083503062
 20
225.0
 10
193.4613828315638
 20
224.0
 10
193.72375345039825
 20
223.00000000000003
 10
193.90562064459544
 20
222.0
 10
193.99179629605518
 20
221.0
 10
193.9606042022483
 20
220.0
 10
193.8105573074253
 20
219.0
 10
193.54898249297457
 20
218.0
 10
193.13299544718217
 20
217.0
 10
193.0
 20
216.78231793807146
 10
192.4890436983627
 20
216.0
 10
192.0
 20
215.428658446515
 10
191.5575847521188
 20
215.0
 10
191.0
 20
214.5467916778865
 10
190.10381619411027
 20
214.0
 10
190.0
 20
213.9390264531272
 10
189.0
 20
213.53069306019574
 10
188.0
 20
213.28057156004115
 10
187.0
 20
213.1335482184451
 10
186.0
 20
213.08440901523738
 10
185.0
 20
213.1282235249397
 10
184.0
 20
213.24654506137966
 10
183.0
 20
213.41752608282604
 10
182.0
 20
213.63113538969765
 10
181.0
 20
213.8958307328968
 10
180.66562551619938
 20
214.0
 10
180.0
 20
214.20236774409744
 10
179.0
 20
214.4705997007133
 10
178.0
 20
214.71352193266122
 10
177.0
 20
214.94227801341168
 10
176.70378685525625
 20
215.0
 10
176.0
 20
215.13512893837088
 10
175.0
 20
215.24774535861616
 10
174.0
 20
215.28168866410817
 10
173.0
 20
215.23092466785567
 10
172.0
 20
215.0756198106608
 10
171.73037238832814
 20
215.0
 10
171.0
 20
214.80013709560927
 10
170.0
 20
214.43482577489516
 10
169.19224574629067
 20
214.0
 10
169.0
 20
213.8822483412782
 10
168.0
 20
213.14813746308482
 10
167.83888291261084
 20
213.0
 10
167.0
 20
212.09184685669652
 10
166.9244136362143
 20
212.0
 10
166.27927904355113
 20
211.0
 10
166.0
 20
210.4632521647713
 10
165.77117535748886
 20
210.0
 10
165.4396153677332
 20
209.0
 10
165.2162870449517
 20
208.0
 10
165.0737734918682
 20
207.0
 10
165.01617103636585
 20
206.0
 10
165.04599737637545
 20
205.0
 10
165.1526749966369
 20
204.0
 10
165.3191625879406
 20
203.0
 10
165.5379137785615
 20
202.0
 10
165.82732453803516
 20
201.0
 10
166.0
 20
200.54941604503426
 10
166.21077410414426
 20
200.0
 10
166.60445953817666
 20
199.0
 10
167.0
 20
198.16335043953796
 10
167.08300787819311
 20
198.0
 10
167.58001002072348
 20
197.0
 10
168.0
 20
196.24221849037548
 10
168.1415726208735
 20
196.0
 10
168.6999081270696
 20
195.0
 10
169.0
 20
194.5118412209939
 10
169.31574227329133
 20
194.0
 10
169.9088658994099
 20
193.0
 10
170.0
 20
192.85825948431292
 10
170.522133656333
 20
192.0
 10
171.0
 20
191.20769972059597
 10
171.1295929972061
 20
191.0
 10
171.6865693808598
 20
190.0
 10
172.0
 20
189.44621994230016
 10
172.25047225901682
 20
189.0
 10
172.73123299582753
 20
188.00000000000003
 10
173.0
 20
187.44058605025543
 10
173.20971840094808
 20
187.0
 10
173.59149905680835
 20
186.0
 10
173.93158461605947
 20
185.0
 10
174.0
 20
184.7816889947085
 10
174.232009156068
 20
184.0
 10
174.4351269774403
 20
183.0
 10
174.5661315345997
 20
182.0
 10
174.63144549410737
 20
181.0
 10
174.62817699752026
 20
180.0
 10
174.5526963087848
 20
179.0
 10
174.39915999304588
 20
178.0
 10
174.14465482255278
 20
177.0
 10
174.0
 20
176.62099826919624
 10
173.76111926805208
 20
176.0
 10
173.30824428309813
 20
175.0
 10
173.0
 20
174.49139730688367
 10
172.68019630336875
 20
174.0
 10
172.0
 20
173.10394564908168
 10
171.91019589493197
 20
173.0
 10
170.99999999999997
 20
172.06739854942433
 10
170.9259180237919
 20
172.0
 10
170.0
 20
171.25537851107413
 10
169.64341730165214
 20
171.0
 10
169.0
 20
170.5769330927999
 10
167.99999999999997
 20
170.0330326866174
 10
167.93584452813155
 20
170.0
 10
167.0
 20
169.56728618032827
 10
166.0
 20
169.19890188240007
 10
165.43636118010488
 20
169.0
 10
165.0
 20
168.84656956280156
 10
164.0
 20
168.57406012403948
 10
163.0
 20
168.3495809553786
 10
162.0
 20
168.13779047490536
 10
161.35755321194148
 20
168.0
 10
161.0
 20
167.9220895362263
 10
160.0
 20
167.73467270422265
 10
159.0
 20
167.5685825749533
 10
158.0
 20
167.4054050373988
 10
157.0
 20
167.22680499849258
 10
156.0
 20
167.01155384158974
 10
155.95412508377393
 20
167.0
 10
155.0
 20
166.77504138796834
 10
154.0
 20
166.5407723392977
 10
153.0
 20
166.27965924233263
 10
152.1543402722266
 20
166.0
 10
152.0
 20
165.94565548217076
 10
151.0
 20
165.58994201662313
 10
150.0
 20
165.2039522621767
 10
149.57498154931324
 20
165.0
 10
149.0
 20
164.72228356905677
 10
148.0
 20
164.22309616397274
 10
147.63059256655356
 20
164.0
 10
147.0
 20
163.61362976458156
 10
146.08283013079986
 20
163.0
 10
146.0
 20
162.93906524988597
 10
145.0
 20
162.17291576792692
 10
144.8006660186342
 20
162.0
 10
144.0
 20
161.2669795197429
 10
143.732992718762
 20
161.0
 10
143.0
 20
160.19649494715947
 10
142.83071993984328
 20
160.0
 10
142.08331810541074
 20
159.0
 10
142.0
 20
158.8814701705916
 10
141.44150613222826
 20
158.0
 10
141.0
 20
157.18883209304929
 10
140.89609518821197
 20
157.0
 10
140.46912530839018
 20
156.0
 10
140.13056318353767
 20
155.0
 10
140.0
 20
154.55572807422072
 10
139.8388488082025
 20
154.0
 10
139.65092458692047
 20
153.0
 10
139.5453791458373
 20
152.0
 10
139.50956550945637
 20
151.0
 10
139.54066489093742
 20
150.0
 10
139.64055604020942
 20
149.0
 10
139.8198695573152
 20
148.0
 10
140.0
 20
147.35349412644382
 10
140.10102587297155
 20
147.0
 10
140.42864379249204
 20
146.0
 10
140.82486558451686
 20
145.0
 10
141.0
 20
144.65799255660156
 10
141.3374960338969
 20
144.0
 10
141.89185371249192
 20
143.0
 10
142.0
 20
142.83580674705883
 10
142.54251422376188
 20
142.0
 10
143.0
 20
141.3533895554832
 10
143.26086686523598
 20
141.0
 10
144.0
 20
140.00667186845138
 10
144.00527561281763
 20
140.0
 10
144.76894201805413
 20
139.0
 10
145.0
 20
138.70634368710336
 10
145.53821728912493
 20
138.0
 10
146.0
 20
137.37436760660336
 10
146.2727749046071
 20
137.0
 10
146.9176761271498
 20
136.0
 10
147.0
 20
135.8699690355321
 10
147.50029492102695
 20
135.0
 10
147.9843138400287
 20
134.0
 10
148.0
 20
133.96453668896976
 10
148.38188524729543
 20
133.0
 10
148.65041113700676
 20
132.0
 10
148.83284010074095
 20
131.0
 10
148.92244163131096
 20
130.0
 10
148.90153675645578
 20
129.0
 10
148.76769880682866
 20
128.0
 10
148.5257229049455
 20
127.0
 10
148.13763486121292
 20
126.0
 10
148.0
 20
125.75937978190385
 10
147.54332801516665
 20
124.99999999999999
 10
147.0
 20
124.30689881852115
 10
146.71576175442522
 20
124.0
 10
146.0
 20
123.35686191283541
 10
145.50771683353366
 20
123.0
 10
145.0
 20
122.67065232365063
 10
144.0
 20
122.21220450840207
 10
143.41111385718432
 20
122.0
 10
143.0
 20
121.85421843739915
 10
142.0
 20
121.64067685550552
 10
141.0
 20
121.53720781320206
 10
140.0
 20
121.52001320840662
 10
139.0
 20
121.58023188985852
 10
138.0
 20
121.71662323793282
 10
137.0
 20
121.94171685572474
 10
136.81448617729217
 20
122.0
 10
136.0
 20
122.24530018733688
 10
135.0
 20
122.57317672710948
 10
134.0
 20
122.9799839028626
 10
133.95899825928913
 20
123.0
 10
133.0
 20
123.44012261772234
 10
132.0
 20
123.92533921844637
 10
131.86660181281331
 20
124.0
 10
131.0
 20
124.46272153445565
 10
130.02044939630488
 20
125.0
 10
130.00000000000003
 20
125.01218003241016
 10
129.0
 20
125.57070367845579
 10
128.25267862207232
 20
126.0
 10
128.0
 20
126.15085757662574
 10
127.0
 20
126.69361022446202
 10
126.46276969679423
 20
127.0
 10
126.0
 20
127.26416912349251
 10
125.0
 20
127.77741920617339
 10
124.5911415935935
 20
128.0
 10
124.0
 20
128.31487008445083
 10
123.0
 20
128.79124221662465
 10
122.5888177401616
 20
129.0
 10
122.0
 20
129.29281450815319
 10
121.0
 20
129.73371728193507
 10
120.43606402123329
 20
130.0
 10
120.0
 20
130.20764404282593
 10
119.0
 20
130.63003309362009
 10
118.17857200298177
 20
131.0
 10
118.0
 20
131.08512042970506
 10
117.0
 20
131.52014732915268
 10
116.0
 20
131.97403232172914
 10
115.9492833798659
 20
132.0
 10
115.0
 20
132.4561987804536
 10
114.0
 20
132.95683974214066
 10
113.92534947382129
 20
133.0
 10
113.0
 20
133.5128730607778
 10
112.20178731304179
 20
134.0
 10
112.0
 20
134.13292542732032
 10
111.0
 20
134.80764717823567
 10
110.75352102841813
 20
135.0
 10
110.0
 20
135.61157821046777
 10
109.57036511099196
 20
136.0
 10
109.0
 20
136.55978870672573
 10
108.59036207475887
 20
137.0
 10
108.0
 20
137.71433536380457
 10
107.7776665225282
 20
138.0
 10
107.13384738444118
 20
139.0
 10
107.0
 20
139.22595695047409
 10
106.58370358229843
 20
140.0
 10
106.1731032561205
 20
141.0
 10
106.0
 20
141.48101382912472
 10
105.8178703629943
 20
142.0
 10
105.58536730305954
 20
143.0
 10
105.44529288011843
 20
144.0
 10
105.38261994268873
 20
145.0
 10
105.3965181304352
 20
146.0
 10
105.48882307101228
 20
147.0
 10
105.66742823314723
 20
148.0
 10
105.96584802143529
 20
149.0
 10
106.0
 20
149.08043292811678
 10
106.37695476619231
 20
150.0
 10
106.8889668944785
 20
151.0
 10
107.0
 20
151.16611264898359
 10
107.5804830828355
 20
152.0
 10
108.0
 20
152.4995662662314
 10
108.4712875437987
 20
153.0
 10
109.0
 20
153.49371393599094
 10
109.62671539636608
 20
154.0
 10
110.0
 20
154.27920630514524
 10
111.0
 20
154.88653874280953
 10
111.20109880546177
 20
155.0
 10
112.0
 20
155.41057747383707
 10
113.0
 20
155.81906819886072
 10
113.46093463046228
 20
156.0
 10
114.0
 20
156.20633404820725
 10
115.0
 20
156.50691003828223
 10
116.0
 20
156.77596814648862
 10
116.78791655458787
 20
157.0
 10
117.0
 20
157.06277067100532
 10
118.0
 20
157.3284702927894
 10
119.0
 20
157.58065859869396
 10
120.0
 20
157.86990272316768
 10
120.36183992695881
 20
158.0
 10
121.0
 20
158.22616537608678
 10
122.0
 20
158.5928048901393
 10
122.87502910724521
 20
159.0
 10
123.0
 20
159.06401682034115
 10
124.0
 20
159.61078679399697
 10
124.57397371211165
 20
160.0
 10
125.0
 20
160.31543151828507
 10
125.799378689559
 20
161.0
 10
126.0
 20
161.19695312639212
 10
126.71005429858621
 20
162.0
 10
127.0
 20
162.3885707425813
 10
127.40894519075833
 20
163.0
 10
127.90485067300195
 20
164.0
 10
128.0
 20
164.23306263490525
 10
128.28945162516757
 20
165.0
 10
128.51222594176818
 20
166.0
 10
128.62308839620022
 20
167.0
 10
128.63412033639398
 20
168.0
 10
128.5472377562611
 20
169.0
 10
128.3584158239834
 20
170.0
 10
128.03350975576916
 20
171.0
 10
128.0
 20
171.07241566848543
 10
127.58537545439805
 20
172.0
 10
127.01442460693012
 20
173.0
 10
127.0
 20
173.0201581073572
 10
126.28016315411266
 20
174.0
 10
126.0
 20
174.3199482527235
 10
125.34624821262696
 20
175.0
 10
125.00000000000001
 20
175.32421396798424
 10
124.18267056608532
 20
176.0
 10
124.0
 20
176.14412523513195
 10
123.0
 20
176.81501506837034
 10
122.71041214349428
 20
177.0
 10
122.0
 20
177.4239312836824
 10
121.0
 20
177.93924728548959
 10
120.8828894948715
 20
178.0
 10
120.0
 20
178.4226755498155
 10
119.0
 20
178.84084561294253
 10
118.63872473482894
 20
179.0
 10
118.0
 20
179.27353335667507
 10
117.0
 20
179.6469729650674
 10
116.12170393552904
 20
180.0
 10
116.0
 20
180.052372870482
 10
115.0
 20
180.4489413102592
 10
114.0
 20
180.84953664743904
 10
113.67995410833194
 20
181.0
 10
113.00000000000001
 20
181.3145814600095
 10
112.0
 20
181.77616087484517
 10
111.59349154526888
 20
182.0
 10
111.0
 20
182.3307425668683
 10
110.0
 20
182.91340008854266
 10
109.87309693937632
 20
183.0
 10
109.0
 20
183.59268652970889
 10
108.46258236557773
 20
184.0
 10
108.0
 20
184.3699358552249
 10
107.26583938143692
 20
185.0
 10
107.0
 20
185.2441431590787
 10
106.22545542373503
 20
185.99999999999997
 10
106.0
 20
186.23306888085094
 10
105.29984816366078
 20
187.0
 10
105.0
 20
187.34293534250094
 10
104.45130535159183
 20
188.0
 10
104.0
 20
188.56123664004565
 10
103.6534591358533
 20
189.0
 10
103.0
 20
189.86587167803043
 10
102.89637754249019
 20
190.0
 10
102.16719622122713
 20
191.0
 10
102.0
 20
191.21766772764934
 10
101.41174641842323
 20
192.0
 10
101.0
 20
192.5282215042838
 10
100.62468826186245
 20
193.0
 10
100.0
 20
193.76323387911813
 10
99.79647127069386
 20
194.0
 10
99.0
 20
194.8937399157268
 10
98.89933802831449
 20
195.0
 10
98.0
 20
195.89655057060196
 10
97.88947798620981
 20
196.0
 10
97.0
 20
196.76876388390005
 10
96.71207895658003
 20
197.0
 10
96.0
 20
197.5282799950703
 10
95.27827672491404
 20
198.0
 10
95.0
 20
198.17845464251835
 10
94.0
 20
198.6883717447244
 10
93.30748951640321
 20
198.99999999999997
 10
93.0
 20
199.139087758925
 10
92.0
 20
199.46684831674497
 10
91.0
 20
199.6954130972428
 10
90.0
 20
199.8517809483566
 10
89.0
 20
199.92987752670294
 10
88.0
 20
199.91833744753836
 10
87.0
 20
199.8172517073439
 10
86.0
 20
199.6356089424113
 10
85.0
 20
199.36829458024965
 10
84.09090387170929
 20
199.0
 10
84.0
 20
198.95916120632762
 10
83.0
 20
198.44646462923748
 10
82.32028203678942
 20
198.0
 10
82.0
 20
197.76702256974636
 10
81.08465634460083
 20
197.0
 10
81.0
 20
196.91910190417804
 10
80.1552736395806
 20
196.0
 10
80.0
 20
195.808470779388
 10
79.41784295695658
 20
195.0
 10
79.0
 20
194.31238492759067
 10
78.81569175911702
 20
194.0
 10
78.36868768672085
 20
193.0
 10
78.0
 20
192.00975494762693
 10
77.99613434260421
 20
192.0
 10
77.7044506137768
 20
191.0
 10
77.51830604718567
 20
190.0
 10
77.40431491685753
 20
189.0
 10
77.35250229724122
 20
188.0
 10
77.36048641684303
 20
187.0
 10
77.42607320950822
 20
186.0
 10
77.54786951477789
 20
185.0
 10
77.73209094672889
 20
184.0
 10
78.0
 20
183.00953070961177
 10
78.00278554289127
 20
183.0
 10
78.32616562096808
 20
182.0
 10
78.67740085702054
 20
181.0
 10
79.0
 20
180.27348703473712
 10
79.12854296698717
 20
180.0
 10
79.59803519129402
 20
179.0
 10
80.0
 20
178.2600438773372
 10
80.1497031942418
 20
178.0
 10
80.71151620908239
 20
177.0
 10
81.0
 20
176.5431491132763
 10
81.34561938792348
 20
176.0
 10
81.97887670940067
 20
175.0
 10
82.0
 20
174.969270015525
 10
82.62905129579579
 20
174.0
 10
83.0
 20
173.44415499621044
 10
83.29725924704988
 20
173.0
 10
83.92041261476439
 20
172.0
 10
84.0
 20
171.87780289741673
 10
84.53359592095921
 20
171.0
 10
85.0
 20
170.19523061606895
 10
85.11630860962084
 20
170.0
 10
85.62690356502604
 20
169.0
 10
86.0
 20
168.24172105775972
 10
86.12178764853012
 20
168.0
 10
86.53593417868122
 20
167.0
 10
86.9049732740521
 20
166.0
 10
87.0
 20
165.73746037650625
 10
87.2533906536402
 20
165.0
 10
87.51665453335448
 20
164.0
 10
87.73691358373888
 20
163.0
 10
87.93644040819382
 20
162.0
 10
88.0
 20
161.6399514125139
 10
88.11134148811168
 20
161.0
 10
88.23695221410333
 20
160.0
 10
88.32433054364586
 20
159.0
 10
88.38234506228457
 20
158.0
 10
88.41672435702637
 20
157.0
 10
88.43157540160735
 20
156.0
 10
88.43018740574735
 20
155.0
 10
88.4153871940137
 20
154.0
 10
88.38966354217476
 20
153.0
 10
88.35521268355612
 20
152.0
 10
88.31399040505309
 20
151.0
 10
88.26780252021207
 20
150.0
 10
88.21842903652153
 20
149.0
 10
88.16775578262505
 20
148.0
 10
88.1178776835957
 20
147.0
 10
88.07113889789063
 20
146.0
 10
88.03008584098372
 20
145.0
 10
88.00000000000001
 20
144.0807364404136
 10
87.99731458196959
 20
144.0
 10
87.97558823295338
 20
143.0
 10
87.96667957441112
 20
142.0
 10
87.97140871641733
 20
141.0
 10
87.99055534761754
 20
140.0
 10
88.0
 20
139.72214176393305
 10
88.0242504489279
 20
139.0
 10
88.07067462539374
 20
138.0
 10
88.12770119787483
 20
137.0
 10
88.19279096732376
 20
136.0
 10
88.26333854683469
 20
135.0
 10
88.33693373555388
 20
134.0
 10
88.41144135728368
 20
133.0
 10
88.48484884294248
 20
132.0
 10
88.55490514191607
 20
131.0
 10
88.61865371035043
 20
130.0
 10
88.67203129588444
 20
129.0
 10
88.70974250039457
 20
128.0
 10
88.72558698202795
 20
127.0
 10
88.71325559856321
 20
126.0
 10
88.66727769045936
 20
125.0
 10
88.58331391160625
 20
124.0
 10
88.45657582372637
 20
123.0
 10
88.27734852828054
 20
122.0
 10
88.02368301462134
 20
121.0
 10
88.0
 20
120.92722245323921
 10
87.71829057619937
 20
120.0
 10
87.40070728821942
 20
119.0
 10
87.01503751540622
 20
118.0
 10
87.0
 20
117.96700056877094
 10
86.59000010233618
 20
117.0
 10
86.15564485751872
 20
116.0
 10
86.0
 20
115.69325241002228
 10
85.65666755567116
 20
115.0
 10
85.1729420540093
 20
114.0
 10
85.0
 20
113.68560113674513
 10
84.63152576435512
 20
113.0
 10
84.10722713962734
 20
112.0
 10
84.0
 20
111.8168048586973
 10
83.54234658841236
 20
111.0
 10
83.0
 20
110.03879649727257
 10
82.9763955101862
 20
110.0
 10
82.40498331768572
 20
109.0
 10
82.0
 20
108.32408492083962
 10
81.79939828383348
 20
108.0
 10
81.21648517878631
 20
107.0
 10
81.0
 20
106.66113519473379
 10
80.58380681826308
 20
106.0
 10
79.99999999999999
 20
105.07434537433903
 10
79.94987430498861
 20
105.0
 10
79.30689082772179
 20
104.0
 10
79.0
 20
103.55529280444422
 10
78.61426065280884
 20
103.0
 10
78.0
 20
102.12408177764111
 10
77.90778733199633
 20
102.0
 10
77.1832075453049
 20
101.0
 10
77.0
 20
100.76615570026281
 10
76.40196922928526
 20
100.0
 10
76.0
 20
99.50801966069707
 10
75.57542376666393
 20
99.0
 10
75.0
 20
98.33095398588424
 10
74.70532584259665
 20
98.0
 10
74.0
 20
97.22602665178432
 10
73.786579060246
 20
97.0
 10
73.0
 20
96.18718106486595
 10
72.81345150816303
 20
96.0
 10
72.0
 20
95.20606798964545
 10
71.78445988849727
 20
95.0
 10
71.0
 20
94.27089300188959
 10
70.70488094804882
 20
94.0
 10
70.0
 20
93.36795373139404
 10
69.58693022450028
 20
93.0
 10
69.0
 20
92.48364398861564
 10
68.44892913398975
 20
92.0
 10
68.0
 20
91.60480381520138
 10
67.31501393440763
 20
91.0
 10
67.0
 20
90.716366728227
 10
66.21517016481336
 20
90.0
 10
66.0
 20
89.79690145522588
 10
65.18252419324446
 20
89.0
 10
65.0
 20
88.81400427287292
 10
64.24475422028176
 20
88.0
 10
64.0
 20
87.72017711249653
 10
63.413806479461236
 20
87.0
 10
63.0
 20
86.43839120371015
 10
62.692599233091684
 20
86.0
 10
62.12334753098212
 20
85.0
 10
62.0
 20
84.76166192321296
 10
61.6379421126219
 20
84.0
 10
61.3081086630433
 20
83.0
 10
61.06882268181409
 20
82.0
 10
61.0
 20
81.50790818790375
 10
60.92727756865271
 20
81.0
 10
60.91470009161795
 20
80.0
 10
61.0
 20
79.31448004609484
 10
61.0387811369487
 20
79.0
 10
61.28554409371959
 20
78.0
 10
61.661810354938254
 20
77.0
 10
62.0
 20
76.42008869895855
 10
62.27503310135735
 20
76.0
 10
63.0
 20
75.1392827136191
 10
63.14331395155813
 20
75.0
 10
64.0
 20
74.31502778363458
 10
64.51083433037164
 20
74.0
 10
65.0
 20
73.72492052679283
 10
66.0
 20
73.36001214137087
 10
67.0
 20
73.12507724113132
 10
67.99660236438831
 20
73.0
 10
67.99999999999999
 20
72.99954572951384
 10
69.0
 20
72.99385542158974
 10
69.05329914482157
 20
73.0
 10
70.0
 20
73.10273936265877
 10
71.0
 20
73.30155315701694
 10
72.0
 20
73.57965849398212
 10
73.0
 20
73.97924345942357
 10
73.04018796157625
 20
74.0
 10
74.0
 20
74.47387085344417
 10
74.90415555737474
 20
75.0
 10
75.0
 20
75.06159298110587
 10
76.0
 20
75.72083670398672
 10
76.37228591742877
 20
76.0
 10
77.0
 20
76.48085614724513
 10
77.64190892405118
 20
77.0
 10
78.0
 20
77.30056353172614
 10
78.81986623482231
 20
78.0
 10
79.0
 20
78.15898527162537
 10
79.95899640489206
 20
79.0
 10
80.0
 20
79.03692452097171
 10
81.0
 20
79.91593774634659
 10
81.09407203740632
 20
80.0
 10
82.0
 20
80.78572805711345
 10
82.24654070150265
 20
81.0
 10
83.0
 20
81.63490807210827
 10
83.43907977924823
 20
82.0
 10
84.0
 20
82.45567075734917
 10
84.69449984298149
 20
83.0
 10
85.0
 20
83.23897764493283
 10
86.0
 20
83.96705924606896
 10
86.04423315247368
 20
84.0
 10
87.0
 20
84.66440734916932
 10
87.48508424451506
 20
85.0
 10
88.0
 20
85.34994231142508
 10
89.0
 20
85.98591888253432
 10
89.02120679716644
 20
85.99999999999999
 10
90.0
 20
86.60212547568389
 10
90.64466891551919
 20
87.0
 10
91.0
 20
87.222157943333
 10
92.0
 20
87.79422439514947
 10
92.33533253736451
 20
88.0
 10
93.0
 20
88.39676471399144
 10
93.99999999999999
 20
88.97605630915892
 10
94.03811617137656
 20
89.0
 10
95.0
 20
89.56637651617028
 10
95.710241177497
 20
90.0
 10
96.0
 20
90.18336278667108
 10
97.0
 20
90.78370521366914
 10
97.32711664390219
 20
91.0
 10
98.0
 20
91.43946331236359
 10
98.83817090831201
 20
92.0
 10
99.0
 20
92.11450344990749
 10
100.0
 20
92.80326151483052
 10
100.26102263632507
 20
93.0
 10
101.0
 20
93.55478201265458
 10
101.56442142472298
 20
94.0
 10
102.0
 20
94.3538803489966
 10
102.7734829617256
 20
95.0
 10
103.0
 20
95.19779901600455
 10
103.89874960850042
 20
96.0
 10
104.0
 20
96.09451593109462
 10
104.94517070556658
 20
97.0
 10
105.0
 20
97.05448648926973
 10
105.92006254752964
 20
98.0
 10
106.0
 20
98.08427324651547
 10
106.83526524981426
 20
99.0
 10
107.0
 20
99.1836419102576
 10
107.70491751134047
 20
100.0
 10
108.0
 20
100.34657620323547
 10
108.5412588991513
 20
101.0
 10
109.0
 20
101.56491340405012
 10
109.35100814339505
 20
102.0
 10
110.0
 20
102.83171217606797
 10
110.1342870514775
 20
103.0
 10
110.89279225407464
 20
104.0
 10
111.0
 20
104.1351720027421
 10
111.66623841386878
 20
105.0
 10
112.0
 20
105.42051414373651
 10
112.46151349905375
 20
106.0
 10
113.0
 20
106.66422404303896
 10
113.28065995977003
 20
107.0
 10
114.0
 20
107.84730675959922
 10
114.13587096020228
 20
108.00000000000001
 10
115.0
 20
108.94605186809082
 10
115.05188945065316
 20
109.0
 10
116.0
 20
109.940473888891
 10
116.06303469589261
 20
110.0
 10
117.0
 20
110.82556126926626
 10
117.20845614692546
 20
111.0
 10
118.0
 20
111.61347497465822
 10
118.5408137290299
 20
112.0
 10
119.0
 20
112.31409819438949
 10
120.0
 20
112.89034201747745
 10
120.1979231608022
 20
113.0
 10
121.0
 20
113.40703812989699
 10
122.00000000000001
 20
113.80827392192421
 10
122.51935525225677
 20
114.0
 10
123.0
 20
114.17450397549983
 10
124.0
 20
114.43179706244923
 10
125.0
 20
114.60837634783786
 10
126.0
 20
114.72146966596247
 10
127.0
 20
114.77000463244102
 10
128.0
 20
114.74960069566603
 10
129.0
 20
114.66001909929557
 10
130.0
 20
114.50161772554009
 10
131.0
 20
114.26019404668409
 10
131.71556351735398
 20
114.0
 10
132.0
 20
113.88974804592523
 10
133.0
 20
113.45014577587317
 10
133.78910225069967
 20
113.0
 10
134.0
 20
112.86600848376968
 10
135.0
 20
112.16018118023572
 10
135.18831854318682
 20
112.0
 10
136.0
 20
111.24638786505557
 10
136.23543845647822
 20
111.0
 10
137.0
 20
110.07548399184306
 10
137.05920595931136
 20
110.0
 10
137.70780506755014
 20
109.0
 10
138.0
 20
108.48973539170694
 10
138.26720812488702
 20
108.0
 10
138.68020720503563
 20
107.0
 10
139.0
 20
106.11104295421629
 10
139.0418123749454
 20
106.0
 10
139.3191075680588
 20
105.0
 10
139.5040442064475
 20
104.0
 10
139.6256591148416
 20
103.0
 10
139.69190576329157
 20
102.0
 10
139.70320269127853
 20
101.0
 10
139.66002599441512
 20
100.00000000000001
 10
139.56425976043556
 20
99.0
 10
139.41467175592925
 20
98.0
 10
139.19779493242527
 20
97.0
 10
139.0
 20
96.35904874806889
 10
138.88542196720624
 20
96.0
 10
138.53840522113376
 20
95.0
 10
138.12274848581978
 20
94.0
 10
138.0
 20
93.76758360628665
 10
137.59830832282196
 20
93.0
 10
137.00683591613756
 20
92.0
 10
137.0
 20
91.99024915160099
 10
136.3084404303513
 20
91.0
 10
136.0
 20
90.61656262247664
 10
135.47376282468187
 20
90.0
 10
135.0
 20
89.49609843731872
 10
134.49329451018883
 20
89.0
 10
134.0
 20
88.55335933559721
 10
133.32297265010106
 20
88.0
 10
133.0
 20
87.74834279496909
 10
132.0
 20
87.08038760096869
 10
131.87479139392585
 20
87.0
 10
131.0
 20
86.49046586345733
 10
130.03047884560664
 20
86.0
 10
130.0
 20
85.98385573205546
 10
129.0
 20
85.54959418553553
 10
128.0
 20
85.19443586999117
 10
127.43508652481647
 20
85.0
 10
127.0
 20
84.85038269838685
 10
126.0
 20
84.58360962658455
 10
125.0
 20
84.36737228423944
 10
124.0
 20
84.17101620341062
 10
123.10493277064609
 20
84.0
 10
123.0
 20
83.97899708273364
 10
122.0
 20
83.81157168974552
 10
121.0
 20
83.67379429157243
 10
120.0
 20
83.5516686511176
 10
118.99999999999999
 20
83.4336740452145
 10
117.99999999999999
 20
83.30895553237175
 10
117.0
 20
83.16572155416056
 10
116.05674871840993
 20
83.0
 10
116.0
 20
82.98956088572554
 10
115.0
 20
82.79610158638468
 10
114.0
 20
82.59742145161763
 10
113.0
 20
82.3758705374034
 10
112.00000000000001
 20
82.09821090353914
 10
111.72037453627821
 20
82.0
 10
111.0
 20
81.7544013095233
 10
110.0
 20
81.402325087354
 10
109.08040095371634
 20
81.0
 10
109.0
 20
80.96142854510538
 10
108.0
 20
80.47053219635742
 10
107.17916466702972
 20
80.0
 10
107.0
 20
79.88816672257671
 10
106.0
 20
79.24233256599749
 10
105.6795115774149
 20
79.0
 10
105.0
 20
78.46585764010072
 10
104.46466559889234
 20
78.0
 10
104.0
 20
77.5654275511633
 10
103.44327721935511
 20
77.0
 10
103.0
 20
76.50991796120596
 10
102.56952461611996
 20
76.0
 10
102.0
 20
75.24606838713864
 10
101.81922439992621
 20
75.0
 10
101.20038524275107
 20
74.0
 10
101.0
 20
73.65980926758562
 10
100.63443158852719
 20
73.0
 10
100.18582862009761
 20
72.0
 10
100.0
 20
71.56694571986566
 10
99.76390423660374
 20
71.0
 10
99.44900391870127
 20
70.0
 10
99.1888085313041
 20
69.0
 10
99.0
 20
68.18770802315476
 10
98.95429181080515
 20
68.0
 10
98.77989731875726
 20
67.0
 10
98.6693934446175
 20
66.0
 10
98.60926621274903
 20
65.0
 10
98.59342510176342
 20
64.0
 10
98.61933750565714
 20
63.0
 10
98.68672702987956
 20
62.0
 10
98.79839375579752
 20
61.0
 10
98.96242449621691
 20
60.0
 10
99.0
 20
59.82566527563541
 10
99.16969771862237
 20
59.0
 10
99.38685793771303
 20
58.0
 10
99.62410736584454
 20
57.0
 10
99.90961581702466
 20
56.0
 10
100.0
 20
55.735642992366856
 10
100.2420119412358
 20
55.0
 10
100.55486980702543
 20
54.0
 10
100.89681607312245
 20
53.0
 10
101.0
 20
52.73618345866292
 10
101.27612622026243
 20
52.0
 10
101.61698359637296
 20
51.0
 10
101.9829549909782
 20
50.0
 10
102.0
 20
49.956598154213665
 10
102.34549719307161
 20
49.0
 10
102.65939425849302
 20
48.0
 10
102.980575529141
 20
47.0
 10
103.0
 20
46.93990846106051
 10
103.2811371094119
 20
46.0
 10
103.51600955569793
 20
45.0
 10
103.71283995892549
 20
44.0
 10
103.88009505449293
 20
43.0
 10
104.0
 20
42.07327127712059
 10
104.00992614952422
 20
42.0
 10
104.08140096140954
 20
41.0
 10
104.08517572887868
 20
40.0
 10
104.0154488694309
 20
39.0
 10
104.0
 20
38.89825867654434
 10
103.86974009162273
 20
38.0
 10
103.66154469052108
 20
37.0
 10
103.38106946287888
 20
36.0
 10
103.0
 20
35.0764566627891
 10
102.96466301506882
 20
34.99999999999999
 10
102.43796765441854
 20
34.0
 10
102.0
 20
33.353908820357105
 10
101.73109750926447
 20
33.0
 10
101.00000000000001
 20
32.182693328191576
 10
100.80929691480192
 20
32.0
 10
100.0
 20
31.333359357191085
 10
99.50785985162085
 20
31.0
 10
99.0
 20
30.685933025130154
 10
98.0
 20
30.249101940724326
 10
97.2577798722811
 20
30.0
 10
97.0
 20
29.912099337972798
 10
96.0
 20
29.71392482205034
 10
95.0
 20
29.64110743881536
 10
94.0
 20
29.676485653610293
 10
93.0
 20
29.825901908146207
 10
92.39169115286816
 20
29.999999999999996
 10
92.0
 20
30.115448806842696
 10
91.0
 20
30.495414695398885
 10
90.04505371997402
 20
31.0
 10
89.99999999999999
 20
31.02735665179417
 10
89.0
 20
31.71524284955779
 10
88.66261341118877
 20
32.0
 10
88.0
 20
32.61790889338327
 10
87.63770020035616
 20
33.0
 10
87.0
 20
33.77014415213996
 10
86.82092586671322
 20
34.0
 10
86.17204075739222
 20
35.0
 10
86.0
 20
35.282208141415836
 10
85.5947949937514
 20
36.0
 10
85.12614985462548
 20
37.0
 10
85.0
 20
37.272437930036546
 10
84.68255150646011
 20
38.0
 10
84.32673091019277
 20
39.0
 10
84.0
 20
39.91579318678558
 10
83.96804091213663
 20
40.0
 10
83.64066170175376
 20
41.0
 10
83.35257817934034
 20
42.0
 10
83.04263196055832
 20
42.99999999999999
 10
83.0
 20
43.123779754420255
 10
82.7162750142964
 20
44.0
 10
82.41399677666531
 20
45.0
 10
82.07167454460247
 20
46.0
 10
82.0
 20
46.176771996506254
 10
81.68165706213337
 20
47.0
 10
81.29341137955791
 20
48.0
 10
81.0
 20
48.62075892145448
 10
80.81354611771926
 20
49.0
 10
80.3195699085185
 20
50.0
 10
80.0
 20
50.541554879628045
 10
79.71846470879261
 20
51.0
 10
79.06984924626043
 20
52.0
 10
79.0
 20
52.09280351292015
 10
78.30959913784424
 20
53.00000000000001
 10
78.0
 20
53.363220428758225
 10
77.42573838734947
 20
54.0
 10
77.0
 20
54.43479495716056
 10
76.40243268934574
 20
55.0
 10
76.0
 20
55.35750934857195
 10
75.20133448067945
 20
56.0
 10
75.0
 20
56.15762330405778
 10
74.0
 20
56.83691163244427
 10
73.7523777602206
 20
57.0
 10
73.0
 20
57.46178167336577
 10
72.00754847085447
 20
58.0
 10
72.0
 20
58.00431108754137
 10
71.0
 20
58.48972959817246
 10
70.0
 20
58.915191066810706
 10
69.8031134670644
 20
59.0
 10
69.0
 20
59.32519774267875
 10
68.0
 20
59.65789879140203
 10
67.0
 20
59.988296502940386
 10
66.96502284906886
 20
60.0
 10
66.0
 20
60.29932266885321
 10
65.0
 20
60.556067863519104
 10
64.0
 20
60.80194923005101
 10
63.24343817152322
 20
61.0
 10
62.99999999999999
 20
61.06642355803767
 10
62.0
 20
61.3059770651393
 10
61.0
 20
61.5179158486806
 10
60.0
 20
61.72831431630276
 10
59.0
 20
61.96144191005166
 10
58.849528715451285
 20
62.0
 10
58.0
 20
62.20792003549247
 10
57.0
 20
62.43018085236153
 10
56.0
 20
62.65077640542088
 10
55.0
 20
62.896627058834525
 10
54.63268542132465
 20
63.0
 10
54.0
 20
63.17525858296857
 10
53.0
 20
63.429958427764376
 10
52.0
 20
63.68260935405526
 10
51.0
 20
63.968259016317134
 10
50.8999899068701
 20
64.0
 10
49.99999999999999
 20
64.26893670324145
 10
49.0
 20
64.53725267267839
 10
48.0
 20
64.80976177297663
 10
47.36856899436236
 20
65.0
 10
47.0
 20
65.11374653147278
 10
46.0
 20
65.38255462401924
 10
45.0
 20
65.62051205418229
 10
44.0
 20
65.85346531641022
 10
43.376329099239925
 20
66.0
 10
43.0
 20
66.09037186913983
 10
42.0
 20
66.28149290267889
 10
41.0
 20
66.42440771377471
 10
40.0
 20
66.52644333887595
 10
39.0
 20
66.58782091758044
 10
38.0
 20
66.60451851650214
 10
37.0
 20
66.57122343625795
 10
36.0
 20
66.48199508276798
 10
35.0
 20
66.32567290670532
 10
34.0
 20
66.07313866835963
 10
33.80000402872661
 20
66.0
 10
33.0
 20
65.71632093800397
 10
32.0
 20
65.28932792560812
 10
31.507062899923582
 20
65.0
 10
31.0
 20
64.67989135593152
 10
30.10916911375682
 20
64.0
 10
30.0
 20
63.90260431061961
 10
29.142718012731684
 20
63.0
 10
29.0
 20
62.81983496972531
 10
28.44163275737771
 20
62.0
 10
28.0
 20
61.12860300056804
 10
27.93478805824644
 20
61.0
 10
27.598455624555108
 20
60.0
 10
27.42090915667997
 20
59.0
 10
27.365089372870422
 20
58.0
 10
27.426241887729248
 20
57.0
 10
27.60851671113413
 20
56.0
 10
27.949377778672638
 20
55.0
 10
28.000000000000004
 20
54.90004297211465
 10
28.452056609437232
 20
54.0
 10
29.0
 20
53.18299868306102
 10
29.141652477664927
 20
53.0
 10
30.0
 20
52.06539734711779
 10
30.070061818299326
 20
52.0
 10
31.0
 20
51.252743666759486
 10
31.36721017355055
 20
51.0
 10
32.0
 20
50.60349048663705
 10
33.0
 20
50.11817923602951
 10
33.26866678149317
 20
50.0
 10
34.0
 20
49.69939672181415
 10
35.0
 20
49.40502093656313
 10
36.0
 20
49.16887667244768
 10
36.836954483656044
 20
49.0
 10
36.99999999999999
 20
48.96547795460296
 10
38.0
 20
48.81728957416103
 10
39.0
 20
48.72390910628526
 10
40.0
 20
48.67060298124702
 10
41.0
 20
48.648380086010974
 10
42.0
 20
48.65090264438177
 10
43.0
 20
48.67302800180248
 10
44.0
 20
48.71015474769155
 10
45.0
 20
48.757842404505915
 10
46.0
 20
48.81143732478058
 10
47.0
 20
48.86566433081238
 10
48.0
 20
48.91430789457049
 10
49.0
 20
48.95018797367054
 10
50.0
 20
48.96561628253656
 10
51.0
 20
48.95337945939221
 10
52.0
 20
48.90800860100286
 10
53.0
 20
48.82664090421741
 10
54.0
 20
48.70824058666241
 10
55.0
 20
48.54960820285247
 10
56.0
 20
48.33671448042178
 10
57.0
 20
48.02978941473854
 10
57.072652221292095
 20
48.0
 10
58.0
 20
47.636639203466075
 10
59.0
 20
47.17348349090701
 10
59.2846625338491
 20
47.0
 10
60.0
 20
46.54719570063066
 10
60.71878484060737
 20
46.0
 10
61.0
 20
45.756634130358954
 10
61.75257456763998
 20
45.0
 10
62.0
 20
44.707919129231605
 10
62.52327935307392
 20
44.0
 10
63.0
 20
43.172822215203176
 10
63.09733870439362
 20
43.0
 10
63.488321040497844
 20
42.0
 10
63.72849688276282
 20
41.0
 10
63.85367146608154
 20
39.99999999999999
 10
63.85563944062544
 20
39.0
 10
63.73240817846353
 20
38.0
 10
63.48850166846716
 20
37.0
 10
63.081137805943314
 20
36.0
 10
63.0
 20
35.86245782146246
 10
62.472326988140566
 20
35.0
 10
62.0
 20
34.409745668843115
 10
61.617860922787095
 20
34.0
 10
61.0
 20
33.44209262004143
 10
60.40239990636887
 20
33.0
 10
60.0
 20
32.728570379733
 10
59.0
 20
32.22915399435129
 10
58.453352528690914
 20
32.0
 10
58.0
 20
31.81548961581332
 10
57.0
 20
31.541188629434345
 10
56.0
 20
31.3594122208903
 10
54.99999999999999
 20
31.24200338201037
 10
54.0
 20
31.182360981337556
 10
53.0
 20
31.177825994462918
 10
51.99999999999999
 20
31.22266058167824
 10
51.0
 20
31.308214916465957
 10
50.0
 20
31.426626964080285
 10
49.0
 20
31.575087784045458
 10
48.0
 20
31.758960820003693
 10
47.0
 20
31.99323128561084
 10
46.975447005746396
 20
32.0
 10
46.0
 20
32.25128511867155
 10
45.0
 20
32.49893281393226
 10
44.0
 20
32.76279257231133
 10
43.235126719692516
 20
33.0
 10
43.0
 20
33.07647807150874
 10
42.0
 20
33.37916158302012
 10
41.0
 20
33.66822738753099
 10
40.0
 20
33.99250501168474
 10
39.978941956977756
 20
34.0
 10
39.0
 20
34.32265183267552
 10
38.0
 20
34.620293808672145
 10
37.0
 20
34.93851574206088
 10
36.82363027861791
 20
35.0
 10
36.0
 20
35.27265627747562
 10
35.0
 20
35.56377032439019
 10
34.0
 20
35.859152162163966
 10
33.563963130127405
 20
36.0
 10
33.0
 20
36.180672794323655
 10
32.0
 20
36.4576675306504
 10
31.0
 20
36.71731234384455
 10
30.0
 20
36.99551312436024
 10
29.984482806713817
 20
37.0
 10
29.0
 20
37.26512011939175
 10
28.0
 20
37.49260423251889
 10
27.0
 20
37.70511599269721
 10
26.0
 20
37.92297597590632
 10
25.655496596924642
 20
38.0
 10
25.0
 20
38.144200910868356
 10
24.0
 20
38.32784055023405
 10
23.0
 20
38.48421122955585
 10
22.0
 20
38.62443937903905
 10
21.0
 20
38.755608290937275
 10
20.0
 20
38.881129324497735
 10
19.010902854718548
 20
39.0
 10
19.000000000000004
 20
39.00137485394451
 10
17.999999999999996
 20
39.106647753872394
 10
17.0
 20
39.18944799794842
 10
16.0
 20
39.253383818997975
 10
15.0
 20
39.30106093895196
 10
14.0
 20
39.33438254868943
 10
13.0
 20
39.354784610660275
 10
12.0
 20
39.363411698092435
 10
11.0
 20
39.3612350071016
 10
10.0
 20
39.34912046248233
 10
9.0
 20
39.327861458962246
 10
8.0
 20
39.29819419945328
 10
7.000000000000001
 20
39.260813239390906
 10
6.0
 20
39.216401070915985
 10
5.0
 20
39.165678901271605
 10
4.0
 20
39.10947700659473
 10
3.0
 20
39.04881381631981
 10
2.23133853317514
 20
39.0
 10
2.0
 20
38.98519444965358
 10
1.0
 20
38.92429803721994
 10
0.0
 20
38.86882265538878
  0
LWPOLYLINE
  5
37
330
17
100
AcDbEntity
  8
0
100
AcDbPolyline
 90
489
 70
0
 10
255.0
 20
120.01684631982879
 10
254.0
 20
120.88368673579167
 10
253.8699368262524
 20
121.0
 10
253.0
 20
121.77208273921067
 10
252.74997783162755
 20
122.0
 10
252.0
 20
122.68677850635567
 10
251.66642301655725
 20
123.0
 10
251.0
 20
123.63544164808306
 10
250.6273975872561
 20
124.0
 10
250.0
 20
124.6297029772436
 10
249.64100785633752
 20
125.0
 10
249.0
 20
125.68649312090714
 10
248.71473126059465
 20
126.0
 10
248.0
 20
126.83160546166586
 10
247.8573240164743
 20
127.0
 10
247.08459512730062
 20
128.0
 10
247.0
 20
128.11099088862989
 10
246.3741430704698
 20
129.0
 10
246.0
 20
129.56533910088731
 10
245.71990644569834
 20
130.0
 10
245.17521236891827
 20
131.0
 10
245.0
 20
131.32920747683437
 10
244.66319232308317
 20
132.0
 10
244.2636650977512
 20
133.0
 10
244.0
 20
133.7074221715727
 10
243.88892941879394
 20
134.0
 10
243.60592985868232
 20
135.0
 10
243.40331076032714
 20
136.0
 10
243.2567925258736
 20
137.0
 10
243.16422418220353
 20
138.0
 10
243.13117839362582
 20
139.0
 10
243.16040348348326
 20
140.0
 10
243.24787934540535
 20
141.0
 10
243.38637805008625
 20
142.0
 10
243.57464618846655
 20
143.0
 10
243.82878332480124
 20
144.0
 10
244.0
 20
144.50246204854113
 10
244.17156925249913
 20
145.0
 10
244.52703283203977
 20
146.0
 10
244.94290980562025
 20
147.0
 10
245.0
 20
147.11482792537075
 10
245.4189889453844
 20
148.0
 10
245.91015182917923
 20
149.0
 10
246.0
 20
149.15888654358312
 10
246.45595361512528
 20
150.0
 10
247.0
 20
150.9817709948677
 10
247.01097041775978
 20
151.0
 10
247.57482811556304
 20
152.0
 10
248.0
 20
152.73671784770823
 10
248.15746017827396
 20
153.0
 10
248.69578354444513
 20
154.0
 10
249.0
 20
154.54620173713653
 10
249.25228340983233
 20
155.0
 10
249.73449710572385
 20
156.0
 10
250.0
 20
156.54232619809358
 10
250.22274415071942
 20
157.0
 10
250.62136264243549
 20
158.0
 10
250.99445693070797
 20
159.0
 10
251.0
 20
159.01563047185914
 10
251.3198871122566
 20
160.0
 10
251.55557145190375
 20
161.0
 10
251.7343425413618
 20
162.0
 10
251.86064485376716
 20
163.0
 10
251.9237510051392
 20
164.0
 10
251.91200575915104
 20
165.0
 10
251.82261744311046
 20
166.0
 10
251.66019680561442
 20
167.0
 10
251.420147314732
 20
168.0
 10
251.0570594814616
 20
169.0
 10
251.0
 20
169.11395923354462
 10
250.56377893970776
 20
170.0
 10
250.0
 20
170.90114740181045
 10
249.92903251297366
 20
171.0
 10
249.10508834153148
 20
172.0
 10
249.0
 20
172.10744034591818
 10
248.0
 20
172.97986857702193
 10
247.97349125555272
 20
173.0
 10
247.0
 20
173.63606383796383
 10
246.30700827578931
 20
174.0
 10
246.0
 20
174.15765496924303
 10
245.0
 20
174.51801525974318
 10
244.0
 20
174.76491164789562
 10
243.0
 20
174.93334636581878
 10
242.20438963483528
 20
174.99999999999997
 10
242.0
 20
175.01786726755608
 10
241.0
 20
175.00817516065297
 10
240.92050813167114
 20
175.0
 10
240.0
 20
174.91020841417472
 10
239.0
 20
174.74165783203296
 10
238.0
 20
174.51339088102213
 10
237.0
 20
174.2063688947344
 10
236.50881642553452
 20
174.0
 10
236.0
 20
173.7822104564467
 10
235.0
 20
173.3256239452319
 10
234.42530329901268
 20
173.0
 10
234.0
 20
172.74787692762706
 10
233.0
 20
172.127517885915
 10
232.82340606461864
 20
172.0
 10
232.0
 20
171.40498488123086
 10
231.48672775805835
 20
171.0
 10
231.0
 20
170.601116861021
 10
230.29952212861338
 20
170.0
 10
230.0
 20
169.73134876649527
 10
229.20774876998536
 20
169.0
 10
229.0
 20
168.8012535055679
 10
228.18041547388512
 20
168.0
 10
228.0
 20
167.8195799720818
 10
227.19425325347805
 20
167.0
 10
227.0
 20
166.80035581924034
 10
226.23018280195487
 20
166.0
 10
226.0
 20
165.76050614308213
 10
225.27249067744702
 20
165.0
 10
225.0
 20
164.7168800031627
 10
224.30807448889638
 20
164.0
 10
224.0
 20
163.68424397426293
 10
223.3255015622674
 20
163.0
 10
223.0
 20
162.67432446687374
 10
222.31421454736045
 20
162.0
 10
222.0
 20
161.69557412121614
 10
221.26401557041402
 20
161.0
 10
221.0
 20
160.75358300735655
 10
220.1645244241609
 20
160.0
 10
220.0
 20
159.85234330801313
 10
219.0040065808716
 20
159.0
 10
219.0
 20
158.9965374373433
 10
218.0
 20
158.18046523038404
 10
217.77955208318178
 20
158.0
 10
217.0
 20
157.38618153183137
 10
216.50381516814292
 20
157.0
 10
216.0
 20
156.61312548146168
 10
215.17125612561944
 20
156.0
 10
215.0
 20
155.87024678683707
 10
214.0
 20
155.16285553091956
 10
213.77961620130026
 20
155.0
 10
213.0
 20
154.44333886790838
 10
212.3839109682587
 20
154.0
 10
212.0
 20
153.71984635897707
 10
211.0
 20
153.01057582517146
 10
210.98602313235224
 20
153.0
 10
210.00000000000003
 20
152.28333362407008
 10
209.63110937618202
 20
152.0
 10
209.0
 20
151.5139908754304
 10
208.3531736492759
 20
151.0
 10
208.0
 20
150.70970811028513
 10
207.15494996612853
 20
150.0
 10
207.0
 20
149.8632509665578
 10
206.04704206332968
 20
149.0
 10
206.0
 20
148.9551503685631
 10
205.0379413367614
 20
148.0
 10
205.0
 20
147.96064003628982
 10
204.1250116641938
 20
147.0
 10
204.0
 20
146.8575800669064
 10
203.2936905768992
 20
146.0
 10
203.0
 20
145.62786461291338
 10
202.52805433463948
 20
145.0
 10
202.0
 20
144.24237945255473
 10
201.8309955802382
 20
144.0
 10
201.22195885237784
 20
143.0
 10
201.0
 20
142.63567428747453
 10
200.62890146379965
 20
142.0
 10
200.1143637005574
 20
141.0
 10
200.0
 20
140.78470857029205
 10
199.60798434014455
 20
140.0
 10
199.16813221473967
 20
139.0
 10
199.0
 20
138.63645074635963
 10
198.71470109277266
 20
138.0
 10
198.32842876805506
 20
137.0
 10
198.0
 20
136.18851391522995
 10
197.91972017682383
 20
136.0
 10
197.54538264863973
 20
135.0
 10
197.1912462013949
 20
134.0
 10
197.0
 20
133.51281098433287
 10
196.79887175603017
 20
133.0
 10
196.44844362275256
 20
132.0
 10
196.08192478123914
 20
131.0
 10
196.0
 20
130.80182107740345
 10
195.68391551324538
 20
130.0
 10
195.31568429393099
 20
129.0
 10
195.0
 20
128.24712244685114
 10
194.89094071805295
 20
128.0
 10
194.47882744407354
 20
127.0
 10
194.0385695025737
 20
126.0
 10
194.0
 20
125.9231794858343
 10
193.5636484100006
 20
125.0
 10
193.08280158833975
 20
124.0
 10
193.0
 20
123.84962294866618
 10
192.5518992610066
 20
123.0
 10
192.00643669194173
 20
122.0
 10
192.0
 20
121.98948194044672
 10
191.42806740008737
 20
121.0
 10
191.0
 20
120.30677287573384
 10
190.80208692771632
 20
120.0
 10
190.17700743875105
 20
119.0
 10
190.0
 20
118.74427533423334
 10
189.49240582815708
 20
118.0
 10
189.0
 20
117.30215541697721
 10
188.77865053865935
 20
117.0
 10
188.06062866259208
 20
116.0
 10
188.0
 20
115.92160816952413
 10
187.30745028363572
 20
115.0
 10
187.0
 20
114.60830765309937
 10
186.52254637896831
 20
114.0
 10
186.0
 20
113.34159910868776
 10
185.7231816250056
 20
113.0
 10
185.0
 20
112.09522420221614
 10
184.92106316297676
 20
112.00000000000001
 10
184.1183389988625
 20
111.0
 10
184.0
 20
110.85847339324494
 10
183.2986700406962
 20
110.0
 10
183.0
 20
109.64213108813317
 10
182.46861613949446
 20
109.0
 10
182.0
 20
108.4364172428727
 10
181.63493348162922
 20
108.0
 10
181.0
 20
107.2334941161195
 10
180.8026303234413
 20
107.0
 10
180.00000000000003
 20
106.02940318899137
 10
179.97485459235688
 20
106.0
 10
179.14236093986807
 20
105.0
 10
179.0
 20
104.83489736599957
 10
178.28992798811245
 20
104.0
 10
178.0
 20
103.6677825369016
 10
177.41685991114352
 20
103.0
 10
177.0
 20
102.53235914948709
 10
176.51940522091337
 20
102.0
 10
176.0
 20
101.43604293717843
 10
175.58962354357067
 20
101.0
 10
175.0
 20
100.38850002786076
 10
174.61473857457827
 20
100.0
 10
174.0
 20
99.39949276282445
 10
173.57660719519043
 20
99.0
 10
173.0
 20
98.47647353757922
 10
172.44951110838164
 20
98.0
 10
172.0
 20
97.62468100541301
 10
171.19010130852467
 20
97.0
 10
171.0
 20
96.85493111159961
 10
170.0
 20
96.189471541113
 10
169.7057494416568
 20
96.0
 10
169.0
 20
95.57624505072503
 10
168.0
 20
95.07090885461395
 10
167.85275406382118
 20
95.0
 10
167.0
 20
94.6249370523512
 10
166.0
 20
94.29785412898602
 10
165.0
 20
94.0249966442233
 10
164.88006417220436
 20
94.0
 10
164.0
 20
93.82431074697075
 10
163.0
 20
93.72587255522892
 10
162.0
 20
93.7167295020291
 10
161.0
 20
93.80009053199224
 10
160.0
 20
93.99804955014663
 10
159.9938886537007
 20
94.0
 10
159.0
 20
94.29884391458323
 10
158.0
 20
94.69368628273234
 10
157.46009963857142
 20
95.0
 10
157.0
 20
95.28438725777895
 10
156.05341438247112
 20
96.0
 10
156.0
 20
96.04757097668185
 10
155.09524392428918
 20
97.0
 10
155.0
 20
97.11874179153155
 10
154.39431138952864
 20
98.0
 10
154.0
 20
98.7306965074
 10
153.85874103700212
 20
99.0
 10
153.49723805121693
 20
100.0
 10
153.26272224423002
 20
101.0
 10
153.12056908289765
 20
102.0
 10
153.07539342990611
 20
103.00000000000001
 10
153.1306830823494
 20
104.00000000000001
 10
153.27580003701172
 20
105.0
 10
153.50056368019216
 20
106.0
 10
153.82709722687133
 20
107.0
 10
154.0
 20
107.37524038697686
 10
154.29252047283495
 20
108.0
 10
154.82643396151764
 20
109.0
 10
155.0
 20
109.25832973147244
 10
155.51334918472753
 20
110.0
 10
156.0
 20
110.61550579620732
 10
156.3287602911574
 20
111.0
 10
157.0
 20
111.7214174602877
 10
157.27927974533202
 20
112.0
 10
158.0
 20
112.67140713976667
 10
158.37355924308275
 20
113.0
 10
159.0
 20
113.52367874822464
 10
159.5985463895433
 20
114.0
 10
160.0
 20
114.31390236367517
 10
160.92867221492227
 20
115.0
 10
161.0
 20
115.0543252076998
 10
162.0
 20
115.77055836248813
 10
162.30488826918045
 20
116.0
 10
163.0
 20
116.51735536369274
 10
163.62696577039247
 20
117.0
 10
164.0
 20
117.29742802389754
 10
164.85337368123317
 20
118.0
 10
165.0
 20
118.12866106221348
 10
165.94480354608982
 20
119.0
 10
166.0
 20
119.0547719230741
 10
166.87966509223156
 20
120.0
 10
167.0
 20
120.13973266124019
 10
167.6716176288511
 20
121.0
 10
168.0
 20
121.46974766915108
 10
168.3476672922319
 20
122.0
 10
168.87046004811015
 20
123.0
 10
169.0
 20
123.27213808887896
 10
169.32181758291102
 20
124.0
 10
169.63298633473048
 20
125.0
 10
169.86940679374254
 20
126.0
 10
170.0
 20
126.75675668388614
 10
170.04362218864946
 20
127.0
 10
170.13184191083394
 20
128.0
 10
170.13827596934513
 20
129.0
 10
170.06913623510485
 20
130.0
 10
170.0
 20
130.47772022884067
 10
169.9256386705867
 20
131.0
 10
169.73638330660023
 20
132.0
 10
169.5145942429618
 20
133.0
 10
169.24987497350324
 20
134.0
 10
169.0
 20
134.75184352828842
 10
168.91375590001056
 20
135.0
 10
168.5820900155652
 20
136.0
 10
168.257729337289
 20
137.0
 10
168.0
 20
137.71927351530337
 10
167.89600943669757
 20
138.0
 10
167.57992003666135
 20
139.0
 10
167.3095165624711
 20
140.0
 10
167.05580827828248
 20
141.0
 10
167.0
 20
141.24802584228155
 10
166.8364831761009
 20
142.0
 10
166.69550548043725
 20
143.0
 10
166.62311698272768
 20
144.0
 10
166.6176678755069
 20
145.0
 10
166.68435454080478
 20
146.0
 10
166.8373390192222
 20
147.0
 10
167.0
 20
147.6179038251722
 10
167.1034239896113
 20
148.0
 10
167.439277087041
 20
149.0
 10
167.88188838118413
 20
150.0
 10
168.0
 20
150.19933822874103
 10
168.48465547491554
 20
151.0
 10
169.0
 20
151.70078416432526
 10
169.24667388143027
 20
152.0
 10
170.0
 20
152.80122430546808
 10
170.21145339064208
 20
153.0
 10
171.0
 20
153.658683047943
 10
171.46459774608144
 20
154.0
 10
172.0
 20
154.3647123059169
 10
173.00000000000003
 20
154.92186505527198
 10
173.14830584489115
 20
155.0
 10
174.0
 20
155.40803104781568
 10
175.0
 20
155.78820838579503
 10
175.5815419489185
 20
156.0
 10
176.0
 20
156.15222252855216
 10
177.0
 20
156.43530775069345
 10
178.0
 20
156.6703081438382
 10
179.0
 20
156.89534758887453
 10
179.4603474531765
 20
157.0
 10
180.0
 20
157.121749434785
 10
181.0
 20
157.31298196080877
 10
182.0
 20
157.48376516347076
 10
183.0
 20
157.65351731914558
 10
184.00000000000003
 20
157.84105313318656
 10
184.71903619763486
 20
158.0
 10
185.0
 20
158.06382789473466
 10
186.0
 20
158.28683548034925
 10
187.0
 20
158.50896425733373
 10
188.0
 20
158.7573753319499
 10
188.78680148760455
 20
159.0
 10
189.0
 20
159.06907235420147
 10
190.0
 20
159.3894176842884
 10
191.0
 20
159.72311921169376
 10
191.68022207177748
 20
160.0
 10
192.0
 20
160.13555693836116
 10
193.0
 20
160.54730817264004
 10
193.96975955485462
 20
161.0
 10
194.0
 20
161.01547721008384
 10
195.0
 20
161.51328927299562
 10
195.9042906236144
 20
162.0
 10
196.0
 20
162.05569595711836
 10
197.0
 20
162.61563917230689
 10
197.62877482097804
 20
163.0
 10
198.0
 20
163.23417007965176
 10
199.0
 20
163.8448149561929
 10
199.22999570530254
 20
164.0
 10
200.0
 20
164.50578238917637
 10
200.73478072025387
 20
165.0
 10
201.0
 20
165.18484703212766
 10
202.0
 20
165.84811702772316
 10
202.2133725595301
 20
166.0
 10
203.0
 20
166.54141102044747
 10
203.65957559504875
 20
167.0
 10
204.0
 20
167.24089330704481
 10
204.99999999999997
 20
167.91025909465566
 10
205.12640652609392
 20
168.0
 10
206.0
 20
168.58974698721087
 10
206.6023781555795
 20
169.0
 10
207.0
 20
169.27274963512878
 10
208.0
 20
169.91712744860914
 10
208.12123826532496
 20
170.0
 10
209.0
 20
170.5682082573085
 10
209.66496480573082
 20
171.0
 10
210.0
 20
171.22123278074216
 10
211.00000000000003
 20
171.8329398576834
 10
211.25568472423214
 20
172.0
 10
212.0
 20
172.46816629177823
 10
212.85637827639985
 20
173.0
 10
213.0
 20
173.09349280467717
 10
214.0
 20
173.69545393760293
 10
214.4783048849075
 20
174.0
 10
215.0
 20
174.33112588597598
 10
216.0
 20
174.94082701853648
 10
216.08953431310226
 20
174.99999999999997
 10
217.0
 20
175.57062695798672
 10
217.66439397741527
 20
176.0
 10
218.0
 20
176.22284206205052
 10
219.0
 20
176.85587281849834
 10
219.2089225519826
 20
177.0
 10
220.0
 20
177.5301747570851
 10
220.6808943745833
 20
178.0
 10
221.0
 20
178.2273176146025
 10
222.0
 20
178.9211296419926
 10
222.10493424331742
 20
179.0
 10
223.0
 20
179.6542535650889
 10
223.45006039219328
 20
180.0
 10
224.0
 20
180.4269225344706
 10
224.72408146593253
 20
181.0
 10
225.0
 20
181.22625760607036
 10
225.94134323601966
 20
182.0
 10
226.0
 20
182.05056393884215
 10
227.0
 20
182.90942389562983
 10
227.10039836809474
 20
183.0
 10
228.00000000000003
 20
183.8155484541491
 10
228.1962247080007
 20
184.0
 10
229.0
 20
184.76694436305624
 10
229.23768092552342
 20
185.0
 10
230.0
 20
185.76372279776365
 10
230.23112785113713
 20
186.0
 10
231.0
 20
186.80752697477837
 10
231.1809663061036
 20
187.0
 10
232.0
 20
187.90123019953344
 10
232.08955386853216
 20
188.0
 10
232.95696150549483
 20
189.0
 10
233.0
 20
189.04932486340377
 10
233.79536087054913
 20
190.0
 10
234.0
 20
190.2440480778439
 10
234.61375148279095
 20
191.0
 10
235.0
 20
191.48042446851161
 10
235.4120786526133
 20
192.0
 10
236.0
 20
192.76506539031698
 10
236.18311973800238
 20
193.0
 10
236.91444533875588
 20
194.0
 10
237.0
 20
194.11281986749293
 10
237.64055589952994
 20
195.0
 10
238.0
 20
195.49561266867525
 10
238.36295335353975
 20
196.0
 10
239.0
 20
196.92276570234097
 10
239.0556562304967
 20
197.0
 10
239.72426932009648
 20
198.0
 10
240.0
 20
198.39897608570485
 10
240.4083476483642
 20
199.0
 10
241.0
 20
199.89853193454897
 10
241.07005739861674
 20
200.0
 10
241.71008665858807
 20
201.0
 10
242.0
 20
201.43405973224375
 10
242.37435330216147
 20
202.0
 10
242.99999999999997
 20
202.97687216032793
 10
243.01576429467215
 20
203.0
 10
243.65418404427515
 20
204.0
 10
244.0
 20
204.5213414436214
 10
244.31944574713282
 20
205.0
 10
244.9640977995148
 20
206.0
 10
245.0
 20
206.0516275471864
 10
245.62775508702754
 20
207.0
 10
246.0
 20
207.53958654644765
 10
246.32209978078345
 20
208.0
 10
247.0
 20
208.98050089641953
 10
247.01439794109825
 20
209.0
 10
247.72951950906065
 20
210.0
 10
248.0
 20
210.35470280192098
 10
248.49396011681313
 20
211.0
 10
249.0
 20
211.6394783171216
 10
249.29528201844198
 20
212.0
 10
250.0
 20
212.84356604336548
 10
250.1373195047433
 20
213.0
 10
251.0
 20
213.9610395975032
 10
251.03681270004165
 20
214.0
 10
252.0
 20
214.98270894172634
 10
252.01772549837068
 20
215.0
 10
253.00000000000003
 20
215.90651920685107
 10
253.105306697814
 20
215.99999999999997
 10
254.0
 20
216.74189966445988
 10
254.3260268969471
 20
217.0
 10
254.99999999999997
 20
217.5027408087419
  0
LWPOLYLINE
  5
38
330
17
100
AcDbEntity
  8
0
100
AcDbPolyline
 90
92
 70
0
 10
0.0
 20
218.1847670063411
 10
1.0
 20
218.7575003995832
 10
1.4386495559324517
 20
219.0
 10
2.0
 20
219.29790717842593
 10
3.0
 20
219.7250481561111
 10
3.679701021715296
 20
220.0
 10
4.0
 20
220.13115250065772
 10
5.0
 20
220.44530936040073
 10
6.0
 20
220.6898326545724
 10
7.0
 20
220.89807613610495
 10
7.587247590771032
 20
221.0
 10
8.0
 20
221.0725752987759
 10
9.0
 20
221.18732412672813
 10
10.0
 20
221.25015085638816
 10
11.0
 20
221.270645512991
 10
12.0
 20
221.25468343378859
 10
13.0
 20
221.20614341661332
 10
14.0
 20
221.12743467008082
 10
15.0
 20
221.0196363197104
 10
15.149878025664993
 20
221.0
 10
16.0
 20
220.8920195158259
 10
17.0
 20
220.76393000122826
 10
18.0
 20
220.63953527083896
 10
19.0
 20
220.51988250046293
 10
20.0
 20
220.4046156050033
 10
21.0
 20
220.2935762616081
 10
22.0
 20
220.18812105744223
 10
23.0
 20
220.09186299927563
 10
24.0
 20
220.01064950283913
 10
24.183768400324915
 20
220.0
 10
24.999999999999996
 20
219.9527741582069
 10
26.000000000000004
 20
219.9255663820451
 10
27.000000000000004
 20
219.93085238833174
 10
28.000000000000004
 20
219.97202968418014
 10
28.34399058017599
 20
220.0
 10
29.0
 20
220.0521606097305
 10
30.0
 20
220.16518762905952
 10
31.0
 20
220.30721870861515
 10
32.0
 20
220.4794616156178
 10
33.0
 20
220.6946909846784
 10
34.0
 20
220.98535774137662
 10
34.04009179042809
 20
220.99999999999997
 10
35.0
 20
221.32738180811515
 10
36.0
 20
221.692738069879
 10
36.662742361581216
 20
222.0
 10
37.0
 20
222.16443585628977
 10
38.0
 20
222.66396583261343
 10
38.55831658573481
 20
223.0
 10
39.0
 20
223.27829705347932
 10
40.0
 20
223.94873294899108
 10
40.066258208921816
 20
224.0
 10
41.0
 20
224.73212295535546
 10
41.3060900545904
 20
225.0
 10
42.0
 20
225.64153852461394
 10
42.35879727859776
 20
226.0
 10
43.0
 20
226.69168141551773
 10
43.270857604748635
 20
227.0
 10
44.0
 20
227.9217728037357
 10
44.061082555997785
 20
228.0
 10
44.74258110743841
 20
229.0
 10
45.0
 20
229.39630637729687
 10
45.37321490889787
 20
230.0
 10
45.90230818268717
 20
231.0
 10
46.0
 20
231.18545016454144
 10
46.39836964259841
 20
232.0
 10
46.80584272809718
 20
233.0
 10
47.0
 20
233.47844909064915
 10
47.208635043906845
 20
234.0
 10
47.52605955173421
 20
235.0
 10
47.80469102311545
 20
236.0
 10
48.0
 20
236.71368193631508
 10
48.080982917738986
 20
237.0
 10
48.30563053973702
 20
238.0
 10
48.479939927033755
 20
239.0
 10
48.62291270168334
 20
240.0
 10
48.743783616604354
 20
241.0
 10
48.8453955791258
 20
242.0
 10
48.927021685995456
 20
243.0
 10
48.98666430954493
 20
244.0
 10
49.0
 20
244.3728349216463
 10
49.02260624093194
 20
244.99999999999997
 10
49.03449230091615
 20
246.00000000000003
 10
49.0248880126688
 20
247.0
 10
49.0
 20
247.86762450669798
 10
48.996203349812056
 20
248.0
 10
48.95265182337737
 20
249.0
 10
48.89943646506408
 20
250.0
 10
48.84159548427661
 20
251.0
 10
48.783879904470865
 20
252.0
 10
48.7306364669746
 20
253.0
 10
48.68588809835293
 20
254.0
 10
48.65349772855937
 20
255.0
  0
LWPOLYLINE
  5
39
330
17
100
AcDbEntity
  8
0
100
AcDbPolyline
 90
109
 70
0
 10
40.27361910367914
 20
254.99999999999997
 10
40.04867877329088
 20
254.0
 10
40.0
 20
253.857452375133
 10
39.71918682355923
 20
253.0
 10
39.33261858475261
 20
252.0
 10
39.0
 20
251.34990583622803
 10
38.80891498847437
 20
251.0
 10
38.232828064755545
 20
250.0
 10
38.0
 20
249.66112482331056
 10
37.53494962719738
 20
249.0
 10
37.0
 20
248.29660926593328
 10
36.76049448674762
 20
248.0
 10
35.99999999999999
 20
247.0890721087051
 10
35.921015694701396
 20
247.0
 10
35.017389155502876
 20
246.0
 10
35.0
 20
245.9816534094194
 10
34.05351812354606
 20
245.0
 10
34.0
 20
244.94604684074605
 10
33.041409632544756
 20
244.0
 10
33.0
 20
243.95969813864605
 10
32.0
 20
243.00976707888526
 10
31.9896749226045
 20
243.0
 10
31.0
 20
242.08695733286476
 10
30.905923650010408
 20
242.0
 10
30.0
 20
241.18313560168085
 10
29.797648032059588
 20
240.99999999999997
 10
29.0
 20
240.29417194630628
 10
28.66803912151429
 20
240.0
 10
28.0
 20
239.41851510660032
 10
27.516807182468984
 20
239.0
 10
27.0
 20
238.55704327770786
 10
26.33966591121248
 20
238.0
 10
26.0
 20
237.7133293088152
 10
25.12703128309246
 20
237.0
 10
25.0
 20
236.89451988347986
 10
24.0
 20
236.1085015520589
 10
23.86528128248039
 20
236.0
 10
23.0
 20
235.33470303342995
 10
22.564021808206697
 20
235.0
 10
22.0
 20
234.57669448188923
 10
21.19861636118165
 20
234.0
 10
21.0
 20
233.85481941719146
 10
20.0
 20
233.19166629090205
 10
19.71666561349366
 20
233.0
 10
19.0
 20
232.53952769531583
 10
18.097443971716952
 20
232.0
 10
18.0
 20
231.9396069136158
 10
17.0
 20
231.40500864917715
 10
16.195773548144267
 20
231.0
 10
16.0
 20
230.8986166916638
 10
15.0
 20
230.4764106295384
 10
14.0
 20
230.11561077884602
 10
13.655918385606515
 20
230.0
 10
13.0
 20
229.78784248153306
 10
12.0
 20
229.5645225618633
 10
11.0
 20
229.42057624977366
 10
10.0
 20
229.34955584897295
 10
9.0
 20
229.357433233066
 10
8.0
 20
229.45161847334248
 10
7.0
 20
229.64533882039044
 10
6.0
 20
229.9865108935197
 10
5.972744760577352
 20
230.0
 10
5.0
 20
230.4750363965744
 10
4.213915175974012
 20
231.0
 10
4.0
 20
231.16787224007197
 10
3.1384371607346853
 20
232.0
 10
3.0
 20
232.16440953976044
 10
2.41090783480563
 20
233.0
 10
2.0
 20
233.79422056058945
 10
1.8962971264258428
 20
234.0
 10
1.5733920187421826
 20
235.0
 10
1.4058909563082405
 20
236.0
 10
1.3573540870872314
 20
237.0
 10
1.420450479295424
 20
238.0
 10
1.5945706358881264
 20
239.0
 10
1.906269472191389
 20
240.0
 10
2.0
 20
240.20192091918491
 10
2.368936625548346
 20
241.0
 10
2.9526989783896194
 20
242.0
 10
3.0
 20
242.06396721371166
 10
3.7263058697873896
 20
243.0
 10
4.0
 20
243.2976206033063
 10
4.722987375564102
 20
244.0
 10
5.0
 20
244.24400253022142
 10
6.0
 20
244.9959898254546
 10
6.005727811357151
 20
245.0
 10
7.0
 20
245.61568880487945
 10
7.699726279615438
 20
246.0
 10
8.0
 20
246.1639650729939
 10
9.0
 20
246.60272022444937
 10
9.969881456159593
 20
247.0
 10
10.0
 20
247.0131333989303
 10
11.0
 20
247.3834322085108
 10
12.0
 20
247.70684371087
 10
12.818070547993674
 20
248.0
 10
13.0
 20
248.06871737704972
 10
14.0
 20
248.42762876076358
 10
15.0
 20
248.8178786114883
 10
15.362948734769706
 20
249.0
 10
16.0
 20
249.32580132014508
 10
17.0
 20
249.92820188955358
 10
17.09352077982583
 20
250.0
 10
18.0
 20
250.77738479937506
 10
18.21233432639238
 20
251.0
 10
18.9241300110406
 20
252.0
 10
19.0
 20
252.14742901337826
 10
19.381546248521765
 20
253.0
 10
19.582560247454147
 20
254.0
 10
19.58897768951959
 20
255.0
  0
LWPOLYLINE
  5
3A
330
17
100
AcDbEntity
  8
0
100
AcDbPolyline
 90
470
 70
0
 10
69.33471852722427
 20
255.0
 10
69.0
 20
254.5640119023198
 10
68.5698475114026
 20
254.0
 10
68.0
 20
253.24084209764104
 10
67.8152044334401
 20
253.0
 10
67.09227592970667
 20
252.0
 10
67.0
 20
251.87740184937283
 10
66.37123977792831
 20
251.0
 10
66.0
 20
250.48160754032222
 10
65.65783841912022
 20
250.0
 10
65.0
 20
249.0188582924027
 10
64.98673840189053
 20
249.00000000000003
 10
64.34356103803754
 20
248.0
 10
64.0
 20
247.46683363032034
 10
63.70121646068079
 20
247.0
 10
63.11950649731963
 20
246.0
 10
63.0
 20
245.80418835820916
 10
62.53634334138563
 20
244.99999999999997
 10
62.0
 20
244.01500184010334
 10
61.991274662726454
 20
244.0
 10
61.472652604238604
 20
243.0
 10
61.0
 20
242.05193694744105
 10
60.97233879962417
 20
242.0
 10
60.50243631996713
 20
241.0
 10
60.05976336165892
 20
240.0
 10
60.0
 20
239.87231220250638
 10
59.61918821863044
 20
239.0
 10
59.234507723183256
 20
238.0
 10
59.0
 20
237.42498027693836
 10
58.82497827537573
 20
237.0
 10
58.47439877533776
 20
236.0
 10
58.13941069433536
 20
235.0
 10
58.0
 20
234.60879992192073
 10
57.78720095980252
 20
233.99999999999997
 10
57.4925405801943
 20
233.0
 10
57.215241735786655
 20
232.0
 10
57.0
 20
231.26867982646715
 10
56.91785224617924
 20
231.0
 10
56.655651952564185
 20
230.0
 10
56.428965107962924
 20
229.0
 10
56.20875876367976
 20
228.0
 10
56.0
 20
227.10566330595339
 10
55.97384862874834
 20
227.00000000000003
 10
55.75586011522283
 20
225.99999999999997
 10
55.5701172442446
 20
225.0
 10
55.398833015587016
 20
224.0
 10
55.22706246442071
 20
223.0
 10
55.04216158718816
 20
222.0
 10
55.0
 20
221.78580836228596
 10
54.85003850506811
 20
221.0
 10
54.678216668658195
 20
220.0
 10
54.51581008062115
 20
219.0
 10
54.34920966374196
 20
218.0
 10
54.1626070408062
 20
217.0
 10
54.0
 20
216.2649812417819
 10
53.939307287997984
 20
215.99999999999997
 10
53.71429431330295
 20
215.0
 10
53.49114100840963
 20
214.0
 10
53.24196294330956
 20
213.0
 10
52.99999999999999
 20
212.22148847646403
 10
52.92737047806933
 20
212.0
 10
52.59967899130518
 20
211.0
 10
52.24949191334019
 20
210.0
 10
52.0
 20
209.42976994275813
 10
51.805693924413305
 20
209.0
 10
51.34764483519151
 20
208.0
 10
51.0
 20
207.37322257451308
 10
50.78098051516874
 20
207.0
 10
50.16740415536327
 20
206.0
 10
50.0
 20
205.7703729717474
 10
49.42112811966912
 20
205.0
 10
49.0
 20
204.50246115852516
 10
48.53972287477767
 20
204.0
 10
48.0
 20
203.46521648313635
 10
47.479341684958214
 20
203.0
 10
47.0
 20
202.60505837169794
 10
46.14761761081178
 20
202.0
 10
46.0
 20
201.89762404425824
 10
45.0
 20
201.33858519027416
 10
44.305645650636855
 20
201.0
 10
44.0
 20
200.8517958327976
 10
43.0
 20
200.49382540571696
 10
42.0
 20
200.22608813108914
 10
41.0
 20
200.0119443254272
 10
40.91969800979704
 20
200.0
 10
40.0
 20
199.8675051936396
 10
39.0
 20
199.80526257123
 10
38.0
 20
199.8123957618003
 10
37.0
 20
199.88572570339537
 10
36.2014857392885
 20
200.0
 10
36.0
 20
200.0294393612178
 10
35.0
 20
200.22066344101833
 10
34.0
 20
200.43968741165708
 10
33.0
 20
200.69545136538986
 10
32.060170750074285
 20
201.0
 10
32.0
 20
201.02113916504334
 10
31.000000000000004
 20
201.36780227325386
 10
30.0
 20
201.70787420551153
 10
29.250701881956186
 20
202.0
 10
29.0
 20
202.10248103853658
 10
28.0
 20
202.47182533382795
 10
27.0
 20
202.8270845932215
 10
26.549699163112475
 20
203.0
 10
26.0
 20
203.20880690843148
 10
25.0
 20
203.52748510725314
 10
24.0
 20
203.821158225716
 10
23.39469567213618
 20
204.0
 10
23.0
 20
204.1184785614585
 10
22.0
 20
204.35413511377826
 10
21.0
 20
204.53423306328094
 10
20.0
 20
204.67424568780788
 10
19.0
 20
204.77694207345397
 10
18.0
 20
204.83781227547232
 10
17.0
 20
204.85094697991775
 10
16.0
 20
204.81354100101632
 10
15.0
 20
204.72714740914228
 10
14.0
 20
204.59453657472608
 10
13.0
 20
204.41217226475356
 10
12.0
 20
204.15916175376742
 10
11.542037287076944
 20
204.0
 10
11.0
 20
203.81099989122293
 10
10.0
 20
203.43628928038717
 10
9.079172075661893
 20
203.0
 10
9.0
 20
202.9584963170561
 10
8.0
 20
202.41061095886323
 10
7.37121358066433
 20
202.0
 10
7.0
 20
201.74025773999406
 10
6.032128022517039
 20
201.0
 10
6.0
 20
200.97266245955302
 10
5.0
 20
200.05280653574133
 10
4.947923730811283
 20
200.0
 10
4.06209367958226
 20
199.0
 10
4.0
 20
198.92406126524392
 10
3.3221139267323343
 20
198.0
 10
3.0
 20
197.50892417491917
 10
2.683560769787069
 20
197.0
 10
2.1906264866085534
 20
196.0
 10
2.0
 20
195.57892895117232
 10
1.748290276947128
 20
195.0
 10
1.435933835050598
 20
194.0
 10
1.199698050330933
 20
193.0
 10
1.0209955988146548
 20
192.0
 10
1.0
 20
191.8008044202963
 10
0.9154537433426032
 20
191.0
 10
0.8985696863239443
 20
190.0
 10
0.9703753692853558
 20
189.0
 10
1.0
 20
188.82236940669114
 10
1.1306900919035612
 20
188.0
 10
1.359563963084046
 20
187.0
 10
1.669787687143967
 20
186.0
 10
2.0
 20
185.26924538630848
 10
2.131944393480509
 20
185.0
 10
2.6884697419833317
 20
184.0
 10
3.0
 20
183.56508542789305
 10
3.4407798507183536
 20
183.0
 10
4.0
 20
182.38845272209335
 10
4.405987730647409
 20
182.0
 10
5.0
 20
181.49763910876294
 10
5.7034640989490235
 20
181.0
 10
6.000000000000001
 20
180.80151246794063
 10
7.0
 20
180.29221931671995
 10
7.683276156772878
 20
180.0
 10
8.0
 20
179.86460541475918
 10
9.0
 20
179.56904590140135
 10
10.0
 20
179.37771650812198
 10
11.0
 20
179.26157970342211
 10
12.0
 20
179.21652581686797
 10
13.0
 20
179.241855304443
 10
14.0
 20
179.3320047495189
 10
15.0
 20
179.48032118177997
 10
16.0
 20
179.6901643510654
 10
16.999999999999996
 20
179.9876744905823
 10
17.032683730285
 20
180.0
 10
18.0
 20
180.33936528354388
 10
19.0
 20
180.70952028111228
 10
19.641567634412365
 20
181.0
 10
20.0
 20
181.16805770639226
 10
21.0
 20
181.61788006291243
 10
21.76390219344355
 20
182.0
 10
22.0
 20
182.12386736158498
 10
23.0
 20
182.60264491021735
 10
23.80293715089364
 20
183.0
 10
24.0
 20
183.10177237783898
 10
25.0
 20
183.54636215119626
 10
26.0
 20
183.9587687628548
 10
26.10254570819546
 20
184.0
 10
27.0
 20
184.33131647848484
 10
28.0
 20
184.60063683591943
 10
29.0
 20
184.8026335412594
 10
30.000000000000004
 20
184.9319921580198
 10
31.0
 20
184.9635905869909
 10
32.0
 20
184.88015248289196
 10
33.0
 20
184.68226949144872
 10
34.0
 20
184.355647349163
 10
34.668563285884964
 20
184.0
 10
35.0
 20
183.799110846381
 10
35.99801312080306
 20
182.99999999999997
 10
36.0
 20
182.99799702009147
 10
36.78655180317982
 20
182.0
 10
37.0
 20
181.63419179931537
 10
37.32696383431709
 20
181.0
 10
37.62568829866061
 20
180.0
 10
37.77332298013791
 20
179.0
 10
37.78561467631968
 20
177.99999999999997
 10
37.66897000236471
 20
177.0
 10
37.43092989854614
 20
176.0
 10
37.033004460437965
 20
175.0
 10
37.0
 20
174.94066048685326
 10
36.47998158491103
 20
174.0
 10
36.0
 20
173.31788766750515
 10
35.74966565276523
 20
173.0
 10
35.0
 20
172.16712689847859
 10
34.83089915885475
 20
172.0
 10
34.0
 20
171.26313007980337
 10
33.672787440955524
 20
171.0
 10
33.0
 20
170.50093456519593
 10
32.24279806391713
 20
170.0
 10
32.0
 20
169.84055278179588
 10
31.0
 20
169.2864945763959
 10
30.473064494641648
 20
169.0
 10
30.0
 20
168.74691229092522
 10
29.0
 20
168.291983014645
 10
28.376874760413052
 20
168.0
 10
28.0
 20
167.82126751952853
 10
27.0
 20
167.41014649485538
 10
26.035511248008465
 20
167.0
 10
26.0
 20
166.98369447147203
 10
25.0
 20
166.5654285729843
 10
24.0
 20
166.1602515722699
 10
23.652775916046977
 20
166.0
 10
23.0
 20
165.70533105542796
 10
22.0
 20
165.27618973688212
 10
21.44246146878163
 20
165.0
 10
21.0
 20
164.77637508265076
 10
20.0
 20
164.28799794255008
 10
19.490368125393594
 20
164.0
 10
19.0
 20
163.7172428760119
 10
18.0
 20
163.1359234235242
 10
17.79748753543343
 20
163.0
 10
17.0
 20
162.46948499524484
 10
16.35264942841605
 20
162.0
 10
16.0
 20
161.73003555750836
 10
15.093671824859717
 20
161.0
 10
15.0
 20
160.91855448095214
 10
14.0
 20
160.00315856102827
 10
13.996794957925633
 20
160.0
 10
13.04918154310009
 20
159.0
 10
13.0
 20
158.94493231387617
 10
12.224622266704559
 20
158.0
 10
12.0
 20
157.7087084257186
 10
11.491199906496831
 20
157.0
 10
11.0
 20
156.2367335068609
 10
10.84819407837239
 20
156.0
 10
10.318562981600085
 20
155.0
 10
10.0
 20
154.35540298165657
 10
9.824556023099248
 20
154.0
 10
9.437337341356038
 20
153.0
 10
9.10549386750334
 20
152.0
 10
9.0
 20
151.6582330288168
 10
8.802907095938544
 20
151.0
 10
8.588888150707724
 20
150.0
 10
8.436752097919742
 20
149.0
 10
8.332435814336336
 20
148.0
 10
8.273399562254927
 20
147.0
 10
8.26077905730022
 20
146.0
 10
8.294622375959499
 20
145.0
 10
8.3728589595778
 20
144.0
 10
8.493946778819957
 20
143.0
 10
8.66235517322892
 20
142.0
 10
8.895725611401732
 20
141.0
 10
9.0
 20
140.66268160146527
 10
9.200312316321266
 20
140.0
 10
9.516404075697766
 20
139.0
 10
9.891915975484851
 20
138.0
 10
10.0
 20
137.76722157040695
 10
10.34556544648205
 20
137.0
 10
10.814256902360073
 20
136.0
 10
11.0
 20
135.6696573243799
 10
11.374425138867679
 20
135.0
 10
11.960310000910594
 20
134.0
 10
12.0
 20
133.94072826214648
 10
12.609129907762043
 20
133.0
 10
13.0
 20
132.44695432791636
 10
13.326124102727928
 20
132.0
 10
14.0
 20
131.1021536598351
 10
14.081660528143246
 20
131.0
 10
14.881439994172485
 20
130.0
 10
15.0
 20
129.86221997243314
 10
15.746066568404189
 20
129.0
 10
16.0
 20
128.72082788149703
 10
16.668768876893665
 20
128.0
 10
17.0
 20
127.65604403494982
 10
17.649873614889515
 20
127.0
 10
18.0
 20
126.65728113006855
 10
18.696595099333482
 20
125.99999999999999
 10
19.0
 20
125.72078992725986
 10
19.82469521272757
 20
125.0
 10
20.0
 20
124.84879360752686
 10
21.0
 20
124.05300718595743
 10
21.06720508606146
 20
124.0
 10
22.0
 20
123.31830791298489
 10
22.455837683795455
 20
123.0
 10
23.0
 20
122.63469728617295
 10
24.0
 20
122.04932941916735
 10
24.085684364047744
 20
122.0
 10
25.0
 20
121.52250022622437
 10
26.0
 20
121.08804263932407
 10
26.215453314150622
 20
121.0
 10
27.0
 20
120.70029453830453
 10
28.0
 20
120.42989922815889
 10
29.0
 20
120.23225930780467
 10
30.0
 20
120.10130414607347
 10
31.0
 20
120.0511209651055
 10
32.0
 20
120.0931258043815
 10
33.0
 20
120.22461872787963
 10
34.0
 20
120.43839385741137
 10
35.0
 20
120.753894546508
 10
35.528226816496925
 20
121.0
 10
36.0
 20
121.23103986430426
 10
37.0
 20
121.80245946355211
 10
37.27005551010451
 20
122.0
 10
38.0
 20
122.56795564922592
 10
38.47705571981528
 20
123.0
 10
39.0
 20
123.52519187208864
 10
39.42868605615715
 20
124.0
 10
40.0
 20
124.70961352238288
 10
40.22371287487864
 20
125.0
 10
40.89249633031677
 20
126.0
 10
41.0
 20
126.16158921545951
 10
41.520177331928224
 20
127.0
 10
42.0
 20
127.80532692381063
 10
42.12057884765597
 20
128.0
 10
42.692863463655456
 20
129.0
 10
43.0
 20
129.48862159965816
 10
43.32873747605605
 20
130.0
 10
44.0
 20
130.99601002270205
 10
44.0029882936203
 20
131.0
 10
44.79511132401024
 20
132.0
 10
45.0
 20
132.22461766041909
 10
45.79148256286519
 20
133.0
 10
46.0
 20
133.18358756910607
 10
47.0
 20
133.8942858225922
 10
47.17533299216024
 20
134.0
 10
48.0
 20
134.43678620023957
 10
49.0
 20
134.78483393314653
 10
49.93181915981365
 20
135.0
 10
50.0
 20
135.01662225016895
 10
51.0
 20
135.1079152510521
 10
52.0
 20
135.0472201528638
 10
52.21691357224204
 20
135.0
 10
53.0
 20
134.83545560383442
 10
54.0
 20
134.49802348456393
 10
54.93576884500602
 20
134.0
 10
55.0
 20
133.95972214741283
 10
56.0
 20
133.18837290581297
 10
56.19363997451408
 20
133.0
 10
57.0
 20
132.04374995706652
 10
57.03349353214165
 20
132.0
 10
57.624341958249445
 20
131.0
 10
58.0
 20
130.17258289728827
 10
58.07870078734642
 20
130.0
 10
58.391754078155024
 20
129.0
 10
58.58482641527794
 20
128.0
 10
58.69752323760895
 20
127.0
 10
58.74017179924507
 20
126.0
 10
58.71765142807941
 20
125.0
 10
58.63739247992986
 20
124.0
 10
58.50660994428537
 20
123.0
 10
58.324555477311215
 20
122.0
 10
58.074286185746594
 20
121.0
 10
58.0
 20
120.76955593298527
 10
57.76044878165856
 20
120.0
 10
57.44203835079075
 20
119.0
 10
57.0656428712934
 20
118.0
 10
57.0
 20
117.85498266050973
 10
56.63038635625065
 20
116.99999999999999
 10
56.18909651699711
 20
116.0
 10
56.0
 20
115.63933213509395
 10
55.66621988661362
 20
115.00000000000001
 10
55.140415885433974
 20
114.0
 10
55.0
 20
113.76958258992997
 10
54.53916551083259
 20
113.0
 10
54.00000000000001
 20
112.14904605427401
 10
53.898407260311494
 20
112.0
 10
53.224535456637255
 20
111.0
 10
53.0
 20
110.70080289117237
 10
52.46785898872974
 20
110.0
 10
52.0
 20
109.4205648905772
 10
51.64538632313099
 20
109.0
 10
51.0
 20
108.2679674995542
 10
50.750945994708786
 20
108.0
 10
50.0
 20
107.22845860126704
 10
49.76617280859135
 20
107.0
 10
49.0
 20
106.29068114194584
 10
48.670615134004606
 20
105.99999999999999
 10
48.0
 20
105.43967110128594
 10
47.44140354904642
 20
105.0
 10
47.0
 20
104.6642980995218
 10
46.032985122160035
 20
104.0
 10
46.0
 20
103.97686303257314
 10
45.0
 20
103.36393183455229
 10
44.37430068917213
 20
103.0
 10
44.0
 20
102.78418165676491
 10
43.0
 20
102.30238911623324
 10
42.358834688648884
 20
102.0
 10
42.0
 20
101.83019914087116
 10
41.0
 20
101.4468666000206
 10
40.0
 20
101.10132151958656
 10
39.701756312257615
 20
101.0
 10
39.0
 20
100.77197308625068
 10
38.0
 20
100.52302389331089
 10
37.0
 20
100.31970629461323
 10
36.0
 20
100.1435393996836
 10
35.04597303556155
 20
100.0
 10
35.0
 20
99.99274045974995
 10
34.0
 20
99.88480832166567
 10
33.0
 20
99.82613664204564
 10
32.0
 20
99.81162496650273
 10
31.0
 20
99.8403427912117
 10
30.0
 20
99.91505911366693
 10
29.326696318964842
 20
100.0
 10
29.0
 20
100.04163964122785
 10
28.0
 20
100.2041470510596
 10
27.0
 20
100.39250513928576
 10
26.0
 20
100.61418272960603
 10
25.0
 20
100.89681473414697
 10
24.711982407732272
 20
101.0
 10
24.0
 20
101.24904059234767
 10
23.0
 20
101.60433245641332
 10
22.078017503963366
 20
101.99999999999999
 10
22.0
 20
102.03665934084576
 10
21.0
 20
102.50253181333548
 10
20.035664399866576
 20
103.0
 10
20.0
 20
103.02025623293534
 10
19.0
 20
103.57819347792491
 10
18.31243807509827
 20
104.0
 10
18.0
 20
104.20141678472905
 10
17.0
 20
104.8367131418306
 10
16.770078338931754
 20
105.0
 10
16.0
 20
105.54099521188826
 10
15.377242185246242
 20
106.0
 10
15.0
 20
106.28724485354817
 10
14.067843422205776
 20
106.99999999999999
 10
14.0
 20
107.0548192343866
 10
13.0
 20
107.84804056282556
 10
12.818784293981508
 20
108.0
 10
12.0
 20
108.6801604551635
 10
11.626530429258597
 20
109.0
 10
11.0
 20
109.53767174673975
 10
10.468489069567585
 20
110.0
 10
10.0
 20
110.4110542548187
 10
9.329540679232478
 20
111.0
 10
9.0
 20
111.29318623537338
 10
8.198709575158201
 20
112.0
 10
8.0
 20
112.17811238203078
 10
7.067296873446725
 20
112.99999999999999
 10
6.999999999999999
 20
113.06048194640121
 10
6.0
 20
113.93710610361852
 10
5.929745214897693
 20
114.0
 10
5.0
 20
114.81367378329341
 10
4.790095758030655
 20
115.0
 10
4.0
 20
115.68926949351689
 10
3.6464700775048846
 20
116.0
 10
3.0
 20
116.56235874496053
 10
2.497059124031143
 20
117.0
 10
2.0
 20
117.43186511139787
 10
1.3414382060201993
 20
118.0
 10
1.0
 20
118.29712978822924
 10
0.1808745846538449
 20
119.0
 10
0.0
 20
119.1582506527051
  0
LWPOLYLINE
  5
3B
330
17
100
AcDbEntity
  8
0
100
AcDbPolyline
 90
42
 70
0
 10
207.95517452847486
 20
255.0
 10
208.0
 20
254.93819315827145
 10
208.6463191754621
 20
253.99999999999997
 10
209.0
 20
253.50750903193608
 10
209.36840385390195
 20
253.0
 10
210.0
 20
252.14768817952705
 10
210.1162755499673
 20
252.0
 10
210.91769444998403
 20
251.0
 10
210.99999999999997
 20
250.90669725019808
 10
211.83419309540128
 20
250.0
 10
212.0
 20
249.83401099113573
 10
212.91564779723777
 20
249.0
 10
213.0
 20
248.9272939840609
 10
214.0
 20
248.18709457000023
 10
214.27863888922843
 20
248.0
 10
215.0
 20
247.55834313084227
 10
216.0
 20
247.0776804307173
 10
216.18286300886527
 20
247.0
 10
217.0
 20
246.68062342227776
 10
218.0
 20
246.4251670992208
 10
219.0
 20
246.26114948202215
 10
220.0
 20
246.18149583499115
 10
221.0
 20
246.19193190083584
 10
222.0
 20
246.29152262863988
 10
223.0
 20
246.47547443851624
 10
224.0
 20
246.75936016963269
 10
224.56656147896368
 20
247.0
 10
225.0
 20
247.19256650701104
 10
226.0
 20
247.70282443613712
 10
226.4478601157002
 20
248.0
 10
227.0
 20
248.39150662532194
 10
227.74038703865062
 20
249.0
 10
228.0
 20
249.2385957649375
 10
228.73813111577684
 20
250.0
 10
229.0
 20
250.30246177805185
 10
229.54650307525822
 20
251.0
 10
230.0
 20
251.66558713981107
 10
230.21950296482498
 20
251.99999999999997
 10
230.7426876049593
 20
253.0
 10
231.0
 20
253.53817776091597
 10
231.2157930226573
 20
254.0
 10
231.5647517694395
 20
255.0
  0
LWPOLYLINE
  5
3C
330
17
100
AcDbEntity
  8
0
100
AcDbPolyline
 90
138
 70
0
 10
248.14427168540928
 20
255.0
 10
248.0
 20
254.65269183338208
 10
247.73388905134027
 20
254.0
 10
247.34917399176777
 20
253.0
 10
247.0
 20
252.1956796134474
 10
246.9098440346109
 20
252.0
 10
246.4836147493721
 20
251.0
 10
246.04234847884655
 20
250.0
 10
246.0
 20
249.91369703080474
 10
245.58044780511602
 20
249.0
 10
245.1387195858208
 20
248.0
 10
245.0
 20
247.71846427888156
 10
244.65797273508196
 20
247.0
 10
244.21514469674705
 20
246.0
 10
244.0
 20
245.56204793787737
 10
243.7261350245693
 20
245.0
 10
243.2805635095252
 20
244.0
 10
242.99999999999997
 20
243.42687935894702
 10
242.78785927683498
 20
243.0
 10
242.33588014818997
 20
242.0
 10
242.0
 20
241.31571852444029
 10
241.83960440591085
 20
241.0
 10
241.3761484438053
 20
240.0
 10
241.0
 20
239.24529262830546
 10
240.87186717231594
 20
239.0
 10
240.3916551818062
 20
238.0
 10
240.0
 20
237.23999852350718
 10
239.87013383388413
 20
237.0
 10
239.3681266515278
 20
236.0
 10
239.0
 20
235.32417639578216
 10
238.8168418112026
 20
235.0
 10
238.28558249610262
 20
234.0
 10
238.0
 20
233.51536905464187
 10
237.6935049749403
 20
233.0
 10
237.11262733782675
 20
232.0
 10
237.0
 20
231.82690120726357
 10
236.47747643936782
 20
231.0
 10
236.0
 20
230.28081016081444
 10
235.80451540803156
 20
230.0
 10
235.11699932488074
 20
229.0
 10
235.0
 20
228.84612070176303
 10
234.3614733161947
 20
228.0
 10
234.0
 20
227.5522104829218
 10
233.54117863733967
 20
227.0
 10
233.0
 20
226.37960283151725
 10
232.6532548959801
 20
226.0
 10
232.0
 20
225.31804553888588
 10
231.67930788794004
 20
225.00000000000003
 10
231.0
 20
224.36179687636132
 10
230.5927401233795
 20
224.0
 10
230.0
 20
223.50150247673798
 10
229.35632389342624
 20
223.0
 10
229.0
 20
222.73106540232598
 10
228.0
 20
222.07175413368645
 10
227.88873393476493
 20
222.0
 10
227.0
 20
221.4790159864033
 10
226.07076394188653
 20
221.0
 10
226.0
 20
220.96207397293506
 10
225.0
 20
220.52769005339275
 10
224.0
 20
220.17693262866635
 10
223.4534773862871
 20
220.0
 10
223.0
 20
219.85384664145033
 10
222.0
 20
219.62444199782357
 10
221.0
 20
219.46958444062284
 10
220.00000000000003
 20
219.3733286106894
 10
219.0
 20
219.33316323289438
 10
218.0
 20
219.35005460617379
 10
217.0
 20
219.42383153153781
 10
216.0
 20
219.55525618516398
 10
215.0
 20
219.75443393849946
 10
214.16553276924657
 20
220.00000000000003
 10
213.99999999999997
 20
220.05194483100263
 10
213.0
 20
220.40091966843912
 10
212.0
 20
220.80701857161867
 10
211.63098388726547
 20
221.0
 10
211.0
 20
221.33480251105792
 10
210.0
 20
221.9164945478093
 10
209.88013829944117
 20
222.0
 10
209.0
 20
222.616994595079
 10
208.5176377195374
 20
223.0
 10
208.0
 20
223.43633129542997
 10
207.38440775251377
 20
224.0
 10
207.0
 20
224.378054796908
 10
206.41024305399665
 20
225.0
 10
206.0
 20
225.46423938277866
 10
205.55236839494535
 20
226.0
 10
205.0
 20
226.71756047959812
 10
204.7869167042299
 20
227.0
 10
204.119411171292
 20
228.0
 10
204.0
 20
228.17838407903994
 10
203.48734052766542
 20
229.0
 10
203.0
 20
229.83112219984804
 10
202.89793391258752
 20
230.0
 10
202.36781178261202
 20
231.0
 10
202.0
 20
231.68727693218827
 10
201.82927208964057
 20
232.0
 10
201.3456077251482
 20
233.0
 10
201.0
 20
233.67898444675487
 10
200.83234974967596
 20
234.0
 10
200.36047522655667
 20
235.0
 10
200.0
 20
235.71000951611612
 10
199.84737615191258
 20
236.0
 10
199.36162971902957
 20
237.0
 10
199.0
 20
237.68033363544146
 10
198.82398618153303
 20
238.0
 10
198.30488100235365
 20
239.0
 10
198.0
 20
239.52579590100046
 10
197.72095857668776
 20
240.0
 10
197.14563148218693
 20
241.0
 10
197.0
 20
241.2242732303924
 10
196.50751987824998
 20
242.0
 10
196.0
 20
242.76077195973667
 10
195.83195324283278
 20
243.0
 10
195.1385366732791
 20
244.0
 10
195.0
 20
244.18102920509895
 10
194.37810745358723
 20
245.0
 10
194.0
 20
245.46849907353464
 10
193.56061816446885
 20
246.0
 10
193.0
 20
246.65262947133664
 10
192.69008217069418
 20
247.0
 10
192.0
 20
247.74926725007097
 10
191.75973413093672
 20
248.0
 10
191.0
 20
248.76577673804542
 10
190.7591219240613
 20
249.0
 10
190.0
 20
249.7089299708841
 10
189.6776017111069
 20
250.0
 10
189.0
 20
250.5867255483091
 10
188.50264307649462
 20
251.0
 10
188.0
 20
251.40492427193027
 10
187.20982144767126
 20
252.0
 10
187.0
 20
252.1581520148973
 10
186.0
 20
252.82950055971304
 10
185.74571922710012
 20
253.0
 10
185.0
 20
253.47126850703248
 10
184.08124495994866
 20
254.00000000000003
 10
184.0
 20
254.0487221500524
 10
183.0
 20
254.56021549013496
 10
182.06568633898738
 20
255.0
  0
LWPOLYLINE
  5
3D
330
17
100
AcDbEntity
  8
0
100
AcDbPolyline
 90
139
 70
0
 10
126.0
 20
33.77636079288557
 10
125.50442041416984
 20
34.0
 10
125.0
 20
34.23745148389137
 10
124.0
 20
34.779747756522326
 10
123.68431434076768
 20
35.0
 10
123.0
 20
35.50781827354831
 10
122.43313240969091
 20
36.0
 10
122.0
 20
36.42101988053879
 10
121.46982220570905
 20
37.0
 10
121.0
 20
37.58749263581096
 10
120.69363911437219
 20
38.0
 10
120.08661027085238
 20
39.0
 10
120.0
 20
39.15335609688329
 10
119.56800741601698
 20
40.0
 10
119.16775232000933
 20
41.0
 10
119.0
 20
41.45180410099451
 10
118.80187876208933
 20
42.0
 10
118.53746102165809
 20
43.0
 10
118.33437092640827
 20
44.0
 10
118.16660247312825
 20
45.0
 10
118.02705635301687
 20
46.0
 10
118.0
 20
46.253382570027185
 10
117.9212876083751
 20
47.0
 10
117.85617356268517
 20
48.0
 10
117.82351353460076
 20
49.0
 10
117.81777422007995
 20
50.0
 10
117.83557709718153
 20
51.0
 10
117.87510064881238
 20
52.0
 10
117.93589007985787
 20
53.0
 10
118.0
 20
53.77768648858563
 10
118.01858885965572
 20
53.99999999999999
 10
118.11568880652618
 20
55.0
 10
118.22137910698888
 20
56.0
 10
118.33485821757384
 20
57.0
 10
118.45805095082612
 20
58.0
 10
118.59644085038914
 20
59.0
 10
118.76019643552743
 20
60.0
 10
118.96583985658393
 20
61.0
 10
119.0
 20
61.13711735447437
 10
119.20486991300504
 20
62.0
 10
119.4438379260371
 20
63.0
 10
119.70969517068832
 20
64.0
 10
120.0
 20
64.85852940934346
 10
120.05141440999166
 20
65.0
 10
120.42089387274314
 20
66.0
 10
120.82758744319756
 20
67.0
 10
121.0
 20
67.33909167187451
 10
121.33705112912851
 20
68.0
 10
121.8870328286316
 20
69.0
 10
122.0
 20
69.16951666032003
 10
122.55920345530083
 20
70.0
 10
123.0
 20
70.57071006051656
 10
123.35958912843411
 20
71.0
 10
124.00000000000001
 20
71.68704104582542
 10
124.32441971791964
 20
72.0
 10
125.0
 20
72.58648891535846
 10
125.54559014266933
 20
73.0
 10
126.0
 20
73.31985092191515
 10
127.0
 20
73.87510243063662
 10
127.25306534823818
 20
74.0
 10
128.0
 20
74.33790838881592
 10
129.0
 20
74.64629442906413
 10
130.0
 20
74.86605994273262
 10
130.98971048991953
 20
75.0
 10
131.0
 20
75.00147583162011
 10
132.0
 20
75.03377946232135
 10
132.4239531688063
 20
75.0
 10
133.0
 20
74.95524963644108
 10
134.0
 20
74.7801126922852
 10
135.0
 20
74.52070554516754
 10
136.0
 20
74.14428877033525
 10
136.27293898625666
 20
74.0
 10
137.0
 20
73.60807726681377
 10
137.92216579843625
 20
73.0
 10
138.0
 20
72.94123440966496
 10
139.0
 20
72.09400412809175
 10
139.09597149429047
 20
72.0
 10
139.99779327002528
 20
71.0
 10
140.0
 20
70.99730360508629
 10
140.7196495787896
 20
70.0
 10
141.0
 20
69.56708384871784
 10
141.34466440843102
 20
69.0
 10
141.83680764101058
 20
68.0
 10
142.0
 20
67.65418282577751
 10
142.2925579170208
 20
67.0
 10
142.6411203173979
 20
66.0
 10
142.96309438747144
 20
65.0
 10
143.0
 20
64.88065404382408
 10
143.25447374142396
 20
64.0
 10
143.4761906208808
 20
63.0
 10
143.6628433103626
 20
62.0
 10
143.8333776357297
 20
61.0
 10
143.9955886118314
 20
60.0
 10
144.0
 20
59.96984365342972
 10
144.1359060604777
 20
59.0
 10
144.2430407577584
 20
58.0
 10
144.32428421216412
 20
57.0
 10
144.38383271609828
 20
56.0
 10
144.42372131652672
 20
55.0
 10
144.44449964082054
 20
54.0
 10
144.44570078650264
 20
53.0
 10
144.42609636783374
 20
52.0
 10
144.38366786858143
 20
51.0
 10
144.3151726184232
 20
50.0
 10
144.21514412078574
 20
49.0
 10
144.07412841907058
 20
48.0
 10
144.0
 20
47.60782979095732
 10
143.88666530604303
 20
47.0
 10
143.68190609043313
 20
46.0
 10
143.45388049494494
 20
45.0
 10
143.17273510720958
 20
44.0
 10
143.0
 20
43.5274324944246
 10
142.8053870065299
 20
43.0
 10
142.42424116445267
 20
42.0
 10
142.0
 20
41.09548279605951
 10
141.9506493983287
 20
41.0
 10
141.4181112157853
 20
40.0
 10
141.0
 20
39.335421055129686
 10
140.77328420650574
 20
39.0
 10
140.04560632177945
 20
38.0
 10
140.0
 20
37.94572657817226
 10
139.1645328193423
 20
37.0
 10
139.0
 20
36.83315052851676
 10
138.08729715317054
 20
36.0
 10
138.0
 20
35.92527134347028
 10
137.0
 20
35.19445162367139
 10
136.70728971410935
 20
35.0
 10
136.0
 20
34.570991991620296
 10
135.0
 20
34.089360920552565
 10
134.7945939768993
 20
34.0
 10
134.0
 20
33.68197830737343
 10
133.0
 20
33.40858164626268
 10
132.0
 20
33.215408561694
 10
131.0
 20
33.0949874330731
 10
130.0
 20
33.05873613902116
 10
129.0
 20
33.11306360212241
 10
128.0
 20
33.25125042793533
 10
127.0
 20
33.46558024622198
 10
126.0
 20
33.77636079288557
  0
LWPOLYLINE
  5
3E
330
17
100
AcDbEntity
  8
0
100
AcDbPolyline
 90
43
 70
0
 10
98.0
 20
116.56307169093934
 10
97.133282901511
 20
117.0
 10
97.0
 20
117.08072739865688
 10
96.0
 20
117.93885684224544
 10
95.94486934607889
 20
118.0
 10
95.29554360984713
 20
119.0
 10
95.0
 20
119.72348476699989
 10
94.88969120596224
 20
120.0
 10
94.7089448027741
 20
121.0
 10
94.72135745193081
 20
122.0
 10
94.93305823141057
 20
123.0
 10
95.0
 20
123.15569370148779
 10
95.36627381028461
 20
124.0
 10
96.0
 20
124.91648936043387
 10
96.07383679793446
 20
125.0
 10
97.0
 20
125.78863628041475
 10
97.35682627424993
 20
126.00000000000001
 10
98.0
 20
126.33082050621115
 10
99.0
 20
126.59365730522414
 10
100.0
 20
126.66857117824577
 10
101.0
 20
126.56797670119045
 10
102.0
 20
126.27083670834054
 10
102.48913858160584
 20
126.0
 10
102.99999999999999
 20
125.67703796392566
 10
103.74595246242839
 20
125.0
 10
104.0
 20
124.68971277881505
 10
104.45700030569773
 20
124.0
 10
104.84779299313057
 20
123.0
 10
105.0
 20
122.25783327632294
 10
105.05451790683404
 20
122.0
 10
105.05976859452747
 20
121.0
 10
105.0
 20
120.70243328434412
 10
104.8628452928187
 20
120.0
 10
104.48351103573833
 20
119.0
 10
104.0
 20
118.2531352412756
 10
103.79741979140147
 20
118.0
 10
103.0
 20
117.26191062424881
 10
102.60071169238087
 20
117.0
 10
102.0
 20
116.66262341420925
 10
101.0
 20
116.3597975379276
 10
100.0
 20
116.24774446901107
 10
99.0
 20
116.31334377778418
 10
98.0
 20
116.56307169093934
  0
LWPOLYLINE
  5
3F
330
17
100
AcDbEntity
  8
0
100
AcDbPolyline
 90
51
 70
0
 10
218.0
 20
131.93679590647503
 10
217.90083952675297
 20
132.0
 10
217.0
 20
132.6198138476789
 10
216.5905839972235
 20
133.0
 10
216.0
 20
133.69818915292043
 10
215.7800721967568
 20
134.0
 10
215.2900482579231
 20
135.0
 10
215.0
 20
135.90921558363002
 10
214.97002470228526
 20
136.0
 10
214.81781326811745
 20
137.0
 10
214.8328133080755
 20
138.0
 10
215.00000000000003
 20
138.90559722782245
 10
215.01810248144557
 20
139.0
 10
215.35635346637218
 20
140.0
 10
215.87341316560043
 20
141.0
 10
216.0
 20
141.1713912758326
 10
216.6948546575892
 20
142.0
 10
217.0
 20
142.28858887337907
 10
217.9975316358299
 20
143.0
 10
218.0
 20
143.00164514780712
 10
219.0
 20
143.4704053223241
 10
220.0
 20
143.73421378840362
 10
221.0
 20
143.85384488156296
 10
222.0
 20
143.82531241153615
 10
223.0
 20
143.6501458434393
 10
224.0
 20
143.31724876990046
 10
224.5697581130199
 20
143.0
 10
225.0
 20
142.7288092794572
 10
225.86224130394106
 20
142.0
 10
226.0
 20
141.85310008050448
 10
226.64484318672078
 20
141.0
 10
227.0
 20
140.34060962345535
 10
227.17239972658706
 20
140.0
 10
227.46956196293937
 20
139.0
 10
227.59751951170313
 20
138.0
 10
227.58401544564464
 20
137.0
 10
227.42787053761043
 20
136.0
 10
227.09181115785003
 20
135.0
 10
227.0
 20
134.82921772147773
 10
226.53632493281964
 20
134.0
 10
226.0
 20
133.31491421014277
 10
225.6992333397377
 20
133.0
 10
224.99999999999997
 20
132.40972385351373
 10
224.34709412220997
 20
132.0
 10
224.0
 20
131.80016470707568
 10
223.0
 20
131.43854381749986
 10
222.0
 20
131.24306100036856
 10
221.0
 20
131.1880631379015
 10
220.0
 20
131.2767187678226
 10
219.0
 20
131.50932305523884
 10
218.0
 20
131.93679590647503
  0
LWPOLYLINE
  5
40
330
17
100
AcDbEntity
  8
0
100
AcDbPolyline
 90
125
 70
0
 10
194.0
 20
177.9787134671989
 10
193.9581185602812
 20
178.0
 10
193.0
 20
178.47980925380682
 10
192.20973842284093
 20
179.0
 10
192.00000000000003
 20
179.15961277148418
 10
191.07897428369307
 20
180.0
 10
191.0
 20
180.08620018303762
 10
190.29560083607117
 20
181.0
 10
190.0
 20
181.48188963179592
 10
189.70930853606703
 20
182.0
 10
189.33560694464725
 20
183.0
 10
189.0806575690948
 20
184.0
 10
189.0
 20
184.54366861638192
 10
188.93121364191816
 20
185.0
 10
188.90700374379284
 20
186.0
 10
189.0
 20
186.9694185815344
 10
189.00295788574337
 20
187.0
 10
189.20248214888068
 20
188.0
 10
189.4814610938629
 20
189.0
 10
189.87142368924071
 20
190.0
 10
190.0
 20
190.24255345611607
 10
190.40330049593575
 20
191.0
 10
191.0
 20
191.94819247129152
 10
191.03679440332516
 20
192.0
 10
191.7964306109019
 20
193.0
 10
192.0
 20
193.23333057137364
 10
192.70993475481518
 20
194.0
 10
193.0
 20
194.28846304681198
 10
193.77229050143856
 20
195.0
 10
194.0
 20
195.20054501837183
 10
194.99667283743867
 20
196.0
 10
195.0
 20
196.00266655808483
 10
196.0
 20
196.72733047389852
 10
196.38484814779724
 20
197.0
 10
197.0
 20
197.41933699740508
 10
197.91357512077894
 20
198.0
 10
198.0
 20
198.05706320809634
 10
199.0
 20
198.64762087967858
 10
199.59312566557176
 20
199.0
 10
200.0
 20
199.24241559919807
 10
201.0
 20
199.77527436946608
 10
201.3992765718243
 20
200.0
 10
202.0
 20
200.3297378875165
 10
202.99999999999997
 20
200.8258230769695
 10
203.32921904390957
 20
201.0
 10
204.0
 20
201.34178093533117
 10
205.0
 20
201.79572064343063
 10
205.4260631512609
 20
202.0
 10
206.0
 20
202.26881435432819
 10
207.0
 20
202.66685162407907
 10
207.83404070063628
 20
203.0
 10
208.0
 20
203.06948915665288
 10
209.0
 20
203.41434693788455
 10
210.0
 20
203.69462552298774
 10
211.0
 20
203.94849791989105
 10
211.23713487634524
 20
204.0
 10
212.0
 20
204.16052317885826
 10
213.0
 20
204.28979306362862
 10
214.0
 20
204.34547407580163
 10
215.0
 20
204.32671085849415
 10
216.0
 20
204.22245856610877
 10
217.0
 20
204.0035738837617
 10
217.010419712611
 20
204.0
 10
218.0
 20
203.67842900096753
 10
219.0
 20
203.24684621450461
 10
219.3998108403448
 20
203.0
 10
219.99999999999997
 20
202.59630270978613
 10
220.70475629931803
 20
202.0
 10
221.0
 20
201.7020037604012
 10
221.58342251756864
 20
201.0
 10
222.0
 20
200.3579801503334
 10
222.21446427360223
 20
200.0
 10
222.61863865796124
 20
199.0
 10
222.8870575956944
 20
198.0
 10
223.0
 20
197.28869376753389
 10
223.04720672613198
 20
197.0
 10
223.079709588588
 20
196.0
 10
223.0
 20
195.12643520421895
 10
222.98845926857547
 20
195.0
 10
222.7927663475928
 20
194.0
 10
222.51672309894624
 20
193.0
 10
222.1311280659845
 20
192.0
 10
222.0
 20
191.7494911303498
 10
221.60659322464554
 20
191.0
 10
221.0
 20
190.01221070328697
 10
220.9915201152604
 20
190.0
 10
220.2574068262566
 20
189.0
 10
220.0
 20
188.6931403544146
 10
219.38912850000145
 20
188.0
 10
219.0
 20
187.5919305396382
 10
218.40141378962102
 20
187.0
 10
218.0
 20
186.62298145501614
 10
217.29563259371383
 20
186.0
 10
217.0
 20
185.74553670991855
 10
216.07056150918496
 20
185.0
 10
216.0
 20
184.9430501398059
 10
215.0
 20
184.20256395394236
 10
214.72785201417003
 20
184.0
 10
214.0
 20
183.48187250803122
 10
213.29954219131423
 20
183.0
 10
213.0
 20
182.79207439664034
 10
212.0
 20
182.16247841888574
 10
211.75167379724414
 20
182.0
 10
211.0
 20
181.53211142643033
 10
210.10127469386168
 20
181.0
 10
210.0
 20
180.9372950787402
 10
209.0
 20
180.38908749214147
 10
208.28133189360852
 20
180.0
 10
208.0
 20
179.84459475217812
 10
207.0
 20
179.37158039879014
 10
206.20113023751915
 20
179.0
 10
206.0
 20
178.90306255518402
 10
205.0
 20
178.50287411616927
 10
204.0
 20
178.15337395053078
 10
203.55067909214353
 20
178.0
 10
203.0
 20
177.8156916548337
 10
202.0
 20
177.56620387276638
 10
201.0
 20
177.3815823020856
 10
200.0
 20
177.24930197611278
 10
199.0
 20
177.17467930565618
 10
198.0
 20
177.1687024569876
 10
197.0
 20
177.23787765387297
 10
196.0
 20
177.38301322952037
 10
195.0
 20
177.61325913696328
 10
194.0
 20
177.9787134671989
  0
LWPOLYLINE
  5
41
330
17
100
AcDbEntity
  8
0
100
AcDbPolyline
 90
69
 70
0
 10
86.0
 20
216.84068637482224
 10
87.0
 20
216.68159422075524
 10
88.0
 20
216.64154941129544
 10
89.0
 20
216.71074590686243
 10
89.99999999999999
 20
216.9039367436328
 10
90.28717511431556
 20
217.0
 10
91.0
 20
217.23401250272258
 10
92.0
 20
217.66060189444286
 10
92.55863291875876
 20
218.0
 10
93.0
 20
218.2950250396597
 10
93.86407622863311
 20
219.0
 10
94.0
 20
219.13023286943488
 10
94.77002475286304
 20
220.0
 10
95.0
 20
220.31208321968688
 10
95.44802714787022
 20
221.0
 10
95.92468555994476
 20
222.0
 10
96.0
 20
222.19465416847038
 10
96.2880054158733
 20
223.0
 10
96.49277628600865
 20
224.0
 10
96.58552398314278
 20
225.0
 10
96.57688666646425
 20
226.0
 10
96.46584445549453
 20
227.0
 10
96.23659673294887
 20
228.0
 10
96.0
 20
228.61107912789387
 10
95.84130210507388
 20
229.0
 10
95.33443373223963
 20
230.0
 10
95.0
 20
230.47945572827055
 10
94.5944537233043
 20
231.0
 10
94.0
 20
231.62660220341303
 10
93.57735238886241
 20
232.0
 10
93.0
 20
232.44297527141228
 10
92.04740309977798
 20
233.0
 10
92.0
 20
233.02746304758585
 10
91.0
 20
233.44307843849236
 10
90.0
 20
233.69870172786426
 10
89.0
 20
233.84652575504487
 10
88.0
 20
233.88441634005557
 10
87.0
 20
233.80827951059274
 10
86.0
 20
233.62646026747558
 10
85.0
 20
233.3320331808431
 10
84.2846886644905
 20
233.0
 10
84.0
 20
232.8550218933608
 10
83.0
 20
232.24348890462744
 10
82.69544042869408
 20
232.0
 10
82.0
 20
231.37487757699643
 10
81.64678118319713
 20
231.0
 10
81.0
 20
230.15995315306924
 10
80.8853387472743
 20
230.0
 10
80.34690468890348
 20
229.0
 10
80.0
 20
228.16157656228836
 10
79.93169591909233
 20
228.0
 10
79.65631604827787
 20
227.0
 10
79.51454948774037
 20
226.0
 10
79.47754958666917
 20
225.0
 10
79.54125512775391
 20
224.0
 10
79.7153258334033
 20
223.0
 10
80.0
 20
222.11837753632727
 10
80.04162701226342
 20
222.0
 10
80.48678605346062
 20
221.0
 10
81.0
 20
220.1654526335133
 10
81.1177172482052
 20
220.0
 10
81.97245125660847
 20
219.0
 10
82.0
 20
218.97295232394805
 10
83.0
 20
218.16099595437493
 10
83.24099743394713
 20
218.0
 10
84.0
 20
217.55397693809618
 10
85.0
 20
217.14688408581515
 10
85.47589438997323
 20
217.0
 10
86.0
 20
216.84068637482224
  0
ENDSEC
  0
SECTION
  2
OBJECTS
  0
DICTIONARY
  5
A
330
0
100
AcDbDictionary
280
0
281
1
  3
ACAD_COLOR
350
B
  3
ACAD_GROUP
350
C
  3
ACAD_LAYOUT
350
D
  3
ACAD_MATERIAL
350
E
  3
ACAD_MLEADERSTYLE
350
F
  3
ACAD_MLINESTYLE
350
10
  3
ACAD_PLOTSETTINGS
350
11
  3
ACAD_PLOTSTYLENAME
350
12
  3
ACAD_SCALELIST
350
14
  3
ACAD_TABLESTYLE
350
15
  3
ACAD_VISUALSTYLE
350
16
  3
EZDXF_META
350
2D
  0
DICTIONARY
  5
B
330
A
100
AcDbDictionary
280
0
281
1
  0
DICTIONARY
  5
C
330
A
100
AcDbDictionary
280
0
281
1
  0
DICTIONARY
  5
D
330
A
100
AcDbDictionary
280
0
281
1
  3
Model
350
1A
  3
Layout1
350
1E
  0
DICTIONARY
  5
E
330
A
100
AcDbDictionary
280
0
281
1
  3
ByBlock
350
1F
  3
ByLayer
350
20
  3
Global
350
21
  0
DICTIONARY
  5
F
330
A
100
AcDbDictionary
280
0
281
1
  3
Standard
350
2C
  0
DICTIONARY
  5
10
330
A
100
AcDbDictionary
280
0
281
1
  3
Standard
350
22
  0
DICTIONARY
  5
11
330
A
100
AcDbDictionary
280
0
281
1
  0
ACDBDICTIONARYWDFLT
  5
12
330
A
100
AcDbDictionary
280
0
281
1
  3
Normal
350
13
100
AcDbDictionaryWithDefault
340
13
  0
ACDBPLACEHOLDER
  5
13
330
12
  0
DICTIONARY
  5
14
330
A
100
AcDbDictionary
280
0
281
1
  0
DICTIONARY
  5
15
330
A
100
AcDbDictionary
280
0
281
1
  0
DICTIONARY
  5
16
330
A
100
AcDbDictionary
280
0
281
1
  0
LAYOUT
  5
1A
330
D
100
AcDbPlotSettings
  1

  2
Adobe PDF
  4
A3
  6

 40
7.5
 41
20.0
 42
7.5
 43
20.0
 44
420.0
 45
297.0
 46
0.0
 47
0.0
 48
0.0
 49
0.0
140
0.0
141
0.0
142
1.0
143
1.0
 70
1024
 72
1
 73
0
 74
5
  7

 75
16
 76
0
 77
2
 78
300
147
1.0
148
0.0
149
0.0
100
AcDbLayout
  1
Model
 70
1
 71
0
 10
0.0
 20
0.0
 11
420.0
 21
297.0
 12
0.0
 22
0.0
 32
0.0
 14
1e+20
 24
1e+20
 34
1e+20
 15
-1e+20
 25
-1e+20
 35
-1e+20
146
0.0
 13
0.0
 23
0.0
 33
0.0
 16
1.0
 26
0.0
 36
0.0
 17
0.0
 27
1.0
 37
0.0
 76
1
330
17
  0
LAYOUT
  5
1E
330
D
100
AcDbPlotSettings
  1

  2
Adobe PDF
  4
A3
  6

 40
7.5
 41
20.0
 42
7.5
 43
20.0
 44
420.0
 45
297.0
 46
0.0
 47
0.0
 48
0.0
 49
0.0
140
0.0
141
0.0
142
1.0
143
1.0
 70
0
 72
1
 73
0
 74
5
  7

 75
16
 76
0
 77
2
 78
300
147
1.0
148
0.0
149
0.0
100
AcDbLayout
  1
Layout1
 70
1
 71
1
 10
0.0
 20
0.0
 11
420.0
 21
297.0
 12
0.0
 22
0.0
 32
0.0
 14
1e+20
 24
1e+20
 34
1e+20
 15
-1e+20
 25
-1e+20
 35
-1e+20
146
0.0
 13
0.0
 23
0.0
 33
0.0
 16
1.0
 26
0.0
 36
0.0
 17
0.0
 27
1.0
 37
0.0
 76
1
330
1B
  0
MATERIAL
  5
1F
102
{ACAD_REACTORS
330
E
102
}
330
E
100
AcDbMaterial
  1
ByBlock
  2

 70
0
 40
1.0
 71
1
 41
1.0
 91
-1023410177
 42
1.0
 72
1
  3

 73
1
 74
1
 75
1
 44
0.5
 73
0
 45
1.0
 46
1.0
 77
1
  4

 78
1
 79
1
170
1
 48
1.0
171
1
  6

172
1
173
1
174
1
140
1.0
141
1.0
175
1
  7

176
1
177
1
178
1
143
1.0
179
1
  8

270
1
271
1
272
1
145
1.0
146
1.0
273
1
  9

274
1
275
1
276
1
 42
1.0
 72
1
  3

 73
1
 74
1
 75
1
 94
63
  0
MATERIAL
  5
20
102
{ACAD_REACTORS
330
E
102
}
330
E
100
AcDbMaterial
  1
ByLayer
  2

 70
0
 40
1.0
 71
1
 41
1.0
 91
-1023410177
 42
1.0
 72
1
  3

 73
1
 74
1
 75
1
 44
0.5
 73
0
 45
1.0
 46
1.0
 77
1
  4

 78
1
 79
1
170
1
 48
1.0
171
1
  6

172
1
173
1
174
1
140
1.0
141
1.0
175
1
  7

176
1
177
1
178
1
143
1.0
179
1
  8

270
1
271
1
272
1
145
1.0
146
1.0
273
1
  9

274
1
275
1
276
1
 42
1.0
 72
1
  3

 73
1
 74
1
 75
1
 94
63
  0
MATERIAL
  5
21
102
{ACAD_REACTORS
330
E
102
}
330
E
100
AcDbMaterial
  1
Global
  2

 70
0
 40
1.0
 71
1
 41
1.0
 91
-1023410177
 42
1.0
 72
1
  3

 73
1
 74
1
 75
1
 44
0.5
 73
0
 45
1.0
 46
1.0
 77
1
  4

 78
1
 79
1
170
1
 48
1.0
171
1
  6

172
1
173
1
174
1
140
1.0
141
1.0
175
1
  7

176
1
177
1
178
1
143
1.0
179
1
  8

270
1
271
1
272
1
145
1.0
146
1.0
273
1
  9

274
1
275
1
276
1
 42
1.0
 72
1
  3

 73
1
 74
1
 75
1
 94
63
  0
MLINESTYLE
  5
22
102
{ACAD_REACTORS
330
10
102
}
330
10
100
AcDbMlineStyle
  2
Standard
 70
0
  3

 62
256
 51
90.0
 52
90.0
 71
2
 49
0.5
 62
256
  6
BYLAYER
 49
-0.5
 62
256
  6
BYLAYER
  0
MLEADERSTYLE
  5
2C
102
{ACAD_REACTORS
330
F
102
}
330
F
100
AcDbMLeaderStyle
179
2
170
2
171
1
172
0
 90
2
 40
0.0
 41
0.0
173
1
 91
-1056964608
 92
-2
290
1
 42
2.0
291
1
 43
8.0
  3
Standard
 44
4.0
300

342
29
174
1
175
1
176
0
178
1
 93
-1056964608
 45
4.0
292
0
297
0
 46
4.0
 94
-1056964608
 47
1.0
 49
1.0
140
1.0
294
1
141
0.0
177
0
142
1.0
295
0
296
0
143
3.75
271
0
272
9
273
9
  0
DICTIONARY
  5
2D
330
A
100
AcDbDictionary
281
1
  3
CREATED_BY_EZDXF
350
2E
  3
WRITTEN_BY_EZDXF
350
44
  0
DICTIONARYVAR
  5
2E
330
2D
100
DictionaryVariables
280
0
  1
1.0.2 @ 2023-06-06T12:50:23.572881+00:00
  0
DICTIONARYVAR
  5
44
330
2D
100
DictionaryVariables
280
0
  1
1.0.2 @ 2023-06-06T12:50:23.581881+00:00
  0
ENDSEC
  0
EOF
