  0
SECTION
  2
HEADER
  9
$ACADVER
  1
AC1015
  9
$ACADMAINTVER
 70
6
  9
$DWGCODEPAGE
  3
ANSI_1252
  9
$INSBASE
 10
0.0
 20
0.0
 30
0.0
  9
$EXTMIN
 10
1e+20
 20
1e+20
 30
1e+20
  9
$EXTMAX
 10
-1e+20
 20
-1e+20
 30
-1e+20
  9
$LIMMIN
 10
0.0
 20
0.0
  9
$LIMMAX
 10
420.0
 20
297.0
  9
$ORTHOMODE
 70
0
  9
$REGENMODE
 70
1
  9
$FILLMODE
 70
1
  9
$QTEXTMODE
 70
0
  9
$MIRRTEXT
 70
1
  9
$LTSCALE
 40
1.0
  9
$ATTMODE
 70
1
  9
$TEXTSIZE
 40
2.5
  9
$TRACEWID
 40
1.0
  9
$TEXTSTYLE
  7
Standard
  9
$CLAYER
  8
0
  9
$CELTYPE
  6
ByLayer
  9
$CECOLOR
 62
256
  9
$CELTSCALE
 40
1.0
  9
$DISPSILH
 70
0
  9
$DIMSCALE
 40
1.0
  9
$DIMASZ
 40
2.5
  9
$DIMEXO
 40
0.625
  9
$DIMDLI
 40
3.75
  9
$DIMRND
 40
0.0
  9
$DIMDLE
 40
0.0
  9
$DIMEXE
 40
1.25
  9
$DIMTP
 40
0.0
  9
$DIMTM
 40
0.0
  9
$DIMTXT
 40
2.5
  9
$DIMCEN
 40
2.5
  9
$DIMTSZ
 40
0.0
  9
$DIMTOL
 70
0
  9
$DIMLIM
 70
0
  9
$DIMTIH
 70
0
  9
$DIMTOH
 70
0
  9
$DIMSE1
 70
0
  9
$DIMSE2
 70
0
  9
$DIMTAD
 70
1
  9
$DIMZIN
 70
8
  9
$DIMBLK
  1

  9
$DIMASO
 70
1
  9
$DIMSHO
 70
1
  9
$DIMPOST
  1

  9
$DIMAPOST
  1

  9
$DIMALT
 70
0
  9
$DIMALTD
 70
3
  9
$DIMALTF
 40
0.03937007874
  9
$DIMLFAC
 40
1.0
  9
$DIMTOFL
 70
1
  9
$DIMTVP
 40
0.0
  9
$DIMTIX
 70
0
  9
$DIMSOXD
 70
0
  9
$DIMSAH
 70
0
  9
$DIMBLK1
  1

  9
$DIMBLK2
  1

  9
$DIMSTYLE
  2
ISO-25
  9
$DIMCLRD
 70
0
  9
$DIMCLRE
 70
0
  9
$DIMCLRT
 70
0
  9
$DIMTFAC
 40
1.0
  9
$DIMGAP
 40
0.625
  9
$DIMJUST
 70
0
  9
$DIMSD1
 70
0
  9
$DIMSD2
 70
0
  9
$DIMTOLJ
 70
0
  9
$DIMTZIN
 70
8
  9
$DIMALTZ
 70
0
  9
$DIMALTTZ
 70
0
  9
$DIMUPT
 70
0
  9
$DIMDEC
 70
2
  9
$DIMTDEC
 70
2
  9
$DIMALTU
 70
2
  9
$DIMALTTD
 70
3
  9
$DIMTXSTY
  7
Standard
  9
$DIMAUNIT
 70
0
  9
$DIMADEC
 70
0
  9
$DIMALTRND
 40
0.0
  9
$DIMAZIN
 70
0
  9
$DIMDSEP
 70
44
  9
$DIMATFIT
 70
3
  9
$DIMFRAC
 70
0
  9
$DIMLDRBLK
  1

  9
$DIMLUNIT
 70
2
  9
$DIMLWD
 70
-2
  9
$DIMLWE
 70
-2
  9
$DIMTMOVE
 70
0
  9
$LUNITS
 70
2
  9
$LUPREC
 70
4
  9
$SKETCHINC
 40
1.0
  9
$FILLETRAD
 40
10.0
  9
$AUNITS
 70
0
  9
$AUPREC
 70
2
  9
$MENU
  1
.
  9
$ELEVATION
 40
0.0
  9
$PELEVATION
 40
0.0
  9
$THICKNESS
 40
0.0
  9
$LIMCHECK
 70
0
  9
$CHAMFERA
 40
0.0
  9
$CHAMFERB
 40
0.0
  9
$CHAMFERC
 40
0.0
  9
$CHAMFERD
 40
0.0
  9
$SKPOLY
 70
0
  9
$TDCREATE
 40
2460102.6190625
  9
$TDUCREATE
 40
2458532.153996898
  9
$TDUPDATE
 40
2460102.6190625
  9
$TDUUPDATE
 40
2458532.1544311
  9
$TDINDWG
 40
0.0
  9
$TDUSRTIMER
 40
0.0
  9
$USRTIMER
 70
1
  9
$ANGBASE
 50
0.0
  9
$ANGDIR
 70
0
  9
$PDMODE
 70
0
  9
$PDSIZE
 40
0.0
  9
$PLINEWID
 40
0.0
  9
$SPLFRAME
 70
0
  9
$SPLINETYPE
 70
6
  9
$SPLINESEGS
 70
8
  9
$HANDSEED
  5
47
  9
$SURFTAB1
 70
6
  9
$SURFTAB2
 70
6
  9
$SURFTYPE
 70
6
  9
$SURFU
 70
6
  9
$SURFV
 70
6
  9
$UCSBASE
  2

  9
$UCSNAME
  2

  9
$UCSORG
 10
0.0
 20
0.0
 30
0.0
  9
$UCSXDIR
 10
1.0
 20
0.0
 30
0.0
  9
$UCSYDIR
 10
0.0
 20
1.0
 30
0.0
  9
$UCSORTHOREF
  2

  9
$UCSORTHOVIEW
 70
0
  9
$UCSORGTOP
 10
0.0
 20
0.0
 30
0.0
  9
$UCSORGBOTTOM
 10
0.0
 20
0.0
 30
0.0
  9
$UCSORGLEFT
 10
0.0
 20
0.0
 30
0.0
  9
$UCSORGRIGHT
 10
0.0
 20
0.0
 30
0.0
  9
$UCSORGFRONT
 10
0.0
 20
0.0
 30
0.0
  9
$UCSORGBACK
 10
0.0
 20
0.0
 30
0.0
  9
$PUCSBASE
  2

  9
$PUCSNAME
  2

  9
$PUCSORG
 10
0.0
 20
0.0
 30
0.0
  9
$PUCSXDIR
 10
1.0
 20
0.0
 30
0.0
  9
$PUCSYDIR
 10
0.0
 20
1.0
 30
0.0
  9
$PUCSORTHOREF
  2

  9
$PUCSORTHOVIEW
 70
0
  9
$PUCSORGTOP
 10
0.0
 20
0.0
 30
0.0
  9
$PUCSORGBOTTOM
 10
0.0
 20
0.0
 30
0.0
  9
$PUCSORGLEFT
 10
0.0
 20
0.0
 30
0.0
  9
$PUCSORGRIGHT
 10
0.0
 20
0.0
 30
0.0
  9
$PUCSORGFRONT
 10
0.0
 20
0.0
 30
0.0
  9
$PUCSORGBACK
 10
0.0
 20
0.0
 30
0.0
  9
$USERI1
 70
0
  9
$USERI2
 70
0
  9
$USERI3
 70
0
  9
$USERI4
 70
0
  9
$USERI5
 70
0
  9
$USERR1
 40
0.0
  9
$USERR2
 40
0.0
  9
$USERR3
 40
0.0
  9
$USERR4
 40
0.0
  9
$USERR5
 40
0.0
  9
$WORLDVIEW
 70
1
  9
$SHADEDGE
 70
3
  9
$SHADEDIF
 70
70
  9
$TILEMODE
 70
1
  9
$MAXACTVP
 70
64
  9
$PINSBASE
 10
0.0
 20
0.0
 30
0.0
  9
$PLIMCHECK
 70
0
  9
$PEXTMIN
 10
1e+20
 20
1e+20
 30
1e+20
  9
$PEXTMAX
 10
-1e+20
 20
-1e+20
 30
-1e+20
  9
$PLIMMIN
 10
0.0
 20
0.0
  9
$PLIMMAX
 10
420.0
 20
297.0
  9
$UNITMODE
 70
0
  9
$VISRETAIN
 70
1
  9
$PLINEGEN
 70
0
  9
$PSLTSCALE
 70
1
  9
$TREEDEPTH
 70
3020
  9
$CMLSTYLE
  2
Standard
  9
$CMLJUST
 70
0
  9
$CMLSCALE
 40
20.0
  9
$PROXYGRAPHICS
 70
1
  9
$MEASUREMENT
 70
1
  9
$CELWEIGHT
370
-1
  9
$ENDCAPS
280
0
  9
$JOINSTYLE
280
0
  9
$LWDISPLAY
290
0
  9
$INSUNITS
 70
6
  9
$HYPERLINKBASE
  1

  9
$STYLESHEET
  1

  9
$XEDIT
290
1
  9
$CEPSNTYPE
380
0
  9
$PSTYLEMODE
290
1
  9
$FINGERPRINTGUID
  2
{ACD1AB4A-C9A2-4528-B84F-53F4FB54E881}
  9
$VERSIONGUID
  2
{EBC52DB0-EC9F-4FB9-AF7F-CDBAE081E245}
  9
$EXTNAMES
290
1
  9
$PSVPSCALE
 40
0.0
  9
$OLESTARTUP
290
0
  0
ENDSEC
  0
SECTION
  2
CLASSES
  0
CLASS
  1
ACDBDICTIONARYWDFLT
  2
AcDbDictionaryWithDefault
  3
ObjectDBX Classes
 90
0
280
0
281
0
  0
CLASS
  1
SUN
  2
AcDbSun
  3
SCENEOE
 90
1153
280
0
281
0
  0
CLASS
  1
VISUALSTYLE
  2
AcDbVisualStyle
  3
ObjectDBX Classes
 90
4095
280
0
281
0
  0
CLASS
  1
MATERIAL
  2
AcDbMaterial
  3
ObjectDBX Classes
 90
1153
280
0
281
0
  0
CLASS
  1
SCALE
  2
AcDbScale
  3
ObjectDBX Classes
 90
1153
280
0
281
0
  0
CLASS
  1
TABLESTYLE
  2
AcDbTableStyle
  3
ObjectDBX Classes
 90
4095
280
0
281
0
  0
CLASS
  1
MLEADERSTYLE
  2
AcDbMLeaderStyle
  3
ACDB_MLEADERSTYLE_CLASS
 90
4095
280
0
281
0
  0
CLASS
  1
DICTIONARYVAR
  2
AcDbDictionaryVar
  3
ObjectDBX Classes
 90
0
280
0
281
0
  0
CLASS
  1
CELLSTYLEMAP
  2
AcDbCellStyleMap
  3
ObjectDBX Classes
 90
1152
280
0
281
0
  0
CLASS
  1
MENTALRAYRENDERSETTINGS
  2
AcDbMentalRayRenderSettings
  3
SCENEOE
 90
1024
280
0
281
0
  0
CLASS
  1
ACDBDETAILVIEWSTYLE
  2
AcDbDetailViewStyle
  3
ObjectDBX Classes
 90
1025
280
0
281
0
  0
CLASS
  1
ACDBSECTIONVIEWSTYLE
  2
AcDbSectionViewStyle
  3
ObjectDBX Classes
 90
1025
280
0
281
0
  0
CLASS
  1
RASTERVARIABLES
  2
AcDbRasterVariables
  3
ISM
 90
0
280
0
281
0
  0
CLASS
  1
ACDBPLACEHOLDER
  2
AcDbPlaceHolder
  3
ObjectDBX Classes
 90
0
280
0
281
0
  0
CLASS
  1
LAYOUT
  2
AcDbLayout
  3
ObjectDBX Classes
 90
0
280
0
281
0
  0
ENDSEC
  0
SECTION
  2
TABLES
  0
TABLE
  2
VPORT
  5
8
330
0
100
AcDbSymbolTable
 70
1
  0
VPORT
  5
23
330
8
100
AcDbSymbolTableRecord
100
AcDbViewportTableRecord
  2
*Active
 70
0
 10
0.0
 20
0.0
 11
1.0
 21
1.0
 12
0.0
 22
0.0
 13
0.0
 23
0.0
 14
0.5
 24
0.5
 15
0.5
 25
0.5
 16
0.0
 26
0.0
 36
1.0
 17
0.0
 27
0.0
 37
0.0
 40
1000.0
 41
1.34
 42
50.0
 43
0.0
 44
0.0
 50
0.0
 51
0.0
 71
0
 72
1000
 73
1
 74
3
 75
0
 76
0
 77
0
 78
0
281
0
 65
0
146
0.0
  0
ENDTAB
  0
TABLE
  2
LTYPE
  5
2
330
0
100
AcDbSymbolTable
 70
3
  0
LTYPE
  5
24
330
2
100
AcDbSymbolTableRecord
100
AcDbLinetypeTableRecord
  2
ByBlock
 70
0
  3

 72
65
 73
0
 40
0.0
  0
LTYPE
  5
25
330
2
100
AcDbSymbolTableRecord
100
AcDbLinetypeTableRecord
  2
ByLayer
 70
0
  3

 72
65
 73
0
 40
0.0
  0
LTYPE
  5
26
330
2
100
AcDbSymbolTableRecord
100
AcDbLinetypeTableRecord
  2
Continuous
 70
0
  3

 72
65
 73
0
 40
0.0
  0
ENDTAB
  0
TABLE
  2
LAYER
  5
1
330
0
100
AcDbSymbolTable
 70
2
  0
LAYER
  5
27
330
1
100
AcDbSymbolTableRecord
100
AcDbLayerTableRecord
  2
0
 70
0
 62
7
  6
Continuous
370
-3
390
13
  0
LAYER
  5
28
330
1
100
AcDbSymbolTableRecord
100
AcDbLayerTableRecord
  2
Defpoints
 70
0
 62
7
  6
Continuous
290
0
370
-3
390
13
  0
ENDTAB
  0
TABLE
  2
STYLE
  5
5
330
0
100
AcDbSymbolTable
 70
1
  0
STYLE
  5
29
330
5
100
AcDbSymbolTableRecord
100
AcDbTextStyleTableRecord
  2
Standard
 70
0
 40
0.0
 41
1.0
 50
0.0
 71
0
 42
2.5
  3
txt
  4

  0
ENDTAB
  0
TABLE
  2
VIEW
  5
7
330
0
100
AcDbSymbolTable
 70
0
  0
ENDTAB
  0
TABLE
  2
UCS
  5
6
330
0
100
AcDbSymbolTable
 70
0
  0
ENDTAB
  0
TABLE
  2
APPID
  5
3
330
0
100
AcDbSymbolTable
 70
3
  0
APPID
  5
2A
330
3
100
AcDbSymbolTableRecord
100
AcDbRegAppTableRecord
  2
ACAD
 70
0
  0
APPID
  5
44
330
3
100
AcDbSymbolTableRecord
100
AcDbRegAppTableRecord
  2
HATCHBACKGROUNDCOLOR
 70
0
  0
APPID
  5
45
330
3
100
AcDbSymbolTableRecord
100
AcDbRegAppTableRecord
  2
EZDXF
 70
0
  0
ENDTAB
  0
TABLE
  2
DIMSTYLE
  5
4
330
0
100
AcDbSymbolTable
 70
1
100
AcDbDimStyleTable
  0
DIMSTYLE
105
2B
330
4
100
AcDbSymbolTableRecord
100
AcDbDimStyleTableRecord
  2
Standard
 70
0
  3

  4

 40
1.0
 41
2.5
 42
0.625
 43
3.75
 44
1.25
 45
0.0
 46
0.0
 47
0.0
 48
0.0
140
2.5
141
2.5
142
0.0
143
0.03937007874
144
1.0
145
0.0
146
1.0
147
0.625
148
0.0
 71
0
 72
0
 73
0
 74
0
 75
0
 76
0
 77
1
 78
8
 79
3
170
0
171
3
172
1
173
0
174
0
175
0
176
0
177
0
178
0
179
2
271
2
272
2
273
2
274
3
275
0
276
0
277
2
278
44
279
0
280
0
281
0
282
0
283
0
284
8
285
0
286
0
288
0
289
3
371
-2
372
-2
  0
ENDTAB
  0
TABLE
  2
BLOCK_RECORD
  5
9
330
0
100
AcDbSymbolTable
 70
2
  0
BLOCK_RECORD
  5
17
330
9
100
AcDbSymbolTableRecord
100
AcDbBlockTableRecord
  2
*Model_Space
340
1A
  0
BLOCK_RECORD
  5
1B
330
9
100
AcDbSymbolTableRecord
100
AcDbBlockTableRecord
  2
*Paper_Space
340
1E
  0
ENDTAB
  0
ENDSEC
  0
SECTION
  2
BLOCKS
  0
BLOCK
  5
18
330
17
100
AcDbEntity
  8
0
100
AcDbBlockBegin
  2
*Model_Space
 70
0
 10
0.0
 20
0.0
 30
0.0
  3
*Model_Space
  1

  0
ENDBLK
  5
19
330
17
100
AcDbEntity
  8
0
100
AcDbBlockEnd
  0
BLOCK
  5
1C
330
1B
100
AcDbEntity
  8
0
100
AcDbBlockBegin
  2
*Paper_Space
 70
0
 10
0.0
 20
0.0
 30
0.0
  3
*Paper_Space
  1

  0
ENDBLK
  5
1D
330
1B
100
AcDbEntity
  8
0
100
AcDbBlockEnd
  0
ENDSEC
  0
SECTION
  2
ENTITIES
  0
LWPOLYLINE
  5
2F
330
17
100
AcDbEntity
  8
0
100
AcDbPolyline
 90
5
 70
0
 10
0.0
 20
0.0
 10
0.0
 20
255.0
 10
255.0
 20
255.0
 10
255.0
 20
0.0
 10
0.0
 20
0.0
  0
LWPOLYLINE
  5
30
330
17
100
AcDbEntity
  8
0
100
AcDbPolyline
 90
584
 70
0
 10
54.467968129015276
 20
0.0
 10
54.0
 20
0.7209786272646287
 10
53.804219805588644
 20
1.0
 10
53.05637001333535
 20
2.0
 10
53.0
 20
2.066117368277223
 10
52.169320465546136
 20
3.0
 10
52.0
 20
3.17327483946829
 10
51.12489528771955
 20
4.0
 10
51.0
 20
4.111653175665711
 10
50.0
 20
4.908056253056209
 10
49.87906081418079
 20
5.0
 10
49.0
 20
5.610450525841332
 10
48.38784819031709
 20
6.0
 10
48.0
 20
6.241626967217695
 10
47.0
 20
6.7589812344030324
 10
46.52113519641381
 20
7.0
 10
46.0
 20
7.2554626608264865
 10
45.0
 20
7.649496967334709
 10
44.06372398811273
 20
8.0
 10
44.0
 20
8.025414785231783
 10
43.0
 20
8.351955861777444
 10
42.0
 20
8.610991604838446
 10
41.0
 20
8.847966447369647
 10
40.345296581745664
 20
9.0
 10
40.0
 20
9.082002528335078
 10
39.0
 20
9.273627937115688
 10
38.0
 20
9.428070408894875
 10
37.0
 20
9.561987160432611
 10
36.0
 20
9.687472473236323
 10
35.0
 20
9.814306393119091
 10
34.0
 20
9.951716271227308
 10
33.68211267799594
 20
10.0
 10
33.0
 20
10.101779300938755
 10
32.0
 20
10.24882638396735
 10
31.0
 20
10.399697727158063
 10
30.0
 20
10.566276339794769
 10
29.0
 20
10.767432732619756
 10
28.119522384291432
 20
11.0
 10
28.0
 20
11.033578715315878
 10
27.0
 20
11.330799894622778
 10
26.0
 20
11.652494797353741
 10
25.16329067342367
 20
12.0
 10
25.0
 20
12.073550419443603
 10
24.0
 20
12.542874915748243
 10
23.192363221834178
 20
13.0
 10
23.0
 20
13.119432705680433
 10
22.0
 20
13.778281103701698
 10
21.717664516645087
 20
14.0
 10
21.0
 20
14.5974153108228
 10
20.571405102186098
 20
15.0
 10
20.0
 20
15.5933204980651
 10
19.642457698209192
 20
16.0
 10
19.0
 20
16.842820894237843
 10
18.88467064272224
 20
17.0
 10
18.286007075796167
 20
18.0
 10
18.0
 20
18.5345309318168
 10
17.76037213664069
 20
19.0
 10
17.374888022547097
 20
20.0
 10
17.052335487806978
 20
21.0
 10
17.0
 20
21.188305358017583
 10
16.786449390489793
 20
22.0
 10
16.616241009681147
 20
23.0
 10
16.513562642513698
 20
24.0
 10
16.466078874533252
 20
25.0
 10
16.46862731245088
 20
26.0
 10
16.51799810246044
 20
27.0
 10
16.612515521933112
 20
28.0
 10
16.754771919218417
 20
29.0
 10
16.95558528387621
 20
30.0
 10
17.0
 20
30.172425893179316
 10
17.20396720421361
 20
31.0
 10
17.4560371480014
 20
32.0
 10
17.733141552835974
 20
33.0
 10
18.0
 20
33.78978524835833
 10
18.075131897243708
 20
34.0
 10
18.41645144267948
 20
35.0
 10
18.75721776956067
 20
36.0
 10
19.0
 20
36.617825416130884
 10
19.154053584391864
 20
37.0
 10
19.52018485484094
 20
38.0
 10
19.893087345522197
 20
39.0
 10
20.0
 20
39.25896831971786
 10
20.29357404843686
 20
40.0
 10
20.6442601786289
 20
41.0
 10
21.0
 20
41.95842404558525
 10
21.016676325225376
 20
42.0
 10
21.371724526490233
 20
43.0
 10
21.681939349996444
 20
44.0
 10
22.0
 20
44.983748293029024
 10
22.005682564929334
 20
45.0
 10
22.309247338966365
 20
46.0
 10
22.560297959483147
 20
47.0
 10
22.79459812209059
 20
48.0
 10
23.0
 20
48.86802617274619
 10
23.03294482566523
 20
49.0
 10
23.239069106749945
 20
50.0
 10
23.39913134506525
 20
51.0
 10
23.526246714420218
 20
52.0
 10
23.626604735147076
 20
53.0
 10
23.701253071978552
 20
54.0
 10
23.74813173379669
 20
55.0
 10
23.764129441895946
 20
56.0
 10
23.74675483120022
 20
57.0
 10
23.694920516870507
 20
58.0
 10
23.60831282742467
 20
59.0
 10
23.484901756274958
 20
60.0
 10
23.316337327803815
 20
61.0
 10
23.081067420060485
 20
62.0
 10
23.0
 20
62.25909092408843
 10
22.775511735265372
 20
63.0
 10
22.450267458311007
 20
64.0
 10
22.04196357963373
 20
65.0
 10
22.0
 20
65.08248432398065
 10
21.551935105354364
 20
66.0
 10
21.0
 20
66.98165246336738
 10
20.988447461814665
 20
67.0
 10
20.332725534505972
 20
68.0
 10
20.0
 20
68.43707415584448
 10
19.547379761878997
 20
69.0
 10
19.0
 20
69.61905154032802
 10
18.63633888009483
 20
70.0
 10
18.0
 20
70.61610930059348
 10
17.571438414166522
 20
71.0
 10
17.0
 20
71.47953934856969
 10
16.322650338137027
 20
72.0
 10
16.0
 20
72.2411544029223
 10
15.0
 20
72.89783536926983
 10
14.844690260600382
 20
73.0
 10
14.0
 20
73.51632985966464
 10
13.160013617214423
 20
74.0
 10
13.0
 20
74.09553871884094
 10
12.0
 20
74.62575379310812
 10
11.316432923168769
 20
75.0
 10
11.0
 20
75.17828842880932
 10
10.0
 20
75.70018391945229
 10
9.484800610597365
 20
76.0
 10
9.0
 20
76.2876017727234
 10
8.0
 20
76.88648538116709
 10
7.83698429658028
 20
77.0
 10
7.0
 20
77.58638401258843
 10
6.4790267419540335
 20
78.0
 10
6.0
 20
78.41178875990983
 10
5.390657089369886
 20
79.0
 10
5.0
 20
79.42812091949159
 10
4.534782989009525
 20
80.0
 10
4.0
 20
80.81251080222759
 10
3.881478213222215
 20
81.0
 10
3.428946451272055
 20
82.0
 10
3.1284253414334815
 20
83.0
 10
3.0
 20
83.7252082484348
 10
2.949514420447353
 20
84.0
 10
2.926793057511719
 20
85.0
 10
3.0
 20
85.50725224550905
 10
3.0701386040538288
 20
86.0
 10
3.3619425742847637
 20
87.0
 10
3.836816822620233
 20
88.0
 10
4.0
 20
88.23079074931167
 10
4.618473893506847
 20
89.0
 10
5.0
 20
89.36829103087902
 10
5.859093791115578
 20
90.0
 10
6.0
 20
90.09428296730614
 10
7.0
 20
90.55714127428814
 10
8.0
 20
90.84902073400009
 10
8.84743782758875
 20
91.0
 10
9.0
 20
91.02836174099812
 10
10.0
 20
91.08410169056825
 10
11.0
 20
91.02441444345077
 10
11.147997580026615
 20
91.0
 10
12.0
 20
90.86625818016009
 10
13.0
 20
90.644508602625
 10
14.0
 20
90.36666295712519
 10
14.992982760425255
 20
89.99999999999999
 10
15.0
 20
89.99713790592483
 10
16.0
 20
89.583679372279
 10
17.0
 20
89.15823736633978
 10
17.3231111808154
 20
89.0
 10
18.0
 20
88.67711967468216
 10
19.0
 20
88.23797019692817
 10
19.50352176251164
 20
88.0
 10
20.0
 20
87.76655781839294
 10
21.0
 20
87.36721384823588
 10
21.936591238205153
 20
87.0
 10
22.0
 20
86.97343090935651
 10
23.0
 20
86.62880030214353
 10
24.0
 20
86.36075602475078
 10
25.0
 20
86.12984253883948
 10
25.657912030057595
 20
86.0
 10
26.0
 20
85.9307355878707
 10
27.0
 20
85.79964374289816
 10
28.0
 20
85.73457421253848
 10
29.0
 20
85.72875266781745
 10
30.0
 20
85.78194357914793
 10
31.0
 20
85.90027868727567
 10
31.51873583351036
 20
86.0
 10
32.0
 20
86.09206720992273
 10
33.0
 20
86.32314098313057
 10
34.0
 20
86.59386742848649
 10
35.0
 20
86.94671981899657
 10
35.12012717809273
 20
87.0
 10
36.0
 20
87.37176932532753
 10
37.0
 20
87.82647074345466
 10
37.3129383892529
 20
88.0
 10
38.0
 20
88.37875917872066
 10
39.0
 20
88.9631413226124
 10
39.05495980196708
 20
89.0
 10
40.0
 20
89.61336824026401
 10
40.5457375050852
 20
90.0
 10
41.0
 20
90.33156818323214
 10
41.89567513005298
 20
91.0
 10
42.0
 20
91.08256167963681
 10
43.0
 20
91.8626562264292
 10
43.165323356048546
 20
92.0
 10
44.0
 20
92.6847839810795
 10
44.372596276059305
 20
93.0
 10
45.0
 20
93.52905941816249
 10
45.555226213184795
 20
94.0
 10
46.0
 20
94.37792036518033
 10
46.74485340754383
 20
95.0
 10
47.0
 20
95.21482229386157
 10
47.97456200167562
 20
96.0
 10
48.0
 20
96.02093502832605
 10
49.0
 20
96.79012218888965
 10
49.27212666779166
 20
97.0
 10
50.0
 20
97.53620412884396
 10
50.65634311036496
 20
98.0
 10
51.0
 20
98.24135203094377
 10
52.0
 20
98.86690151512077
 10
52.20991998725802
 20
99.0
 10
53.0
 20
99.46764158856129
 10
53.990851654968935
 20
100.0
 10
54.0
 20
100.00518616275357
 10
55.0
 20
100.48964989870436
 10
56.0
 20
100.91463237574749
 10
56.20129491004399
 20
101.0
 10
57.0
 20
101.31616863489485
 10
58.0
 20
101.62874128461738
 10
59.0
 20
101.9141348337102
 10
59.319456727786694
 20
102.0
 10
60.0
 20
102.17707302976223
 10
61.0
 20
102.36791697517614
 10
62.0
 20
102.50693548531834
 10
62.99999999999999
 20
102.60583499442541
 10
64.0
 20
102.66798203607996
 10
65.0
 20
102.69318732319309
 10
66.0
 20
102.6809706241394
 10
67.0
 20
102.63191180383771
 10
68.0
 20
102.54694190363593
 10
69.0
 20
102.42473652334374
 10
70.0
 20
102.25758365621027
 10
71.0
 20
102.02602276748532
 10
71.08786743204769
 20
102.0
 10
72.0
 20
101.7448314596373
 10
73.0
 20
101.45031529735635
 10
74.0
 20
101.0916381575718
 10
74.20466623201835
 20
101.0
 10
75.0
 20
100.6545685075075
 10
76.0
 20
100.19404205450074
 10
76.34321844438153
 20
100.0
 10
77.0
 20
99.62533940739485
 10
78.0
 20
99.00348740725806
 10
78.00483054524156
 20
99.0
 10
79.0
 20
98.2847123466268
 10
79.34855527099735
 20
98.0
 10
80.0
 20
97.43865371206323
 10
80.46452725061653
 20
97.0
 10
81.0
 20
96.45220572158149
 10
81.40990536744641
 20
96.0
 10
82.0
 20
95.27614197689373
 10
82.21519589584629
 20
95.0
 10
82.87643162351073
 20
94.0
 10
83.0
 20
93.80304941810225
 10
83.45994722483798
 20
93.0
 10
83.93413478801124
 20
92.0
 10
84.0
 20
91.85309223760946
 10
84.35069329591256
 20
91.0
 10
84.65698358464658
 20
90.0
 10
84.9175775702135
 20
88.99999999999999
 10
85.0
 20
88.62912206950011
 10
85.13738237898387
 20
88.0
 10
85.27971672928773
 20
87.0
 10
85.36127938277978
 20
86.0
 10
85.39274940178451
 20
85.0
 10
85.37916879779641
 20
84.0
 10
85.32273161089475
 20
83.0
 10
85.22278369030015
 20
82.0
 10
85.07413837177373
 20
81.0
 10
85.0
 20
80.62736971133936
 10
84.87722310506842
 20
80.0
 10
84.66940256546263
 20
79.0
 10
84.4492457676403
 20
78.0
 10
84.19681609167358
 20
77.0
 10
84.0
 20
76.35817057945319
 10
83.88706884699937
 20
76.0
 10
83.58725820659853
 20
75.0
 10
83.28695582550061
 20
74.0
 10
83.0
 20
73.17566091609429
 10
82.93509066987943
 20
73.0
 10
82.59257090439485
 20
72.0
 10
82.26255919056149
 20
71.0
 10
82.0
 20
70.29718324229293
 10
81.88466708170887
 20
70.0
 10
81.53414608614861
 20
69.0
 10
81.19030176688673
 20
68.0
 10
81.0
 20
67.50647648666089
 10
80.80457471075287
 20
67.0
 10
80.46115671635184
 20
66.0
 10
80.1108075448453
 20
65.0
 10
80.0
 20
64.71510292105472
 10
79.7317005190991
 20
64.0
 10
79.3973425350786
 20
63.0
 10
79.04236576824665
 20
62.0
 10
79.0
 20
61.891276889281514
 10
78.67484635847387
 20
61.0
 10
78.34535766762926
 20
60.0
 10
78.0
 20
59.04470316417587
 10
77.98250688289727
 20
58.99999999999999
 10
77.62376868257272
 20
58.0
 10
77.29036635460888
 20
57.0
 10
77.0
 20
56.22441957949733
 10
76.91168244975418
 20
56.0
 10
76.55266914727181
 20
55.0
 10
76.1984191665665
 20
54.0
 10
76.0
 20
53.51153017883131
 10
75.7917703224781
 20
53.0
 10
75.41638874883093
 20
52.0
 10
75.0009368273627
 20
51.0
 10
75.0
 20
50.998005769687275
 10
74.56582488860244
 20
50.0
 10
74.12404581130262
 20
49.0
 10
74.0
 20
48.75944395239938
 10
73.61961438488242
 20
48.0
 10
73.10796660908038
 20
47.0
 10
73.0
 20
46.819439139470376
 10
72.521117122407
 20
46.0
 10
72.0
 20
45.181289542736735
 10
71.87517190839989
 20
45.0
 10
71.16861388737634
 20
44.0
 10
71.0
 20
43.791674246976704
 10
70.33181411704943
 20
43.0
 10
70.0
 20
42.645716965387265
 10
69.33897710198511
 20
42.0
 10
69.0
 20
41.695716045002364
 10
68.10353498899605
 20
41.0
 10
68.0
 20
40.922640532548556
 10
67.0
 20
40.31958269990308
 10
66.37215977352045
 20
40.0
 10
66.0
 20
39.815452605147144
 10
65.0
 20
39.47163852329792
 10
64.0
 20
39.24413625897368
 10
63.0
 20
39.11314913764247
 10
62.0
 20
39.09244188222885
 10
61.0
 20
39.18903246803255
 10
60.0
 20
39.39615890861029
 10
59.0
 20
39.730854552783875
 10
58.48294848577504
 20
40.0
 10
58.0
 20
40.272271349084924
 10
57.0
 20
40.991100377306374
 10
56.9900809605371
 20
41.0
 10
56.032168135208195
 20
42.0
 10
56.0
 20
42.04034426896796
 10
55.35581748189003
 20
43.0
 10
55.0
 20
43.68435270989626
 10
54.8414926304405
 20
44.0
 10
54.50497642264675
 20
45.0
 10
54.29444449869619
 20
46.0
 10
54.17707278466793
 20
46.99999999999999
 10
54.15230931556741
 20
48.0
 10
54.217881186478365
 20
49.0
 10
54.36266753945168
 20
50.0
 10
54.58131344205114
 20
51.0
 10
54.89898469948239
 20
52.0
 10
55.0
 20
52.234570339702074
 10
55.32267575980645
 20
53.0
 10
55.789453706730676
 20
54.0
 10
56.0
 20
54.36075155641041
 10
56.378736582268544
 20
55.00000000000001
 10
57.0
 20
55.964027065436085
 10
57.025563156137004
 20
56.0
 10
57.7447821374239
 20
57.0
 10
58.0
 20
57.3208803152563
 10
58.549681169547796
 20
58.0
 10
59.0
 20
58.529251383660664
 10
59.41182086592944
 20
59.0
 10
60.0
 20
59.656679946036135
 10
60.314931564672115
 20
60.0
 10
61.0
 20
60.74110024519456
 10
61.242953728745825
 20
61.0
 10
62.0
 20
61.81093753625882
 10
62.17766777204419
 20
62.0
 10
63.0
 20
62.892179730756915
 10
63.09956625949782
 20
63.0
 10
63.988341023807
 20
64.0
 10
64.0
 20
64.01313426664262
 10
64.83253643221362
 20
65.0
 10
65.0
 20
65.20108424137786
 10
65.6310451191561
 20
66.0
 10
66.0
 20
66.48630514845362
 10
66.37689561860498
 20
67.0
 10
67.0
 20
67.93846228074511
 10
67.04184988885734
 20
68.00000000000001
 10
67.62650933795074
 20
69.0
 10
68.0
 20
69.69045305564855
 10
68.16789778994128
 20
70.0
 10
68.60058755629696
 20
71.0
 10
68.98132904473906
 20
72.0
 10
69.0
 20
72.05374671356022
 10
69.30203155930043
 20
73.0
 10
69.51890959434908
 20
74.0
 10
69.66442720992964
 20
75.0
 10
69.74320076205558
 20
76.0
 10
69.74918259384194
 20
77.0
 10
69.67808769043026
 20
78.0
 10
69.52804897088883
 20
79.0
 10
69.28375032616347
 20
80.0
 10
69.0
 20
80.73712167401982
 10
68.89104130217115
 20
81.0
 10
68.40246004990136
 20
82.0
 10
68.0
 20
82.61486240830133
 10
67.71876109973581
 20
83.0
 10
67.0
 20
83.82534232645335
 10
66.82218499697453
 20
84.0
 10
66.0
 20
84.69167247295809
 10
65.5578403565231
 20
85.0
 10
65.0
 20
85.35218126554517
 10
64.0
 20
85.80798886048096
 10
63.480396490165575
 20
86.0
 10
63.0
 20
86.17336979116953
 10
62.0
 20
86.39333842687006
 10
61.0
 20
86.50344373191825
 10
60.0
 20
86.52350030676362
 10
59.0
 20
86.45852655251355
 10
58.0
 20
86.30527576192667
 10
57.0
 20
86.04020510894564
 10
56.894029534354296
 20
86.00000000000001
 10
56.0
 20
85.67658065068437
 10
55.0
 20
85.2486175676942
 10
54.56017661815943
 20
85.0
 10
54.0
 20
84.67089157804443
 10
53.0
 20
84.0057250133554
 10
52.992676223807784
 20
84.0
 10
52.0
 20
83.20497315938388
 10
51.773984304493226
 20
83.0
 10
51.0
 20
82.24865541278324
 10
50.762546161043
 20
82.0
 10
50.0
 20
81.1241866337969
 10
49.895522723315345
 20
81.0
 10
49.1490351496967
 20
80.0
 10
49.0
 20
79.79426922827503
 10
48.46416893790163
 20
79.0
 10
48.0
 20
78.25611179386689
 10
47.838711544649975
 20
78.0
 10
47.297953122745795
 20
77.0
 10
47.0
 20
76.44813562648213
 10
46.75951878107953
 20
76.0
 10
46.29979109153188
 20
75.0
 10
46.0
 20
74.36511666946666
 10
45.82484632897701
 20
74.0
 10
45.41260294467462
 20
73.0
 10
45.0
 20
72.00911984476332
 10
44.99588120569369
 20
72.0
 10
44.59278154846889
 20
71.0
 10
44.22585487182188
 20
70.0
 10
44.0
 20
69.439077758228
 10
43.82118607076134
 20
69.0
 10
43.460727281869126
 20
68.0
 10
43.09231403481404
 20
67.0
 10
43.0
 20
66.77516465411723
 10
42.69565649042778
 20
66.0
 10
42.337067102526554
 20
65.0
 10
42.0
 20
64.15514844105775
 10
41.934009211354606
 20
64.0
 10
41.54245171304976
 20
63.0
 10
41.152204300028615
 20
62.0
 10
41.0
 20
61.65830691274691
 10
40.71310065217041
 20
61.0
 10
40.306755704018876
 20
60.0
 10
40.0
 20
59.330123606502454
 10
39.84330537979141
 20
59.0
 10
39.40485632646526
 20
58.0
 10
39.0
 20
57.149347938352705
 10
38.92408796041099
 20
57.00000000000001
 10
38.45295006670161
 20
56.0
 10
38.0
 20
55.08449185043031
 10
37.95498790082426
 20
55.0
 10
37.46213810751343
 20
54.0
 10
37.0
 20
53.08898681022151
 10
36.951595976169294
 20
53.0
 10
36.45395596660299
 20
52.0
 10
36.0
 20
51.10104503204295
 10
35.945588818340674
 20
51.0
 10
35.46154536028135
 20
50.0
 10
35.0
 20
49.036398421807476
 10
34.98126382933641
 20
49.0
 10
34.52617937354543
 20
48.0
 10
34.109555181435454
 20
47.0
 10
34.0
 20
46.74707217057434
 10
33.692979934930314
 20
46.0
 10
33.35653539094317
 20
45.0
 10
33.036741792493935
 20
44.0
 10
33.0
 20
43.879515104687
 10
32.74829013670241
 20
43.0
 10
32.540610463226386
 20
42.0
 10
32.389378550405944
 20
41.0
 10
32.2882737641402
 20
40.0
 10
32.241773615063934
 20
39.0
 10
32.25638749577063
 20
38.0
 10
32.33520243092646
 20
37.0
 10
32.48007362490027
 20
36.0
 10
32.704160593412844
 20
35.0
 10
33.0
 20
34.1422444641294
 10
33.05323940841118
 20
34.0
 10
33.4833911836441
 20
33.0
 10
34.0
 20
32.06916885030369
 10
34.043675000894275
 20
32.0
 10
34.74528756960087
 20
31.0
 10
35.0
 20
30.70118263739787
 10
35.66128217865581
 20
30.0
 10
36.0
 20
29.68269495509812
 10
36.851927827557226
 20
29.000000000000004
 10
37.0
 20
28.88781711532987
 10
38.0
 20
28.276123229223337
 10
38.51286628746675
 20
28.0
 10
39.0
 20
27.74877970415345
 10
40.0
 20
27.364779299913444
 10
41.0
 20
27.039074826985594
 10
41.13531106968963
 20
27.0
 10
42.0
 20
26.765059539225533
 10
43.0
 20
26.57657891643293
 10
44.0
 20
26.4394812662468
 10
45.0
 20
26.335488489737436
 10
46.0
 20
26.253981452192356
 10
47.0
 20
26.186777764468555
 10
48.0
 20
26.125724676833624
 10
49.0
 20
26.061783187330565
 10
49.804943187401044
 20
26.0
 10
50.0
 20
25.98478846819093
 10
51.0
 20
25.891566979629008
 10
52.0
 20
25.7795298641174
 10
53.00000000000001
 20
25.64368671857277
 10
54.0
 20
25.475590430719077
 10
55.0
 20
25.256157629498844
 10
55.83671860211533
 20
25.0
 10
56.0
 20
24.94658830206449
 10
57.0
 20
24.591028374004658
 10
58.0
 20
24.177254664642618
 10
58.33233436310087
 20
24.0
 10
59.0
 20
23.63971058590054
 10
60.0
 20
23.033066334314373
 10
60.04565458252274
 20
23.0
 10
61.0
 20
22.30156585170128
 10
61.35891895536348
 20
22.0
 10
62.0
 20
21.425595975996472
 10
62.432865534309826
 20
21.0
 10
63.0
 20
20.39391506819496
 10
63.34518544876424
 20
20.0
 10
64.0
 20
19.17163271582119
 10
64.1325536748949
 20
19.0
 10
64.80423796003213
 20
18.0
 10
65.0
 20
17.701025087128208
 10
65.43163945404302
 20
17.0
 10
65.98125953384353
 20
16.0
 10
66.0
 20
15.966352592885446
 10
66.48957950037673
 20
15.0
 10
66.95232549087136
 20
14.0
 10
67.0
 20
13.900888799477011
 10
67.40033284304289
 20
13.0
 10
67.7945899707873
 20
12.0
 10
68.0
 20
11.513294824442788
 10
68.21492330615096
 20
11.0
 10
68.57864916581856
 20
10.0
 10
68.95279988141353
 20
9.0
 10
69.0
 20
8.884207178480223
 10
69.33683032837658
 20
8.0
 10
69.68267091971347
 20
7.0
 10
70.0
 20
6.171827844101086
 10
70.06966136352585
 20
6.0
 10
70.43901682093303
 20
5.0
 10
70.79932650878341
 20
4.0
 10
71.0
 20
3.509515295497936
 10
71.20830288936457
 20
3.0
 10
71.57997904599488
 20
2.0
 10
71.97984902622112
 20
1.0
 10
72.00000000000001
 20
0.9544888667545444
 10
72.39096332756846
 20
0.0
  0
LWPOLYLINE
  5
31
330
17
100
AcDbEntity
  8
0
100
AcDbPolyline
 90
24
 70
0
 10
104.96329037503979
 20
0.0
 10
105.0
 20
0.02999714134930298
 10
106.0
 20
0.7194283329306855
 10
106.45654826861724
 20
1.0
 10
107.0
 20
1.3146621271229557
 10
107.99999999999999
 20
1.7648055729019523
 10
108.57391366642767
 20
2.0
 10
109.0
 20
2.1725834768578194
 10
110.0
 20
2.4664600629228044
 10
111.0
 20
2.6811926730609503
 10
112.0
 20
2.8415204070428284
 10
113.0
 20
2.945258733380963
 10
114.00000000000001
 20
2.9813913866378137
 10
115.0
 20
2.943437677251459
 10
116.0
 20
2.834871335855504
 10
117.0
 20
2.6639862941899506
 10
118.0
 20
2.427995029302667
 10
119.0
 20
2.087889064222952
 10
119.18869813160654
 20
2.0
 10
120.0
 20
1.6276770796745097
 10
121.0
 20
1.07618903839495
 10
121.10911228682801
 20
1.0
 10
122.0
 20
0.35470655724516975
 10
122.40872703996905
 20
0.0
  0
LWPOLYLINE
  5
32
330
17
100
AcDbEntity
  8
0
100
AcDbPolyline
 90
141
 70
0
 10
139.29934800965637
 20
0.0
 10
139.18494591539383
 20
1.0
 10
139.06721280312152
 20
2.0
 10
139.0
 20
2.578535527574333
 10
138.95069140769635
 20
3.0
 10
138.85227581767774
 20
4.0
 10
138.7745461634193
 20
5.0
 10
138.71684747038188
 20
6.0
 10
138.67902383705638
 20
7.0
 10
138.66141675767477
 20
8.0
 10
138.66478605029937
 20
9.0
 10
138.69029155377402
 20
10.0
 10
138.7396628434976
 20
11.0
 10
138.8156332124036
 20
12.0
 10
138.92264824412362
 20
13.0
 10
139.0
 20
13.546471411759633
 10
139.06432944779553
 20
14.0
 10
139.2203825329887
 20
15.0
 10
139.3855011366266
 20
16.0
 10
139.56521525949188
 20
17.0
 10
139.77328575865997
 20
18.0
 10
140.0
 20
18.88361963310398
 10
140.03171152458532
 20
19.0
 10
140.30061766365998
 20
20.0
 10
140.5613299002107
 20
21.0
 10
140.84946047603097
 20
22.0
 10
141.0
 20
22.44494636202738
 10
141.18686212564907
 20
23.0
 10
141.49849394526493
 20
24.0
 10
141.82146821737626
 20
25.0
 10
142.0
 20
25.48048756145748
 10
142.19305753629715
 20
26.0
 10
142.53054748109633
 20
27.0
 10
142.8802843772274
 20
28.0
 10
143.0
 20
28.30390433508243
 10
143.26562809447546
 20
29.0
 10
143.6098745987308
 20
30.0
 10
143.981407935824
 20
31.0
 10
144.0
 20
31.045555711155462
 10
144.36085639369261
 20
32.0
 10
144.70924556739598
 20
33.0
 10
145.0
 20
33.74679255985494
 10
145.1031265580771
 20
34.0
 10
145.4730246817258
 20
35.0
 10
145.8435644171229
 20
36.0
 10
146.0
 20
36.36927898670145
 10
146.26245050481856
 20
37.0
 10
146.6507470098368
 20
38.0
 10
147.0
 20
38.78979718179593
 10
147.09863243978762
 20
39.0
 10
147.54508718394408
 20
40.0
 10
147.99999999999997
 20
40.916230222494946
 10
148.04533239543957
 20
41.0
 10
148.57708887602172
 20
42.0
 10
149.0
 20
42.70234140214859
 10
149.19067896295243
 20
43.0
 10
149.8502362836607
 20
44.0
 10
150.0
 20
44.195379776749306
 10
150.63459084571616
 20
45.0
 10
151.0
 20
45.41363797979583
 10
151.55927316949425
 20
46.0
 10
152.0
 20
46.42009988020662
 10
152.68392126611684
 20
47.0
 10
153.0
 20
47.25004685585159
 10
154.0
 20
47.89904806676021
 10
154.17254915294663
 20
48.0
 10
155.0
 20
48.433403337341176
 10
156.0
 20
48.81019985925725
 10
156.64242039732966
 20
49.0
 10
157.0
 20
49.10682531212096
 10
158.0
 20
49.269851476429736
 10
159.0
 20
49.30921438400622
 10
160.0
 20
49.227771741570926
 10
160.98707750109247
 20
49.0
 10
161.0
 20
48.996792978072826
 10
162.0
 20
48.62600357261773
 10
163.0
 20
48.08929517996851
 10
163.12058465917687
 20
48.0
 10
164.0
 20
47.27476743336044
 10
164.26705134492667
 20
47.0
 10
165.0
 20
46.04180575046423
 10
165.02952009183994
 20
46.0
 10
165.5502915541373
 20
45.0
 10
165.90282718433605
 20
44.0
 10
166.0
 20
43.612712360154276
 10
166.15008016898022
 20
43.0
 10
166.26238594238043
 20
42.0
 10
166.26882118521857
 20
41.0
 10
166.17951098195013
 20
40.0
 10
166.0
 20
39.07016687900303
 10
165.98582059790843
 20
38.99999999999999
 10
165.71806402930744
 20
38.0
 10
165.402101050887
 20
37.0
 10
165.0
 20
36.03385949989078
 10
164.98437416792046
 20
36.0
 10
164.50972634897983
 20
35.0
 10
164.00000000000003
 20
34.04246319610012
 10
163.97513265696628
 20
34.0
 10
163.4019729318146
 20
33.0
 10
163.0
 20
32.35377448406566
 10
162.77233591928282
 20
32.0
 10
162.15681141915834
 20
31.0
 10
162.0
 20
30.765299967387314
 10
161.5066189495202
 20
30.0
 10
161.0
 20
29.205118302065394
 10
160.86466811224741
 20
29.0
 10
160.26774447820327
 20
28.0
 10
160.0
 20
27.564407986054185
 10
159.66099515375578
 20
27.0
 10
159.12220120920608
 20
26.0
 10
159.0
 20
25.78151466814528
 10
158.58898879915597
 20
25.0
 10
158.12366392192726
 20
24.0
 10
158.0
 20
23.742268813166625
 10
157.6630392611364
 20
23.0
 10
157.28262373790753
 20
22.0
 10
157.0
 20
21.262289060692957
 10
156.896211414941
 20
21.0
 10
156.5710830649058
 20
20.0
 10
156.29467638257296
 20
19.0
 10
156.0214521747986
 20
18.0
 10
156.0
 20
17.919719359673792
 10
155.76902758306954
 20
17.0
 10
155.57131516962767
 20
16.0
 10
155.40448633680717
 20
15.0
 10
155.25393335316204
 20
14.0
 10
155.1121674527463
 20
13.0
 10
155.0
 20
12.166067987389443
 10
154.97685782377113
 20
12.0
 10
154.86205600178383
 20
10.999999999999998
 10
154.77088323162374
 20
10.0
 10
154.69780409962112
 20
9.0
 10
154.6387778269086
 20
8.0
 10
154.59077359608412
 20
7.0
 10
154.55144710642892
 20
6.0
 10
154.5189250586448
 20
5.0
 10
154.49166494534433
 20
4.0
 10
154.4683661009293
 20
3.0
 10
154.44791383103296
 20
2.0
 10
154.4293436603624
 20
1.0
 10
154.41181715951922
 20
0.0
  0
LWPOLYLINE
  5
33
330
17
100
AcDbEntity
  8
0
100
AcDbPolyline
 90
510
 70
0
 10
169.93113872854659
 20
0.0
 10
169.8534789275509
 20
1.0
 10
169.7774992829704
 20
2.0
 10
169.70453166824018
 20
3.0
 10
169.63543276975406
 20
4.0
 10
169.5707697676615
 20
5.0
 10
169.5110350302886
 20
6.0
 10
169.4568405682085
 20
7.0
 10
169.40905695572326
 20
8.0
 10
169.3688761430319
 20
9.0
 10
169.3377910168183
 20
10.0
 10
169.31749857823624
 20
11.0
 10
169.30975000583567
 20
12.0
 10
169.31618951900177
 20
13.0
 10
169.3382433644658
 20
14.0
 10
169.37713877358837
 20
15.0
 10
169.43414871589454
 20
16.0
 10
169.51116915430453
 20
17.0
 10
169.61173783358967
 20
18.0
 10
169.74259873601602
 20
19.0
 10
169.91593976562314
 20
20.0
 10
170.0
 20
20.376328997132088
 10
170.1373151791359
 20
21.0
 10
170.3683010173956
 20
22.0
 10
170.62237490817398
 20
23.0
 10
170.94166199059256
 20
24.0
 10
171.0
 20
24.147027921810494
 10
171.3236718421411
 20
25.0
 10
171.7215726798055
 20
26.0
 10
172.0
 20
26.560807024740644
 10
172.22682832907458
 20
26.999999999999996
 10
172.76046572371246
 20
28.0
 10
173.0
 20
28.372358056721033
 10
173.4152456887149
 20
29.0
 10
174.0
 20
29.802629803028417
 10
174.15693679688414
 20
30.0
 10
175.0
 20
30.99297121599824
 10
175.00654465321585
 20
31.0
 10
176.0
 20
31.99161676816939
 10
176.00902716308624
 20
32.0
 10
177.0
 20
32.84437455689305
 10
177.19311437602832
 20
33.0
 10
178.0
 20
33.602099543361795
 10
178.57077826257478
 20
34.0
 10
179.0
 20
34.291394734075595
 10
180.0
 20
34.88936238397059
 10
180.18080976432856
 20
35.0
 10
181.0
 20
35.469202116307684
 10
181.9791947996814
 20
36.0
 10
182.0
 20
36.01202863214011
 10
183.0
 20
36.53774108827527
 10
183.86324981714822
 20
37.0
 10
184.0
 20
37.077800664452134
 10
185.0
 20
37.61260466396091
 10
185.65906708166727
 20
38.0
 10
186.0
 20
38.209068421955465
 10
187.0
 20
38.82051567600731
 10
187.25433142440068
 20
39.0
 10
188.0
 20
39.53267012665457
 10
188.59174656011956
 20
40.0
 10
189.0
 20
40.34484715259837
 10
189.71097124897352
 20
41.0
 10
190.0
 20
41.29105607995235
 10
190.6413727236545
 20
42.0
 10
191.0
 20
42.4412258071349
 10
191.41921577138447
 20
43.0
 10
192.0
 20
43.91929319745305
 10
192.05106533962078
 20
44.0
 10
192.55312836248402
 20
45.0
 10
192.9556872966082
 20
46.0
 10
193.0
 20
46.126132297519526
 10
193.2842033411795
 20
47.0
 10
193.49301735073115
 20
48.0
 10
193.620185801147
 20
49.0
 10
193.67552067107601
 20
50.0
 10
193.65954494164822
 20
51.0
 10
193.57337398188645
 20
52.0
 10
193.41605509184944
 20
53.0
 10
193.17088774722504
 20
54.0
 10
193.0
 20
54.47828376731658
 10
192.8113707791924
 20
55.0
 10
192.40804524325034
 20
56.0
 10
192.0
 20
56.78355012322067
 10
191.8770774507202
 20
57.0
 10
191.2741681408467
 20
58.0
 10
191.0
 20
58.378142820383545
 10
190.52814611100672
 20
59.0
 10
190.0
 20
59.626288988563644
 10
189.66008960899353
 20
60.0
 10
189.0
 20
60.67001377297998
 10
188.64953764390336
 20
61.0
 10
188.0
 20
61.5700786070819
 10
187.4709131315065
 20
62.0
 10
187.0
 20
62.36520604381619
 10
186.0884702064345
 20
63.0
 10
186.0
 20
63.06231449198895
 10
185.0
 20
63.67376045978291
 10
184.44583607411676
 20
64.0
 10
184.0
 20
64.25844126768364
 10
183.0
 20
64.7511511111627
 10
182.5010130738072
 20
65.0
 10
182.0
 20
65.24627491241398
 10
181.0
 20
65.66019606373669
 10
180.18779389056834
 20
66.0
 10
179.99999999999997
 20
66.08230288174973
 10
179.0
 20
66.4572955267554
 10
178.0
 20
66.79998874980735
 10
177.45757086284465
 20
67.0
 10
177.00000000000003
 20
67.1695974387256
 10
176.0
 20
67.49091011244828
 10
175.0
 20
67.80449497632384
 10
174.44457091072076
 20
68.0
 10
174.0
 20
68.158193125115
 10
173.0
 20
68.48059300130053
 10
172.0
 20
68.811148294357
 10
171.51377546356417
 20
69.0
 10
171.0
 20
69.20040912699356
 10
170.0
 20
69.57200567863832
 10
169.00112187722797
 20
70.0
 10
169.0
 20
70.00053104529556
 10
168.0
 20
70.47086218643534
 10
167.0
 20
70.99256806425336
 10
166.98792152342787
 20
71.0
 10
166.0
 20
71.58764142073852
 10
165.39862039255104
 20
72.0
 10
165.0
 20
72.29215046134739
 10
164.1191602432605
 20
73.0
 10
164.0
 20
73.10621386335768
 10
163.09213212633276
 20
74.0
 10
163.0
 20
74.10096858042233
 10
162.27200098878586
 20
75.0
 10
162.0
 20
75.38280440798172
 10
161.59947254479567
 20
76.0
 10
161.09675029722976
 20
77.0
 10
161.0
 20
77.22107207266247
 10
160.68697896356645
 20
78.0
 10
160.42928720743544
 20
79.0
 10
160.27206806551408
 20
80.0
 10
160.20938628440956
 20
81.0
 10
160.2471551679786
 20
82.0
 10
160.38477980645385
 20
83.0
 10
160.62785619790202
 20
84.0
 10
161.0
 20
84.93141663838759
 10
161.03089774002325
 20
85.0
 10
161.57001535537972
 20
86.0
 10
162.0
 20
86.60460345836964
 10
162.3179272816721
 20
87.0
 10
163.0
 20
87.71523243587383
 10
163.31731080586292
 20
88.0
 10
164.0
 20
88.5359350058056
 10
164.72072268452052
 20
89.0
 10
165.0
 20
89.17207853761717
 10
166.0
 20
89.63257291881087
 10
166.97591658173883
 20
90.0
 10
167.0
 20
90.00956558257295
 10
168.0
 20
90.29971392075313
 10
169.0
 20
90.4882055084154
 10
170.0
 20
90.61290055257652
 10
171.0
 20
90.6887017339323
 10
172.0
 20
90.72244210535503
 10
173.0
 20
90.71998042256061
 10
174.0
 20
90.6882363054662
 10
175.0
 20
90.63462788407573
 10
176.0
 20
90.56585193414024
 10
177.0
 20
90.48707648715146
 10
178.0
 20
90.40184002864179
 10
179.0
 20
90.31249109232567
 10
180.0
 20
90.22083483612195
 10
181.0
 20
90.12866734254366
 10
182.0
 20
90.03798244102124
 10
182.44334354505656
 20
90.0
 10
183.0
 20
89.95235420377078
 10
184.0
 20
89.87983363826262
 10
185.0
 20
89.81898508849224
 10
186.0
 20
89.76667508896807
 10
187.0
 20
89.71933540287444
 10
188.0
 20
89.67297955783015
 10
189.0
 20
89.6232047994431
 10
190.0
 20
89.5651383718497
 10
191.0
 20
89.49319797007352
 10
192.0
 20
89.40040702396385
 10
193.0
 20
89.2768438912135
 10
194.0
 20
89.10661142275319
 10
194.46011001519662
 20
89.0
 10
195.0
 20
88.8752928622922
 10
196.0
 20
88.62051124581706
 10
197.0
 20
88.32299261213146
 10
197.80804837971414
 20
88.0
 10
198.0
 20
87.91702115870484
 10
199.0
 20
87.45675341188802
 10
199.80525387342834
 20
87.0
 10
200.0
 20
86.87815589630442
 10
201.0
 20
86.20478403979092
 10
201.2540629282068
 20
86.0
 10
202.0
 20
85.35765644910325
 10
202.3679397834993
 20
85.0
 10
203.0
 20
84.31516212332122
 10
203.26824370960875
 20
84.0
 10
203.99549171836688
 20
83.0
 10
204.0
 20
82.99336657386864
 10
204.5960537120747
 20
82.0
 10
205.0
 20
81.224188394123
 10
205.11756499658958
 20
81.0
 10
205.52762066601818
 20
80.0
 10
205.86881768556745
 20
79.0
 10
206.0
 20
78.59079084003902
 10
206.1845943859928
 20
78.0
 10
206.4160958721361
 20
77.0
 10
206.59491179329765
 20
76.0
 10
206.74330374180357
 20
75.0
 10
206.87102770139327
 20
74.0
 10
206.98173919684615
 20
73.0
 10
207.0
 20
72.80295298331134
 10
207.07316942789242
 20
72.0
 10
207.14249201503202
 20
71.0
 10
207.19700146178133
 20
70.0
 10
207.2427409949493
 20
69.0
 10
207.28479143379028
 20
68.0
 10
207.32761271866522
 20
67.0
 10
207.37525425531305
 20
66.0
 10
207.43155875654023
 20
65.0
 10
207.50048559339302
 20
64.0
 10
207.58669657291534
 20
63.0
 10
207.69656215826137
 20
62.0
 10
207.83975544507848
 20
61.0
 10
208.0
 20
60.15550956712103
 10
208.03062373775035
 20
60.0
 10
208.24469671008427
 20
59.0
 10
208.47127030885332
 20
58.0
 10
208.73505442258238
 20
57.0
 10
209.0
 20
56.22357317390038
 10
209.0805563374382
 20
56.0
 10
209.44765599896144
 20
55.0
 10
209.85966908164602
 20
54.0
 10
210.0
 20
53.724399924510784
 10
210.36347160201376
 20
53.0
 10
210.90084607800478
 20
52.0
 10
211.0
 20
51.84526597694515
 10
211.53520967197863
 20
51.0
 10
212.0
 20
50.34366119281314
 10
212.2590785614907
 20
50.0
 10
213.0
 20
49.07534338268895
 10
213.06560449216767
 20
49.0
 10
213.98509406746712
 20
48.0
 10
214.00000000000003
 20
47.98495202907026
 10
215.0
 20
47.040538432201835
 10
215.0451868887805
 20
47.0
 10
216.0
 20
46.206160363071646
 10
216.25888212018657
 20
46.0
 10
217.0
 20
45.44535255681433
 10
217.63333063428354
 20
45.0
 10
218.0
 20
44.745558108011025
 10
219.0
 20
44.12995474212865
 10
219.2058908933692
 20
44.0
 10
220.0
 20
43.5277435422937
 10
220.93846550766648
 20
43.0
 10
221.0
 20
42.96337044134353
 10
222.0
 20
42.427015625382836
 10
222.78542768519858
 20
42.0
 10
223.0
 20
41.877916246627834
 10
224.0
 20
41.354940788891824
 10
224.62676021823685
 20
41.0
 10
225.0
 20
40.78206468766905
 10
226.0
 20
40.220282409512045
 10
226.3447183462814
 20
40.0
 10
227.0
 20
39.579781592988695
 10
227.85283909217083
 20
39.0
 10
228.0
 20
38.891741215625004
 10
229.0
 20
38.13570702830696
 10
229.1592396632235
 20
38.0
 10
230.0
 20
37.24976862683258
 10
230.25516739186548
 20
37.0
 10
231.0
 20
36.20237210059063
 10
231.17697391262448
 20
36.0
 10
231.9341785207525
 20
35.0
 10
232.0
 20
34.90698638974007
 10
232.5730435564231
 20
34.0
 10
233.0
 20
33.21380012223782
 10
233.11635384018751
 20
33.0
 10
233.53704377826202
 20
32.0
 10
233.87806168021578
 20
31.0
 10
234.0
 20
30.6032743983468
 10
234.18006915764556
 20
30.0
 10
234.3891620107329
 20
29.0
 10
234.53672396631086
 20
28.0
 10
234.6438561825691
 20
27.0
 10
234.7221949477671
 20
26.0
 10
234.78085039890402
 20
25.0
 10
234.82968586163338
 20
24.0
 10
234.88048559825114
 20
23.0
 10
234.94754668062544
 20
22.0
 10
235.0
 20
21.472688084172226
 10
235.04663467399007
 20
21.0
 10
235.18046218618264
 20
20.0
 10
235.3561209499136
 20
19.0
 10
235.59312773874143
 20
18.0
 10
235.94822423088496
 20
17.0
 10
235.99999999999997
 20
16.895658436711656
 10
236.4412962042565
 20
16.0
 10
237.0
 20
15.144853759364281
 10
237.11162518018034
 20
15.0
 10
238.0
 20
14.063310267144027
 10
238.07486486503333
 20
14.0
 10
239.0
 20
13.356533995190363
 10
239.73081366571563
 20
12.999999999999998
 10
240.0
 20
12.8727121613348
 10
241.0
 20
12.602170031617693
 10
242.0
 20
12.50595723332473
 10
243.0
 20
12.557631300987918
 10
244.0
 20
12.767857650044803
 10
244.56854878999218
 20
13.0
 10
245.0
 20
13.187642303582777
 10
245.99999999999997
 20
13.775167373519823
 10
246.2779678244278
 20
14.0
 10
246.99999999999997
 20
14.671358595036025
 10
247.29605016786007
 20
15.0
 10
248.0
 20
15.980776085976327
 10
248.01318992138332
 20
16.0
 10
248.54754271778322
 20
17.0
 10
248.9604691266971
 20
18.0
 10
249.0
 20
18.108336132427688
 10
249.29946359315875
 20
19.0
 10
249.53303308373836
 20
20.0
 10
249.7136472879436
 20
21.0
 10
249.86444184501298
 20
22.0
 10
249.99470816705792
 20
23.0
 10
250.0
 20
23.048298802730756
 10
250.10167287067708
 20
24.0
 10
250.18343427581718
 20
25.0
 10
250.2496313159077
 20
26.0
 10
250.30703362012213
 20
27.0
 10
250.36049410739693
 20
28.000000000000004
 10
250.41351538303525
 20
29.0
 10
250.46859651626147
 20
30.0
 10
250.527472243644
 20
31.0
 10
250.59127554655552
 20
32.0
 10
250.66060727435547
 20
33.0
 10
250.73547771453727
 20
34.0
 10
250.81509787147166
 20
35.0
 10
250.8975449296192
 20
36.0
 10
250.97939687535597
 20
37.0
 10
251.0
 20
37.276072788245685
 10
251.05369013599335
 20
38.0
 10
251.1103314423804
 20
39.0
 10
251.14617334931134
 20
40.0
 10
251.1580250038551
 20
41.0
 10
251.1418182036416
 20
42.0
 10
251.09197880193938
 20
43.0
 10
251.00021167600102
 20
44.0
 10
251.00000000000003
 20
44.00152953995878
 10
250.86900488722637
 20
45.0
 10
250.70743502589843
 20
46.0
 10
250.51274867801027
 20
47.0
 10
250.26618510786687
 20
48.0
 10
250.0
 20
48.79053161464947
 10
249.92505916594297
 20
49.0
 10
249.54602808652345
 20
50.0
 10
249.10190582751966
 20
51.0
 10
249.0
 20
51.18360557448973
 10
248.55395498865906
 20
52.0
 10
248.0
 20
52.8919473223526
 10
247.92583942745122
 20
53.0
 10
247.20933167250666
 20
54.0
 10
247.00000000000003
 20
54.25415307086021
 10
246.3573465128091
 20
55.0
 10
245.99999999999997
 20
55.37885673579932
 10
245.37285097146167
 20
56.0
 10
245.0
 20
56.34664151273105
 10
244.23732713732443
 20
57.0
 10
244.0
 20
57.19682837208515
 10
243.0
 20
57.940821144083436
 10
242.91961079647785
 20
58.0
 10
242.0
 20
58.625378495983995
 10
241.42666707815107
 20
59.0
 10
241.0
 20
59.27575362679708
 10
240.0
 20
59.852299092182896
 10
239.7551070651486
 20
60.0
 10
239.0
 20
60.43400996085811
 10
238.0
 20
60.980125931495095
 10
237.96606242041574
 20
61.0
 10
237.0
 20
61.52617366391219
 10
236.1401234871097
 20
62.0
 10
236.0
 20
62.08206511788016
 10
235.0
 20
62.628481949167686
 10
234.3702599035553
 20
63.0
 10
234.0
 20
63.225660334466774
 10
233.0
 20
63.81508454031015
 10
232.72138856063324
 20
64.0
 10
232.0
 20
64.4751604481662
 10
231.24366389225486
 20
65.0
 10
231.0
 20
65.17917074171562
 10
230.0
 20
65.92143930524347
 10
229.90418275820878
 20
66.0
 10
229.0
 20
66.74805477147378
 10
228.71755285451843
 20
67.0
 10
228.0
 20
67.66408972070964
 10
227.65728751233195
 20
68.0
 10
227.0
 20
68.67892279964018
 10
226.70261245821237
 20
69.0
 10
226.0
 20
69.81206551453462
 10
225.84111420746726
 20
70.0
 10
225.0733729096911
 20
71.0
 10
225.0
 20
71.09657652416949
 10
224.36424099111957
 20
72.0
 10
224.0
 20
72.53977099806401
 10
223.69616587135894
 20
73.0
 10
223.11075867774628
 20
74.00000000000001
 10
223.0
 20
74.18453572472218
 10
222.54276165886236
 20
75.0
 10
222.02717704733845
 20
76.0
 10
222.0
 20
76.05081444249917
 10
221.5348650554002
 20
77.0
 10
221.08422453815723
 20
77.99999999999999
 10
221.0
 20
78.17678451583541
 10
220.63227428735155
 20
79.0
 10
220.2366921922971
 20
80.0
 10
220.0
 20
80.55895758461892
 10
219.81239947057418
 20
81.0
 10
219.44391599558884
 20
82.0
 10
219.07401520314824
 20
83.0
 10
219.00000000000003
 20
83.18492894325274
 10
218.69210384001354
 20
84.0
 10
218.3586298666209
 20
85.0
 10
218.0017185509648
 20
86.0
 10
218.0
 20
86.00448979342578
 10
217.65048861854757
 20
87.0
 10
217.3360010989304
 20
88.0
 10
217.0
 20
88.9849097913963
 10
216.99442905926136
 20
89.0
 10
216.660248999931
 20
90.0
 10
216.3623667040986
 20
91.0
 10
216.04603746900958
 20
92.0
 10
216.0
 20
92.13513027660656
 10
215.72340096070033
 20
93.0
 10
215.44567791165744
 20
94.0
 10
215.16944951129827
 20
95.0
 10
215.0
 20
95.56826469118525
 10
214.87026600702671
 20
96.0
 10
214.6131502753473
 20
97.0
 10
214.38590088025825
 20
98.0
 10
214.16307912484
 20
99.0
 10
214.0
 20
99.71272897562686
 10
213.9324241418528
 20
100.0
 10
213.73733292100312
 20
101.0
 10
213.58199968248712
 20
102.0
 10
213.45605857151804
 20
103.0
 10
213.35519064534287
 20
104.0
 10
213.27995483647646
 20
105.0
 10
213.23396939045946
 20
106.0
 10
213.22174760063947
 20
107.0
 10
213.24677995423394
 20
108.00000000000001
 10
213.31068744369176
 20
109.0
 10
213.41438273840322
 20
110.0
 10
213.56205533865915
 20
111.0
 10
213.76848538888726
 20
112.0
 10
214.0
 20
112.78594863861215
 10
214.06665037772115
 20
112.99999999999999
 10
214.4089352981925
 20
114.0
 10
214.8108352743372
 20
115.0
 10
215.0
 20
115.36215095369452
 10
215.33868773694286
 20
116.0
 10
215.93386077682726
 20
117.0
 10
216.0
 20
117.09191193321497
 10
216.66669919251999
 20
118.0
 10
217.0
 20
118.39306901443678
 10
217.55655738002912
 20
119.0
 10
218.0
 20
119.43666280832483
 10
218.6359929279518
 20
120.0
 10
219.0
 20
120.3003675387717
 10
219.98560488846127
 20
121.0
 10
220.0
 20
121.01017302227523
 10
221.0
 20
121.60199339514206
 10
221.7657287477193
 20
122.0
 10
222.0
 20
122.12276938903643
 10
223.0
 20
122.53436241377463
 10
224.0
 20
122.8790340478175
 10
224.37517988603017
 20
123.0
 10
225.0
 20
123.19540754183826
 10
226.0
 20
123.4237532379664
 10
227.0
 20
123.5952907673934
 10
228.0
 20
123.7289567471453
 10
229.0
 20
123.83064675795019
 10
230.0
 20
123.90050423107925
 10
230.99999999999997
 20
123.93768738143773
 10
232.0
 20
123.94286355135836
 10
233.0
 20
123.91889232006511
 10
234.00000000000003
 20
123.87034602955909
 10
235.0
 20
123.80248010297029
 10
235.99999999999997
 20
123.72010455794953
 10
237.0
 20
123.62664213826471
 10
238.0
 20
123.52352430123443
 10
239.0
 20
123.40997007724837
 10
240.0
 20
123.28312111971543
 10
241.0
 20
123.13846953375841
 10
241.83241746804666
 20
123.0
 10
242.0
 20
122.97107684004214
 10
243.0
 20
122.80439080867973
 10
244.0
 20
122.64993335874915
 10
245.0
 20
122.50184898483329
 10
246.0
 20
122.35286420027901
 10
247.0
 20
122.19531745358876
 10
248.0
 20
122.02217767482782
 10
248.12157504600228
 20
122.0
 10
249.00000000000003
 20
121.84627700370996
 10
250.0
 20
121.69142308572209
 10
251.0
 20
121.55112157811979
 10
252.0
 20
121.41881008151861
 10
253.0
 20
121.28899523247935
 10
254.0
 20
121.15791060173198
 10
255.0
 20
121.02397865197477
  0
LWPOLYLINE
  5
34
330
17
100
AcDbEntity
  8
0
100
AcDbPolyline
 90
108
 70
0
 10
229.52014777672707
 20
0.0
 10
229.0
 20
0.6783104248780963
 10
228.7508436719068
 20
1.0
 10
228.01093400924663
 20
2.0
 10
228.0
 20
2.014201357717524
 10
227.28157654417896
 20
3.0
 10
226.99999999999997
 20
3.3775354315627686
 10
226.5445848166799
 20
4.0
 10
226.0
 20
4.756390236529198
 10
225.8205442736142
 20
5.0
 10
225.12815225969194
 20
6.0
 10
225.0
 20
6.1755839254705265
 10
224.4228033504304
 20
7.0
 10
224.0
 20
7.598626317894012
 10
223.714269844993
 20
8.0
 10
223.03367723660483
 20
9.0
 10
223.00000000000003
 20
9.046689646572935
 10
222.34967063932788
 20
10.0
 10
222.0
 20
10.498626777408017
 10
221.6491153888977
 20
11.0
 10
221.0
 20
11.953070196093963
 10
220.96631284297922
 20
12.0
 10
220.28998174864324
 20
13.0
 10
220.0
 20
13.409612613120618
 10
219.58630778645352
 20
14.0
 10
219.0
 20
14.844570033593971
 10
218.88747499709746
 20
15.0
 10
218.20122953612233
 20
16.0
 10
218.0
 20
16.275240263553698
 10
217.48132619825708
 20
17.0
 10
217.0
 20
17.6616885685768
 10
216.7481079551742
 20
18.0
 10
216.02045013996639
 20
19.0
 10
216.0
 20
19.026334584410222
 10
215.27078301080888
 20
20.0
 10
215.00000000000003
 20
20.34388737514732
 10
214.4846550787735
 20
21.0
 10
214.0
 20
21.601584131181504
 10
213.67164095937227
 20
22.0
 10
213.0
 20
22.805668334741334
 10
212.83169928001902
 20
23.0
 10
212.0
 20
23.95159778661378
 10
211.95579779512084
 20
24.0
 10
211.02699933838397
 20
25.0
 10
211.0
 20
25.027822460003176
 10
210.02514368856993
 20
26.0
 10
210.0
 20
26.024250815378263
 10
209.0
 20
26.935155869267675
 10
208.9265257841631
 20
27.0
 10
208.0
 20
27.763565663347308
 10
207.70002097781193
 20
28.0
 10
207.0
 20
28.51828602972536
 10
206.28505699911582
 20
29.0
 10
206.0
 20
29.18975152557189
 10
205.0
 20
29.740061341782706
 10
204.49300413981297
 20
30.0
 10
204.0
 20
30.245233196519962
 10
203.0
 20
30.61780110178955
 10
202.0
 20
30.91839551028218
 10
201.65669134137295
 20
31.0
 10
201.0
 20
31.153571042385316
 10
200.0
 20
31.27576472294442
 10
199.0
 20
31.29738958227404
 10
198.0
 20
31.215200904669803
 10
197.0
 20
31.002181662629656
 10
196.99381479690155
 20
31.000000000000004
 10
196.0
 20
30.668253638245407
 10
195.0
 20
30.2052816838931
 10
194.68964482061406
 20
30.0
 10
194.0
 20
29.501575820461902
 10
193.45050909488484
 20
29.0
 10
193.0
 20
28.505672127353677
 10
192.6036230562076
 20
28.0
 10
192.01398948915863
 20
27.0
 10
192.0
 20
26.971401136837084
 10
191.58534704138907
 20
26.0
 10
191.31633098508
 20
25.0
 10
191.13921363950038
 20
24.0
 10
191.04335660393286
 20
23.0
 10
191.0278801841972
 20
22.0
 10
191.08172069779818
 20
21.0
 10
191.18404690529934
 20
20.0
 10
191.31302588728397
 20
19.0
 10
191.45240224663445
 20
18.0
 10
191.5918741736977
 20
17.0
 10
191.72280099579032
 20
16.0
 10
191.83323878790716
 20
15.0
 10
191.90628774051905
 20
14.0
 10
191.92378982802995
 20
13.0
 10
191.8735090049487
 20
12.0
 10
191.75344892752602
 20
11.0
 10
191.56563818909416
 20
10.0
 10
191.29624104348665
 20
9.0
 10
191.0
 20
8.252670150816911
 10
190.89216708122237
 20
8.0
 10
190.42043877066374
 20
7.0
 10
190.0
 20
6.287223854343695
 10
189.81641748890718
 20
6.0
 10
189.14130752485028
 20
5.0
 10
189.0
 20
4.818388065329907
 10
188.35786825421616
 20
4.0
 10
188.0
 20
3.572526788918548
 10
187.51434600859895
 20
3.0
 10
187.0
 20
2.3981172460609432
 10
186.66012272922006
 20
2.0
 10
186.0
 20
1.188882908150631
 10
185.84723281417
 20
1.0
 10
185.13189728070358
 20
0.0
  0
LWPOLYLINE
  5
35
330
17
100
AcDbEntity
  8
0
100
AcDbPolyline
 90
86
 70
0
 10
0.0
 20
69.5247938975514
 10
0.5466423078418174
 20
69.0
 10
1.0
 20
68.54648014558063
 10
1.5228601448212797
 20
68.0
 10
2.0
 20
67.47749359708163
 10
2.418879270210467
 20
67.0
 10
3.0
 20
66.29575192214651
 10
3.238599974125064
 20
66.0
 10
3.9701764393933066
 20
65.0
 10
4.0
 20
64.9590010014189
 10
4.6379986554353625
 20
64.0
 10
5.0
 20
63.42733304985406
 10
5.264746253871379
 20
63.0
 10
5.792366422751081
 20
62.0
 10
6.0
 20
61.60524138761398
 10
6.305188606137341
 20
61.0
 10
6.719486418162403
 20
60.0
 10
7.0
 20
59.308069330396734
 10
7.1270080065857595
 20
59.0
 10
7.454894696185975
 20
58.0
 10
7.725899589700254
 20
57.0
 10
7.980990410365683
 20
56.0
 10
8.0
 20
55.91820569197268
 10
8.201188531683965
 20
55.0
 10
8.359281556596535
 20
54.0
 10
8.473787360167021
 20
53.0
 10
8.554220883953711
 20
52.0
 10
8.604985724829914
 20
51.0
 10
8.628357127996248
 20
50.0
 10
8.626247116023086
 20
49.0
 10
8.60089051566089
 20
48.0
 10
8.55473872220002
 20
47.0
 10
8.48991481871175
 20
46.0
 10
8.407558394395439
 20
45.0
 10
8.307307758631557
 20
44.0
 10
8.187067221105869
 20
43.0
 10
8.043092945421504
 20
42.0
 10
8.0
 20
41.73829952904958
 10
7.881309146608437
 20
41.0
 10
7.726817717014086
 20
40.0
 10
7.577913776962686
 20
39.0
 10
7.428561254124815
 20
38.0
 10
7.2705900356275235
 20
37.0
 10
7.094579834114409
 20
36.0
 10
7.0
 20
35.51823538543845
 10
6.898323520092431
 20
35.0
 10
6.716690665121681
 20
34.0
 10
6.546911565192416
 20
33.0
 10
6.3772556107526785
 20
32.0
 10
6.194446330448766
 20
31.0
 10
6.0
 20
30.070783761921113
 10
5.984313674368913
 20
30.0
 10
5.773173062329139
 20
29.0
 10
5.579063861793948
 20
28.0
 10
5.386444518018505
 20
27.0
 10
5.177157065207349
 20
26.0
 10
5.0
 20
25.263794685201994
 10
4.934233346142703
 20
25.0
 10
4.701428322518169
 20
23.999999999999996
 10
4.484771472425864
 20
23.0
 10
4.262222911676419
 20
22.0
 10
4.0100054751689616
 20
21.0
 10
4.0
 20
20.96348000879026
 10
3.7530425502355373
 20
20.0
 10
3.5253887234588106
 20
19.0
 10
3.303534837583155
 20
18.0
 10
3.0652802010624693
 20
17.0
 10
3.0
 20
16.74263102381906
 10
2.8176222369133943
 20
16.0
 10
2.607774270720225
 20
15.0
 10
2.420438111976483
 20
14.0
 10
2.2411705644131255
 20
13.0
 10
2.0612820497996616
 20
12.0
 10
2.0
 20
11.650653135641413
 10
1.8871682585281255
 20
10.999999999999998
 10
1.7477438964174676
 20
10.0
 10
1.6379833557605417
 20
9.0
 10
1.55247002763242
 20
8.0
 10
1.4881457876788318
 20
7.0
 10
1.4435738952852633
 20
6.0
 10
1.4182054311010233
 20
5.0
 10
1.4117924557613246
 20
4.0
 10
1.4240445185463215
 20
3.0
 10
1.454564335449109
 20
2.0
 10
1.5030476624125506
 20
1.0
 10
1.5696965451863645
 20
0.0
  0
LWPOLYLINE
  5
36
330
17
100
AcDbEntity
  8
0
100
AcDbPolyline
 90
86
 70
0
 10
255.0
 20
104.96323834384296
 10
254.87981746151502
 20
105.0
 10
254.00000000000003
 20
105.25336876080056
 10
253.0
 20
105.49882801216842
 10
252.0
 20
105.72685382886003
 10
251.0
 20
105.95644345898613
 10
250.803890025766
 20
106.0
 10
249.99999999999997
 20
106.17199769383238
 10
249.0
 20
106.33472334443115
 10
248.0
 20
106.4547220888849
 10
247.0
 20
106.5365788852261
 10
246.0
 20
106.5796655745828
 10
245.0
 20
106.5808176928671
 10
244.0
 20
106.53633685272666
 10
243.0
 20
106.4415984327866
 10
242.0
 20
106.28662735456055
 10
241.00000000000003
 20
106.04639612092843
 10
240.86112791500528
 20
105.99999999999999
 10
240.0
 20
105.72565239473413
 10
239.0
 20
105.35969009392367
 10
238.2688107714025
 20
105.0
 10
238.0
 20
104.85663251156184
 10
237.0
 20
104.2734957345531
 10
236.62366428198013
 20
104.0
 10
236.0
 20
103.51499792952691
 10
235.4257528301907
 20
103.0
 10
235.0
 20
102.57188264669782
 10
234.4926318598894
 20
102.0
 10
234.0
 20
101.35454923671323
 10
233.74682927635973
 20
101.0
 10
233.18549883888716
 20
100.0
 10
233.0
 20
99.62760157201993
 10
232.70670668060464
 20
99.0
 10
232.37872341689737
 20
98.0
 10
232.1313262295871
 20
97.0
 10
232.0
 20
96.27672315748777
 10
231.94797032551355
 20
96.0
 10
231.85532620553954
 20
95.00000000000001
 10
231.84935571539836
 20
94.0
 10
231.9268111582062
 20
93.0
 10
232.0
 20
92.5592833649754
 10
232.09117275613258
 20
92.0
 10
232.31367833238477
 20
91.0
 10
232.59278000146352
 20
90.0
 10
232.97600943271345
 20
89.0
 10
232.99999999999997
 20
88.95098384628034
 10
233.44359328910156
 20
88.0
 10
233.98749116240114
 20
87.0
 10
234.0
 20
86.98081917142277
 10
234.6256965143404
 20
86.0
 10
235.0
 20
85.48942021626088
 10
235.37773649933428
 20
85.0
 10
236.0
 20
84.25240918723759
 10
236.22525011400717
 20
84.0
 10
237.0
 20
83.18063810700806
 10
237.18147020392385
 20
83.0
 10
238.0
 20
82.23030504743156
 10
238.25657648986711
 20
82.0
 10
239.0
 20
81.3672659474234
 10
239.4504011671301
 20
81.0
 10
240.0
 20
80.56705906321093
 10
240.76375115023433
 20
80.0
 10
241.0
 20
79.82371237821178
 10
242.0
 20
79.14621089116517
 10
242.21008173232616
 20
79.0
 10
243.0
 20
78.47700516675349
 10
243.74011394919728
 20
78.0
 10
244.0
 20
77.82841003351233
 10
245.0
 20
77.22693683992765
 10
245.35692997396694
 20
77.0
 10
246.0
 20
76.60018945835313
 10
246.99569779642536
 20
75.99999999999999
 10
247.0
 20
75.99721627795608
 10
248.0
 20
75.39110451933878
 10
248.61947851928994
 20
75.0
 10
249.0
 20
74.75386586650828
 10
250.0
 20
74.13350040788268
 10
250.19548187314814
 20
74.0
 10
251.0
 20
73.46430075927556
 10
251.668058774491
 20
73.0
 10
252.0
 20
72.76046745117819
 10
253.0
 20
72.04157353910374
 10
253.0529413587235
 20
72.0
 10
254.0
 20
71.2675356544022
 10
254.3225624912741
 20
71.0
 10
255.0
 20
70.42836733964677
  0
LWPOLYLINE
  5
37
330
17
100
AcDbEntity
  8
0
100
AcDbPolyline
 90
186
 70
0
 10
0.0
 20
120.89591360783396
 10
1.0
 20
120.78918701484437
 10
2.0
 20
120.70131328039487
 10
3.0
 20
120.63017968977968
 10
4.0
 20
120.57458374192812
 10
5.0
 20
120.53414368102702
 10
6.0
 20
120.50912696475628
 10
7.0
 20
120.5002463197385
 10
8.0
 20
120.50849178412645
 10
9.0
 20
120.53507686566286
 10
10.0
 20
120.5815821633332
 10
11.0
 20
120.65037650420392
 10
12.0
 20
120.74537796328212
 10
13.0
 20
120.8731920415254
 10
13.751525343973045
 20
121.0
 10
14.0
 20
121.0429180462402
 10
15.0
 20
121.230753534319
 10
16.0
 20
121.427999472121
 10
17.0
 20
121.64845719407296
 10
17.999999999999996
 20
121.92059019734612
 10
18.238359161543457
 20
122.0
 10
19.0
 20
122.24420332633765
 10
20.0
 20
122.56188143933787
 10
21.0
 20
122.9312445004369
 10
21.155854961385295
 20
122.99999999999999
 10
22.0
 20
123.35467772948351
 10
23.0
 20
123.77956788760838
 10
23.435832921711366
 20
124.0
 10
24.0
 20
124.28647737263583
 10
25.0
 20
124.7893932277568
 10
25.360393550686357
 20
125.0
 10
26.0
 20
125.37235441680244
 10
27.0
 20
125.9695459193841
 10
27.045332617909036
 20
126.0
 10
28.0
 20
126.61635850627059
 10
28.550306371991326
 20
127.0
 10
29.0
 20
127.3221132902898
 10
29.930199084585283
 20
128.0
 10
30.0
 20
128.05427263604318
 10
31.0
 20
128.8231913619828
 10
31.213777150173136
 20
129.0
 10
32.0
 20
129.6513556845408
 10
32.402023108928724
 20
130.0
 10
33.0
 20
130.52788088797104
 10
33.517982629193284
 20
131.0
 10
34.0
 20
131.4502493529344
 10
34.57296586437138
 20
132.0
 10
35.0
 20
132.4205629895547
 10
35.57312448539864
 20
133.0
 10
36.0
 20
133.443101734606
 10
36.522508081558215
 20
134.0
 10
37.0
 20
134.5240019012297
 10
37.4236330055047
 20
135.0
 10
38.0
 20
135.6733636046953
 10
38.27589109415659
 20
136.0
 10
39.0
 20
136.91115734838803
 10
39.07129045621655
 20
137.0
 10
39.80504339428111
 20
138.0
 10
40.0
 20
138.2662612508087
 10
40.50993287087416
 20
139.0
 10
41.0
 20
139.74996197738574
 10
41.16496907566114
 20
140.0
 10
41.73678086606857
 20
141.0
 10
42.0
 20
141.46424554983642
 10
42.29539767970689
 20
142.0
 10
42.75678269717073
 20
143.0
 10
43.0
 20
143.53396659307316
 10
43.209945828462025
 20
144.0
 10
43.56622052758868
 20
145.0
 10
43.87705124599701
 20
146.0
 10
44.0
 20
146.4235350649971
 10
44.16480560214191
 20
147.0
 10
44.368742931030724
 20
148.0
 10
44.506984609158664
 20
149.0
 10
44.59070001607115
 20
150.0
 10
44.62078319995306
 20
151.0
 10
44.59498587775345
 20
152.0
 10
44.51077539625727
 20
153.0
 10
44.36173989477143
 20
154.0
 10
44.12642614510474
 20
155.00000000000003
 10
44.0
 20
155.36880077871936
 10
43.78505109995504
 20
156.0
 10
43.394943533415756
 20
157.0
 10
43.0
 20
157.75775062610933
 10
42.861471061940044
 20
158.0
 10
42.23023691920959
 20
159.0
 10
42.0
 20
159.2953472333239
 10
41.407280536678634
 20
160.0
 10
41.0
 20
160.42101908208235
 10
40.363840572682555
 20
161.0
 10
40.0
 20
161.3013975131554
 10
39.0
 20
161.98547522087495
 10
38.976657533186454
 20
162.0
 10
38.0
 20
162.53315103893215
 10
37.0
 20
162.96579939028317
 10
36.91102405762613
 20
163.0
 10
36.0
 20
163.31994275826813
 10
35.0
 20
163.55805971153282
 10
34.0
 20
163.7295555341346
 10
33.0
 20
163.8498466607408
 10
32.0
 20
163.9209623461028
 10
31.0
 20
163.94436495141167
 10
30.0
 20
163.92613876859107
 10
29.0
 20
163.87672076856404
 10
28.0
 20
163.80828202922226
 10
27.0
 20
163.73228854854437
 10
26.0
 20
163.6584226346933
 10
25.0
 20
163.594833161281
 10
24.0
 20
163.54900392778018
 10
23.0
 20
163.5284589745283
 10
22.0
 20
163.54099219180517
 10
21.0
 20
163.59496252018175
 10
20.0
 20
163.7011467759557
 10
19.0
 20
163.87828386595083
 10
18.54674940523131
 20
164.0
 10
18.0
 20
164.14699199224808
 10
17.0
 20
164.46249885798386
 10
16.0
 20
164.86954956001523
 10
15.759546389540478
 20
165.0
 10
15.0
 20
165.4158312324247
 10
14.10714048182421
 20
165.99999999999997
 10
14.0
 20
166.07932938138322
 10
13.0
 20
166.9003930234679
 10
12.895316317727204
 20
167.0
 10
12.0
 20
167.95313766221727
 10
11.959343729446324
 20
168.0
 10
11.21833976213015
 20
169.0
 10
11.0
 20
169.32607291301431
 10
10.584896701441043
 20
170.0
 10
10.082882010298107
 20
171.0
 10
10.0
 20
171.17441661444275
 10
9.639889557579135
 20
172.0
 10
9.305533438982525
 20
173.0
 10
9.0
 20
173.99500996255912
 10
8.998358309293081
 20
174.0
 10
8.738785878478254
 20
175.0
 10
8.548197820660071
 20
176.0
 10
8.397127597014439
 20
177.0
 10
8.270303593783042
 20
178.0
 10
8.160249761248503
 20
179.0
 10
8.063278820652577
 20
180.0
 10
8.0
 20
180.74012966251357
 10
7.977415639898284
 20
181.0
 10
7.906318618431992
 20
182.0
 10
7.8471688433473945
 20
183.0
 10
7.795209026967397
 20
184.0
 10
7.746608245348759
 20
185.0
 10
7.698183187467233
 20
186.0
 10
7.647206165067356
 20
187.0
 10
7.591230776716267
 20
188.0
 10
7.527885094046425
 20
189.0
 10
7.454596025296572
 20
190.0
 10
7.368224267818068
 20
191.0
 10
7.264610585463273
 20
192.0
 10
7.138053258964788
 20
193.0
 10
7.0
 20
193.88338653793133
 10
6.981116261356547
 20
194.0
 10
6.8122279085195006
 20
195.0
 10
6.643678287347151
 20
196.0
 10
6.4684955215724145
 20
197.0
 10
6.273667571525855
 20
198.0
 10
6.039799444607781
 20
199.0
 10
6.0
 20
199.14667685637266
 10
5.7804907941848604
 20
200.0
 10
5.536613938170052
 20
201.0
 10
5.28166562910733
 20
202.0
 10
5.0
 20
202.93439625497365
 10
4.978774308256474
 20
203.0
 10
4.669941137391869
 20
204.0
 10
4.376416758605282
 20
205.0
 10
4.045861135198424
 20
206.0
 10
4.0
 20
206.12227922844167
 10
3.6909401205316916
 20
207.0
 10
3.3626913675905126
 20
208.0
 10
3.0
 20
208.98128110126245
 10
2.9924758388074175
 20
209.0
 10
2.6164263287134712
 20
210.0
 10
2.2584912355545432
 20
211.0
 10
2.0
 20
211.63438652965317
 10
1.8472897498645544
 20
212.0
 10
1.4664935231302936
 20
213.0
 10
1.0679597814395199
 20
214.0
 10
1.0
 20
214.15199710122252
 10
0.6426517638939454
 20
215.0
 10
0.24658688261091677
 20
216.0
 10
0.0
 20
216.55175886720232
  0
LWPOLYLINE
  5
38
330
17
100
AcDbEntity
  8
0
100
AcDbPolyline
 90
39
 70
0
 10
255.0
 20
131.17703013133362
 10
254.0
 20
131.4365946403463
 10
253.0
 20
131.76623913868428
 10
252.4846791125755
 20
132.0
 10
252.0
 20
132.22877331466879
 10
251.0
 20
132.75530195710525
 10
250.63716585594898
 20
133.0
 10
250.0
 20
133.45733468638656
 10
249.35647368678144
 20
134.0
 10
249.0
 20
134.34088338258303
 10
248.39766850847695
 20
135.0
 10
248.0
 20
135.51322555539224
 10
247.65744180469687
 20
136.0
 10
247.1250167782656
 20
137.0
 10
247.0
 20
137.27809486357688
 10
246.70080751797244
 20
138.0
 10
246.44142635855025
 20
139.0
 10
246.289852614587
 20
140.0
 10
246.23498436845176
 20
141.0
 10
246.27768540985517
 20
142.0
 10
246.41363960417584
 20
143.0
 10
246.64542358987467
 20
144.0
 10
247.0
 20
144.96024850062645
 10
247.0163622112434
 20
145.0
 10
247.49244958315768
 20
146.0
 10
248.0
 20
146.84171121646497
 10
248.10716501995486
 20
147.0
 10
248.854595646971
 20
148.0
 10
249.0
 20
148.16483123156718
 10
249.79981084640434
 20
149.0
 10
250.0
 20
149.18912450077102
 10
250.97477081938237
 20
150.0
 10
251.0
 20
150.02020498045488
 10
252.0
 20
150.70593006073966
 10
252.47050823583953
 20
151.0
 10
253.0
 20
151.3148390071196
 10
254.0
 20
151.79453627145037
 10
254.4502991504488
 20
152.0
 10
255.0
 20
152.2426069548715
  0
LWPOLYLINE
  5
39
330
17
100
AcDbEntity
  8
0
100
AcDbPolyline
 90
60
 70
0
 10
0.0
 20
152.57842705239085
 10
1.0
 20
152.862344302948
 10
1.539192613777304
 20
153.0
 10
2.0
 20
153.1180800750575
 10
3.0
 20
153.2959419824036
 10
4.0
 20
153.40731841125503
 10
5.0
 20
153.4629497761016
 10
6.0
 20
153.46500157923714
 10
7.0
 20
153.41143165849815
 10
8.0
 20
153.295573838711
 10
9.0
 20
153.09968935917775
 10
9.341350244047408
 20
153.0
 10
10.0
 20
152.81065721746398
 10
11.0
 20
152.476015076161
 10
12.0
 20
152.02987286489133
 10
12.051956150511362
 20
152.0
 10
13.0
 20
151.46263914508853
 10
13.664432352984907
 20
151.0
 10
14.0
 20
150.74086974431182
 10
14.836148783591906
 20
150.0
 10
15.0
 20
149.83434582779057
 10
15.721640736376255
 20
149.0
 10
16.0
 20
148.6259748640204
 10
16.419799211988366
 20
148.0
 10
16.937040583959483
 20
147.0
 10
17.0
 20
146.85920774916124
 10
17.347006048322463
 20
146.0
 10
17.60627339462462
 20
145.0
 10
17.770220115888932
 20
144.0
 10
17.844362394751553
 20
143.0
 10
17.822708968248662
 20
142.0
 10
17.708188435017384
 20
141.0
 10
17.506703896035358
 20
140.0
 10
17.197961044073065
 20
139.0
 10
17.0
 20
138.56364837191364
 10
16.736250687591752
 20
138.0
 10
16.188826556941272
 20
137.0
 10
16.0
 20
136.731668128392
 10
15.456568252639094
 20
136.0
 10
15.0
 20
135.4747851897916
 10
14.541561130822899
 20
135.0
 10
14.0
 20
134.49824850204573
 10
13.39033910432894
 20
134.0
 10
13.0
 20
133.70243176383252
 10
12.0
 20
133.06713577056814
 10
11.887921726060796
 20
133.0
 10
11.0
 20
132.52193735923638
 10
10.0
 20
132.08057274896044
 10
9.806915475790545
 20
132.0
 10
9.0
 20
131.68770746165345
 10
8.0
 20
131.40119061440666
 10
7.0
 20
131.1633543060576
 10
6.205459686903765
 20
131.0
 10
6.0
 20
130.95608227242698
 10
5.0
 20
130.81058451696987
 10
4.0
 20
130.72847773464264
 10
3.0
 20
130.70067414591983
 10
2.0
 20
130.72543363101067
 10
1.0
 20
130.80683194163504
 10
0.0
 20
130.95718719272205
  0
LWPOLYLINE
  5
3A
330
17
100
AcDbEntity
  8
0
100
AcDbPolyline
 90
62
 70
0
 10
255.0
 20
218.85802863354243
 10
254.93206984313454
 20
219.0
 10
254.49189148944788
 20
220.0
 10
254.03936440963795
 20
221.0
 10
254.0
 20
221.07817146909252
 10
253.56675406974114
 20
222.0
 10
253.1051440028108
 20
223.0
 10
253.0
 20
223.20285674487133
 10
252.6057280298433
 20
224.0
 10
252.12544216464607
 20
225.0
 10
252.0
 20
225.23250315898886
 10
251.60215434670437
 20
226.0
 10
251.0944289721161
 20
227.0
 10
251.0
 20
227.1662748612746
 10
250.54870619215316
 20
228.0
 10
250.00098366603225
 20
229.0
 10
250.0
 20
229.00163036835104
 10
249.43762063744322
 20
230.0
 10
249.0
 20
230.74101377180273
 10
248.84023935438276
 20
231.0
 10
248.2572016711337
 20
232.0
 10
248.0
 20
232.402003309157
 10
247.61941386658697
 20
233.0
 10
247.0
 20
233.97379120214532
 10
246.98209731303825
 20
234.0
 10
246.3287378615087
 20
235.0
 10
246.0
 20
235.4728831753164
 10
245.63113773818986
 20
236.0
 10
245.0
 20
236.90138566290253
 10
244.92703457431958
 20
237.0
 10
244.21454906658838
 20
238.0
 10
244.0
 20
238.2818944536078
 10
243.4600220905998
 20
239.0
 10
243.0
 20
239.5967856987733
 10
242.68336447279435
 20
240.0
 10
242.0
 20
240.87460502387432
 10
241.89800525215898
 20
241.0
 10
241.10643789463327
 20
242.00000000000003
 10
241.0
 20
242.12787265948913
 10
240.28859220497844
 20
243.0
 10
239.99999999999997
 20
243.34353321008308
 10
239.4513815311003
 20
244.0
 10
239.0
 20
244.5338108980137
 10
238.60330220815598
 20
245.0
 10
238.0
 20
245.71115954821397
 10
237.75113203033087
 20
246.0
 10
237.0
 20
246.88594823604652
 10
236.9009904398017
 20
247.0
 10
236.05783020866448
 20
248.00000000000003
 10
236.0
 20
248.06665336268276
 10
235.21243495353187
 20
249.0
 10
235.0
 20
249.2473038079474
 10
234.3659001485988
 20
250.0
 10
234.0
 20
250.4321458261157
 10
233.52365448830938
 20
251.0
 10
233.0
 20
251.63029707217993
 10
232.69174777306802
 20
252.0
 10
232.0
 20
252.8523714607095
 10
231.87777783954436
 20
253.0
 10
231.0887142722938
 20
254.00000000000003
 10
231.0
 20
254.10901443157536
 10
230.30304014101358
 20
255.0
  0
LWPOLYLINE
  5
3B
330
17
100
AcDbEntity
  8
0
100
AcDbPolyline
 90
400
 70
0
 10
1.655771860766774
 20
255.0
 10
1.764198200966969
 20
254.0
 10
1.9001428066359796
 20
252.99999999999997
 10
2.0
 20
252.40216063938732
 10
2.0675927972647936
 20
252.0
 10
2.2396538409902482
 20
251.0
 10
2.4122012993613673
 20
250.0
 10
2.5939785515651095
 20
249.0
 10
2.799962177408644
 20
248.0
 10
3.0
 20
247.1905760074502
 10
3.049215281969275
 20
247.0
 10
3.299054644147798
 20
246.0
 10
3.5390516402493253
 20
245.0
 10
3.7985103990977973
 20
244.0
 10
4.0
 20
243.33976071672663
 10
4.106480450979017
 20
243.0
 10
4.399079011163323
 20
242.0
 10
4.686979423919326
 20
241.0
 10
5.0
 20
240.0567110945995
 10
5.020291179797399
 20
240.0
 10
5.356400007976363
 20
239.0
 10
5.674263233329036
 20
238.00000000000003
 10
6.0
 20
237.09724733114265
 10
6.037637166756944
 20
237.0
 10
6.396618005616814
 20
236.0
 10
6.740457370017358
 20
235.0
 10
7.0
 20
234.33564343064995
 10
7.135052637706787
 20
234.0
 10
7.500656374484738
 20
233.0
 10
7.872545344726441
 20
232.0
 10
8.0
 20
231.69596508974897
 10
8.282062408118055
 20
231.0
 10
8.651415874734255
 20
230.0
 10
9.0
 20
229.14235007257903
 10
9.061558248292263
 20
229.0
 10
9.455215961762
 20
228.0
 10
9.839248903249317
 20
227.0
 10
10.0
 20
226.62613751539885
 10
10.263158272938199
 20
226.0
 10
10.642210824391972
 20
225.0
 10
11.0
 20
224.13094395403246
 10
11.05740607639704
 20
224.0
 10
11.45396297685184
 20
223.0
 10
11.836791976717745
 20
222.0
 10
12.0
 20
221.61645040653264
 10
12.256559898213736
 20
221.0
 10
12.628234219838351
 20
220.0
 10
13.0
 20
219.0679471938015
 10
13.029140636244637
 20
219.0
 10
13.416612341279109
 20
218.0
 10
13.77853107970897
 20
217.00000000000003
 10
14.0
 20
216.44617861403384
 10
14.179665785345767
 20
216.0
 10
14.534844214079051
 20
215.0
 10
14.89272972179213
 20
214.0
 10
15.0
 20
213.7272926828631
 10
15.274380639799915
 20
213.0
 10
15.608009112321568
 20
212.00000000000003
 10
15.960036221929082
 20
211.0
 10
16.0
 20
210.89555991144243
 10
16.31966236109162
 20
210.0
 10
16.63850406854837
 20
209.0
 10
16.98252938090552
 20
208.0
 10
17.0
 20
207.95326705126323
 10
17.32962525111818
 20
207.0
 10
17.641885540685468
 20
206.0
 10
17.983397034877797
 20
205.0
 10
18.0
 20
204.9557341489965
 10
18.33175735202284
 20
204.0
 10
18.650495246938753
 20
203.0
 10
19.0
 20
202.02001534854685
 10
19.00774849519183
 20
202.0
 10
19.369819847975272
 20
201.0
 10
19.71454212682525
 20
200.0
 10
20.0
 20
199.2811751942273
 10
20.116355247205522
 20
199.0
 10
20.502322282285512
 20
198.0
 10
20.910960701843273
 20
197.0
 10
21.0
 20
196.81166683305833
 10
21.366449755557333
 20
196.0
 10
21.813465297684303
 20
195.0
 10
22.0
 20
194.6422758133548
 10
22.331003775903337
 20
194.0
 10
22.843865250352284
 20
193.0
 10
23.0
 20
192.73684351301716
 10
23.42908790185013
 20
192.0
 10
24.0
 20
191.06584761190993
 10
24.04367194312087
 20
191.0
 10
24.696954154600192
 20
190.0
 10
25.0
 20
189.5813175767474
 10
25.429018356506624
 20
189.0
 10
26.0
 20
188.2639153294453
 10
26.215926314681997
 20
188.0
 10
27.0
 20
187.07038263809272
 10
27.063100980589297
 20
187.0
 10
27.988778201403534
 20
186.0
 10
28.0
 20
185.9885232044164
 10
29.0
 20
185.0088664717858
 10
29.009399956001108
 20
185.0
 10
30.0
 20
184.1167918961668
 10
30.13466924348466
 20
184.0
 10
31.0
 20
183.29204368838106
 10
31.368195597489684
 20
183.0
 10
32.0
 20
182.51921774005416
 10
32.72262439031103
 20
182.0
 10
33.0
 20
181.80045306832383
 10
34.0
 20
181.15623325648
 10
34.237364916211874
 20
181.0
 10
35.0
 20
180.5244941996689
 10
35.892828692637075
 20
180.0
 10
36.0
 20
179.9341664888025
 10
37.0
 20
179.3897792949973
 10
37.716989150549495
 20
179.0
 10
38.0
 20
178.84195133037184
 10
39.0
 20
178.34891517144047
 10
39.68166651070243
 20
178.0
 10
40.0
 20
177.83259408248375
 10
41.0
 20
177.36343480130745
 10
41.73244142762674
 20
177.00000000000003
 10
41.99999999999999
 20
176.86177349708186
 10
43.0
 20
176.39239786839744
 10
43.78093836308961
 20
176.0
 10
44.0
 20
175.88394460049656
 10
45.0
 20
175.3912205058768
 10
45.72785489383682
 20
175.0
 10
46.0
 20
174.84633883466944
 10
47.0
 20
174.30701086982705
 10
47.50512833810312
 20
174.0
 10
48.00000000000001
 20
173.69244643845715
 10
49.0
 20
173.0616120787421
 10
49.08614029933241
 20
173.0
 10
50.0
 20
172.35514370500607
 10
50.457450505083784
 20
172.0
 10
51.0
 20
171.56126091871465
 10
51.647853321843
 20
171.0
 10
51.99999999999999
 20
170.67471996633117
 10
52.682595354364636
 20
170.0
 10
53.0
 20
169.66322299559337
 10
53.58164204235223
 20
169.0
 10
54.0
 20
168.48121875993067
 10
54.367018295457115
 20
168.0
 10
55.0
 20
167.05158105598235
 10
55.03475610226354
 20
167.0
 10
55.5995844474572
 20
166.0
 10
56.0
 20
165.206921920801
 10
56.10622479079986
 20
165.0
 10
56.51241344064641
 20
164.0
 10
56.84962958824586
 20
163.0
 10
57.0
 20
162.5233804956884
 10
57.16262044341185
 20
162.0
 10
57.389744737736905
 20
161.0
 10
57.55624730887875
 20
160.0
 10
57.681521813430756
 20
159.0
 10
57.77252342955045
 20
158.0
 10
57.83111588955292
 20
157.0
 10
57.85869807364388
 20
156.0
 10
57.85835515079897
 20
155.0
 10
57.8351441837494
 20
154.0
 10
57.795365644636114
 20
153.0
 10
57.74559690766449
 20
152.0
 10
57.69198757712242
 20
151.0
 10
57.64000145410219
 20
150.0
 10
57.59453968690979
 20
149.0
 10
57.56024411608854
 20
148.0
 10
57.541772759632565
 20
147.0
 10
57.54395079790402
 20
146.0
 10
57.57190784120693
 20
145.0
 10
57.63157887460503
 20
144.0
 10
57.73120935978543
 20
143.0
 10
57.88470955207674
 20
142.0
 10
58.0
 20
141.48252769413833
 10
58.107391110583364
 20
141.0
 10
58.36320447000235
 20
140.0
 10
58.66809420906391
 20
139.0
 10
59.0
 20
138.20214660166158
 10
59.0909044410227
 20
138.0
 10
59.57625991591218
 20
137.0
 10
60.0
 20
136.3038202178393
 10
60.20215274524363
 20
136.0
 10
60.94692240942111
 20
135.0
 10
61.0
 20
134.939658438454
 10
61.907124731786844
 20
134.0
 10
62.0
 20
133.91409821757864
 10
63.0
 20
133.13154142665712
 10
63.190396148620856
 20
133.0
 10
64.0
 20
132.50295685001504
 10
65.0
 20
132.02733949546123
 10
65.06695611032605
 20
132.0
 10
66.0
 20
131.65609409089177
 10
67.0
 20
131.4250230264169
 10
68.0
 20
131.28744941916457
 10
69.0
 20
131.237332730125
 10
70.0
 20
131.27730040499597
 10
71.0
 20
131.40561653952085
 10
72.0
 20
131.62688386574925
 10
73.0
 20
131.9839132809805
 10
73.03264658870921
 20
132.0
 10
74.0
 20
132.46148447114552
 10
74.87760592284911
 20
133.0
 10
75.0
 20
133.08568856342845
 10
76.0
 20
133.88229986001926
 10
76.12434248039035
 20
134.0
 10
77.0
 20
134.94745210454855
 10
77.04442992422119
 20
135.0
 10
77.74362360675043
 20
136.0
 10
78.0
 20
136.42448885798376
 10
78.32364173945724
 20
137.0
 10
78.73987037816526
 20
138.0
 10
79.0
 20
138.731230215792
 10
79.09762432114745
 20
139.0
 10
79.34924541684146
 20
140.0
 10
79.50797558311112
 20
141.0
 10
79.59982314977222
 20
142.0
 10
79.6334562895704
 20
143.0
 10
79.61299319578903
 20
144.0
 10
79.5426511062892
 20
145.0
 10
79.42522649721246
 20
146.0
 10
79.25723132140666
 20
147.0
 10
79.02335520205911
 20
148.00000000000003
 10
79.0
 20
148.079351533983
 10
78.7461110722555
 20
149.0
 10
78.46518605490414
 20
150.0
 10
78.14244322851168
 20
151.0
 10
78.0
 20
151.36549249688852
 10
77.75732293047459
 20
152.0
 10
77.39186692125065
 20
153.0
 10
77.0
 20
153.94303517828078
 10
76.97432069890647
 20
154.0
 10
76.54964547827998
 20
155.0
 10
76.12445604274639
 20
156.0
 10
76.0
 20
156.25851435766597
 10
75.6570140722142
 20
157.0
 10
75.22236208916506
 20
158.0
 10
75.0
 20
158.45770776353103
 10
74.73839426741728
 20
159.0
 10
74.29775184781708
 20
160.0
 10
74.0
 20
160.61669452911667
 10
73.81132071237816
 20
161.0
 10
73.36718737689722
 20
162.0
 10
73.0
 20
162.772431317458
 10
72.88678126687273
 20
163.0
 10
72.43783371744041
 20
164.0
 10
72.0
 20
164.93758127846507
 10
71.96863228970838
 20
165.0
 10
71.50946205762858
 20
166.0
 10
71.05149258847321
 20
167.0
 10
71.0
 20
167.10194630227244
 10
70.5757330389932
 20
168.0
 10
70.11889328564044
 20
169.0
 10
70.0
 20
169.23284478163833
 10
69.6247835867191
 20
170.0
 10
69.15618188512074
 20
171.0
 10
69.0
 20
171.29618181191282
 10
68.63970652939483
 20
172.0
 10
68.14521310050547
 20
173.0
 10
68.0
 20
173.26025430980047
 10
67.60007830401615
 20
174.0
 10
67.06134145539974
 20
175.0
 10
67.0
 20
175.10156413780834
 10
66.4836706086086
 20
176.0
 10
66.0
 20
176.8029368874392
 10
65.87435033487388
 20
177.0
 10
65.26137043317536
 20
178.0
 10
65.0
 20
178.3856061369914
 10
64.58257620121839
 20
179.0
 10
64.0
 20
179.8329445923259
 10
63.87623297697079
 20
180.0
 10
63.14526283883334
 20
181.0
 10
63.0
 20
181.1821944249101
 10
62.349617625958246
 20
182.0
 10
62.0
 20
182.41560957133302
 10
61.497450046835404
 20
183.0
 10
61.0
 20
183.55598857860588
 10
60.58950169859772
 20
184.0
 10
60.0
 20
184.61601628378492
 10
59.61946973730059
 20
185.0
 10
59.0
 20
185.6037871955536
 10
58.57917947770727
 20
186.0
 10
58.0
 20
186.5271303792916
 10
57.460305822510215
 20
187.0
 10
57.0
 20
187.39296489680214
 10
56.25139668443818
 20
188.0
 10
56.0
 20
188.20279726981224
 10
55.0
 20
188.94662855116175
 10
54.929174239196556
 20
189.0
 10
54.0
 20
189.65469928861413
 10
53.50124649142603
 20
190.0
 10
53.0
 20
190.34095917195756
 10
52.0
 20
190.9672942409113
 10
51.94966938387677
 20
191.0
 10
51.0
 20
191.57193064282887
 10
50.27413737187115
 20
192.0
 10
50.0
 20
192.16567109883658
 10
49.0
 20
192.70430441417813
 10
48.474406194359915
 20
193.0
 10
48.0
 20
193.26663411807536
 10
47.0
 20
193.77544258789553
 10
46.591656672097685
 20
194.0
 10
46.0
 20
194.32039754501776
 10
45.0
 20
194.82437696380578
 10
44.68487064031911
 20
195.0
 10
44.0
 20
195.3721914373942
 10
43.0
 20
195.8992490721768
 10
42.829489712459186
 20
196.0
 10
42.0
 20
196.47112995712428
 10
41.10119884093304
 20
197.0
 10
41.0
 20
197.0641532257715
 10
40.0
 20
197.67944803988485
 10
39.5306064758516
 20
198.0
 10
39.0
 20
198.3713538357282
 10
38.14289208356134
 20
199.0
 10
38.0
 20
199.11279043126498
 10
37.0
 20
199.92665098867982
 10
36.91825004584852
 20
200.0
 10
36.0
 20
200.86221074443526
 10
35.86384685540298
 20
201.0
 10
35.0
 20
201.95438814119777
 10
34.96051989952621
 20
202.0
 10
34.20006084944497
 20
203.0
 10
34.0
 20
203.28323260113658
 10
33.53457755737201
 20
204.0
 10
33.0
 20
204.97523193820516
 10
32.985986553480615
 20
205.0
 10
32.53585277293593
 20
206.0
 10
32.19298162792141
 20
207.0
 10
32.0
 20
207.65128590498745
 10
31.895315090223328
 20
208.0
 10
31.6975245005115
 20
209.0
 10
31.588409732112673
 20
210.0
 10
31.553175505527776
 20
211.0
 10
31.588754968946475
 20
212.0
 10
31.698773743913016
 20
213.0
 10
31.898876684730617
 20
214.0
 10
32.0
 20
214.3326635812699
 10
32.1999440580919
 20
214.99999999999997
 10
32.5483580280962
 20
216.0
 10
33.0
 20
216.97717113937063
 10
33.011894156637794
 20
217.0
 10
33.570848644116666
 20
218.0
 10
34.0
 20
218.64127306248173
 10
34.25942160590111
 20
219.0
 10
35.0
 20
219.9365328187302
 10
35.055484745078665
 20
220.0
 10
35.99448549712916
 20
221.0
 10
36.0
 20
221.00543050520577
 10
37.0
 20
221.91487010284015
 10
37.09861593971689
 20
221.99999999999997
 10
38.0
 20
222.721789927867
 10
38.36249045327466
 20
223.0
 10
39.0
 20
223.46680194852755
 10
39.775570201076015
 20
224.0
 10
40.0
 20
224.15615224429212
 10
41.0
 20
224.7821812365563
 10
41.33506785088306
 20
225.0
 10
42.0
 20
225.41908634471753
 10
42.95155040874933
 20
226.0
 10
43.0
 20
226.03144927901792
 10
44.0
 20
226.63842941270914
 10
44.563097090794784
 20
227.0
 10
45.0
 20
227.28565566699592
 10
46.0
 20
227.9284138919378
 10
46.100544140045095
 20
228.0
 10
47.0
 20
228.62393888443262
 10
47.503764171625775
 20
229.0
 10
48.0
 20
229.3813057056732
 10
48.770307915363844
 20
230.0
 10
49.0
 20
230.19531394904712
 10
49.90923969520293
 20
231.0
 10
50.0
 20
231.08546509815238
 10
50.92186532721534
 20
232.0
 10
51.0
 20
232.08185178087615
 10
51.81917739444647
 20
233.0
 10
52.0
 20
233.21292250862172
 10
52.62314645016485
 20
234.0
 10
53.0
 20
234.50850931604464
 10
53.349642850247804
 20
235.0
 10
53.975175608570744
 20
236.0
 10
54.0
 20
236.0401656965419
 10
54.53603822434752
 20
237.0
 10
55.0
 20
237.92995230358832
 10
55.03662114559248
 20
238.0
 10
55.46765613626874
 20
239.0
 10
55.826115053095606
 20
240.0
 10
56.0
 20
240.50323329987805
 10
56.17013020156967
 20
241.0
 10
56.427580928540465
 20
242.00000000000003
 10
56.62354723215376
 20
243.0
 10
56.777893387023
 20
244.0
 10
56.89220627540038
 20
245.0
 10
56.959258277534964
 20
246.0
 10
56.97140598007191
 20
247.0
 10
56.92625199749048
 20
248.0
 10
56.82795812236206
 20
249.0
 10
56.68342090714565
 20
250.0
 10
56.49368949765265
 20
251.0
 10
56.241987494631985
 20
252.0
 10
56.0
 20
252.69450447873217
 10
55.88852314003723
 20
253.0
 10
55.5000522277539
 20
254.0
 10
55.02833086395054
 20
255.0
  0
LWPOLYLINE
  5
3C
330
17
100
AcDbEntity
  8
0
100
AcDbPolyline
 90
608
 70
0
 10
72.77727770265159
 20
255.0
 10
73.0
 20
254.4852564603023
 10
73.2103346164966
 20
254.0
 10
73.59853456653755
 20
252.99999999999997
 10
74.0
 20
252.0226242820549
 10
74.01006321800533
 20
252.0
 10
74.41118841661688
 20
251.0
 10
74.77762150655204
 20
250.0
 10
75.0
 20
249.43704929883734
 10
75.17358293943016
 20
249.0
 10
75.51163428522199
 20
248.0
 10
75.82814961930978
 20
247.00000000000003
 10
76.0
 20
246.47683052339488
 10
76.15634649180828
 20
246.0
 10
76.42194790727235
 20
245.0
 10
76.64342491148167
 20
244.0
 10
76.84239004665709
 20
242.99999999999997
 10
77.0
 20
242.12082985918192
 10
77.02270360418773
 20
242.0
 10
77.15707165800075
 20
241.0
 10
77.23639964942205
 20
240.0
 10
77.26551157042253
 20
239.0
 10
77.24404953782229
 20
238.0
 10
77.16693118473636
 20
237.0
 10
77.0219066980172
 20
236.0
 10
77.0
 20
235.89971030034675
 10
76.81340331974928
 20
235.0
 10
76.56630792564134
 20
234.0
 10
76.2561718320632
 20
233.0
 10
76.0
 20
232.3940656877131
 10
75.82559115348099
 20
232.0
 10
75.3510058937441
 20
231.0
 10
75.0
 20
230.40940527748705
 10
74.74080898421656
 20
230.0
 10
74.0490123005857
 20
229.0
 10
74.0
 20
228.93937362539833
 10
73.21231100476082
 20
228.0
 10
73.0
 20
227.77399049346315
 10
72.21514574179818
 20
227.0
 10
72.0
 20
226.80217937604777
 10
71.03114373271475
 20
226.0
 10
71.0
 20
225.9747872448979
 10
70.0
 20
225.25848639494663
 10
69.62359441552314
 20
225.0
 10
69.0
 20
224.59286684963382
 10
68.0
 20
224.0020172394758
 10
67.99666320014191
 20
224.0
 10
67.0
 20
223.4504749566891
 10
66.16191959525855
 20
223.0
 10
66.0
 20
222.90893547079517
 10
65.0
 20
222.40102387251233
 10
64.252600409058
 20
222.0
 10
64.0
 20
221.85827672547487
 10
62.99999999999999
 20
221.3272002398839
 10
62.45480362343716
 20
221.0
 10
62.0
 20
220.71871082944438
 10
61.0
 20
220.08050299824615
 10
60.89116434882007
 20
220.0
 10
60.0
 20
219.33181127078828
 10
59.610280791204715
 20
219.0
 10
59.0
 20
218.4380924743313
 10
58.57267652393865
 20
218.0
 10
58.0
 20
217.33179887486875
 10
57.7375579876827
 20
217.00000000000003
 10
57.10291194234215
 20
216.0
 10
57.0
 20
215.81590181426563
 10
56.59121943141692
 20
215.0
 10
56.24619199264309
 20
214.0
 10
56.0
 20
213.03950496466558
 10
55.98921838580162
 20
213.00000000000003
 10
55.84191347049183
 20
212.0
 10
55.81590082772736
 20
211.0
 10
55.904803657445015
 20
210.0
 10
56.0
 20
209.556612927015
 10
56.11797636052558
 20
209.0
 10
56.41904859396812
 20
208.0
 10
56.837721780551405
 20
207.0
 10
57.0
 20
206.72026827678775
 10
57.4309484138944
 20
206.0
 10
58.0
 20
205.2167698310961
 10
58.177320446015266
 20
205.0
 10
59.0
 20
204.10970825506925
 10
59.11351779413928
 20
204.0
 10
60.0
 20
203.2310497490052
 10
60.29211597581948
 20
203.0
 10
61.0
 20
202.48393753328088
 10
61.74009879269827
 20
202.0
 10
62.0
 20
201.83098336138812
 10
63.0
 20
201.278399268972
 10
63.50583451948067
 20
201.0
 10
64.0
 20
200.73188805520454
 10
65.0
 20
200.25909615720374
 10
65.51642842311254
 20
200.0
 10
66.0
 20
199.75718644405052
 10
67.0
 20
199.30344346451272
 10
67.60641897312601
 20
199.0
 10
68.0
 20
198.79797517516184
 10
69.0
 20
198.3159856611859
 10
69.57925499391388
 20
198.0
 10
70.0
 20
197.76354758616148
 10
71.0
 20
197.21257062806856
 10
71.33450616692602
 20
197.0
 10
72.0
 20
196.57516474639863
 10
72.84781453011688
 20
196.0
 10
73.0
 20
195.88855029194877
 10
74.0
 20
195.14407864315208
 10
74.17343995480675
 20
195.0
 10
75.0
 20
194.29565425248904
 10
75.32114549161186
 20
194.0
 10
76.0
 20
193.34285834445328
 10
76.33419290878379
 20
193.0
 10
77.0
 20
192.27095982411743
 10
77.23799746765134
 20
192.0
 10
78.0
 20
191.05394722879754
 10
78.0432342463249
 20
191.0
 10
78.7622514272244
 20
190.0
 10
79.0
 20
189.66179266264567
 10
79.44249053233621
 20
189.0
 10
80.0
 20
188.09371346395946
 10
80.05964306251565
 20
188.0
 10
80.61650074491689
 20
187.0
 10
81.0
 20
186.29609623992238
 10
81.16410873241207
 20
186.0
 10
81.64268416056791
 20
185.0
 10
82.0
 20
184.26203503894533
 10
82.130744686617
 20
184.0
 10
82.56229777191359
 20
183.0
 10
82.9909304748743
 20
182.0
 10
83.0
 20
181.97995257475444
 10
83.40578285819711
 20
181.0
 10
83.77867064198412
 20
180.0
 10
84.0
 20
179.45041265004755
 10
84.18217273130756
 20
179.0
 10
84.53230468295031
 20
178.0
 10
84.87690388350933
 20
177.0
 10
85.0
 20
176.67008032207946
 10
85.24204919349343
 20
176.0
 10
85.55333461931583
 20
175.0
 10
85.8616599525965
 20
174.0
 10
86.0
 20
173.58294258286864
 10
86.19021911114692
 20
173.0
 10
86.46765773232457
 20
172.0
 10
86.72435560666668
 20
171.0
 10
86.9939799339897
 20
169.99999999999997
 10
87.0
 20
169.9779965824367
 10
87.24899153157384
 20
169.0
 10
87.4580145131493
 20
168.0
 10
87.64350097657012
 20
167.0
 10
87.81980930757989
 20
166.0
 10
87.99353203357437
 20
165.0
 10
88.0
 20
164.95991358551976
 10
88.14811783958147
 20
164.0
 10
88.2680811338469
 20
163.0
 10
88.3614108019959
 20
162.0
 10
88.43365705829697
 20
161.0
 10
88.48879395685401
 20
160.0
 10
88.52999023528004
 20
159.0
 10
88.560174577199
 20
158.0
 10
88.58238026087358
 20
157.0
 10
88.59990696541979
 20
156.0
 10
88.61636756995794
 20
155.0
 10
88.63569131528236
 20
154.0
 10
88.66214732039626
 20
153.0
 10
88.70045450982573
 20
152.0
 10
88.75607108850059
 20
151.0
 10
88.83581516567027
 20
150.0
 10
88.9490618690995
 20
149.0
 10
89.0
 20
148.6691989444472
 10
89.10056907320629
 20
148.0
 10
89.27295974580667
 20
147.0
 10
89.47035430985207
 20
146.0
 10
89.71279274066572
 20
145.0
 10
90.0
 20
144.1259508027549
 10
90.04445278241516
 20
144.0
 10
90.42003382290218
 20
143.0
 10
90.85412386549363
 20
142.0
 10
91.0
 20
141.73588373851584
 10
91.40673720283087
 20
141.0
 10
92.0
 20
140.0657165055326
 10
92.04675666397631
 20
140.0
 10
92.81219453028376
 20
139.0
 10
93.0
 20
138.7892980559626
 10
93.7680118724888
 20
138.0
 10
94.0
 20
137.784674350024
 10
94.98227843552301
 20
137.0
 10
95.00000000000001
 20
136.98639558738446
 10
96.0
 20
136.35361778107062
 10
96.66415544786058
 20
136.0
 10
97.0
 20
135.82488058677924
 10
98.0
 20
135.44862129141904
 10
99.0
 20
135.1758981621886
 10
99.89093700672515
 20
135.0
 10
100.0
 20
134.97720100118875
 10
101.0
 20
134.87973491354978
 10
102.0
 20
134.89201537534726
 10
102.84425088800236
 20
135.0
 10
103.0
 20
135.02009502855915
 10
104.0
 20
135.25096597259315
 10
105.0
 20
135.57857080729428
 10
105.84696330742663
 20
136.0
 10
106.0
 20
136.08650644461642
 10
107.00000000000001
 20
136.762399074227
 10
107.27316460032313
 20
137.0
 10
108.0
 20
137.73763889093905
 10
108.22334028795056
 20
138.0
 10
108.87548628108442
 20
139.0
 10
109.0
 20
139.23348847481236
 10
109.36562516816727
 20
140.0
 10
109.66343445188747
 20
141.0
 10
109.84535498554345
 20
142.0
 10
109.91772299949484
 20
143.0
 10
109.87540987428893
 20
144.0
 10
109.7293198189258
 20
145.0
 10
109.49270350322725
 20
146.0
 10
109.14199190556472
 20
147.0
 10
109.0
 20
147.29035897545248
 10
108.65308412461022
 20
148.0
 10
108.09048763176774
 20
149.0
 10
108.0
 20
149.131965648245
 10
107.4064890807098
 20
150.0
 10
107.0
 20
150.53245843856064
 10
106.62922256835246
 20
151.0
 10
106.0
 20
151.76714210084515
 10
105.80222926733573
 20
152.0
 10
105.0
 20
152.962370070073
 10
104.96793355735507
 20
153.0
 10
104.17234985977863
 20
154.0
 10
104.0
 20
154.221303696194
 10
103.43665490289462
 20
155.0
 10
103.0
 20
155.6737223616932
 10
102.79398848959576
 20
156.0
 10
102.30708732718813
 20
157.0
 10
102.0
 20
157.7660625558578
 10
101.90462631041046
 20
158.0
 10
101.6457555426673
 20
159.0
 10
101.52823338891366
 20
160.0
 10
101.53868184137461
 20
161.0
 10
101.69166707103973
 20
162.0
 10
101.99999999999999
 20
162.8822564864087
 10
102.04630951403779
 20
163.00000000000003
 10
102.6073750522788
 20
164.0
 10
103.0
 20
164.47563784667022
 10
103.54661298546917
 20
165.0
 10
104.0
 20
165.35285182843307
 10
105.0
 20
165.86534550330836
 10
105.39554152680003
 20
166.0
 10
106.0
 20
166.19480037289836
 10
107.0
 20
166.32497420342918
 10
108.0
 20
166.30267762475916
 10
109.0
 20
166.13346494690725
 10
109.40563537472066
 20
166.0
 10
110.0
 20
165.80418369255943
 10
111.0
 20
165.37620467832733
 10
111.63536908258719
 20
165.0
 10
112.0
 20
164.7649354177095
 10
113.0
 20
164.03577351208133
 10
113.04213031922677
 20
164.0
 10
114.0
 20
163.15574019706366
 10
114.16193838365714
 20
163.0
 10
115.0
 20
162.15658122690593
 10
115.15028994693373
 20
162.0
 10
116.0
 20
161.0847368582544
 10
116.07872335191718
 20
161.0
 10
116.99445102973513
 20
160.0
 10
117.0
 20
159.99408723495748
 10
117.94192870718116
 20
159.0
 10
118.0
 20
158.94083675508097
 10
118.96012723943426
 20
157.99999999999997
 10
119.0
 20
157.96219022989447
 10
120.0
 20
157.07863305609436
 10
120.09234812153201
 20
157.0
 10
121.0
 20
156.28391076269298
 10
121.38023609686309
 20
156.0
 10
122.0
 20
155.56212840466014
 10
122.89020445795632
 20
155.0
 10
123.0
 20
154.92932943625982
 10
124.0
 20
154.38526506178434
 10
124.76134206129933
 20
154.0
 10
124.99999999999999
 20
153.8766891844968
 10
126.0
 20
153.45377765692646
 10
127.0
 20
153.07243413929046
 10
127.19010909945352
 20
153.0
 10
128.0
 20
152.7097303128624
 10
129.0
 20
152.42376543788828
 10
130.0
 20
152.16048084864008
 10
130.60559760701142
 20
152.0
 10
131.0
 20
151.8937609222673
 10
132.0
 20
151.67386080220507
 10
133.0
 20
151.49226379132287
 10
134.0
 20
151.32955125205729
 10
135.0
 20
151.17387327032023
 10
136.0
 20
151.0192779552469
 10
136.1306892366823
 20
151.0
 10
137.0
 20
150.87541594135965
 10
138.0
 20
150.75853437012458
 10
139.0
 20
150.66306774333813
 10
140.0
 20
150.58502738492996
 10
141.0
 20
150.52195156496384
 10
142.0
 20
150.47248329284182
 10
143.0
 20
150.43597403243461
 10
144.0
 20
150.41212666596635
 10
145.0
 20
150.40070855163367
 10
146.0
 20
150.40136147340866
 10
147.0
 20
150.41352034301238
 10
148.0
 20
150.43643311699986
 10
149.0
 20
150.46925652232719
 10
150.0
 20
150.5111908880875
 10
151.0
 20
150.56161513258076
 10
152.0
 20
150.62018899753846
 10
153.0
 20
150.68690108241682
 10
154.0
 20
150.76205549348805
 10
155.0
 20
150.84620648409995
 10
156.0
 20
150.94007009016553
 10
156.583346805027
 20
151.0
 10
157.0
 20
151.04286285318952
 10
158.0
 20
151.14295290876845
 10
159.0
 20
151.2382551882225
 10
160.0
 20
151.32993883592565
 10
161.0
 20
151.41991769256322
 10
162.0
 20
151.51079071112414
 10
163.0
 20
151.60582797982244
 10
164.0
 20
151.7090259832093
 10
165.0
 20
151.82524943044587
 10
166.0
 20
151.96050193257966
 10
166.25549869459547
 20
152.0
 10
167.0
 20
152.11176659875534
 10
168.0
 20
152.26043120193577
 10
169.0
 20
152.4107270126035
 10
170.0
 20
152.57156730766988
 10
171.0
 20
152.75714532088742
 10
172.0
 20
152.98899494206103
 10
172.03984778970724
 20
153.0
 10
173.0
 20
153.24744509099185
 10
174.0
 20
153.505445402298
 10
175.0
 20
153.80092309132755
 10
175.5352273368252
 20
154.0
 10
176.0
 20
154.17543645735796
 10
177.0
 20
154.55424344022424
 10
177.98221127458223
 20
155.0
 10
178.0
 20
155.0089472083206
 10
179.0
 20
155.5212918163961
 10
179.81025818148294
 20
156.0
 10
180.0
 20
156.12207729314258
 10
181.00000000000003
 20
156.7927134634397
 10
181.26364465032077
 20
157.0
 10
182.0
 20
157.60724166254357
 10
182.42547443002684
 20
158.0
 10
183.0
 20
158.58076413486737
 10
183.37913773756972
 20
159.0
 10
184.0
 20
159.78465430901082
 10
184.16245360847728
 20
160.0
 10
184.7757822905039
 20
161.0
 10
185.0
 20
161.40857777366364
 10
185.30520591302096
 20
162.0
 10
185.67979715552167
 20
163.0
 10
185.9815314622497
 20
164.0
 10
186.0
 20
164.08044280897607
 10
186.20069895601864
 20
165.0
 10
186.3091590254238
 20
166.0
 10
186.3264340539781
 20
167.0
 10
186.25413661033662
 20
168.0
 10
186.07762243421473
 20
168.99999999999997
 10
186.0
 20
169.2636988825493
 10
185.78948284269023
 20
170.0
 10
185.4312555510084
 20
171.0
 10
185.0
 20
171.85734012689008
 10
184.9196311759197
 20
172.0
 10
184.28568007569504
 20
173.0
 10
184.0
 20
173.36108301456278
 10
183.44678307899088
 20
174.0
 10
183.0
 20
174.4484297482935
 10
182.37095914315583
 20
175.0
 10
182.0
 20
175.29729711538528
 10
181.0
 20
175.95326259677495
 10
180.9218792687492
 20
176.0
 10
180.0
 20
176.48924327747034
 10
179.0
 20
176.900612117057
 10
178.727810136722
 20
177.0
 10
178.0
 20
177.2514169784009
 10
177.0
 20
177.48338996704993
 10
176.0
 20
177.63887605661452
 10
175.0
 20
177.7332643101019
 10
174.0
 20
177.76820730428574
 10
173.0
 20
177.74437604947124
 10
172.0
 20
177.6660141650823
 10
171.0
 20
177.53819275836793
 10
170.0
 20
177.35941445535497
 10
169.0
 20
177.1126670962856
 10
168.6536056688317
 20
177.0
 10
168.0
 20
176.7917307988586
 10
167.0
 20
176.4631026856424
 10
166.0
 20
176.07583385552695
 10
165.83738567448808
 20
176.0
 10
165.0
 20
175.62741300704528
 10
164.0
 20
175.1741491381945
 10
163.67198775645073
 20
175.0
 10
163.0
 20
174.64964902617538
 10
162.0
 20
174.13467221351857
 10
161.7686513459974
 20
173.99999999999997
 10
161.0
 20
173.56853071612812
 10
160.0
 20
173.00658499347222
 10
159.98923440368753
 20
173.0
 10
159.0
 20
172.43800277255457
 10
158.24245100489526
 20
172.0
 10
158.0
 20
171.85470106521862
 10
157.0
 20
171.31266810151868
 10
156.44772438559292
 20
171.0
 10
156.0
 20
170.74675488283063
 10
155.0
 20
170.2439206920252
 10
154.5370227868533
 20
170.0
 10
154.0
 20
169.722324287505
 10
153.0
 20
169.274224360695
 10
152.40659925260053
 20
169.0
 10
152.0
 20
168.81148211626567
 10
151.0
 20
168.42325102240991
 10
150.0
 20
168.0516636097254
 10
149.86309616030778
 20
168.0
 10
149.0
 20
167.69689050866288
 10
148.0
 20
167.41371445612245
 10
147.0
 20
167.1524665628799
 10
146.40769564309664
 20
167.0
 10
146.0
 20
166.8940415161371
 10
145.0
 20
166.68968947389473
 10
144.0
 20
166.5316491023966
 10
143.0
 20
166.40521031446656
 10
142.0
 20
166.3036131195817
 10
141.0
 20
166.22508821091623
 10
140.0
 20
166.17030348511932
 10
139.0
 20
166.1403885154496
 10
138.0
 20
166.13567547415892
 10
137.0
 20
166.1551711897011
 10
136.0
 20
166.19665720025966
 10
135.0
 20
166.25724844545144
 10
134.0
 20
166.33422455517226
 10
133.0
 20
166.42596245822577
 10
132.0
 20
166.532836584638
 10
131.0
 20
166.65800833419434
 10
130.0
 20
166.8080908983755
 10
129.0
 20
166.9937794260579
 10
128.97129686331914
 20
167.0
 10
128.0
 20
167.1982740658551
 10
127.0
 20
167.3980632279048
 10
126.0
 20
167.6078214992778
 10
125.0
 20
167.8526552986599
 10
124.50834407613914
 20
168.0
 10
124.0
 20
168.15290330496367
 10
123.0
 20
168.4478797915934
 10
122.0
 20
168.76958304728765
 10
121.42654483773106
 20
169.0
 10
121.0
 20
169.17638078298992
 10
120.0
 20
169.59290762832268
 10
119.1946587131682
 20
170.0
 10
119.0
 20
170.10711944091952
 10
118.0
 20
170.67901339501748
 10
117.53640056076986
 20
171.0
 10
117.0
 20
171.3968452118915
 10
116.28398718752345
 20
172.0
 10
116.0
 20
172.26920760119884
 10
115.32041999092868
 20
173.0
 10
115.0
 20
173.40044470510998
 10
114.56960353161345
 20
174.0
 10
114.01281192820898
 20
175.0
 10
114.0
 20
175.02707531333124
 10
113.59459788443064
 20
176.0
 10
113.3346931801008
 20
177.0
 10
113.18042987892079
 20
178.0
 10
113.13310547988817
 20
179.00000000000003
 10
113.19869067998515
 20
180.0
 10
113.37105809138751
 20
181.0
 10
113.65582795140475
 20
182.0
 10
114.0
 20
182.76058420746506
 10
114.11976118223019
 20
183.0
 10
114.7177776768222
 20
184.0
 10
115.0
 20
184.36077012406167
 10
115.55927077613427
 20
185.0
 10
116.0
 20
185.4272930350157
 10
116.70204717931665
 20
186.0
 10
117.0
 20
186.22233344638335
 10
118.0
 20
186.80038734590994
 10
118.39887181298582
 20
187.0
 10
119.0
 20
187.28179298006836
 10
119.99999999999999
 20
187.60869117928047
 10
121.0
 20
187.85597776813805
 10
121.75867757992191
 20
188.0
 10
122.0
 20
188.04741146683472
 10
123.0
 20
188.16001578192564
 10
124.0
 20
188.20108791522563
 10
125.0
 20
188.18265062270672
 10
126.0
 20
188.1090987381066
 10
126.8442651124966
 20
188.0
 10
127.0
 20
187.97943657875288
 10
128.0
 20
187.81401564060968
 10
129.0
 20
187.63194804929373
 10
130.0
 20
187.43312477907426
 10
131.0
 20
187.20530204245932
 10
131.75425017431732
 20
187.00000000000003
 10
132.0
 20
186.93035274497703
 10
133.0
 20
186.66503454101843
 10
134.0
 20
186.41926901417938
 10
135.0
 20
186.16609802730093
 10
135.6049358768667
 20
186.0
 10
136.0
 20
185.88978859286863
 10
137.0
 20
185.6516715936288
 10
138.0
 20
185.44887178842544
 10
139.0
 20
185.26397351990664
 10
140.0
 20
185.08877779457617
 10
140.55415177560877
 20
185.0
 10
141.0
 20
184.92778300738587
 10
142.0
 20
184.80859654855817
 10
143.0
 20
184.73029367814507
 10
144.0
 20
184.68904229411552
 10
145.0
 20
184.68383133035474
 10
146.0
 20
184.7157259103767
 10
147.0
 20
184.78806689574395
 10
147.99999999999997
 20
184.90795645105038
 10
148.52555646309094
 20
185.0
 10
149.0
 20
185.08282130449487
 10
150.0
 20
185.2846950361337
 10
151.0
 20
185.5122234384357
 10
152.0
 20
185.79068311569648
 10
152.57586211767534
 20
186.0
 10
153.0
 20
186.1579176661034
 10
154.0
 20
186.53841711797617
 10
155.0
 20
186.99391783815747
 10
155.01116602708996
 20
187.00000000000003
 10
156.0
 20
187.51074104818815
 10
156.8360363341222
 20
188.0
 10
157.0
 20
188.10428746955714
 10
158.0
 20
188.7514509187012
 10
158.33358064995818
 20
189.0
 10
159.0
 20
189.51100166417012
 10
159.58608383012196
 20
190.0
 10
160.0
 20
190.36643149649058
 10
160.66996678201912
 20
191.0
 10
161.0
 20
191.3328170040179
 10
161.62095728728445
 20
192.0
 10
162.0
 20
192.43463567889683
 10
162.46676248695672
 20
193.0
 10
163.0
 20
193.7016489548953
 10
163.22208404767275
 20
194.0
 10
163.87270760993243
 20
195.0
 10
164.0
 20
195.19738307299605
 10
164.48103361442557
 20
196.0
 10
164.99999999999997
 20
196.96230070991857
 10
165.02137845305268
 20
197.0
 10
165.5047331882497
 20
198.0
 10
165.93665454411726
 20
199.0
 10
166.0
 20
199.14472134572003
 10
166.3480982522411
 20
200.0
 10
166.68309889361186
 20
201.0
 10
166.99999999999997
 20
201.951748936009
 10
167.01723916096145
 20
202.00000000000003
 10
167.31742819824717
 20
202.99999999999997
 10
167.5601812853741
 20
204.0
 10
167.78292391790237
 20
205.0
 10
168.0
 20
205.96834641611065
 10
168.00758290009193
 20
206.0
 10
168.20998767077208
 20
207.0
 10
168.37189898889648
 20
208.0
 10
168.50822283619988
 20
209.0
 10
168.6287726730941
 20
210.0
 10
168.73958197266808
 20
211.0
 10
168.84391893484295
 20
212.0
 10
168.94312258586314
 20
213.0
 10
169.0
 20
213.6118693657876
 10
169.03656553475062
 20
213.99999999999997
 10
169.11603221467007
 20
215.0
 10
169.181873989611
 20
216.0
 10
169.23662606993074
 20
217.0
 10
169.28230798535128
 20
218.0
 10
169.32057280338503
 20
219.0
 10
169.35281028676891
 20
220.0
 10
169.380219738302
 20
221.0
 10
169.40386123147672
 20
222.0
 10
169.42469077906526
 20
223.0
 10
169.44358353450218
 20
224.0
 10
169.46134830092586
 20
225.0
 10
169.47873602311216
 20
226.0
 10
169.49644441541955
 20
227.0
 10
169.51512038634667
 20
228.0
 10
169.53536143008955
 20
229.0
 10
169.55771663426918
 20
230.0
 10
169.5826873572089
 20
231.0
 10
169.61072691440017
 20
232.0
 10
169.6422377640403
 20
233.0
 10
169.67756374576007
 20
234.0
 10
169.71697408353322
 20
235.0
 10
169.76063548247026
 20
236.0
 10
169.8085692993953
 20
237.0
 10
169.86059308218873
 20
238.0
 10
169.91625008449992
 20
239.0
 10
169.97473617713717
 20
240.0
 10
170.0
 20
240.42570096963425
 10
170.0341336024038
 20
240.99999999999997
 10
170.08917445130473
 20
242.0
 10
170.1382134987083
 20
242.99999999999997
 10
170.1803261075157
 20
244.00000000000003
 10
170.21468933258052
 20
245.0
 10
170.24056133296588
 20
246.00000000000003
 10
170.25727133589982
 20
247.0
 10
170.2642228789212
 20
248.0
 10
170.26090507048116
 20
249.0
 10
170.24690251789664
 20
250.0
 10
170.2218964864072
 20
251.00000000000003
 10
170.18565724867233
 20
252.0
 10
170.13803716666226
 20
253.0
 10
170.0789806075577
 20
254.0
 10
170.00856527070115
 20
255.0
  0
LWPOLYLINE
  5
3D
330
17
100
AcDbEntity
  8
0
100
AcDbPolyline
 90
68
 70
0
 10
123.38393709242182
 20
255.0
 10
124.0
 20
254.18997485800224
 10
124.13626228443061
 20
254.0
 10
124.69221355551015
 20
253.0
 10
125.0
 20
252.33325272312877
 10
125.15153013625148
 20
252.0
 10
125.46305161563633
 20
251.0
 10
125.66290487262127
 20
249.99999999999997
 10
125.77835260090396
 20
249.0
 10
125.80877448690785
 20
248.0
 10
125.75282612731829
 20
246.99999999999997
 10
125.61596335360377
 20
246.0
 10
125.39756531041118
 20
245.0
 10
125.06316894939843
 20
244.0
 10
125.0
 20
243.86310674563586
 10
124.61144902517132
 20
243.0
 10
124.06666015395042
 20
242.0
 10
124.0
 20
241.90279284493985
 10
123.36602965871683
 20
241.0
 10
123.0
 20
240.5605679308439
 10
122.48704702292446
 20
240.0
 10
122.0
 20
239.52640895675754
 10
121.38671966174894
 20
239.0
 10
121.0
 20
238.6931000947984
 10
119.99999999999999
 20
238.0325999289648
 10
119.946747544325
 20
238.0
 10
119.0
 20
237.4864428367371
 10
118.00000000000001
 20
237.0496192145418
 10
117.87471748297875
 20
237.0
 10
117.0
 20
236.68219047505497
 10
116.0
 20
236.4314187809105
 10
115.0
 20
236.24942323288235
 10
114.0
 20
236.12623223340862
 10
113.0
 20
236.06879881930752
 10
112.0
 20
236.08412884771184
 10
111.0
 20
236.17076670903248
 10
110.0
 20
236.32107801306483
 10
109.0
 20
236.53420241882168
 10
108.0
 20
236.83752158808545
 10
107.61913348052607
 20
237.0
 10
107.0
 20
237.26698799363362
 10
106.0
 20
237.75898922575217
 10
105.62305302188648
 20
238.0
 10
105.0
 20
238.42006022728407
 10
104.2661499223853
 20
239.0
 10
104.0
 20
239.23672603532728
 10
103.24606406749527
 20
240.00000000000003
 10
103.0
 20
240.2846969261347
 10
102.45110281137732
 20
241.0
 10
102.0
 20
241.7066512920189
 10
101.82016453066704
 20
242.0
 10
101.36445699266142
 20
242.99999999999997
 10
101.00258683372388
 20
244.0
 10
101.0
 20
244.00900072211618
 10
100.73772558764847
 20
245.0
 10
100.59350548270066
 20
246.0
 10
100.54111939236978
 20
247.0
 10
100.57344528146169
 20
248.0
 10
100.69383652632511
 20
249.0
 10
100.92257100708193
 20
250.0
 10
101.0
 20
250.2214653353264
 10
101.26494637576894
 20
251.0
 10
101.67600216110225
 20
252.0
 10
102.0
 20
252.5781709204466
 10
102.25407580374458
 20
253.0
 10
102.94477622855416
 20
254.0
 10
103.0
 20
254.06644388338796
 10
103.83208181577251
 20
255.0
  0
LWPOLYLINE
  5
3E
330
17
100
AcDbEntity
  8
0
100
AcDbPolyline
 90
145
 70
0
 10
154.39460416125596
 20
255.0
 10
154.37706847622553
 20
254.0
 10
154.35865568142086
 20
253.0
 10
154.33888243679286
 20
252.0
 10
154.31732730093722
 20
251.0
 10
154.29362331103627
 20
250.0
 10
154.26745274479572
 20
249.0
 10
154.23854451698097
 20
248.0
 10
154.20667456246994
 20
247.0
 10
154.1716692784989
 20
246.0
 10
154.1334115985181
 20
245.0
 10
154.09184854563784
 20
244.0
 10
154.0469982477759
 20
243.0
 10
154.0
 20
242.021410909198
 10
153.99895163735627
 20
242.0
 10
153.94968331319112
 20
241.0
 10
153.90143907783641
 20
240.0
 10
153.85454167928611
 20
239.0
 10
153.809194896176
 20
238.0
 10
153.76547341550457
 20
237.0
 10
153.7233200035995
 20
236.0
 10
153.68254721862402
 20
235.0
 10
153.64284058529603
 20
234.0
 10
153.60376041824435
 20
233.0
 10
153.5647400051113
 20
232.0
 10
153.5250783030889
 20
231.0
 10
153.4839254137314
 20
230.0
 10
153.4402587416347
 20
229.0
 10
153.39284684849105
 20
228.0
 10
153.3401965217515
 20
227.0
 10
153.28047626940648
 20
226.0
 10
153.2114055777046
 20
225.0
 10
153.13009171173564
 20
224.0
 10
153.03277978293988
 20
223.0
 10
153.0
 20
222.71381134267583
 10
152.91966801767944
 20
221.99999999999997
 10
152.8018236101311
 20
221.0
 10
152.67850313453215
 20
220.0
 10
152.54588552414643
 20
219.0
 10
152.3964579064509
 20
218.0
 10
152.2172035025031
 20
217.0
 10
152.0
 20
216.0523693131403
 10
151.98720376024835
 20
216.0
 10
151.73238050176127
 20
215.0
 10
151.47181462592454
 20
214.0
 10
151.1655800044904
 20
213.0
 10
151.0
 20
212.57236667070458
 10
150.77805301327692
 20
212.0
 10
150.38350399031458
 20
211.0
 10
150.0
 20
210.20664581153375
 10
149.89208440518036
 20
210.0
 10
149.35832470513773
 20
209.0
 10
149.0
 20
208.4372065352562
 10
148.70543102617017
 20
208.0
 10
148.0
 20
207.04016458820186
 10
147.96711427276085
 20
207.0
 10
147.08527610088592
 20
206.0
 10
147.0
 20
205.91345719292292
 10
146.0
 20
205.00205112746173
 10
145.99754205797188
 20
204.99999999999997
 10
145.0
 20
204.26432529842359
 10
144.59675435761534
 20
204.0
 10
144.0
 20
203.63716901887085
 10
143.0
 20
203.16563971998124
 10
142.6055712689867
 20
203.0
 10
142.0
 20
202.75773001141317
 10
141.0
 20
202.4870528478245
 10
140.0
 20
202.3075187090425
 10
139.0
 20
202.2054310158312
 10
138.0
 20
202.1862030791038
 10
137.0
 20
202.2530569298288
 10
136.0
 20
202.40267656653026
 10
135.0
 20
202.6412227382877
 10
134.04241355318615
 20
203.0
 10
134.0
 20
203.01777768596355
 10
133.0
 20
203.50498925756216
 10
132.21155540787964
 20
204.0
 10
132.0
 20
204.14998700644702
 10
131.0
 20
204.9644620334452
 10
130.9628382567587
 20
205.0
 10
130.0472769187275
 20
206.0
 10
130.0
 20
206.0586861205276
 10
129.33978873398527
 20
207.0
 10
129.0
 20
207.57350709761806
 10
128.75943962956714
 20
208.0
 10
128.34310184669843
 20
209.00000000000003
 10
128.0
 20
209.99760513978072
 10
127.99912364818248
 20
210.0
 10
127.73711464109388
 20
211.0
 10
127.57798714390356
 20
212.0
 10
127.49198207631142
 20
213.0
 10
127.46843691602284
 20
214.0
 10
127.50324267848411
 20
215.0
 10
127.59494607395108
 20
216.0
 10
127.74769584851907
 20
217.0
 10
127.9785091476654
 20
218.0
 10
128.0
 20
218.07019919045248
 10
128.26775737935293
 20
219.0
 10
128.577620998047
 20
220.0
 10
128.962395375498
 20
221.0
 10
129.0
 20
221.08032615653798
 10
129.4076132581431
 20
222.0
 10
129.8773193208159
 20
223.0
 10
130.0
 20
223.2204434815806
 10
130.42258835646226
 20
224.0
 10
130.98926713957943
 20
225.0
 10
131.0
 20
225.01683857064882
 10
131.59399189252508
 20
226.0
 10
132.0
 20
226.63130754622122
 10
132.24424317923297
 20
227.0
 10
132.8811318975183
 20
228.0
 10
133.0
 20
228.17215691999763
 10
133.54940988176423
 20
229.0
 10
134.0
 20
229.67353458695183
 10
134.22269634859754
 20
230.00000000000003
 10
134.85306768218317
 20
231.0
 10
135.0
 20
231.2220783318887
 10
135.48953813709812
 20
232.0
 10
136.0
 20
232.84947150131035
 10
136.09382526314567
 20
232.99999999999997
 10
136.6401491937319
 20
234.0
 10
137.0
 20
234.66974909283164
 10
137.1793794646348
 20
235.0
 10
137.63640601571484
 20
236.0
 10
138.0
 20
236.82067802469805
 10
138.08275688075483
 20
237.0
 10
138.46199364237177
 20
238.0
 10
138.78269449543808
 20
239.0
 10
139.0
 20
239.6949775340895
 10
139.0978732428771
 20
240.0
 10
139.34741535161385
 20
241.0
 10
139.5370374178741
 20
242.0
 10
139.6888627085197
 20
243.0
 10
139.81092241544104
 20
244.0
 10
139.90325263800878
 20
245.0
 10
139.9630733948313
 20
246.0
 10
139.98850115914487
 20
247.0
 10
139.98043398548862
 20
248.0
 10
139.94276059318656
 20
249.0
 10
139.88142759819553
 20
250.0
 10
139.80300866953743
 20
251.0
 10
139.7133387599643
 20
252.0
 10
139.61660385639607
 20
253.0
 10
139.51506274242496
 20
254.0
 10
139.40937194961975
 20
255.0
  0
LWPOLYLINE
  5
3F
330
17
100
AcDbEntity
  8
0
100
AcDbPolyline
 90
1322
 70
0
 10
184.4989397148829
 20
255.0
 10
184.0
 20
254.02083404201977
 10
183.9889811818133
 20
254.0
 10
183.59365436164916
 20
252.99999999999997
 10
183.34166188800208
 20
252.0
 10
183.19307642253088
 20
251.0
 10
183.1546923215266
 20
250.0
 10
183.23549719660332
 20
249.0
 10
183.43351174147614
 20
248.0
 10
183.770982176692
 20
247.0
 10
184.0
 20
246.5657173037597
 10
184.31919836945445
 20
246.0
 10
185.0
 20
245.06839163456368
 10
185.05962585643584
 20
245.0
 10
186.0
 20
244.1034708881225
 10
186.13001147099388
 20
244.0
 10
187.0
 20
243.40687445580835
 10
187.76091604014533
 20
243.0
 10
188.0
 20
242.87448933006195
 10
189.0
 20
242.50192861641347
 10
190.0
 20
242.2423608456653
 10
191.0
 20
242.04820423166
 10
191.37322575919006
 20
242.0
 10
192.0
 20
241.91872461906988
 10
193.00000000000003
 20
241.8634728872855
 10
194.0
 20
241.8677403903593
 10
195.0
 20
241.9225022202866
 10
195.7722525292431
 20
242.0
 10
196.0
 20
242.0229847720079
 10
197.0
 20
242.15055973720024
 10
198.0
 20
242.28932615240444
 10
199.0
 20
242.4327211266085
 10
200.0
 20
242.5795892641442
 10
201.0
 20
242.73165284187178
 10
202.0
 20
242.89032084103542
 10
202.6827349574329
 20
243.0
 10
203.0
 20
243.05189750822564
 10
204.0
 20
243.1872337065808
 10
205.0
 20
243.2906989179785
 10
206.0
 20
243.36445992596953
 10
207.0
 20
243.4089314100878
 10
208.0
 20
243.42315211607098
 10
209.0
 20
243.4052952211674
 10
210.0
 20
243.35270509803883
 10
211.0
 20
243.26093319321797
 10
212.0
 20
243.1214791275703
 10
212.61592094498144
 20
243.0
 10
213.0
 20
242.92313040345962
 10
214.0
 20
242.6993990673571
 10
215.0
 20
242.45337443652642
 10
216.0
 20
242.15386123661284
 10
216.40502486519705
 20
242.0
 10
217.0
 20
241.7746184984597
 10
218.0
 20
241.39367818164322
 10
218.86510550719038
 20
241.0
 10
219.0
 20
240.93339345665638
 10
220.0
 20
240.447075658582
 10
220.81993984246236
 20
239.99999999999997
 10
221.0
 20
239.8944280908115
 10
222.0
 20
239.3213713391016
 10
222.49947841874604
 20
239.0
 10
223.0
 20
238.67062122179357
 10
224.0
 20
238.00088434898137
 10
224.00119887718049
 20
238.0
 10
225.0
 20
237.28707939209278
 10
225.3745413821273
 20
237.0
 10
226.0
 20
236.5167019331164
 10
226.64855945394515
 20
236.0
 10
226.99999999999997
 20
235.7112153100179
 10
227.85887991836998
 20
235.0
 10
228.0
 20
234.87828403069432
 10
229.0
 20
234.01864817342417
 10
229.02073957907575
 20
234.0
 10
230.0
 20
233.12392531760884
 10
230.13384715614785
 20
233.0
 10
231.0
 20
232.19530665813116
 10
231.20501636309314
 20
232.0
 10
232.0
 20
231.2359076107207
 10
232.2407738280432
 20
231.0
 10
233.0
 20
230.24646195490075
 10
233.2445875462225
 20
230.0
 10
234.0
 20
229.22591750225592
 10
234.21795220711394
 20
229.0
 10
235.0
 20
228.17151504680572
 10
235.16080633545639
 20
228.0
 10
236.0
 20
227.07836610379883
 10
236.07138509905033
 20
227.0
 10
236.94627725661573
 20
226.0
 10
236.99999999999997
 20
225.93896622118302
 10
237.793118811902
 20
225.0
 10
238.0
 20
224.7552464711236
 10
238.61655184502953
 20
224.0
 10
239.0
 20
223.5241341724655
 10
239.4144861689361
 20
223.0
 10
240.0
 20
222.23054172452552
 10
240.17711626066145
 20
222.0
 10
240.8872397521298
 20
221.0
 10
241.0
 20
220.84561475872795
 10
241.58345231760114
 20
220.0
 10
242.0
 20
219.38447096113651
 10
242.2598600230002
 20
219.0
 10
242.87370290742663
 20
218.0
 10
243.0
 20
217.8024102713253
 10
243.4834064957501
 20
217.0
 10
244.0
 20
216.09880509254478
 10
244.05933851594403
 20
216.0
 10
244.59037030458208
 20
215.0
 10
245.0
 20
214.2192900172356
 10
245.11894521823348
 20
214.0
 10
245.5902869874855
 20
213.0
 10
246.0
 20
212.12597428544288
 10
246.06223969029838
 20
212.0
 10
246.49100882363592
 20
211.0
 10
246.8911606307784
 20
210.0
 10
247.0
 20
209.74278107537916
 10
247.29861592919934
 20
209.0
 10
247.64102704185598
 20
208.0
 10
247.99172773812302
 20
207.0
 10
248.0
 20
206.977210283761
 10
248.3253563373422
 20
206.0
 10
248.60693799821394
 20
205.0
 10
248.88625948411158
 20
204.0
 10
249.0
 20
203.61137862951992
 10
249.17505677831832
 20
203.0
 10
249.41407633953622
 20
202.0
 10
249.62617280537143
 20
201.0
 10
249.83471682089942
 20
199.99999999999997
 10
250.0
 20
199.23572313027807
 10
250.05266678433648
 20
199.0
 10
250.24362082334204
 20
198.0
 10
250.40245898279247
 20
197.0
 10
250.5412369347021
 20
196.0
 10
250.66810668005934
 20
195.0
 10
250.7876741730473
 20
194.0
 10
250.90143000138443
 20
193.0
 10
251.0
 20
192.07529558124367
 10
251.00828692155892
 20
192.0
 10
251.09808096294475
 20
191.0
 10
251.166348621623
 20
190.0
 10
251.2152309123158
 20
189.0
 10
251.24592446980049
 20
188.0
 10
251.2588726487015
 20
187.0
 10
251.2538892766842
 20
186.0
 10
251.2301916091665
 20
185.0
 10
251.18631125304242
 20
184.0
 10
251.11985576044148
 20
183.0
 10
251.02709814125913
 20
182.0
 10
251.0
 20
181.77436540529277
 10
250.90917910624586
 20
181.0
 10
250.7792838570217
 20
180.0
 10
250.6388402036198
 20
179.0
 10
250.48456911724602
 20
178.0
 10
250.30730318788335
 20
177.0
 10
250.0906180697647
 20
176.0
 10
250.0
 20
175.65448851351766
 10
249.83167803986728
 20
175.0
 10
249.58131153905563
 20
174.0
 10
249.31981631653974
 20
173.0
 10
249.00708821449294
 20
172.0
 10
249.0
 20
171.98029452663715
 10
248.67278152023616
 20
171.0
 10
248.35222403097055
 20
170.0
 10
248.00000000000003
 20
169.04799861888495
 10
247.98069885270345
 20
168.99999999999997
 10
247.5999447517433
 20
168.0
 10
247.2290450264392
 20
167.0
 10
247.0
 20
166.46221361409982
 10
246.80090651371185
 20
166.0
 10
246.40581395555998
 20
165.0
 10
246.0
 20
164.05401052783353
 10
245.97489413548163
 20
164.0
 10
245.5452749588245
 20
163.0
 10
245.12401193864997
 20
162.0
 10
245.0
 20
161.73693271355614
 10
244.66588904736386
 20
161.0
 10
244.24582657924378
 20
160.0
 10
244.0
 20
159.47417456936728
 10
243.776914523347
 20
159.0
 10
243.34946823105298
 20
158.0
 10
243.0
 20
157.2498178104197
 10
242.87820454966203
 20
157.0
 10
242.43295528181955
 20
156.0
 10
242.0
 20
155.08452113362748
 10
241.9569390741409
 20
155.0
 10
241.4825564476314
 20
154.0
 10
240.99999999999997
 20
153.02864510899752
 10
240.98450386298305
 20
153.0
 10
240.4709588344345
 20
152.0
 10
240.0
 20
151.13800382129023
 10
239.91908328206574
 20
151.0
 10
239.35409333525013
 20
150.0
 10
239.0
 20
149.43769443679122
 10
238.71538056849312
 20
149.0
 10
238.05181985767837
 20
148.0
 10
238.0
 20
147.93079890954317
 10
237.3074836089175
 20
147.0
 10
237.0
 20
146.62550312467755
 10
236.46475372436356
 20
146.0
 10
236.0
 20
145.49747866690714
 10
235.50801387004356
 20
145.0
 10
235.0
 20
144.52261449601843
 10
234.3908976290796
 20
144.0
 10
234.0
 20
143.684008223025
 10
233.02028496578953
 20
143.0
 10
233.0
 20
142.98585335721634
 10
231.99999999999997
 20
142.4093875365181
 10
231.15837352664906
 20
142.0
 10
231.0
 20
141.92143071089225
 10
230.0
 20
141.55266197050753
 10
229.0
 20
141.29780062854906
 10
228.0
 20
141.122433809879
 10
227.0
 20
141.03666865092532
 10
226.0
 20
141.05828387747317
 10
225.0
 20
141.18901319908275
 10
224.0
 20
141.42135719617363
 10
223.0
 20
141.78280786957623
 10
222.60194027675192
 20
142.0
 10
222.0
 20
142.3511131527702
 10
221.13748933849558
 20
143.0
 10
221.0
 20
143.1234640821697
 10
220.1946712537461
 20
144.0
 10
219.99999999999997
 20
144.26059156671704
 10
219.5234078036999
 20
145.0
 10
219.06509568675145
 20
146.0
 10
219.0
 20
146.18219512120504
 10
218.7309106597787
 20
147.0
 10
218.5532151045278
 20
148.0
 10
218.48513638280897
 20
149.0
 10
218.51160917425187
 20
150.0
 10
218.62915281704693
 20
151.0
 10
218.8488408138866
 20
152.0
 10
219.0
 20
152.44610550432017
 10
219.18892425102115
 20
153.0
 10
219.57901686101573
 20
154.0
 10
220.0
 20
154.83257743906358
 10
220.0929724810249
 20
155.0
 10
220.67388044880167
 20
156.0
 10
221.0
 20
156.4750788495898
 10
221.37543374514462
 20
157.0
 10
222.0
 20
157.81566406954684
 10
222.15135528583647
 20
158.0
 10
222.997249472908
 20
159.0
 10
223.0
 20
159.00303481236585
 10
223.91473913039817
 20
160.0
 10
224.0
 20
160.08902394671745
 10
224.88605662610007
 20
161.0
 10
225.0
 20
161.1147475473252
 10
225.88918108997888
 20
162.0
 10
226.0
 20
162.10970190117243
 10
226.90296730242576
 20
163.0
 10
227.0
 20
163.09609740992323
 10
227.90761351979395
 20
164.0
 10
228.0
 20
164.09298585354995
 10
228.8863814859294
 20
165.0
 10
229.0
 20
165.1178523211377
 10
229.8274211575505
 20
166.0
 10
230.0
 20
166.18687162593514
 10
230.72470169701032
 20
167.0
 10
231.0
 20
167.31518609626366
 10
231.57677654461224
 20
168.0
 10
232.0
 20
168.51952613483883
 10
232.38217106986886
 20
169.0
 10
233.0
 20
169.8267585558427
 10
233.13058430053152
 20
170.0
 10
233.80851175013447
 20
171.0
 10
234.0
 20
171.28059035801758
 10
234.46626030846892
 20
172.0
 10
235.0
 20
172.88600649462157
 10
235.07119975285596
 20
173.00000000000003
 10
235.61542432324708
 20
174.0
 10
236.0
 20
174.72678699434795
 10
236.14769032705607
 20
175.0
 10
236.60684487784278
 20
176.0
 10
237.0
 20
176.87725122773185
 10
237.05801438329118
 20
177.00000000000003
 10
237.45893684996756
 20
178.0
 10
237.812645589604
 20
179.0
 10
238.0
 20
179.51447405262707
 10
238.17614419433943
 20
180.0
 10
238.47177678086626
 20
181.0
 10
238.73130549567742
 20
182.0
 10
238.99038231189064
 20
183.0
 10
239.0
 20
183.03836579752752
 10
239.22594264632218
 20
184.0
 10
239.40860595184137
 20
185.0
 10
239.55746500898982
 20
186.0
 10
239.68273781147684
 20
187.0
 10
239.78790577697356
 20
188.0
 10
239.8719759253626
 20
189.0
 10
239.93172276290875
 20
190.0
 10
239.96369105590634
 20
191.0
 10
239.96570166970236
 20
192.0
 10
239.9376715921304
 20
193.0
 10
239.88166173686648
 20
194.0
 10
239.8011556862162
 20
195.0
 10
239.699662669637
 20
196.0
 10
239.57884511426457
 20
197.0
 10
239.43645393154344
 20
198.0
 10
239.26434173810918
 20
199.0
 10
239.04667301477693
 20
200.0
 10
238.99999999999997
 20
200.17726645401535
 10
238.79335090858643
 20
201.0
 10
238.54595627979052
 20
202.0
 10
238.2789987986662
 20
202.99999999999997
 10
238.0
 20
203.85773645075346
 10
237.95070337670404
 20
204.0
 10
237.6146077739672
 20
205.0
 10
237.27647392507345
 20
206.0
 10
237.0
 20
206.68886640722673
 10
236.8701408310423
 20
207.0
 10
236.47503927922634
 20
208.0
 10
236.04566237539834
 20
209.0
 10
236.0
 20
209.09265723231078
 10
235.57952738670286
 20
210.0
 10
235.11169048486974
 20
211.0
 10
235.0
 20
211.20781320371813
 10
234.59046251557635
 20
212.0
 10
234.06818092117754
 20
213.0
 10
234.0
 20
213.11526272771235
 10
233.50114758457664
 20
214.0
 10
233.0
 20
214.84737085107415
 10
232.90372868061553
 20
215.0
 10
232.29732271127529
 20
216.0
 10
232.00000000000003
 20
216.4445840487706
 10
231.6249079520665
 20
217.0
 10
231.0
 20
217.90444379426066
 10
230.92942881262786
 20
218.0
 10
230.20077957559383
 20
219.0
 10
230.0
 20
219.2522573399827
 10
229.40066486135595
 20
220.0
 10
229.0
 20
220.47135198852948
 10
228.535483493274
 20
221.0
 10
228.0
 20
221.58037952724746
 10
227.59465386383735
 20
222.0
 10
227.0
 20
222.58518027286942
 10
226.55492298840704
 20
223.0
 10
226.0
 20
223.4906028075307
 10
225.38028592467333
 20
224.0
 10
225.00000000000003
 20
224.30075426508904
 10
224.00032075930912
 20
225.0
 10
224.00000000000003
 20
225.0002274930948
 10
223.0
 20
225.60693934783933
 10
222.2729021928946
 20
226.0
 10
222.0
 20
226.14790681857227
 10
221.0
 20
226.56986072872354
 10
220.0
 20
226.91731054169972
 10
219.7251742556935
 20
227.0
 10
219.0
 20
227.20932663806266
 10
217.99999999999997
 20
227.38863306142974
 10
217.0
 20
227.47895783507664
 10
216.0
 20
227.48592753836616
 10
215.0
 20
227.40405394443786
 10
214.0
 20
227.21468278068042
 10
213.35932616237625
 20
227.0
 10
213.0
 20
226.87337486902834
 10
212.0
 20
226.42324687568237
 10
211.34027098910127
 20
226.0
 10
211.0
 20
225.74940274410173
 10
210.18124514653888
 20
225.0
 10
210.0
 20
224.79672323670087
 10
209.40562599866405
 20
224.0
 10
209.0
 20
223.26691181008533
 10
208.8584982058191
 20
223.0
 10
208.51875195807554
 20
222.0
 10
208.33470255557808
 20
221.0
 10
208.27094257065048
 20
220.0
 10
208.32136118000815
 20
219.0
 10
208.47925873351954
 20
218.0
 10
208.7532650277313
 20
217.0
 10
209.0
 20
216.41997715068743
 10
209.18734466987507
 20
216.0
 10
209.70252652797126
 20
215.0
 10
210.0
 20
214.55180226194568
 10
210.38762022460892
 20
214.0
 10
211.0
 20
213.22958092882615
 10
211.19988877415182
 20
213.0
 10
212.0
 20
212.1508626821994
 10
212.15303135132314
 20
212.0
 10
213.0
 20
211.2190402330331
 10
213.24922025987223
 20
211.0
 10
214.0
 20
210.37418914070906
 10
214.46485463091682
 20
210.0
 10
215.0
 20
209.579726766858
 10
215.7681557585433
 20
209.0
 10
216.0
 20
208.82203468552657
 10
217.0
 20
208.0972977588087
 10
217.12721329931253
 20
208.0
 10
218.0
 20
207.35248943813684
 10
218.45716470517152
 20
207.0
 10
219.0
 20
206.57629831780298
 10
219.72041727218664
 20
205.99999999999997
 10
220.0
 20
205.76640844164393
 10
220.89520261823193
 20
205.0
 10
221.0
 20
204.90493226164895
 10
221.95913410486745
 20
204.0
 10
222.0
 20
203.9591470422877
 10
222.9014654259672
 20
203.0
 10
223.0
 20
202.8893894730098
 10
223.73194286634634
 20
202.0
 10
224.0
 20
201.65271437277255
 10
224.4708946157428
 20
201.0
 10
225.0
 20
200.17389975331025
 10
225.11151960285505
 20
200.0
 10
225.638135065739
 20
199.0
 10
226.0
 20
198.2419052458369
 10
226.11708869746252
 20
198.0
 10
226.49206644308464
 20
197.0
 10
226.78991098581878
 20
196.0
 10
227.0
 20
195.2036292068011
 10
227.05577366906135
 20
195.0
 10
227.24742430056915
 20
194.0
 10
227.36362937445546
 20
193.0
 10
227.41967881443412
 20
192.0
 10
227.42108963629727
 20
191.0
 10
227.36880667220623
 20
190.0
 10
227.2596165937161
 20
189.0
 10
227.0822102612209
 20
188.0
 10
227.0
 20
187.6750247412947
 10
226.83269808549284
 20
187.0
 10
226.5582409824882
 20
186.0
 10
226.2343699301893
 20
185.0
 10
226.0
 20
184.4402128535487
 10
225.80989862886054
 20
184.0
 10
225.37196488240772
 20
183.0
 10
224.99999999999997
 20
182.28789835030182
 10
224.84012530412045
 20
182.0
 10
224.28902137176175
 20
181.0
 10
224.0
 20
180.5435395004921
 10
223.6488326308061
 20
180.0
 10
222.99999999999997
 20
179.02241525274988
 10
222.98384963077197
 20
179.0
 10
222.2783676028958
 20
178.0
 10
222.0
 20
177.6320489188535
 10
221.52007482868834
 20
177.0
 10
221.0
 20
176.32771493944932
 10
220.73945524276638
 20
176.0
 10
220.0
 20
175.05339033065985
 10
219.95646617505744
 20
175.0
 10
219.17379092700304
 20
174.0
 10
219.0
 20
173.78521904266057
 10
218.38086700613965
 20
173.0
 10
218.0
 20
172.51872121579294
 10
217.59232459552464
 20
172.0
 10
217.0
 20
171.2261480754357
 10
216.82365724326618
 20
171.0
 10
216.09045366611534
 20
170.0
 10
216.0
 20
169.88113445932993
 10
215.36014149767087
 20
169.0
 10
215.0
 20
168.50668667523257
 10
214.63268511315619
 20
168.0
 10
214.0
 20
167.0943074035435
 10
213.93133025821987
 20
167.0
 10
213.2517446233261
 20
166.0
 10
213.0
 20
165.6447893940069
 10
212.5511942412268
 20
165.0
 10
212.0
 20
164.1994883417685
 10
211.8573869752904
 20
163.99999999999997
 10
211.18195397429116
 20
163.0
 10
211.0
 20
162.74778069693798
 10
210.47250087495536
 20
162.0
 10
210.0
 20
161.34256204349583
 10
209.74724645332984
 20
161.0
 10
209.0248213893745
 20
160.0
 10
209.0
 20
159.9679458616416
 10
208.27373269787574
 20
159.0
 10
208.0
 20
158.65394382880382
 10
207.48168741069844
 20
158.0
 10
207.0
 20
157.40919617465195
 10
206.65807592455695
 20
157.0
 10
206.0
 20
156.22383353289558
 10
205.80325613642108
 20
156.0
 10
205.0
 20
155.0959167793087
 10
204.91147126509486
 20
155.0
 10
204.0
 20
154.02654118072542
 10
203.9743033863369
 20
154.0
 10
203.0
 20
153.0158696823305
 10
202.98388582171842
 20
153.00000000000003
 10
202.0
 20
152.06094853919953
 10
201.93504205278106
 20
152.00000000000003
 10
200.99999999999997
 20
151.15556219619918
 10
200.8256296785354
 20
151.0
 10
200.0
 20
150.29195729550975
 10
199.6545976994414
 20
150.0
 10
199.0
 20
149.46401571290883
 10
198.41745441358808
 20
149.0
 10
198.0
 20
148.67143442206878
 10
197.098879524504
 20
148.0
 10
197.0
 20
147.9246619746227
 10
196.0
 20
147.22488981339663
 10
195.6842548065925
 20
147.0
 10
195.0
 20
146.53074033854176
 10
194.19427820150514
 20
146.0
 10
194.0
 20
145.86867820659896
 10
193.0
 20
145.25872045106706
 10
192.58914295304362
 20
145.0
 10
192.0
 20
144.63816451034074
 10
191.00000000000003
 20
144.06949654263005
 10
190.88442993076535
 20
144.0
 10
190.0
 20
143.50355379116715
 10
189.07310955369505
 20
143.0
 10
189.0
 20
142.95789988941698
 10
188.0
 20
142.44128211995223
 10
187.14438818626343
 20
142.0
 10
187.0
 20
141.92163178512092
 10
186.0
 20
141.43735892127575
 10
185.10578444110928
 20
141.0
 10
185.0
 20
140.94505713772764
 10
184.0
 20
140.4798556551746
 10
182.99999999999997
 20
140.0177315095742
 10
182.96435684937163
 20
140.0
 10
182.0
 20
139.5584885589023
 10
181.0
 20
139.12557219216455
 10
180.7353423608796
 20
139.0
 10
180.0
 20
138.66621175403074
 10
179.0
 20
138.25376825822912
 10
178.4384817143275
 20
138.0
 10
178.0
 20
137.8002797534951
 10
177.0
 20
137.3944637474373
 10
176.08242775690806
 20
137.0
 10
176.0
 20
136.9620068454319
 10
175.0
 20
136.54464083002796
 10
174.0
 20
136.1418806660378
 10
173.6829559889665
 20
136.0
 10
173.0
 20
135.70438111853827
 10
172.0
 20
135.31121517391085
 10
171.28164957394415
 20
135.0
 10
171.0
 20
134.8733046595401
 10
170.0
 20
134.46626203357187
 10
169.0
 20
134.0433611518382
 10
168.90791697792386
 20
134.0
 10
168.0
 20
133.600582944619
 10
167.00000000000003
 20
133.17590898212296
 10
166.636529615776
 20
133.0
 10
166.0
 20
132.69760589370281
 10
165.0
 20
132.24533528001
 10
164.5261810580044
 20
132.0
 10
164.0
 20
131.72610660239786
 10
163.0
 20
131.2220371984273
 10
162.61713736464793
 20
131.0
 10
162.0
 20
130.64247161074496
 10
161.00000000000003
 20
130.049118609414
 10
160.9272468751668
 20
130.0
 10
160.0
 20
129.39046434277404
 10
159.46046547287955
 20
129.0
 10
159.0
 20
128.65260032932093
 10
158.1827370258911
 20
128.0
 10
158.0
 20
127.84331073083911
 10
157.0672831722963
 20
127.0
 10
157.0
 20
126.9346090702356
 10
156.10129388418525
 20
126.0
 10
156.0
 20
125.88790006692433
 10
155.25907973948034
 20
125.0
 10
155.0
 20
124.66929081883328
 10
154.5089375917397
 20
124.0
 10
154.0
 20
123.23275118622493
 10
153.84613030870383
 20
123.0
 10
153.28794415739827
 20
122.0
 10
153.0
 20
121.46597513287877
 10
152.75356270774128
 20
121.00000000000001
 10
152.31855106334066
 20
120.0
 10
152.0
 20
119.25022336816218
 10
151.89052213901343
 20
119.0
 10
151.53158053823546
 20
118.0
 10
151.21931017004266
 20
117.0
 10
151.0
 20
116.30763240319027
 10
150.89985195892606
 20
115.99999999999999
 10
150.6324688807125
 20
115.0
 10
150.4089108811667
 20
114.0
 10
150.19889973665437
 20
113.0
 10
150.0
 20
112.0688789640243
 10
149.98439789703718
 20
112.0
 10
149.79083478218607
 20
111.0
 10
149.6327102638519
 20
110.0
 10
149.4965738158757
 20
109.0
 10
149.37294951927768
 20
108.0
 10
149.25544211140098
 20
107.0
 10
149.14006807310474
 20
106.0
 10
149.02468513141488
 20
105.0
 10
149.0
 20
104.78036532513136
 10
148.91386089040168
 20
103.99999999999999
 10
148.81816431802935
 20
103.0
 10
148.73469050621168
 20
102.0
 10
148.66056693321949
 20
101.0
 10
148.59336551595806
 20
100.0
 10
148.53100834263654
 20
99.0
 10
148.47170175697875
 20
98.0
 10
148.41388675229166
 20
97.0
 10
148.35620226337255
 20
96.0
 10
148.29746055814041
 20
95.0
 10
148.23663390587583
 20
94.0
 10
148.1728504488322
 20
93.0
 10
148.1053952089013
 20
92.0
 10
148.0337099618435
 20
91.0
 10
148.0
 20
90.55131728246263
 10
147.95863245780663
 20
90.0
 10
147.88632814687242
 20
89.0
 10
147.8174962616725
 20
88.0
 10
147.75182351217012
 20
87.0
 10
147.68888222148968
 20
86.0
 10
147.6281512158585
 20
85.0
 10
147.56905320655656
 20
84.0
 10
147.5110013127623
 20
83.0
 10
147.4534501547787
 20
82.0
 10
147.39594936246465
 20
81.0
 10
147.33819813603478
 20
80.0
 10
147.28009818321806
 20
79.0
 10
147.2217993655769
 20
78.0
 10
147.16372909885666
 20
77.0
 10
147.10659500785718
 20
76.0
 10
147.05135234280712
 20
75.0
 10
147.00000000000003
 20
74.01629550455289
 10
146.99913122844623
 20
74.0
 10
146.9526883964026
 20
73.0
 10
146.91404348316874
 20
72.0
 10
146.8829237985324
 20
71.0
 10
146.85895384318945
 20
70.0
 10
146.84164042120346
 20
69.0
 10
146.83034575089113
 20
68.0
 10
146.82424795503897
 20
67.0
 10
146.82228978794072
 20
66.0
 10
146.8231182312685
 20
65.0
 10
146.8250207536455
 20
64.0
 10
146.8258693376671
 20
63.0
 10
146.82309038575377
 20
62.0
 10
146.81368426412033
 20
61.0
 10
146.7943148284247
 20
60.0
 10
146.76146233838602
 20
59.0
 10
146.71156157134794
 20
58.0
 10
146.64091006209304
 20
57.0
 10
146.54492814065551
 20
56.0
 10
146.4161215084928
 20
55.0
 10
146.23988559031008
 20
54.0
 10
145.99999999999997
 20
53.047360993708686
 10
145.98719542957778
 20
53.0
 10
145.6826423285508
 20
52.0
 10
145.337487797017
 20
51.0
 10
145.0
 20
50.2682170832588
 10
144.86657637439768
 20
50.00000000000001
 10
144.32909343018258
 20
49.0
 10
144.0
 20
48.51088186812254
 10
143.63168873859132
 20
48.0
 10
143.0
 20
47.23416976442004
 10
142.78393664454805
 20
47.00000000000001
 10
142.0
 20
46.24430820203569
 10
141.7155447844471
 20
46.0
 10
141.0
 20
45.44752547468963
 10
140.33012118010757
 20
45.0
 10
140.0
 20
44.788095535268134
 10
139.0
 20
44.279367368659095
 10
138.3998590274788
 20
44.0
 10
138.0
 20
43.81649837170341
 10
137.0
 20
43.46481056392136
 10
136.0
 20
43.165841403761206
 10
135.43008693843734
 20
43.0
 10
135.0
 20
42.87440926106617
 10
134.0
 20
42.63965414480835
 10
133.0
 20
42.43768293877177
 10
132.0
 20
42.23447727381875
 10
131.0083771306548
 20
42.0
 10
131.0
 20
41.997878334007424
 10
130.0
 20
41.744038636646565
 10
129.0
 20
41.487493471974766
 10
128.0
 20
41.18222021270864
 10
127.54206315952135
 20
41.0
 10
127.0
 20
40.781847895054845
 10
126.0
 20
40.355299011036166
 10
125.34350098339496
 20
40.0
 10
125.0
 20
39.80096113721924
 10
124.0
 20
39.176568166115054
 10
123.76613917183056
 20
39.0
 10
123.00000000000001
 20
38.39441529872328
 10
122.56030077599613
 20
38.0
 10
121.99999999999999
 20
37.45174146194195
 10
121.57814087412021
 20
37.0
 10
121.0
 20
36.31124826172955
 10
120.75189869570302
 20
36.0
 10
120.06308481417865
 20
35.0
 10
120.0
 20
34.905563354331996
 10
119.44884741836117
 20
34.0
 10
119.0
 20
33.19050292465485
 10
118.89167454793218
 20
33.0
 10
118.41057864333959
 20
32.0
 10
118.0
 20
31.118162344524066
 10
117.94185267013688
 20
31.0
 10
117.51383297731982
 20
30.0
 10
117.10781439120923
 20
29.0
 10
117.0
 20
28.757081974972497
 10
116.67815270578026
 20
28.0
 10
116.28992258495325
 20
27.0
 10
116.0
 20
26.333437244562617
 10
115.84982296514828
 20
26.0
 10
115.43390044313433
 20
25.0
 10
115.0
 20
24.04358183975047
 10
114.97842972426676
 20
24.0
 10
114.50750516598825
 20
23.0
 10
114.01124778257795
 20
22.0
 10
114.0
 20
21.979980600957074
 10
113.48256080113265
 20
21.0
 10
113.0
 20
20.139952518462664
 10
112.91567402773705
 20
19.999999999999996
 10
112.33594351899823
 20
19.0
 10
112.0
 20
18.474549606879496
 10
111.68988078060215
 20
18.0
 10
111.0343841804321
 20
17.0
 10
111.0
 20
16.95254207976678
 10
110.3306389925014
 20
16.0
 10
110.0
 20
15.561319045092862
 10
109.56984818345704
 20
15.0
 10
109.0
 20
14.280526431433827
 10
108.76800945534342
 20
14.0
 10
108.0
 20
13.088142719270206
 10
107.92174599294393
 20
13.0
 10
107.01543047511409
 20
12.0
 10
107.0
 20
11.983852164158849
 10
106.02810116978891
 20
11.0
 10
106.0
 20
10.972656901313073
 10
104.99999999999999
 20
10.05430618486812
 10
104.93883122720484
 20
10.0
 10
104.0
 20
9.22214402081373
 10
103.72038260691043
 20
9.0
 10
103.0
 20
8.462879471041653
 10
102.32558438639845
 20
8.0
 10
102.0
 20
7.780337672028385
 10
101.0
 20
7.2122902336721495
 10
100.61208559042751
 20
6.999999999999999
 10
100.0
 20
6.68162997709424
 10
99.0
 20
6.270098402867804
 10
98.28932821903186
 20
6.0
 10
98.0
 20
5.888038323026099
 10
97.0
 20
5.60176767477133
 10
96.0
 20
5.400072275059301
 10
95.0
 20
5.259118289598585
 10
94.0
 20
5.178331665040931
 10
93.0
 20
5.164317051799129
 10
92.0
 20
5.219695837655938
 10
91.0
 20
5.340892900652079
 10
90.0
 20
5.526720628843121
 10
89.0
 20
5.796174307603432
 10
88.47303872233344
 20
6.0
 10
88.0
 20
6.188315236514379
 10
87.0
 20
6.6301509718272404
 10
86.35068914424433
 20
7.0
 10
86.0
 20
7.215333499415065
 10
85.0
 20
7.8891480586644755
 10
84.86211769298946
 20
8.0
 10
84.0
 20
8.729422556761563
 10
83.7167880765058
 20
9.0
 10
83.0
 20
9.753816705716755
 10
82.78316432630233
 20
10.0
 10
82.01773469542333
 20
10.999999999999998
 10
82.0
 20
11.024629159608278
 10
81.37505090437249
 20
12.0
 10
81.0
 20
12.658745658424746
 10
80.8088005397006
 20
13.0
 10
80.36782534148641
 20
14.0
 10
80.0
 20
14.93309382647181
 10
79.97217745591554
 20
15.0
 10
79.64859043906691
 20
16.0
 10
79.41313736159555
 20
17.0
 10
79.22708215330606
 20
18.0
 10
79.08046873211852
 20
19.0
 10
79.0
 20
19.791630740616753
 10
78.97815359687279
 20
20.0
 10
78.9310439281802
 20
21.0
 10
78.93785625569883
 20
22.0
 10
78.99725378304419
 20
23.0
 10
79.0
 20
23.02472023398813
 10
79.10373999211352
 20
24.0
 10
79.24443900974886
 20
25.0
 10
79.41285884875963
 20
26.0
 10
79.61276767140893
 20
27.0
 10
79.86296729627347
 20
28.0
 10
80.0
 20
28.43553079823444
 10
80.176868393437
 20
28.999999999999996
 10
80.48535295111552
 20
30.0
 10
80.82177768083966
 20
31.0
 10
81.0
 20
31.44313750164593
 10
81.22360702528579
 20
32.0
 10
81.60288228378812
 20
33.0
 10
82.0
 20
33.93582354840816
 10
82.02956859239318
 20
33.99999999999999
 10
82.46041119804235
 20
35.0
 10
82.88869927455562
 20
36.0
 10
83.0
 20
36.23228624503075
 10
83.35228501632798
 20
37.0
 10
83.77736028055715
 20
38.0
 10
84.0
 20
38.47576648153159
 10
84.24437892300872
 20
39.0
 10
84.65949439350406
 20
40.0
 10
85.0
 20
40.77218547659095
 10
85.1051673473322
 20
41.0
 10
85.51217895797652
 20
42.0
 10
85.9086444012346
 20
43.0
 10
86.0
 20
43.21334933629249
 10
86.3198791746185
 20
44.0
 10
86.67731786814848
 20
45.0
 10
87.00000000000001
 20
45.84788297588109
 10
87.06137816331047
 20
46.0
 10
87.41763576283567
 20
47.0
 10
87.74478620350706
 20
48.0
 10
88.0
 20
48.71506405006349
 10
88.1054602452117
 20
49.0
 10
88.43159515974273
 20
50.0
 10
88.73729381189685
 20
51.0
 10
89.0
 20
51.780463554545975
 10
89.07749339524267
 20
52.0
 10
89.39219685849658
 20
53.0
 10
89.68251295896874
 20
54.0
 10
90.0
 20
54.999045661700485
 10
90.00032948446112
 20
55.0
 10
90.31484675749957
 20
56.0
 10
90.59305995726889
 20
57.0
 10
90.88108321777028
 20
58.0
 10
91.0
 20
58.37661467755834
 10
91.1930452866057
 20
59.0
 10
91.4624673264234
 20
60.0
 10
91.71864492895168
 20
61.0
 10
91.99699455202783
 20
62.0
 10
92.0
 20
62.010257203897766
 10
92.26912110246866
 20
63.0
 10
92.50298106566763
 20
64.0
 10
92.72805663466119
 20
65.0
 10
92.96922497882827
 20
66.0
 10
93.0
 20
66.12141444433107
 10
93.21118627816787
 20
67.0
 10
93.41795743482089
 20
68.0
 10
93.61030399255534
 20
69.0
 10
93.80761818336221
 20
70.0
 10
94.0
 20
70.88282398095902
 10
94.02690565196863
 20
71.00000000000001
 10
94.23903763217534
 20
72.0
 10
94.43134816877796
 20
73.0
 10
94.622816354561
 20
74.0
 10
94.8354020387295
 20
75.0
 10
95.0
 20
75.65216669017762
 10
95.0898991068174
 20
76.0
 10
95.3412402103398
 20
77.0
 10
95.59703747952352
 20
78.0
 10
95.901922228875
 20
79.0
 10
96.0
 20
79.26006049751042
 10
96.27103912028765
 20
80.0
 10
96.64762419196421
 20
81.0
 10
97.0
 20
81.74731269387512
 10
97.12792028523249
 20
82.0
 10
97.65485635633608
 20
83.0
 10
98.0
 20
83.53452389464873
 10
98.32102569533923
 20
84.0
 10
99.0
 20
84.8703241298154
 10
99.1142546612545
 20
84.99999999999999
 10
100.0
 20
85.8880158649623
 10
100.12787098088552
 20
86.0
 10
101.0
 20
86.66514385431462
 10
101.53071159151104
 20
87.0
 10
102.0
 20
87.27555019424392
 10
103.0
 20
87.68547455375972
 10
104.00000000000001
 20
87.98424449999868
 10
104.08395700687596
 20
88.0
 10
105.0
 20
88.16567983261336
 10
106.0
 20
88.2071446414841
 10
107.0
 20
88.11667865298926
 10
107.48728521952185
 20
88.0
 10
108.0
 20
87.87699400075742
 10
109.0
 20
87.52152011356065
 10
109.96747467134799
 20
87.0
 10
110.0
 20
86.97933294172705
 10
111.0
 20
86.20888652150421
 10
111.2159123212939
 20
86.0
 10
112.0
 20
85.08192789895455
 10
112.06326264462294
 20
85.0
 10
112.6575154266773
 20
84.0
 10
113.0
 20
83.2616422986089
 10
113.11993541323318
 20
83.0
 10
113.42903874792427
 20
82.0
 10
113.61956477075535
 20
81.0
 10
113.72692689760316
 20
80.0
 10
113.75864965344041
 20
79.0
 10
113.71918550190816
 20
78.0
 10
113.61680900505246
 20
77.0
 10
113.45786461348752
 20
76.0
 10
113.23555748385381
 20
75.0
 10
113.0
 20
74.2359167232573
 10
112.92336896011908
 20
74.0
 10
112.58379673295302
 20
73.0
 10
112.21202426257094
 20
72.0
 10
112.0
 20
71.53584997481735
 10
111.75294228900091
 20
71.0
 10
111.30087622050218
 20
70.0
 10
111.0
 20
69.42649542591313
 10
110.77015107867503
 20
69.0
 10
110.25250668812832
 20
68.0
 10
110.0
 20
67.56747182207033
 10
109.66841433839858
 20
67.0
 10
109.09871493823654
 20
66.0
 10
109.0
 20
65.84370636107482
 10
108.48896322816825
 20
65.0
 10
108.0
 20
64.20983575552114
 10
107.86380871960282
 20
64.0
 10
107.25535715206269
 20
63.0
 10
107.0
 20
62.60993179420847
 10
106.60492050271054
 20
62.0
 10
106.00000000000001
 20
61.05077327707786
 10
105.96553293291393
 20
60.99999999999999
 10
105.32798456786497
 20
60.0
 10
105.0
 20
59.509129090410624
 10
104.65911561526691
 20
59.0
 10
104.00930002060247
 20
58.0
 10
104.0
 20
57.986639400272
 10
103.35221288650459
 20
57.0
 10
103.0
 20
56.48194290272993
 10
102.67086855461663
 20
56.0
 10
102.01085114922616
 20
55.0
 10
102.0
 20
54.98457689553075
 10
101.34760454907541
 20
54.0
 10
101.0
 20
53.489543470259186
 10
100.66689487516044
 20
53.0
 10
100.01828039432264
 20
52.0
 10
100.0
 20
51.97329290198755
 10
99.37869671102385
 20
51.0
 10
99.0
 20
50.40672419840959
 10
98.73989768848016
 20
50.0
 10
98.16689003495648
 20
49.0
 10
98.0
 20
48.71793999026061
 10
97.5969021066682
 20
48.0
 10
97.10445912149059
 20
47.0
 10
97.0
 20
46.788756893718485
 10
96.63631262243595
 20
46.0
 10
96.27095681616268
 20
45.0
 10
96.00000000000001
 20
44.18537898748953
 10
95.93557407672807
 20
44.0
 10
95.68781177410509
 20
43.0
 10
95.53991499911733
 20
42.0
 10
95.47830608474186
 20
41.0
 10
95.50684152488046
 20
40.0
 10
95.6390908524109
 20
39.0
 10
95.91315414068876
 20
38.0
 10
96.00000000000001
 20
37.80394401011897
 10
96.35884563331608
 20
37.0
 10
96.99035185993066
 20
36.0
 10
97.0
 20
35.98841563889848
 10
97.97210772755346
 20
35.0
 10
98.0
 20
34.97623007402358
 10
99.0
 20
34.3383626291328
 10
99.77845850885247
 20
34.0
 10
100.0
 20
33.904872411518085
 10
101.00000000000001
 20
33.66499923313292
 10
102.0
 20
33.588368706889725
 10
103.0
 20
33.64678084490234
 10
104.0
 20
33.84736343927695
 10
104.41978578812459
 20
34.0
 10
105.0
 20
34.21355056724928
 10
106.0
 20
34.68606979562749
 10
106.48203953472955
 20
35.0
 10
107.0
 20
35.365905391254245
 10
107.76102059575932
 20
36.0
 10
108.0
 20
36.22425807396478
 10
108.73750819370332
 20
37.0
 10
109.0
 20
37.30606362575807
 10
109.54592750565524
 20
38.0
 10
110.0
 20
38.640882816892386
 10
110.24760771552698
 20
39.0
 10
110.83756832593144
 20
40.0
 10
111.0
 20
40.27499529493251
 10
111.40542490010648
 20
41.0
 10
111.90341260636126
 20
42.0
 10
112.0
 20
42.18503264471614
 10
112.40075068997446
 20
43.0
 10
112.84725412581552
 20
44.0
 10
113.0
 20
44.31573321172915
 10
113.3205344475731
 20
45.0
 10
113.74501315933546
 20
46.0
 10
114.0
 20
46.54544447753726
 10
114.21479967989701
 20
46.99999999999999
 10
114.64361799415259
 20
48.0
 10
115.0
 20
48.76207845989331
 10
115.11694448937953
 20
49.00000000000001
 10
115.5680453107559
 20
50.0
 10
116.0
 20
50.90002188226353
 10
116.05162631947985
 20
51.0
 10
116.53130013408395
 20
52.0
 10
117.0
 20
52.93692266584423
 10
117.03411889335244
 20
53.0
 10
117.53861052436491
 20
54.0
 10
118.0
 20
54.879481184990986
 10
118.06761982261469
 20
55.0
 10
118.58862409593593
 20
56.0
 10
119.0
 20
56.7487150144151
 10
119.14435741447268
 20
56.99999999999999
 10
119.67522314679312
 20
58.0
 10
120.0
 20
58.568093678278906
 10
120.25045803502199
 20
59.0
 10
120.78971409414086
 20
60.0
 10
121.0
 20
60.35715002733131
 10
121.37081822560137
 20
61.0
 10
121.92132519503693
 20
62.0
 10
122.0
 20
62.1314750988372
 10
122.49094004588562
 20
63.0
 10
123.0
 20
63.91017926478657
 10
123.05344588286344
 20
64.0
 10
123.59541654099522
 20
65.0
 10
124.0
 20
65.73158989376155
 10
124.15347247946546
 20
66.0
 10
124.66520525754461
 20
67.0
 10
125.0
 20
67.62881142420284
 10
125.20071580251084
 20
68.0
 10
125.67725928809402
 20
69.0
 10
126.0
 20
69.65311652360555
 10
126.17464704231784
 20
70.0
 10
126.6090742664222
 20
71.0
 10
127.0
 20
71.89897993325837
 10
127.04669032836333
 20
72.00000000000001
 10
127.44341414159504
 20
73.0
 10
127.79205305198397
 20
74.0
 10
128.0
 20
74.58171607275656
 10
128.15073690580917
 20
75.0
 10
128.44197068809314
 20
76.0
 10
128.6871160251403
 20
77.0
 10
128.91623884550754
 20
78.0
 10
129.0
 20
78.39386242026393
 10
129.1275441717585
 20
79.0
 10
129.28192225781623
 20
80.0
 10
129.389259981158
 20
81.0
 10
129.45760694014058
 20
82.0
 10
129.49034472207072
 20
83.0
 10
129.48873133250717
 20
84.0
 10
129.45328403086813
 20
85.0
 10
129.38380752361124
 20
86.0
 10
129.2782257483912
 20
87.0
 10
129.13069667743838
 20
88.0
 10
129.0
 20
88.66658901828761
 10
128.9334987445934
 20
89.0
 10
128.7226849971895
 20
90.0
 10
128.50653881566123
 20
91.0
 10
128.26869079659465
 20
92.00000000000001
 10
128.0
 20
92.9407415646063
 10
127.98184071641408
 20
93.0
 10
127.68916069210866
 20
94.0
 10
127.41814092425204
 20
95.0
 10
127.13241992314227
 20
96.0
 10
127.0
 20
96.4206432245586
 10
126.8203142900164
 20
97.0
 10
126.55404646873626
 20
98.0
 10
126.31227804914802
 20
99.0
 10
126.07045083476902
 20
100.0
 10
126.0
 20
100.29656419079406
 10
125.83767998846028
 20
101.0
 10
125.66029841379549
 20
102.0
 10
125.52733319130625
 20
103.0
 10
125.43241453504967
 20
104.0
 10
125.37540816998181
 20
105.0
 10
125.35919482695424
 20
106.0
 10
125.38679176014367
 20
107.00000000000001
 10
125.46040330865156
 20
108.0
 10
125.58378180763141
 20
109.0
 10
125.76857275260696
 20
110.0
 10
126.0
 20
110.85095945632341
 10
126.04308251977317
 20
110.99999999999999
 10
126.36685001905529
 20
112.0
 10
126.73831931342237
 20
113.0
 10
127.0
 20
113.53869855051161
 10
127.23306971333771
 20
114.0
 10
127.77079164273285
 20
115.0
 10
128.0
 20
115.34811347048392
 10
128.4424201074291
 20
116.0
 10
129.0
 20
116.73680533804438
 10
129.21632089253728
 20
117.0
 10
130.0
 20
117.88486900251972
 10
130.11084546851765
 20
118.0
 10
131.0
 20
118.85627652650155
 10
131.15952281084503
 20
119.0
 10
132.0
 20
119.7005775358811
 10
132.38149487806135
 20
120.0
 10
133.0
 20
120.45890406809505
 10
133.7947019141013
 20
121.0
 10
134.0
 20
121.14037780557956
 10
135.0
 20
121.73754384955521
 10
135.4362469904081
 20
122.00000000000001
 10
136.0
 20
122.32980620504202
 10
137.0
 20
122.85621117819238
 10
137.2556531451105
 20
123.0
 10
138.0
 20
123.40003223009636
 10
139.0
 20
123.9134544268127
 10
139.15181942762626
 20
124.0
 10
140.0
 20
124.46063585252867
 10
140.95606710645808
 20
125.0
 10
141.0
 20
125.02699161238125
 10
142.0
 20
125.63289153030416
 10
142.53467933144316
 20
126.0
 10
143.0
 20
126.33560763172798
 10
143.84456987910391
 20
127.0
 10
144.0
 20
127.13507610478831
 10
144.8999554000954
 20
128.0
 10
145.0
 20
128.1081693488108
 10
145.72563533598242
 20
129.0
 10
146.0
 20
129.39572681721162
 10
146.38053952923374
 20
130.0
 10
146.83569141333848
 20
131.0
 10
147.0
 20
131.45976841304378
 10
147.18741771393735
 20
132.0
 10
147.3753996625577
 20
133.0
 10
147.43035405073692
 20
134.0
 10
147.35961140350088
 20
135.0
 10
147.14184957702383
 20
136.0
 10
147.0
 20
136.35848169804663
 10
146.7409901047089
 20
137.0
 10
146.18583960369253
 20
138.0
 10
146.0
 20
138.24036840455477
 10
145.32984560923137
 20
139.0
 10
145.0
 20
139.30574152871145
 10
144.04055238359123
 20
139.99999999999997
 10
144.00000000000003
 20
140.0275840410965
 10
143.0
 20
140.5319420393452
 10
142.0
 20
140.87803796517989
 10
141.52766525596064
 20
141.0
 10
141.0
 20
141.1349142602211
 10
140.0
 20
141.26895499962512
 10
139.0
 20
141.3074224232696
 10
138.0
 20
141.26540945522126
 10
137.0
 20
141.14462635823458
 10
136.3002767134755
 20
141.0
 10
136.0
 20
140.93679839354616
 10
135.0
 20
140.68349860945582
 10
134.0
 20
140.39434463643687
 10
133.0
 20
140.0241217592696
 10
132.94645467031407
 20
140.0
 10
132.0
 20
139.59998427103955
 10
131.0
 20
139.15441621645076
 10
130.70891829333362
 20
139.0
 10
130.0
 20
138.63122902895526
 10
129.0
 20
138.1022769588411
 10
128.8311250672295
 20
138.0
 10
128.0
 20
137.5141904814802
 10
127.16049379519305
 20
137.0
 10
127.0
 20
136.89536232818557
 10
126.0
 20
136.26842492059023
 10
125.6093671607469
 20
136.0
 10
125.0
 20
135.5808454446465
 10
124.1734218061661
 20
135.0
 10
124.0
 20
134.87150924092475
 10
123.0
 20
134.1468624648822
 10
122.81310007530381
 20
134.0
 10
122.0
 20
133.36614684523744
 10
121.55356321784184
 20
133.0
 10
121.0
 20
132.53688198603345
 10
120.37984983323693
 20
132.0
 10
120.0
 20
131.65967839663
 10
119.2857274998528
 20
131.0
 10
119.0
 20
130.7258338421421
 10
118.26897143807878
 20
130.0
 10
118.0
 20
129.72308715161657
 10
117.3246636330091
 20
129.0
 10
117.0
 20
128.64024075753417
 10
116.44403212437422
 20
128.0
 10
116.0
 20
127.46819257736935
 10
115.61880572907117
 20
127.0
 10
115.0
 20
126.19511527721764
 10
114.84914448281508
 20
126.0
 10
114.14198907193807
 20
125.0
 10
114.0
 20
124.80354561449664
 10
113.4480993081157
 20
124.0
 10
113.0
 20
123.33341849582894
 10
112.77336102831264
 20
123.0
 10
112.14729310405517
 20
122.0
 10
112.0
 20
121.7784220658814
 10
111.50270102621602
 20
121.0
 10
111.0
 20
120.21215314782025
 10
110.85885166284191
 20
120.0
 10
110.23182336351503
 20
119.0
 10
110.0
 20
118.65981098523915
 10
109.55371079131021
 20
118.0
 10
109.0
 20
117.20288859099581
 10
108.8511717871171
 20
117.00000000000001
 10
108.12275470395576
 20
116.0
 10
108.0
 20
115.8470912085841
 10
107.31425776173575
 20
115.0
 10
107.0
 20
114.64019334366694
 10
106.41636194296576
 20
114.0
 10
106.0
 20
113.57258145894372
 10
105.40402740396163
 20
113.0
 10
105.0
 20
112.63459146182595
 10
104.22760067693467
 20
112.0
 10
104.0
 20
111.81970027124078
 10
103.0
 20
111.14033038218678
 10
102.78250745225864
 20
111.00000000000001
 10
102.0
 20
110.53775532373416
 10
101.0
 20
110.04594103132214
 10
100.90069644561771
 20
110.0
 10
100.0
 20
109.62202303221878
 10
99.0
 20
109.31115590111341
 10
98.0
 20
109.04868823327371
 10
97.77211782682596
 20
109.0
 10
97.0
 20
108.84044014987477
 10
96.0
 20
108.71726852503079
 10
95.0
 20
108.66140550212998
 10
94.0
 20
108.66476494724104
 10
93.0
 20
108.72557008093005
 10
92.0
 20
108.8478248826051
 10
91.21526098422565
 20
109.0
 10
91.0
 20
109.04308691214217
 10
90.0
 20
109.27940110210747
 10
89.0
 20
109.54250450365927
 10
88.0
 20
109.86518400973054
 10
87.66795908453835
 20
110.0
 10
87.0
 20
110.26694716687169
 10
86.0
 20
110.66830718073464
 10
85.30566108379979
 20
111.0
 10
85.0
 20
111.15335698489945
 10
84.0
 20
111.63756694769884
 10
83.33538788605314
 20
112.0
 10
82.99999999999999
 20
112.19038852478366
 10
82.0
 20
112.73109080119738
 10
81.55192897264637
 20
113.0
 10
81.0
 20
113.33150824407153
 10
80.0
 20
113.91195493842667
 10
79.86132567298444
 20
114.0
 10
79.0
 20
114.52048567439812
 10
78.2104515522918
 20
115.0
 10
78.0
 20
115.13324142978055
 10
77.0
 20
115.71198860276348
 10
76.52510266384985
 20
116.0
 10
76.0
 20
116.31552301719339
 10
75.0
 20
116.86508824651548
 10
74.76821726935795
 20
117.0
 10
74.0
 20
117.424770558678
 10
73.0
 20
117.93476552113766
 10
72.87800889945436
 20
118.0
 10
72.0
 20
118.4363904463589
 10
71.0
 20
118.88297299285699
 10
70.74817663732117
 20
119.0
 10
70.0
 20
119.32990775847615
 10
69.0
 20
119.70027898705288
 10
68.19424805261814
 20
120.0
 10
68.0
 20
120.07567425171582
 10
67.0
 20
120.39651278505428
 10
66.0
 20
120.6606118190934
 10
65.0
 20
120.90769843925166
 10
64.6064621333827
 20
121.0
 10
64.0
 20
121.14061423170597
 10
63.0
 20
121.3147329980489
 10
62.0
 20
121.44223797172188
 10
61.0
 20
121.53303876705522
 10
60.0
 20
121.59093942722951
 10
59.0
 20
121.61669463700616
 10
58.0
 20
121.6102086820774
 10
57.0
 20
121.57157241259874
 10
56.0
 20
121.50077935102044
 10
55.0
 20
121.39616314589935
 10
54.00000000000001
 20
121.25177413857377
 10
53.00000000000001
 20
121.05396279657683
 10
52.787519351458904
 20
121.0
 10
52.0
 20
120.80838647813948
 10
51.0
 20
120.55557578517109
 10
50.0
 20
120.27044259860224
 10
49.24936148435944
 20
120.0
 10
49.0
 20
119.90551377324729
 10
48.0
 20
119.529558212814
 10
46.99999999999999
 20
119.11614452078751
 10
46.76555824252222
 20
119.0
 10
46.0
 20
118.63240196544466
 10
45.0
 20
118.14101028398198
 10
44.75470415778868
 20
118.0
 10
44.0
 20
117.57620437092203
 10
43.018789131695065
 20
117.0
 10
43.0
 20
116.98796229093861
 10
42.0
 20
116.36471735017184
 10
41.45962869400283
 20
116.0
 10
41.0
 20
115.68317198374932
 10
40.011541309087264
 20
115.0
 10
40.0
 20
114.991456382988
 10
39.0
 20
114.27458102265201
 10
38.637987790543114
 20
114.0
 10
38.0
 20
113.5191833370553
 10
37.31781779999762
 20
113.0
 10
37.0
 20
112.7529967331159
 10
36.0019095266247
 20
112.0
 10
36.0
 20
111.99849372475494
 10
35.0
 20
111.24925370445976
 10
34.675227722062324
 20
111.0
 10
34.0
 20
110.49534915128102
 10
33.32495141267831
 20
110.0
 10
33.0
 20
109.75997085289319
 10
32.0
 20
109.07430510051195
 10
31.895226665576978
 20
108.99999999999999
 10
31.0
 20
108.40566757731408
 10
30.375435285929946
 20
108.0
 10
30.0
 20
107.75639796021107
 10
29.0
 20
107.17925067492318
 10
28.698671532070204
 20
107.0
 10
28.0
 20
106.60454404136158
 10
27.0
 20
106.09791836915568
 10
26.81313659282265
 20
106.0
 10
26.0
 20
105.60258664710378
 10
25.0
 20
105.17752186775671
 10
24.594583782673315
 20
105.0
 10
24.0
 20
104.74734863299278
 10
23.0
 20
104.3981872760144
 10
22.0
 20
104.06435415440389
 10
21.808024716106225
 20
104.0
 10
21.0
 20
103.74446121759766
 10
20.0
 20
103.49409492709901
 10
19.0
 20
103.27651998131054
 10
18.0
 20
103.07131078900265
 10
17.623871183389227
 20
103.0
 10
17.0
 20
102.88327994204808
 10
16.0
 20
102.74401636310415
 10
15.0
 20
102.64521868227277
 10
14.0
 20
102.58028990435213
 10
13.0
 20
102.54632718537327
 10
12.0
 20
102.54236663741817
 10
11.0
 20
102.5683233415142
 10
10.0
 20
102.62478297753563
 10
9.0
 20
102.71364742327108
 10
8.0
 20
102.83942778144257
 10
7.059672700738686
 20
103.0
 10
7.0
 20
103.01067658303283
 10
6.0
 20
103.20639001593223
 10
5.0
 20
103.40599961404834
 10
4.0
 20
103.61875747671158
 10
3.0
 20
103.86431260205151
 10
2.530706389497014
 20
104.0
 10
2.0
 20
104.15295895935536
 10
1.0
 20
104.41931229513432
 10
0.0
 20
104.67852483292003
  0
LWPOLYLINE
  5
40
330
17
100
AcDbEntity
  8
0
100
AcDbPolyline
 90
119
 70
0
 10
179.0
 20
104.7445703062848
 10
178.16452002886598
 20
105.0
 10
178.0
 20
105.05402168624727
 10
177.0
 20
105.44168069127583
 10
176.0
 20
105.94551828699551
 10
175.9169908754243
 20
106.0
 10
175.0
 20
106.62100614483771
 10
174.54809556307526
 20
107.0
 10
174.0
 20
107.5240822837252
 10
173.57066061219246
 20
108.0
 10
173.0
 20
108.77377429340082
 10
172.84430795051503
 20
109.0
 10
172.33437105829944
 20
110.0
 10
172.0
 20
110.84599486246275
 10
171.93779141768485
 20
111.0
 10
171.67499149887857
 20
112.0
 10
171.53895666630052
 20
113.0
 10
171.5000606809631
 20
114.0
 10
171.55036190954135
 20
115.0
 10
171.69172868451568
 20
116.0
 10
171.94515533921637
 20
117.0
 10
172.0
 20
117.14787488213358
 10
172.30398606307085
 20
118.0
 10
172.72552006636678
 20
119.0
 10
173.0
 20
119.4911254983256
 10
173.2982373335181
 20
120.0
 10
173.95258567938933
 20
121.0
 10
174.0
 20
121.06119543436408
 10
174.74590999134796
 20
122.0
 10
175.0
 20
122.28362443056218
 10
175.68399424933472
 20
123.0
 10
176.0
 20
123.30685224695839
 10
176.77369719628976
 20
124.0
 10
177.0
 20
124.1944122299077
 10
178.0
 20
124.96751736519931
 10
178.04288248811284
 20
125.0
 10
179.0
 20
125.66434356715752
 10
179.50597323819602
 20
126.0
 10
180.0
 20
126.31862038692783
 10
181.0
 20
126.88490223635755
 10
181.19926393300858
 20
127.0
 10
182.0
 20
127.43183962456068
 10
183.0
 20
127.9116070732338
 10
183.17910855473374
 20
128.0
 10
184.0
 20
128.37758161936068
 10
185.0
 20
128.76883827201428
 10
185.580489251401
 20
129.0
 10
186.0
 20
129.1675882056615
 10
187.0
 20
129.4905856220841
 10
188.0
 20
129.7702776831942
 10
188.8479394284478
 20
130.0
 10
189.0
 20
130.0433036149511
 10
190.0
 20
130.26450804720577
 10
191.0
 20
130.4210739255183
 10
192.0
 20
130.52682907863533
 10
193.0
 20
130.5844120345296
 10
194.0
 20
130.59079388495906
 10
195.0
 20
130.5413397476837
 10
196.0
 20
130.4296628846208
 10
197.0
 20
130.24024462858202
 10
197.79663019518946
 20
130.0
 10
198.0
 20
129.93464178803703
 10
199.0
 20
129.5539015700136
 10
200.0
 20
129.05708583458699
 10
200.08807399529886
 20
129.0
 10
201.0
 20
128.39200713178033
 10
201.47489306939198
 20
128.0
 10
202.0
 20
127.50752025240155
 10
202.4661943683493
 20
127.0
 10
203.0
 20
126.29677693054495
 10
203.2079497179799
 20
126.0
 10
203.72884488723915
 20
125.0
 10
204.0
 20
124.35221584247304
 10
204.1453485191435
 20
124.0
 10
204.4097113853603
 20
123.0
 10
204.55483508391427
 20
122.0
 10
204.6058297718555
 20
121.0
 10
204.5686771493229
 20
120.0
 10
204.4451314503006
 20
119.0
 10
204.22518196093552
 20
118.0
 10
204.0
 20
117.3465895518948
 10
203.87506191649817
 20
117.0
 10
203.46229477971337
 20
116.0
 10
203.0
 20
115.13188971942989
 10
202.92186382343098
 20
115.0
 10
202.2881108917211
 20
114.0
 10
202.0
 20
113.6192696171389
 10
201.50581380735622
 20
113.0
 10
201.0
 20
112.42798500816791
 10
200.59237697700138
 20
112.0
 10
200.0
 20
111.42375116590564
 10
199.53113648548535
 20
111.0
 10
199.0
 20
110.54760409202116
 10
198.30175757200976
 20
110.0
 10
198.0
 20
109.76920657930307
 10
197.0
 20
109.09281715572607
 10
196.86232809668255
 20
109.0
 10
196.0
 20
108.46276311220971
 10
195.20125591152834
 20
108.0
 10
195.0
 20
107.8807485173148
 10
194.0
 20
107.37532602381172
 10
193.23552292341688
 20
107.0
 10
193.0
 20
106.88106196767981
 10
192.0
 20
106.45778157017844
 10
191.0
 20
106.06543872704856
 10
190.83551776944608
 20
106.0
 10
190.0
 20
105.6896160567025
 10
189.0
 20
105.39129185740583
 10
188.0
 20
105.11606842308794
 10
187.5613968471877
 20
105.0
 10
187.0
 20
104.85318593266143
 10
186.0
 20
104.65810436109658
 10
185.0
 20
104.5181128705162
 10
184.0
 20
104.42402913307131
 10
183.0
 20
104.37586347089325
 10
182.0
 20
104.37769075992799
 10
181.0
 20
104.43416576458333
 10
180.0
 20
104.55132921019253
 10
179.0
 20
104.7445703062848
  0
LWPOLYLINE
  5
41
330
17
100
AcDbEntity
  8
0
100
AcDbPolyline
 90
163
 70
0
 10
200.0
 20
176.87854640587207
 10
201.0
 20
176.5587029032015
 10
202.0
 20
176.349765108642
 10
203.0
 20
176.2302433374553
 10
204.0
 20
176.20824814358286
 10
205.0
 20
176.29258506670553
 10
206.0
 20
176.48757778566653
 10
207.0
 20
176.82700727930916
 10
207.32742484393353
 20
177.0
 10
208.0
 20
177.3750530357035
 10
208.83775937783278
 20
178.0
 10
209.0
 20
178.14603809701444
 10
209.7692336039085
 20
179.0
 10
210.0
 20
179.32448409367854
 10
210.4163936517372
 20
180.0
 10
210.82672539712635
 20
181.0
 10
211.0
 20
181.59175223843255
 10
211.11918652366862
 20
182.0
 10
211.2609860046155
 20
183.0
 10
211.27893011232874
 20
184.0
 10
211.18593466796506
 20
185.0
 10
211.0
 20
185.8674458084072
 10
210.97038581472953
 20
186.0
 10
210.6696029293164
 20
187.0
 10
210.29866886503072
 20
187.99999999999997
 10
210.0
 20
188.59943421301216
 10
209.79017285742864
 20
189.0
 10
209.23916005231754
 20
190.0
 10
209.0
 20
190.36464437993646
 10
208.57811191800943
 20
191.0
 10
208.0
 20
191.82642894508908
 10
207.87117719776091
 20
192.0
 10
207.1484091119596
 20
193.0
 10
207.0
 20
193.19268346053752
 10
206.39735691953896
 20
194.0
 10
206.0
 20
194.53102882478711
 10
205.65232105358683
 20
195.0
 10
205.0
 20
195.93778324857436
 10
204.95540743756177
 20
196.0
 10
204.31788408946474
 20
197.00000000000003
 10
204.0
 20
197.5132142232605
 10
203.70628647148015
 20
198.0
 10
203.19499969212984
 20
199.0
 10
203.0
 20
199.38509927676458
 10
202.70219301857088
 20
200.0
 10
202.3132425431965
 20
201.0
 10
202.0
 20
201.84624308490152
 10
201.94054134795044
 20
202.0
 10
201.63372643546452
 20
203.0
 10
201.39549820928792
 20
204.0
 10
201.18732737219995
 20
205.0
 10
201.0
 20
205.9606683660573
 10
200.9918989109662
 20
206.0
 10
200.8275072704944
 20
207.0
 10
200.70114158319652
 20
208.0
 10
200.5974217525803
 20
209.0
 10
200.50436572167723
 20
210.0
 10
200.41121118422365
 20
211.0
 10
200.3067304503815
 20
212.0
 10
200.17734679480785
 20
213.0
 10
200.00417162061245
 20
214.0
 10
200.0
 20
214.01870661803815
 10
199.79505099733987
 20
215.0
 10
199.56281165658925
 20
216.0
 10
199.27667885252112
 20
217.0
 10
199.0
 20
217.70128422980582
 10
198.87525318564764
 20
218.0
 10
198.41932100796274
 20
219.0
 10
198.0
 20
219.71693147186946
 10
197.8183646633862
 20
220.0
 10
197.0956053327721
 20
221.0
 10
197.0
 20
221.10991350335635
 10
196.14381050486415
 20
222.0
 10
195.99999999999997
 20
222.1321081219328
 10
195.0
 20
222.89580910340837
 10
194.84385365002217
 20
223.0
 10
194.0
 20
223.4959402363329
 10
193.0
 20
223.93388860217314
 10
192.81649058759882
 20
224.0
 10
192.0
 20
224.2731789202261
 10
191.0
 20
224.4671923781509
 10
190.0
 20
224.55671049021092
 10
189.0
 20
224.55196165076467
 10
188.0
 20
224.45273021429895
 10
187.00000000000003
 20
224.2471779892204
 10
186.28647241945038
 20
224.0
 10
186.0
 20
223.8948601324995
 10
185.0
 20
223.45256492873082
 10
184.2392797811167
 20
223.0
 10
184.0
 20
222.84093443057338
 10
183.0
 20
222.07938863484765
 10
182.91259013618694
 20
222.0
 10
182.0
 20
221.07806711054863
 10
181.9301400823777
 20
220.99999999999997
 10
181.16837048550374
 20
220.0
 10
181.0
 20
219.7550962882566
 10
180.52914035477787
 20
219.0
 10
180.0161446247057
 20
218.0
 10
180.0
 20
217.96634599071933
 10
179.58415682563128
 20
217.0
 10
179.25682410828716
 20
216.0
 10
179.0
 20
215.13117654977177
 10
178.95913028031725
 20
215.0
 10
178.7266869845422
 20
214.00000000000003
 10
178.56740370916665
 20
213.0
 10
178.45886846692025
 20
212.0
 10
178.39199889720135
 20
211.0
 10
178.36373636663208
 20
210.0
 10
178.3727168650239
 20
209.0
 10
178.41750067302024
 20
208.0
 10
178.49696758090158
 20
207.0
 10
178.61236153994176
 20
206.0
 10
178.77042168466292
 20
205.0
 10
178.98717577042189
 20
204.0
 10
179.0
 20
203.95284576350338
 10
179.24231260885247
 20
203.0
 10
179.50538705539475
 20
202.0
 10
179.81062139243056
 20
201.0
 10
180.0
 20
200.50415738549947
 10
180.19403612545196
 20
200.0
 10
180.5740076320447
 20
199.0
 10
181.0
 20
198.04179653237472
 10
181.02036967951463
 20
198.0
 10
181.4984367692756
 20
197.0
 10
182.0
 20
196.0391109633616
 10
182.02234791612548
 20
196.0
 10
182.57892844640145
 20
195.0
 10
183.0
 20
194.30858911014326
 10
183.19670032081876
 20
194.0
 10
183.82012182612274
 20
193.00000000000003
 10
184.0
 20
192.74139408087999
 10
184.50899142844654
 20
192.0
 10
185.0
 20
191.31357286394677
 10
185.23265867668013
 20
191.0
 10
185.96699035124738
 20
190.0
 10
186.0
 20
189.95819057775705
 10
186.73551149754084
 20
189.0
 10
187.0
 20
188.67220862137992
 10
187.5409034155658
 20
188.0
 10
188.0
 20
187.44229882208407
 10
188.3694269030206
 20
187.0
 10
189.0
 20
186.24900565613797
 10
189.21457802233013
 20
186.0
 10
190.0
 20
185.08488530037675
 10
190.07530108434946
 20
185.0
 10
190.95664157867296
 20
184.0
 10
191.0
 20
183.95266656958935
 10
191.8732687787033
 20
183.0
 10
192.0
 20
182.86639608107367
 10
192.83510026702317
 20
182.0
 10
193.0
 20
181.83419704523752
 10
193.85849688459817
 20
181.0
 10
194.0
 20
180.86628968514484
 10
194.97411659455366
 20
180.0
 10
195.00000000000003
 20
179.97735922673564
 10
196.0
 20
179.17958362751483
 10
196.23485107801443
 20
179.0
 10
197.0
 20
178.4572569210498
 10
197.71933455642898
 20
178.00000000000003
 10
198.00000000000003
 20
177.82371558212043
 10
199.0
 20
177.32175979535126
 10
199.7282894279711
 20
177.0
 10
200.0
 20
176.87854640587207
  0
LWPOLYLINE
  5
42
330
17
100
AcDbEntity
  8
0
100
AcDbPolyline
 90
143
 70
0
 10
100.0
 20
192.99528361046717
 10
99.9581119809595
 20
193.0
 10
99.0
 20
193.1027798559321
 10
98.0
 20
193.26483543078706
 10
97.0
 20
193.47496255098378
 10
96.0
 20
193.74949424668955
 10
95.33609736474025
 20
194.0
 10
95.0
 20
194.13286933192046
 10
94.0
 20
194.55106771257343
 10
93.12447882469073
 20
195.0
 10
93.0
 20
195.0702691716981
 10
92.0
 20
195.6541028312483
 10
91.49715224480755
 20
196.0
 10
91.0
 20
196.35966329064863
 10
90.18695939421045
 20
197.0
 10
90.0
 20
197.1601665832134
 10
89.0845264973574
 20
198.0
 10
89.0
 20
198.08395550421417
 10
88.146620999087
 20
199.0
 10
88.0
 20
199.16820227402783
 10
87.33209945262533
 20
200.0
 10
87.0
 20
200.44533005847745
 10
86.6082600603177
 20
201.0
 10
86.0
 20
201.98212258682483
 10
85.9885998170925
 20
202.0
 10
85.44852006953529
 20
203.0
 10
85.0
 20
203.93036113818735
 10
84.96480519954791
 20
204.0
 10
84.55056633931382
 20
205.0
 10
84.21010419062026
 20
206.0
 10
84.0
 20
206.6403976961767
 10
83.88042651290196
 20
207.0
 10
83.62583094022106
 20
208.0
 10
83.43278960758818
 20
209.0
 10
83.27892494103594
 20
210.0
 10
83.15841330107526
 20
211.0
 10
83.07470181935932
 20
212.0
 10
83.03417559738455
 20
212.99999999999997
 10
83.04134604338715
 20
214.0
 10
83.09629801995963
 20
215.0
 10
83.19493523950715
 20
216.0
 10
83.3323299502432
 20
217.0
 10
83.50911052603868
 20
218.0
 10
83.74044074143356
 20
219.0
 10
84.0
 20
219.81108546232815
 10
84.06442212733306
 20
220.00000000000003
 10
84.42916402648767
 20
221.0
 10
84.85229654510115
 20
222.0
 10
85.0
 20
222.2748226107625
 10
85.38981766963528
 20
223.0
 10
85.99733790751773
 20
224.0
 10
86.0
 20
224.00369850419432
 10
86.72085702161384
 20
225.0
 10
87.0
 20
225.3335897478745
 10
87.5972052522427
 20
226.0
 10
88.0
 20
226.40578918459585
 10
88.65277139915544
 20
227.0
 10
89.0
 20
227.29375158892353
 10
89.96847124118939
 20
228.0
 10
90.0
 20
228.02270757396283
 10
91.0
 20
228.6214115119472
 10
91.72665218393377
 20
229.0
 10
92.0
 20
229.14219279508796
 10
93.0
 20
229.53869985029053
 10
94.0
 20
229.85434396353682
 10
94.53349691673944
 20
230.0
 10
95.0
 20
230.1273117396964
 10
96.0
 20
230.30613723550513
 10
97.0
 20
230.4068891745116
 10
98.0
 20
230.4425117659671
 10
99.0
 20
230.41652755448897
 10
100.0
 20
230.3273952318441
 10
101.0
 20
230.1657656173079
 10
101.6594782480875
 20
230.0
 10
102.0
 20
229.91218134367455
 10
103.0
 20
229.61368780744817
 10
104.0
 20
229.25914327616667
 10
104.5525757824852
 20
229.0
 10
105.0
 20
228.78196431413502
 10
106.0
 20
228.26540931347012
 10
106.41875512347721
 20
228.0
 10
107.0
 20
227.61903728931725
 10
107.85835452108046
 20
227.0
 10
108.0
 20
226.88817903199183
 10
109.0
 20
226.05387325818344
 10
109.0582619762256
 20
226.0
 10
110.0
 20
225.07911188047146
 10
110.075732089424
 20
225.0
 10
110.9526033220137
 20
224.00000000000003
 10
111.0
 20
223.94339564772383
 10
111.72418976775617
 20
223.0
 10
112.0
 20
222.62003356158442
 10
112.42564980810381
 20
222.0
 10
113.0
 20
221.0614759483173
 10
113.0387407759982
 20
221.0
 10
113.57439932869045
 20
220.0
 10
114.0
 20
219.1334933609079
 10
114.06815932781141
 20
219.0
 10
114.4880828212227
 20
218.0
 10
114.84710535707032
 20
217.0
 10
115.0
 20
216.56474602975126
 10
115.19424103094265
 20
216.0
 10
115.45644083227926
 20
215.0
 10
115.6647337076042
 20
213.99999999999997
 10
115.83978030972338
 20
213.0
 10
115.9830464867762
 20
212.0
 10
116.0
 20
211.82943693653982
 10
116.08153943930719
 20
211.0
 10
116.12460228923182
 20
210.0
 10
116.11546119984554
 20
209.0
 10
116.05202363228753
 20
208.0
 10
116.0
 20
207.576229920402
 10
115.93040531973132
 20
207.0
 10
115.76626279262251
 20
206.0
 10
115.5650367475496
 20
205.0
 10
115.31288297198456
 20
204.0
 10
115.0
 20
203.0938890320543
 10
114.9647540597775
 20
203.0
 10
114.56514868819545
 20
202.0
 10
114.10320952881186
 20
201.0
 10
114.0
 20
200.82077694314825
 10
113.53192741904391
 20
200.0
 10
113.0
 20
199.18587078823217
 10
112.86649404198904
 20
199.0
 10
112.09903931742586
 20
198.0
 10
112.0
 20
197.88751983089628
 10
111.16439267945447
 20
197.0
 10
111.0
 20
196.84112643296808
 10
110.02050949400333
 20
196.0
 10
110.0
 20
195.98314912115518
 10
109.0
 20
195.2799201168479
 10
108.55725797399144
 20
195.0
 10
108.0
 20
194.6684314648291
 10
107.0
 20
194.20096901477316
 10
106.52982832855614
 20
194.0
 10
106.0
 20
193.7806263633687
 10
105.0
 20
193.48358645717138
 10
104.0
 20
193.2633002122252
 10
103.0
 20
193.09763629005917
 10
102.07923071946426
 20
193.0
 10
102.0
 20
192.99121123381684
 10
101.0
 20
192.95623710990503
 10
100.0
 20
192.99528361046717
  0
LWPOLYLINE
  5
43
330
17
100
AcDbEntity
  8
0
100
AcDbPolyline
 90
83
 70
0
 10
27.0
 20
233.84165109234834
 10
26.288599069241265
 20
234.0
 10
26.0
 20
234.0660073333221
 10
25.0
 20
234.37282792370826
 10
24.0
 20
234.77673474922824
 10
23.60375282461726
 20
235.0
 10
23.0
 20
235.35725597918412
 10
22.10072632507412
 20
236.0
 10
22.0
 20
236.08281800688997
 10
21.030763780020497
 20
237.0
 10
21.0
 20
237.0335319022314
 10
20.23378130491129
 20
238.0
 10
20.0
 20
238.34408787292983
 10
19.59705886292835
 20
239.0
 10
19.13615207912697
 20
240.0
 10
19.0
 20
240.34581847216222
 10
18.756495197502904
 20
241.0
 10
18.52010414383799
 20
242.0
 10
18.382132552082968
 20
243.0
 10
18.328728784963815
 20
244.0
 10
18.359445781420085
 20
244.99999999999997
 10
18.474461669934716
 20
246.0
 10
18.68212765660669
 20
247.0
 10
19.0
 20
247.93350593401874
 10
19.024993862744992
 20
248.0
 10
19.470431231078386
 20
249.0
 10
20.0
 20
249.91168944880616
 10
20.058779686006538
 20
250.0
 10
20.813248464384678
 20
251.0
 10
21.0
 20
251.20459079997198
 10
21.826512856389012
 20
252.0
 10
22.0
 20
252.14962340694223
 10
23.0
 20
252.84978011324466
 10
23.246464130507324
 20
253.0
 10
24.0
 20
253.41242697348858
 10
25.0
 20
253.80676290745222
 10
25.601688671368677
 20
254.0
 10
26.0
 20
254.1278334927834
 10
27.0
 20
254.32344560082328
 10
28.0
 20
254.4147625723956
 10
29.0
 20
254.41799510317577
 10
30.0
 20
254.33421644857683
 10
31.0
 20
254.1503771273928
 10
31.49155970945189
 20
254.0
 10
32.0
 20
253.8425287633983
 10
33.0
 20
253.46522102452928
 10
33.899243627317276
 20
253.00000000000003
 10
34.0
 20
252.94093460549394
 10
35.0
 20
252.28152508495373
 10
35.34385721239251
 20
252.0
 10
36.0
 20
251.40441935256035
 10
36.387063766555954
 20
251.0
 10
37.0
 20
250.2464297344897
 10
37.18552275895404
 20
250.0
 10
37.77289553823795
 20
248.99999999999997
 10
38.0
 20
248.54749067754113
 10
38.25913691237061
 20
248.0
 10
38.58018004761643
 20
247.0
 10
38.80082880425714
 20
246.0
 10
38.93746013299188
 20
245.0
 10
38.977636730987676
 20
244.0
 10
38.91483514184706
 20
242.99999999999997
 10
38.75939560834597
 20
241.99999999999997
 10
38.52156194100445
 20
241.0
 10
38.17370549765896
 20
240.0
 10
38.0
 20
239.65093566163335
 10
37.66741807574107
 20
239.0
 10
37.04978827254694
 20
238.0
 10
37.0
 20
237.9353875507136
 10
36.23192176830971
 20
237.0
 10
36.0
 20
236.76027248519873
 10
35.151080709020384
 20
236.0
 10
35.0
 20
235.87609174237292
 10
34.0
 20
235.2151343797341
 10
33.62319252942281
 20
235.0
 10
33.0
 20
234.67146153920163
 10
32.0
 20
234.298969318861
 10
30.999999999999996
 20
234.00765486951008
 10
30.963259947208982
 20
234.0
 10
30.0
 20
233.80949643594448
 10
29.0
 20
233.72431590982757
 10
28.0
 20
233.7343336329527
 10
27.0
 20
233.84165109234834
  0
ENDSEC
  0
SECTION
  2
OBJECTS
  0
DICTIONARY
  5
A
330
0
100
AcDbDictionary
280
0
281
1
  3
ACAD_COLOR
350
B
  3
ACAD_GROUP
350
C
  3
ACAD_LAYOUT
350
D
  3
ACAD_MATERIAL
350
E
  3
ACAD_MLEADERSTYLE
350
F
  3
ACAD_MLINESTYLE
350
10
  3
ACAD_PLOTSETTINGS
350
11
  3
ACAD_PLOTSTYLENAME
350
12
  3
ACAD_SCALELIST
350
14
  3
ACAD_TABLESTYLE
350
15
  3
ACAD_VISUALSTYLE
350
16
  3
EZDXF_META
350
2D
  0
DICTIONARY
  5
B
330
A
100
AcDbDictionary
280
0
281
1
  0
DICTIONARY
  5
C
330
A
100
AcDbDictionary
280
0
281
1
  0
DICTIONARY
  5
D
330
A
100
AcDbDictionary
280
0
281
1
  3
Model
350
1A
  3
Layout1
350
1E
  0
DICTIONARY
  5
E
330
A
100
AcDbDictionary
280
0
281
1
  3
ByBlock
350
1F
  3
ByLayer
350
20
  3
Global
350
21
  0
DICTIONARY
  5
F
330
A
100
AcDbDictionary
280
0
281
1
  3
Standard
350
2C
  0
DICTIONARY
  5
10
330
A
100
AcDbDictionary
280
0
281
1
  3
Standard
350
22
  0
DICTIONARY
  5
11
330
A
100
AcDbDictionary
280
0
281
1
  0
ACDBDICTIONARYWDFLT
  5
12
330
A
100
AcDbDictionary
280
0
281
1
  3
Normal
350
13
100
AcDbDictionaryWithDefault
340
13
  0
ACDBPLACEHOLDER
  5
13
330
12
  0
DICTIONARY
  5
14
330
A
100
AcDbDictionary
280
0
281
1
  0
DICTIONARY
  5
15
330
A
100
AcDbDictionary
280
0
281
1
  0
DICTIONARY
  5
16
330
A
100
AcDbDictionary
280
0
281
1
  0
LAYOUT
  5
1A
330
D
100
AcDbPlotSettings
  1

  2
Adobe PDF
  4
A3
  6

 40
7.5
 41
20.0
 42
7.5
 43
20.0
 44
420.0
 45
297.0
 46
0.0
 47
0.0
 48
0.0
 49
0.0
140
0.0
141
0.0
142
1.0
143
1.0
 70
1024
 72
1
 73
0
 74
5
  7

 75
16
 76
0
 77
2
 78
300
147
1.0
148
0.0
149
0.0
100
AcDbLayout
  1
Model
 70
1
 71
0
 10
0.0
 20
0.0
 11
420.0
 21
297.0
 12
0.0
 22
0.0
 32
0.0
 14
1e+20
 24
1e+20
 34
1e+20
 15
-1e+20
 25
-1e+20
 35
-1e+20
146
0.0
 13
0.0
 23
0.0
 33
0.0
 16
1.0
 26
0.0
 36
0.0
 17
0.0
 27
1.0
 37
0.0
 76
1
330
17
  0
LAYOUT
  5
1E
330
D
100
AcDbPlotSettings
  1

  2
Adobe PDF
  4
A3
  6

 40
7.5
 41
20.0
 42
7.5
 43
20.0
 44
420.0
 45
297.0
 46
0.0
 47
0.0
 48
0.0
 49
0.0
140
0.0
141
0.0
142
1.0
143
1.0
 70
0
 72
1
 73
0
 74
5
  7

 75
16
 76
0
 77
2
 78
300
147
1.0
148
0.0
149
0.0
100
AcDbLayout
  1
Layout1
 70
1
 71
1
 10
0.0
 20
0.0
 11
420.0
 21
297.0
 12
0.0
 22
0.0
 32
0.0
 14
1e+20
 24
1e+20
 34
1e+20
 15
-1e+20
 25
-1e+20
 35
-1e+20
146
0.0
 13
0.0
 23
0.0
 33
0.0
 16
1.0
 26
0.0
 36
0.0
 17
0.0
 27
1.0
 37
0.0
 76
1
330
1B
  0
MATERIAL
  5
1F
102
{ACAD_REACTORS
330
E
102
}
330
E
100
AcDbMaterial
  1
ByBlock
  2

 70
0
 40
1.0
 71
1
 41
1.0
 91
-1023410177
 42
1.0
 72
1
  3

 73
1
 74
1
 75
1
 44
0.5
 73
0
 45
1.0
 46
1.0
 77
1
  4

 78
1
 79
1
170
1
 48
1.0
171
1
  6

172
1
173
1
174
1
140
1.0
141
1.0
175
1
  7

176
1
177
1
178
1
143
1.0
179
1
  8

270
1
271
1
272
1
145
1.0
146
1.0
273
1
  9

274
1
275
1
276
1
 42
1.0
 72
1
  3

 73
1
 74
1
 75
1
 94
63
  0
MATERIAL
  5
20
102
{ACAD_REACTORS
330
E
102
}
330
E
100
AcDbMaterial
  1
ByLayer
  2

 70
0
 40
1.0
 71
1
 41
1.0
 91
-1023410177
 42
1.0
 72
1
  3

 73
1
 74
1
 75
1
 44
0.5
 73
0
 45
1.0
 46
1.0
 77
1
  4

 78
1
 79
1
170
1
 48
1.0
171
1
  6

172
1
173
1
174
1
140
1.0
141
1.0
175
1
  7

176
1
177
1
178
1
143
1.0
179
1
  8

270
1
271
1
272
1
145
1.0
146
1.0
273
1
  9

274
1
275
1
276
1
 42
1.0
 72
1
  3

 73
1
 74
1
 75
1
 94
63
  0
MATERIAL
  5
21
102
{ACAD_REACTORS
330
E
102
}
330
E
100
AcDbMaterial
  1
Global
  2

 70
0
 40
1.0
 71
1
 41
1.0
 91
-1023410177
 42
1.0
 72
1
  3

 73
1
 74
1
 75
1
 44
0.5
 73
0
 45
1.0
 46
1.0
 77
1
  4

 78
1
 79
1
170
1
 48
1.0
171
1
  6

172
1
173
1
174
1
140
1.0
141
1.0
175
1
  7

176
1
177
1
178
1
143
1.0
179
1
  8

270
1
271
1
272
1
145
1.0
146
1.0
273
1
  9

274
1
275
1
276
1
 42
1.0
 72
1
  3

 73
1
 74
1
 75
1
 94
63
  0
MLINESTYLE
  5
22
102
{ACAD_REACTORS
330
10
102
}
330
10
100
AcDbMlineStyle
  2
Standard
 70
0
  3

 62
256
 51
90.0
 52
90.0
 71
2
 49
0.5
 62
256
  6
BYLAYER
 49
-0.5
 62
256
  6
BYLAYER
  0
MLEADERSTYLE
  5
2C
102
{ACAD_REACTORS
330
F
102
}
330
F
100
AcDbMLeaderStyle
179
2
170
2
171
1
172
0
 90
2
 40
0.0
 41
0.0
173
1
 91
-1056964608
 92
-2
290
1
 42
2.0
291
1
 43
8.0
  3
Standard
 44
4.0
300

342
29
174
1
175
1
176
0
178
1
 93
-1056964608
 45
4.0
292
0
297
0
 46
4.0
 94
-1056964608
 47
1.0
 49
1.0
140
1.0
294
1
141
0.0
177
0
142
1.0
295
0
296
0
143
3.75
271
0
272
9
273
9
  0
DICTIONARY
  5
2D
330
A
100
AcDbDictionary
281
1
  3
CREATED_BY_EZDXF
350
2E
  3
WRITTEN_BY_EZDXF
350
46
  0
DICTIONARYVAR
  5
2E
330
2D
100
DictionaryVariables
280
0
  1
1.0.2 @ 2023-06-06T12:51:27.882295+00:00
  0
DICTIONARYVAR
  5
46
330
2D
100
DictionaryVariables
280
0
  1
1.0.2 @ 2023-06-06T12:51:27.892295+00:00
  0
ENDSEC
  0
EOF
